<?xml version="1.0" encoding="utf-8"?>
<!-- Generator: Adobe Illustrator 23.0.2, SVG Export Plug-In . SVG Version: 6.00 Build 0)  -->
<svg version="1.1" id="Layer_1" xmlns="http://www.w3.org/2000/svg" xmlns:xlink="http://www.w3.org/1999/xlink" x="0px" y="0px"
	 viewBox="0 0 792 612" style="enable-background:new 0 0 792 612;" xml:space="preserve">
<style type="text/css">
	.st0{fill:#FFFFFF;}
	.st1{fill:#333689;}
	.st2{fill:#C7EAFA;}
	.st3{fill:none;stroke:#E51E25;stroke-miterlimit:10;}
	.st4{fill:#E51E25;}
	.st5{fill:#00687C;}
	.st6{stroke:#000000;stroke-miterlimit:10;}
	.st7{fill:url(#SVGID_1_);}
	.st8{fill:url(#SVGID_2_);}
	.st9{fill:url(#SVGID_3_);}
	.st10{fill:url(#SVGID_4_);}
	.st11{fill:url(#SVGID_5_);}
	.st12{fill:none;stroke:#000000;stroke-width:0.5;stroke-miterlimit:10;}
	.st13{fill:none;stroke:#000000;stroke-miterlimit:10;}
</style>
<rect x="188" y="116" class="st0" width="405" height="415"/>
<path class="st1" d="M542.41,318.84c0,82.38-66.78,149.17-149.17,149.17c-82.38,0-149.17-66.79-149.17-149.17
	c0-82.39,66.78-149.18,149.17-149.18C475.63,169.66,542.41,236.45,542.41,318.84z"/>
<path class="st2" d="M511.99,318.84c0,65.59-53.17,118.75-118.75,118.75c-65.59,0-118.75-53.17-118.75-118.75
	c0-65.59,53.17-118.76,118.75-118.76C458.83,200.08,511.99,253.25,511.99,318.84z"/>
<path class="st0" d="M392.75,228.88c0,0,7.08,14.96,27.92,22.63c20.83,7.67,43.17,4,43.17,4s2.17,38.75-8.33,74.75
	s-41.63,78.63-61.13,79.5s-46.71-29.25-64.88-77.92c-3.51-9.39-13.33-47.33-13.33-76.67c0,0,24,7.33,45.17-2.33
	C382.5,243.17,392.75,228.88,392.75,228.88z"/>
<g>
	<path class="st0" d="M268.23,303.63l-0.2,3.33l-3.51,1.12l-0.36,6.07l3.36,1.46l-0.19,3.25l-14.75-6.8l0.19-3.24L268.23,303.63z
		 M261.93,308.92l-5.73,1.76l5.48,2.38L261.93,308.92z"/>
	<path class="st0" d="M268.34,302.9l-14.87-2.77l0.84-4.52l10.65-0.83l-9.64-4.57l0.84-4.53l14.87,2.77l-0.52,2.8l-11.7-2.18
		l11.15,5.15l-0.54,2.91l-12.25,0.78l11.7,2.18L268.34,302.9z"/>
	<path class="st0" d="M271.56,286.76l-14.44-4.5l3.36-10.77l2.44,0.76l-2.44,7.83l3.2,1l2.27-7.29l2.43,0.76l-2.27,7.29l3.93,1.22
		l2.53-8.11l2.43,0.76L271.56,286.76z"/>
	<path class="st0" d="M275.33,274.8l-13.88-6l2.56-5.93c0.64-1.49,1.24-2.52,1.78-3.09c0.54-0.57,1.22-0.92,2.03-1.05
		c0.81-0.13,1.63-0.02,2.45,0.34c1.04,0.45,1.77,1.13,2.18,2.04c0.41,0.91,0.44,2.01,0.09,3.32c0.62-0.46,1.22-0.79,1.82-1.01
		c0.59-0.21,1.58-0.42,2.95-0.63l3.44-0.54l-1.46,3.37l-3.9,0.73c-1.39,0.26-2.29,0.46-2.68,0.6c-0.4,0.15-0.71,0.34-0.94,0.6
		s-0.49,0.7-0.77,1.35l-0.25,0.57l5.8,2.5L275.33,274.8z M268.54,268.53l0.9-2.09c0.58-1.35,0.89-2.22,0.92-2.61
		c0.03-0.39-0.05-0.73-0.25-1.04c-0.2-0.31-0.5-0.56-0.92-0.74c-0.47-0.2-0.9-0.24-1.29-0.11c-0.4,0.13-0.73,0.4-1,0.83
		c-0.13,0.22-0.44,0.89-0.94,2.04l-0.95,2.2L268.54,268.53z"/>
	<path class="st0" d="M280.96,262.33l-13.41-6.99l1.42-2.72l13.41,6.99L280.96,262.33z"/>
	<path class="st0" d="M283.32,247.09l2.36-2.04c1.16,1.26,1.81,2.55,1.93,3.87c0.12,1.32-0.24,2.68-1.1,4.07
		c-1.06,1.72-2.52,2.77-4.37,3.15c-1.85,0.39-3.79-0.05-5.81-1.3c-2.14-1.32-3.46-2.91-3.96-4.75c-0.5-1.84-0.19-3.67,0.93-5.48
		c0.98-1.58,2.24-2.58,3.78-3c0.91-0.25,1.98-0.2,3.19,0.14l-0.98,2.97c-0.76-0.26-1.49-0.27-2.17-0.02
		c-0.69,0.25-1.24,0.72-1.67,1.41c-0.59,0.96-0.73,1.95-0.42,2.97c0.32,1.02,1.24,2,2.77,2.95c1.63,1,2.97,1.43,4.02,1.26
		c1.05-0.16,1.87-0.71,2.45-1.65c0.43-0.69,0.58-1.43,0.45-2.2C284.59,248.68,284.13,247.89,283.32,247.09z"/>
	<path class="st0" d="M298.61,235.89l-2.05,2.63l-3.53-1.06l-3.74,4.79l1.94,3.1l-2,2.57l-8.29-13.97l2-2.56L298.61,235.89z
		 M290.42,236.67l-5.72-1.8l3.16,5.07L290.42,236.67z"/>
	<path class="st0" d="M298.68,235.93l-10.86-10.53l2.08-2.14l11.58,2.57l-7.25-7.03l1.99-2.05l10.86,10.53l-2.14,2.21l-11.35-2.47
		l7.08,6.87L298.68,235.93z"/>
	<path class="st0" d="M315.58,220.15l-9.2-12l2.44-1.87l9.2,12L315.58,220.15z"/>
	<path class="st0" d="M319.75,216.84l-8.23-12.69l2.51-1.63l10.72,5.08l-5.5-8.47l2.39-1.55l8.23,12.69l-2.58,1.68l-10.51-4.94
		l5.37,8.27L319.75,216.84z"/>
	<path class="st0" d="M335.08,207.54l-5.69-11.2l-4.02,2.04l-1.16-2.28l10.78-5.47l1.16,2.28l-4.01,2.04l5.69,11.2L335.08,207.54z"
		/>
	<path class="st0" d="M342.94,203.64l-5.44-14.11l10.52-4.06l0.92,2.39l-7.66,2.95l1.21,3.13l7.12-2.75l0.92,2.38l-7.12,2.75
		l1.48,3.84l7.93-3.06l0.92,2.38L342.94,203.64z"/>
	<path class="st0" d="M355.45,198.92l-3.85-14.63l6.25-1.64c1.57-0.41,2.75-0.58,3.53-0.51c0.78,0.08,1.47,0.39,2.08,0.95
		c0.6,0.56,1.02,1.27,1.25,2.14c0.29,1.1,0.2,2.09-0.26,2.97c-0.46,0.89-1.31,1.59-2.55,2.12c0.74,0.2,1.38,0.47,1.91,0.81
		c0.54,0.34,1.31,0.98,2.32,1.93l2.55,2.38l-3.55,0.93l-2.98-2.62c-1.06-0.94-1.77-1.52-2.13-1.74c-0.36-0.22-0.71-0.35-1.05-0.37
		c-0.34-0.03-0.86,0.05-1.54,0.23l-0.6,0.16l1.61,6.11L355.45,198.92z M356.2,189.7l2.2-0.58c1.42-0.37,2.3-0.67,2.62-0.88
		c0.32-0.21,0.55-0.49,0.67-0.84c0.12-0.35,0.13-0.74,0.01-1.18c-0.13-0.49-0.37-0.85-0.71-1.09c-0.34-0.23-0.77-0.33-1.27-0.28
		c-0.25,0.03-0.98,0.2-2.18,0.52l-2.32,0.61L356.2,189.7z"/>
	<path class="st0" d="M369.53,195.36l-2.15-14.97l2.96-0.42l7.59,9.11l-1.43-10l2.82-0.4l2.15,14.97l-3.05,0.44l-7.47-8.89l1.4,9.76
		L369.53,195.36z"/>
	<path class="st0" d="M397.59,193.04l-3.34,0.1l-1.43-3.4l-6.08,0.17l-1.16,3.47l-3.26,0.09l5.49-15.29l3.25-0.09L397.59,193.04z
		 M391.77,187.22l-2.26-5.55l-1.89,5.67L391.77,187.22z"/>
	<path class="st0" d="M400.33,193.36l0.79-12.54l-4.5-0.29l0.16-2.55l12.06,0.76l-0.16,2.55l-4.49-0.28l-0.79,12.54L400.33,193.36z"
		/>
	<path class="st0" d="M409.09,194.11l1.99-14.99l3.04,0.4l-1.99,14.99L409.09,194.11z"/>
	<path class="st0" d="M415.32,187.26c0.33-1.5,0.83-2.72,1.51-3.64c0.5-0.68,1.11-1.25,1.83-1.72c0.71-0.47,1.45-0.77,2.21-0.91
		c1.01-0.19,2.12-0.15,3.33,0.11c2.19,0.48,3.79,1.54,4.81,3.17c1.02,1.64,1.27,3.66,0.74,6.06c-0.52,2.39-1.58,4.11-3.18,5.17
		c-1.6,1.06-3.49,1.36-5.67,0.88c-2.21-0.48-3.82-1.54-4.83-3.16C415.05,191.6,414.8,189.61,415.32,187.26z M418.43,187.83
		c-0.37,1.67-0.25,3.03,0.34,4.06c0.59,1.03,1.48,1.68,2.68,1.94c1.2,0.26,2.27,0.05,3.22-0.64c0.95-0.69,1.62-1.89,1.99-3.6
		c0.37-1.69,0.27-3.04-0.29-4.03c-0.57-1-1.47-1.63-2.7-1.9c-1.24-0.27-2.33-0.07-3.27,0.61
		C419.46,184.94,418.8,186.13,418.43,187.83z"/>
	<path class="st0" d="M429.63,198.21l4.97-14.28l2.82,0.98l2.56,11.58l3.32-9.54l2.69,0.94l-4.97,14.28l-2.91-1.01l-2.55-11.33
		l-3.24,9.31L429.63,198.21z"/>
	<path class="st0" d="M455.63,209.06l-3.01-1.45l0.3-3.67l-5.47-2.65l-2.63,2.55l-2.93-1.42l11.92-11.04l2.92,1.41L455.63,209.06z
		 M453.14,201.21l0.56-5.96l-4.29,4.16L453.14,201.21z"/>
	<path class="st0" d="M456.34,209.62l7.92-12.74l2.61,1.62l-6.57,10.58l6.48,4.03l-1.34,2.16L456.34,209.62z"/>
	<path class="st0" d="M482.15,208.85l2.31,2.02l-5.38,6.17c-0.85,0.98-1.38,1.64-1.58,1.98c-0.31,0.55-0.4,1.13-0.27,1.74
		c0.13,0.61,0.51,1.19,1.16,1.76c0.66,0.57,1.27,0.87,1.83,0.9c0.57,0.02,1.05-0.13,1.46-0.46c0.41-0.33,1-0.95,1.79-1.85l5.5-6.31
		l2.31,2.02l-5.22,5.99c-1.19,1.37-2.1,2.28-2.72,2.74c-0.62,0.46-1.26,0.73-1.94,0.83s-1.39,0.01-2.16-0.25
		c-0.76-0.26-1.6-0.79-2.51-1.58c-1.09-0.95-1.81-1.8-2.16-2.55c-0.35-0.74-0.51-1.46-0.49-2.15c0.02-0.69,0.17-1.3,0.45-1.83
		c0.42-0.79,1.18-1.82,2.3-3.09L482.15,208.85z"/>
	<path class="st0" d="M483.68,230.51l11.24-10.12l2,2.22L493.58,234l7.51-6.75l1.91,2.12l-11.24,10.12l-2.06-2.29l3.23-11.15
		l-7.33,6.6L483.68,230.51z"/>
	<path class="st0" d="M493.7,242.14l12.06-9.12l1.85,2.45l-12.06,9.12L493.7,242.14z"/>
	<path class="st0" d="M499.51,250.28l9.84-12.7l1.79,2.81l-7.38,9.25l11.44-2.87l1.75,2.75l-15.68,3.52L499.51,250.28z"/>
	<path class="st0" d="M504.9,259.07l13.6-6.62l4.94,10.14l-2.3,1.12l-3.59-7.38l-3.01,1.47l3.34,6.86l-2.29,1.12l-3.34-6.86
		l-3.7,1.8l3.72,7.64l-2.29,1.12L504.9,259.07z"/>
	<path class="st0" d="M510.96,271.87l14.29-4.97l2.12,6.1c0.53,1.54,0.79,2.7,0.78,3.48c-0.01,0.79-0.28,1.5-0.79,2.15
		c-0.51,0.65-1.19,1.12-2.03,1.41c-1.07,0.37-2.07,0.36-2.99-0.03c-0.92-0.39-1.69-1.19-2.31-2.38c-0.15,0.75-0.37,1.41-0.66,1.97
		c-0.29,0.56-0.88,1.38-1.75,2.46l-2.18,2.72l-1.21-3.47l2.38-3.18c0.85-1.13,1.38-1.88,1.57-2.26c0.19-0.37,0.29-0.73,0.29-1.08
		c0-0.34-0.12-0.85-0.35-1.52l-0.2-0.59l-5.96,2.07L510.96,271.87z M520.22,271.91l0.75,2.15c0.48,1.39,0.84,2.24,1.08,2.55
		c0.24,0.31,0.53,0.51,0.89,0.6c0.35,0.1,0.75,0.07,1.17-0.08c0.48-0.17,0.82-0.43,1.03-0.79c0.21-0.36,0.27-0.79,0.18-1.29
		c-0.05-0.25-0.28-0.96-0.69-2.13l-0.79-2.26L520.22,271.91z"/>
	<path class="st0" d="M520.44,284.63l0.92,2.86c-0.94,0.39-1.57,0.9-1.91,1.54c-0.34,0.64-0.41,1.41-0.21,2.32
		c0.21,0.97,0.57,1.65,1.09,2.05c0.51,0.4,1.04,0.54,1.59,0.42c0.35-0.08,0.62-0.24,0.82-0.5c0.2-0.26,0.33-0.67,0.4-1.22
		c0.04-0.38,0.08-1.23,0.12-2.54c0.04-1.69,0.29-2.93,0.72-3.7c0.61-1.09,1.5-1.76,2.67-2.02c0.75-0.16,1.5-0.1,2.25,0.18
		c0.75,0.29,1.38,0.79,1.9,1.53c0.52,0.73,0.9,1.67,1.15,2.81c0.41,1.86,0.31,3.36-0.3,4.48c-0.61,1.12-1.58,1.85-2.93,2.2
		l-0.79-2.97c0.73-0.29,1.22-0.69,1.46-1.18c0.24-0.5,0.27-1.17,0.08-2.01c-0.19-0.87-0.52-1.52-0.98-1.93
		c-0.3-0.27-0.64-0.36-1.02-0.28c-0.35,0.08-0.62,0.29-0.8,0.64c-0.23,0.45-0.36,1.44-0.38,2.97c-0.02,1.53-0.14,2.69-0.35,3.47
		c-0.21,0.78-0.59,1.44-1.14,1.97c-0.55,0.53-1.29,0.9-2.22,1.11c-0.85,0.19-1.69,0.12-2.53-0.19c-0.84-0.31-1.54-0.86-2.09-1.65
		c-0.55-0.79-0.96-1.82-1.25-3.11c-0.41-1.88-0.29-3.42,0.35-4.61C517.7,286.06,518.83,285.18,520.44,284.63z"/>
	<path class="st0" d="M518.54,300.37l14.99-2.02l0.41,3.04l-14.99,2.02L518.54,300.37z"/>
	<path class="st0" d="M519.57,309.89l12.55-0.72l-0.26-4.5l2.55-0.15l0.69,12.07l-2.55,0.15l-0.26-4.49l-12.55,0.72L519.57,309.89z"
		/>
	<path class="st0" d="M519.79,323.48l6.36,0.32l9.03-5.13l-0.18,3.6l-6.16,3.28l5.8,3.8l-0.18,3.53l-8.49-6.02l-6.34-0.32
		L519.79,323.48z"/>
</g>
<g>
	<path d="M335.41,411.29l-3.44-2.46c-0.78-0.55-1.32-1.04-1.63-1.47c-0.41-0.58-0.65-1.24-0.7-1.99c-0.05-0.75,0.07-1.54,0.35-2.37
		c0.29-0.83,0.79-1.75,1.5-2.75c0.63-0.88,1.27-1.57,1.92-2.08c0.79-0.61,1.57-1.01,2.35-1.18c0.59-0.13,1.23-0.1,1.93,0.09
		c0.52,0.15,1.13,0.47,1.83,0.96l3.54,2.53L335.41,411.29z M334.83,408.13l5.07-7.1l-1.4-1c-0.53-0.38-0.93-0.61-1.21-0.71
		c-0.37-0.13-0.73-0.16-1.08-0.1c-0.35,0.07-0.76,0.29-1.23,0.68c-0.47,0.39-1,1-1.59,1.83c-0.59,0.83-0.98,1.51-1.17,2.04
		c-0.19,0.54-0.26,1.01-0.21,1.42s0.22,0.79,0.51,1.13c0.21,0.26,0.7,0.66,1.47,1.21L334.83,408.13z"/>
	<path d="M333.83,393.68l-8.51,10.05l-1.76-1.5l8.51-10.05L333.83,393.68z"/>
	<path d="M327.72,394.2l-1.78-1.4c0.52-0.71,0.77-1.36,0.76-1.94c-0.01-0.58-0.26-1.12-0.76-1.61c-0.53-0.52-1.06-0.79-1.58-0.8
		c-0.52-0.01-0.96,0.16-1.3,0.51c-0.22,0.22-0.35,0.46-0.39,0.73c-0.04,0.27,0.02,0.6,0.19,0.99c0.12,0.27,0.42,0.84,0.91,1.71
		c0.63,1.13,0.94,2.04,0.94,2.76c-0.01,1.01-0.38,1.89-1.12,2.63c-0.47,0.48-1.03,0.8-1.68,0.99c-0.65,0.18-1.3,0.16-1.95-0.06
		c-0.66-0.22-1.3-0.64-1.92-1.26c-1.02-1.01-1.54-2.03-1.54-3.06c-0.01-1.03,0.4-1.98,1.23-2.87l1.73,1.54
		c-0.41,0.55-0.6,1.05-0.57,1.49c0.02,0.44,0.27,0.89,0.73,1.35c0.48,0.47,0.96,0.73,1.46,0.77c0.32,0.03,0.6-0.08,0.84-0.32
		c0.22-0.22,0.33-0.49,0.32-0.81c-0.01-0.41-0.31-1.11-0.89-2.12c-0.58-1.01-0.95-1.82-1.11-2.43c-0.15-0.61-0.14-1.23,0.04-1.84
		c0.18-0.62,0.57-1.22,1.15-1.81c0.53-0.54,1.16-0.91,1.88-1.12c0.72-0.21,1.43-0.2,2.13,0.04c0.7,0.24,1.4,0.71,2.11,1.41
		c1.03,1.02,1.55,2.07,1.56,3.17C329.11,391.92,328.65,393.04,327.72,394.2z"/>
	<path d="M314.45,380.48l-0.77-2.26c1.34-0.63,2.53-0.86,3.57-0.67c1.05,0.19,1.95,0.76,2.72,1.71c0.95,1.19,1.27,2.54,0.95,4.05
		c-0.32,1.51-1.29,2.92-2.9,4.21c-1.71,1.37-3.34,2.05-4.91,2.05c-1.56-0.01-2.85-0.64-3.85-1.89c-0.88-1.09-1.22-2.28-1.02-3.55
		c0.11-0.76,0.5-1.57,1.16-2.43l1.92,1.39c-0.45,0.53-0.69,1.09-0.73,1.67c-0.04,0.58,0.13,1.11,0.52,1.59
		c0.53,0.66,1.24,0.98,2.11,0.95c0.88-0.03,1.93-0.53,3.15-1.52c1.3-1.04,2.06-1.99,2.28-2.84c0.23-0.85,0.08-1.6-0.45-2.25
		c-0.38-0.48-0.89-0.75-1.52-0.81C316.08,379.84,315.33,380.03,314.45,380.48z"/>
	<path d="M315.79,374.03l-10.91,7.38l-1.29-1.92l10.91-7.38L315.79,374.03z"/>
	<path d="M307.71,373.86c-1.17,0.65-2.24,1.04-3.21,1.18c-0.71,0.1-1.41,0.08-2.1-0.05c-0.68-0.13-1.27-0.37-1.76-0.72
		c-0.65-0.45-1.2-1.09-1.65-1.9c-0.82-1.48-0.95-2.95-0.39-4.42c0.56-1.47,1.78-2.73,3.65-3.77c1.86-1.03,3.56-1.4,5.09-1.11
		c1.54,0.29,2.72,1.18,3.53,2.65c0.83,1.49,0.96,2.96,0.41,4.42C310.74,371.6,309.54,372.84,307.71,373.86z M306.48,371.82
		c1.3-0.72,2.15-1.54,2.53-2.43c0.38-0.9,0.35-1.75-0.1-2.55c-0.45-0.81-1.15-1.28-2.1-1.43c-0.95-0.15-2.1,0.15-3.43,0.89
		c-1.32,0.73-2.16,1.53-2.53,2.4c-0.37,0.86-0.32,1.71,0.14,2.54c0.46,0.83,1.17,1.32,2.11,1.47
		C304.02,372.85,305.15,372.55,306.48,371.82z"/>
	<path d="M307.3,359.29l-12.07,5l-0.89-2.13l10.02-4.15l-2.2-5.31l2.05-0.85L307.3,359.29z"/>
	<path d="M303.75,350.24l-12.51,4.13l-0.72-2.2l12.51-4.13L303.75,350.24z"/>
	<path d="M302.26,345.89l-12.81,3.07l-0.52-2.19l7.46-6.61l-8.55,2.05l-0.5-2.09l12.81-3.07l0.54,2.26l-7.28,6.49l8.35-2
		L302.26,345.89z"/>
	<path d="M298.52,324.43l0.29,2.5l-2.86,1.34l0.53,4.55l3.08,0.59l0.29,2.44l-13.6-2.9l-0.28-2.43L298.52,324.43z M293.84,329.26
		l-4.67,2.14l5.03,0.97L293.84,329.26z"/>
</g>
<g>
	<path d="M493.54,348.6l-1.39,1.94c-1.29-0.71-2.17-1.55-2.63-2.51c-0.46-0.96-0.53-2.03-0.2-3.21c0.41-1.46,1.32-2.51,2.73-3.13
		c1.41-0.63,3.12-0.66,5.12-0.11c2.11,0.59,3.62,1.51,4.53,2.79c0.91,1.27,1.15,2.68,0.72,4.23c-0.37,1.35-1.14,2.32-2.29,2.91
		c-0.68,0.35-1.57,0.51-2.65,0.48l0-2.38c0.69,0.05,1.29-0.08,1.79-0.38c0.5-0.31,0.83-0.76,0.99-1.35
		c0.23-0.82,0.07-1.58-0.46-2.27c-0.53-0.7-1.56-1.25-3.07-1.67c-1.61-0.44-2.82-0.51-3.64-0.2c-0.82,0.31-1.34,0.87-1.56,1.67
		c-0.16,0.59-0.09,1.16,0.23,1.71C492.07,347.66,492.66,348.15,493.54,348.6z"/>
	<path d="M487.31,351.87l12.33,4.64l-0.81,2.16l-12.33-4.64L487.31,351.87z"/>
	<path d="M484.22,359.39l13.65,1.98l-1.08,2.26l-10.05-1.58l7.59,6.73l-1.06,2.21l-10.12-9.37L484.22,359.39z"/>
	<path d="M480.39,366.82l11.36,6.66l-1.17,1.99l-11.36-6.66L480.39,366.82z"/>
	<path d="M476.26,373.43l8.97,6.27l1.95-2.79l1.83,1.28l-5.22,7.46l-1.83-1.28l1.94-2.78l-8.97-6.27L476.26,373.43z"/>
	<path d="M465.65,386.66l1.65-1.9l2.92,1.2l3-3.46l-1.64-2.67l1.61-1.86l7.04,12l-1.6,1.85L465.65,386.66z M472.38,386.86l4.73,2.01
		l-2.68-4.37L472.38,386.86z"/>
	<path d="M463.23,388.84l7.49,7.98l2.48-2.33l1.53,1.63l-6.64,6.23l-1.52-1.62l2.47-2.32l-7.49-7.98L463.23,388.84z"/>
	<path d="M457.37,394.03l8.22,10.29l-1.81,1.44l-8.22-10.29L457.37,394.03z"/>
	<path d="M456.19,400.51l-1.73,1.46c-0.6-0.65-1.18-1.02-1.75-1.13c-0.57-0.11-1.15,0.03-1.73,0.43c-0.62,0.41-0.98,0.88-1.1,1.39
		c-0.11,0.51-0.03,0.97,0.24,1.37c0.17,0.26,0.39,0.44,0.64,0.53c0.25,0.09,0.59,0.1,1.01,0.01c0.29-0.06,0.91-0.25,1.86-0.55
		c1.23-0.39,2.19-0.52,2.89-0.37c0.99,0.21,1.77,0.75,2.35,1.62c0.37,0.56,0.58,1.17,0.63,1.84c0.05,0.67-0.1,1.3-0.45,1.9
		c-0.35,0.6-0.89,1.15-1.62,1.63c-1.19,0.8-2.3,1.1-3.3,0.9c-1.01-0.2-1.86-0.79-2.56-1.78l1.86-1.38c0.46,0.51,0.91,0.79,1.34,0.86
		c0.44,0.06,0.92-0.08,1.46-0.45c0.56-0.38,0.91-0.8,1.05-1.27c0.09-0.31,0.04-0.6-0.15-0.88c-0.17-0.26-0.42-0.42-0.73-0.47
		c-0.4-0.07-1.15,0.08-2.26,0.45c-1.11,0.37-1.97,0.57-2.6,0.6c-0.63,0.03-1.23-0.11-1.8-0.41c-0.57-0.3-1.08-0.8-1.55-1.49
		c-0.42-0.63-0.66-1.32-0.72-2.07c-0.06-0.75,0.09-1.45,0.47-2.08c0.38-0.64,0.98-1.23,1.8-1.79c1.2-0.8,2.34-1.1,3.41-0.89
		C454.24,398.7,455.25,399.37,456.19,400.51z"/>
</g>
<g>
	<path d="M348.87,233.31l-5.86-11.8l3.32-1.65c1.26-0.63,2.11-0.97,2.55-1.05c0.68-0.11,1.36,0.03,2.05,0.42
		c0.69,0.4,1.27,1.06,1.74,2c0.36,0.72,0.55,1.39,0.56,2c0.02,0.61-0.08,1.14-0.29,1.6c-0.21,0.46-0.48,0.82-0.8,1.09
		c-0.44,0.36-1.13,0.77-2.06,1.24l-1.35,0.67l2.21,4.45L348.87,233.31z M346.07,222.48l1.66,3.35l1.13-0.56
		c0.82-0.41,1.33-0.74,1.55-1c0.21-0.26,0.33-0.56,0.36-0.9c0.03-0.34-0.05-0.69-0.22-1.03c-0.21-0.43-0.5-0.73-0.86-0.9
		c-0.36-0.17-0.72-0.21-1.09-0.11c-0.27,0.07-0.78,0.29-1.53,0.66L346.07,222.48z"/>
	<path d="M358.45,228.67l-4.47-12.39l4.58-1.65c1.15-0.42,2.03-0.61,2.63-0.57c0.6,0.03,1.16,0.28,1.68,0.73
		c0.52,0.46,0.91,1.05,1.17,1.78c0.34,0.93,0.38,1.78,0.12,2.56c-0.26,0.78-0.83,1.42-1.72,1.91c0.58,0.15,1.1,0.35,1.54,0.62
		c0.44,0.27,1.1,0.79,1.96,1.56l2.19,1.94l-2.6,0.94l-2.55-2.13c-0.91-0.76-1.51-1.23-1.8-1.41c-0.3-0.18-0.58-0.27-0.84-0.28
		c-0.26-0.01-0.65,0.08-1.15,0.26l-0.44,0.16l1.87,5.17L358.45,228.67z M358.04,220.74l1.61-0.58c1.04-0.38,1.68-0.66,1.9-0.86
		c0.22-0.2,0.36-0.44,0.42-0.74c0.06-0.3,0.02-0.64-0.11-1.01c-0.15-0.42-0.37-0.72-0.65-0.91c-0.29-0.19-0.62-0.25-0.99-0.19
		c-0.19,0.04-0.72,0.21-1.6,0.53l-1.7,0.61L358.04,220.74z"/>
	<path d="M379.37,222.57l-2.45,0.57l-1.65-2.69l-4.46,1.03l-0.25,3.13l-2.39,0.55l1.38-13.84l2.38-0.55L379.37,222.57z
		 M374.05,218.45l-2.64-4.41l-0.41,5.11L374.05,218.45z"/>
	<path d="M380.58,222.45l-1.49-13.09l8.44-0.96l0.25,2.21l-6.14,0.7l0.33,2.9l5.71-0.65l0.25,2.21l-5.71,0.65l0.4,3.56l6.36-0.72
		l0.25,2.21L380.58,222.45z"/>
	<path d="M390.52,217.15l2.25-0.29c0.15,0.87,0.43,1.5,0.86,1.9c0.42,0.4,0.98,0.59,1.69,0.58c0.74-0.01,1.3-0.2,1.67-0.57
		c0.37-0.37,0.55-0.79,0.55-1.28c0-0.31-0.09-0.58-0.25-0.79c-0.16-0.22-0.44-0.4-0.84-0.56c-0.27-0.1-0.89-0.28-1.86-0.54
		c-1.25-0.33-2.12-0.75-2.63-1.26c-0.71-0.71-1.08-1.59-1.1-2.63c-0.01-0.67,0.14-1.3,0.47-1.89c0.32-0.59,0.79-1.04,1.41-1.36
		c0.62-0.32,1.37-0.48,2.25-0.49c1.44-0.02,2.53,0.32,3.26,1.03c0.74,0.71,1.13,1.67,1.19,2.88l-2.31,0.15
		c-0.11-0.67-0.33-1.16-0.66-1.45c-0.33-0.29-0.82-0.43-1.47-0.42c-0.67,0.01-1.2,0.18-1.57,0.5c-0.24,0.21-0.36,0.48-0.35,0.82
		c0,0.31,0.12,0.58,0.36,0.79c0.3,0.28,1.01,0.56,2.14,0.85c1.13,0.29,1.97,0.59,2.51,0.91c0.54,0.32,0.97,0.76,1.29,1.32
		c0.31,0.56,0.48,1.26,0.49,2.09c0.01,0.75-0.16,1.46-0.51,2.13c-0.35,0.66-0.86,1.16-1.52,1.49c-0.66,0.33-1.49,0.5-2.48,0.52
		c-1.45,0.02-2.57-0.34-3.35-1.1C391.18,219.74,390.69,218.62,390.52,217.15z"/>
	<path d="M401.83,221.53l0.95-13.14l2.31,0.17l-0.95,13.14L401.83,221.53z"/>
	<path d="M408.42,208.8l4.18,0.65c0.94,0.15,1.65,0.34,2.11,0.58c0.63,0.33,1.13,0.82,1.52,1.46c0.38,0.65,0.63,1.41,0.75,2.28
		c0.12,0.87,0.08,1.91-0.11,3.13c-0.17,1.07-0.43,1.98-0.78,2.71c-0.43,0.9-0.95,1.61-1.57,2.11c-0.47,0.38-1.06,0.64-1.77,0.79
		c-0.53,0.1-1.22,0.09-2.07-0.04l-4.3-0.67L408.42,208.8z M410.36,211.36l-1.35,8.62l1.71,0.27c0.64,0.1,1.11,0.13,1.4,0.09
		c0.39-0.05,0.72-0.18,1.01-0.4c0.28-0.22,0.55-0.6,0.79-1.16c0.25-0.56,0.45-1.34,0.6-2.35c0.16-1.01,0.2-1.79,0.13-2.35
		c-0.07-0.56-0.22-1.02-0.45-1.36c-0.23-0.35-0.55-0.6-0.96-0.78c-0.31-0.13-0.92-0.27-1.86-0.42L410.36,211.36z"/>
	<path d="M417.76,223.84l3.11-12.8l2.25,0.55l-3.11,12.8L417.76,223.84z"/>
	<path d="M426.37,212.37l2.19,0.73l-2.25,6.77c-0.36,1.07-0.56,1.78-0.61,2.12c-0.08,0.54,0.01,1.03,0.26,1.46
		c0.25,0.43,0.68,0.74,1.29,0.95c0.62,0.21,1.14,0.22,1.55,0.03c0.41-0.19,0.72-0.48,0.93-0.89c0.21-0.4,0.47-1.1,0.8-2.09l2.3-6.91
		l2.19,0.73l-2.19,6.56c-0.5,1.5-0.91,2.54-1.24,3.12c-0.32,0.58-0.72,1.03-1.18,1.35c-0.46,0.32-1,0.52-1.62,0.59
		c-0.62,0.07-1.36-0.03-2.22-0.32c-1.04-0.35-1.78-0.75-2.22-1.2c-0.44-0.45-0.75-0.95-0.91-1.5c-0.17-0.54-0.22-1.07-0.15-1.59
		c0.1-0.76,0.38-1.84,0.84-3.24L426.37,212.37z"/>
	<path d="M433.05,228.57l5.72-11.86l3.12,1.5l-2.03,9l5.75-7.2l3.12,1.51l-5.72,11.86l-1.94-0.93l4.5-9.34l-6.55,8.35l-2.01-0.97
		l2.46-10.32l-4.5,9.34L433.05,228.57z"/>
</g>
<g>
	<path class="st0" d="M331.58,428.2l5.14,2.52c1.02,0.5,1.75,0.92,2.2,1.26c0.45,0.34,0.8,0.76,1.04,1.27
		c0.24,0.5,0.37,1.07,0.38,1.72c0.01,0.64-0.14,1.28-0.45,1.92c-0.34,0.69-0.81,1.25-1.42,1.67c-0.61,0.42-1.26,0.64-1.96,0.65
		c0.65,0.65,1.04,1.39,1.15,2.23c0.11,0.84-0.04,1.69-0.46,2.54c-0.33,0.67-0.79,1.26-1.37,1.76c-0.58,0.5-1.2,0.83-1.86,0.98
		c-0.66,0.15-1.35,0.1-2.08-0.15c-0.46-0.16-1.52-0.63-3.18-1.43l-4.38-2.14L331.58,428.2z M330.09,437.81l-1.94,3.95l2.4,1.18
		c0.94,0.46,1.54,0.72,1.82,0.78c0.43,0.11,0.84,0.06,1.23-0.13c0.4-0.19,0.72-0.55,0.98-1.08c0.22-0.44,0.31-0.87,0.27-1.27
		c-0.04-0.4-0.2-0.76-0.48-1.07c-0.28-0.31-1.02-0.76-2.2-1.34L330.09,437.81z M332.97,431.93l-1.67,3.42l1.7,0.83
		c1.01,0.5,1.65,0.79,1.91,0.87c0.47,0.16,0.91,0.15,1.31-0.02c0.4-0.17,0.71-0.49,0.95-0.97c0.22-0.46,0.3-0.88,0.22-1.28
		c-0.08-0.39-0.32-0.73-0.72-1c-0.24-0.16-0.97-0.54-2.19-1.14L332.97,431.93z"/>
	<path class="st0" d="M350.46,454.05l-2.95-1.08l0.11-3.94l-5.37-1.97l-2.4,3.11l-2.88-1.05l10.9-13.54l2.87,1.05L350.46,454.05z
		 M347.7,446.1l0.25-6.42l-3.92,5.07L347.7,446.1z"/>
	<path class="st0" d="M353.01,454.75l4.01-15.97l2.73,0.69l3,12.09l2.68-10.66l2.6,0.65l-4.01,15.97l-2.81-0.71L358.23,445
		l-2.62,10.41L353.01,454.75z"/>
	<path class="st0" d="M375.52,453.27l0.38-2.75l6.17,0.86l-0.9,6.5c-0.69,0.58-1.64,1.05-2.85,1.4c-1.21,0.35-2.4,0.44-3.56,0.28
		c-1.48-0.21-2.73-0.74-3.73-1.61c-1-0.87-1.69-2.01-2.06-3.41c-0.37-1.41-0.45-2.89-0.23-4.46c0.24-1.7,0.75-3.16,1.56-4.4
		c0.8-1.23,1.85-2.12,3.14-2.66c0.98-0.42,2.15-0.53,3.51-0.34c1.76,0.24,3.08,0.86,3.95,1.85c0.87,0.99,1.35,2.25,1.42,3.79
		l-2.93,0.22c-0.09-0.83-0.38-1.51-0.86-2.05c-0.49-0.54-1.14-0.87-1.97-0.98c-1.25-0.17-2.31,0.14-3.17,0.95
		c-0.86,0.81-1.42,2.11-1.67,3.91c-0.27,1.94-0.1,3.44,0.52,4.51c0.61,1.07,1.53,1.69,2.74,1.86c0.6,0.08,1.22,0.03,1.86-0.16
		c0.64-0.19,1.2-0.44,1.69-0.77l0.29-2.07L375.52,453.27z"/>
	<path class="st0" d="M384.62,460.35l0.63-16.32l2.89,0.11l-0.52,13.54l7.18,0.28l-0.11,2.77L384.62,460.35z"/>
	<path class="st0" d="M410.6,460.01l-3.14,0.17l-1.46-3.66l-5.71,0.32l-0.97,3.8l-3.06,0.17l4.65-16.75l3.05-0.17L410.6,460.01z
		 M404.92,453.8l-2.31-5.99l-1.59,6.21L404.92,453.8z"/>
	<path class="st0" d="M410.55,443.41l5.22-0.84c1.18-0.19,2.09-0.23,2.74-0.12c0.87,0.15,1.66,0.53,2.37,1.15
		c0.71,0.62,1.3,1.43,1.77,2.42c0.48,0.99,0.83,2.24,1.08,3.77c0.21,1.34,0.25,2.51,0.12,3.53c-0.16,1.24-0.51,2.28-1.05,3.12
		c-0.41,0.63-1,1.17-1.8,1.62c-0.59,0.33-1.42,0.58-2.47,0.75l-5.37,0.86L410.55,443.41z M413.84,445.7l1.73,10.77l2.13-0.34
		c0.8-0.13,1.36-0.27,1.7-0.43c0.44-0.21,0.79-0.49,1.04-0.86c0.25-0.37,0.42-0.93,0.5-1.69c0.08-0.76,0.01-1.77-0.19-3.02
		c-0.2-1.26-0.45-2.21-0.75-2.85c-0.3-0.64-0.65-1.13-1.06-1.45c-0.41-0.32-0.89-0.51-1.44-0.55c-0.42-0.04-1.21,0.03-2.37,0.22
		L413.84,445.7z"/>
	<path class="st0" d="M428.4,456.99l-4.23-15.91l10.26-2.72l0.71,2.69l-7.47,1.98l0.94,3.53l6.95-1.85l0.71,2.68l-6.95,1.85
		l1.15,4.33l7.73-2.05l0.71,2.68L428.4,456.99z"/>
	<path class="st0" d="M439.64,448.37l2.53-1.28c0.54,0.96,1.14,1.59,1.8,1.88c0.66,0.3,1.41,0.29,2.23-0.02
		c0.87-0.32,1.45-0.78,1.74-1.37c0.28-0.59,0.32-1.17,0.11-1.74c-0.14-0.37-0.34-0.64-0.63-0.83c-0.28-0.19-0.69-0.29-1.22-0.3
		c-0.37-0.01-1.17,0.04-2.42,0.13c-1.61,0.13-2.81,0-3.63-0.39c-1.14-0.54-1.94-1.42-2.39-2.64c-0.29-0.79-0.37-1.59-0.24-2.42
		c0.13-0.83,0.5-1.56,1.09-2.19c0.6-0.63,1.41-1.13,2.44-1.52c1.68-0.63,3.11-0.67,4.28-0.14c1.17,0.53,2.04,1.5,2.61,2.9
		l-2.66,1.14c-0.41-0.75-0.87-1.23-1.38-1.43c-0.51-0.21-1.15-0.17-1.91,0.12c-0.79,0.29-1.33,0.71-1.64,1.25
		c-0.2,0.35-0.22,0.72-0.07,1.12c0.14,0.37,0.39,0.63,0.75,0.79c0.46,0.2,1.42,0.24,2.87,0.11c1.45-0.13,2.56-0.13,3.34,0.02
		c0.77,0.15,1.46,0.49,2.07,1.02c0.6,0.53,1.09,1.28,1.45,2.26c0.33,0.88,0.42,1.79,0.28,2.72c-0.14,0.93-0.53,1.73-1.17,2.4
		c-0.64,0.67-1.54,1.21-2.71,1.65c-1.7,0.63-3.17,0.67-4.41,0.1C441.49,451.14,440.46,450.03,439.64,448.37z"/>
	<path class="st0" d="M455.59,447.96l-7.26-14.78l2.59-1.28l2.86,5.82l5.08-2.5l-2.86-5.81l2.59-1.28l7.26,14.78l-2.59,1.28
		l-3.18-6.46l-5.08,2.5l3.18,6.46L455.59,447.96z"/>
</g>
<g>
	<path d="M379.24,431.01l-2.72-0.38l1.62-11.78c-1.14,0.93-2.42,1.56-3.84,1.89l0.39-2.84c0.75-0.17,1.59-0.57,2.52-1.2
		c0.93-0.63,1.63-1.42,2.07-2.38l2.21,0.3L379.24,431.01z"/>
	<path d="M385.65,427.89l2.67-0.21c0.03,0.62,0.18,1.09,0.44,1.4c0.26,0.31,0.61,0.48,1.06,0.5c0.57,0.03,1.06-0.25,1.49-0.83
		c0.43-0.58,0.74-1.81,0.94-3.69c-0.73,0.89-1.62,1.3-2.65,1.25c-1.13-0.05-2.07-0.6-2.84-1.64c-0.77-1.04-1.11-2.36-1.04-3.96
		c0.08-1.67,0.58-2.99,1.49-3.97c0.91-0.98,2.03-1.44,3.37-1.37c1.45,0.07,2.61,0.77,3.48,2.11c0.87,1.33,1.23,3.48,1.09,6.43
		c-0.15,3.01-0.74,5.15-1.77,6.44c-1.03,1.28-2.33,1.89-3.88,1.81c-1.12-0.05-2.01-0.44-2.66-1.16
		C386.17,430.3,385.78,429.26,385.65,427.89z M392.19,421.3c0.05-1.02-0.12-1.82-0.49-2.4c-0.38-0.58-0.84-0.88-1.37-0.91
		c-0.51-0.02-0.94,0.19-1.3,0.63c-0.36,0.44-0.56,1.19-0.61,2.24c-0.05,1.06,0.09,1.85,0.43,2.37c0.34,0.52,0.78,0.79,1.33,0.81
		c0.53,0.03,0.98-0.19,1.37-0.65C391.93,422.92,392.14,422.23,392.19,421.3z"/>
	<path d="M398.52,428.36l2.64-0.44c0.09,0.62,0.28,1.07,0.56,1.36c0.29,0.29,0.65,0.42,1.1,0.41c0.56-0.02,1.04-0.34,1.41-0.95
		c0.38-0.61,0.58-1.87,0.62-3.76c-0.65,0.95-1.5,1.44-2.53,1.48c-1.13,0.04-2.12-0.42-2.97-1.38c-0.86-0.97-1.31-2.25-1.38-3.85
		c-0.06-1.67,0.31-3.03,1.14-4.08c0.82-1.05,1.9-1.61,3.23-1.66c1.45-0.06,2.67,0.54,3.65,1.8c0.98,1.26,1.53,3.36,1.64,6.32
		c0.12,3.01-0.29,5.2-1.2,6.56c-0.92,1.37-2.15,2.08-3.71,2.14c-1.12,0.04-2.04-0.26-2.75-0.92
		C399.25,430.71,398.77,429.71,398.52,428.36z M404.46,421.22c-0.04-1.02-0.27-1.8-0.7-2.34c-0.43-0.54-0.91-0.81-1.44-0.79
		c-0.51,0.02-0.92,0.27-1.24,0.74c-0.32,0.47-0.46,1.23-0.41,2.28c0.04,1.06,0.25,1.84,0.64,2.32c0.38,0.48,0.85,0.71,1.39,0.69
		c0.53-0.02,0.96-0.28,1.3-0.77C404.34,422.86,404.5,422.15,404.46,421.22z"/>
	<path d="M417.12,430.81l-0.42-3.29l-5.81,0.74l-0.35-2.74l4.84-11.15l2.29-0.29l1.32,10.36l1.76-0.22l0.35,2.75l-1.76,0.22
		l0.42,3.29L417.12,430.81z M416.36,424.77l-0.71-5.58l-2.56,6L416.36,424.77z"/>
</g>
<g>
	<line class="st3" x1="438.29" y1="262.96" x2="416.79" y2="292.82"/>
	<line class="st3" x1="430.98" y1="259.82" x2="424.11" y2="295.97"/>
	<polyline class="st3" points="423.02,260.06 430.34,288.91 430.52,289.48 	"/>
	<line class="st3" x1="415.91" y1="263.64" x2="439.18" y2="292.14"/>
	<line class="st3" x1="410.97" y1="269.9" x2="444.11" y2="285.89"/>
	<line class="st3" x1="409.15" y1="277.65" x2="445.94" y2="278.14"/>
	<line class="st3" x1="410.77" y1="285.45" x2="444.32" y2="270.34"/>
</g>
<ellipse transform="matrix(0.1507 -0.9886 0.9886 0.1507 88.376 658.6587)" class="st0" cx="427.54" cy="277.89" rx="13.11" ry="13.11"/>
<g>
	<path class="st4" d="M427.44,279.44c1.04-0.09,2.44,2.88,3.08,5.94c1.15-1.66,1.85-4.31,1.07-6.11c-1.23-2.82-3.9-3.33-1.13-10.61
		c0,0-4.2,1.74-5.28,7.94c-0.71,4.08-0.04,7.19,1.1,8.88C425.93,282.22,426.74,279.5,427.44,279.44z"/>
	<path d="M428.31,286.9c0.76,0.04,1.56-0.59,2.21-1.53c-0.64-3.06-2.04-6.02-3.08-5.94c-0.7,0.06-1.51,2.79-1.16,6.05
		C426.87,286.36,427.59,286.87,428.31,286.9z"/>
</g>
<path class="st5" d="M427.69,308.88c3.42-0.08,6.03-0.73,5.38-6.11c-0.65-5.37-0.81-6.6-1.14-9.2c-0.33-2.61-0.98-4.15-4.07-4.32
	c-2.77-0.15-4.15,0.81-4.15,4.97c0,4.15-1.22,9.04-0.65,11.24C423.62,307.66,424.02,308.96,427.69,308.88z"/>
<path class="st6" d="M382.09,298.99l-7.21-24.64l-38.29,0.33l-4.99,23.86h20.42c0,0,2,2.44,4.99,2.44c3,0,4.11-2.66,4.11-2.66
	L382.09,298.99z"/>
<linearGradient id="SVGID_1_" gradientUnits="userSpaceOnUse" x1="331.5991" y1="287.6721" x2="382.0938" y2="287.6721">
	<stop  offset="0" style="stop-color:#000000"/>
	<stop  offset="1" style="stop-color:#FFFFFF"/>
</linearGradient>
<path class="st7" d="M382.09,298.99l-7.21-24.64l-38.29,0.33l-4.99,23.86h20.42c0,0,2,2.44,4.99,2.44c3,0,4.11-2.66,4.11-2.66
	L382.09,298.99z"/>
<path class="st6" d="M373.5,277.25c0,0-3.75-4.42-9.25-4.42s-7.75,3.58-7.75,3.58s-2.25-3.58-7.75-3.58s-9.25,4.42-9.25,4.42
	l-5.17,19.25c0,0,16.33-9.25,22.17,0.25c5.83-9.5,22.17-0.25,22.17-0.25L373.5,277.25z"/>
<linearGradient id="SVGID_2_" gradientUnits="userSpaceOnUse" x1="356.5" y1="284.7917" x2="378.667" y2="284.7917">
	<stop  offset="0" style="stop-color:#FFFFFF"/>
	<stop  offset="0.0256" style="stop-color:#F6F6F6"/>
	<stop  offset="0.2396" style="stop-color:#ACACAC"/>
	<stop  offset="0.4406" style="stop-color:#6F6F6F"/>
	<stop  offset="0.6227" style="stop-color:#3F3F3F"/>
	<stop  offset="0.7825" style="stop-color:#1D1D1D"/>
	<stop  offset="0.9137" style="stop-color:#080808"/>
	<stop  offset="1" style="stop-color:#000000"/>
</linearGradient>
<path class="st8" d="M356.5,296.75v-20.33c0,0,2.25-3.58,7.75-3.58s9.25,4.42,9.25,4.42l5.17,19.25
	C378.67,296.5,362.33,287.25,356.5,296.75z"/>
<linearGradient id="SVGID_3_" gradientUnits="userSpaceOnUse" x1="362.5" y1="284.7917" x2="384.667" y2="284.7917" gradientTransform="matrix(-1 0 0 1 719 0)">
	<stop  offset="0" style="stop-color:#696969"/>
	<stop  offset="0.0891" style="stop-color:#888888"/>
	<stop  offset="0.2138" style="stop-color:#ACACAC"/>
	<stop  offset="0.345" style="stop-color:#CACACA"/>
	<stop  offset="0.4825" style="stop-color:#E2E2E2"/>
	<stop  offset="0.6293" style="stop-color:#F2F2F2"/>
	<stop  offset="0.7916" style="stop-color:#FCFCFC"/>
	<stop  offset="1" style="stop-color:#FFFFFF"/>
</linearGradient>
<path class="st9" d="M356.5,296.75v-20.33c0,0-2.25-3.58-7.75-3.58s-9.25,4.42-9.25,4.42l-5.17,19.25
	C334.33,296.5,350.67,287.25,356.5,296.75z"/>
<linearGradient id="SVGID_4_" gradientUnits="userSpaceOnUse" x1="356.5" y1="284.7917" x2="378.667" y2="284.7917">
	<stop  offset="0" style="stop-color:#FFFFFF"/>
	<stop  offset="0.0256" style="stop-color:#F6F6F6"/>
	<stop  offset="0.2396" style="stop-color:#ACACAC"/>
	<stop  offset="0.4406" style="stop-color:#6F6F6F"/>
	<stop  offset="0.6227" style="stop-color:#3F3F3F"/>
	<stop  offset="0.7825" style="stop-color:#1D1D1D"/>
	<stop  offset="0.9137" style="stop-color:#080808"/>
	<stop  offset="1" style="stop-color:#000000"/>
</linearGradient>
<path class="st10" d="M356.5,296.75v-20.33c0,0,2.25-3.58,7.75-3.58s9.25,4.42,9.25,4.42l5.17,19.25
	C378.67,296.5,362.33,287.25,356.5,296.75z"/>
<linearGradient id="SVGID_5_" gradientUnits="userSpaceOnUse" x1="362.5" y1="284.7917" x2="384.667" y2="284.7917" gradientTransform="matrix(-1 0 0 1 719 0)">
	<stop  offset="0" style="stop-color:#696969"/>
	<stop  offset="0.0891" style="stop-color:#888888"/>
	<stop  offset="0.2138" style="stop-color:#ACACAC"/>
	<stop  offset="0.345" style="stop-color:#CACACA"/>
	<stop  offset="0.4825" style="stop-color:#E2E2E2"/>
	<stop  offset="0.6293" style="stop-color:#F2F2F2"/>
	<stop  offset="0.7916" style="stop-color:#FCFCFC"/>
	<stop  offset="1" style="stop-color:#FFFFFF"/>
</linearGradient>
<path class="st11" d="M356.5,296.75v-20.33c0,0-2.25-3.58-7.75-3.58s-9.25,4.42-9.25,4.42l-5.17,19.25
	C334.33,296.5,350.67,287.25,356.5,296.75z"/>
<line class="st12" x1="356.49" y1="275.88" x2="356.49" y2="297.11"/>
<path d="M369.53,331.35h30.4l0.67,24.55c0,0-3.55,3.93-15.25,3.93c-11.7,0-15.92-3.84-15.92-3.84L369.53,331.35z"/>
<polygon class="st0" points="374.15,353.5 373.79,335.88 396.46,335.88 396.46,353.5 "/>
<polygon class="st13" points="398.63,334.77 405.24,334.77 406.34,353.59 400.1,355.9 399.08,354.51 "/>
<polygon class="st13" points="371.26,334.77 364.65,334.77 363.55,353.59 369.79,355.9 370.81,354.51 "/>
<path class="st12" d="M372.59,372.62l0.34-6.18l33.33-3.67l0.12,6.19C406.38,368.95,376.49,372.04,372.59,372.62z"/>
<polygon class="st12" points="372.59,372.62 363.32,364.83 363.55,358.64 372.94,366.43 "/>
<polyline class="st12" points="363.55,358.64 398.82,356.81 406.27,362.77 "/>
<polygon class="st12" points="370.35,375.12 376.07,382.32 418.92,375.35 407.04,368.38 "/>
<path class="st12" d="M412.23,371.31c0,0,0.65-3.75,2.36-3.55c1.72,0.2,2.06,0.29,4.12,1.77c2.06,1.47,1.77,2.94,1.23,3.68
	c-0.54,0.74-1.96,1.62-1.96,1.62L412.23,371.31z"/>
<line class="st12" x1="373.88" y1="374.44" x2="379.5" y2="381.75"/>
<line class="st12" x1="378.25" y1="373.69" x2="383.75" y2="381"/>
<line class="st12" x1="383.06" y1="372.81" x2="388.38" y2="380.31"/>
<line class="st12" x1="387.44" y1="372.13" x2="392.5" y2="379.56"/>
<line class="st12" x1="391.81" y1="371.25" x2="397.06" y2="378.88"/>
<line class="st12" x1="395.5" y1="370.63" x2="400.5" y2="378.38"/>
<line class="st12" x1="399.13" y1="369.88" x2="404.13" y2="377.75"/>
<line class="st12" x1="403.38" y1="369.19" x2="408.81" y2="377"/>
<line class="st12" x1="405.81" y1="368.69" x2="414.06" y2="376.19"/>
</svg>
