<?xml version="1.0" encoding="utf-8"?>
<!-- Generator: Adobe Illustrator 23.0.2, SVG Export Plug-In . SVG Version: 6.00 Build 0)  -->
<svg version="1.1" id="Layer_1" xmlns="http://www.w3.org/2000/svg" xmlns:xlink="http://www.w3.org/1999/xlink" x="0px" y="0px"
	 viewBox="0 0 120 120" style="enable-background:new 0 0 120 120;" xml:space="preserve">
<style type="text/css">
	.st0{fill:#333689;}
	.st1{fill:#C7EAFA;}
	.st2{fill:#FFFFFF;}
	.st3{fill:#FFF200;}
	.st4{fill:none;stroke:#E51E25;stroke-miterlimit:10;}
	.st5{fill:#E51E25;}
	.st6{fill:#00687C;}
	.st7{stroke:#000000;stroke-miterlimit:10;}
	.st8{fill:url(#SVGID_1_);}
	.st9{fill:url(#SVGID_2_);}
	.st10{fill:url(#SVGID_3_);}
	.st11{fill:url(#SVGID_4_);}
	.st12{fill:url(#SVGID_5_);}
	.st13{fill:none;stroke:#000000;stroke-width:0.5;stroke-miterlimit:10;}
	.st14{fill:#832B7C;stroke:#8E878B;stroke-width:0.2;stroke-miterlimit:10;}
	.st15{fill:url(#SVGID_6_);stroke:#808080;stroke-width:0.2;stroke-miterlimit:10;}
	.st16{fill:#B1A73B;stroke:#827F80;stroke-width:0.2;stroke-miterlimit:10;}
</style>
<path class="st0" d="M110,60c0,27.6-22.4,50-50,50S10,87.6,10,60s22.4-50,50-50S110,32.4,110,60z"/>
<path class="st1" d="M99.8,60C99.8,82,82,99.8,60,99.8S20.2,82,20.2,60S38,20.2,60,20.2C82,20.2,99.8,38,99.8,60z"/>
<path class="st2" d="M59.8,29.9c0,0,2.4,5,9.4,7.6c7,2.6,14.5,1.3,14.5,1.3s0.7,13-2.8,25.1c-3.5,12.1-14,26.4-20.5,26.7
	s-15.7-9.8-21.8-26.1c-1.2-3.2-4.5-15.9-4.5-25.7c0,0,8,2.5,15.1-0.8C56.4,34.6,59.8,29.9,59.8,29.9z"/>
<path class="st3" d="M18.1,54.9L18,56l-1.2,0.4l-0.1,2l1.1,0.5L17.8,60l-4.9-2.3l0.1-1.1L18.1,54.9z M16,56.7l-1.9,0.6l1.8,0.8
	L16,56.7z"/>
<path class="st3" d="M18.1,54.7l-5-0.9l0.3-1.5l3.6-0.3l-3.2-1.5l0.3-1.5l5,0.9l-0.2,0.9L14.9,50l3.7,1.7l-0.2,1L14.4,53l3.9,0.7
	L18.1,54.7z"/>
<path class="st3" d="M19.2,49.3l-4.8-1.5l1.1-3.6l0.8,0.3L15.5,47l1.1,0.3l0.8-2.4l0.8,0.3l-0.8,2.4l1.3,0.4l0.9-2.7l0.8,0.3
	L19.2,49.3z"/>
<path class="st3" d="M20.5,45.2l-4.6-2l0.9-2c0.2-0.5,0.4-0.8,0.6-1s0.4-0.3,0.7-0.3c0.3,0,0.5,0,0.8,0.1c0.4,0.2,0.6,0.4,0.7,0.7
	c0.1,0.3,0.1,0.7,0,1.1c0.2-0.2,0.4-0.3,0.6-0.3s0.5-0.1,1-0.2l1.2-0.2l-0.5,1.1l-1.3,0.2c-0.5,0.1-0.8,0.2-0.9,0.2
	c-0.1,0-0.2,0.1-0.3,0.2c-0.1,0.1-0.2,0.2-0.3,0.5l-0.1,0.2l1.9,0.8L20.5,45.2z M18.2,43.1l0.3-0.7c0.2-0.5,0.3-0.7,0.3-0.9
	c0-0.1,0-0.2-0.1-0.3c-0.1-0.1-0.2-0.2-0.3-0.3c-0.2-0.1-0.3-0.1-0.4,0c-0.1,0-0.2,0.1-0.3,0.3c0,0.1-0.1,0.3-0.3,0.7L17,42.6
	L18.2,43.1z"/>
<path class="st3" d="M22.4,41.1l-4.5-2.3l0.5-0.9l4.5,2.3L22.4,41.1z"/>
<path class="st3" d="M23.1,36l0.8-0.7c0.4,0.4,0.6,0.9,0.6,1.3c0,0.4-0.1,0.9-0.4,1.4c-0.4,0.6-0.9,0.9-1.5,1.1
	c-0.6,0.1-1.3,0-1.9-0.4c-0.7-0.4-1.2-1-1.3-1.6c-0.2-0.6-0.1-1.2,0.3-1.8c0.3-0.5,0.8-0.9,1.3-1c0.3-0.1,0.7-0.1,1.1,0l-0.3,1
	c-0.3-0.1-0.5-0.1-0.7,0s-0.4,0.2-0.6,0.5c-0.2,0.3-0.2,0.7-0.1,1c0.1,0.3,0.4,0.7,0.9,1c0.5,0.3,1,0.5,1.4,0.4
	c0.4,0,0.6-0.2,0.8-0.5c0.1-0.2,0.2-0.5,0.1-0.7C23.6,36.5,23.4,36.2,23.1,36z"/>
<path class="st3" d="M28.3,32.2l-0.7,0.9l-1.2-0.4l-1.3,1.6l0.6,1l-0.7,0.9l-2.8-4.7l0.7-0.9L28.3,32.2z M25.5,32.5l-1.9-0.6
	l1.1,1.7L25.5,32.5z"/>
<path class="st3" d="M28.3,32.2l-3.6-3.5l0.7-0.7l3.9,0.9l-2.4-2.4l0.7-0.7l3.6,3.5l-0.7,0.7l-3.8-0.8l2.4,2.3L28.3,32.2z"/>
<path class="st3" d="M34,26.9l-3.1-4l0.8-0.6l3.1,4L34,26.9z"/>
<path class="st3" d="M35.4,25.8l-2.8-4.3l0.8-0.5l3.6,1.7l-1.8-2.8l0.8-0.5l2.8,4.3l-0.9,0.6l-3.5-1.7l1.8,2.8L35.4,25.8z"/>
<path class="st3" d="M40.5,22.7L38.6,19l-1.3,0.7l-0.4-0.8l3.6-1.8l0.4,0.8l-1.3,0.7l1.9,3.8L40.5,22.7z"/>
<path class="st3" d="M43.1,21.4l-1.8-4.7l3.5-1.4l0.3,0.8l-2.6,1l0.4,1l2.4-0.9l0.3,0.8l-2.4,0.9l0.5,1.3l2.7-1l0.3,0.8L43.1,21.4z"
	/>
<path class="st3" d="M47.3,19.8L46,14.9l2.1-0.6c0.5-0.1,0.9-0.2,1.2-0.2c0.3,0,0.5,0.1,0.7,0.3c0.2,0.2,0.3,0.4,0.4,0.7
	c0.1,0.4,0.1,0.7-0.1,1c-0.2,0.3-0.4,0.5-0.8,0.7c0.3,0.1,0.5,0.2,0.6,0.3c0.2,0.1,0.4,0.3,0.8,0.6l0.8,0.8l-1.2,0.3l-1-0.9
	c-0.3-0.3-0.6-0.5-0.7-0.6c-0.1-0.1-0.2-0.1-0.3-0.1c-0.1,0-0.3,0-0.5,0.1l-0.2,0.1l0.5,2L47.3,19.8z M47.6,16.7l0.7-0.2
	c0.5-0.1,0.8-0.2,0.9-0.3c0.1-0.1,0.2-0.2,0.2-0.3c0-0.1,0-0.3,0-0.4c0-0.2-0.1-0.3-0.2-0.4c-0.1-0.1-0.3-0.1-0.4-0.1
	c-0.1,0-0.3,0.1-0.7,0.2l-0.8,0.2L47.6,16.7z"/>
<path class="st3" d="M52,18.6l-0.7-5l1-0.1l2.5,3.1l-0.5-3.4l1-0.1l0.7,5l-1,0.1l-2.5-3l0.5,3.3L52,18.6z"/>
<path class="st3" d="M61.5,17.8l-1.1,0l-0.5-1.1l-2,0.1L57.4,18l-1.1,0l1.8-5.1l1.1,0L61.5,17.8z M59.5,15.9L58.8,14l-0.6,1.9
	L59.5,15.9z"/>
<path class="st3" d="M62.4,17.9l0.3-4.2l-1.5-0.1l0-0.9l4,0.3l-0.1,0.9l-1.5-0.1L63.4,18L62.4,17.9z"/>
<path class="st3" d="M65.3,18.2l0.7-5l1,0.1l-0.7,5L65.3,18.2z"/>
<path class="st3" d="M67.4,15.9c0.1-0.5,0.3-0.9,0.5-1.2c0.2-0.2,0.4-0.4,0.6-0.6c0.2-0.2,0.5-0.3,0.7-0.3c0.3-0.1,0.7-0.1,1.1,0
	c0.7,0.2,1.3,0.5,1.6,1.1c0.3,0.6,0.4,1.2,0.3,2c-0.2,0.8-0.5,1.4-1.1,1.7c-0.5,0.4-1.2,0.5-1.9,0.3c-0.7-0.2-1.3-0.5-1.6-1.1
	C67.3,17.4,67.2,16.7,67.4,15.9z M68.4,16.1c-0.1,0.6-0.1,1,0.1,1.4c0.2,0.3,0.5,0.6,0.9,0.6c0.4,0.1,0.8,0,1.1-0.2
	c0.3-0.2,0.5-0.6,0.7-1.2c0.1-0.6,0.1-1-0.1-1.4c-0.2-0.3-0.5-0.6-0.9-0.6c-0.4-0.1-0.8,0-1.1,0.2C68.8,15.1,68.6,15.5,68.4,16.1z"
	/>
<path class="st3" d="M72.2,19.6l1.7-4.8l0.9,0.3l0.8,3.9l1.1-3.2l0.9,0.3L76,20.9l-1-0.3l-0.8-3.8l-1.1,3.1L72.2,19.6z"/>
<path class="st3" d="M80.9,23.2l-1-0.5l0.1-1.2l-1.8-0.9l-0.9,0.9l-1-0.5l4-3.7l1,0.5L80.9,23.2z M80.1,20.6l0.2-2L78.8,20
	L80.1,20.6z"/>
<path class="st3" d="M81.1,23.4l2.7-4.3l0.9,0.5l-2.2,3.5l2.2,1.4l-0.4,0.7L81.1,23.4z"/>
<path class="st3" d="M89.8,23.1l0.8,0.7l-1.8,2.1c-0.3,0.3-0.5,0.5-0.5,0.7c-0.1,0.2-0.1,0.4-0.1,0.6c0,0.2,0.2,0.4,0.4,0.6
	S89,28,89.2,28c0.2,0,0.3,0,0.5-0.2c0.1-0.1,0.3-0.3,0.6-0.6l1.8-2.1l0.8,0.7l-1.8,2c-0.4,0.5-0.7,0.8-0.9,0.9
	c-0.2,0.2-0.4,0.2-0.7,0.3c-0.2,0-0.5,0-0.7-0.1s-0.5-0.3-0.8-0.5c-0.4-0.3-0.6-0.6-0.7-0.9c-0.1-0.3-0.2-0.5-0.2-0.7
	c0-0.2,0.1-0.4,0.2-0.6c0.1-0.3,0.4-0.6,0.8-1L89.8,23.1z"/>
<path class="st3" d="M90.3,30.4l3.8-3.4l0.7,0.7l-1.1,3.8l2.5-2.3l0.6,0.7L93,33.4l-0.7-0.8l1.1-3.7l-2.5,2.2L90.3,30.4z"/>
<path class="st3" d="M93.7,34.3l4-3.1l0.6,0.8l-4,3.1L93.7,34.3z"/>
<path class="st3" d="M95.6,37l3.3-4.3l0.6,0.9l-2.5,3.1l3.8-1l0.6,0.9L96.2,38L95.6,37z"/>
<path class="st3" d="M97.4,40l4.6-2.2l1.7,3.4l-0.8,0.4l-1.2-2.5l-1,0.5l1.1,2.3l-0.8,0.4l-1.1-2.3l-1.2,0.6l1.3,2.6l-0.8,0.4
	L97.4,40z"/>
<path class="st3" d="M99.5,44.3l4.8-1.7l0.7,2c0.2,0.5,0.3,0.9,0.3,1.2c0,0.3-0.1,0.5-0.3,0.7c-0.2,0.2-0.4,0.4-0.7,0.5
	c-0.4,0.1-0.7,0.1-1,0c-0.3-0.1-0.6-0.4-0.8-0.8c-0.1,0.3-0.1,0.5-0.2,0.7c-0.1,0.2-0.3,0.5-0.6,0.8l-0.7,0.9l-0.4-1.2l0.8-1.1
	c0.3-0.4,0.5-0.6,0.5-0.8c0.1-0.1,0.1-0.2,0.1-0.4s0-0.3-0.1-0.5l-0.1-0.2l-2,0.7L99.5,44.3z M102.6,44.3l0.3,0.7
	c0.2,0.5,0.3,0.8,0.4,0.9c0.1,0.1,0.2,0.2,0.3,0.2c0.1,0,0.3,0,0.4,0c0.2-0.1,0.3-0.1,0.3-0.3c0.1-0.1,0.1-0.3,0.1-0.4
	c0-0.1-0.1-0.3-0.2-0.7l-0.3-0.8L102.6,44.3z"/>
<path class="st3" d="M102.6,48.5l0.3,1c-0.3,0.1-0.5,0.3-0.6,0.5c-0.1,0.2-0.1,0.5-0.1,0.8c0.1,0.3,0.2,0.5,0.4,0.7
	c0.2,0.1,0.3,0.2,0.5,0.1c0.1,0,0.2-0.1,0.3-0.2c0.1-0.1,0.1-0.2,0.1-0.4c0-0.1,0-0.4,0-0.8c0-0.6,0.1-1,0.2-1.2
	c0.2-0.4,0.5-0.6,0.9-0.7c0.3,0,0.5,0,0.8,0.1c0.3,0.1,0.5,0.3,0.6,0.5c0.2,0.2,0.3,0.6,0.4,0.9c0.1,0.6,0.1,1.1-0.1,1.5
	s-0.5,0.6-1,0.7l-0.3-1c0.2-0.1,0.4-0.2,0.5-0.4c0.1-0.2,0.1-0.4,0-0.7c-0.1-0.3-0.2-0.5-0.3-0.7c-0.1-0.1-0.2-0.1-0.3-0.1
	c-0.1,0-0.2,0.1-0.3,0.2c-0.1,0.2-0.1,0.5-0.1,1c0,0.5-0.1,0.9-0.1,1.2c-0.1,0.3-0.2,0.5-0.4,0.7c-0.2,0.2-0.4,0.3-0.8,0.4
	c-0.3,0.1-0.6,0-0.8-0.1c-0.3-0.1-0.5-0.3-0.7-0.5c-0.2-0.3-0.3-0.6-0.4-1c-0.1-0.6-0.1-1.2,0.1-1.5C101.7,49,102.1,48.7,102.6,48.5
	z"/>
<path class="st3" d="M102,53.8l5-0.7l0.1,1l-5,0.7L102,53.8z"/>
<path class="st3" d="M102.3,57l4.2-0.2l-0.1-1.5l0.8,0l0.2,4l-0.8,0l-0.1-1.5l-4.2,0.2L102.3,57z"/>
<path class="st3" d="M102.4,61.6l2.1,0.1l3-1.7l-0.1,1.2l-2.1,1.1l1.9,1.3l-0.1,1.2l-2.8-2l-2.1-0.1L102.4,61.6z"/>
<path d="M40.6,91l-1.2-0.8c-0.3-0.2-0.4-0.3-0.5-0.5c-0.1-0.2-0.2-0.4-0.2-0.7c0-0.3,0-0.5,0.1-0.8c0.1-0.3,0.3-0.6,0.5-0.9
	c0.2-0.3,0.4-0.5,0.7-0.7c0.3-0.2,0.5-0.3,0.8-0.4c0.2,0,0.4,0,0.7,0c0.2,0.1,0.4,0.2,0.6,0.3l1.2,0.8L40.6,91z M40.4,89.9l1.7-2.4
	l-0.5-0.3c-0.2-0.1-0.3-0.2-0.4-0.2c-0.1,0-0.2-0.1-0.4,0c-0.1,0-0.3,0.1-0.4,0.2c-0.2,0.1-0.3,0.3-0.5,0.6
	c-0.2,0.3-0.3,0.5-0.4,0.7c-0.1,0.2-0.1,0.3-0.1,0.5c0,0.1,0.1,0.3,0.2,0.4c0.1,0.1,0.2,0.2,0.5,0.4L40.4,89.9z"/>
<path d="M40.1,85.1l-2.8,3.4L36.6,88l2.8-3.4L40.1,85.1z"/>
<path d="M38,85.3l-0.6-0.5c0.2-0.2,0.3-0.5,0.3-0.7c0-0.2-0.1-0.4-0.3-0.5c-0.2-0.2-0.4-0.3-0.5-0.3c-0.2,0-0.3,0.1-0.4,0.2
	c-0.1,0.1-0.1,0.2-0.1,0.2c0,0.1,0,0.2,0.1,0.3c0,0.1,0.1,0.3,0.3,0.6c0.2,0.4,0.3,0.7,0.3,0.9c0,0.3-0.1,0.6-0.4,0.9
	c-0.2,0.2-0.3,0.3-0.6,0.3c-0.2,0.1-0.4,0.1-0.7,0c-0.2-0.1-0.4-0.2-0.7-0.4c-0.3-0.3-0.5-0.7-0.5-1s0.1-0.7,0.4-1l0.6,0.5
	c-0.1,0.2-0.2,0.3-0.2,0.5s0.1,0.3,0.2,0.4c0.2,0.2,0.3,0.2,0.5,0.3c0.1,0,0.2,0,0.3-0.1c0.1-0.1,0.1-0.2,0.1-0.3
	c0-0.1-0.1-0.4-0.3-0.7c-0.2-0.3-0.3-0.6-0.4-0.8s0-0.4,0-0.6c0.1-0.2,0.2-0.4,0.4-0.6c0.2-0.2,0.4-0.3,0.6-0.4s0.5-0.1,0.7,0
	c0.2,0.1,0.5,0.2,0.7,0.5c0.3,0.3,0.5,0.7,0.5,1.1C38.5,84.5,38.3,84.9,38,85.3z"/>
<path d="M33.6,80.7l-0.3-0.8c0.5-0.2,0.8-0.3,1.2-0.2c0.3,0.1,0.7,0.3,0.9,0.6c0.3,0.4,0.4,0.8,0.3,1.4s-0.4,1-1,1.4
	c-0.6,0.5-1.1,0.7-1.6,0.7s-1-0.2-1.3-0.6c-0.3-0.4-0.4-0.8-0.3-1.2c0-0.3,0.2-0.5,0.4-0.8l0.7,0.5c-0.2,0.2-0.2,0.4-0.2,0.6
	c0,0.2,0,0.4,0.2,0.5c0.2,0.2,0.4,0.3,0.7,0.3c0.3,0,0.7-0.2,1.1-0.5c0.4-0.3,0.7-0.7,0.8-0.9s0-0.5-0.2-0.8
	c-0.1-0.2-0.3-0.3-0.5-0.3C34.1,80.4,33.9,80.5,33.6,80.7z"/>
<path d="M34,78.5L30.4,81L30,80.3l3.7-2.5L34,78.5z"/>
<path d="M31.3,78.4c-0.4,0.2-0.8,0.3-1.1,0.4c-0.2,0-0.5,0-0.7,0c-0.2,0-0.4-0.1-0.6-0.2c-0.2-0.2-0.4-0.4-0.5-0.6
	c-0.3-0.5-0.3-1-0.1-1.5c0.2-0.5,0.6-0.9,1.2-1.3c0.6-0.3,1.2-0.5,1.7-0.4s0.9,0.4,1.2,0.9c0.3,0.5,0.3,1,0.1,1.5
	C32.3,77.7,31.9,78.1,31.3,78.4z M30.9,77.8c0.4-0.2,0.7-0.5,0.9-0.8c0.1-0.3,0.1-0.6,0-0.9c-0.1-0.3-0.4-0.4-0.7-0.5
	c-0.3-0.1-0.7,0.1-1.1,0.3c-0.4,0.2-0.7,0.5-0.9,0.8c-0.1,0.3-0.1,0.6,0,0.8c0.1,0.3,0.4,0.4,0.7,0.5C30.1,78.1,30.5,78,30.9,77.8z"
	/>
<path d="M31.2,73.6l-4.1,1.7l-0.3-0.7l3.4-1.4l-0.7-1.8l0.7-0.3L31.2,73.6z"/>
<path d="M30,70.5l-4.2,1.4l-0.2-0.7l4.2-1.4L30,70.5z"/>
<path d="M29.5,69.1l-4.3,1L25,69.4l2.5-2.2l-2.9,0.7l-0.2-0.7l4.3-1l0.2,0.8L26.5,69l2.8-0.7L29.5,69.1z"/>
<path d="M28.3,61.9l0.1,0.8l-1,0.5l0.2,1.5l1,0.2l0.1,0.8l-4.6-1l-0.1-0.8L28.3,61.9z M26.7,63.5l-1.6,0.7l1.7,0.3L26.7,63.5z"/>
<path d="M93.6,70l-0.5,0.7c-0.4-0.2-0.7-0.5-0.9-0.8c-0.2-0.3-0.2-0.7-0.1-1.1c0.1-0.5,0.4-0.8,0.9-1.1c0.5-0.2,1.1-0.2,1.7,0
	c0.7,0.2,1.2,0.5,1.5,0.9c0.3,0.4,0.4,0.9,0.2,1.4c-0.1,0.4-0.4,0.8-0.8,1c-0.2,0.1-0.5,0.2-0.9,0.2v-0.8c0.2,0,0.4,0,0.6-0.1
	c0.2-0.1,0.3-0.3,0.3-0.4c0.1-0.3,0-0.5-0.2-0.8s-0.5-0.4-1-0.6c-0.5-0.2-0.9-0.2-1.2-0.1c-0.3,0.1-0.4,0.3-0.5,0.6
	c-0.1,0.2,0,0.4,0.1,0.6C93.1,69.7,93.3,69.8,93.6,70z"/>
<path d="M91.5,71.1l4.1,1.6l-0.3,0.7l-4.1-1.6L91.5,71.1z"/>
<path d="M90.5,73.6l4.6,0.7L94.7,75l-3.4-0.5l2.6,2.3l-0.3,0.7l-3.4-3.1L90.5,73.6z"/>
<path d="M89.2,76.1l3.8,2.2L92.6,79l-3.8-2.2L89.2,76.1z"/>
<path d="M87.8,78.3l3,2.1l0.7-0.9l0.6,0.4l-1.8,2.5L89.7,82l0.7-0.9l-3-2.1L87.8,78.3z"/>
<path d="M84.3,82.7l0.6-0.6l1,0.4l1-1.2l-0.6-0.9l0.5-0.6l2.4,4l-0.5,0.6L84.3,82.7z M86.5,82.8l1.6,0.7L87.2,82L86.5,82.8z"/>
<path d="M83.5,83.5l2.5,2.7l0.8-0.8l0.5,0.6L85.1,88l-0.5-0.5l0.8-0.8L82.9,84L83.5,83.5z"/>
<path d="M81.5,85.2l2.8,3.4l-0.6,0.5l-2.8-3.4L81.5,85.2z"/>
<path d="M81.1,87.4l-0.6,0.5c-0.2-0.2-0.4-0.3-0.6-0.4c-0.2,0-0.4,0-0.6,0.1c-0.2,0.1-0.3,0.3-0.4,0.5c0,0.2,0,0.3,0.1,0.5
	c0.1,0.1,0.1,0.2,0.2,0.2c0.1,0,0.2,0,0.3,0c0.1,0,0.3-0.1,0.6-0.2c0.4-0.1,0.7-0.2,1-0.1c0.3,0.1,0.6,0.3,0.8,0.5
	c0.1,0.2,0.2,0.4,0.2,0.6s0,0.4-0.2,0.6s-0.3,0.4-0.5,0.6c-0.4,0.3-0.8,0.4-1.1,0.3s-0.6-0.3-0.8-0.6l0.6-0.5
	c0.2,0.2,0.3,0.3,0.4,0.3c0.2,0,0.3,0,0.5-0.2c0.2-0.1,0.3-0.3,0.3-0.4c0-0.1,0-0.2-0.1-0.3c-0.1-0.1-0.1-0.1-0.2-0.2
	c-0.1,0-0.4,0-0.8,0.2s-0.7,0.2-0.9,0.2c-0.2,0-0.4,0-0.6-0.1c-0.2-0.1-0.4-0.3-0.5-0.5c-0.1-0.2-0.2-0.4-0.2-0.7s0-0.5,0.2-0.7
	c0.1-0.2,0.3-0.4,0.6-0.6c0.4-0.3,0.8-0.4,1.1-0.3C80.4,86.8,80.8,87,81.1,87.4z"/>
<path d="M45.1,31.3l-2-4l1.1-0.5c0.4-0.2,0.7-0.3,0.8-0.4c0.2,0,0.5,0,0.7,0.1s0.4,0.4,0.6,0.7c0.1,0.2,0.2,0.5,0.2,0.7
	c0,0.2,0,0.4-0.1,0.5c-0.1,0.2-0.2,0.3-0.3,0.4c-0.2,0.1-0.4,0.3-0.7,0.4l-0.5,0.2l0.7,1.5L45.1,31.3z M44.2,27.7l0.5,1.1l0.4-0.2
	c0.3-0.1,0.4-0.3,0.5-0.3c0.1-0.1,0.1-0.2,0.1-0.3c0-0.1,0-0.2-0.1-0.3c-0.1-0.1-0.2-0.2-0.3-0.3c-0.1-0.1-0.2-0.1-0.4,0
	c-0.1,0-0.3,0.1-0.5,0.2L44.2,27.7z"/>
<path d="M48.3,29.8l-1.5-4.1l1.5-0.5c0.4-0.1,0.7-0.2,0.9-0.2c0.2,0,0.4,0.1,0.6,0.2c0.2,0.2,0.3,0.4,0.4,0.6c0.1,0.3,0.1,0.6,0,0.9
	s-0.3,0.5-0.6,0.6c0.2,0,0.4,0.1,0.5,0.2s0.4,0.3,0.7,0.5l0.7,0.6l-0.9,0.3l-0.8-0.7c-0.3-0.3-0.5-0.4-0.6-0.5
	c-0.1-0.1-0.2-0.1-0.3-0.1c-0.1,0-0.2,0-0.4,0.1l-0.2,0l0.6,1.7L48.3,29.8z M48.2,27.1l0.5-0.2c0.3-0.1,0.6-0.2,0.6-0.3
	c0.1-0.1,0.1-0.1,0.1-0.3s0-0.2,0-0.3c0-0.1-0.1-0.2-0.2-0.3c-0.1-0.1-0.2-0.1-0.3-0.1c-0.1,0-0.2,0.1-0.5,0.2L47.8,26L48.2,27.1z"
	/>
<path d="M55.3,27.7l-0.8,0.2L54,27l-1.5,0.3l-0.1,1l-0.8,0.2l0.5-4.6l0.8-0.2L55.3,27.7z M53.6,26.4l-0.9-1.5l-0.1,1.7L53.6,26.4z"
	/>
<path d="M55.8,27.7l-0.5-4.4l2.8-0.3l0.1,0.7L56.1,24l0.1,1l1.9-0.2l0.1,0.7l-1.9,0.2l0.1,1.2l2.1-0.2l0.1,0.7L55.8,27.7z"/>
<path d="M59.1,25.9l0.8-0.1c0,0.3,0.1,0.5,0.3,0.6s0.3,0.2,0.6,0.2c0.3,0,0.4-0.1,0.6-0.2c0.1-0.1,0.2-0.3,0.2-0.4
	c0-0.1,0-0.2-0.1-0.3c0-0.1-0.2-0.1-0.3-0.2c-0.1,0-0.3-0.1-0.6-0.2c-0.4-0.1-0.7-0.3-0.9-0.4c-0.2-0.2-0.4-0.5-0.4-0.9
	c0-0.2,0-0.4,0.2-0.6c0.1-0.2,0.3-0.4,0.5-0.5c0.2-0.1,0.5-0.2,0.8-0.2c0.5,0,0.8,0.1,1.1,0.3c0.3,0.2,0.4,0.6,0.4,1l-0.8,0
	c0-0.2-0.1-0.4-0.2-0.5c-0.1-0.1-0.3-0.1-0.5-0.1c-0.2,0-0.4,0.1-0.5,0.2c-0.1,0.1-0.1,0.2-0.1,0.3c0,0.1,0,0.2,0.1,0.3
	c0.1,0.1,0.3,0.2,0.7,0.3c0.4,0.1,0.7,0.2,0.8,0.3c0.2,0.1,0.3,0.3,0.4,0.4c0.1,0.2,0.2,0.4,0.2,0.7c0,0.3,0,0.5-0.2,0.7
	s-0.3,0.4-0.5,0.5s-0.5,0.2-0.8,0.2c-0.5,0-0.9-0.1-1.1-0.4C59.3,26.8,59.2,26.4,59.1,25.9z"/>
<path d="M62.9,27.4l0.3-4.4L64,23l-0.3,4.4L62.9,27.4z"/>
<path d="M65.1,23.1l1.4,0.2c0.3,0,0.6,0.1,0.7,0.2c0.2,0.1,0.4,0.3,0.5,0.5c0.1,0.2,0.2,0.5,0.3,0.8s0,0.6,0,1
	c-0.1,0.4-0.1,0.7-0.3,0.9c-0.1,0.3-0.3,0.5-0.5,0.7c-0.2,0.1-0.3,0.2-0.6,0.3c-0.2,0-0.4,0-0.7,0l-1.4-0.2L65.1,23.1z M65.7,24
	l-0.4,2.9l0.6,0.1c0.2,0,0.4,0,0.5,0c0.1,0,0.2-0.1,0.3-0.1c0.1-0.1,0.2-0.2,0.3-0.4c0.1-0.2,0.2-0.5,0.2-0.8c0.1-0.3,0.1-0.6,0-0.8
	s-0.1-0.3-0.2-0.5c-0.1-0.1-0.2-0.2-0.3-0.3c-0.1,0-0.3-0.1-0.6-0.1L65.7,24z"/>
<path d="M68.2,28.2l1-4.3L70,24l-1,4.3L68.2,28.2z"/>
<path d="M71.1,24.3l0.7,0.2l-0.8,2.3c-0.1,0.4-0.2,0.6-0.2,0.7c0,0.2,0,0.3,0.1,0.5c0.1,0.1,0.2,0.3,0.4,0.3s0.4,0.1,0.5,0
	c0.1-0.1,0.2-0.2,0.3-0.3c0.1-0.1,0.2-0.4,0.3-0.7l0.8-2.3l0.7,0.2l-0.7,2.2c-0.2,0.5-0.3,0.9-0.4,1c-0.1,0.2-0.2,0.3-0.4,0.5
	s-0.3,0.2-0.5,0.2c-0.2,0-0.4,0-0.8-0.1c-0.3-0.1-0.6-0.3-0.8-0.4s-0.3-0.3-0.3-0.5c-0.1-0.2-0.1-0.4-0.1-0.5c0-0.3,0.1-0.6,0.3-1.1
	L71.1,24.3z"/>
<path d="M73.3,29.7l1.9-4l1.1,0.5l-0.7,3l1.9-2.4l1.1,0.5l-1.9,4L76,31l1.5-3.1l-2.2,2.8l-0.7-0.3l0.8-3.5L74,30.1L73.3,29.7z"/>
<path class="st3" d="M39.3,96.7l1.7,0.8c0.3,0.2,0.6,0.3,0.7,0.4s0.3,0.3,0.3,0.4c0.1,0.2,0.1,0.4,0.1,0.6c0,0.2,0,0.4-0.2,0.6
	c-0.1,0.2-0.3,0.4-0.5,0.6c-0.2,0.1-0.4,0.2-0.7,0.2c0.2,0.2,0.3,0.5,0.4,0.8c0,0.3,0,0.6-0.2,0.8c-0.1,0.2-0.3,0.4-0.5,0.6
	c-0.2,0.2-0.4,0.3-0.6,0.3c-0.2,0.1-0.5,0-0.7-0.1c-0.2-0.1-0.5-0.2-1.1-0.5l-1.5-0.7L39.3,96.7z M38.8,99.9l-0.7,1.3l0.8,0.4
	c0.3,0.2,0.5,0.2,0.6,0.3c0.1,0,0.3,0,0.4,0c0.1-0.1,0.2-0.2,0.3-0.4c0.1-0.2,0.1-0.3,0.1-0.4c0-0.1-0.1-0.3-0.2-0.4
	s-0.3-0.3-0.7-0.4L38.8,99.9z M39.8,97.9l-0.6,1.2l0.6,0.3c0.3,0.2,0.5,0.3,0.6,0.3c0.2,0.1,0.3,0.1,0.4,0c0.1-0.1,0.2-0.2,0.3-0.3
	c0.1-0.2,0.1-0.3,0.1-0.4s-0.1-0.2-0.2-0.3c-0.1-0.1-0.3-0.2-0.7-0.4L39.8,97.9z"/>
<path class="st3" d="M45.7,105.3l-1-0.4l0-1.3l-1.8-0.7l-0.8,1l-1-0.3l3.7-4.5l1,0.3L45.7,105.3z M44.7,102.7l0.1-2.2l-1.3,1.7
	L44.7,102.7z"/>
<path class="st3" d="M46.5,105.6l1.3-5.3l0.9,0.2l1,4.1l0.9-3.6l0.9,0.2l-1.3,5.3l-0.9-0.2l-1-4l-0.9,3.5L46.5,105.6z"/>
<path class="st3" d="M54.1,105.1l0.1-0.9l2.1,0.3l-0.3,2.2c-0.2,0.2-0.5,0.3-1,0.5c-0.4,0.1-0.8,0.2-1.2,0.1
	c-0.5-0.1-0.9-0.3-1.3-0.5s-0.6-0.7-0.7-1.1c-0.1-0.5-0.2-1-0.1-1.5c0.1-0.6,0.3-1.1,0.5-1.5s0.6-0.7,1.1-0.9
	c0.3-0.1,0.7-0.2,1.2-0.1c0.6,0.1,1,0.3,1.3,0.6s0.5,0.8,0.5,1.3l-1,0.1c0-0.3-0.1-0.5-0.3-0.7c-0.2-0.2-0.4-0.3-0.7-0.3
	c-0.4-0.1-0.8,0.1-1.1,0.3c-0.3,0.3-0.5,0.7-0.6,1.3c-0.1,0.7,0,1.2,0.2,1.5c0.2,0.4,0.5,0.6,0.9,0.6c0.2,0,0.4,0,0.6-0.1
	c0.2-0.1,0.4-0.2,0.6-0.3l0.1-0.7L54.1,105.1z"/>
<path class="st3" d="M57.1,107.4l0.2-5.5l1,0l-0.2,4.5l2.4,0.1l0,0.9L57.1,107.4z"/>
<path class="st3" d="M65.8,107.3l-1.1,0.1l-0.5-1.2l-1.9,0.1l-0.3,1.3l-1,0.1l1.6-5.6l1-0.1L65.8,107.3z M63.9,105.2l-0.8-2
	l-0.5,2.1L63.9,105.2z"/>
<path class="st3" d="M65.8,101.8l1.8-0.3c0.4-0.1,0.7-0.1,0.9,0c0.3,0.1,0.6,0.2,0.8,0.4c0.2,0.2,0.4,0.5,0.6,0.8
	c0.2,0.3,0.3,0.8,0.4,1.3c0.1,0.4,0.1,0.8,0,1.2c-0.1,0.4-0.2,0.8-0.3,1c-0.1,0.2-0.3,0.4-0.6,0.5c-0.2,0.1-0.5,0.2-0.8,0.3
	l-1.8,0.3L65.8,101.8z M66.9,102.5l0.6,3.6l0.7-0.1c0.3,0,0.4-0.1,0.6-0.1c0.2-0.1,0.3-0.2,0.3-0.3s0.1-0.3,0.2-0.6s0-0.6-0.1-1
	c-0.1-0.4-0.2-0.7-0.3-1s-0.2-0.4-0.3-0.5c-0.1-0.1-0.3-0.2-0.5-0.2c-0.1,0-0.4,0-0.8,0.1L66.9,102.5z"/>
<path class="st3" d="M71.8,106.3l-1.4-5.3l3.4-0.9L74,101l-2.5,0.7l0.3,1.2l2.3-0.6l0.2,0.9l-2.3,0.6l0.4,1.4l2.6-0.7l0.2,0.9
	L71.8,106.3z"/>
<path class="st3" d="M75.6,103.4l0.8-0.4c0.2,0.3,0.4,0.5,0.6,0.6c0.2,0.1,0.5,0.1,0.8,0c0.3-0.1,0.5-0.3,0.6-0.5
	c0.1-0.2,0.1-0.4,0-0.6c-0.1-0.1-0.1-0.2-0.2-0.3c-0.1-0.1-0.2-0.1-0.4-0.1c-0.1,0-0.4,0-0.8,0c-0.5,0-0.9,0-1.2-0.1
	c-0.4-0.2-0.7-0.5-0.8-0.9c-0.1-0.3-0.1-0.5-0.1-0.8c0-0.3,0.2-0.5,0.4-0.7c0.2-0.2,0.5-0.4,0.8-0.5c0.6-0.2,1-0.2,1.4-0.1
	s0.7,0.5,0.9,1l-0.9,0.4c-0.1-0.3-0.3-0.4-0.5-0.5s-0.4-0.1-0.6,0c-0.3,0.1-0.4,0.2-0.6,0.4c-0.1,0.1-0.1,0.2,0,0.4
	c0.1,0.1,0.1,0.2,0.3,0.3c0.2,0.1,0.5,0.1,1,0c0.5,0,0.8,0,1.1,0c0.3,0.1,0.5,0.2,0.7,0.3c0.2,0.2,0.4,0.4,0.5,0.8
	c0.1,0.3,0.1,0.6,0.1,0.9c-0.1,0.3-0.2,0.6-0.4,0.8c-0.2,0.2-0.5,0.4-0.9,0.6c-0.6,0.2-1.1,0.2-1.5,0
	C76.2,104.3,75.8,104,75.6,103.4z"/>
<path class="st3" d="M80.9,103.3l-2.4-4.9l0.9-0.4l1,1.9L82,99l-1-1.9l0.9-0.4l2.4,4.9l-0.9,0.4l-1.1-2.2l-1.7,0.8l1.1,2.2
	L80.9,103.3z"/>
<path d="M55.3,97.6l-0.9-0.1l0.5-3.9c-0.4,0.3-0.8,0.5-1.3,0.6l0.1-0.9c0.3-0.1,0.5-0.2,0.8-0.4c0.3-0.2,0.5-0.5,0.7-0.8l0.7,0.1
	L55.3,97.6z"/>
<path d="M57.5,96.6l0.9-0.1c0,0.2,0.1,0.4,0.2,0.5s0.2,0.2,0.3,0.2c0.2,0,0.3-0.1,0.5-0.3c0.1-0.2,0.3-0.6,0.3-1.2
	c-0.2,0.3-0.5,0.4-0.9,0.4c-0.4,0-0.7-0.2-1-0.6c-0.3-0.3-0.4-0.8-0.3-1.3c0-0.6,0.2-1,0.5-1.3s0.7-0.5,1.1-0.5
	c0.5,0,0.9,0.3,1.2,0.7c0.3,0.4,0.4,1.2,0.4,2.2c0,1-0.3,1.7-0.6,2.2c-0.3,0.4-0.8,0.6-1.3,0.6c-0.4,0-0.7-0.2-0.9-0.4
	C57.6,97.4,57.5,97,57.5,96.6z M59.7,94.3c0-0.3,0-0.6-0.2-0.8c-0.1-0.2-0.3-0.3-0.5-0.3c-0.2,0-0.3,0.1-0.4,0.2
	c-0.1,0.2-0.2,0.4-0.2,0.8c0,0.4,0,0.6,0.1,0.8c0.1,0.2,0.3,0.3,0.4,0.3s0.3-0.1,0.5-0.2C59.6,94.9,59.6,94.7,59.7,94.3z"/>
<path d="M61.8,96.7l0.9-0.2c0,0.2,0.1,0.4,0.2,0.5c0.1,0.1,0.2,0.1,0.4,0.1c0.2,0,0.3-0.1,0.5-0.3c0.1-0.2,0.2-0.6,0.2-1.3
	c-0.2,0.3-0.5,0.5-0.8,0.5c-0.4,0-0.7-0.1-1-0.5c-0.3-0.3-0.4-0.8-0.5-1.3c0-0.6,0.1-1,0.4-1.4c0.3-0.3,0.6-0.5,1.1-0.6
	c0.5,0,0.9,0.2,1.2,0.6c0.3,0.4,0.5,1.1,0.6,2.1c0,1-0.1,1.7-0.4,2.2c-0.3,0.5-0.7,0.7-1.2,0.7c-0.4,0-0.7-0.1-0.9-0.3
	C62,97.5,61.8,97.2,61.8,96.7z M63.8,94.3c0-0.3-0.1-0.6-0.2-0.8s-0.3-0.3-0.5-0.3c-0.2,0-0.3,0.1-0.4,0.3c-0.1,0.2-0.2,0.4-0.1,0.8
	c0,0.4,0.1,0.6,0.2,0.8c0.1,0.2,0.3,0.2,0.5,0.2c0.2,0,0.3-0.1,0.4-0.3C63.7,94.9,63.8,94.6,63.8,94.3z"/>
<path d="M68,97.5l-0.1-1.1l-1.9,0.3l-0.1-0.9l1.6-3.7l0.8-0.1l0.4,3.5l0.6-0.1l0.1,0.9l-0.6,0.1l0.1,1.1L68,97.5z M67.7,95.5
	l-0.2-1.9l-0.8,2L67.7,95.5z"/>
<line class="st4" x1="75.1" y1="41.3" x2="67.9" y2="51.3"/>
<line class="st4" x1="72.7" y1="40.2" x2="70.3" y2="52.3"/>
<polyline class="st4" points="70,40.3 72.4,50 72.5,50.2 "/>
<line class="st4" x1="67.6" y1="41.5" x2="75.4" y2="51"/>
<line class="st4" x1="65.9" y1="43.6" x2="77.1" y2="49"/>
<line class="st4" x1="65.3" y1="46.2" x2="77.7" y2="46.4"/>
<line class="st4" x1="65.9" y1="48.8" x2="77.1" y2="43.7"/>
<ellipse class="st2" cx="71.5" cy="46.3" rx="4.4" ry="4.4"/>
<path class="st5" d="M71.5,46.8c0.3,0,0.8,1,1,2c0.4-0.6,0.6-1.4,0.4-2c-0.4-0.9-1.3-1.1-0.4-3.6c0,0-1.4,0.6-1.8,2.7
	c-0.2,1.4,0,2.4,0.4,3C70.9,47.7,71.2,46.8,71.5,46.8z"/>
<path d="M71.8,49.3c0.3,0,0.5-0.2,0.7-0.5c-0.2-1-0.7-2-1-2c-0.2,0-0.5,0.9-0.4,2C71.3,49.1,71.5,49.3,71.8,49.3z"/>
<path class="st6" d="M71.6,56.7c1.2,0,2-0.2,1.8-2c-0.2-1.8-0.3-2.2-0.4-3.1c-0.1-0.9-0.3-1.4-1.4-1.5c-0.9,0-1.4,0.3-1.4,1.7
	s-0.4,3-0.2,3.8C70.2,56.3,70.3,56.7,71.6,56.7z"/>
<path class="st7" d="M56.3,53.3l-2.4-8.3L41,45.2l-1.7,8h6.8c0,0,0.7,0.8,1.7,0.8s1.4-0.9,1.4-0.9L56.3,53.3z"/>
<linearGradient id="SVGID_1_" gradientUnits="userSpaceOnUse" x1="39.34" y1="-2221.5549" x2="56.26" y2="-2221.5549" gradientTransform="matrix(1 0 0 -1 0 -2172)">
	<stop  offset="0" style="stop-color:#000000"/>
	<stop  offset="1" style="stop-color:#FFFFFF"/>
</linearGradient>
<path class="st8" d="M56.3,53.3l-2.4-8.3L41,45.2l-1.7,8h6.8c0,0,0.7,0.8,1.7,0.8s1.4-0.9,1.4-0.9L56.3,53.3z"/>
<path class="st7" d="M53.4,46.1c0,0-1.3-1.5-3.1-1.5s-2.6,1.2-2.6,1.2s-0.8-1.2-2.6-1.2c-1.8,0-3.1,1.5-3.1,1.5l-1.7,6.5
	c0,0,5.5-3.1,7.4,0.1c2-3.2,7.4-0.1,7.4-0.1L53.4,46.1z"/>
<linearGradient id="SVGID_2_" gradientUnits="userSpaceOnUse" x1="47.68" y1="-2220.5901" x2="55.11" y2="-2220.5901" gradientTransform="matrix(1 0 0 -1 0 -2172)">
	<stop  offset="0" style="stop-color:#FFFFFF"/>
	<stop  offset="2.560000e-02" style="stop-color:#F6F6F6"/>
	<stop  offset="0.2396" style="stop-color:#ACACAC"/>
	<stop  offset="0.4406" style="stop-color:#6F6F6F"/>
	<stop  offset="0.6227" style="stop-color:#3F3F3F"/>
	<stop  offset="0.7825" style="stop-color:#1D1D1D"/>
	<stop  offset="0.9137" style="stop-color:#080808"/>
	<stop  offset="1" style="stop-color:#000000"/>
</linearGradient>
<path class="st9" d="M47.7,52.6v-6.8c0,0,0.8-1.2,2.6-1.2c1.8,0,3.1,1.5,3.1,1.5l1.7,6.5C55.1,52.5,49.6,49.4,47.7,52.6z"/>
<linearGradient id="SVGID_3_" gradientUnits="userSpaceOnUse" x1="-1314.6801" y1="-2220.5901" x2="-1307.25" y2="-2220.5901" gradientTransform="matrix(-1 0 0 -1 -1267 -2172)">
	<stop  offset="0" style="stop-color:#696969"/>
	<stop  offset="8.910000e-02" style="stop-color:#888888"/>
	<stop  offset="0.2138" style="stop-color:#ACACAC"/>
	<stop  offset="0.345" style="stop-color:#CACACA"/>
	<stop  offset="0.4825" style="stop-color:#E2E2E2"/>
	<stop  offset="0.6293" style="stop-color:#F2F2F2"/>
	<stop  offset="0.7916" style="stop-color:#FCFCFC"/>
	<stop  offset="1" style="stop-color:#FFFFFF"/>
</linearGradient>
<path class="st10" d="M47.7,52.6v-6.8c0,0-0.8-1.2-2.6-1.2c-1.8,0-3.1,1.5-3.1,1.5l-1.7,6.5C40.3,52.5,45.7,49.4,47.7,52.6z"/>
<linearGradient id="SVGID_4_" gradientUnits="userSpaceOnUse" x1="47.68" y1="-2220.5901" x2="55.11" y2="-2220.5901" gradientTransform="matrix(1 0 0 -1 0 -2172)">
	<stop  offset="0" style="stop-color:#FFFFFF"/>
	<stop  offset="2.560000e-02" style="stop-color:#F6F6F6"/>
	<stop  offset="0.2396" style="stop-color:#ACACAC"/>
	<stop  offset="0.4406" style="stop-color:#6F6F6F"/>
	<stop  offset="0.6227" style="stop-color:#3F3F3F"/>
	<stop  offset="0.7825" style="stop-color:#1D1D1D"/>
	<stop  offset="0.9137" style="stop-color:#080808"/>
	<stop  offset="1" style="stop-color:#000000"/>
</linearGradient>
<path class="st11" d="M47.7,52.6v-6.8c0,0,0.8-1.2,2.6-1.2c1.8,0,3.1,1.5,3.1,1.5l1.7,6.5C55.1,52.5,49.6,49.4,47.7,52.6z"/>
<linearGradient id="SVGID_5_" gradientUnits="userSpaceOnUse" x1="-1314.6801" y1="-2220.5901" x2="-1307.25" y2="-2220.5901" gradientTransform="matrix(-1 0 0 -1 -1267 -2172)">
	<stop  offset="0" style="stop-color:#696969"/>
	<stop  offset="8.910000e-02" style="stop-color:#888888"/>
	<stop  offset="0.2138" style="stop-color:#ACACAC"/>
	<stop  offset="0.345" style="stop-color:#CACACA"/>
	<stop  offset="0.4825" style="stop-color:#E2E2E2"/>
	<stop  offset="0.6293" style="stop-color:#F2F2F2"/>
	<stop  offset="0.7916" style="stop-color:#FCFCFC"/>
	<stop  offset="1" style="stop-color:#FFFFFF"/>
</linearGradient>
<path class="st12" d="M47.7,52.6v-6.8c0,0-0.8-1.2-2.6-1.2c-1.8,0-3.1,1.5-3.1,1.5l-1.7,6.5C40.3,52.5,45.7,49.4,47.7,52.6z"/>
<line class="st13" x1="47.7" y1="45.6" x2="47.7" y2="52.7"/>
<path class="st14" d="M52,64.2h10.2l0.2,8.2c0,0-1.2,1.3-5.1,1.3S52,72.5,52,72.5L52,64.2z"/>
<linearGradient id="SVGID_6_" gradientUnits="userSpaceOnUse" x1="53.48" y1="68.67" x2="61.07" y2="68.67">
	<stop  offset="0" style="stop-color:#F0E924"/>
	<stop  offset="0.2042" style="stop-color:#EDD237"/>
	<stop  offset="0.6302" style="stop-color:#E79769"/>
	<stop  offset="1" style="stop-color:#E15F98"/>
</linearGradient>
<polygon class="st15" points="53.6,71.6 53.5,65.7 61.1,65.7 61.1,71.6 "/>
<polygon class="st16" points="61.8,65.3 64,65.3 64.4,71.7 62.3,72.4 62,72 "/>
<polygon class="st16" points="52.6,65.3 50.4,65.3 50,71.7 52.1,72.4 52.5,72 "/>
<path class="st13" d="M53.1,78l0.1-2.1l11.2-1.2l0,2.1C64.4,76.8,54.4,77.8,53.1,78z"/>
<polygon class="st13" points="53.1,78 50,75.4 50,73.3 53.2,75.9 "/>
<polyline class="st13" points="50,73.3 61.9,72.7 64.4,74.7 "/>
<polygon class="st13" points="52.3,78.9 54.2,81.3 68.6,78.9 64.6,76.6 "/>
<path class="st13" d="M66.4,77.6c0,0,0.2-1.3,0.8-1.2c0.6,0.1,0.7,0.1,1.4,0.6c0.7,0.5,0.6,1,0.4,1.2c-0.2,0.3-0.7,0.5-0.7,0.5
	L66.4,77.6z"/>
<line class="st13" x1="53.5" y1="78.6" x2="55.4" y2="81.1"/>
<line class="st13" x1="55" y1="78.4" x2="56.8" y2="80.8"/>
<line class="st13" x1="56.6" y1="78.1" x2="58.4" y2="80.6"/>
<line class="st13" x1="58.1" y1="77.9" x2="59.8" y2="80.3"/>
<line class="st13" x1="59.5" y1="77.6" x2="61.3" y2="80.1"/>
<line class="st13" x1="60.8" y1="77.4" x2="62.4" y2="80"/>
<line class="st13" x1="62" y1="77.1" x2="63.7" y2="79.8"/>
<line class="st13" x1="63.4" y1="76.9" x2="65.2" y2="79.5"/>
<line class="st13" x1="64.2" y1="76.7" x2="67" y2="79.2"/>
</svg>
