<?xml version="1.0" encoding="utf-8"?>
<!-- Generator: Adobe Illustrator 23.0.2, SVG Export Plug-In . SVG Version: 6.00 Build 0)  -->
<svg version="1.1" id="Layer_1" xmlns="http://www.w3.org/2000/svg" xmlns:xlink="http://www.w3.org/1999/xlink" x="0px" y="0px"
	 viewBox="0 0 120 120" style="enable-background:new 0 0 120 120;" xml:space="preserve">
<style type="text/css">
	.st0{fill:#333689;}
	.st1{fill:#C7EAFA;}
	.st2{fill:#FFFFFF;}
	.st3{fill:none;stroke:#E51E25;stroke-miterlimit:10;}
	.st4{fill:#E51E25;}
	.st5{fill:#00687C;}
	.st6{stroke:#000000;stroke-miterlimit:10;}
	.st7{fill:url(#SVGID_1_);}
	.st8{fill:url(#SVGID_2_);}
	.st9{fill:url(#SVGID_3_);}
	.st10{fill:url(#SVGID_4_);}
	.st11{fill:url(#SVGID_5_);}
	.st12{fill:none;stroke:#000000;stroke-width:0.5;stroke-miterlimit:10;}
	.st13{fill:none;stroke:#000000;stroke-miterlimit:10;}
</style>
<path class="st0" d="M110,60c0,27.61-22.39,50-50,50S10,87.62,10,60s22.39-50,50-50S110,32.38,110,60z"/>
<path class="st1" d="M99.8,60c0,21.98-17.83,39.8-39.81,39.8S20.18,81.98,20.18,60s17.83-39.81,39.81-39.81
	C81.98,20.2,99.8,38.02,99.8,60z"/>
<path class="st2" d="M59.83,29.85c0,0,2.37,5.02,9.36,7.58c6.98,2.57,14.47,1.34,14.47,1.34s0.73,12.99-2.79,25.06
	C77.36,75.9,66.92,90.19,60.39,90.48s-15.66-9.81-21.76-26.13c-1.17-3.15-4.47-15.87-4.47-25.7c0,0,8.05,2.46,15.14-0.78
	C56.4,34.64,59.83,29.85,59.83,29.85z"/>
<path class="st2" d="M18.1,54.9l-0.07,1.12l-1.17,0.38l-0.12,2.03l1.12,0.49l-0.07,1.09l-4.94-2.28l0.07-1.08L18.1,54.9z
	 M15.98,56.68l-1.92,0.59l1.84,0.8L15.98,56.68z"/>
<path class="st2" d="M18.13,54.66l-4.99-0.92l0.28-1.52L17,51.94l-3.23-1.53l0.28-1.52l4.99,0.92l-0.18,0.94l-3.92-0.73l3.74,1.73
	l-0.18,0.97l-4.11,0.26l3.92,0.73L18.13,54.66z"/>
<path class="st2" d="M19.21,49.25l-4.84-1.51l1.12-3.61l0.82,0.26l-0.82,2.63l1.07,0.33l0.76-2.44l0.81,0.26l-0.76,2.44l1.32,0.41
	l0.85-2.72l0.81,0.26L19.21,49.25z"/>
<path class="st2" d="M20.48,45.24l-4.65-2.01l0.85-1.99c0.22-0.5,0.42-0.84,0.6-1.03s0.41-0.31,0.68-0.35
	c0.27-0.04,0.54-0.01,0.82,0.12c0.35,0.15,0.6,0.38,0.73,0.68c0.13,0.31,0.15,0.68,0.03,1.12c0.21-0.16,0.41-0.27,0.61-0.34
	s0.53-0.14,0.99-0.21l1.16-0.18l-0.49,1.13l-1.31,0.24c-0.47,0.08-0.77,0.16-0.9,0.2c-0.13,0.05-0.23,0.12-0.32,0.2
	c-0.08,0.08-0.17,0.23-0.26,0.45l-0.08,0.19l1.94,0.84L20.48,45.24z M18.2,43.14l0.3-0.7c0.19-0.45,0.3-0.74,0.31-0.88
	c0.01-0.13-0.02-0.24-0.08-0.35c-0.07-0.11-0.17-0.19-0.31-0.25c-0.16-0.07-0.3-0.08-0.44-0.03c-0.13,0.04-0.24,0.13-0.34,0.28
	c-0.04,0.08-0.15,0.3-0.32,0.68L17,42.62L18.2,43.14z"/>
<path class="st2" d="M22.36,41.06l-4.49-2.34l0.48-0.91l4.49,2.34L22.36,41.06z"/>
<path class="st2" d="M23.15,35.95l0.79-0.68c0.39,0.42,0.6,0.86,0.65,1.3c0.04,0.44-0.08,0.9-0.37,1.37
	c-0.35,0.57-0.85,0.92-1.47,1.06c-0.62,0.13-1.27-0.02-1.94-0.43c-0.72-0.44-1.16-0.97-1.32-1.59c-0.17-0.62-0.07-1.23,0.31-1.83
	c0.33-0.53,0.75-0.87,1.27-1.01c0.3-0.08,0.66-0.07,1.07,0.05l-0.33,0.99c-0.25-0.08-0.5-0.09-0.73-0.01s-0.42,0.24-0.56,0.47
	c-0.2,0.33-0.24,0.65-0.14,0.99c0.11,0.34,0.42,0.67,0.93,0.99c0.54,0.33,1,0.48,1.35,0.42c0.35-0.05,0.63-0.24,0.82-0.55
	c0.14-0.23,0.19-0.48,0.15-0.73C23.58,36.48,23.42,36.23,23.15,35.95z"/>
<path class="st2" d="M28.28,32.2l-0.69,0.88l-1.18-0.36l-1.26,1.61l0.65,1.04l-0.67,0.86l-2.78-4.68l0.67-0.86L28.28,32.2z
	 M25.53,32.46l-1.92-0.6l1.06,1.7L25.53,32.46z"/>
<path class="st2" d="M28.3,32.21l-3.64-3.53l0.7-0.71l3.88,0.86l-2.43-2.36l0.67-0.68l3.64,3.53l-0.72,0.74l-3.8-0.83l2.37,2.3
	L28.3,32.21z"/>
<path class="st2" d="M33.96,26.92l-3.08-4.02l0.82-0.63l3.08,4.02L33.96,26.92z"/>
<path class="st2" d="M35.36,25.82l-2.76-4.25l0.84-0.55l3.6,1.7l-1.84-2.84l0.8-0.52l2.76,4.25l-0.86,0.57l-3.52-1.66l1.8,2.77
	L35.36,25.82z"/>
<path class="st2" d="M40.5,22.7l-1.91-3.75l-1.35,0.68l-0.39-0.77l3.61-1.83l0.39,0.77l-1.34,0.68l1.91,3.75L40.5,22.7z"/>
<path class="st2" d="M43.14,21.39l-1.83-4.73l3.53-1.36l0.31,0.8l-2.56,0.99l0.4,1.05l2.39-0.92l0.31,0.8l-2.39,0.92l0.49,1.28
	l2.66-1.02l0.31,0.8L43.14,21.39z"/>
<path class="st2" d="M47.33,19.81l-1.29-4.9l2.1-0.55c0.53-0.13,0.92-0.19,1.18-0.18c0.26,0.03,0.49,0.13,0.7,0.32
	c0.2,0.19,0.34,0.43,0.42,0.72c0.1,0.37,0.07,0.7-0.08,0.99c-0.15,0.3-0.44,0.53-0.85,0.71c0.25,0.07,0.46,0.16,0.64,0.27
	c0.18,0.12,0.44,0.32,0.78,0.65l0.85,0.8l-1.19,0.31l-1-0.87c-0.35-0.32-0.6-0.51-0.71-0.58c-0.12-0.08-0.23-0.12-0.35-0.13
	c-0.12-0.01-0.28,0.02-0.52,0.08l-0.2,0.06l0.54,2.05L47.33,19.81z M47.58,16.72l0.74-0.19c0.48-0.13,0.77-0.23,0.88-0.29
	c0.11-0.07,0.18-0.17,0.23-0.28c0.04-0.12,0.04-0.25,0-0.39c-0.04-0.17-0.13-0.28-0.23-0.37c-0.12-0.08-0.26-0.11-0.43-0.09
	c-0.08,0.01-0.33,0.07-0.73,0.17l-0.78,0.21L47.58,16.72z"/>
<path class="st2" d="M52.05,18.62l-0.72-5.02l0.99-0.14l2.55,3.05l-0.48-3.35l0.95-0.13l0.72,5.02l-1.02,0.15l-2.51-2.98L53,18.5
	L52.05,18.62z"/>
<path class="st2" d="M61.46,17.83l-1.12,0.03l-0.48-1.14l-2.04,0.06l-0.39,1.17l-1.09,0.03l1.84-5.13l1.09-0.03L61.46,17.83z
	 M59.51,15.88l-0.75-1.86l-0.64,1.9L59.51,15.88z"/>
<path class="st2" d="M62.37,17.94l0.27-4.2l-1.51-0.1l0.05-0.86l4.04,0.26l-0.05,0.86l-1.51-0.09l-0.27,4.2L62.37,17.94z"/>
<path class="st2" d="M65.31,18.19l0.67-5.02L67,13.3l-0.67,5.03L65.31,18.19z"/>
<path class="st2" d="M67.4,15.9c0.11-0.5,0.28-0.91,0.5-1.22c0.17-0.23,0.37-0.42,0.61-0.57c0.23-0.16,0.49-0.26,0.74-0.31
	c0.34-0.07,0.71-0.05,1.11,0.03c0.74,0.16,1.27,0.52,1.61,1.07c0.34,0.55,0.43,1.22,0.25,2.03c-0.18,0.8-0.53,1.38-1.06,1.73
	c-0.54,0.36-1.17,0.46-1.9,0.29c-0.74-0.16-1.28-0.52-1.62-1.06C67.31,17.35,67.22,16.68,67.4,15.9z M68.44,16.09
	c-0.13,0.56-0.08,1.02,0.12,1.36c0.2,0.34,0.49,0.57,0.9,0.65c0.4,0.08,0.76,0.02,1.08-0.22c0.32-0.23,0.54-0.63,0.67-1.21
	c0.13-0.57,0.09-1.02-0.1-1.35c-0.19-0.33-0.49-0.55-0.91-0.63c-0.42-0.09-0.78-0.02-1.1,0.21C68.78,15.13,68.57,15.52,68.44,16.09z
	"/>
<path class="st2" d="M72.19,19.57l1.67-4.78l0.95,0.32l0.85,3.88l1.11-3.2l0.91,0.32l-1.67,4.78l-0.97-0.34l-0.85-3.8l-1.09,3.12
	L72.19,19.57z"/>
<path class="st2" d="M80.91,23.21l-1.01-0.48L80,21.5l-1.84-0.89l-0.88,0.86l-0.98-0.48l4-3.7l0.98,0.48L80.91,23.21z M80.07,20.58
	l0.18-2l-1.44,1.39L80.07,20.58z"/>
<path class="st2" d="M81.14,23.39l2.66-4.27l0.87,0.54l-2.2,3.55l2.17,1.35l-0.45,0.73L81.14,23.39z"/>
<path class="st2" d="M89.8,23.13l0.77,0.67l-1.8,2.07c-0.28,0.32-0.46,0.55-0.53,0.67c-0.1,0.18-0.13,0.38-0.09,0.58
	c0.04,0.21,0.17,0.4,0.39,0.59s0.43,0.29,0.61,0.3c0.19,0.01,0.35-0.04,0.49-0.16c0.13-0.11,0.34-0.32,0.6-0.62l1.84-2.12l0.77,0.67
	l-1.75,2.01c-0.4,0.46-0.7,0.77-0.91,0.92c-0.21,0.16-0.42,0.24-0.65,0.28c-0.23,0.03-0.47,0-0.72-0.08s-0.54-0.27-0.84-0.53
	c-0.37-0.32-0.6-0.6-0.72-0.86c-0.12-0.25-0.17-0.49-0.17-0.72c0.01-0.23,0.06-0.43,0.15-0.62c0.14-0.27,0.39-0.61,0.77-1.03
	L89.8,23.13z"/>
<path class="st2" d="M90.31,30.39L94.08,27l0.67,0.74l-1.12,3.82l2.51-2.26l0.64,0.71l-3.77,3.39l-0.69-0.77l1.08-3.73l-2.46,2.21
	L90.31,30.39z"/>
<path class="st2" d="M93.67,34.29l4.04-3.06l0.62,0.83l-4.04,3.06L93.67,34.29z"/>
<path class="st2" d="M95.62,37.03l3.3-4.26l0.6,0.94l-2.47,3.1l3.84-0.96l0.59,0.93l-5.25,1.18L95.62,37.03z"/>
<path class="st2" d="M97.43,39.97l4.56-2.22l1.66,3.4l-0.77,0.38l-1.21-2.48l-1.01,0.49l1.12,2.3l-0.77,0.38l-1.12-2.3l-1.24,0.6
	l1.25,2.56l-0.77,0.38L97.43,39.97z"/>
<path class="st2" d="M99.46,44.26l4.79-1.67l0.71,2.04c0.18,0.52,0.27,0.91,0.26,1.17c0,0.27-0.09,0.5-0.27,0.72
	c-0.17,0.22-0.4,0.38-0.68,0.47c-0.36,0.13-0.7,0.12-1.01-0.01c-0.31-0.13-0.57-0.4-0.77-0.8c-0.05,0.25-0.13,0.47-0.22,0.66
	c-0.1,0.19-0.29,0.47-0.59,0.83l-0.73,0.91l-0.4-1.17l0.8-1.07c0.28-0.38,0.46-0.63,0.53-0.76c0.07-0.13,0.1-0.24,0.1-0.36
	s-0.04-0.28-0.12-0.51l-0.07-0.2L99.8,45.2L99.46,44.26z M102.56,44.28l0.25,0.72c0.16,0.47,0.28,0.75,0.36,0.86
	c0.08,0.1,0.18,0.18,0.3,0.2c0.12,0.03,0.25,0.02,0.39-0.03c0.16-0.06,0.28-0.14,0.34-0.27c0.07-0.12,0.09-0.27,0.06-0.43
	c-0.02-0.08-0.09-0.33-0.23-0.72l-0.27-0.76L102.56,44.28z"/>
<path class="st2" d="M102.63,48.53l0.31,0.96c-0.32,0.13-0.53,0.3-0.64,0.52c-0.12,0.22-0.13,0.47-0.07,0.78
	c0.07,0.32,0.19,0.55,0.37,0.68c0.17,0.13,0.35,0.18,0.54,0.14c0.12-0.02,0.21-0.08,0.28-0.17c0.07-0.08,0.11-0.22,0.13-0.41
	c0.02-0.13,0.03-0.41,0.04-0.85c0.02-0.57,0.1-0.98,0.24-1.24c0.2-0.37,0.5-0.59,0.9-0.67c0.25-0.05,0.5-0.03,0.75,0.06
	c0.25,0.1,0.46,0.27,0.64,0.52c0.18,0.24,0.3,0.56,0.39,0.94c0.13,0.63,0.1,1.12-0.1,1.5s-0.53,0.62-0.98,0.73l-0.27-0.99
	c0.24-0.1,0.41-0.23,0.49-0.39c0.08-0.17,0.09-0.39,0.03-0.67c-0.07-0.29-0.18-0.51-0.33-0.65c-0.1-0.09-0.22-0.12-0.34-0.09
	c-0.12,0.02-0.21,0.1-0.27,0.22c-0.08,0.15-0.12,0.48-0.13,0.99c-0.01,0.52-0.05,0.9-0.12,1.17c-0.07,0.26-0.2,0.48-0.39,0.66
	c-0.18,0.17-0.44,0.3-0.75,0.38c-0.28,0.07-0.57,0.04-0.85-0.07c-0.28-0.1-0.52-0.29-0.7-0.55c-0.18-0.27-0.32-0.61-0.42-1.04
	c-0.13-0.63-0.1-1.15,0.12-1.54C101.72,49.02,102.1,48.72,102.63,48.53z"/>
<path class="st2" d="M102,53.81l5.03-0.68l0.13,1.02l-5.03,0.67L102,53.81z"/>
<path class="st2" d="M102.34,57l4.21-0.24l-0.08-1.51l0.85-0.05l0.23,4.04l-0.85,0.05l-0.08-1.51l-4.21,0.24L102.34,57z"/>
<path class="st2" d="M102.42,61.56l2.14,0.11l3.03-1.72l-0.06,1.21l-2.06,1.1l1.94,1.28l-0.06,1.18l-2.85-2.02l-2.13-0.11
	L102.42,61.56z"/>
<path d="M40.62,90.99l-1.16-0.82c-0.26-0.18-0.44-0.35-0.54-0.49c-0.13-0.19-0.22-0.42-0.23-0.67c-0.02-0.25,0.03-0.52,0.12-0.79
	c0.1-0.28,0.27-0.58,0.5-0.93c0.21-0.29,0.43-0.52,0.65-0.7c0.27-0.21,0.53-0.34,0.79-0.39c0.2-0.04,0.41-0.03,0.65,0.03
	c0.18,0.05,0.38,0.16,0.61,0.32l1.19,0.85L40.62,90.99z M40.41,89.93l1.7-2.38l-0.47-0.33c-0.18-0.13-0.31-0.21-0.4-0.24
	c-0.13-0.04-0.24-0.05-0.36-0.03c-0.12,0.02-0.25,0.1-0.41,0.22c-0.16,0.13-0.34,0.33-0.54,0.62c-0.2,0.28-0.33,0.51-0.39,0.68
	c-0.07,0.18-0.08,0.34-0.07,0.47c0.02,0.13,0.08,0.27,0.17,0.37c0.07,0.08,0.23,0.22,0.49,0.41L40.41,89.93z"/>
<path d="M40.08,85.08l-2.85,3.37l-0.59-0.5l2.85-3.37L40.08,85.08z"/>
<path d="M38.03,85.26l-0.6-0.47c0.18-0.24,0.26-0.46,0.25-0.65c0-0.19-0.08-0.38-0.25-0.54c-0.18-0.17-0.36-0.27-0.53-0.27
	c-0.18,0-0.32,0.05-0.44,0.17c-0.08,0.07-0.12,0.16-0.13,0.24c-0.02,0.09,0.01,0.2,0.07,0.33c0.04,0.09,0.14,0.28,0.3,0.58
	c0.21,0.37,0.32,0.68,0.32,0.92c0,0.34-0.13,0.63-0.38,0.88c-0.16,0.16-0.34,0.27-0.56,0.33c-0.22,0.06-0.44,0.05-0.65-0.02
	c-0.22-0.07-0.44-0.22-0.65-0.43c-0.34-0.34-0.52-0.68-0.52-1.03s0.13-0.67,0.41-0.96l0.58,0.52c-0.13,0.18-0.2,0.35-0.19,0.5
	s0.09,0.3,0.24,0.45c0.16,0.16,0.32,0.24,0.49,0.26c0.11,0.01,0.2-0.03,0.28-0.11c0.08-0.07,0.11-0.17,0.11-0.28
	c0-0.13-0.1-0.38-0.3-0.71c-0.19-0.34-0.32-0.61-0.37-0.82s-0.05-0.41,0.02-0.62c0.06-0.21,0.19-0.41,0.39-0.61
	c0.18-0.18,0.39-0.31,0.63-0.38s0.48-0.07,0.71,0.02c0.23,0.08,0.47,0.24,0.7,0.47c0.34,0.34,0.52,0.69,0.52,1.07
	C38.5,84.5,38.34,84.88,38.03,85.26z"/>
<path d="M33.58,80.66l-0.26-0.76c0.45-0.21,0.85-0.29,1.2-0.22c0.35,0.07,0.65,0.26,0.91,0.57c0.32,0.4,0.43,0.85,0.32,1.36
	s-0.44,0.97-0.97,1.41c-0.57,0.46-1.12,0.68-1.64,0.68s-0.96-0.22-1.29-0.63c-0.29-0.37-0.41-0.77-0.34-1.19
	c0.03-0.26,0.17-0.52,0.39-0.82l0.65,0.47c-0.15,0.18-0.23,0.37-0.24,0.56c-0.02,0.19,0.04,0.38,0.18,0.53
	c0.18,0.22,0.42,0.32,0.7,0.32c0.29-0.01,0.65-0.18,1.06-0.51c0.44-0.35,0.69-0.67,0.76-0.95s0.03-0.53-0.15-0.75
	c-0.13-0.16-0.3-0.25-0.51-0.28C34.13,80.45,33.88,80.51,33.58,80.66z"/>
<path d="M34.04,78.5l-3.65,2.47l-0.44-0.64l3.65-2.47L34.04,78.5z"/>
<path d="M31.33,78.44c-0.39,0.22-0.75,0.35-1.07,0.39c-0.23,0.03-0.47,0.03-0.7-0.02c-0.23-0.04-0.43-0.13-0.59-0.24
	c-0.22-0.15-0.4-0.37-0.55-0.63c-0.28-0.5-0.32-0.99-0.13-1.48c0.18-0.49,0.6-0.92,1.22-1.27c0.62-0.34,1.19-0.47,1.71-0.37
	s0.91,0.39,1.18,0.89c0.28,0.5,0.32,0.99,0.13,1.48C32.34,77.68,31.94,78.1,31.33,78.44z M30.91,77.76
	c0.44-0.24,0.72-0.52,0.85-0.82c0.13-0.3,0.12-0.58-0.03-0.86c-0.15-0.28-0.39-0.43-0.7-0.48c-0.32-0.05-0.7,0.05-1.15,0.3
	c-0.44,0.24-0.72,0.52-0.85,0.81c-0.13,0.29-0.11,0.58,0.05,0.85c0.15,0.28,0.39,0.44,0.7,0.49C30.09,78.11,30.47,78,30.91,77.76z"
	/>
<path d="M31.19,73.56l-4.05,1.67l-0.3-0.72l3.36-1.39l-0.74-1.78l0.69-0.28L31.19,73.56z"/>
<path d="M30,70.52l-4.19,1.38l-0.24-0.73l4.19-1.38L30,70.52z"/>
<path d="M29.5,69.07l-4.29,1.03l-0.18-0.73l2.5-2.22l-2.87,0.68l-0.17-0.7l4.29-1.03l0.18,0.76l-2.44,2.18l2.8-0.67L29.5,69.07z"/>
<path d="M28.25,61.88l0.1,0.84l-0.96,0.45l0.18,1.53l1.03,0.2l0.1,0.82l-4.56-0.97l-0.09-0.82L28.25,61.88z M26.68,63.49l-1.57,0.72
	l1.68,0.32L26.68,63.49z"/>
<path d="M93.62,69.97l-0.47,0.65c-0.44-0.24-0.73-0.52-0.88-0.84c-0.15-0.33-0.18-0.68-0.07-1.08c0.13-0.49,0.44-0.84,0.91-1.05
	c0.47-0.21,1.05-0.22,1.72-0.03c0.7,0.2,1.22,0.51,1.52,0.93c0.3,0.42,0.39,0.9,0.24,1.42c-0.13,0.45-0.39,0.78-0.77,0.98
	c-0.23,0.12-0.53,0.17-0.89,0.16v-0.8c0.23,0.02,0.44-0.02,0.6-0.13c0.17-0.1,0.28-0.26,0.34-0.45c0.08-0.28,0.03-0.53-0.15-0.76
	s-0.52-0.42-1.03-0.56c-0.54-0.15-0.95-0.17-1.22-0.07c-0.28,0.1-0.45,0.29-0.52,0.56c-0.05,0.2-0.03,0.39,0.08,0.57
	C93.13,69.66,93.32,69.82,93.62,69.97z"/>
<path d="M91.53,71.07l4.13,1.56l-0.27,0.72l-4.13-1.56L91.53,71.07z"/>
<path d="M90.5,73.59l4.58,0.67l-0.36,0.76l-3.37-0.53l2.55,2.26l-0.35,0.74l-3.39-3.14L90.5,73.59z"/>
<path d="M89.21,76.08l3.8,2.23l-0.39,0.67l-3.8-2.23L89.21,76.08z"/>
<path d="M87.82,78.3l3.01,2.1l0.65-0.93l0.61,0.43l-1.75,2.5l-0.61-0.43l0.65-0.93l-3.01-2.1L87.82,78.3z"/>
<path d="M84.27,82.73l0.55-0.63l0.98,0.4l1.01-1.16l-0.55-0.89l0.54-0.63l2.36,4.03l-0.54,0.62L84.27,82.73z M86.53,82.8l1.58,0.67
	L87.21,82L86.53,82.8z"/>
<path d="M83.46,83.47l2.51,2.68l0.83-0.78l0.51,0.55L85.08,88l-0.51-0.54l0.83-0.78l-2.51-2.67L83.46,83.47z"/>
<path d="M81.5,85.2l2.76,3.45l-0.6,0.48l-2.76-3.45L81.5,85.2z"/>
<path d="M81.09,87.38l-0.58,0.49c-0.2-0.22-0.39-0.34-0.59-0.37c-0.19-0.03-0.39,0.01-0.58,0.14c-0.21,0.13-0.33,0.29-0.37,0.47
	c-0.03,0.17-0.01,0.32,0.08,0.46c0.06,0.08,0.13,0.15,0.22,0.17c0.08,0.03,0.2,0.03,0.34,0c0.1-0.02,0.3-0.08,0.62-0.18
	c0.41-0.13,0.74-0.17,0.97-0.13c0.34,0.07,0.6,0.25,0.79,0.54c0.13,0.19,0.19,0.39,0.21,0.62s-0.03,0.43-0.15,0.63
	s-0.3,0.38-0.54,0.55c-0.4,0.27-0.77,0.37-1.11,0.3s-0.62-0.27-0.85-0.6L80.17,90c0.15,0.18,0.3,0.27,0.45,0.29
	c0.15,0.02,0.31-0.03,0.49-0.15c0.18-0.13,0.3-0.27,0.35-0.43c0.03-0.1,0.02-0.2-0.05-0.29c-0.06-0.08-0.14-0.14-0.24-0.16
	c-0.13-0.03-0.39,0.03-0.75,0.15s-0.66,0.19-0.87,0.2c-0.21,0.01-0.41-0.03-0.6-0.13c-0.19-0.1-0.36-0.27-0.52-0.5
	c-0.14-0.21-0.22-0.44-0.24-0.69s0.03-0.48,0.16-0.7c0.13-0.22,0.33-0.41,0.6-0.6c0.4-0.27,0.79-0.37,1.14-0.3
	C80.44,86.77,80.78,86.99,81.09,87.38z"/>
<path d="M45.12,31.33l-1.96-3.96l1.11-0.55c0.42-0.21,0.7-0.32,0.85-0.35c0.23-0.03,0.45,0.01,0.69,0.14s0.43,0.36,0.59,0.67
	c0.12,0.24,0.18,0.47,0.18,0.67c0.01,0.21-0.03,0.38-0.1,0.53c-0.07,0.16-0.16,0.28-0.27,0.37c-0.15,0.12-0.38,0.26-0.69,0.42
	l-0.45,0.23l0.74,1.49L45.12,31.33z M44.19,27.7l0.55,1.13l0.38-0.19c0.28-0.13,0.44-0.25,0.52-0.33c0.07-0.08,0.11-0.19,0.12-0.3
	c0.01-0.12-0.02-0.23-0.08-0.34c-0.07-0.14-0.17-0.24-0.28-0.3c-0.12-0.06-0.24-0.07-0.37-0.03c-0.09,0.03-0.26,0.1-0.51,0.23
	L44.19,27.7z"/>
<path d="M48.33,29.77l-1.5-4.15l1.53-0.55c0.39-0.14,0.68-0.21,0.88-0.19c0.2,0.01,0.39,0.09,0.56,0.24c0.18,0.16,0.3,0.35,0.39,0.6
	c0.12,0.31,0.13,0.6,0.04,0.86s-0.28,0.48-0.58,0.64c0.19,0.05,0.37,0.12,0.52,0.21s0.37,0.27,0.65,0.52l0.74,0.65l-0.87,0.32
	l-0.85-0.72c-0.3-0.26-0.5-0.41-0.6-0.48c-0.1-0.06-0.19-0.09-0.28-0.09c-0.08,0-0.22,0.02-0.39,0.08l-0.15,0.05l0.63,1.73
	L48.33,29.77z M48.2,27.12l0.54-0.19c0.35-0.13,0.56-0.23,0.64-0.29c0.08-0.07,0.12-0.15,0.14-0.25s0.01-0.22-0.03-0.34
	c-0.05-0.14-0.13-0.24-0.22-0.31c-0.1-0.07-0.21-0.08-0.34-0.07c-0.07,0.02-0.24,0.07-0.54,0.17l-0.57,0.21L48.2,27.12z"/>
<path d="M55.35,27.73l-0.82,0.19l-0.55-0.9l-1.49,0.34l-0.08,1.05l-0.8,0.18l0.46-4.64l0.8-0.18L55.35,27.73z M53.56,26.35
	l-0.89-1.48l-0.13,1.72L53.56,26.35z"/>
<path d="M55.75,27.69l-0.5-4.38l2.83-0.32l0.08,0.74l-2.06,0.23l0.11,0.98l1.91-0.22l0.08,0.74l-1.91,0.22l0.13,1.19l2.13-0.24
	l0.08,0.74L55.75,27.69z"/>
<path d="M59.09,25.92l0.75-0.1c0.05,0.29,0.14,0.5,0.28,0.63s0.33,0.2,0.57,0.19c0.25,0,0.44-0.07,0.56-0.19
	c0.13-0.13,0.18-0.27,0.18-0.43c0-0.1-0.03-0.19-0.08-0.27c-0.05-0.08-0.15-0.13-0.28-0.19c-0.09-0.03-0.3-0.09-0.62-0.18
	c-0.42-0.11-0.71-0.25-0.88-0.43c-0.23-0.24-0.36-0.53-0.37-0.88c0-0.23,0.05-0.43,0.16-0.63c0.11-0.2,0.27-0.35,0.47-0.46
	c0.21-0.11,0.46-0.16,0.75-0.17c0.49-0.01,0.85,0.11,1.09,0.34c0.25,0.24,0.38,0.56,0.4,0.97l-0.77,0.05
	c-0.03-0.23-0.11-0.39-0.22-0.48c-0.11-0.1-0.28-0.14-0.49-0.14c-0.23,0-0.4,0.06-0.53,0.17c-0.08,0.07-0.12,0.16-0.12,0.27
	c0,0.1,0.04,0.19,0.12,0.27c0.1,0.09,0.34,0.19,0.72,0.28c0.38,0.1,0.66,0.2,0.84,0.31c0.18,0.11,0.33,0.26,0.44,0.44
	c0.1,0.19,0.16,0.43,0.17,0.7c0,0.25-0.05,0.49-0.17,0.72s-0.28,0.39-0.51,0.5s-0.5,0.17-0.83,0.17c-0.49,0.01-0.86-0.12-1.12-0.37
	C59.3,26.78,59.15,26.41,59.09,25.92z"/>
<path d="M62.87,27.38l0.32-4.41l0.77,0.06l-0.32,4.41L62.87,27.38z"/>
<path d="M65.09,23.12l1.4,0.22c0.32,0.05,0.55,0.12,0.7,0.19c0.21,0.11,0.38,0.27,0.51,0.49c0.13,0.22,0.21,0.48,0.25,0.77
	s0.03,0.64-0.03,1.05c-0.06,0.36-0.14,0.67-0.26,0.91c-0.14,0.3-0.32,0.54-0.53,0.71c-0.16,0.13-0.35,0.22-0.6,0.27
	c-0.18,0.03-0.41,0.03-0.7-0.02l-1.44-0.23L65.09,23.12z M65.73,23.98l-0.45,2.89l0.57,0.09c0.22,0.03,0.37,0.04,0.47,0.03
	c0.13-0.02,0.24-0.06,0.34-0.13c0.09-0.08,0.18-0.2,0.27-0.39c0.08-0.19,0.15-0.45,0.2-0.79c0.05-0.34,0.07-0.6,0.04-0.79
	s-0.08-0.34-0.15-0.46c-0.08-0.12-0.18-0.2-0.32-0.26c-0.1-0.04-0.31-0.09-0.62-0.14L65.73,23.98z"/>
<path d="M68.21,28.16l1.04-4.29L70,24.05l-1.04,4.29L68.21,28.16z"/>
<path d="M71.1,24.32l0.74,0.24l-0.75,2.27c-0.12,0.36-0.18,0.6-0.2,0.71c-0.03,0.18,0,0.34,0.08,0.49c0.08,0.14,0.23,0.25,0.44,0.32
	s0.39,0.07,0.52,0.01c0.13-0.07,0.24-0.16,0.31-0.3c0.07-0.13,0.16-0.37,0.27-0.7l0.77-2.32l0.74,0.24l-0.74,2.2
	c-0.17,0.5-0.3,0.85-0.42,1.04c-0.11,0.19-0.24,0.34-0.39,0.45s-0.34,0.17-0.54,0.2c-0.21,0.02-0.45-0.01-0.75-0.11
	c-0.35-0.12-0.6-0.25-0.75-0.4s-0.25-0.32-0.3-0.5c-0.06-0.18-0.08-0.36-0.05-0.53c0.03-0.26,0.13-0.62,0.28-1.08L71.1,24.32z"/>
<path d="M73.34,29.74l1.92-3.98l1.05,0.5l-0.68,3.02l1.93-2.42l1.05,0.51l-1.92,3.97l-0.65-0.31l1.51-3.13l-2.2,2.8l-0.67-0.32
	l0.82-3.46l-1.51,3.13L73.34,29.74z"/>
<path class="st2" d="M39.32,96.66l1.73,0.84c0.34,0.17,0.59,0.31,0.74,0.43s0.27,0.26,0.35,0.43c0.08,0.17,0.13,0.36,0.13,0.57
	c0,0.22-0.05,0.43-0.15,0.64c-0.12,0.23-0.27,0.42-0.48,0.56c-0.2,0.14-0.42,0.22-0.65,0.22c0.22,0.22,0.35,0.47,0.39,0.75
	c0.03,0.28-0.02,0.57-0.15,0.85c-0.11,0.22-0.27,0.43-0.46,0.59c-0.19,0.17-0.4,0.28-0.62,0.33c-0.22,0.05-0.45,0.03-0.7-0.05
	c-0.15-0.05-0.51-0.21-1.06-0.48l-1.47-0.72L39.32,96.66z M38.83,99.88l-0.65,1.32l0.8,0.39c0.32,0.16,0.52,0.24,0.61,0.26
	c0.14,0.03,0.28,0.02,0.41-0.04c0.13-0.07,0.24-0.18,0.33-0.36c0.08-0.15,0.1-0.29,0.09-0.42c-0.02-0.13-0.07-0.26-0.16-0.36
	s-0.34-0.26-0.74-0.45L38.83,99.88z M39.79,97.91l-0.56,1.15l0.57,0.28c0.34,0.17,0.55,0.27,0.64,0.29c0.16,0.05,0.3,0.05,0.44-0.01
	c0.13-0.06,0.23-0.17,0.32-0.32c0.08-0.16,0.1-0.29,0.08-0.43s-0.11-0.24-0.24-0.33c-0.08-0.05-0.33-0.18-0.74-0.38L39.79,97.91z"/>
<path class="st2" d="M45.66,105.32l-0.99-0.36l0.03-1.32l-1.8-0.66l-0.8,1.04l-0.96-0.35l3.65-4.54l0.96,0.35L45.66,105.32z
	 M44.73,102.66l0.08-2.15l-1.32,1.7L44.73,102.66z"/>
<path class="st2" d="M46.52,105.56l1.34-5.35l0.91,0.23l1.01,4.05l0.9-3.58l0.87,0.22l-1.34,5.35l-0.94-0.24l-1-3.96l-0.88,3.49
	L46.52,105.56z"/>
<path class="st2" d="M54.06,105.06l0.13-0.93l2.07,0.29l-0.3,2.18c-0.23,0.19-0.55,0.35-0.96,0.47c-0.4,0.12-0.8,0.15-1.19,0.09
	c-0.49-0.07-0.91-0.25-1.25-0.54s-0.57-0.67-0.69-1.14c-0.13-0.47-0.15-0.97-0.08-1.49c0.08-0.57,0.25-1.06,0.52-1.47
	s0.62-0.71,1.06-0.89c0.33-0.14,0.72-0.17,1.17-0.12c0.59,0.08,1.03,0.29,1.32,0.62s0.45,0.75,0.48,1.27l-0.98,0.07
	c-0.03-0.28-0.13-0.51-0.28-0.68c-0.17-0.18-0.39-0.29-0.66-0.32c-0.42-0.06-0.77,0.05-1.06,0.32c-0.28,0.28-0.48,0.71-0.56,1.31
	c-0.09,0.65-0.03,1.15,0.18,1.51c0.2,0.36,0.51,0.57,0.92,0.63c0.2,0.02,0.41,0.01,0.62-0.05c0.22-0.07,0.4-0.15,0.57-0.26l0.1-0.69
	L54.06,105.06z"/>
<path class="st2" d="M57.11,107.43l0.21-5.47l0.97,0.03l-0.18,4.54l2.41,0.09l-0.03,0.93L57.11,107.43z"/>
<path class="st2" d="M65.82,107.32l-1.06,0.06l-0.49-1.23l-1.91,0.11l-0.33,1.27l-1.02,0.06l1.56-5.62l1.02-0.06L65.82,107.32z
	 M63.91,105.23l-0.77-2.01l-0.54,2.08L63.91,105.23z"/>
<path class="st2" d="M65.8,101.76l1.75-0.28c0.39-0.07,0.7-0.07,0.92-0.04c0.29,0.05,0.55,0.18,0.8,0.38
	c0.23,0.21,0.44,0.48,0.6,0.81c0.16,0.33,0.28,0.75,0.36,1.27c0.07,0.45,0.08,0.84,0.04,1.18c-0.05,0.42-0.17,0.77-0.35,1.04
	c-0.13,0.21-0.34,0.39-0.6,0.54c-0.2,0.11-0.48,0.19-0.83,0.25l-1.8,0.29L65.8,101.76z M66.91,102.53l0.58,3.61l0.71-0.12
	c0.27-0.04,0.45-0.09,0.57-0.14c0.15-0.07,0.27-0.17,0.35-0.29s0.14-0.31,0.17-0.57s0-0.59-0.07-1.01
	c-0.07-0.43-0.15-0.74-0.25-0.96s-0.22-0.38-0.35-0.48c-0.13-0.11-0.3-0.17-0.49-0.18c-0.14-0.02-0.4,0.01-0.8,0.07L66.91,102.53z"
	/>
<path class="st2" d="M71.78,106.31l-1.42-5.33l3.44-0.91l0.23,0.9l-2.51,0.67l0.32,1.18l2.33-0.62l0.23,0.9l-2.33,0.62l0.39,1.45
	l2.59-0.68l0.23,0.9L71.78,106.31z"/>
<path class="st2" d="M75.55,103.42l0.85-0.43c0.18,0.33,0.39,0.53,0.6,0.63c0.22,0.1,0.47,0.1,0.75-0.01
	c0.29-0.11,0.49-0.26,0.59-0.46c0.09-0.2,0.11-0.39,0.03-0.58c-0.05-0.13-0.12-0.22-0.21-0.28c-0.09-0.07-0.23-0.1-0.41-0.1
	c-0.13,0-0.39,0.02-0.81,0.04c-0.54,0.04-0.94,0-1.22-0.13c-0.39-0.18-0.65-0.47-0.8-0.88c-0.1-0.27-0.13-0.53-0.08-0.81
	c0.04-0.27,0.17-0.52,0.37-0.73c0.2-0.21,0.47-0.37,0.82-0.51c0.56-0.21,1.04-0.22,1.43-0.05s0.69,0.5,0.87,0.97l-0.89,0.38
	c-0.13-0.25-0.29-0.41-0.46-0.48s-0.39-0.06-0.64,0.04c-0.27,0.1-0.44,0.24-0.55,0.42c-0.07,0.12-0.08,0.24-0.03,0.38
	c0.05,0.13,0.13,0.21,0.25,0.27c0.15,0.07,0.48,0.08,0.96,0.03c0.49-0.04,0.85-0.04,1.12,0.01c0.26,0.05,0.49,0.17,0.7,0.34
	c0.2,0.18,0.37,0.43,0.49,0.76c0.11,0.29,0.14,0.6,0.09,0.91c-0.05,0.31-0.18,0.58-0.39,0.81c-0.22,0.22-0.52,0.41-0.91,0.55
	c-0.57,0.21-1.06,0.22-1.48,0.03C76.17,104.34,75.82,103.97,75.55,103.42z"/>
<path class="st2" d="M80.89,103.28l-2.43-4.95l0.87-0.43l0.96,1.95l1.7-0.84l-0.96-1.95l0.87-0.43l2.43,4.95l-0.87,0.43l-1.06-2.17
	l-1.7,0.84l1.06,2.17L80.89,103.28z"/>
<path d="M55.31,97.6l-0.91-0.13l0.54-3.95c-0.39,0.31-0.81,0.53-1.29,0.63l0.13-0.95c0.25-0.06,0.54-0.19,0.85-0.4
	c0.31-0.21,0.54-0.47,0.7-0.8l0.74,0.1L55.31,97.6z"/>
<path d="M57.45,96.55l0.9-0.07c0.01,0.21,0.06,0.37,0.15,0.47s0.2,0.16,0.35,0.17c0.19,0.01,0.35-0.08,0.5-0.28
	c0.14-0.19,0.25-0.61,0.32-1.23c-0.24,0.3-0.54,0.43-0.89,0.42c-0.38-0.02-0.7-0.2-0.96-0.55c-0.26-0.35-0.37-0.79-0.35-1.32
	c0.03-0.56,0.19-1,0.5-1.33s0.68-0.48,1.13-0.46c0.49,0.03,0.87,0.26,1.16,0.71c0.29,0.44,0.41,1.17,0.37,2.16
	c-0.05,1.01-0.25,1.72-0.6,2.16c-0.34,0.43-0.78,0.63-1.3,0.61c-0.38-0.02-0.67-0.15-0.89-0.39C57.63,97.36,57.49,97.01,57.45,96.55
	z M59.65,94.34c0.02-0.34-0.04-0.61-0.17-0.81c-0.13-0.19-0.28-0.29-0.46-0.31c-0.17-0.01-0.32,0.07-0.44,0.21
	c-0.12,0.15-0.18,0.4-0.2,0.75c-0.02,0.36,0.03,0.62,0.14,0.79c0.12,0.18,0.26,0.27,0.44,0.28s0.33-0.07,0.46-0.22
	C59.56,94.88,59.63,94.66,59.65,94.34z"/>
<path d="M61.77,96.71l0.89-0.15c0.03,0.21,0.09,0.36,0.18,0.46c0.1,0.1,0.22,0.14,0.37,0.13c0.18-0.01,0.35-0.12,0.47-0.32
	c0.13-0.21,0.19-0.63,0.21-1.26c-0.22,0.32-0.5,0.48-0.85,0.5c-0.38,0.02-0.71-0.14-1-0.47c-0.28-0.33-0.44-0.75-0.46-1.29
	c-0.02-0.56,0.1-1.02,0.39-1.37c0.28-0.35,0.64-0.54,1.08-0.56c0.49-0.02,0.9,0.18,1.22,0.6c0.33,0.43,0.51,1.13,0.55,2.12
	c0.04,1.01-0.1,1.74-0.4,2.2c-0.31,0.46-0.72,0.7-1.24,0.72c-0.38,0.02-0.69-0.08-0.92-0.31C62.01,97.5,61.85,97.17,61.77,96.71z
	 M63.75,94.32c-0.02-0.34-0.09-0.6-0.23-0.78s-0.3-0.28-0.49-0.27c-0.17,0.01-0.31,0.09-0.42,0.25c-0.11,0.16-0.15,0.41-0.13,0.77
	c0.02,0.36,0.08,0.62,0.22,0.78c0.13,0.16,0.28,0.24,0.47,0.23c0.18-0.01,0.32-0.09,0.44-0.26C63.72,94.87,63.77,94.63,63.75,94.32z
	"/>
<path d="M68,97.53l-0.14-1.1l-1.94,0.25l-0.12-0.92l1.63-3.73l0.77-0.1l0.44,3.47l0.59-0.07l0.12,0.92l-0.59,0.07l0.14,1.1L68,97.53
	z M67.74,95.51l-0.23-1.87l-0.85,2.01L67.74,95.51z"/>
<line class="st3" x1="75.09" y1="41.27" x2="67.89" y2="51.28"/>
<line class="st3" x1="72.65" y1="40.22" x2="70.34" y2="52.33"/>
<polyline class="st3" points="69.98,40.3 72.44,49.97 72.5,50.16 "/>
<line class="st3" x1="67.59" y1="41.5" x2="75.4" y2="51.05"/>
<line class="st3" x1="65.94" y1="43.6" x2="77.05" y2="48.96"/>
<line class="st3" x1="65.33" y1="46.19" x2="77.66" y2="46.36"/>
<line class="st3" x1="65.87" y1="48.81" x2="77.12" y2="43.74"/>
<ellipse class="st2" cx="71.49" cy="46.27" rx="4.39" ry="4.39"/>
<path class="st4" d="M71.46,46.79c0.35-0.03,0.82,0.97,1.03,1.99c0.39-0.56,0.62-1.44,0.36-2.05c-0.41-0.94-1.31-1.12-0.38-3.56
	c0,0-1.41,0.58-1.77,2.66c-0.23,1.37-0.02,2.41,0.37,2.98C70.95,47.73,71.23,46.82,71.46,46.79z"/>
<path d="M71.75,49.3c0.25,0.02,0.52-0.2,0.74-0.52c-0.22-1.02-0.69-2.02-1.03-1.99c-0.23,0.02-0.5,0.93-0.39,2.03
	C71.27,49.12,71.52,49.28,71.75,49.3z"/>
<path class="st5" d="M71.55,56.67c1.15-0.03,2.02-0.24,1.8-2.05c-0.22-1.8-0.27-2.21-0.39-3.08c-0.11-0.88-0.33-1.39-1.37-1.45
	c-0.93-0.05-1.39,0.28-1.39,1.67s-0.41,3.03-0.22,3.77C70.18,56.26,70.32,56.69,71.55,56.67z"/>
<path class="st6" d="M56.26,53.35l-2.41-8.26L41.02,45.2l-1.68,8h6.85c0,0,0.67,0.82,1.68,0.82s1.37-0.89,1.37-0.89L56.26,53.35z"/>
<linearGradient id="SVGID_1_" gradientUnits="userSpaceOnUse" x1="39.34" y1="2341.5549" x2="56.26" y2="2341.5549" gradientTransform="matrix(1 0 0 1 0 -2292)">
	<stop  offset="0" style="stop-color:#000000"/>
	<stop  offset="1" style="stop-color:#FFFFFF"/>
</linearGradient>
<path class="st7" d="M56.26,53.35l-2.41-8.26L41.02,45.2l-1.68,8h6.85c0,0,0.67,0.82,1.68,0.82s1.37-0.89,1.37-0.89L56.26,53.35z"/>
<path class="st6" d="M53.38,46.06c0,0-1.26-1.48-3.1-1.48s-2.6,1.2-2.6,1.2s-0.75-1.2-2.6-1.2c-1.84,0-3.1,1.48-3.1,1.48l-1.73,6.45
	c0,0,5.47-3.1,7.43,0.08c1.95-3.18,7.43-0.08,7.43-0.08L53.38,46.06z"/>
<linearGradient id="SVGID_2_" gradientUnits="userSpaceOnUse" x1="47.68" y1="2340.5901" x2="55.11" y2="2340.5901" gradientTransform="matrix(1 0 0 1 0 -2292)">
	<stop  offset="0" style="stop-color:#FFFFFF"/>
	<stop  offset="0.0256" style="stop-color:#F6F6F6"/>
	<stop  offset="0.2396" style="stop-color:#ACACAC"/>
	<stop  offset="0.4406" style="stop-color:#6F6F6F"/>
	<stop  offset="0.6227" style="stop-color:#3F3F3F"/>
	<stop  offset="0.7825" style="stop-color:#1D1D1D"/>
	<stop  offset="0.9137" style="stop-color:#080808"/>
	<stop  offset="1" style="stop-color:#000000"/>
</linearGradient>
<path class="st8" d="M47.68,52.6v-6.82c0,0,0.75-1.2,2.6-1.2c1.84,0,3.1,1.48,3.1,1.48l1.73,6.45
	C55.11,52.52,49.63,49.42,47.68,52.6z"/>
<linearGradient id="SVGID_3_" gradientUnits="userSpaceOnUse" x1="-1314.6801" y1="2340.5901" x2="-1307.25" y2="2340.5901" gradientTransform="matrix(-1 0 0 1 -1267 -2292)">
	<stop  offset="0" style="stop-color:#696969"/>
	<stop  offset="0.0891" style="stop-color:#888888"/>
	<stop  offset="0.2138" style="stop-color:#ACACAC"/>
	<stop  offset="0.345" style="stop-color:#CACACA"/>
	<stop  offset="0.4825" style="stop-color:#E2E2E2"/>
	<stop  offset="0.6293" style="stop-color:#F2F2F2"/>
	<stop  offset="0.7916" style="stop-color:#FCFCFC"/>
	<stop  offset="1" style="stop-color:#FFFFFF"/>
</linearGradient>
<path class="st9" d="M47.68,52.6v-6.82c0,0-0.75-1.2-2.6-1.2c-1.84,0-3.1,1.48-3.1,1.48l-1.73,6.45
	C40.25,52.52,45.73,49.42,47.68,52.6z"/>
<linearGradient id="SVGID_4_" gradientUnits="userSpaceOnUse" x1="47.68" y1="2340.5901" x2="55.11" y2="2340.5901" gradientTransform="matrix(1 0 0 1 0 -2292)">
	<stop  offset="0" style="stop-color:#FFFFFF"/>
	<stop  offset="0.0256" style="stop-color:#F6F6F6"/>
	<stop  offset="0.2396" style="stop-color:#ACACAC"/>
	<stop  offset="0.4406" style="stop-color:#6F6F6F"/>
	<stop  offset="0.6227" style="stop-color:#3F3F3F"/>
	<stop  offset="0.7825" style="stop-color:#1D1D1D"/>
	<stop  offset="0.9137" style="stop-color:#080808"/>
	<stop  offset="1" style="stop-color:#000000"/>
</linearGradient>
<path class="st10" d="M47.68,52.6v-6.82c0,0,0.75-1.2,2.6-1.2c1.84,0,3.1,1.48,3.1,1.48l1.73,6.45
	C55.11,52.52,49.63,49.42,47.68,52.6z"/>
<linearGradient id="SVGID_5_" gradientUnits="userSpaceOnUse" x1="-1314.6801" y1="2340.5901" x2="-1307.25" y2="2340.5901" gradientTransform="matrix(-1 0 0 1 -1267 -2292)">
	<stop  offset="0" style="stop-color:#696969"/>
	<stop  offset="0.0891" style="stop-color:#888888"/>
	<stop  offset="0.2138" style="stop-color:#ACACAC"/>
	<stop  offset="0.345" style="stop-color:#CACACA"/>
	<stop  offset="0.4825" style="stop-color:#E2E2E2"/>
	<stop  offset="0.6293" style="stop-color:#F2F2F2"/>
	<stop  offset="0.7916" style="stop-color:#FCFCFC"/>
	<stop  offset="1" style="stop-color:#FFFFFF"/>
</linearGradient>
<path class="st11" d="M47.68,52.6v-6.82c0,0-0.75-1.2-2.6-1.2c-1.84,0-3.1,1.48-3.1,1.48l-1.73,6.45
	C40.25,52.52,45.73,49.42,47.68,52.6z"/>
<line class="st12" x1="47.68" y1="45.6" x2="47.68" y2="52.72"/>
<path d="M52.05,64.19h10.19l0.23,8.23c0,0-1.19,1.32-5.11,1.32s-5.34-1.28-5.34-1.28L52.05,64.19z"/>
<polygon class="st2" points="53.6,71.62 53.48,65.72 61.07,65.72 61.07,71.62 "/>
<polygon class="st13" points="61.8,65.34 64.02,65.34 64.39,71.65 62.3,72.43 61.95,71.96 "/>
<polygon class="st13" points="52.62,65.34 50.41,65.34 50.04,71.65 52.14,72.43 52.47,71.96 "/>
<path class="st12" d="M53.08,78.02l0.12-2.07l11.17-1.23l0.04,2.08C64.4,76.8,54.38,77.83,53.08,78.02z"/>
<polygon class="st12" points="53.08,78.02 49.97,75.42 50.04,73.34 53.19,75.95 "/>
<polyline class="st12" points="50.04,73.34 61.87,72.72 64.37,74.72 "/>
<polygon class="st12" points="52.32,78.87 54.24,81.28 68.61,78.94 64.63,76.61 "/>
<path class="st12" d="M66.36,77.59c0,0,0.22-1.26,0.79-1.19c0.58,0.07,0.69,0.1,1.38,0.59c0.69,0.49,0.6,0.98,0.41,1.23
	c-0.18,0.25-0.65,0.54-0.65,0.54L66.36,77.59z"/>
<line class="st12" x1="53.5" y1="78.63" x2="55.39" y2="81.09"/>
<line class="st12" x1="54.97" y1="78.38" x2="56.82" y2="80.83"/>
<line class="st12" x1="56.58" y1="78.09" x2="58.37" y2="80.61"/>
<line class="st12" x1="58.06" y1="77.87" x2="59.75" y2="80.35"/>
<line class="st12" x1="59.51" y1="77.57" x2="61.27" y2="80.13"/>
<line class="st12" x1="60.75" y1="77.36" x2="62.43" y2="79.96"/>
<line class="st12" x1="61.97" y1="77.11" x2="63.65" y2="79.75"/>
<line class="st12" x1="63.39" y1="76.88" x2="65.21" y2="79.49"/>
<line class="st12" x1="64.21" y1="76.71" x2="66.97" y2="79.22"/>
</svg>
