<?xml version="1.0" encoding="UTF-8" standalone="no"?>
<svg
   xmlns:dc="http://purl.org/dc/elements/1.1/"
   xmlns:cc="http://creativecommons.org/ns#"
   xmlns:rdf="http://www.w3.org/1999/02/22-rdf-syntax-ns#"
   xmlns:svg="http://www.w3.org/2000/svg"
   xmlns="http://www.w3.org/2000/svg"
   height="120"
   width="120"
   id="svg913"
   version="1.1"
   viewBox="0 0 120 120">
  <metadata
     id="metadata917">
    <rdf:RDF>
      <cc:Work
         rdf:about="">
        <dc:format>image/svg+xml</dc:format>
        <dc:type
           rdf:resource="http://purl.org/dc/dcmitype/StillImage" />
        <dc:title>logo</dc:title>
      </cc:Work>
    </rdf:RDF>
  </metadata>
  <defs
     id="defs835">
    <style
       id="style833">.a{fill:#231f20;}.a,.b,.c{fill-rule:evenodd;}.b{fill:#a7a9ac;}.c{fill:#2a5caa;}</style>
  </defs>
  <title
     id="title837">logo</title>
  <path
     style="stroke-width:0.258301"
     id="path839"
     d="m 13.003215,103.87045 v 0.13173 h -2.097402 v -0.13173 h 0.173062 a 0.51660133,0.51660133 0 0 0 0.441694,-0.17565 1.1003609,1.1003609 0 0 0 0.08524,-0.55535 V 99.9701 a 1.6298773,1.6298773 0 0 0 -0.04649,-0.49077 0.32545885,0.32545885 0 0 0 -0.149815,-0.15498 0.68191377,0.68191377 0 0 0 -0.333208,-0.0852 h -0.173065 v -0.13173 h 2.0974 v 0.13173 h -0.175644 a 0.51660133,0.51660133 0 0 0 -0.436528,0.17565 1.0590328,1.0590328 0 0 0 -0.0904,0.55535 v 3.16676 a 1.6298773,1.6298773 0 0 0 0.04649,0.49077 0.31512681,0.31512681 0 0 0 0.152398,0.15498 0.65866672,0.65866672 0 0 0 0.328042,0.0853 z"
     class="a" />
  <path
     style="stroke-width:0.258301"
     id="path841"
     d="m 16.335293,101.29002 q 0.578594,-0.69224 1.102944,-0.69224 a 0.79298305,0.79298305 0 0 1 0.464941,0.13431 0.90405234,0.90405234 0 0 1 0.309962,0.44428 2.0664055,2.0664055 0 0 1 0.08007,0.66383 v 1.41291 a 1.1907662,1.1907662 0 0 0 0.05166,0.42361 0.29446276,0.29446276 0 0 0 0.126567,0.13948 0.72840788,0.72840788 0 0 0 0.325459,0.0517 v 0.13173 h -1.63246 v -0.13173 h 0.06975 a 0.54759742,0.54759742 0 0 0 0.320293,-0.0697 0.36936995,0.36936995 0 0 0 0.126567,-0.20664 2.0379924,2.0379924 0 0 0 0.01549,-0.33837 v -1.36124 a 1.3974067,1.3974067 0 0 0 -0.116229,-0.65867 0.41328107,0.41328107 0 0 0 -0.392617,-0.20406 1.1778509,1.1778509 0 0 0 -0.849809,0.47011 v 1.75386 a 1.2501752,1.2501752 0 0 0 0.03874,0.41328 0.3461229,0.3461229 0 0 0 0.139482,0.1524 0.87305627,0.87305627 0 0 0 0.359038,0.0491 v 0.13174 h -1.64021 v -0.13173 h 0.07233 a 0.390034,0.390034 0 0 0 0.340957,-0.12657 0.9247164,0.9247164 0 0 0 0.08782,-0.48561 v -1.22691 a 5.2357545,5.2357545 0 0 0 -0.02583,-0.72324 0.31254382,0.31254382 0 0 0 -0.08266,-0.17823 0.22730459,0.22730459 0 0 0 -0.149813,-0.0465 0.69741181,0.69741181 0 0 0 -0.24022,0.0542 l -0.05424,-0.13173 0.997042,-0.40553 h 0.15498 z"
     class="a" />
  <path
     style="stroke-width:0.258301"
     id="path843"
     d="m 23.151849,100.59778 v 1.1236 h -0.129152 a 1.4516498,1.4516498 0 0 0 -0.351288,-0.71807 0.77490201,0.77490201 0 0 0 -0.545014,-0.19114 0.60184055,0.60184055 0 0 0 -0.405533,0.13173 0.38745099,0.38745099 0 0 0 -0.15498,0.29446 0.54501442,0.54501442 0 0 0 0.113652,0.34612 1.2915033,1.2915033 0 0 0 0.452026,0.31513 l 0.516602,0.2583 q 0.730991,0.35904 0.730991,0.9428 a 0.88597131,0.88597131 0 0 1 -0.340956,0.72582 1.183017,1.183017 0 0 1 -0.761988,0.27639 2.683744,2.683744 0 0 1 -0.692246,-0.10591 0.72582489,0.72582489 0 0 0 -0.196309,-0.0336 0.14206536,0.14206536 0 0 0 -0.12915,0.0878 h -0.118818 v -1.18044 h 0.118818 a 1.3457465,1.3457465 0 0 0 0.387451,0.77491 0.9298824,0.9298824 0 0 0 0.638003,0.2583 0.57084449,0.57084449 0 0 0 0.405533,-0.14465 0.46494121,0.46494121 0 0 0 0.157563,-0.35129 0.55792945,0.55792945 0 0 0 -0.175645,-0.41845 3.0324498,3.0324498 0 0 0 -0.699994,-0.42619 2.0431583,2.0431583 0 0 1 -0.684498,-0.46753 0.81881312,0.81881312 0 0 1 -0.160146,-0.5166 0.92213339,0.92213339 0 0 1 0.278964,-0.68191 0.98154256,0.98154256 0 0 1 0.72066,-0.2738 1.6660394,1.6660394 0 0 1 0.472691,0.0852 1.0771138,1.0771138 0 0 0 0.242803,0.0542 0.14464838,0.14464838 0 0 0 0.0904,-0.0258 0.35903794,0.35903794 0 0 0 0.0749,-0.11365 z"
     class="a" />
  <path
     style="stroke-width:0.258301"
     id="path845"
     d="m 25.605704,101.01881 1.015122,-0.40553 h 0.1369 v 0.7749 a 1.8700968,1.8700968 0 0 1 0.516601,-0.60701 0.95829549,0.95829549 0 0 1 0.545014,-0.17306 1.0461177,1.0461177 0 0 1 0.83173,0.39003 1.8391008,1.8391008 0 0 1 0.408113,1.23985 2.0664055,2.0664055 0 0 1 -0.490771,1.4129 1.2915033,1.2915033 0 0 1 -1.017705,0.45719 1.2915033,1.2915033 0 0 1 -0.462357,-0.0749 1.0745308,1.0745308 0 0 1 -0.32546,-0.21439 v 1.00738 a 1.3276655,1.3276655 0 0 0 0.04133,0.43394 0.31254382,0.31254382 0 0 0 0.144649,0.14723 0.89113731,0.89113731 0 0 0 0.374535,0.0542 v 0.13173 H 25.58762 v -0.13173 h 0.09041 a 0.65608369,0.65608369 0 0 0 0.340957,-0.0749 0.25830068,0.25830068 0 0 0 0.105906,-0.12916 1.4929779,1.4929779 0 0 0 0.03874,-0.44685 v -3.14869 a 1.7099504,1.7099504 0 0 0 -0.02841,-0.40295 0.25830068,0.25830068 0 0 0 -0.093,-0.12915 0.29962878,0.29962878 0 0 0 -0.170478,-0.0439 0.66383271,0.66383271 0 0 0 -0.219556,0.0516 l -0.04391,-0.11882 z m 1.152022,0.57342 v 1.23468 a 2.7173231,2.7173231 0 0 0 0.03098,0.5166 0.68191377,0.68191377 0 0 0 0.258301,0.36937 0.77490201,0.77490201 0 0 0 0.495936,0.15757 0.70774384,0.70774384 0 0 0 0.583761,-0.28155 1.6298773,1.6298773 0 0 0 0.291879,-1.03321 1.8081047,1.8081047 0 0 0 -0.333208,-1.16751 0.68966278,0.68966278 0 0 0 -0.550179,-0.28155 0.74648894,0.74648894 0 0 0 -0.34354,0.0853 2.0302432,2.0302432 0 0 0 -0.428779,0.40036 z"
     class="a" />
  <path
     style="stroke-width:0.258301"
     id="path847"
     d="m 32.34477,98.86974 a 0.36162094,0.36162094 0 0 1 0.364204,0.36421 0.35903794,0.35903794 0 0 1 -0.105907,0.2583 0.3487059,0.3487059 0 0 1 -0.258301,0.10849 0.36678694,0.36678694 0 0 1 -0.258301,-0.62509 0.36162094,0.36162094 0 0 1 0.258301,-0.10591 z m 0.297045,1.72804 v 2.65791 a 1.1752681,1.1752681 0 0 0 0.04649,0.4107 0.3073778,0.3073778 0 0 0 0.131733,0.1524 0.72582489,0.72582489 0 0 0 0.322876,0.0516 v 0.13173 h -1.596299 v -0.13173 a 0.74390592,0.74390592 0 0 0 0.322878,-0.0465 0.32287584,0.32287584 0 0 0 0.131731,-0.15498 1.167519,1.167519 0 0 0 0.04908,-0.41328 v -1.27859 a 4.571922,4.571922 0 0 0 -0.03099,-0.69225 0.27379871,0.27379871 0 0 0 -0.08008,-0.15756 0.21697256,0.21697256 0 0 0 -0.147231,-0.0465 0.72582489,0.72582489 0 0 0 -0.245388,0.0542 l -0.05165,-0.13173 0.994458,-0.40554 z"
     class="a" />
  <path
     style="stroke-width:0.258301"
     id="path849"
     d="m 36.480163,100.59778 v 0.74648 q 0.410698,-0.74648 0.844643,-0.74648 a 0.45460917,0.45460917 0 0 1 0.325459,0.1214 0.37195297,0.37195297 0 0 1 0.12915,0.27896 0.33579087,0.33579087 0 0 1 -0.093,0.24022 0.29704578,0.29704578 0 0 1 -0.222139,0.0982 0.46752421,0.46752421 0 0 1 -0.281548,-0.12657 0.46752421,0.46752421 0 0 0 -0.232471,-0.12656 0.21438955,0.21438955 0 0 0 -0.139481,0.0723 1.7409464,1.7409464 0 0 0 -0.333208,0.48818 v 1.5808 a 0.99187453,0.99187453 0 0 0 0.06975,0.41845 0.36162094,0.36162094 0 0 0 0.165313,0.16015 0.7335739,0.7335739 0 0 0 0.340956,0.0646 v 0.13173 h -1.691865 v -0.13173 a 0.69482881,0.69482881 0 0 0 0.371955,-0.0775 0.30479478,0.30479478 0 0 0 0.126566,-0.1834 1.8081047,1.8081047 0 0 0 0.01808,-0.3487 v -1.2786 a 5.2486696,5.2486696 0 0 0 -0.02324,-0.68449 0.2712157,0.2712157 0 0 0 -0.08524,-0.16015 0.25830068,0.25830068 0 0 0 -0.157566,-0.0516 0.71807586,0.71807586 0 0 0 -0.258299,0.0542 l -0.03616,-0.13173 0.999624,-0.40553 z"
     class="a" />
  <path
     style="stroke-width:0.258301"
     id="path851"
     d="m 40.767954,98.86974 a 0.36162094,0.36162094 0 0 1 0.364205,0.36421 0.35903794,0.35903794 0 0 1 -0.105907,0.2583 0.3487059,0.3487059 0 0 1 -0.2583,0.10849 0.36936995,0.36936995 0 0 1 -0.366786,-0.36679 0.35645491,0.35645491 0 0 1 0.105906,-0.2583 0.36162094,0.36162094 0 0 1 0.258301,-0.10591 z m 0.297046,1.72804 v 2.65791 a 1.1752681,1.1752681 0 0 0 0.04649,0.4107 0.3073778,0.3073778 0 0 0 0.131734,0.1524 0.72582489,0.72582489 0 0 0 0.322877,0.0516 v 0.13173 h -1.601464 v -0.13173 a 0.74390592,0.74390592 0 0 0 0.322876,-0.0465 0.32287584,0.32287584 0 0 0 0.131733,-0.15498 1.167519,1.167519 0 0 0 0.04907,-0.41328 v -1.27859 a 4.5745048,4.5745048 0 0 0 -0.03098,-0.69225 0.27379871,0.27379871 0 0 0 -0.08008,-0.15756 0.21697256,0.21697256 0 0 0 -0.147231,-0.0465 0.72582489,0.72582489 0 0 0 -0.245386,0.0542 l -0.05166,-0.13173 0.994457,-0.40554 z"
     class="a" />
  <path
     style="stroke-width:0.258301"
     id="path853"
     d="m 44.898181,101.29002 q 0.578594,-0.69224 1.102946,-0.69224 a 0.79298305,0.79298305 0 0 1 0.46494,0.13431 0.90405234,0.90405234 0 0 1 0.30996,0.44428 2.0664055,2.0664055 0 0 1 0.08008,0.66383 v 1.41291 a 1.1907662,1.1907662 0 0 0 0.05165,0.42361 0.29446276,0.29446276 0 0 0 0.126569,0.13948 0.72840788,0.72840788 0 0 0 0.325458,0.0517 v 0.13173 h -1.632457 v -0.13173 h 0.06975 a 0.54759742,0.54759742 0 0 0 0.320293,-0.0697 0.36936995,0.36936995 0 0 0 0.126567,-0.20664 2.0379924,2.0379924 0 0 0 0.0155,-0.33837 v -1.36125 a 1.3974067,1.3974067 0 0 0 -0.116234,-0.65866 0.41328107,0.41328107 0 0 0 -0.392618,-0.20406 1.1778509,1.1778509 0 0 0 -0.84981,0.47011 v 1.75386 a 1.2501752,1.2501752 0 0 0 0.03874,0.41328 0.3461229,0.3461229 0 0 0 0.139482,0.1524 0.87305627,0.87305627 0 0 0 0.359039,0.0491 v 0.13173 h -1.640209 v -0.13173 h 0.07233 a 0.390034,0.390034 0 0 0 0.340957,-0.12657 0.9247164,0.9247164 0 0 0 0.08782,-0.48561 v -1.22692 a 5.2357545,5.2357545 0 0 0 -0.02583,-0.72324 0.31254382,0.31254382 0 0 0 -0.08266,-0.17823 0.22730459,0.22730459 0 0 0 -0.149815,-0.0465 0.69741181,0.69741181 0 0 0 -0.240219,0.0542 l -0.05424,-0.13173 0.997039,-0.40554 h 0.154981 z"
     class="a" />
  <path
     style="stroke-width:0.258301"
     id="path855"
     d="m 50.461978,102.79075 a 1.0900288,1.0900288 0 0 1 -0.46494,-0.41328 1.1029438,1.1029438 0 0 1 -0.160147,-0.58376 1.1236078,1.1236078 0 0 1 0.369369,-0.84206 1.3070013,1.3070013 0 0 1 0.942798,-0.35387 1.4413176,1.4413176 0 0 1 0.81623,0.22988 H 52.6627 a 0.90921836,0.90921836 0 0 1 0.180809,0 0.05682616,0.05682616 0 0 1 0.03616,0.031 0.21955558,0.21955558 0 0 1 0.02324,0.11624 0.32029284,0.32029284 0 0 1 -0.01809,0.13173 0.0749072,0.0749072 0 0 1 -0.03616,0.0284 0.77490201,0.77490201 0 0 1 -0.180811,0 h -0.428771 a 1.1132758,1.1132758 0 0 1 -0.149814,1.45165 1.3379974,1.3379974 0 0 1 -0.94538,0.32804 1.8442667,1.8442667 0 0 1 -0.498521,-0.0723 0.9996236,0.9996236 0 0 0 -0.214389,0.24022 0.38745099,0.38745099 0 0 0 -0.05425,0.17565 0.16531242,0.16531242 0 0 0 0.05941,0.11882 0.43652813,0.43652813 0 0 0 0.23247,0.0827 c 0.06716,0 0.235055,0.0207 0.516602,0.0258 a 9.3633992,9.3633992 0 0 1 0.963461,0.0542 0.90146933,0.90146933 0 0 1 0.534683,0.2583 0.67933076,0.67933076 0 0 1 0.201475,0.49852 1.0332026,1.0332026 0 0 1 -0.382284,0.7749 2.0664055,2.0664055 0 0 1 -1.467149,0.5166 2.0948183,2.0948183 0 0 1 -1.175269,-0.31254 c -0.18081,-0.12141 -0.2583,-0.25831 -0.2583,-0.37454 a 0.42361309,0.42361309 0 0 1 0.03874,-0.17306 2.0483243,2.0483243 0 0 1 0.258301,-0.37196 c 0.01808,-0.0232 0.139482,-0.15239 0.366787,-0.39003 a 1.13394,1.13394 0 0 1 -0.258301,-0.20147 0.29962878,0.29962878 0 0 1 -0.07749,-0.20148 0.60958959,0.60958959 0 0 1 0.103324,-0.29704 2.3686171,2.3686171 0 0 1 0.470106,-0.48303 z m 0.62767,-2.01475 a 0.56051245,0.56051245 0 0 0 -0.444277,0.21181 0.99187453,0.99187453 0 0 0 -0.18081,0.65092 1.3922407,1.3922407 0 0 0 0.245385,0.8808 0.5760105,0.5760105 0 0 0 0.472691,0.23764 0.56567846,0.56567846 0 0 0 0.449443,-0.20406 0.97637648,0.97637648 0 0 0 0.175644,-0.64317 1.4387347,1.4387347 0 0 0 -0.258301,-0.89372 0.57084449,0.57084449 0 0 0 -0.470106,-0.23763 z m -0.661249,3.22618 a 1.6867034,1.6867034 0 0 0 -0.258301,0.34096 0.61475559,0.61475559 0 0 0 -0.08525,0.29188 0.36936995,0.36936995 0 0 0 0.209224,0.30221 1.9811661,1.9811661 0 0 0 1.033203,0.22214 1.6040471,1.6040471 0 0 0 0.955713,-0.22989 0.62767062,0.62767062 0 0 0 0.307378,-0.48819 0.27379871,0.27379871 0 0 0 -0.183394,-0.2583 2.4099453,2.4099453 0 0 0 -0.741323,-0.093 12.426846,12.426846 0 0 1 -1.23726,-0.0878 z"
     class="a" />
  <path
     style="stroke-width:0.258301"
     id="path857"
     d="m 60.840499,99.37343 v 1.93467 h 1.077114 a 0.87822227,0.87822227 0 0 0 0.557929,-0.12657 0.81106411,0.81106411 0 0 0 0.209224,-0.58375 H 62.8165 v 1.70478 h -0.131734 a 1.8907609,1.8907609 0 0 0 -0.100731,-0.45977 0.45460917,0.45460917 0 0 0 -0.211807,-0.1989 1.0848629,1.0848629 0 0 0 -0.454609,-0.0723 h -1.077112 v 1.61438 a 1.5498039,1.5498039 0 0 0 0.02841,0.3952 0.22730459,0.22730459 0 0 0 0.100731,0.11107 0.60700657,0.60700657 0 0 0 0.2738,0.0413 h 0.829144 a 2.2627139,2.2627139 0 0 0 0.601841,-0.0568 0.88855429,0.88855429 0 0 0 0.359039,-0.2273 2.7818982,2.7818982 0 0 0 0.457192,-0.67417 h 0.147232 l -0.421031,1.22693 h -3.773774 v -0.13173 h 0.173062 a 0.68707978,0.68707978 0 0 0 0.328043,-0.0827 0.29962878,0.29962878 0 0 0 0.157564,-0.17306 1.6763713,1.6763713 0 0 0 0.04133,-0.47269 v -3.18485 a 1.0332026,1.0332026 0 0 0 -0.093,-0.57343 0.56309546,0.56309546 0 0 0 -0.433945,-0.14465 h -0.173061 v -0.13173 h 3.773773 l 0.05165,1.07712 h -0.139483 a 1.7151165,1.7151165 0 0 0 -0.167895,-0.53469 0.58634253,0.58634253 0 0 0 -0.271216,-0.22214 1.6427922,1.6427922 0 0 0 -0.516601,-0.0543 z"
     class="a" />
  <path
     style="stroke-width:0.258301"
     id="path859"
     d="m 65.861864,100.70368 h 1.549803 v 0.13173 a 0.31770982,0.31770982 0 0 0 -0.206639,0.0517 0.17047845,0.17047845 0 0 0 -0.05941,0.13432 0.56309546,0.56309546 0 0 0 0.131733,0.2583 l 0.121402,0.18081 0.237637,0.37712 0.271216,-0.37712 a 1.2915033,1.2915033 0 0 0 0.2583,-0.44944 0.17306145,0.17306145 0 0 0 -0.062,-0.13174 0.29704578,0.29704578 0 0 0 -0.198892,-0.0543 v -0.12139 h 1.108109 v 0.13173 a 0.61475559,0.61475559 0 0 0 -0.30996,0.0982 2.4693544,2.4693544 0 0 0 -0.483022,0.5321 l -0.452026,0.60184 0.821395,1.19335 a 2.3892812,2.3892812 0 0 0 0.433945,0.5166 0.64316865,0.64316865 0 0 0 0.335791,0.10073 v 0.12657 h -1.549794 v -0.12657 a 0.39261701,0.39261701 0 0 0 0.258301,-0.0723 0.16014642,0.16014642 0 0 0 0.06975,-0.13431 1.2656732,1.2656732 0 0 0 -0.23247,-0.42103 l -0.483023,-0.70516 -0.529516,0.70516 a 1.3870745,1.3870745 0 0 0 -0.237637,0.39261 0.20664055,0.20664055 0 0 0 0.08007,0.15757 0.38486801,0.38486801 0 0 0 0.242802,0.0775 v 0.12657 h -1.077113 v -0.12657 a 0.48043925,0.48043925 0 0 0 0.227305,-0.0904 3.1951792,3.1951792 0 0 0 0.459775,-0.53469 l 0.687078,-0.92471 -0.622503,-0.90922 a 2.0664055,2.0664055 0 0 0 -0.410701,-0.49076 0.63025363,0.63025363 0 0 0 -0.364204,-0.10074 z"
     class="a" />
  <path
     style="stroke-width:0.258301"
     id="path861"
     d="m 74.45811,102.74684 a 1.7719426,1.7719426 0 0 1 -0.516602,1.0022 1.2450092,1.2450092 0 0 1 -1.841683,-0.12398 1.8494329,1.8494329 0 0 1 -0.418447,-1.276 1.7616106,1.7616106 0 0 1 0.462358,-1.26568 1.4826458,1.4826458 0 0 1 1.110692,-0.4856 1.2140132,1.2140132 0 0 1 0.800732,0.2583 0.71032683,0.71032683 0 0 1 0.315128,0.53468 0.29187976,0.29187976 0 0 1 -0.08782,0.22214 0.34095688,0.34095688 0 0 1 -0.258302,0.0852 0.37195297,0.37195297 0 0 1 -0.317709,-0.1369 0.55018042,0.55018042 0 0 1 -0.08525,-0.2893 0.48302224,0.48302224 0 0 0 -0.144649,-0.32804 0.51660133,0.51660133 0 0 0 -0.348706,-0.10849 0.71290985,0.71290985 0 0 0 -0.581176,0.2583 1.4258196,1.4258196 0 0 0 -0.29188,0.93764 1.9010928,1.9010928 0 0 0 0.289297,1.04611 0.89372032,0.89372032 0 0 0 0.774901,0.45203 0.95571247,0.95571247 0 0 0 0.63542,-0.23764 1.6143791,1.6143791 0 0 0 0.387451,-0.60442 z"
     class="a" />
  <path
     style="stroke-width:0.258301"
     id="path863"
     d="m 77.431151,101.94352 a 1.6892865,1.6892865 0 0 0 0.356455,1.14944 1.0926118,1.0926118 0 0 0 0.847226,0.41586 0.9247164,0.9247164 0 0 0 0.563095,-0.17822 1.2915033,1.2915033 0 0 0 0.392617,-0.61218 l 0.11107,0.0723 a 1.7176995,1.7176995 0 0 1 -0.439112,0.90406 1.1752681,1.1752681 0 0 1 -0.9118,0.40553 1.3302484,1.3302484 0 0 1 -1.017706,-0.46236 1.7745256,1.7745256 0 0 1 -0.423613,-1.24501 1.8804289,1.8804289 0 0 1 0.433946,-1.31991 1.4129047,1.4129047 0 0 1 1.090029,-0.4727 1.2165961,1.2165961 0 0 1 0.924717,0.36163 1.3431635,1.3431635 0 0 1 0.356454,0.97896 z m 0,-0.20664 h 1.52914 a 1.4309857,1.4309857 0 0 0 -0.0749,-0.44686 0.71290985,0.71290985 0 0 0 -0.258301,-0.31513 0.66899873,0.66899873 0 0 0 -0.371954,-0.11623 0.74390592,0.74390592 0 0 0 -0.534683,0.23247 1.0099556,1.0099556 0 0 0 -0.289295,0.64575 z"
     class="a" />
  <path
     style="stroke-width:0.258301"
     id="path865"
     d="m 83.258413,98.86974 v 4.39111 a 1.2010981,1.2010981 0 0 0 0.0439,0.40812 0.32287584,0.32287584 0 0 0 0.139483,0.1524 0.79814908,0.79814908 0 0 0 0.348706,0.0516 v 0.13173 h -1.616961 v -0.13173 a 0.70774384,0.70774384 0 0 0 0.30996,-0.0465 0.31512681,0.31512681 0 0 0 0.131734,-0.15498 1.2062642,1.2062642 0 0 0 0.0465,-0.41328 v -3.00662 a 5.2899977,5.2899977 0 0 0 -0.02583,-0.67933 0.29962878,0.29962878 0 0 0 -0.08007,-0.17306 0.21697256,0.21697256 0 0 0 -0.142066,-0.0465 0.67674774,0.67674774 0 0 0 -0.235054,0.0568 l -0.062,-0.13173 0.981542,-0.40554 z"
     class="a" />
  <path
     style="stroke-width:0.258301"
     id="path867"
     d="m 87.264656,98.86974 v 4.39111 a 1.2010981,1.2010981 0 0 0 0.04391,0.40812 0.32287584,0.32287584 0 0 0 0.139481,0.1524 0.79814908,0.79814908 0 0 0 0.348705,0.0516 v 0.13173 h -1.616958 v -0.13173 a 0.70774384,0.70774384 0 0 0 0.309961,-0.0465 0.31512681,0.31512681 0 0 0 0.131733,-0.15498 1.2062642,1.2062642 0 0 0 0.04649,-0.41328 v -3.00662 a 5.2899977,5.2899977 0 0 0 -0.02583,-0.67933 0.29962878,0.29962878 0 0 0 -0.08007,-0.17306 0.21697256,0.21697256 0 0 0 -0.142065,-0.0465 0.67674774,0.67674774 0 0 0 -0.235055,0.0568 l -0.062,-0.13173 0.981542,-0.40554 z"
     class="a" />
  <path
     style="stroke-width:0.258301"
     id="path869"
     d="m 90.684559,101.94352 a 1.6892865,1.6892865 0 0 0 0.356454,1.14944 1.0926118,1.0926118 0 0 0 0.847227,0.41586 0.9247164,0.9247164 0 0 0 0.563095,-0.17822 1.2915033,1.2915033 0 0 0 0.402948,-0.61218 l 0.111071,0.0723 a 1.7176995,1.7176995 0 0 1 -0.439113,0.90406 1.1752681,1.1752681 0 0 1 -0.9118,0.40553 1.3302484,1.3302484 0 0 1 -1.017704,-0.46236 1.7745256,1.7745256 0 0 1 -0.423614,-1.24501 1.8804289,1.8804289 0 0 1 0.433945,-1.31991 1.4129047,1.4129047 0 0 1 1.090029,-0.4727 1.2191792,1.2191792 0 0 1 0.911802,0.36163 1.3431635,1.3431635 0 0 1 0.356455,0.97896 z m 0,-0.20664 h 1.529139 a 1.4284027,1.4284027 0 0 0 -0.0749,-0.44686 0.71290985,0.71290985 0 0 0 -0.258301,-0.31513 0.66899873,0.66899873 0 0 0 -0.371953,-0.11623 0.74390592,0.74390592 0 0 0 -0.534682,0.23247 1.0099556,1.0099556 0 0 0 -0.289296,0.64575 z"
     class="a" />
  <path
     style="stroke-width:0.258301"
     id="path871"
     d="m 96.33101,101.29002 q 0.578595,-0.69224 1.102945,-0.69224 a 0.79298305,0.79298305 0 0 1 0.464942,0.13431 0.90405234,0.90405234 0 0 1 0.30996,0.44428 2.0664055,2.0664055 0 0 1 0.08007,0.66383 v 1.41291 a 1.1907662,1.1907662 0 0 0 0.05165,0.42361 0.29446276,0.29446276 0 0 0 0.126568,0.13948 0.72840788,0.72840788 0 0 0 0.325456,0.0517 v 0.13173 h -1.637624 v -0.13173 h 0.06975 a 0.54759742,0.54759742 0 0 0 0.320293,-0.0697 0.36936995,0.36936995 0 0 0 0.126566,-0.20664 2.0379924,2.0379924 0 0 0 0.0155,-0.33837 v -1.36125 a 1.3974067,1.3974067 0 0 0 -0.116237,-0.65866 0.41328107,0.41328107 0 0 0 -0.392616,-0.20406 1.1778509,1.1778509 0 0 0 -0.849809,0.47011 v 1.75386 a 1.2501752,1.2501752 0 0 0 0.03874,0.41328 0.3461229,0.3461229 0 0 0 0.139483,0.1524 0.87305627,0.87305627 0 0 0 0.359038,0.0491 v 0.13173 h -1.640204 v -0.13173 h 0.07233 a 0.390034,0.390034 0 0 0 0.340958,-0.12657 0.9247164,0.9247164 0 0 0 0.08782,-0.48561 v -1.22692 a 5.2357545,5.2357545 0 0 0 -0.02583,-0.72324 0.31254382,0.31254382 0 0 0 -0.08266,-0.17823 0.22730459,0.22730459 0 0 0 -0.149815,-0.0465 0.69741181,0.69741181 0 0 0 -0.24022,0.0542 l -0.05423,-0.13173 0.997041,-0.40554 h 0.15498 z"
     class="a" />
  <path
     style="stroke-width:0.258301"
     id="path873"
     d="m 103.8269,102.74684 a 1.7719426,1.7719426 0 0 1 -0.51661,1.0022 1.2450092,1.2450092 0 0 1 -1.84168,-0.12398 1.8494329,1.8494329 0 0 1 -0.41845,-1.276 1.7616106,1.7616106 0 0 1 0.46236,-1.26568 1.4826458,1.4826458 0 0 1 1.1107,-0.4856 1.2140132,1.2140132 0 0 1 0.80073,0.2583 0.71032683,0.71032683 0 0 1 0.31512,0.53468 0.29187976,0.29187976 0 0 1 -0.0878,0.22214 0.34095688,0.34095688 0 0 1 -0.2583,0.0852 0.37195297,0.37195297 0 0 1 -0.31771,-0.1369 0.55018042,0.55018042 0 0 1 -0.0853,-0.2893 0.48302224,0.48302224 0 0 0 -0.14465,-0.32804 0.51660133,0.51660133 0 0 0 -0.3487,-0.10849 0.71290985,0.71290985 0 0 0 -0.58118,0.2583 1.4258196,1.4258196 0 0 0 -0.29188,0.93764 1.9010928,1.9010928 0 0 0 0.2893,1.04611 0.89372032,0.89372032 0 0 0 0.7749,0.45203 0.95571247,0.95571247 0 0 0 0.63542,-0.23764 1.6143791,1.6143791 0 0 0 0.38745,-0.60442 z"
     class="a" />
  <path
     style="stroke-width:0.258301"
     id="path875"
     d="m 106.80252,101.94352 a 1.6892865,1.6892865 0 0 0 0.35645,1.14944 1.0926118,1.0926118 0 0 0 0.84722,0.41586 0.9247164,0.9247164 0 0 0 0.56311,-0.17822 1.2915033,1.2915033 0 0 0 0.40294,-0.61218 l 0.11107,0.0723 a 1.7176995,1.7176995 0 0 1 -0.43911,0.90406 1.1752681,1.1752681 0 0 1 -0.9118,0.40553 1.3302484,1.3302484 0 0 1 -1.01771,-0.46236 1.7745256,1.7745256 0 0 1 -0.4236,-1.24501 1.8804289,1.8804289 0 0 1 0.43394,-1.31991 1.4129047,1.4129047 0 0 1 1.09002,-0.4727 1.2165961,1.2165961 0 0 1 0.91181,0.36163 1.3431635,1.3431635 0 0 1 0.35645,0.97896 z m 0,-0.20664 h 1.52914 a 1.4284027,1.4284027 0 0 0 -0.0749,-0.44686 0.71290985,0.71290985 0 0 0 -0.2583,-0.31513 0.66899873,0.66899873 0 0 0 -0.37195,-0.11623 0.74390592,0.74390592 0 0 0 -0.53469,0.23247 1.0099556,1.0099556 0 0 0 -0.28929,0.64575 z"
     class="a" />
  <path
     style="stroke-width:0.258301"
     id="path877"
     d="m 36.759128,71.164415 c 0,0 7.255666,1.36641 13.243075,4.649412 5.987409,3.283001 9.91358,6.811388 9.91358,6.937955 0,0.126567 3.915838,-3.678201 9.815425,-6.958619 5.899587,-3.280418 13.21208,-4.649412 13.21208,-4.649412 v 2.949793 c 0,0 -4.876716,0.684498 -11.088847,3.954583 -6.212133,3.270087 -9.898083,6.932789 -9.898083,6.937958 v 2.066404 l -0.03098,0.08265 -0.03874,0.07233 -0.05165,0.0749 -0.05942,0.06458 -0.07233,0.05942 -0.0749,0.04907 -0.08265,0.04134 -0.07749,0.02841 h -2.931717 l -0.09557,-0.02067 -0.08782,-0.02841 -0.08525,-0.03616 -0.08007,-0.05682 -0.07749,-0.07749 -0.05683,-0.08265 -0.04649,-0.0749 -0.02583,-0.08525 v -1.96567 c 0,0 -4.40661,-4.034656 -9.200669,-6.612496 -4.794061,-2.57784 -12.04456,-4.40661 -12.02648,-4.391112 z"
     class="a" />
  <path
     style="stroke-width:0.258301"
     id="path879"
     d="m 36.759128,79.34738 c 0,0 7.255666,1.36641 13.243075,4.649413 5.987409,3.283001 9.91358,6.811388 9.91358,6.937955 0,0.126568 3.915838,-3.678202 9.815425,-6.95862 5.899587,-3.280419 13.21208,-4.649413 13.21208,-4.649413 v 2.949794 c 0,0 -4.876716,0.684497 -11.088847,3.954583 -6.212133,3.270086 -9.898083,6.93279 -9.898083,6.937956 v 2.066406 l -0.03098,0.08266 -0.03874,0.07233 -0.05165,0.0749 -0.05942,0.06458 -0.07233,0.0594 -0.0749,0.04908 -0.08265,0.04133 -0.07749,0.02841 h -2.931717 l -0.09557,-0.02067 -0.08782,-0.02841 -0.08525,-0.03616 -0.08007,-0.05683 -0.07749,-0.07749 -0.05683,-0.08265 -0.04649,-0.0749 -0.02583,-0.08525 v -1.965667 c 0,0 -4.40661,-4.034657 -9.200669,-6.61508 -4.794061,-2.580424 -12.04456,-4.40661 -12.02648,-4.391112 z"
     class="b" />
  <path
     style="stroke-width:0.258301"
     id="path881"
     d="m 59.995855,15.505786 c 20.563317,0 37.332197,16.771462 37.332197,37.332197 a 37.179798,37.179798 0 0 1 -9.774098,25.135236 l -1.84685,-1.846849 a 34.576128,34.576128 0 0 0 9.009528,-23.290971 c 0,-19.11425 -15.596195,-34.720777 -34.720777,-34.720777 -19.124581,0 -34.720775,15.601362 -34.720775,34.725943 a 34.576128,34.576128 0 0 0 8.952702,23.22898 l -1.849434,1.849432 a 37.195297,37.195297 0 0 1 -9.71727,-25.078412 c 0,-20.563317 16.771462,-37.334779 37.334777,-37.334779 z"
     class="c" />
  <path
     style="stroke-width:0.258301"
     id="path883"
     d="m 44.732869,42.203744 a 3.6627034,3.6627034 0 0 1 1.782275,0.813646 2.5261805,2.5261805 0 0 1 0.818814,1.903676 2.8413074,2.8413074 0 0 1 -0.539849,1.64021 3.08411,3.08411 0 0 1 -1.482646,1.141689 q -0.937631,0.359037 -2.872305,0.361621 h -5.398483 v -0.312544 h 0.426198 a 1.149438,1.149438 0 0 0 1.033202,-0.457191 c 0.129149,-0.19631 0.193725,-0.61734 0.193725,-1.257925 V 38.61853 q 0,-1.064198 -0.242804,-1.34058 a 1.2295112,1.2295112 0 0 0 -0.973792,-0.371953 h -0.426196 v -0.309961 h 4.930958 a 9.7198541,9.7198541 0 0 1 2.21622,0.201475 3.5671323,3.5671323 0 0 1 1.93209,1.079696 2.6449989,2.6449989 0 0 1 0.666415,1.779691 2.4693544,2.4693544 0 0 1 -0.5166,1.549806 3.0582799,3.0582799 0 0 1 -1.549805,1.009955 z m -4.42469,-0.470107 a 6.3748606,6.3748606 0 0 0 0.71291,0.0904 c 0.258301,0.02067 0.563096,0.02841 0.883389,0.02841 a 4.9697049,4.9697049 0 0 0 1.854598,-0.258302 1.9760001,1.9760001 0 0 0 0.960879,-0.816229 2.2937099,2.2937099 0 0 0 0.325458,-1.193349 2.1852237,2.1852237 0 0 0 -0.818814,-1.709952 Q 43.41037,37.16946 41.842484,37.16946 a 5.7342749,5.7342749 0 0 0 -1.518807,0.183394 v 4.39111 z m 0,5.496637 a 8.5239221,8.5239221 0 0 0 1.939837,0.227304 q 1.534307,0 2.342788,-0.689661 a 2.1542276,2.1542276 0 0 0 0.803315,-1.702202 2.4254434,2.4254434 0 0 0 -0.374536,-1.291504 2.4822694,2.4822694 0 0 0 -1.190765,-0.97121 5.1040212,5.1040212 0 0 0 -2.027662,-0.353872 c -0.348705,0 -0.645751,0 -0.893719,0.01808 a 4.9671218,4.9671218 0 0 0 -0.599258,0.05682 z"
     class="a" />
  <path
     style="stroke-width:0.258301"
     id="path885"
     d="m 59.988107,48.064586 h -3.071195 l -3.895174,-5.362322 q -0.418447,0.01807 -0.684497,0.01807 h -0.229887 -0.258302 v 3.339828 q 0,1.082279 0.237638,1.340581 a 1.1985152,1.1985152 0 0 0 0.960878,0.371952 h 0.45461 v 0.309961 H 48.594465 V 47.75203 h 0.428779 a 1.152021,1.152021 0 0 0 1.033201,-0.472689 c 0.118819,-0.173062 0.175646,-0.588926 0.175646,-1.239843 v -7.420979 c 0,-0.720658 -0.07749,-1.167518 -0.237637,-1.34058 A 1.2372602,1.2372602 0 0 0 49.018078,36.90599 h -0.42878 v -0.309962 h 4.174139 a 9.978155,9.978155 0 0 1 2.694075,0.258302 3.073778,3.073778 0 0 1 1.469732,0.984126 2.5468446,2.5468446 0 0 1 0.604423,1.704784 2.683744,2.683744 0 0 1 -0.689663,1.836518 c -0.459775,0.516601 -1.170102,0.885971 -2.136146,1.10036 l 2.373784,3.285585 c 0.542431,0.754239 1.007372,1.260506 1.394823,1.508477 a 3.4741439,3.4741439 0 0 0 1.518807,0.475272 v 0.30996 z m -8.139055,-5.899588 h 0.276382 0.191144 q 1.622127,0 2.446106,-0.710326 a 2.2859608,2.2859608 0 0 0 0.823979,-1.808105 2.291127,2.291127 0 0 0 -2.425444,-2.420277 7.5320475,7.5320475 0 0 0 -1.312167,0.15498 z"
     class="a" />
  <path
     style="stroke-width:0.258301"
     id="path887"
     d="m 67.752625,44.239153 h -4.435024 l -0.7749,1.808105 a 2.8903845,2.8903845 0 0 0 -0.289297,0.997039 0.58375951,0.58375951 0 0 0 0.258301,0.46236 c 0.165312,0.129151 0.516601,0.216972 1.077113,0.258299 v 0.309961 H 59.959694 V 47.752042 A 1.9320888,1.9320888 0 0 0 60.886993,47.424 q 0.431362,-0.405532 0.955713,-1.650541 l 4.034657,-9.440889 h 0.281547 l 3.988163,9.541627 c 0.320291,0.774902 0.612172,1.263089 0.873056,1.492978 a 1.7848577,1.7848577 0 0 0 1.095194,0.384867 v 0.30996 h -4.52026 v -0.30996 a 1.7047845,1.7047845 0 0 0 0.924715,-0.227304 0.58634253,0.58634253 0 0 0 0.240219,-0.475274 3.5232211,3.5232211 0 0 0 -0.338373,-1.175267 l -0.676746,-1.63246 z m -0.258301,-0.622505 -1.932089,-4.628747 -1.986332,4.63133 z"
     class="a" />
  <path
     style="stroke-width:0.258301"
     id="path889"
     d="m 82.736647,36.33257 0.2583,3.892591 h -0.2583 C 82.38794,39.060224 81.892003,38.218164 81.246252,37.706729 a 3.6162094,3.6162094 0 0 0 -2.324706,-0.774902 3.7686068,3.7686068 0 0 0 -2.05349,0.578594 3.8331821,3.8331821 0 0 0 -1.443902,1.849431 8.2966175,8.2966175 0 0 0 -0.5166,3.153853 6.7158175,6.7158175 0 0 0 0.495938,2.699241 3.7479427,3.7479427 0 0 0 1.492977,1.751279 4.2774591,4.2774591 0 0 0 2.275629,0.60959 3.9416682,3.9416682 0 0 0 1.960502,-0.475274 q 0.852392,-0.475273 1.867513,-1.893343 l 0.2583,0.17306 a 6.0158226,6.0158226 0 0 1 -2.006995,2.234302 5.0962722,5.0962722 0 0 1 -2.722489,0.707743 q -2.841307,0 -4.391111,-2.112898 a 6.0597337,6.0597337 0 0 1 -1.164937,-3.704032 6.6047481,6.6047481 0 0 1 0.774902,-3.153852 5.5586304,5.5586304 0 0 1 2.107735,-2.229134 5.6826146,5.6826146 0 0 1 2.934294,-0.7904 5.3545729,5.3545729 0 0 1 2.440942,0.609589 1.3199165,1.3199165 0 0 0 0.516601,0.185977 0.55792945,0.55792945 0 0 0 0.3952,-0.160146 1.2915033,1.2915033 0 0 0 0.312545,-0.63542 z"
     class="a" />
  <path
     style="stroke-width:0.258301"
     id="path891"
     d="m 34.57907,53.104033 v -0.185979 h 2.407362 v 0.185979 h -0.2583 a 0.69482881,0.69482881 0 0 0 -0.619923,0.338373 1.5498039,1.5498039 0 0 0 -0.105906,0.725824 v 2.776732 a 4.9077128,4.9077128 0 0 1 -0.204057,1.598881 2.0044131,2.0044131 0 0 1 -0.803314,0.973794 2.8413074,2.8413074 0 0 1 -1.624713,0.405532 q -1.118441,0 -1.697036,-0.390034 a 2.0922353,2.0922353 0 0 1 -0.821392,-1.033202 5.783352,5.783352 0 0 1 -0.162729,-1.686704 v -2.686327 q 0,-0.630252 -0.173062,-0.826561 a 0.71290985,0.71290985 0 0 0 -0.560511,-0.196308 h -0.258301 v -0.185979 h 2.960125 v 0.185979 h -0.258302 a 0.67933076,0.67933076 0 0 0 -0.604423,0.258299 1.4903947,1.4903947 0 0 0 -0.126567,0.756822 v 2.983373 a 6.6667403,6.6667403 0 0 0 0.07233,0.914383 1.9708341,1.9708341 0 0 0 0.258299,0.803315 1.4723139,1.4723139 0 0 0 0.552764,0.475274 1.914008,1.914008 0 0 0 0.885973,0.185976 2.4486904,2.4486904 0 0 0 1.201097,-0.29188 1.5678851,1.5678851 0 0 0 0.723241,-0.749072 4.3523662,4.3523662 0 0 0 0.193726,-1.549803 v -2.763818 c 0,-0.426195 -0.04649,-0.694828 -0.142065,-0.800732 a 0.73873991,0.73873991 0 0 0 -0.583759,-0.222137 z"
     class="a" />
  <path
     style="stroke-width:0.258301"
     id="path893"
     d="m 36.970933,52.918054 h 1.841685 l 4.197386,5.142767 v -3.954582 c 0,-0.42103 -0.04907,-0.684496 -0.142067,-0.7904 a 0.77490201,0.77490201 0 0 0 -0.596672,-0.211806 h -0.240221 v -0.185979 h 2.407362 v 0.185979 H 44.19302 a 0.71032683,0.71032683 0 0 0 -0.625087,0.258299 1.5498039,1.5498039 0 0 0 -0.111069,0.73874 V 59.87151 H 43.27347 l -4.507346,-5.517303 v 4.21805 c 0,0.42103 0.0465,0.684498 0.136898,0.7904 a 0.77490201,0.77490201 0 0 0 0.599258,0.211806 h 0.245385 v 0.185976 h -2.40736 v -0.185976 h 0.240219 a 0.71549286,0.71549286 0 0 0 0.62767,-0.2583 1.5343059,1.5343059 0 0 0 0.111069,-0.73874 v -4.760481 a 3.1667662,3.1667662 0 0 0 -0.452026,-0.459776 1.7280315,1.7280315 0 0 0 -0.452026,-0.209223 1.6608733,1.6608733 0 0 0 -0.444278,-0.0439 z"
     class="a" />
  <path
     style="stroke-width:0.258301"
     id="path895"
     d="m 47.754988,59.582213 v 0.185976 h -2.934296 v -0.185976 h 0.242802 a 0.73873991,0.73873991 0 0 0 0.617338,-0.258301 1.5498039,1.5498039 0 0 0 0.121401,-0.774901 v -4.422109 a 2.2678798,2.2678798 0 0 0 -0.06458,-0.684496 0.45460917,0.45460917 0 0 0 -0.209225,-0.216972 0.95312947,0.95312947 0 0 0 -0.46494,-0.121401 h -0.242802 v -0.185979 h 2.934296 v 0.185979 h -0.258301 a 0.72582489,0.72582489 0 0 0 -0.60959,0.258299 1.4800629,1.4800629 0 0 0 -0.126567,0.774902 v 4.43244 a 2.275629,2.275629 0 0 0 0.06458,0.684498 0.43911114,0.43911114 0 0 0 0.211808,0.216972 0.91955038,0.91955038 0 0 0 0.457191,0.121401 z"
     class="a" />
  <path
     style="stroke-width:0.258301"
     id="path897"
     d="m 55.330946,52.918054 v 0.185979 a 1.110693,1.110693 0 0 0 -0.550182,0.235052 2.1180655,2.1180655 0 0 0 -0.47269,0.774903 l -2.376366,5.822096 H 51.745733 L 49.185972,54.036498 A 3.2520054,3.2520054 0 0 0 48.90959,53.478567 0.89372032,0.89372032 0 0 0 48.597047,53.220266 1.4387347,1.4387347 0 0 0 48.10111,53.106615 v -0.188561 h 2.79223 v 0.185979 a 1.2915033,1.2915033 0 0 0 -0.617338,0.162729 0.36936995,0.36936995 0 0 0 -0.142066,0.297045 2.275629,2.275629 0 0 0 0.23247,0.774902 l 1.740948,4.008826 1.616961,-3.959749 a 2.6682459,2.6682459 0 0 0 0.237638,-0.813647 0.38486801,0.38486801 0 0 0 -0.147232,-0.278965 0.96087848,0.96087848 0 0 0 -0.493355,-0.188559 l -0.08525,-0.0155 V 52.91805 Z"
     class="a" />
  <path
     style="stroke-width:0.258301"
     id="path899"
     d="m 57.622073,53.290009 v 2.70699 h 1.508475 a 1.226928,1.226928 0 0 0 0.774903,-0.175644 1.13394,1.13394 0 0 0 0.291879,-0.81623 h 0.185977 v 2.386698 H 60.19733 A 2.6424159,2.6424159 0 0 0 60.055264,56.748654 0.63025363,0.63025363 0 0 0 59.758218,56.472273 1.5162249,1.5162249 0 0 0 59.1228,56.371542 h -1.508475 v 2.260129 a 2.1645595,2.1645595 0 0 0 0.03874,0.552765 0.31770982,0.31770982 0 0 0 0.142067,0.157563 0.84206018,0.84206018 0 0 0 0.384867,0.05941 h 1.159768 a 3.1693492,3.1693492 0 0 0 0.842061,-0.08008 1.2501752,1.2501752 0 0 0 0.503687,-0.31771 3.9055062,3.9055062 0 0 0 0.640585,-0.942799 h 0.20664 l -0.591508,1.715118 h -5.271917 v -0.185975 h 0.242803 a 0.95829549,0.95829549 0 0 0 0.459775,-0.116237 0.41844709,0.41844709 0 0 0 0.219556,-0.242803 2.3634511,2.3634511 0 0 0 0.05941,-0.663831 v -4.460853 c 0,-0.433946 -0.04391,-0.699995 -0.131735,-0.800733 a 0.77490201,0.77490201 0 0 0 -0.607008,-0.201472 h -0.242803 v -0.185978 h 5.279667 l 0.07233,1.508478 h -0.196308 a 2.4047793,2.4047793 0 0 0 -0.235054,-0.749073 0.8162301,0.8162301 0 0 0 -0.379703,-0.309963 2.2859608,2.2859608 0 0 0 -0.710326,-0.0749 z"
     class="a" />
  <path
     style="stroke-width:0.258301"
     id="path901"
     d="M 68.759997,59.768189 H 66.933811 L 64.609106,56.56526 q -0.258302,0 -0.408115,0 h -0.136899 -0.152399 v 1.994083 q 0,0.645751 0.142065,0.800731 a 0.71549286,0.71549286 0 0 0 0.573428,0.222139 h 0.258302 v 0.185976 h -2.936879 v -0.185976 h 0.2583 a 0.68707978,0.68707978 0 0 0 0.619923,-0.281548 1.5885491,1.5885491 0 0 0 0.105906,-0.741322 v -4.432441 c 0,-0.431361 -0.0465,-0.697412 -0.142065,-0.800732 a 0.73873991,0.73873991 0 0 0 -0.58376,-0.222137 h -0.258301 v -0.185979 h 2.492601 a 5.9641625,5.9641625 0 0 1 1.609214,0.157566 1.8365177,1.8365177 0 0 1 0.878222,0.586341 1.521391,1.521391 0 0 1 0.361621,1.017705 1.6014642,1.6014642 0 0 1 -0.410698,1.095195 2.324706,2.324706 0 0 1 -1.276005,0.658666 l 1.418071,1.960503 a 3.5283872,3.5283872 0 0 0 0.83431,0.901469 2.0664055,2.0664055 0 0 0 0.906635,0.284131 v 0.185977 z m -4.858636,-3.523221 h 0.278966 a 2.1826406,2.1826406 0 0 0 1.459398,-0.423613 1.3638276,1.3638276 0 0 0 0.493354,-1.079697 1.3689935,1.3689935 0 0 0 -1.449066,-1.443901 4.4608524,4.4608524 0 0 0 -0.774902,0.093 z"
     class="a" />
  <path
     style="stroke-width:0.258301"
     id="path903"
     d="m 73.406826,52.763074 v 2.366035 H 73.22085 a 2.9394615,2.9394615 0 0 0 -0.325458,-1.084863 1.6996185,1.6996185 0 0 0 -0.671583,-0.640585 1.8442667,1.8442667 0 0 0 -0.898885,-0.227305 1.2243453,1.2243453 0 0 0 -0.870474,0.320294 0.97637648,0.97637648 0 0 0 -0.34354,0.712908 0.86789024,0.86789024 0 0 0 0.216973,0.570845 q 0.315126,0.377119 1.490394,1.009956 a 10.479258,10.479258 0 0 1 1.312167,0.7904 1.919174,1.919174 0 0 1 0.539849,0.648335 1.7151165,1.7151165 0 0 1 0.188559,0.774901 1.7719426,1.7719426 0 0 1 -0.60184,1.34058 2.1878067,2.1878067 0 0 1 -1.549804,0.563096 3.2235924,3.2235924 0 0 1 -0.560511,-0.0465 5.8040161,5.8040161 0 0 1 -0.648337,-0.185978 2.8748864,2.8748864 0 0 0 -0.622504,-0.160146 0.25830068,0.25830068 0 0 0 -0.198892,0.0749 0.63025363,0.63025363 0 0 0 -0.108484,0.31771 h -0.185977 v -2.340188 h 0.185977 a 3.3191637,3.3191637 0 0 0 0.35387,1.102945 1.6815374,1.6815374 0 0 0 0.679331,0.607005 2.1025675,2.1025675 0 0 0 1.002207,0.242803 1.4232367,1.4232367 0 0 0 0.99704,-0.333208 1.0332026,1.0332026 0 0 0 0.366787,-0.7904 1.0874458,1.0874458 0 0 0 -0.1369,-0.516601 1.5498039,1.5498039 0 0 0 -0.431361,-0.483023 11.897328,11.897328 0 0 0 -1.077113,-0.643168 10.215791,10.215791 0 0 1 -1.25276,-0.774902 2.1154825,2.1154825 0 0 1 -0.565677,-0.645752 1.5937151,1.5937151 0 0 1 -0.193727,-0.774902 1.6841204,1.6841204 0 0 1 0.565679,-1.268256 2.0224943,2.0224943 0 0 1 1.449068,-0.526935 2.9136315,2.9136315 0 0 1 1.159769,0.258301 1.183017,1.183017 0 0 0 0.400367,0.126568 0.30221179,0.30221179 0 0 0 0.214388,-0.07749 0.64058566,0.64058566 0 0 0 0.134317,-0.315128 z"
     class="a" />
  <path
     style="stroke-width:0.258301"
     id="path905"
     d="m 77.601629,59.582213 v 0.185976 h -2.934296 v -0.185976 h 0.242803 a 0.73873991,0.73873991 0 0 0 0.617339,-0.258301 1.5498039,1.5498039 0 0 0 0.121401,-0.774901 v -4.422109 a 2.265297,2.265297 0 0 0 -0.06457,-0.684496 0.45460917,0.45460917 0 0 0 -0.209226,-0.216972 0.95312947,0.95312947 0 0 0 -0.464941,-0.121401 h -0.242803 v -0.185979 h 2.934297 v 0.185979 h -0.258301 a 0.72582489,0.72582489 0 0 0 -0.609588,0.258299 1.4800629,1.4800629 0 0 0 -0.126569,0.774902 v 4.43244 a 2.275629,2.275629 0 0 0 0.06458,0.684498 0.43911114,0.43911114 0 0 0 0.211807,0.216972 0.91955038,0.91955038 0 0 0 0.457192,0.121401 z"
     class="a" />
  <path
     style="stroke-width:0.258301"
     id="path907"
     d="m 83.831841,52.918054 0.07233,1.609215 h -0.18081 a 1.9682511,1.9682511 0 0 0 -0.152397,-0.607008 1.0073727,1.0073727 0 0 0 -0.415865,-0.431362 1.4439007,1.4439007 0 0 0 -0.684496,-0.139482 h -0.963465 v 5.228006 c 0,0.42103 0.04391,0.684497 0.1369,0.790401 a 0.75165495,0.75165495 0 0 0 0.588925,0.211806 h 0.235054 v 0.185977 H 79.544052 V 59.57963 h 0.258301 a 0.70774384,0.70774384 0 0 0 0.622506,-0.258301 1.5343059,1.5343059 0 0 0 0.111068,-0.73874 v -5.230588 h -0.821396 a 2.3040419,2.3040419 0 0 0 -0.681914,0.06975 0.93246542,0.93246542 0 0 0 -0.449443,0.369368 1.5007268,1.5007268 0 0 0 -0.222139,0.736158 h -0.191143 l 0.07233,-1.609214 z"
     class="a" />
  <path
     style="stroke-width:0.258301"
     id="path909"
     d="m 89.093426,52.918054 h 2.37895 v 0.185979 h -0.131735 a 1.0332026,1.0332026 0 0 0 -0.384868,0.116233 1.5162249,1.5162249 0 0 0 -0.459775,0.333208 4.5848369,4.5848369 0 0 0 -0.5166,0.710329 l -1.645375,2.583006 v 1.743529 c 0,0.42103 0.04907,0.684498 0.142066,0.7904 a 0.79298305,0.79298305 0 0 0 0.612171,0.211807 h 0.224721 v 0.185977 h -2.911048 v -0.185977 h 0.258299 a 0.70774384,0.70774384 0 0 0 0.622506,-0.258302 1.5343059,1.5343059 0 0 0 0.11107,-0.738739 V 56.99404 l -1.87268,-2.895551 a 5.9409153,5.9409153 0 0 0 -0.452026,-0.62767 1.7486955,1.7486955 0 0 0 -0.493354,-0.302212 0.68191377,0.68191377 0 0 0 -0.291881,-0.04907 v -0.201475 h 2.921383 v 0.185973 h -0.152398 a 0.88080528,0.88080528 0 0 0 -0.43653,0.111067 0.35903794,0.35903794 0 0 0 -0.19889,0.333209 1.5911322,1.5911322 0 0 0 0.30996,0.658666 l 1.41807,2.205888 1.350912,-2.110315 a 1.5498039,1.5498039 0 0 0 0.302214,-0.707745 0.4571922,0.4571922 0 0 0 -0.07233,-0.258302 0.49077128,0.49077128 0 0 0 -0.209224,-0.17306 0.99445761,0.99445761 0 0 0 -0.408115,-0.06458 z"
     class="a" />
  <path
     style="stroke-width:0.258301"
     id="path911"
     d="m 36.759128,62.759311 c 0,0 7.255666,1.366411 13.243075,4.649411 5.987409,3.283002 9.91358,6.811389 9.91358,6.937957 0,0.126568 3.915838,-3.678201 9.815425,-6.95862 5.899587,-3.280419 13.21208,-4.649412 13.21208,-4.649412 v 2.949793 c 0,0 -4.876716,0.684497 -11.088847,3.954583 -6.212133,3.270088 -9.898083,6.93279 -9.898083,6.937957 v 2.066405 l -0.03098,0.08266 -0.03874,0.07233 -0.05165,0.0749 -0.05942,0.06458 -0.07233,0.0594 -0.0749,0.04908 -0.08265,0.04133 -0.07749,0.02841 h -2.931717 l -0.09557,-0.02067 -0.08782,-0.02841 -0.08525,-0.03616 -0.08007,-0.05683 -0.07749,-0.07749 -0.05683,-0.08266 -0.04649,-0.0749 -0.02583,-0.08525 v -1.965668 c 0,0 -4.40661,-4.034655 -9.200669,-6.61508 -4.794061,-2.580423 -12.04456,-4.406609 -12.02648,-4.391111 z"
     class="c" />
</svg>
