<?xml version="1.0" encoding="utf-8"?>
<!-- Generator: Adobe Illustrator 23.0.2, SVG Export Plug-In . SVG Version: 6.00 Build 0)  -->
<!DOCTYPE svg PUBLIC "-//W3C//DTD SVG 1.1//EN" "http://www.w3.org/Graphics/SVG/1.1/DTD/svg11.dtd" [
	<!ENTITY ns_extend "http://ns.adobe.com/Extensibility/1.0/">
	<!ENTITY ns_ai "http://ns.adobe.com/AdobeIllustrator/10.0/">
	<!ENTITY ns_graphs "http://ns.adobe.com/Graphs/1.0/">
	<!ENTITY ns_vars "http://ns.adobe.com/Variables/1.0/">
	<!ENTITY ns_imrep "http://ns.adobe.com/ImageReplacement/1.0/">
	<!ENTITY ns_sfw "http://ns.adobe.com/SaveForWeb/1.0/">
	<!ENTITY ns_custom "http://ns.adobe.com/GenericCustomNamespace/1.0/">
	<!ENTITY ns_adobe_xpath "http://ns.adobe.com/XPath/1.0/">
]>
<svg version="1.1" id="Layer_1" xmlns:x="&ns_extend;" xmlns:i="&ns_ai;" xmlns:graph="&ns_graphs;"
	 xmlns="http://www.w3.org/2000/svg" xmlns:xlink="http://www.w3.org/1999/xlink" x="0px" y="0px" viewBox="0 0 120 120"
	 style="enable-background:new 0 0 120 120;" xml:space="preserve">
<style type="text/css">
	.st0{clip-path:url(#SVGID_2_);fill:#88919A;}
	.st1{fill:#4DB864;}
	.st2{fill:#0074B9;}
	.st3{fill:#FFFFFF;}
	.st4{fill:#343536;}
	.st5{fill:#82D0F4;}
	.st6{fill:#00A0E1;}
	.st7{fill:#E3E5E9;}
	.st8{fill:#CDD2D9;}
	.st9{fill:#DF4145;}
	.st10{fill-rule:evenodd;clip-rule:evenodd;fill:#0071B2;}
	.st11{clip-path:url(#SVGID_4_);fill-rule:evenodd;clip-rule:evenodd;fill:#01B061;}
	.st12{clip-path:url(#SVGID_6_);fill-rule:evenodd;clip-rule:evenodd;fill:#0071B2;}
	.st13{clip-path:url(#SVGID_8_);fill-rule:evenodd;clip-rule:evenodd;fill:#0071B2;}
	.st14{fill-rule:evenodd;clip-rule:evenodd;fill:#01B061;}
	.st15{clip-path:url(#SVGID_10_);fill-rule:evenodd;clip-rule:evenodd;fill:#01B061;}
	.st16{clip-path:url(#SVGID_12_);fill-rule:evenodd;clip-rule:evenodd;fill:#01B061;}
	.st17{fill-rule:evenodd;clip-rule:evenodd;fill:#79838A;}
	.st18{fill-rule:evenodd;clip-rule:evenodd;fill:#798289;}
	.st19{fill-rule:evenodd;clip-rule:evenodd;fill:#0071B3;}
	.st20{fill-rule:evenodd;clip-rule:evenodd;fill:#7A848B;}
	.st21{fill-rule:evenodd;clip-rule:evenodd;fill:#79828A;}
	.st22{fill-rule:evenodd;clip-rule:evenodd;fill:#09B162;}
	.st23{fill-rule:evenodd;clip-rule:evenodd;fill:#7A848A;}
	.st24{fill-rule:evenodd;clip-rule:evenodd;fill:#7B858B;}
	.st25{fill-rule:evenodd;clip-rule:evenodd;fill:#77838B;}
	.st26{fill-rule:evenodd;clip-rule:evenodd;fill:#7C868D;}
	.st27{fill-rule:evenodd;clip-rule:evenodd;fill:#7E878F;}
	.st28{fill-rule:evenodd;clip-rule:evenodd;fill:#7F8A90;}
	.st29{fill-rule:evenodd;clip-rule:evenodd;fill:#DCE7E4;}
	.st30{fill-rule:evenodd;clip-rule:evenodd;fill:#7E8C90;}
	.st31{fill-rule:evenodd;clip-rule:evenodd;fill:#CBD9E5;}
	.st32{fill-rule:evenodd;clip-rule:evenodd;fill:#9099A0;}
	.st33{fill-rule:evenodd;clip-rule:evenodd;fill:#8B949C;}
	.st34{fill-rule:evenodd;clip-rule:evenodd;fill:#0079B2;}
	.st35{fill-rule:evenodd;clip-rule:evenodd;fill:#0075B2;}
	.st36{fill-rule:evenodd;clip-rule:evenodd;fill:#649ECB;}
	.st37{fill-rule:evenodd;clip-rule:evenodd;fill:#8F9AA5;}
	.st38{fill-rule:evenodd;clip-rule:evenodd;fill:#8C969D;}
	.st39{fill-rule:evenodd;clip-rule:evenodd;fill:#127DB1;}
	.st40{fill-rule:evenodd;clip-rule:evenodd;fill:#8E969F;}
	.st41{fill-rule:evenodd;clip-rule:evenodd;fill:#9AA3AB;}
	.st42{fill-rule:evenodd;clip-rule:evenodd;fill:#518AB5;}
	.st43{fill-rule:evenodd;clip-rule:evenodd;fill:#9098A0;}
	.st44{fill-rule:evenodd;clip-rule:evenodd;fill:#6CA4CD;}
	.st45{fill-rule:evenodd;clip-rule:evenodd;fill:#B7CDE1;}
	.st46{fill-rule:evenodd;clip-rule:evenodd;fill:#FDFDFE;}
	.st47{fill-rule:evenodd;clip-rule:evenodd;fill:#FCFCFD;}
	.st48{fill-rule:evenodd;clip-rule:evenodd;fill:#FBFCFC;}
	.st49{fill-rule:evenodd;clip-rule:evenodd;fill:#4F7A98;}
	.st50{fill-rule:evenodd;clip-rule:evenodd;fill:#8D969E;}
</style>
<metadata>
	<sfw  xmlns="&ns_sfw;">
		<slices></slices>
		<sliceSourceBounds  bottomLeftOrigin="true" height="16383" width="16383" x="-8131" y="-8252"></sliceSourceBounds>
	</sfw>
</metadata>
<g>
	<g>
		<defs>
			<rect id="SVGID_1_" x="10.6" y="42.7" width="99.4" height="27.5"/>
		</defs>
		<clipPath id="SVGID_2_">
			<use xlink:href="#SVGID_1_"  style="overflow:visible;"/>
		</clipPath>
		<path class="st0" d="M33.5,56.6c-1.2-4.3-0.4-7.4,1.1-9.7L31.8,44H16.6l-2.7,2.8c2.4,5,0.7,8.2,0.6,9.6l0,0
			c-1.7-1.6-2.6-0.7-2.8,0l0,0c-0.6,2-1.1,2.7-1.1,2.7c0.3,0.8,0.7,1,0.9,1l0,0c0.1,3.9,3.5,5.9,7.3,7.2c3.9,1.3,5.1,3,5.1,3
			s2.3-2.3,6.2-3.3c4-1.5,6.4-4.2,6.2-6.8l0,0c0.8,0,0.9-0.2,1.1-1c0,0-0.6-0.4-1.1-2.3l0,0c0-0.3-0.1-0.6-0.3-1
			C34.9,54.7,33.6,56.5,33.5,56.6L33.5,56.6L33.5,56.6z"/>
	</g>
</g>
<path class="st1" d="M12.7,57.4c0.1-0.1,0.6-0.9,0.6-0.2c0.1,0.7-1.2,0.2-1.3-0.7C11.9,56,14,55,14.3,58l0,0
	c0.2,4.3,4.9,5.5,6.9,6.3c2.4,1.3,2.6,1.8,2.6,1.8s1.1-1.1,2.7-1.7c4.1-1.5,7.2-2.9,7.1-6.6c0.2-2.6,3.1-2.7,1.8-0.6
	c-0.3,0.6-1.8,0.8-0.7-0.4l0.4,0.7c0.1,0,0.2-0.1,0.2-0.2c0,0-0.4-1.1-0.5-1.1c-0.4,0.1-0.7,0.6-0.7,1.1c0.1,1,1.8,2.5,1.7,3.4
	C35.2,65.1,29,67,29,67c-2.9,0.8-5,2.9-5,2.9C22.6,68,18,66.7,18,66.7c-5.8-2.4-6.2-5.4-6.1-6.4c0.1-0.7,1.4-1.9,1.4-1.9
	c0.3-0.4,0.4-1.6-0.3-1.9c-0.1,0-0.6,0.8-0.6,0.8C12.5,57.3,12.7,57.4,12.7,57.4L12.7,57.4z"/>
<path class="st2" d="M14.9,58.3c0.2,3.2,3.2,4.3,6.2,5.3c1.8,0.7,2.8,1.7,2.8,1.7c1.3-1.1,1.9-1.3,3-1.7c3.3-1.1,6.8-2.3,6.1-6.9
	c-1.7-6.9,1.1-9.6,1.1-9.6l-2.5-2.5H16.7l-2.2,2.4c2,4.3,0.9,7.7,0.6,9.5c-0.3,1.5-0.2,0.8-0.3,2V58.3L14.9,58.3z"/>
<polygon class="st3" points="24,45.9 24.1,45.6 23.7,45.4 24.1,45.4 24.3,45.1 24.4,45.4 24.7,45.4 24.4,45.6 24.5,45.9 24.3,45.8 
	"/>
<path class="st3" d="M24,49.7c2.4,0,4.3,1.9,4.3,4.2c0,2.3-1.9,4.1-4.3,4.1s-4.3-1.8-4.3-4.1C19.8,51.6,21.7,49.7,24,49.7L24,49.7z"
	/>
<path class="st4" d="M19.8,54c0-2.3,1.9-4.2,4.2-4.2c2.4,0,4.3,1.9,4.3,4.2c0,2.3-1.9,4.1-4.3,4.1S19.8,56.2,19.8,54L19.8,54z
	 M19.8,54c0,2.3,1.9,4.1,4.3,4.1s4.3-1.8,4.3-4.1c0-2.3-1.9-4.2-4.3-4.2S19.8,51.6,19.8,54L19.8,54z"/>
<path class="st5" d="M24,50c2.2,0,4,1.7,4,3.9c0,2.2-1.8,3.9-4,3.9s-4-1.7-4-3.9S21.8,50,24,50L24,50z"/>
<path class="st6" d="M20.1,54c0-2.1,1.7-3.8,3.9-3.8c2.2,0,3.9,1.7,3.9,3.8c0,2.1-1.7,3.8-3.9,3.8C21.8,57.8,20.1,56,20.1,54
	L20.1,54z M19.9,54c0,2.2,1.8,4,4.1,4c2.3,0,4.1-1.8,4.1-4c0-2.2-1.8-4-4.1-4C21.7,49.9,19.9,51.7,19.9,54L19.9,54z"/>
<path class="st6" d="M22.9,57.6c-0.1,0-0.1,0.1-0.1,0.1c0.1,0.1,0.1,0.1,0.2,0.1c1-0.6,1.2-0.5,2.2,0c0.1,0.1,0.1,0,0.2-0.1
	c0-0.1,0-0.1-0.1-0.2C24.2,57,23.9,56.9,22.9,57.6L22.9,57.6z"/>
<path class="st6" d="M20,53.8c-0.1,0-0.1,0.1-0.1,0.1c0,0.1,0.1,0.1,0.1,0.1h8c0.1,0,0.1-0.1,0.1-0.1s-0.1-0.1-0.1-0.1H20L20,53.8z"
	/>
<path class="st6" d="M25.3,50.1c-0.9,0.6-1.4,0.7-2.4,0c-0.1-0.1-0.1,0-0.2,0c-0.1,0.1,0,0.1,0,0.2c1.1,0.8,1.7,0.6,2.6,0
	c0.1-0.1,0.1-0.1,0.1-0.2C25.4,50.1,25.3,50.1,25.3,50.1L25.3,50.1z"/>
<path class="st6" d="M21.6,50.6c-0.1,0.1,0,0.1,0.1,0.2c1.7,1.1,3,1.4,4.8,0.1c0.1-0.1,0.1-0.1,0-0.2c-0.1-0.1-0.1-0.1-0.2,0
	c-1.7,1.3-2.9,1-4.5-0.1C21.7,50.6,21.7,50.6,21.6,50.6L21.6,50.6z"/>
<path class="st6" d="M20.8,51.3c-0.1,0.1,0,0.1,0,0.2c2.9,2,4.5,1.1,5.8,0.3l0.4-0.2c0.1-0.1,0.1-0.1,0.1-0.2
	c-0.1-0.1-0.1-0.1-0.2-0.1l-0.4,0.2c-1.3,0.8-2.8,1.6-5.6-0.3C20.9,51.2,20.9,51.3,20.8,51.3L20.8,51.3z"/>
<path class="st6" d="M20.4,55.4c-0.1,0.1-0.1,0.1-0.1,0.2c0.1,0.1,0.1,0.1,0.2,0.1c0.6-0.3,3.8-1.9,7.2,0c0.1,0.1,0.1,0,0.2-0.1
	c0.1-0.1,0-0.1-0.1-0.2C24.3,53.4,21,55,20.4,55.4L20.4,55.4z"/>
<path class="st6" d="M20.9,56.4c-0.1,0-0.1,0.1-0.1,0.2s0.1,0.1,0.2,0.1c3-1.4,3.3-1.3,5.8-0.2l0.2,0.1c0.1,0,0.1,0,0.2-0.1
	c0-0.1,0-0.1-0.1-0.2l-0.2-0.1C24.3,55.1,24,55,20.9,56.4L20.9,56.4z"/>
<path class="st6" d="M25.1,50.4c1.1,0.6,2.2,2.1,2.2,3.7c0,1.3-0.8,2.5-2.4,3.4l0.1,0.2c2-1.2,2.5-2.6,2.5-3.6
	c0-1.7-1.2-3.3-2.3-3.9L25.1,50.4L25.1,50.4z"/>
<path class="st6" d="M24.8,50.6c1,0.9,1.5,2.1,1.5,3.3c0,1.3-0.6,2.5-1.5,3.5l0.2,0.2c1-1,1.6-2.3,1.6-3.6c0-1.3-0.6-2.5-1.6-3.5
	L24.8,50.6L24.8,50.6z"/>
<path class="st6" d="M24.5,50.6c1.3,2,1.1,5.3-0.1,6.6l0.2,0.2c1.2-1.4,1.5-4.7,0.1-6.9L24.5,50.6L24.5,50.6z"/>
<path class="st6" d="M23.6,57.4l0.2-0.1c-0.6-1-2-3.5-0.2-6.6l-0.2-0.1C21.6,53.8,22.9,56.4,23.6,57.4L23.6,57.4z"/>
<path class="st6" d="M23.2,57.5l0.2-0.2c-2.1-2.2-2.1-4.7-0.1-6.8l-0.2-0.2C21.1,52.7,21.1,55.2,23.2,57.5L23.2,57.5z"/>
<path class="st6" d="M20.6,54c-0.1,1.1,0.3,2.5,2.4,3.8l0.1-0.2c-1.5-0.9-2.3-2.1-2.2-3.5c0.1-1.7,1.3-3.1,2.2-3.6l-0.1-0.2
	C21.9,50.7,20.7,52.3,20.6,54L20.6,54z"/>
<path class="st7" d="M24,56.2v1.1V56.2z"/>
<polygon class="st6" points="23.9,56.2 24.1,56.2 24.1,57.3 23.9,57.3 "/>
<path class="st6" d="M23.9,53.6v3.4C23.9,57,24,57,24,57c0.1,0,0.1-0.1,0.1-0.1v-3.4c0-0.1-0.1-0.1-0.1-0.1
	C24,53.4,23.9,53.5,23.9,53.6L23.9,53.6z"/>
<path class="st3" d="M28.1,55.3c3.5,2,2.9,3.1-4.5-1.3c-3.4-2-9.1-5.8-2.7-2.7L21,51c-7.2-3.3-0.7,1.1,2.4,3c8,4.9,8.7,3.3,4.8,1
	L28.1,55.3L28.1,55.3z"/>
<path class="st3" d="M27.3,51.2c4.1-2.4,4.4-1-3.2,3.1c-3.5,1.8-9.9,4.9-4,1.1L20,55.2c-6.4,4.5,0.8,1,4.1-0.7c8.3-4.4,7.4-6,3-3.4
	L27.3,51.2L27.3,51.2z"/>
<polygon class="st4" points="22,53.3 21.7,53.3 20.6,55.6 20.6,55.6 22.5,55.6 23.6,55.6 23.7,55.6 23.6,55.7 23.7,55.7 24.3,55.7 
	24.4,55.7 24.3,55.6 26.3,55.6 27.5,55.6 27.5,55.6 27.5,55.5 26.3,53.3 25.4,53.3 "/>
<path class="st4" d="M22,53.3c0,0,4.2,0,4.3,0c0,0.1,1.2,2.2,1.2,2.2l0,0l0,0h-1.2h-2v0.1v0.1l0,0h-0.6v-0.1l-0.1-0.1h-1.1
	c0,0-1.9,0-2,0l0,0c0,0,1.2-2.2,1.2-2.2C21.8,53.3,22,53.3,22,53.3L22,53.3z M25.4,53.2h-3.6h-0.1l-1.2,2.3v0.1l0.1,0.1h3.1v0.1
	l0.1,0.1h0.7l0.1-0.1v-0.1l0,0c0.1,0,3.1,0,3.1,0l0.1-0.1v-0.1l-0.1-0.1l-1.2-2.2h-0.1L25.4,53.2L25.4,53.2L25.4,53.2z"/>
<polygon class="st4" points="20.6,55.6 20.6,55.6 20.6,55.6 20.6,55.7 23.6,55.7 23.7,55.7 23.6,55.7 23.6,55.7 23.6,55.7 
	23.6,55.7 23.6,55.7 23.7,55.8 24.3,55.8 24.3,55.8 24.4,55.7 24.4,55.7 24.4,55.7 24.4,55.7 24.4,55.7 24.4,55.7 24.4,55.7 
	27.5,55.7 27.5,55.6 27.5,55.6 27.5,55.6 27.5,55.6 27.5,55.6 27.5,55.6 24.3,55.6 24.3,55.6 24.3,55.6 24.3,55.6 24.3,55.7 
	24.3,55.7 24.3,55.7 23.7,55.7 23.7,55.7 23.7,55.7 23.7,55.6 23.7,55.6 23.7,55.6 23.7,55.6 23.7,55.6 20.6,55.6 20.6,55.6 
	20.6,55.6 "/>
<path class="st4" d="M20.6,55.6C20.6,55.6,20.6,55.6,20.6,55.6c0.1,0,3.1,0,3.1,0l0,0h-0.1v0.1h0.6l0.1-0.1l0,0c0,0,3.1,0,3.1,0l0,0
	l0,0c-0.1,0-3.1,0-3.1,0l-0.1,0.1v0.1l0,0l-0.1,0.1h-0.6l0,0l0.1-0.1v-0.1L20.6,55.6L20.6,55.6L20.6,55.6z M27.4,55.6h-3.2l-0.1,0.1
	v0.1c-0.1,0-0.4,0-0.5,0v-0.1l-0.1-0.1h-3.1l0,0l0,0h-0.1v0.1l0.1,0.1c0,0,2.9,0,3,0l0,0v0.1l0.1,0.1h0.1l0.1,0.1h0.7l0.1-0.1h0.1
	v-0.1l0,0c0.1,0,3,0,3,0l0.1-0.1l0,0l0,0l0.1-0.1v-0.1H27.4L27.4,55.6L27.4,55.6z"/>
<polygon class="st3" points="22.1,53.2 21.8,53.3 20.8,55.5 21.3,55.5 21.7,55.4 22.3,55.4 22.9,55.2 23.1,55.2 23.4,55.2 
	23.6,55.3 23.7,55.4 23.7,55.6 23.8,55.6 24.3,55.6 24.3,55.6 24.3,55.5 24.4,55.3 24.5,55.2 24.7,55.1 24.9,55.1 25.3,55.2 
	25.6,55.3 26.2,55.4 26.8,55.5 27.2,55.5 26.2,53.3 25.9,53.2 24.1,54.3 "/>
<path class="st4" d="M21.8,53.3c0,0,0.2-0.1,0.2-0.1c0.1,0,2,1.1,2,1.1h0.1l1.8-1.1c0.1,0,0.2,0.1,0.2,0.1s1,2,1,2.1
	c-0.1,0-0.4,0-0.4,0l-0.6-0.1l-0.6-0.1l-0.3-0.1l-0.3-0.1h-0.2l-0.2,0.1l-0.2,0.1l-0.1,0.2c0,0,0,0.1-0.1,0.2c-0.1,0-0.4,0-0.4,0
	l-0.1-0.2l-0.1-0.1l-0.2-0.1l-0.2-0.1l-0.3,0.1l-0.6,0.1l-0.6,0.1l-0.4,0.1c0,0-0.3,0-0.4,0C20.9,55.3,21.8,53.3,21.8,53.3
	L21.8,53.3z M21.8,53.3l-1.1,2.2l0.1,0.1h0.5l0.4-0.1l0.6-0.1l0.6-0.1l0.3-0.1l0.2,0.1l0.2,0.1l0.1,0.1l0.1,0.2l0.1,0.1h0.1h0.4h0.1
	l0.1-0.2l0.1-0.2l0.2-0.1l0.2-0.1H25l0.3,0.1l0.3,0.1l0.6,0.1l0.6,0.1h0.4l0.1-0.1l-1.1-2.1L26,53.2H26l-1.8,1.1c-0.1,0-2-1.1-2-1.1
	h-0.1L21.8,53.3L21.8,53.3z"/>
<polygon class="st4" points="24,53.2 24,53.2 24,55.4 24,55.4 "/>
<polygon class="st4" points="20.8,55.4 21.2,55.2 21.2,55.2 20.8,55.5 "/>
<polygon class="st4" points="26.8,55.3 27.2,55.5 27.2,55.4 26.9,55.2 "/>
<polygon class="st4" points="22,53.2 21.1,55.2 21.5,55.2 21.9,55.1 22.3,55.1 22.8,55 23.1,54.9 23.2,54.9 23.5,55 23.6,55 
	23.8,55.1 23.9,55.2 24,55.3 24,55.4 24.1,55.3 24.2,55.1 24.3,55 24.5,55 24.7,54.9 24.9,54.9 25,54.9 25.4,55 26,55.1 26.6,55.2 
	26.8,55.2 26.9,55.3 26,53.2 25.7,53.2 25.4,53.2 25.2,53.1 25,53.1 24.8,53 24.7,52.9 24.5,52.9 24.4,52.9 24.3,52.9 24.2,53 
	24.1,53.1 24.1,53.1 24,53.2 24,53.2 24,53.1 24,53.1 23.9,53 23.9,53 23.7,52.9 23.6,52.9 23.4,52.9 23.2,53 23,53 22.9,53.1 
	22.7,53.1 22.5,53.1 22.2,53.2 22.1,53.2 "/>
<path class="st4" d="M22.1,53.2h0.1l0.2-0.1l0.2-0.1l0.2-0.1L23,53l0.2-0.1l0.2-0.1h0.2l0.1,0.1l0.1,0.1v0.1l0.1,0.1v0.1l0.1,0.1H24
	l0.1-0.1h0.1l0.1-0.1h0.1h0.1h0.3l0.2,0.1l0.2,0.1l0.2,0.1l0.3,0.1h0.3l0.2,0.1c0,0.1,0.8,1.8,0.9,2l-0.3-0.1L26,55.2L25.4,55L25,55
	h-0.4l-0.2-0.1L24.3,55l-0.1,0.1L24,55.2v0.1c0-0.1-0.1-0.1-0.1-0.1l-0.1-0.1l-0.1-0.1L23.6,55L23.5,55l-0.2-0.1H23h-0.2L22.3,55
	l-0.4,0.1l-0.4,0.1c0,0-0.2,0-0.2,0.1C21.2,55.1,22,53.2,22.1,53.2C22.1,53.2,22.1,53.2,22.1,53.2L22.1,53.2z M23.2,52.9L23,53
	l-0.2,0.1l-0.2,0.1l-0.2,0.1l-0.3-0.1H22H22l-0.8,2.1l0.1,0.1l0.3-0.1l0.4-0.1l0.4-0.1l0.4-0.1l0.3-0.1h0.2l0.2,0.1l0.2,0.1l0.2,0.1
	l0.1,0.1l0.1,0.1l0.1,0.1H24l0.1-0.1l0.1-0.2l0.1-0.1l0.2-0.1l0.2-0.1H25l0.4,0.1l0.6,0.2l0.5,0.1l0.3,0.1l0.1,0.1l0.1-0.1L26,53.2
	l0,0l-0.3-0.1h-0.3l-0.3-0.1L25,53l-0.2-0.1l-0.2-0.1h-0.2h-0.3l-0.1,0.1l-0.1,0.1H24c0,0,0,0-0.1,0.1l0,0l-0.1-0.1V53l-0.1-0.1
	l-0.1-0.1l-0.1-0.1h-0.2L23.2,52.9L23.2,52.9z"/>
<polygon class="st8" points="22.1,53.2 21.1,55.2 21.5,55.2 22,55.1 22.3,55 22.8,54.9 23.1,54.8 23.2,54.8 23.5,54.9 23.6,55 
	23.8,55.1 23.9,55.1 24,55.2 24,55.4 24.1,55.2 24.2,55.1 24.3,55 24.5,54.9 24.7,54.8 24.9,54.8 25,54.8 25.4,55 26,55.1 
	26.5,55.2 26.8,55.2 26.9,55.2 26,53.2 25.7,53.2 25.4,53.1 25.2,53.1 25,53 24.8,52.9 24.7,52.9 24.5,52.9 24.4,52.9 24.3,52.9 
	24.2,53 24.1,53 24.1,53.1 24,53.1 24,53.2 24,53.1 24,53 23.9,53 23.9,52.9 23.7,52.9 23.6,52.9 23.4,52.9 23.2,52.9 23,53 
	22.9,53.1 22.7,53.1 22.5,53.1 22.2,53.1 22.1,53.2 "/>
<path class="st4" d="M24.1,53.2L24.1,53.2L24.1,53.2l0.2-0.2l0.1-0.1l0.1-0.1h0.2l0.2,0.1h0.2l0.2,0.1l0.2,0.1l0.2,0.1l0.3,0.1
	c0,0,0.2,0,0.3,0c0,0.1,0.8,1.8,0.8,2l-0.3-0.1H26l-0.6-0.2L25,54.8h-0.3l-0.2,0.1L24.3,55l-0.2,0.1L24,55.2c0,0,0,0,0,0.1
	c0-0.1-0.1-0.1-0.1-0.1l-0.1-0.1l-0.1-0.1L23.7,55L23.5,55l-0.2-0.1h-0.2l-0.3-0.1L22.3,55L22,55.1l-0.4,0.1c0,0-0.2,0-0.3,0.1
	c0.1-0.1,0.9-1.9,0.9-2l0,0l0.2-0.1l0.3-0.1h0.2l0.1-0.1L23,53l0.2-0.1l0.2-0.1h0.3l0.1,0.1l0.1,0.1l0.1,0.1L24.1,53.2L24.1,53.2
	L24.1,53.2L24.1,53.2z M24.3,52.9L24.3,52.9L24.1,53c0,0-0.1,0.1-0.1,0.1L24,53.1l-0.1-0.1l-0.1-0.1l-0.1-0.1h-0.1h-0.2l-0.2,0.1
	l-0.2,0.1L22.7,53l-0.1,0.1h-0.2l-0.2,0.1l-0.2,0.1H22l-0.9,2l0.1,0.1l0.3-0.1l0.4-0.1l0.4-0.1l0.4-0.1l0.3-0.1h0.2l0.2,0.1l0.2,0.1
	l0.2,0.1l0.2,0.2l0.1,0.2h0.1l0.1-0.1l0.1-0.2l0.1-0.1l0.2-0.1l0.2-0.1H25l0.4,0.1l0.6,0.2l0.4,0.1l0.3,0.1l0.1,0.1l0.1-0.1L26,53.2
	H26h-0.3l-0.3-0.1l-0.2-0.1L25,53l-0.2-0.1h-0.2l-0.2-0.1h-0.2L24.3,52.9L24.3,52.9z"/>
<polygon class="st4" points="24,53.2 24,53.2 24,55.4 24,55.4 "/>
<path class="st3" d="M15.5,47.5h-0.4v-0.8h0.4v0.1l0,0h-0.2v0.5h0.2l0,0V47.5L15.5,47.5z M16.3,47.1v0.1c-0.1,0-0.1,0-0.1,0
	c-0.1,0-0.1,0.1-0.1,0.1c0,0.1,0,0.1,0.1,0.1c0,0,0,0,0.1,0v0.1c-0.1,0-0.1,0-0.1,0c-0.2,0-0.2-0.1-0.2-0.2s0.1-0.2,0.2-0.2
	C16.2,47.1,16.2,47.1,16.3,47.1L16.3,47.1z M16.3,46.8v0.1c-0.1,0.1-0.1,0.1-0.1,0.1H16c0-0.1,0.1-0.1,0.1-0.2
	C16.1,46.9,16.2,46.8,16.3,46.8L16.3,46.8L16.3,46.8z M15.9,47.1c0,0.1-0.1,0.2-0.1,0.3c-0.1,0.1-0.2,0.1-0.3,0.1h-0.1v-0.1
	c0.1,0,0.1-0.1,0.1-0.1c0.1-0.1,0.1-0.1,0.1-0.2c0-0.1,0-0.2-0.1-0.2c-0.1-0.1-0.1-0.1-0.1-0.1v-0.2h0.1c0.1,0,0.2,0,0.3,0.1
	C15.8,46.8,15.9,46.9,15.9,47.1L15.9,47.1L15.9,47.1z M17.5,46.8C17.5,46.8,17.5,46.8,17.5,46.8C17.5,46.8,17.5,46.8,17.5,46.8
	c-0.1,0-0.1,0-0.1,0.1c-0.1,0-0.1,0-0.1,0.1v0.1h0.1v0.1h-0.1v0.5h-0.2V47h-0.1v-0.1h0.1v-0.1c0-0.1,0.1-0.2,0.2-0.2
	c0.1,0,0.1,0,0.2,0L17.5,46.8L17.5,46.8z M17.1,46.8L17.1,46.8C17,46.8,17,46.8,17.1,46.8C17,46.8,17,46.8,17.1,46.8
	C17,46.8,17,46.8,17,46.9v0.1h0.1v0.1H17v0.5h-0.2V47h-0.1v-0.1h0.1v-0.1c0-0.1,0.1-0.2,0.2-0.2c0.1,0,0.1,0,0.1,0L17.1,46.8
	L17.1,46.8L17.1,46.8z M16.3,47.5v-0.1c0,0,0.1,0,0.1-0.1l0.1-0.1v-0.1h-0.1l-0.1,0.1v-0.1h0.1c0.1,0,0.1,0,0.1-0.1
	c0.1,0,0.1,0,0.1-0.1c0-0.1-0.1-0.1-0.1-0.1l0,0v-0.1l0,0c0.1,0,0.2,0.1,0.2,0.1c0.1,0,0.1,0.1,0.1,0.2v0.3c0,0.1,0,0.1,0,0.1
	s0.1,0.1,0.1,0c0,0.1,0,0.1,0,0.1h-0.1c-0.1,0-0.1,0-0.1,0c-0.1,0-0.1-0.1-0.1-0.1l0,0l0,0C16.4,47.5,16.4,47.5,16.3,47.5L16.3,47.5
	L16.3,47.5z M17.9,46.8V47c-0.1,0-0.1,0.1-0.1,0.2c0,0.1,0.1,0.2,0.1,0.2v0.1c-0.2,0-0.3-0.1-0.3-0.3C17.5,46.9,17.6,46.8,17.9,46.8
	L17.9,46.8L17.9,46.8z M17.9,47.5v-0.1l0,0c0.1,0,0.2-0.1,0.2-0.2c0-0.2-0.1-0.2-0.2-0.2l0,0v-0.2l0,0c0.2,0,0.3,0.1,0.3,0.3
	C18.2,47.4,18.1,47.5,17.9,47.5L17.9,47.5L17.9,47.5z M18.6,46.9V47l0,0c-0.1,0-0.1,0.1-0.1,0.2c0,0.1,0.1,0.2,0.1,0.2l0,0v0.2h-0.1
	c-0.1,0-0.2-0.1-0.2-0.1c0-0.1,0-0.2,0-0.3c0-0.1,0-0.2,0.1-0.2C18.4,46.9,18.4,46.8,18.6,46.9C18.5,46.8,18.6,46.8,18.6,46.9
	L18.6,46.9L18.6,46.9z M21.5,47.5c-0.1,0-0.1,0-0.2,0s-0.1,0-0.1-0.1c-0.1,0-0.1-0.1-0.1-0.1V47H21v-0.1h0.1v-0.2h0.2v0.2h0.1V47
	h-0.1v0.3c0,0.1,0,0.1,0,0.1h0.1c0.1,0,0.1,0,0.1,0L21.5,47.5L21.5,47.5L21.5,47.5z M20.9,47.5h-0.2v-0.4c0-0.1,0-0.1-0.1-0.1
	c-0.1,0-0.1,0-0.1,0.1c-0.1,0-0.1,0-0.1,0.1v0.4h-0.2v-0.6h0.2v0.1l0,0c0.1-0.1,0.1-0.1,0.2-0.1c0.1,0,0.1,0.1,0.2,0.1
	s0.1,0.1,0.1,0.1L20.9,47.5L20.9,47.5L20.9,47.5z M20.2,47.5H20v-0.8h0.2V47.5L20.2,47.5L20.2,47.5z M19.5,47.5h-0.2v-0.8h0.2V47.5
	L19.5,47.5L19.5,47.5z M19.3,47.5h-0.2v-0.6h0.2V47.5L19.3,47.5L19.3,47.5z M19.3,46.8h-0.2v-0.2h0.2V46.8L19.3,46.8L19.3,46.8z
	 M18.6,47.5v-0.2c0.1,0,0.2-0.1,0.2-0.2S18.7,47,18.6,47v-0.1c0.1,0,0.1,0.1,0.2,0.1l0,0v-0.3h0.2v0.8h-0.2v-0.1l0,0
	C18.7,47.5,18.7,47.5,18.6,47.5L18.6,47.5L18.6,47.5z M21.8,46.8v0.1c-0.1,0-0.1,0.1-0.2,0.2h0.2v0.1h-0.2c0,0.1,0.1,0.2,0.2,0.2
	v0.1c-0.2,0-0.3-0.1-0.3-0.3c0-0.1,0.1-0.2,0.1-0.2C21.6,46.9,21.7,46.8,21.8,46.8L21.8,46.8L21.8,46.8L21.8,46.8z M23.4,47.5h-0.2
	v-0.4c0-0.1-0.1-0.1-0.1-0.1c-0.1,0-0.1,0-0.1,0.1C23,47.1,23,47.1,23,47.1v0.4h-0.2v-0.6H23v0.1l0,0c0-0.1,0.1-0.1,0.2-0.1
	c0.1,0,0.1,0.1,0.2,0.1c0,0.1,0,0.1,0,0.2L23.4,47.5L23.4,47.5z M22.7,47.1C22.6,47.1,22.6,47.1,22.7,47.1c-0.1,0-0.2,0-0.2,0.1
	c-0.1,0.1-0.1,0.1-0.1,0.1v0.3h-0.2v-0.6h0.2V47l0,0c0.1-0.1,0.1-0.2,0.2-0.2c0.1,0,0.1,0,0.1,0.1V47.1L22.7,47.1L22.7,47.1z
	 M21.8,47.2v-0.1H22c0-0.1,0-0.1,0-0.1C21.9,47,21.9,47,21.8,47l0,0v-0.2c0.1,0,0.2,0.1,0.2,0.1c0.1,0.1,0.1,0.2,0.1,0.3L21.8,47.2
	L21.8,47.2L21.8,47.2z M21.8,47.5v-0.1l0,0c0.1,0,0.1,0,0.1-0.1c0.1,0,0.1-0.1,0.1-0.1h0.2c0,0.1-0.1,0.1-0.1,0.1
	C22,47.5,22,47.5,21.8,47.5L21.8,47.5L21.8,47.5L21.8,47.5z M23.7,47.1v0.1c-0.1,0-0.1,0-0.1,0c-0.1,0-0.1,0.1-0.1,0.1
	c0,0.1,0,0.1,0.1,0.1h0.1v0.1c-0.1,0-0.1,0-0.1,0c-0.2,0-0.2-0.1-0.2-0.2s0.1-0.2,0.2-0.2C23.7,47.1,23.7,47.1,23.7,47.1L23.7,47.1
	L23.7,47.1z M23.7,46.8v0.1c-0.1,0.1-0.1,0.1-0.1,0.1h-0.2c0-0.1,0.1-0.1,0.1-0.2C23.6,46.9,23.6,46.8,23.7,46.8L23.7,46.8
	L23.7,46.8z M24.8,47.5h-0.2v-0.6h0.2V47.5L24.8,47.5z M24.8,46.8h-0.2v-0.2h0.2V46.8L24.8,46.8L24.8,46.8z M24.5,47.5
	c-0.1,0-0.1,0-0.1,0c-0.1,0-0.1,0-0.2-0.1c0,0-0.1-0.1-0.1-0.1V47h-0.1v-0.1h0.1v-0.2h0.2v0.2h0.1V47h-0.1v0.3c0,0.1,0,0.1,0.1,0.1
	c0,0,0,0,0.1,0h0.1L24.5,47.5L24.5,47.5L24.5,47.5z M23.7,47.5v-0.1c0.1,0,0.1,0,0.1-0.1c0.1,0,0.1-0.1,0.1-0.1v-0.1h-0.1l-0.1,0.1
	v-0.1c0.1,0,0.1,0,0.1,0c0.1,0,0.1,0,0.1-0.1c0,0,0,0,0-0.1c0-0.1-0.1-0.1-0.1-0.1l0,0v-0.1l0,0c0.1,0,0.2,0.1,0.2,0.1
	c0.1,0,0.1,0.1,0.1,0.2v0.3c0,0.1,0,0.1,0,0.1c0.1,0,0.1,0.1,0.1,0c0,0.1,0,0.1,0,0.1H24c-0.1,0-0.1,0-0.1,0c-0.1,0-0.1-0.1-0.1-0.1
	l0,0l0,0C23.9,47.5,23.8,47.5,23.7,47.5L23.7,47.5L23.7,47.5z M25.3,46.8V47c-0.1,0-0.2,0.1-0.2,0.2c0,0.1,0.1,0.2,0.2,0.2v0.1
	c-0.2,0-0.3-0.1-0.3-0.3C24.9,46.9,25,46.8,25.3,46.8L25.3,46.8L25.3,46.8z M26.3,47.5h-0.2v-0.4c0-0.1-0.1-0.1-0.1-0.1
	c-0.1,0-0.1,0-0.1,0.1c-0.1,0.1-0.1,0.1-0.1,0.1v0.4h-0.2v-0.6h0.2v0.1l0,0c0.1-0.1,0.1-0.1,0.2-0.1c0.1,0,0.1,0.1,0.2,0.1
	c0.1,0,0.1,0.1,0.1,0.1V47.5L26.3,47.5L26.3,47.5z M25.3,47.5v-0.1l0,0c0.1,0,0.1-0.1,0.1-0.2c0-0.2-0.1-0.2-0.1-0.2l0,0v-0.2l0,0
	c0.2,0,0.3,0.1,0.3,0.3C25.6,47.4,25.5,47.5,25.3,47.5L25.3,47.5L25.3,47.5L25.3,47.5z M26.7,47.1v0.1h-0.1c-0.1,0-0.1,0.1-0.1,0.1
	c0,0.1,0.1,0.1,0.1,0.1c0.1,0,0.1,0,0.1,0v0.1c-0.1,0-0.1,0-0.1,0c-0.2,0-0.2-0.1-0.2-0.2s0.1-0.2,0.2-0.2
	C26.6,47.1,26.7,47.1,26.7,47.1L26.7,47.1L26.7,47.1z M26.7,46.8v0.1c-0.1,0.1-0.1,0.1-0.1,0.1h-0.2c0-0.1,0-0.1,0.1-0.2
	C26.6,46.9,26.6,46.8,26.7,46.8L26.7,46.8L26.7,46.8z M30.2,46.9L30,47.5h-0.2l-0.2-0.6h0.2l0.1,0.4l0,0l0.1-0.4H30.2L30.2,46.9z
	 M29.5,47.5h-0.2v-0.6h0.2V47.5L29.5,47.5L29.5,47.5z M29.5,46.8h-0.2v-0.2h0.2V46.8L29.5,46.8L29.5,46.8z M29.2,47.5h-0.2v-0.4
	c0-0.1-0.1-0.1-0.1-0.1c-0.1,0-0.1,0-0.1,0.1c-0.1,0.1-0.1,0.1-0.1,0.1v0.4h-0.2v-0.6h0.2v0.1l0,0c0.1-0.1,0.1-0.1,0.2-0.1
	c0.1,0,0.1,0.1,0.2,0.1c0.1,0,0.1,0.1,0.1,0.1V47.5L29.2,47.5L29.2,47.5z M28.5,47.2c0,0.1-0.1,0.2-0.1,0.2
	c-0.1,0.1-0.2,0.1-0.3,0.1c-0.1,0-0.2,0-0.3-0.1c-0.1-0.1-0.1-0.1-0.1-0.2v-0.4H28v0.5c0,0.1,0.1,0.1,0.2,0.1c0.1,0,0.2-0.1,0.2-0.1
	v-0.5h0.2L28.5,47.2L28.5,47.2L28.5,47.2z M27.3,47.5h-0.2v-0.8h0.2V47.5L27.3,47.5L27.3,47.5z M26.7,47.5v-0.1c0.1,0,0.1,0,0.1-0.1
	c0.1,0,0.1-0.1,0.1-0.1v-0.1h-0.1c0,0,0,0.1-0.1,0.1v-0.1c0.1,0,0.1,0,0.1,0c0.1,0,0.1,0,0.1-0.1c0,0,0,0,0-0.1
	c0-0.1-0.1-0.1-0.1-0.1c-0.1,0-0.1,0-0.1,0v-0.1h0.1c0.1,0,0.2,0.1,0.2,0.1c0.1,0,0.1,0.1,0.1,0.2v0.3c0,0.1,0,0.1,0.1,0.1
	c0,0,0,0.1,0,0c0,0.1,0,0.1,0,0.1H27c-0.1,0-0.1,0-0.1,0l-0.1-0.1l0,0l0,0C26.8,47.5,26.7,47.5,26.7,47.5L26.7,47.5L26.7,47.5z
	 M30.6,46.8v0.1c-0.1,0-0.1,0.1-0.1,0.2h0.1v0.1h-0.1c0,0.1,0.1,0.2,0.1,0.2v0.1c-0.2,0-0.3-0.1-0.3-0.3c0-0.1,0.1-0.2,0.1-0.2
	C30.4,46.9,30.5,46.8,30.6,46.8L30.6,46.8L30.6,46.8L30.6,46.8z M33.6,46.9l-0.2,0.6c-0.1,0.1-0.1,0.1-0.1,0.1
	c-0.1,0.1-0.1,0.1-0.2,0.1c-0.1,0-0.1,0-0.1,0v-0.1h0.1c0.1,0,0.1-0.1,0.1-0.1l-0.2-0.6h0.2l0.1,0.4l0,0l0.1-0.4L33.6,46.9
	L33.6,46.9z M32.9,47.5c-0.1,0-0.1,0-0.2,0c-0.1,0-0.1,0-0.1-0.1c-0.1,0-0.1-0.1-0.1-0.1V47h-0.1v-0.1h0.1v-0.2h0.2v0.2h0.2V47h-0.1
	v0.3c0,0.1,0,0.1,0,0.1h0.1c0.1,0,0.1,0,0.1,0L32.9,47.5L32.9,47.5L32.9,47.5z M32.4,47.5h-0.2v-0.6h0.2V47.5L32.4,47.5L32.4,47.5z
	 M32.4,46.8h-0.2v-0.2h0.2V46.8L32.4,46.8L32.4,46.8z M32.1,47.3c0,0.1-0.1,0.2-0.3,0.2s-0.3-0.1-0.3-0.2h0.2c0,0.1,0.1,0.1,0.1,0.1
	c0.1,0,0.1-0.1,0.1-0.1l-0.1-0.1c-0.1,0-0.1,0-0.1-0.1c-0.1,0-0.2-0.1-0.2-0.1c-0.1-0.1-0.1-0.1-0.1-0.2c0-0.1,0.1-0.1,0.1-0.1
	c0.1-0.1,0.1-0.1,0.2-0.1c0.1,0,0.2,0.1,0.2,0.1C32,46.9,32,46.9,32,47h-0.2c0-0.1-0.1-0.1-0.1-0.1c-0.1,0-0.1,0-0.1,0.1
	s0.1,0.1,0.2,0.1c0.1,0,0.1,0.1,0.2,0.1C32,47.2,32.1,47.2,32.1,47.3L32.1,47.3L32.1,47.3z M31.4,47.1
	C31.4,47.1,31.4,47.1,31.4,47.1c-0.1,0-0.1,0-0.2,0.1c-0.1,0-0.1,0.1-0.1,0.1v0.3H31v-0.6h0.2V47l0,0c0.1-0.1,0.1-0.2,0.2-0.2
	c0,0,0.1,0,0.1,0.1V47.1L31.4,47.1L31.4,47.1z M30.6,47.2v-0.1h0.1c0-0.1,0-0.1,0-0.1C30.6,47,30.6,47,30.6,47l0,0v-0.2
	c0.1,0,0.2,0.1,0.3,0.1c0.1,0.1,0.1,0.2,0.1,0.3L30.6,47.2L30.6,47.2L30.6,47.2z M30.6,47.5v-0.1l0,0c0.1,0,0.1,0,0.1-0.1
	c0.1,0,0.1-0.1,0.1-0.1h0.2c0,0.1,0,0.1-0.1,0.1C30.8,47.5,30.7,47.5,30.6,47.5L30.6,47.5L30.6,47.5L30.6,47.5z"/>
<path class="st7" d="M18.8,57.7l0.7,0.3v1l-0.8,1.8l0.3,0.1c0.2,0.1,0.4,0.2,0.6,0.2c0,0,0,0,0.1,0v1c-0.3-0.1-0.5-0.1-0.7-0.2
	l-1.6-0.7L18.8,57.7L18.8,57.7z M19.4,58l0.9,0.4c0.3,0.2,0.6,0.3,0.7,0.4c0.2,0.2,0.3,0.4,0.3,0.6c0.1,0.2,0.1,0.4,0.1,0.6
	c-0.1,0.3-0.1,0.5-0.2,0.7c-0.2,0.4-0.3,0.6-0.5,0.8c-0.2,0.2-0.4,0.3-0.6,0.4C19.9,62,19.7,62,19.4,62l0,0v-1
	c0.1-0.1,0.2-0.1,0.3-0.2c0.1-0.1,0.2-0.3,0.3-0.6c0.2-0.4,0.2-0.6,0.2-0.8c-0.1-0.2-0.2-0.3-0.5-0.4l-0.3-0.2l-0.1,0.2L19.4,58
	L19.4,58z"/>
<polygon class="st7" points="23.5,60 24.6,60 24.6,63.8 23.5,63.8 "/>
<path class="st7" d="M28.5,58.1l1.1-0.5l1,2c0.1,0.2,0.2,0.4,0.2,0.6c0,0.2,0,0.4-0.1,0.6c-0.1,0.2-0.2,0.3-0.3,0.5
	c-0.2,0.2-0.4,0.3-0.7,0.4c-0.2,0.1-0.4,0.2-0.6,0.2c-0.2,0.1-0.4,0.1-0.6,0.1c-0.2,0-0.3-0.1-0.5-0.1c-0.2-0.1-0.3-0.2-0.4-0.3
	c-0.2-0.2-0.3-0.4-0.4-0.5l-1-2l1.1-0.5l1,2.1c0.1,0.2,0.2,0.3,0.3,0.4c0.2,0.1,0.3,0.1,0.6-0.1c0.2-0.1,0.3-0.2,0.3-0.4
	c0.1-0.2,0.1-0.3-0.1-0.5L28.5,58.1L28.5,58.1z"/>
<path class="st9" d="M23.9,66.4c0.7,0,1.3,0.6,1.3,1.3c0,0.7-0.6,1.3-1.3,1.3c-0.7,0-1.3-0.6-1.3-1.3S23.2,66.4,23.9,66.4L23.9,66.4
	z"/>
<path class="st10" d="M44.5,53.9c-2,0-3.9,0-5.9,0c-0.3,0-0.3-0.1-0.3-0.4c0.6-2.8,1.2-5.7,1.8-8.5c0.1-0.5,0.2-1.1,0.3-1.6
	c0-0.2,0.1-0.3,0.4-0.3c1.9,0,3.8,0,5.6,0c0.6,0,1.3,0.2,1.8,0.5c0.9,0.5,1.3,1.3,1.3,2.3c0.1,2.2-0.4,4.2-1.6,6
	c-0.1,0.1-0.1,0.2-0.2,0.3c-0.8,0.2-1.5,0.6-2.2,1c-0.2,0.1-0.4,0.3-0.6,0.5C44.9,53.8,44.7,54,44.5,53.9L44.5,53.9z"/>
<path class="st10" d="M85.6,53.2c-1,1-2.3,1.2-3.6,0.8c-1-0.3-1.5-1-1.7-2c-0.2-2,0.2-3.7,1.6-5.2c1.1-1.2,2.6-1.5,4.1-1.1
	c0.5,0.1,0.8,0.5,1.1,1c0.2-0.7,0.3-1.3,0.4-1.9c0.1-0.5,0.2-1,0.3-1.5c0-0.3,0.1-0.4,0.4-0.4c0.6,0,1.2,0,1.8,0
	c0.3,0,0.4,0.1,0.3,0.4c-0.6,2.8-1.2,5.5-1.7,8.3c-0.1,0.7-0.3,1.3-0.4,2c0,0.3-0.2,0.4-0.4,0.3c-0.5,0-1,0-1.5,0
	c-0.7,0-0.7,0-0.6-0.6C85.8,53.1,85.7,53.1,85.6,53.2L85.6,53.2z"/>
<path class="st10" d="M56.6,54c-0.4,0-0.9,0.2-1.3-0.1c-0.2,0-0.1-0.2-0.1-0.3c0-0.1,0-0.3-0.1-0.5c-0.6,0.4-1.1,0.8-1.8,0.9
	c-0.8,0.2-1.6,0.2-2.5,0c-0.9-0.2-1.4-0.8-1.4-1.8c0-0.1,0.1-0.3,0-0.4c0,0,0-0.1,0-0.1c0.3-1.5,1.3-2.3,2.9-2.5
	c0.9-0.1,1.8-0.2,2.7-0.3c0.6-0.1,0.9-0.3,1-0.8c0.1-0.4-0.1-0.7-0.5-0.8c-0.9-0.3-1.9,0-2.4,0.9c-0.1,0.1-0.2,0.2-0.3,0.2
	c-0.6,0-1.3,0-1.9,0c-0.3,0-0.3-0.2-0.2-0.4c0.4-1.2,1.3-2,2.5-2.2c1.3-0.3,2.5-0.3,3.8,0c1.1,0.2,1.7,0.9,1.5,2
	c-0.2,1.5-0.6,2.9-0.9,4.4c0,0.2-0.1,0.4-0.1,0.6c0,0.3,0,0.5,0.3,0.6c0,0.6,0,0.6-0.5,0.6C57.2,54,56.9,53.9,56.6,54L56.6,54z"/>
<path class="st10" d="M74.7,54.2c-0.5,0-1.1,0-1.6-0.1c-1.8-0.3-2.6-1.2-2.6-3c0-1.3,0.4-2.6,1.2-3.7c1-1.3,2.4-1.7,3.9-1.8
	c0.7,0,1.3,0,1.9,0.2c1.2,0.3,2,1.2,2.1,2.4c0.1,1.9-0.4,3.6-1.8,4.9c-0.7,0.7-1.6,1-2.6,1.1C75.2,54,75.2,53.9,75,54
	C74.9,54.1,74.9,54.2,74.7,54.2L74.7,54.2z"/>
<g>
	<g>
		<defs>
			<rect id="SVGID_3_" x="10.6" y="42.7" width="99.4" height="27.5"/>
		</defs>
		<clipPath id="SVGID_4_">
			<use xlink:href="#SVGID_3_"  style="overflow:visible;"/>
		</clipPath>
		<path class="st11" d="M57.2,59.8c-0.3,1.5-0.6,3-1,4.5c-0.4,1.8-1.6,2.8-3.5,3c-0.9,0.1-1.8,0.1-2.7-0.1c-1.1-0.3-1.6-1.1-1.5-2.2
			c0.1-1.4,0.5-2.8,0.8-4.2c0.1-0.7,0.3-1.4,0.4-2c0-0.3,0.2-0.3,0.4-0.3c0.3,0,0.6,0,0.9,0c0.2-0.1,0.4-0.2,0.5,0
			c0.5,0,0.5,0,0.3,0.6c0.1,0.3,0,0.5-0.1,0.7c-0.3,1.4-0.6,2.9-0.9,4.3c-0.2,1-0.1,1.4,0.5,1.6c0.8,0.3,1.8,0,2.2-0.6
			c0.3-0.4,0.4-0.8,0.4-1.3c0.3-1.3,0.6-2.6,0.8-4c0-0.1,0-0.1,0-0.2c-0.1-0.2,0-0.4,0.2-0.6c0.1-0.6,0.1-0.6,0.7-0.6
			c0.2,0,0.5,0,0.7,0c0.2-0.1,0.4-0.2,0.6,0c0.5,0,0.4,0.3,0.3,0.6C57.3,59.3,57.5,59.6,57.2,59.8L57.2,59.8z"/>
	</g>
	<g>
		<defs>
			<rect id="SVGID_5_" x="10.6" y="42.7" width="99.4" height="27.5"/>
		</defs>
		<clipPath id="SVGID_6_">
			<use xlink:href="#SVGID_5_"  style="overflow:visible;"/>
		</clipPath>
		<path class="st12" d="M65.1,47.4c-0.3,0.3-0.7,0.1-1.1,0.1c-0.4,0-0.5,0.1-0.6,0.5c-0.4,1.8-0.8,3.7-1.1,5.5
			c-0.1,0.3-0.2,0.4-0.5,0.4c-0.6,0-1.1,0-1.7,0c-0.4,0-0.5-0.1-0.4-0.4c0.3-1.5,0.6-3,1-4.6c0.1-0.3,0.1-0.7,0.2-1
			c0.1-0.3,0-0.4-0.3-0.3c0,0,0,0,0,0c-0.9,0-0.9,0-0.7-0.9c0.2-0.8,0.2-0.9,1.1-0.8c0.4,0,0.5-0.1,0.5-0.5c0-0.1,0.1-0.2,0.1-0.3
			c0.2-1.5,1-2.1,2.5-2.3c0.6-0.1,1.2,0,1.8,0.1c0.2,0,0.3,0.1,0.2,0.3c0,0.1,0,0.2-0.1,0.3c-0.1,0.3-0.1,0.7-0.3,0.9
			c-0.2,0.3-0.6,0.1-0.9,0.1c-0.5,0.1-0.9,0.6-0.9,1.2c0,0.2,0.1,0.1,0.3,0.1c0.3,0,0.6,0,0.9,0c0.2,0,0.3,0.1,0.2,0.3
			c-0.1,0.2-0.1,0.4-0.1,0.6C65.2,47,65.3,47.2,65.1,47.4L65.1,47.4z"/>
	</g>
	<g>
		<defs>
			<rect id="SVGID_7_" x="10.6" y="42.7" width="99.4" height="27.5"/>
		</defs>
		<clipPath id="SVGID_8_">
			<use xlink:href="#SVGID_7_"  style="overflow:visible;"/>
		</clipPath>
		<path class="st13" d="M65.4,46.9c0.1-0.3,0.1-0.6,0.2-0.9c0-0.2,0.2-0.2,0.4-0.2c0.3,0,0.7,0.1,1-0.1c0.2-0.2,0.2-0.6,0.3-0.9
			c0.2-1.1,0.9-1.7,2-1.9c0.8-0.1,1.6,0,2.3,0c0.1,0,0.2,0.1,0.2,0.2c0,0.1,0,0.2-0.1,0.3c-0.1,0.4-0.1,0.8-0.3,1
			c-0.2,0.3-0.7,0-1,0.1c-0.1,0-0.3,0.1-0.4,0.1c-0.3,0.2-0.3,0.6-0.4,0.9c0,0.2,0.1,0.2,0.2,0.2c0.3,0,0.6,0,0.9,0
			c0.2,0,0.3,0.1,0.3,0.3c0,0.1,0,0.1,0,0.2c-0.1,0.4-0.1,0.9-0.3,1.2c-0.2,0.3-0.8,0.1-1.2,0.1c-0.3,0-0.3,0.2-0.4,0.4
			c-0.4,1.9-0.8,3.8-1.2,5.6c-0.1,0.3-0.2,0.4-0.5,0.4c-0.6,0-1.2,0-1.8,0c-0.3,0-0.4,0-0.3-0.4c0.4-1.6,0.7-3.3,1-4.9
			c0-0.2,0.1-0.4,0.1-0.6c0.1-0.3,0-0.4-0.3-0.4c-0.2,0-0.3,0-0.5,0c-0.4,0-0.5-0.1-0.4-0.5C65.3,47,65.3,47,65.4,46.9L65.4,46.9z"
			/>
	</g>
</g>
<path class="st14" d="M79.5,64.4c-0.7,0-1.4,0-2.1,0c-0.2,0-0.3,0.1-0.4,0.3c-0.1,0.6,0.1,1.1,0.5,1.3c0.6,0.3,1.5,0.1,1.8-0.5
	c0.2-0.4,0.5-0.5,0.9-0.4c0.4,0,0.7,0,1.1,0c0.3,0,0.3,0.1,0.2,0.3c-0.5,1-1.3,1.6-2.3,1.8c-0.8,0.2-1.6,0.2-2.5,0
	c-1.1-0.2-1.7-0.9-1.8-2c-0.1-1.9,0.7-3.9,2.8-4.6c0.9-0.3,1.8-0.3,2.7-0.1c1,0.2,1.5,0.9,1.6,1.9c0.1,0.5,0,1.1-0.1,1.6
	c0,0.2-0.1,0.3-0.4,0.3C80.9,64.4,80.2,64.4,79.5,64.4L79.5,64.4z"/>
<path class="st14" d="M90.4,67.4c-0.6,0-1.2,0-1.8-0.2c-0.8-0.3-1.2-0.9-1.1-1.7c0-0.2,0.1-0.3,0.3-0.3c0.5,0,1,0,1.5,0
	c0.2,0,0.3,0.1,0.4,0.3c0.1,0.5,0.3,0.6,0.9,0.7c0.6,0,1.1-0.2,1.2-0.6c0.1-0.3,0-0.5-0.4-0.7c-0.6-0.2-1.2-0.3-1.9-0.5
	c-0.6-0.2-1.2-0.3-1.3-1.1c-0.1-0.8,0.1-1.5,0.7-2c0.4-0.4,1-0.6,1.5-0.7c1-0.2,2-0.2,3,0.2c0.7,0.3,1.1,0.8,1,1.5
	c0,0.2-0.1,0.3-0.3,0.3c-0.5,0-1,0-1.5,0c-0.2,0-0.3,0-0.3-0.2c0-0.3-0.3-0.5-0.6-0.5c-0.4-0.1-0.8-0.1-1.1,0.1
	c-0.2,0.1-0.3,0.2-0.4,0.5c0,0.2,0.2,0.3,0.3,0.4c0.5,0.3,1.1,0.3,1.7,0.4c0.3,0.1,0.7,0.1,1,0.3c0.6,0.3,0.9,0.8,0.8,1.5
	c-0.2,1.2-1,2-2.3,2.2C91.4,67.4,90.9,67.4,90.4,67.4L90.4,67.4z"/>
<g>
	<defs>
		<rect id="SVGID_9_" x="10.6" y="42.7" width="99.4" height="27.5"/>
	</defs>
	<clipPath id="SVGID_10_">
		<use xlink:href="#SVGID_9_"  style="overflow:visible;"/>
	</clipPath>
	<path class="st15" d="M60.1,61.4c0.8-0.8,1.7-1,2.7-0.9c1,0.1,1.6,0.8,1.4,1.8c-0.3,1.5-0.6,3.1-0.9,4.6c0,0.2-0.2,0.3-0.4,0.3
		c-0.5,0-0.9,0-1.4,0c-0.3,0-0.4-0.1-0.3-0.4c0.3-1.2,0.5-2.4,0.8-3.7c0.2-0.8-0.2-1.2-1-1c-0.6,0.1-1.1,0.5-1.3,1.2
		c-0.3,1.1-0.5,2.3-0.7,3.5c-0.1,0.3-0.2,0.4-0.5,0.4c-0.4,0-0.8,0-1.2,0c-0.4,0-0.5-0.1-0.4-0.5c0.3-1.4,0.6-2.9,0.9-4.3
		c0.1-0.5,0.2-0.9,0.3-1.4c0-0.3,0.2-0.4,0.4-0.4c0.4,0,0.8,0,1.2,0c0.4,0,0.5,0.1,0.4,0.5C60.2,61.2,60.1,61.3,60.1,61.4L60.1,61.4
		z"/>
</g>
<g>
	<defs>
		<rect id="SVGID_11_" x="10.6" y="42.7" width="99.4" height="27.5"/>
	</defs>
	<clipPath id="SVGID_12_">
		<use xlink:href="#SVGID_11_"  style="overflow:visible;"/>
	</clipPath>
	<path class="st16" d="M105.9,64.7c0.3-0.6,0.6-1.3,1-1.9c0.3-0.6,0.6-1.2,0.9-1.8c0.1-0.3,0.3-0.5,0.7-0.4c0.4,0,0.8,0,1.2,0
		c0.4,0,0.4,0.1,0.2,0.4c-1,1.6-1.9,3.3-2.9,4.9c-0.4,0.7-0.9,1.4-1.3,2.1c-0.6,1.1-1.4,1.5-2.6,1.4c-0.2,0-0.4,0-0.6,0
		c-0.3,0-0.5-0.1-0.4-0.5c0.1-0.1,0.1-0.3,0.1-0.4c0-0.4,0.1-0.7,0.7-0.6c0.7,0.1,1.4-0.7,1.3-1.4c-0.3-1.8-0.6-3.7-1-5.5
		c-0.1-0.4,0-0.5,0.4-0.4c0.4,0,0.9,0,1.3,0c0.3,0,0.4,0.1,0.5,0.4c0.1,1.1,0.2,2.2,0.3,3.3c0,0.1,0,0.2,0,0.3
		C105.8,64.7,105.9,64.7,105.9,64.7L105.9,64.7z"/>
</g>
<path class="st14" d="M71.1,65.2c0.2-0.5,0.5-0.9,0.7-1.4c0.4-0.9,0.9-1.8,1.3-2.8c0.1-0.3,0.3-0.3,0.5-0.3c0.5,0,1,0,1.5,0
	c0.3,0,0.3,0.1,0.2,0.3c-1.1,2-2.3,4-3.4,6c-0.1,0.2-0.2,0.2-0.4,0.2c-0.6,0-1.2,0-1.8,0c-0.2,0-0.3-0.1-0.4-0.3
	c-0.3-2-0.6-3.9-0.9-5.9c0-0.3,0-0.3,0.3-0.3c0.5,0,1,0,1.4,0c0.4,0,0.5,0.1,0.5,0.5c0,1.2,0.1,2.5,0.2,3.7C71,65,71,65.1,71.1,65.2
	C71,65.2,71.1,65.2,71.1,65.2L71.1,65.2z"/>
<path class="st10" d="M94.2,53.9c-0.3-0.1-0.1-0.3-0.1-0.4c0.5-2.5,1-4.9,1.5-7.4c0.2-0.9,0.4-1.8,0.6-2.7c0.1-0.3,0.1-0.4,0.5-0.4
	c0.6,0,1.2,0,1.8,0c0.3,0,0.4,0.1,0.3,0.4c-0.6,2.6-1.1,5.2-1.7,7.8c0,0,0,0.1,0,0.1c-0.4,0-0.8-0.1-1.2,0.2c-0.7,0.5-0.9,1.3-1.2,2
	C94.6,53.7,94.5,54,94.2,53.9L94.2,53.9z"/>
<path class="st14" d="M101.2,58.7c1,0,1,0,0.8,1c-0.2,0.9-0.2,0.9,0.7,0.9c0.2,0,0.3,0.1,0.3,0.3c0,0,0,0.1,0,0.1
	c-0.2,0.9-0.2,1-1.2,1c-0.2,0-0.3,0.1-0.3,0.3c-0.2,1-0.4,1.9-0.6,2.9c-0.1,0.4,0,0.5,0.5,0.6c0.1,0,0.3,0,0.4,0
	c0.2,0,0.3,0.1,0.2,0.2c-0.1,0.3-0.1,0.6-0.2,0.9c0,0.1-0.1,0.2-0.3,0.2c-0.7,0.1-1.4,0.1-2.1,0c-0.5-0.1-0.7-0.3-0.7-0.9
	c0-0.7,0.3-1.5,0.4-2.2c0.1-0.6,0.2-1.1,0.4-1.7c0.1-0.3,0-0.4-0.3-0.4c-0.7,0-0.7,0-0.5-0.7c0-0.1,0-0.2,0.1-0.3
	c0-0.3,0.2-0.4,0.5-0.4c0.7,0,0.7,0,0.8-0.6c0.1-0.3,0.2-0.6,0.2-0.9c0-0.4,0.2-0.5,0.6-0.4C100.9,58.7,101.1,58.7,101.2,58.7
	L101.2,58.7z"/>
<path class="st10" d="M91.1,53.9c-0.3,0-0.6,0-0.9,0c-0.3,0-0.4-0.1-0.3-0.4c0.4-1.8,0.8-3.6,1.1-5.4c0.1-0.7,0.3-1.4,0.4-2
	c0-0.2,0.1-0.3,0.4-0.3c0.6,0,1.3,0,1.9,0c0.3,0,0.3,0.1,0.3,0.3c-0.5,2.5-1.1,4.9-1.6,7.4c-0.1,0.3-0.2,0.4-0.5,0.4
	C91.7,53.9,91.4,53.9,91.1,53.9L91.1,53.9z"/>
<path class="st14" d="M85.5,61.6c0.2-0.2,0.4-0.4,0.7-0.6c0.5-0.4,1.1-0.5,1.8-0.5c0.2,0,0.3,0.1,0.2,0.3c-0.1,0.5-0.2,0.9-0.3,1.4
	c0,0.2-0.1,0.3-0.4,0.2c-0.2,0-0.5-0.1-0.7,0c-1,0.1-1.7,0.6-1.9,1.6c-0.2,0.9-0.4,1.8-0.6,2.7c-0.1,0.3-0.2,0.4-0.5,0.4
	c-0.4,0-0.9,0-1.3,0c-0.3,0-0.4-0.1-0.3-0.3c0.4-2,0.8-3.9,1.3-5.9c0-0.2,0.1-0.3,0.4-0.3c0.5,0,0.9,0,1.4,0c0.3,0,0.4,0.1,0.3,0.4
	C85.5,61.2,85.4,61.4,85.5,61.6L85.5,61.6z"/>
<path class="st14" d="M95.6,67.2c-1,0-1,0-0.8-1c0.4-1.7,0.7-3.4,1.1-5.2c0.1-0.3,0.2-0.4,0.5-0.4c0.4,0,0.9,0,1.4,0
	c0.3,0,0.3,0.1,0.3,0.3c-0.4,2-0.8,3.9-1.3,5.9c0,0.2-0.2,0.3-0.4,0.3C96.1,67.2,95.9,67.2,95.6,67.2L95.6,67.2z"/>
<path class="st14" d="M65.5,67.2c-1,0-1,0-0.8-1c0.4-1.7,0.7-3.5,1.1-5.2c0.1-0.3,0.2-0.4,0.4-0.4c0.4,0,0.9,0,1.3,0
	c0.3,0,0.4,0,0.3,0.4c-0.4,1.9-0.8,3.8-1.2,5.7c-0.1,0.4-0.2,0.5-0.6,0.5C65.8,67.2,65.6,67.2,65.5,67.2L65.5,67.2z"/>
<path class="st17" d="M49.6,51.8c0.3,0.2-0.1,0.3-0.1,0.4c-0.4,0.1-0.5,0.5-0.6,0.8c-0.4,0.9-0.5,1.9-0.8,2.8
	c-0.2,0.7-0.3,1.3-0.6,2c-0.6,1.5-1.6,2.2-3.2,2.2c-0.9,0-1.8,0-2.7,0c0-0.3,0.3-0.3,0.4-0.4c0.5-0.2,1.1-0.2,1.6-0.3
	c0.6,0,1.2,0,1.8,0c0.4,0.1,0.8-0.1,1-0.5c0.4-0.7,0.6-1.4,0.7-2.1c0.2-1.2,0.4-2.5,1.1-3.6c0.2-0.3,0.5-0.7,0.8-0.9
	c0.1-0.1,0-0.1,0-0.2c0-0.1-0.2-0.1,0-0.2C49.2,51.9,49.4,51.9,49.6,51.8L49.6,51.8z"/>
<path class="st18" d="M94.2,53.9c0.3,0,0.3-0.2,0.4-0.4c0.3-0.7,0.5-1.4,1.1-2c0.1-0.1,0.1-0.1,0.2-0.1c0.1,0,0.1,0.1,0.1,0.2
	c-0.2,0.6-0.6,1.1-0.7,1.7c0,0.2-0.1,0.3,0,0.5c0.2,0.1,0.5,0,0.7,0.1c0.2,0,0.3,0,0.5,0.1c-0.4,0.1-0.7,0-1.1,0
	C95.1,54,95,54,95,54.3c-0.4,1.6-0.7,3.2-1.4,4.7c-0.1,0.2,0,0.2,0.2,0.3c0.9,0.1,1.5,0,2.3-0.4c0,0.3-0.4,0.6-0.8,0.8
	c-0.7,0.4-1.5,0.3-2.2,0.2c-0.2,0-0.1-0.2-0.1-0.3c0.6-1.7,1-3.5,1.4-5.3C94.4,54.1,94.3,54,94.2,53.9L94.2,53.9z"/>
<path class="st17" d="M74.7,54.2c0.1-0.1,0.1-0.2,0.2-0.3c0.1-0.1,0.2-0.2,0.3-0.1c0.2,0.1,0,0.2,0,0.3c-0.2,0.6-0.3,1.2-0.5,1.8
	c-0.1,0.4,0,0.5,0.4,0.5c0.2,0,0.4,0,0.6,0c0.1,0,0.2,0,0.3,0.2c0,0.2-0.1,0.3-0.2,0.3c-0.3,0-0.6,0-0.9,0c-0.2,0-0.3,0-0.3,0.2
	c-0.1,0.8-0.4,1.4-0.8,2.2c0.7,0,1.4,0.2,2-0.3c0.1-0.1,0.2-0.1,0.2,0c0.1,0.1,0,0.2-0.1,0.2c-0.4,0.5-0.9,0.7-1.5,0.8
	c-0.3,0-0.7,0-1,0c-0.3,0-0.3-0.1-0.2-0.3c0.2-0.8,0.4-1.6,0.6-2.4c0.1-0.2,0.1-0.4-0.2-0.4c-0.1,0-0.2-0.1-0.2-0.2
	c0-0.2,0.1-0.3,0.2-0.2c0.3,0,0.4-0.2,0.5-0.4C74.3,55.3,74.5,54.8,74.7,54.2L74.7,54.2z"/>
<path class="st17" d="M55.1,59.1c-0.1,0.2-0.1,0.4-0.2,0.6c-0.5,0.2-1,0.1-1.6,0.1c-0.3,0-0.3-0.1-0.2-0.3c0.2-0.8,0.4-1.6,0.6-2.4
	c0.1-0.2,0.1-0.3-0.2-0.3c-0.1,0-0.2-0.1-0.2-0.2c0-0.2,0.1-0.3,0.2-0.2c0.3,0,0.4-0.2,0.5-0.4c0.1-0.3,0.2-0.6,0.3-0.9
	c0.2-0.5,0.4-1.1,0.9-1.4c0,0.1,0.1,0.2,0.1,0.3c-0.4,0.5-0.4,1.2-0.6,1.8c-0.1,0.6-0.1,0.6,0.5,0.6c0.1,0,0.2,0,0.3,0
	c0.1,0,0.3,0,0.3,0.2c0,0.2-0.1,0.3-0.3,0.3c-0.3,0-0.5,0-0.8,0c-0.2,0-0.3,0.1-0.3,0.3c-0.1,0.7-0.3,1.3-0.7,1.9
	c-0.1,0.1-0.1,0.2,0.1,0.2C54.2,59.2,54.7,59.3,55.1,59.1L55.1,59.1z"/>
<path class="st19" d="M93,44.8c-0.3,0-0.6,0-1,0c-0.2,0-0.4-0.1-0.3-0.3c0.1-0.5,0.2-0.9,0.3-1.4c0-0.2,0.1-0.3,0.3-0.3
	c0.7,0,1.3,0,2,0c0.3,0,0.3,0.1,0.3,0.3c-0.1,0.4-0.2,0.9-0.3,1.3c0,0.3-0.2,0.3-0.4,0.3C93.6,44.8,93.3,44.8,93,44.8L93,44.8z"/>
<path class="st20" d="M85.6,56.7c0.2-0.2,0.5-0.4,0.8-0.4c0.7-0.1,1.1,0.3,0.9,1c-0.1,0.5-0.4,0.9-0.8,1.2c-0.2,0.2-0.4,0.3-0.6,0.6
	c0.7,0.1,1.4,0.2,1.9-0.4c0.1,0.3-0.1,0.4-0.2,0.5c-0.5,0.5-1.2,0.6-1.9,0.6c-0.2,0-0.4,0.1-0.5-0.1c-0.1-0.1,0.2-0.3,0.2-0.4
	c0.3-0.5,0.7-1,0.9-1.5c0.1-0.3,0.3-0.6,0-0.9c-0.2-0.3-0.6-0.1-0.8,0c-0.1,0-0.1,0-0.2,0C85.4,56.8,85.5,56.7,85.6,56.7L85.6,56.7z
	"/>
<path class="st21" d="M44.5,53.9c0.7-0.5,1.4-1.1,2.2-1.4c0.4-0.1,0.7-0.3,1.1-0.3c0.1-0.1,0.2,0,0.3-0.1l0,0c0.1,0,0.3-0.1,0.4,0.1
	c-0.3,0.1-0.6,0.2-0.9,0.3c-0.1,0.1-0.2,0.2-0.3,0.2c-0.4,0.2-0.7,0.4-1,0.6c-0.1,0.1-0.3,0.1-0.4,0.3c-0.2,0.1-0.4,0.3-0.6,0.5
	c-0.9,1.2-1.5,2.4-1.4,4c0,0.1,0,0.1,0,0.2c0,0,0,0.1,0,0.1c-0.2,0-0.2-0.2-0.3-0.4c-0.2-1.3,0-2.5,0.8-3.6
	C44.4,54.2,44.5,54.1,44.5,53.9L44.5,53.9z"/>
<path class="st17" d="M70.4,56.5c0.4-0.2,0.8-0.2,1.2-0.1c0.5,0.1,0.7,0.5,0.6,1c-0.1,0.5-0.3,1-0.6,1.5c-0.1,0.3-0.1,0.3,0.2,0.3
	c0.4,0,0.8-0.2,1.1-0.4c0,0.4-0.6,1-1.1,1.1c-0.4,0.1-0.7-0.1-0.8-0.5c-0.1-0.1,0.1-0.4-0.3-0.4c0,0,0,0-0.1,0
	c-0.1,0-0.1-0.1-0.2-0.2c0-0.2,0.1-0.3,0.3-0.4c0.3-0.4,0.5-0.8,0.5-1.2c0.1-0.5-0.1-0.6-0.6-0.6c-0.1,0-0.2,0-0.3,0
	C70.4,56.7,70.3,56.6,70.4,56.5L70.4,56.5z"/>
<path class="st17" d="M90.3,56.5c0.4-0.2,0.8-0.2,1.2-0.1c0.4,0.1,0.7,0.5,0.6,1c-0.1,0.5-0.3,1-0.5,1.5c-0.2,0.4,0,0.4,0.3,0.4
	c0.4,0,0.7-0.2,1-0.4c0,0.4-0.6,1-1.1,1.1c-0.4,0.1-0.7-0.1-0.8-0.6c-0.1-0.3-0.2-0.3-0.3-0.1c-0.3-0.1-0.1-0.2,0-0.3
	c0.2-0.2,0.4-0.4,0.4-0.7c0.1-0.3,0.2-0.5,0.3-0.8c0.1-0.5,0-0.7-0.6-0.6c-0.1,0-0.2,0-0.3,0C90.2,56.6,90.1,56.6,90.3,56.5
	L90.3,56.5z"/>
<path class="st22" d="M66.3,58.6c0-0.1,0-0.2,0.1-0.2c0.2-0.1,0.4-0.1,0.6-0.1c0.4,0.1,0.7,0.1,1.1,0.1c0.2,0,0.3,0.1,0.3,0.3
	c-0.1,0.4-0.2,0.8-0.3,1.2c-0.7,0.1-1.4,0.1-2.1,0C65.9,59.4,66.1,59,66.3,58.6L66.3,58.6z"/>
<path class="st22" d="M97.2,59.9c-1.1,0-1,0-0.8-1.1c0.1-0.4,0.2-0.5,0.7-0.5c0.4,0,0.8,0,1.1,0c0.3,0,0.5,0,0.3,0.4
	c0,0.1,0,0.1,0,0.2C98.2,59.9,98.2,59.9,97.2,59.9L97.2,59.9z"/>
<path class="st23" d="M78.6,58.8c-0.1,0.7-1.1,1.2-1.6,1.1c-0.3-0.1-0.5-0.3-0.5-0.7c0-0.9,0.3-1.8,0.6-2.7c0.1-0.3,0.4-0.3,0.6-0.2
	c0.3,0.1,0.1,0.3,0,0.4c-0.3,0.7-0.4,1.5-0.7,2.2c-0.1,0.2,0,0.3,0.2,0.3C77.7,59.3,78.2,59.2,78.6,58.8L78.6,58.8z"/>
<path class="st17" d="M81.9,59.4c-0.6,0.7-2.1,0.7-2.7,0.1c-0.4-0.4-0.4-0.8-0.3-1.3c0.2-0.6,0.5-1.1,1-1.4c0.1-0.1,0.2,0,0.3,0.1
	c0,0.2-0.1,0.4-0.2,0.5c-0.2,0.3-0.3,0.5-0.3,0.9c0,0.4,0.2,0.6,0.5,0.8c0.3,0.1,0.7,0,1,0.1c0.2,0,0.4,0,0.6,0.1
	C81.9,59.3,81.9,59.4,81.9,59.4L81.9,59.4z"/>
<path class="st23" d="M90.3,56.5c0,0.1-0.1,0.1,0,0.2c0,0.2-0.2,0.3-0.3,0.4c-0.5,0.4-0.8,0.8-1,1.4c-0.1,0.5,0.1,0.7,0.6,0.7
	c0.4,0,0.7-0.3,1-0.6c0.1-0.1,0.2-0.4,0.4-0.3c0,0.3-0.2,0.5-0.4,0.7c-0.1,0.1-0.3,0.1-0.1,0.3c-0.4,0.5-0.9,0.8-1.6,0.7
	c-0.4-0.1-0.6-0.4-0.7-0.8C88.2,58,89.1,56.8,90.3,56.5L90.3,56.5z"/>
<path class="st20" d="M70.4,56.5c-0.1,0.1,0,0.2,0.1,0.2c0,0.2-0.2,0.2-0.3,0.3c-0.5,0.4-0.9,0.9-1.1,1.6c-0.1,0.4,0.1,0.6,0.5,0.6
	c0.3,0,0.6-0.2,0.9-0.2c0,0.1,0,0.2,0.1,0.2c-0.7,0.9-1.3,1-2.1,0.6c-0.5-0.6-0.3-1.2,0.1-1.8C69.2,57.2,69.7,56.7,70.4,56.5
	L70.4,56.5z"/>
<path class="st17" d="M49.7,57.3c0.2-0.2,0.4-0.4,0.6-0.5c0.1,0,0.1,0.1,0.1,0.1c-0.8,0.6-1,1.5-1.4,2.4c-0.1,0.2-0.1,0.6-0.5,0.6
	c-0.3,0-0.3,0-0.2-0.3c0.4-1.1,0.7-2.1,0.7-3.3c0-0.1,0-0.2,0.1-0.2c0.1,0,0.1,0,0.2,0.1c0.1,0.1,0.3,0.3,0.3,0.5
	C49.7,56.8,49.5,57.1,49.7,57.3C49.7,57.3,49.7,57.3,49.7,57.3C49.7,57.3,49.7,57.3,49.7,57.3L49.7,57.3z"/>
<path class="st20" d="M57,58.5c-0.2,0-0.4,0-0.6,0c0.1-0.2,0.4-0.3,0.6-0.5c-0.4-0.3-0.4-0.6-0.2-1c0.2-0.4,0.5-0.6,1-0.6
	c0.5,0,0.9,0,1.4,0c0.1,0,0.2,0,0.2,0.1c0.1,0.1,0,0.2-0.1,0.3c-0.3,0.3-0.6,0.4-1,0.2c-0.2-0.1-0.4-0.2-0.6-0.2
	c-0.3-0.1-0.5,0-0.6,0.3c-0.1,0.3,0.1,0.3,0.3,0.4c0.3,0.1,0.6,0.2,0.9,0.2c0.1,0,0.2,0,0.2,0.1c0,0.1-0.1,0.2-0.1,0.3
	c-0.2,0.1-0.4,0.2-0.6,0.1C57.5,58.1,57.3,58.2,57,58.5L57,58.5z"/>
<path class="st23" d="M65,57.7c-0.3,0.6-0.6,1.2-0.8,1.9c-0.1,0.2-0.2,0.3-0.4,0.3c-0.2,0-0.3-0.1-0.2-0.3c0.4-1.1,0.7-2.2,0.8-3.3
	c0-0.2,0.1-0.2,0.2-0.1c0.2,0.2,0.3,0.3,0.3,0.6c0.1,0.3-0.1,0.6,0.2,0.8C65.2,57.5,65.1,57.6,65,57.7L65,57.7z"/>
<path class="st17" d="M84.9,57.7c-0.3,0.6-0.5,1.1-0.8,1.7c0,0.1-0.1,0.2-0.1,0.3c-0.1,0.2-0.4,0.2-0.5,0.1c-0.2-0.1,0-0.3,0-0.4
	c0.4-1,0.7-2,0.7-3c0-0.1-0.1-0.3,0.1-0.3c0.1,0,0.2,0.1,0.3,0.2c0.1,0.1,0.2,0.2,0.1,0.4c0.1,0.2-0.1,0.6,0.3,0.8
	C85,57.5,84.9,57.6,84.9,57.7L84.9,57.7z"/>
<path class="st20" d="M80.1,57.1c0-0.1-0.1-0.2-0.2-0.2c0.7-0.6,1.4-0.6,2.2-0.5c0.5,0.1,0.8,0.5,0.8,1.1c0,0.9-0.4,1.5-1.1,1.9
	c0,0,0-0.1,0-0.1c0,0,0-0.1,0-0.1c0-0.1,0-0.1,0.1-0.2c0.1-0.1,0.1-0.2,0.1-0.4c0.1-0.3,0.2-0.6,0.1-1c-0.1-0.9-0.9-1.3-1.6-0.8
	C80.4,57,80.3,57.1,80.1,57.1L80.1,57.1z"/>
<path class="st24" d="M62.1,57.3c0,0.1,0,0.1,0,0.2c-0.2,0.3-0.3,0.6-0.3,1c0,0.8,0.4,1,1.1,0.6c0.1-0.1,0.3-0.3,0.4-0.1
	c0.1,0.2-0.2,0.3-0.3,0.4c-0.3,0.3-0.7,0.5-1.1,0.5c-0.4,0-0.7-0.2-0.7-0.6c-0.1-0.6,0.1-1.1,0.4-1.5c0.2-0.2,0.3-0.5,0.5-0.7
	C62.1,57.2,62.1,57.3,62.1,57.3L62.1,57.3z"/>
<path class="st17" d="M62.1,57.3c0-0.1,0-0.1,0-0.2c0-0.1,0-0.2-0.1-0.2c-0.2,0-0.4,0-0.6,0c-0.3,0-0.4,0.1-0.5,0.3
	c-0.1,0.2-0.3,0.4-0.4,0.6c-0.2,0-0.2-0.1-0.1-0.2c0-0.1,0-0.1,0.1-0.2c0.1-0.2,0.2-0.4,0.1-0.6c-0.3,0-0.3-0.2-0.3-0.5
	c0-0.2,0.1-0.4,0.3-0.5c0.2-0.1,0.4,0,0.5,0.2c0.1,0.2,0.3,0.1,0.4,0.1c0.5,0,1,0,1.6,0c0,0,0.1,0.1,0.1,0.1
	C62.7,56.7,62.4,57,62.1,57.3L62.1,57.3z"/>
<path class="st20" d="M50.5,56.9c0,0-0.1-0.1-0.1-0.1c0.3-0.3,0.7-0.5,1.1-0.5c0.6,0,0.9,0.4,0.8,1c-0.1,0.5-0.5,0.8-0.7,1.2
	c-0.2,0-0.4,0-0.5,0c0.1-0.3,0.3-0.5,0.4-0.8c0.1-0.2,0.2-0.5,0-0.7c-0.2-0.2-0.5-0.1-0.7,0C50.6,56.9,50.6,56.9,50.5,56.9
	L50.5,56.9z"/>
<path class="st20" d="M67,58.4c-0.2,0-0.4,0-0.6,0c0.1-0.2,0.2-0.5,0.3-0.7c0.3-0.7,0.1-0.9-0.6-0.9c-0.1,0.1-0.2,0.1-0.3,0.1
	c-0.3,0-0.2-0.1-0.1-0.2c0.2-0.2,0.5-0.4,0.8-0.4c0.7-0.1,1.1,0.3,0.9,1c-0.1,0.3-0.3,0.5-0.4,0.8C67.1,58.2,67,58.3,67,58.4
	L67,58.4z"/>
<path class="st25" d="M96,51.6c0-0.1-0.1-0.1-0.1-0.2c0.4-0.2,0.8-0.4,1.2-0.1c0.4,0.6,0.3,1.1-0.1,1.6c-0.1,0.2-0.2,0.3-0.3,0.5
	c-0.1,0.2-0.3,0.3-0.5,0.3c-0.1,0-0.1-0.1-0.1-0.1c0-0.2,0.1-0.3,0.2-0.4c0.1-0.2,0.3-0.4,0.3-0.6C96.7,51.9,96.5,51.6,96,51.6
	L96,51.6z"/>
<path class="st26" d="M57.2,59.8c0-0.3,0.1-0.5,0.1-0.8c0,0.2,0.2,0.2,0.3,0.2c0.7,0,1.4,0.1,2-0.4c0,0,0.1-0.1,0.2,0
	c0.1,0.1,0,0.1,0,0.2c-0.4,0.5-0.8,0.9-1.4,0.8C57.9,59.8,57.5,59.8,57.2,59.8L57.2,59.8z"/>
<path class="st27" d="M77.5,55.4c0-0.3,0-0.5,0.1-0.7c0.2-0.3,0.4-0.4,0.7-0.3c0.3,0.2,0.1,0.4,0,0.6c-0.1,0.2-0.3,0.3-0.4,0.5
	c-0.1,0.1-0.2,0.3-0.3,0.2C77.4,55.7,77.5,55.5,77.5,55.4L77.5,55.4z"/>
<path class="st28" d="M51.8,59.8c0-0.2,0.1-0.5,0.1-0.7c0.4,0.2,0.6-0.2,1-0.3C52.7,59.4,52.2,59.6,51.8,59.8L51.8,59.8z"/>
<path class="st29" d="M67,58.4c0-0.1,0.1-0.2,0.2-0.3c0,0.1,0.1,0.2,0.2,0.2c0.5,0,1.1,0.2,1.4-0.4c-0.3,0.6-0.5,1.2-0.1,1.8
	c-0.2,0-0.2-0.3-0.3-0.4c-0.1,0.2,0,0.5-0.2,0.6c0.1-0.4,0.1-0.8,0.2-1.2c0.1-0.3,0-0.3-0.3-0.3C67.7,58.4,67.3,58.4,67,58.4
	L67,58.4z"/>
<path class="st30" d="M66.3,58.6c-0.1,0.4-0.2,0.8-0.3,1.3c-0.2,0-0.4,0.1-0.5-0.1c-0.1-0.2,0.1-0.3,0.2-0.5
	C65.9,59,66.1,58.8,66.3,58.6L66.3,58.6z"/>
<path class="st31" d="M65.4,46.9c0,0.6,0,0.6,0.6,0.6c0.6,0,0.6,0,0.5,0.6c0,0.2-0.1,0.3-0.1,0.5c0-0.1,0-0.2,0-0.3
	c0.1-0.7,0.1-0.7-0.7-0.7c-0.2,0-0.4,0-0.6-0.2c0-0.2,0-0.5,0.2-0.7C65.3,46.8,65.3,46.9,65.4,46.9L65.4,46.9z"/>
<path class="st32" d="M65.7,56.7c0,0.1-0.1,0.2,0.1,0.1c0.1,0,0.2,0,0.2,0c-0.4,0.2-0.8,0.5-1,0.9c0-0.3-0.3-0.6-0.2-1
	c0.1,0.2,0.1,0.4,0.1,0.6C65.3,57.1,65.4,56.8,65.7,56.7L65.7,56.7z"/>
<path class="st33" d="M84.9,57.7c-0.1-0.3-0.3-0.6-0.2-1c0.1,0.2,0,0.4,0.1,0.6c0.3-0.1,0.4-0.5,0.8-0.5c-0.1,0.1,0,0.2,0.1,0.2
	C85.3,57.1,85.1,57.4,84.9,57.7L84.9,57.7z"/>
<path class="st34" d="M46.2,53.2c0.3-0.3,0.7-0.5,1.1-0.6c0.1,0.1-0.1,0.1-0.1,0.2c-0.2,0.2-0.5,0.4-0.8,0.5
	C46.3,53.3,46.2,53.4,46.2,53.2L46.2,53.2z"/>
<path class="st35" d="M96.1,53.7c0.2-0.1,0.3-0.3,0.5-0.3c0,0.2,0,0.4-0.2,0.5c-0.2,0-0.3,0-0.5,0C95.9,53.7,96,53.7,96.1,53.7
	L96.1,53.7z"/>
<path class="st36" d="M56.6,54c0.2-0.1,0.4-0.1,0.6-0.1c0.5,0.1,0.7-0.1,0.7-0.6c0.2,0.5,0.1,0.7-0.4,0.7C57.3,54,57,54,56.6,54
	L56.6,54z"/>
<path class="st37" d="M48.4,52.2c-0.1-0.1-0.2-0.1-0.4-0.1c0.2-0.2,0.5,0,0.7-0.2c0.1,0,0.1-0.1,0.2,0c0.1,0.1,0.1,0.1,0.2,0.2
	c-0.1,0.1-0.3,0-0.4,0.1C48.6,52.2,48.5,52.2,48.4,52.2L48.4,52.2z"/>
<path class="st38" d="M61.7,58.5c0-0.4,0-0.7,0.3-1C61.9,57.8,61.8,58.1,61.7,58.5L61.7,58.5z"/>
<path class="st39" d="M46.2,53.2c0,0.1,0.1,0.1,0.2,0.1c-0.2,0.1-0.4,0.2-0.6,0.3C45.8,53.3,46,53.3,46.2,53.2L46.2,53.2z"/>
<path class="st40" d="M49.7,57.3c-0.1,0.1-0.2,0.1-0.2,0c0-0.2,0-0.4,0-0.7C49.8,56.8,49.5,57.1,49.7,57.3L49.7,57.3z"/>
<path class="st41" d="M49,51.9c-0.1,0-0.1,0-0.2,0c0.2-0.1,0.5,0,0.8-0.2c0,0,0,0.1,0,0.1C49.4,52,49.2,51.9,49,51.9L49,51.9z"/>
<path class="st42" d="M47.1,52.8c0-0.1,0.1-0.1,0.1-0.2c0.1-0.1,0.2-0.1,0.3-0.2C47.4,52.6,47.3,52.7,47.1,52.8L47.1,52.8z"/>
<path class="st43" d="M70.8,59c0.1-0.2,0.2-0.1,0.2,0c0,0.1,0,0.2,0,0.3C70.9,59.3,71,59.1,70.8,59L70.8,59z"/>
<path class="st41" d="M60.5,57c0.2,0.2,0.1,0.4-0.1,0.6C60.4,57.4,60.5,57.2,60.5,57L60.5,57z"/>
<path class="st44" d="M85.6,53.2c0-0.1,0.1-0.2,0.2-0.2c0.1,0,0,0.2,0,0.3C85.7,53.2,85.6,53.2,85.6,53.2L85.6,53.2z"/>
<path class="st41" d="M48.7,52.1c0.1-0.1,0.3-0.1,0.4-0.1c0.1,0.1,0,0.1-0.1,0.2C49,52.1,48.8,52.2,48.7,52.1L48.7,52.1z"/>
<path class="st41" d="M60.3,57.8c0,0.1,0,0.1,0.1,0.2c0,0.1-0.1,0.2-0.2,0.1C60.1,57.9,60.2,57.8,60.3,57.8L60.3,57.8z"/>
<path class="st37" d="M48.1,52.1c-0.1,0.1-0.2,0.1-0.3,0.1c0-0.1,0.1-0.2,0.2-0.2C48,52,48,52,48.1,52.1L48.1,52.1z"/>
<path class="st45" d="M70,44.6c0.1-0.1,0.2-0.2,0.4-0.1C70.3,44.6,70.1,44.6,70,44.6L70,44.6z"/>
<path class="st46" d="M42.7,52c-0.3,0-0.6,0-0.8,0c-0.3,0-0.3-0.1-0.3-0.4c0.4-1.8,0.8-3.7,1.2-5.5C43,45,43,45,44.1,45
	c0.4,0,0.9,0,1.3,0.1c0.8,0.1,1.2,0.5,1.3,1.3c0.2,1-0.1,2-0.4,3c-0.1,0.3-0.2,0.6-0.3,0.8c-0.5,1.1-1.4,1.7-2.7,1.7
	C43.1,52,42.9,52,42.7,52L42.7,52z"/>
<path class="st46" d="M85.3,47.5c0.8,0,1.3,0.4,1.3,1.3c0,0.9-0.2,1.7-0.7,2.4c-0.4,0.7-1,1-1.8,0.9c-0.7,0-1.2-0.4-1.2-1.1
	c-0.1-1,0.1-1.9,0.7-2.7C84,47.8,84.5,47.5,85.3,47.5L85.3,47.5z"/>
<path class="st47" d="M53.3,52.5c-0.6,0-0.9-0.2-1-0.5c-0.1-0.4,0.2-1,0.6-1.3c0.3-0.2,0.6-0.2,1-0.3c0.5-0.1,1.1-0.2,1.6-0.3
	c0.2,0,0.3,0,0.2,0.2C55.5,51.7,54.7,52.5,53.3,52.5L53.3,52.5z"/>
<path class="st46" d="M73.2,50.6c0.1-0.7,0.2-1.6,0.7-2.3c0.4-0.7,1.1-1,1.9-1c0.6,0.1,1,0.4,1.1,1c0.1,1.2-0.1,2.3-0.9,3.3
	c-0.5,0.6-1.2,0.8-1.9,0.6C73.5,52.2,73.2,51.7,73.2,50.6L73.2,50.6z"/>
<path class="st48" d="M78.8,63.2c-0.4,0-0.8,0-1.1,0c-0.2,0-0.2-0.1-0.2-0.3c0.2-0.9,1.4-1.4,2.2-1c0.4,0.2,0.6,0.8,0.5,1.2
	c-0.1,0.2-0.2,0.1-0.3,0.1C79.5,63.2,79.1,63.2,78.8,63.2L78.8,63.2z"/>
<path class="st10" d="M96,51.6c0.5-0.2,0.9,0.2,0.8,0.8c-0.1,0.5-0.4,0.9-0.7,1.2c-0.2,0.5-0.6,0.3-0.9,0.3
	C95.2,53,95.5,52.3,96,51.6L96,51.6z"/>
<path class="st49" d="M95.1,53.8c0.4,0.1,0.7,0,0.9-0.3c0,0,0.1,0.1,0.1,0.1c-0.1,0.1-0.1,0.2-0.2,0.2C95.7,53.9,95.4,54,95.1,53.8
	L95.1,53.8z"/>
<path class="st46" d="M70.6,58.9c-0.2,0.2-0.5,0.4-0.9,0.3c-0.6,0-0.7-0.2-0.6-0.8c0.2-0.8,0.7-1.4,1.4-1.8c1.1-0.2,1.1,0.2,0.8,1.1
	C71.2,58.1,71,58.5,70.6,58.9L70.6,58.9z"/>
<path class="st48" d="M91,58.2c-0.1,0.2-0.2,0.4-0.4,0.5c-0.3,0.3-0.6,0.5-1.1,0.5c-0.5,0-0.7-0.3-0.6-0.8c0.2-0.8,0.7-1.4,1.4-1.8
	c0,0,0,0,0,0c0.3,0,0.7-0.2,0.9,0c0.3,0.3,0,0.7-0.1,1C91.1,57.9,91,58,91,58.2L91,58.2z"/>
<path class="st46" d="M80.1,57.1c0.2-0.1,0.4-0.3,0.6-0.4c0.7-0.3,1.5,0.2,1.6,1c0,0.4,0,0.7-0.2,1.1c-0.1,0.1-0.1,0.3-0.2,0.3
	c0,0,0,0.1-0.1,0.1c-0.6,0.1-1.2,0.1-1.7,0c-0.5-0.3-0.6-0.7-0.5-1.3C79.8,57.6,80,57.4,80.1,57.1L80.1,57.1z"/>
<path class="st50" d="M80.1,59.2c0.6,0,1.2,0.1,1.7,0c0,0,0,0.1,0,0.1c-0.4,0-0.9,0-1.3,0C80.4,59.3,80.2,59.4,80.1,59.2L80.1,59.2z
	"/>
<path class="st50" d="M82,59.1c0.1-0.1,0.1-0.2,0.2-0.3C82.2,59,82.1,59.1,82,59.1L82,59.1z"/>
</svg>
