<?xml version="1.0" encoding="utf-8"?>
<!-- Generator: Adobe Illustrator 23.0.2, SVG Export Plug-In . SVG Version: 6.00 Build 0)  -->
<!DOCTYPE svg PUBLIC "-//W3C//DTD SVG 1.1//EN" "http://www.w3.org/Graphics/SVG/1.1/DTD/svg11.dtd" [
	<!ENTITY ns_extend "http://ns.adobe.com/Extensibility/1.0/">
	<!ENTITY ns_ai "http://ns.adobe.com/AdobeIllustrator/10.0/">
	<!ENTITY ns_graphs "http://ns.adobe.com/Graphs/1.0/">
	<!ENTITY ns_vars "http://ns.adobe.com/Variables/1.0/">
	<!ENTITY ns_imrep "http://ns.adobe.com/ImageReplacement/1.0/">
	<!ENTITY ns_sfw "http://ns.adobe.com/SaveForWeb/1.0/">
	<!ENTITY ns_custom "http://ns.adobe.com/GenericCustomNamespace/1.0/">
	<!ENTITY ns_adobe_xpath "http://ns.adobe.com/XPath/1.0/">
]>
<svg version="1.1" id="Layer_1" xmlns:x="&ns_extend;" xmlns:i="&ns_ai;" xmlns:graph="&ns_graphs;"
	 xmlns="http://www.w3.org/2000/svg" xmlns:xlink="http://www.w3.org/1999/xlink" x="0px" y="0px" viewBox="0 0 120 120"
	 style="enable-background:new 0 0 120 120;" xml:space="preserve">
<style type="text/css">
	.st0{clip-path:url(#SVGID_2_);fill:#88919A;}
	.st1{fill:#4DB864;}
	.st2{fill:#0074B9;}
	.st3{fill:#FFFFFF;}
	.st4{fill:#343536;}
	.st5{fill:#82D0F4;}
	.st6{fill:#00A0E1;}
	.st7{fill:#E3E5E9;}
	.st8{fill:#CDD2D9;}
	.st9{fill:#DF4145;}
	.st10{fill-rule:evenodd;clip-rule:evenodd;fill:#0071B2;}
	.st11{clip-path:url(#SVGID_4_);fill-rule:evenodd;clip-rule:evenodd;fill:#01B061;}
	.st12{clip-path:url(#SVGID_6_);fill-rule:evenodd;clip-rule:evenodd;fill:#0071B2;}
	.st13{clip-path:url(#SVGID_8_);fill-rule:evenodd;clip-rule:evenodd;fill:#0071B2;}
	.st14{fill-rule:evenodd;clip-rule:evenodd;fill:#01B061;}
	.st15{clip-path:url(#SVGID_10_);fill-rule:evenodd;clip-rule:evenodd;fill:#01B061;}
	.st16{clip-path:url(#SVGID_12_);fill-rule:evenodd;clip-rule:evenodd;fill:#01B061;}
	.st17{fill-rule:evenodd;clip-rule:evenodd;fill:#79838A;}
	.st18{fill-rule:evenodd;clip-rule:evenodd;fill:#798289;}
	.st19{fill-rule:evenodd;clip-rule:evenodd;fill:#0071B3;}
	.st20{fill-rule:evenodd;clip-rule:evenodd;fill:#7A848B;}
	.st21{fill-rule:evenodd;clip-rule:evenodd;fill:#79828A;}
	.st22{fill-rule:evenodd;clip-rule:evenodd;fill:#09B162;}
	.st23{fill-rule:evenodd;clip-rule:evenodd;fill:#7A848A;}
	.st24{fill-rule:evenodd;clip-rule:evenodd;fill:#7B858B;}
	.st25{fill-rule:evenodd;clip-rule:evenodd;fill:#77838B;}
	.st26{fill-rule:evenodd;clip-rule:evenodd;fill:#7C868D;}
	.st27{fill-rule:evenodd;clip-rule:evenodd;fill:#7E878F;}
	.st28{fill-rule:evenodd;clip-rule:evenodd;fill:#7F8A90;}
	.st29{fill-rule:evenodd;clip-rule:evenodd;fill:#DCE7E4;}
	.st30{fill-rule:evenodd;clip-rule:evenodd;fill:#7E8C90;}
	.st31{fill-rule:evenodd;clip-rule:evenodd;fill:#CBD9E5;}
	.st32{fill-rule:evenodd;clip-rule:evenodd;fill:#9099A0;}
	.st33{fill-rule:evenodd;clip-rule:evenodd;fill:#8B949C;}
	.st34{fill-rule:evenodd;clip-rule:evenodd;fill:#0079B2;}
	.st35{fill-rule:evenodd;clip-rule:evenodd;fill:#0075B2;}
	.st36{fill-rule:evenodd;clip-rule:evenodd;fill:#649ECB;}
	.st37{fill-rule:evenodd;clip-rule:evenodd;fill:#8F9AA5;}
	.st38{fill-rule:evenodd;clip-rule:evenodd;fill:#8C969D;}
	.st39{fill-rule:evenodd;clip-rule:evenodd;fill:#127DB1;}
	.st40{fill-rule:evenodd;clip-rule:evenodd;fill:#8E969F;}
	.st41{fill-rule:evenodd;clip-rule:evenodd;fill:#9AA3AB;}
	.st42{fill-rule:evenodd;clip-rule:evenodd;fill:#518AB5;}
	.st43{fill-rule:evenodd;clip-rule:evenodd;fill:#9098A0;}
	.st44{fill-rule:evenodd;clip-rule:evenodd;fill:#6CA4CD;}
	.st45{fill-rule:evenodd;clip-rule:evenodd;fill:#B7CDE1;}
	.st46{fill-rule:evenodd;clip-rule:evenodd;fill:#FDFDFE;}
	.st47{fill-rule:evenodd;clip-rule:evenodd;fill:#FCFCFD;}
	.st48{fill-rule:evenodd;clip-rule:evenodd;fill:#FBFCFC;}
	.st49{fill-rule:evenodd;clip-rule:evenodd;fill:#4F7A98;}
	.st50{fill-rule:evenodd;clip-rule:evenodd;fill:#8D969E;}
</style>
<metadata>
	<sfw  xmlns="&ns_sfw;">
		<slices></slices>
		<sliceSourceBounds  bottomLeftOrigin="true" height="16383" width="16383" x="-8131" y="-8252"></sliceSourceBounds>
	</sfw>
</metadata>
		<defs>
			<rect id="SVGID_1_" x="10.5" y="48.2" width="99.5" height="27.6"/>
		</defs>
		<clipPath id="SVGID_2_">
			<use xlink:href="#SVGID_1_"  style="overflow:visible;"/>
		</clipPath>
		<path class="st0" d="M33.4,62.1c-1.2-4.3-0.4-7.4,1.1-9.7l-2.8-2.9H16.4l-2.7,2.8c2.4,5,0.7,8.2,0.6,9.7l0,0
			c-1.7-1.6-2.6-0.7-2.8,0l0,0c-0.6,2-1.1,2.7-1.1,2.7c0.3,0.8,0.7,1,0.9,1l0,0c0.1,3.9,3.5,5.9,7.3,7.2c3.9,1.3,5.1,3,5.1,3
			s2.3-2.3,6.2-3.3c4-1.5,6.4-4.2,6.2-6.8l0,0c0.8,0,0.9-0.2,1.1-1c0,0-0.6-0.4-1.1-2.3l0,0c0-0.3-0.1-0.6-0.3-1
			C34.8,60.2,33.5,62,33.4,62.1L33.4,62.1L33.4,62.1z"/>
<path class="st1" d="M12.5,62.9c0.1-0.1,0.6-0.9,0.6-0.2c0.1,0.7-1.2,0.2-1.3-0.7c-0.1-0.5,2-1.6,2.3,1.5l0,0
	c0.2,4.3,4.9,5.5,6.9,6.3c2.4,1.3,2.6,1.9,2.6,1.9s1.1-1.1,2.7-1.7c4.1-1.5,7.2-2.9,7.1-6.6c0.2-2.6,3.1-2.7,1.9-0.6
	c-0.3,0.6-1.8,0.8-0.7-0.4l0.4,0.7c0.1,0,0.2-0.1,0.2-0.2c0,0-0.4-1.1-0.5-1.1c-0.4,0.1-0.7,0.6-0.7,1.1c0.1,1,1.8,2.5,1.7,3.4
	c-0.7,4.2-7,6.1-7,6.1c-2.9,0.8-5.1,2.9-5.1,2.9c-1.3-1.8-5.9-3.1-5.9-3.1c-5.8-2.4-6.2-5.4-6.1-6.4c0.1-0.7,1.4-1.9,1.4-1.9
	c0.3-0.4,0.4-1.6-0.3-1.9c-0.1,0-0.6,0.8-0.6,0.8C12.4,62.8,12.5,62.9,12.5,62.9L12.5,62.9z"/>
<path class="st2" d="M14.8,63.8C14.9,67,18,68,20.9,69c1.9,0.7,2.8,1.7,2.8,1.7c1.3-1.1,1.9-1.3,3-1.7c3.3-1.1,6.8-2.3,6.1-6.9
	c-1.7-6.9,1.1-9.7,1.1-9.7L31.3,50H16.6l-2.2,2.4c2,4.3,0.9,7.7,0.6,9.5c-0.3,1.5-0.2,0.8-0.3,2V63.8L14.8,63.8z"/>
<polygon class="st3" points="23.9,51.4 24,51.1 23.6,50.9 24,50.9 24.1,50.6 24.2,50.9 24.6,50.9 24.3,51.1 24.4,51.4 24.1,51.3 "/>
<path class="st3" d="M23.9,55.2c2.4,0,4.3,1.9,4.3,4.2s-1.9,4.2-4.3,4.2s-4.3-1.9-4.3-4.2C19.6,57.1,21.6,55.2,23.9,55.2L23.9,55.2z
	"/>
<path class="st4" d="M19.7,59.4c0-2.3,1.9-4.2,4.2-4.2c2.4,0,4.3,1.9,4.3,4.2s-1.9,4.2-4.3,4.2S19.7,61.7,19.7,59.4L19.7,59.4z
	 M19.6,59.4c0,2.3,1.9,4.2,4.3,4.2s4.3-1.9,4.3-4.2c0-2.3-1.9-4.2-4.3-4.2S19.6,57.1,19.6,59.4L19.6,59.4z"/>
<path class="st5" d="M23.9,55.5c2.2,0,4,1.7,4,3.9s-1.8,3.9-4,3.9s-4-1.7-4-3.9C19.9,57.2,21.7,55.5,23.9,55.5L23.9,55.5z"/>
<path class="st6" d="M20,59.4c0-2.1,1.7-3.8,3.9-3.8c2.2,0,3.9,1.7,3.9,3.8s-1.7,3.8-3.9,3.8C21.7,63.3,20,61.5,20,59.4L20,59.4z
	 M19.8,59.4c0,2.2,1.9,4,4.1,4c2.3,0,4.1-1.8,4.1-4c0-2.2-1.8-4-4.1-4C21.6,55.4,19.8,57.2,19.8,59.4L19.8,59.4z"/>
<path class="st6" d="M22.7,63.1c-0.1,0-0.1,0.1-0.1,0.1c0.1,0.1,0.1,0.1,0.2,0.1c1-0.6,1.2-0.5,2.2,0c0.1,0.1,0.1,0,0.2-0.1
	c0-0.1,0-0.1-0.1-0.2C24.1,62.5,23.8,62.4,22.7,63.1L22.7,63.1z"/>
<path class="st6" d="M19.9,59.3c-0.1,0-0.1,0.1-0.1,0.1c0,0.1,0.1,0.1,0.1,0.1h8c0.1,0,0.1-0.1,0.1-0.1s-0.1-0.1-0.1-0.1H19.9
	L19.9,59.3z"/>
<path class="st6" d="M25.1,55.6c-0.9,0.6-1.4,0.7-2.4,0c-0.1-0.1-0.1,0-0.2,0c-0.1,0.1,0,0.1,0,0.2c1.1,0.8,1.7,0.6,2.6,0
	c0.1-0.1,0.1-0.1,0.1-0.2C25.3,55.6,25.1,55.6,25.1,55.6L25.1,55.6z"/>
<path class="st6" d="M21.5,56.1c-0.1,0.1,0,0.1,0.1,0.2c1.7,1.1,3,1.4,4.8,0.1c0.1-0.1,0.1-0.1,0-0.2c-0.1-0.1-0.1-0.1-0.2,0
	c-1.7,1.3-2.9,1-4.5-0.1C21.6,56.1,21.6,56.1,21.5,56.1L21.5,56.1z"/>
<path class="st6" d="M20.7,56.8c-0.1,0.1,0,0.1,0,0.2c2.9,2,4.5,1.1,5.8,0.3l0.4-0.2C27,57,27,57,27,56.9c-0.1-0.1-0.1-0.1-0.2-0.1
	l-0.4,0.2c-1.3,0.8-2.8,1.6-5.6-0.3C20.8,56.7,20.8,56.8,20.7,56.8L20.7,56.8z"/>
<path class="st6" d="M20.3,60.9c-0.1,0.1-0.1,0.1-0.1,0.2c0.1,0.1,0.1,0.1,0.2,0.1c0.6-0.3,3.8-1.9,7.2,0c0.1,0.1,0.1,0,0.2-0.1
	c0.1-0.1,0-0.1-0.1-0.2C24.1,58.9,20.9,60.5,20.3,60.9L20.3,60.9z"/>
<path class="st6" d="M20.8,61.9c-0.1,0-0.1,0.1-0.1,0.2c0,0.1,0.1,0.1,0.2,0.1c3-1.4,3.3-1.3,5.8-0.2l0.2,0.1c0.1,0,0.1,0,0.2-0.1
	c0-0.1,0-0.1-0.1-0.2l-0.2-0.1C24.2,60.6,23.9,60.5,20.8,61.9L20.8,61.9z"/>
<path class="st6" d="M25,55.9c1.1,0.6,2.2,2.1,2.2,3.7c0,1.3-0.8,2.5-2.4,3.4l0.1,0.2c2-1.2,2.5-2.6,2.5-3.6c0-1.7-1.2-3.3-2.3-3.9
	L25,55.9L25,55.9z"/>
<path class="st6" d="M24.6,56.1c1,0.9,1.5,2.1,1.5,3.3c0,1.3-0.6,2.5-1.5,3.5l0.2,0.2c1-1,1.6-2.3,1.6-3.6c0-1.3-0.6-2.5-1.6-3.5
	L24.6,56.1L24.6,56.1z"/>
<path class="st6" d="M24.4,56.1c1.3,2,1.1,5.3-0.1,6.6l0.2,0.2c1.2-1.4,1.5-4.7,0.1-6.9L24.4,56.1L24.4,56.1z"/>
<path class="st6" d="M23.5,62.9l0.2-0.1c-0.6-1-2-3.5-0.2-6.6L23.3,56C21.4,59.3,22.8,61.9,23.5,62.9L23.5,62.9z"/>
<path class="st6" d="M23.1,63l0.2-0.2c-2.1-2.2-2.1-4.7-0.1-6.8l-0.2-0.2C20.9,58.2,21,60.7,23.1,63L23.1,63z"/>
<path class="st6" d="M20.5,59.4c-0.1,1.1,0.3,2.5,2.4,3.8L23,63c-1.5-0.9-2.3-2.1-2.2-3.5c0.1-1.7,1.3-3.1,2.2-3.6l-0.1-0.2
	C21.8,56.2,20.5,57.8,20.5,59.4L20.5,59.4z"/>
<path class="st7" d="M23.9,61.7v1.1V61.7z"/>
<polygon class="st6" points="23.8,61.7 24,61.7 24,62.8 23.8,62.8 "/>
<path class="st6" d="M23.8,59.1v3.4c0,0.1,0.1,0.1,0.1,0.1s0.1-0.1,0.1-0.1v-3.4c0-0.1-0.1-0.1-0.1-0.1S23.8,59,23.8,59.1L23.8,59.1
	z"/>
<path class="st3" d="M28,60.8c3.5,2,2.9,3.1-4.5-1.3c-3.4-2-9.1-5.8-2.8-2.8l0.1-0.2c-7.2-3.3-0.7,1.1,2.4,3c8,4.9,8.7,3.3,4.8,1
	L28,60.8L28,60.8z"/>
<path class="st3" d="M27.2,56.7c4.2-2.4,4.4-1-3.2,3.1c-3.5,1.9-9.9,4.9-4,1.1l-0.1-0.2c-6.4,4.5,0.8,1,4.1-0.7c8.3-4.4,7.4-6,3-3.4
	L27.2,56.7L27.2,56.7z"/>
<polygon class="st4" points="21.9,58.8 21.6,58.8 20.4,61.1 20.4,61.1 22.4,61.1 23.5,61.1 23.6,61.1 23.5,61.2 23.6,61.2 
	24.2,61.2 24.2,61.2 24.2,61.1 26.2,61.1 27.4,61.1 27.4,61.1 27.4,61 26.2,58.8 25.3,58.8 "/>
<path class="st4" d="M21.9,58.8c0,0,4.2,0,4.3,0c0,0.1,1.2,2.2,1.2,2.2l0,0l0,0h-1.2h-2v0.1v0.1l0,0h-0.6v-0.1l-0.1-0.1h-1.1
	c0,0-1.9,0-2,0l0,0c0,0,1.2-2.2,1.2-2.2C21.7,58.8,21.9,58.8,21.9,58.8L21.9,58.8z M25.3,58.7h-3.6h-0.1L20.4,61v0.1l0.1,0.1h3.1
	v0.1l0.1,0.1h0.7l0.1-0.1v-0.1l0,0c0.1,0,3.1,0,3.1,0l0.1-0.1V61L27.4,61l-1.2-2.2h-0.1L25.3,58.7L25.3,58.7L25.3,58.7z"/>
<polygon class="st4" points="20.4,61.1 20.4,61.1 20.4,61.1 20.4,61.2 23.5,61.2 23.6,61.2 23.5,61.2 23.5,61.2 23.5,61.2 
	23.5,61.2 23.5,61.2 23.6,61.3 24.2,61.3 24.2,61.3 24.2,61.2 24.3,61.2 24.3,61.2 24.3,61.2 24.2,61.2 24.2,61.2 24.2,61.2 
	27.4,61.2 27.4,61.1 27.4,61.1 27.4,61.1 27.4,61.1 27.4,61.1 27.4,61.1 24.2,61.1 24.2,61.1 24.2,61.1 24.2,61.1 24.2,61.2 
	24.2,61.2 24.2,61.2 23.6,61.2 23.6,61.2 23.6,61.2 23.6,61.1 23.6,61.1 23.6,61.1 23.6,61.1 23.6,61.1 20.5,61.1 20.4,61.1 
	20.4,61.1 "/>
<path class="st4" d="M20.4,61.1C20.5,61.1,20.5,61.1,20.4,61.1c0.1,0,3.1,0,3.1,0l0,0h-0.1v0.1h0.6l0.1-0.1l0,0c0,0,3.1,0,3.1,0l0,0
	l0,0c-0.1,0-3.1,0-3.1,0l-0.1,0.1v0.1l0,0l-0.1,0.1h-0.6l0,0l0.1-0.1v-0.1L20.4,61.1L20.4,61.1L20.4,61.1z M27.3,61.1h-3.2l-0.1,0.1
	v0.1c-0.1,0-0.4,0-0.5,0v-0.1l-0.1-0.1h-3.1l0,0l0,0h-0.1v0.1l0.1,0.1c0,0,2.9,0,3,0l0,0v0.1l0.1,0.1h0.1l0.1,0.1h0.7l0.1-0.1h0.1
	v-0.1l0,0c0.1,0,3,0,3,0l0.1-0.1l0,0l0,0l0.1-0.1v-0.1H27.3L27.3,61.1L27.3,61.1z"/>
<polygon class="st3" points="21.9,58.7 21.7,58.8 20.7,61 21.2,61 21.6,60.9 22.2,60.9 22.7,60.7 23,60.7 23.2,60.7 23.5,60.8 
	23.6,60.9 23.6,61.1 23.7,61.1 24.1,61.1 24.1,61.1 24.2,61 24.2,60.8 24.4,60.7 24.6,60.6 24.8,60.6 25.1,60.7 25.5,60.8 
	26.1,60.9 26.7,61 27.1,61 26,58.8 25.8,58.7 24,59.8 "/>
<path class="st4" d="M21.7,58.8c0,0,0.2-0.1,0.2-0.1c0.1,0,2,1.1,2,1.1H24l1.9-1.1c0.1,0,0.2,0.1,0.2,0.1s1,2,1,2.1
	c-0.1,0-0.4,0-0.4,0l-0.6-0.1l-0.6-0.1l-0.3-0.1l-0.3-0.1h-0.2l-0.2,0.1l-0.2,0.1l-0.1,0.2c0,0,0,0.1-0.1,0.2c-0.1,0-0.4,0-0.4,0
	l-0.1-0.2l-0.1-0.1l-0.2-0.1l-0.2-0.1l-0.3,0.1l-0.6,0.1l-0.6,0.1l-0.4,0.1c0,0-0.3,0-0.4,0C20.8,60.8,21.7,58.8,21.7,58.8
	L21.7,58.8z M21.7,58.8L20.7,61l0.1,0.1h0.5l0.4-0.1l0.6-0.1l0.6-0.1l0.3-0.1l0.2,0.1l0.2,0.1l0.1,0.1l0.1,0.2l0.1,0.1h0.1h0.4h0.1
	l0.1-0.2l0.1-0.2l0.2-0.1l0.2-0.1h0.2l0.3,0.1l0.3,0.1l0.6,0.1l0.6,0.1h0.4l0.1-0.1l-1.1-2.1l-0.2-0.2h-0.1L24,59.8
	c-0.1,0-2-1.1-2-1.1H22L21.7,58.8L21.7,58.8z"/>
<polygon class="st4" points="23.9,58.7 23.9,58.7 23.9,60.9 23.9,60.9 "/>
<polygon class="st4" points="20.7,60.9 21.1,60.7 21.1,60.7 20.7,61 "/>
<polygon class="st4" points="26.7,60.8 27.1,61 27.1,60.9 26.8,60.7 "/>
<polygon class="st4" points="21.9,58.7 21,60.7 21.3,60.7 21.8,60.6 22.2,60.6 22.7,60.5 23,60.4 23.1,60.4 23.4,60.5 23.5,60.5 
	23.7,60.6 23.7,60.7 23.9,60.8 23.9,60.9 24,60.8 24.1,60.6 24.2,60.5 24.4,60.5 24.6,60.4 24.8,60.4 24.9,60.4 25.3,60.5 
	25.9,60.6 26.4,60.7 26.7,60.7 26.8,60.8 25.9,58.7 25.6,58.7 25.3,58.7 25.1,58.6 24.9,58.5 24.7,58.5 24.6,58.4 24.4,58.4 
	24.2,58.4 24.1,58.4 24.1,58.5 24,58.5 24,58.6 23.9,58.7 23.9,58.7 23.9,58.6 23.9,58.5 23.7,58.5 23.7,58.5 23.6,58.4 23.5,58.4 
	23.2,58.4 23.1,58.5 22.8,58.5 22.7,58.5 22.6,58.6 22.4,58.6 22.1,58.7 22,58.7 "/>
<path class="st4" d="M22,58.7h0.1l0.2-0.1l0.2-0.1l0.2-0.1l0.2-0.1l0.2-0.1l0.2-0.1h0.2l0.1,0.1l0.1,0.1v0.1l0.1,0.1v0.1l0.1,0.1
	h0.1l0.1-0.1H24l0.1-0.1h0.1h0.1h0.3l0.2,0.1l0.2,0.1l0.2,0.1l0.3,0.1h0.3l0.2,0.1c0,0.1,0.8,1.9,0.9,2l-0.3-0.1l-0.5-0.1l-0.6-0.2
	l-0.4-0.1h-0.4l-0.2-0.1l-0.2,0.1L24,60.6l-0.1,0.2v0.1c0-0.1-0.1-0.1-0.1-0.1l-0.1-0.1l-0.1-0.1l-0.2-0.1l-0.2-0.1l-0.2-0.1h-0.2
	h-0.2l-0.4,0.1l-0.4,0.1l-0.4,0.1c0,0-0.2,0-0.2,0.1C21.1,60.6,21.9,58.7,22,58.7C21.9,58.7,22,58.7,22,58.7L22,58.7z M23.1,58.4
	l-0.2,0.1l-0.2,0.1l-0.2,0.1l-0.2,0.1l-0.3-0.1h-0.2h-0.1L21,60.7l0.1,0.1l0.3-0.1l0.4-0.1l0.4-0.1l0.4-0.1l0.3-0.1h0.2l0.2,0.1
	l0.2,0.1l0.2,0.1l0.1,0.1l0.1,0.1l0.1,0.1h0.1l0.1-0.1l0.1-0.2l0.1-0.1l0.2-0.1l0.2-0.1h0.4l0.4,0.1l0.6,0.2l0.5,0.1l0.3,0.1
	l0.1,0.1l0.1-0.1l-0.9-2.1l0,0l-0.3-0.1h-0.3L25,58.5l-0.1-0.1l-0.2-0.1l-0.2-0.1h-0.2h-0.3L24,58.4L24,58.5h-0.1c0,0,0,0-0.1,0.1
	l0,0l-0.1-0.1v-0.1l-0.1-0.1l-0.1-0.1l-0.1-0.1h-0.2L23.1,58.4L23.1,58.4z"/>
<polygon class="st8" points="21.9,58.7 21,60.7 21.4,60.7 21.8,60.6 22.2,60.5 22.7,60.4 23,60.3 23.1,60.3 23.4,60.4 23.5,60.5 
	23.7,60.6 23.7,60.6 23.9,60.7 23.9,60.9 24,60.7 24.1,60.6 24.2,60.5 24.4,60.4 24.6,60.3 24.8,60.3 24.9,60.3 25.3,60.5 
	25.9,60.6 26.4,60.7 26.7,60.7 26.8,60.7 25.9,58.7 25.5,58.7 25.3,58.6 25.1,58.5 24.9,58.5 24.7,58.4 24.6,58.4 24.4,58.4 
	24.2,58.4 24.1,58.4 24.1,58.5 24,58.5 24,58.6 23.9,58.6 23.9,58.7 23.9,58.6 23.9,58.5 23.8,58.5 23.7,58.4 23.6,58.4 23.5,58.4 
	23.2,58.4 23.1,58.4 22.8,58.5 22.7,58.5 22.6,58.6 22.4,58.6 22.1,58.6 22,58.7 "/>
<path class="st4" d="M24,58.7L24,58.7L24,58.7l0.2-0.2l0.1-0.1l0.1-0.1h0.2l0.2,0.1h0.2l0.2,0.1l0.2,0.1l0.2,0.1l0.3,0.1
	c0,0,0.2,0,0.3,0c0,0.1,0.8,1.9,0.8,2l-0.3-0.1h-0.5l-0.6-0.2l-0.4-0.1h-0.3l-0.2,0.1l-0.2,0.1L24,60.6l-0.1,0.2c0,0,0,0,0,0.1
	c0-0.1-0.1-0.1-0.1-0.1l-0.1-0.1l-0.1-0.1l-0.2-0.1l-0.2-0.1l-0.2-0.1H23l-0.3-0.1l-0.4,0.1l-0.4,0.1l-0.4,0.1c0,0-0.2,0-0.3,0.1
	c0.1-0.1,0.9-1.9,0.9-2l0,0l0.2-0.1l0.3-0.1h0.2l0.1-0.1l0.2-0.1l0.2-0.1l0.2-0.1h0.3l0.1,0.1l0.1,0.1l0.1,0.1L24,58.7L24,58.7
	L24,58.7L24,58.7z M24.1,58.4L24.1,58.4L24,58.5c0,0-0.1,0.1-0.1,0.1l-0.1-0.1l-0.1-0.1l-0.1-0.1l-0.1-0.1h-0.1h-0.2L23,58.4
	l-0.2,0.1l-0.2,0.1l-0.1,0.1h-0.2l-0.2,0.1l-0.2,0.1h-0.1l-0.9,2l0.1,0.1l0.3-0.1l0.4-0.1l0.4-0.1l0.4-0.1l0.3-0.1h0.2l0.2,0.1
	l0.2,0.1l0.2,0.1l0.2,0.2l0.1,0.2H24l0.1-0.1l0.1-0.2l0.1-0.1l0.2-0.1l0.2-0.1h0.2l0.4,0.1l0.6,0.2l0.4,0.1l0.3,0.1l0.1,0.1l0.1-0.1
	l-0.9-2.1h-0.1h-0.3l-0.3-0.1L25,58.5l-0.1-0.1l-0.2-0.1h-0.2l-0.2-0.1h-0.2L24.1,58.4L24.1,58.4z"/>
<polygon class="st4" points="23.9,58.7 23.9,58.7 23.9,60.9 23.9,60.9 "/>
<path class="st3" d="M15.4,53H15v-0.8h0.4v0.1l0,0h-0.2v0.5h0.2l0,0V53L15.4,53z M16.2,52.6v0.1c-0.1,0-0.1,0-0.1,0
	c-0.1,0-0.1,0.1-0.1,0.1c0,0.1,0,0.1,0.1,0.1c0,0,0,0,0.1,0v0.1c-0.1,0-0.1,0-0.1,0c-0.2,0-0.2-0.1-0.2-0.2c0-0.1,0.1-0.2,0.2-0.2
	C16.1,52.6,16.1,52.6,16.2,52.6L16.2,52.6z M16.2,52.3v0.1c-0.1,0.1-0.1,0.1-0.1,0.1h-0.2c0-0.1,0.1-0.1,0.1-0.2
	C16,52.4,16.1,52.3,16.2,52.3L16.2,52.3L16.2,52.3z M15.8,52.5c0,0.1-0.1,0.2-0.1,0.3c-0.1,0.1-0.2,0.1-0.3,0.1h-0.1v-0.1
	c0.1,0,0.1-0.1,0.1-0.1c0.1-0.1,0.1-0.1,0.1-0.2c0-0.1,0-0.2-0.1-0.2c-0.1-0.1-0.1-0.1-0.1-0.1v-0.2h0.1c0.1,0,0.2,0,0.3,0.1
	C15.7,52.3,15.8,52.4,15.8,52.5L15.8,52.5L15.8,52.5z M17.4,52.3C17.3,52.3,17.3,52.3,17.4,52.3C17.3,52.3,17.3,52.3,17.4,52.3
	c-0.1,0-0.1,0-0.1,0.1c-0.1,0-0.1,0-0.1,0.1v0.1h0.1v0.1h-0.1V53h-0.2v-0.6H17v-0.1h0.1v-0.1c0-0.1,0.1-0.2,0.2-0.2
	c0.1,0,0.1,0,0.2,0L17.4,52.3L17.4,52.3z M17,52.3L17,52.3C16.9,52.3,16.9,52.3,17,52.3C16.9,52.3,16.9,52.3,17,52.3
	c-0.1,0.1-0.1,0.1-0.1,0.1v0.1H17v0.1h-0.1V53h-0.2v-0.6h-0.1v-0.1h0.1v-0.1c0-0.1,0.1-0.2,0.2-0.2c0.1,0,0.1,0,0.1,0L17,52.3
	L17,52.3L17,52.3z M16.2,53v-0.1c0,0,0.1,0,0.1-0.1l0.1-0.1v-0.1h-0.1l-0.1,0.1v-0.1h0.1c0.1,0,0.1,0,0.1-0.1c0.1,0,0.1,0,0.1-0.1
	s-0.1-0.1-0.1-0.1l0,0v-0.1l0,0c0.1,0,0.2,0.1,0.2,0.1c0.1,0,0.1,0.1,0.1,0.2v0.3c0,0.1,0,0.1,0,0.1s0.1,0.1,0.1,0
	c0,0.1,0,0.1,0,0.1h-0.1c-0.1,0-0.1,0-0.1,0c-0.1,0-0.1-0.1-0.1-0.1l0,0l0,0C16.2,52.9,16.2,53,16.2,53L16.2,53L16.2,53z M17.7,52.3
	v0.2c-0.1,0-0.1,0.1-0.1,0.2s0.1,0.2,0.1,0.2v0.1c-0.2,0-0.3-0.1-0.3-0.3C17.4,52.4,17.5,52.3,17.7,52.3L17.7,52.3L17.7,52.3z
	 M17.7,53v-0.1l0,0c0.1,0,0.2-0.1,0.2-0.2c0-0.2-0.1-0.2-0.2-0.2l0,0v-0.2l0,0c0.2,0,0.3,0.1,0.3,0.3C18.1,52.9,18,53,17.7,53
	L17.7,53L17.7,53z M18.5,52.4v0.1l0,0c-0.1,0-0.1,0.1-0.1,0.2s0.1,0.2,0.1,0.2l0,0V53h-0.1c-0.1,0-0.2-0.1-0.2-0.1
	c0-0.1,0-0.2,0-0.3s0-0.2,0.1-0.2C18.3,52.4,18.3,52.3,18.5,52.4C18.4,52.3,18.5,52.3,18.5,52.4L18.5,52.4L18.5,52.4z M21.3,53
	c-0.1,0-0.1,0-0.2,0s-0.1,0-0.1-0.1c-0.1,0-0.1-0.1-0.1-0.1v-0.3h-0.1v-0.1H21v-0.2h0.2v0.2h0.1v0.1h-0.1v0.3c0,0.1,0,0.1,0,0.1h0.1
	c0.1,0,0.1,0,0.1,0L21.3,53L21.3,53L21.3,53z M20.8,53h-0.2v-0.4c0-0.1,0-0.1-0.1-0.1c-0.1,0-0.1,0-0.1,0.1c-0.1,0-0.1,0-0.1,0.1V53
	h-0.2v-0.6h0.2v0.1l0,0c0.1-0.1,0.1-0.1,0.2-0.1c0.1,0,0.1,0.1,0.2,0.1s0.1,0.1,0.1,0.1L20.8,53L20.8,53L20.8,53z M20.1,53h-0.2
	v-0.8h0.2V53L20.1,53L20.1,53z M19.4,53h-0.2v-0.8h0.2V53L19.4,53L19.4,53z M19.1,53H19v-0.6h0.2V53L19.1,53L19.1,53z M19.1,52.3H19
	v-0.2h0.2V52.3L19.1,52.3L19.1,52.3z M18.5,53v-0.2c0.1,0,0.2-0.1,0.2-0.2s-0.1-0.2-0.2-0.2v-0.1c0.1,0,0.1,0.1,0.2,0.1l0,0v-0.3
	h0.2V53h-0.2v-0.1l0,0C18.6,52.9,18.6,53,18.5,53L18.5,53L18.5,53z M21.7,52.3v0.1c-0.1,0-0.1,0.1-0.2,0.2h0.2v0.1h-0.2
	c0,0.1,0.1,0.2,0.2,0.2V53c-0.2,0-0.3-0.1-0.3-0.3c0-0.1,0.1-0.2,0.1-0.2C21.5,52.4,21.6,52.3,21.7,52.3L21.7,52.3L21.7,52.3
	L21.7,52.3z M23.2,53h-0.2v-0.4c0-0.1-0.1-0.1-0.1-0.1c-0.1,0-0.1,0-0.1,0.1c-0.1,0.1-0.1,0.1-0.1,0.1V53h-0.2v-0.6h0.2v0.1l0,0
	c0-0.1,0.1-0.1,0.2-0.1c0.1,0,0.1,0.1,0.2,0.1c0,0.1,0,0.1,0,0.2L23.2,53L23.2,53z M22.6,52.5C22.5,52.5,22.5,52.5,22.6,52.5
	c-0.1,0-0.2,0-0.2,0.1c-0.1,0.1-0.1,0.1-0.1,0.1V53h-0.2v-0.6h0.2v0.1l0,0c0.1-0.1,0.1-0.2,0.2-0.2c0.1,0,0.1,0,0.1,0.1V52.5
	L22.6,52.5L22.6,52.5z M21.7,52.7v-0.1h0.1c0-0.1,0-0.1,0-0.1c-0.1-0.1-0.1-0.1-0.1-0.1l0,0v-0.2c0.1,0,0.2,0.1,0.2,0.1
	c0.1,0.1,0.1,0.2,0.1,0.3L21.7,52.7L21.7,52.7L21.7,52.7z M21.7,53v-0.1l0,0c0.1,0,0.1,0,0.1-0.1c0.1,0,0.1-0.1,0.1-0.1H22
	c0,0.1-0.1,0.1-0.1,0.1C21.9,53,21.8,53,21.7,53L21.7,53L21.7,53L21.7,53z M23.6,52.6v0.1c-0.1,0-0.1,0-0.1,0
	c-0.1,0-0.1,0.1-0.1,0.1c0,0.1,0,0.1,0.1,0.1h0.1v0.1c-0.1,0-0.1,0-0.1,0c-0.2,0-0.2-0.1-0.2-0.2c0-0.1,0.1-0.2,0.2-0.2
	C23.6,52.6,23.6,52.6,23.6,52.6L23.6,52.6L23.6,52.6z M23.6,52.3v0.1c-0.1,0.1-0.1,0.1-0.1,0.1h-0.2c0-0.1,0.1-0.1,0.1-0.2
	C23.5,52.4,23.5,52.3,23.6,52.3L23.6,52.3L23.6,52.3z M24.7,53h-0.2v-0.6h0.2V53L24.7,53z M24.7,52.3h-0.2v-0.2h0.2V52.3L24.7,52.3
	L24.7,52.3z M24.4,53c-0.1,0-0.1,0-0.1,0c-0.1,0-0.1,0-0.2-0.1c0,0-0.1-0.1-0.1-0.1v-0.3H24v-0.1h0.1v-0.2h0.2v0.2h0.1v0.1h-0.1v0.3
	c0,0.1,0,0.1,0.1,0.1c0,0,0,0,0.1,0h0.1L24.4,53L24.4,53L24.4,53z M23.6,53v-0.1c0.1,0,0.1,0,0.1-0.1c0.1,0,0.1-0.1,0.1-0.1v-0.1
	h-0.1l-0.1,0.1v-0.1c0.1,0,0.1,0,0.1,0c0.1,0,0.1,0,0.1-0.1c0,0,0,0,0-0.1s-0.1-0.1-0.1-0.1l0,0v-0.1l0,0c0.1,0,0.2,0.1,0.2,0.1
	c0.1,0,0.1,0.1,0.1,0.2v0.3c0,0.1,0,0.1,0,0.1c0.1,0,0.1,0.1,0.1,0c0,0.1,0,0.1,0,0.1h-0.1c-0.1,0-0.1,0-0.1,0
	c-0.1,0-0.1-0.1-0.1-0.1l0,0l0,0C23.7,52.9,23.7,53,23.6,53L23.6,53L23.6,53z M25.1,52.3v0.2c-0.1,0-0.2,0.1-0.2,0.2
	s0.1,0.2,0.2,0.2v0.1c-0.2,0-0.3-0.1-0.3-0.3C24.8,52.4,24.9,52.3,25.1,52.3L25.1,52.3L25.1,52.3z M26.2,53H26v-0.4
	c0-0.1-0.1-0.1-0.1-0.1c-0.1,0-0.1,0-0.1,0.1c-0.1,0.1-0.1,0.1-0.1,0.1V53h-0.2v-0.6h0.2v0.1l0,0c0.1-0.1,0.1-0.1,0.2-0.1
	c0.1,0,0.1,0.1,0.2,0.1c0.1,0,0.1,0.1,0.1,0.1V53L26.2,53L26.2,53z M25.1,53v-0.1l0,0c0.1,0,0.1-0.1,0.1-0.2c0-0.2-0.1-0.2-0.1-0.2
	l0,0v-0.2l0,0c0.2,0,0.3,0.1,0.3,0.3C25.5,52.9,25.4,53,25.1,53L25.1,53L25.1,53L25.1,53z M26.5,52.6v0.1h-0.1
	c-0.1,0-0.1,0.1-0.1,0.1c0,0.1,0.1,0.1,0.1,0.1c0.1,0,0.1,0,0.1,0v0.1c-0.1,0-0.1,0-0.1,0c-0.2,0-0.2-0.1-0.2-0.2
	c0-0.1,0.1-0.2,0.2-0.2C26.5,52.6,26.5,52.6,26.5,52.6L26.5,52.6L26.5,52.6z M26.5,52.3v0.1c-0.1,0.1-0.1,0.1-0.1,0.1h-0.2
	c0-0.1,0-0.1,0.1-0.2C26.4,52.4,26.5,52.3,26.5,52.3L26.5,52.3L26.5,52.3z M30.1,52.4L29.9,53h-0.2l-0.2-0.6h0.2l0.1,0.4l0,0
	l0.1-0.4H30.1L30.1,52.4z M29.4,53h-0.2v-0.6h0.2V53L29.4,53L29.4,53z M29.4,52.3h-0.2v-0.2h0.2V52.3L29.4,52.3L29.4,52.3z M29.1,53
	H29v-0.4c0-0.1-0.1-0.1-0.1-0.1c-0.1,0-0.1,0-0.1,0.1c-0.1,0.1-0.1,0.1-0.1,0.1V53h-0.2v-0.6h0.2v0.1l0,0c0.1-0.1,0.1-0.1,0.2-0.1
	c0.1,0,0.1,0.1,0.2,0.1c0.1,0,0.1,0.1,0.1,0.1V53L29.1,53L29.1,53z M28.4,52.7c0,0.1-0.1,0.2-0.1,0.2c-0.1,0.1-0.2,0.1-0.3,0.1
	c-0.1,0-0.2,0-0.3-0.1c-0.1-0.1-0.1-0.1-0.1-0.2v-0.4h0.2v0.5c0,0.1,0.1,0.1,0.2,0.1c0.1,0,0.2-0.1,0.2-0.1v-0.5h0.2L28.4,52.7
	L28.4,52.7L28.4,52.7z M27.2,53H27v-0.8h0.2V53L27.2,53L27.2,53z M26.5,53v-0.1c0.1,0,0.1,0,0.1-0.1c0.1,0,0.1-0.1,0.1-0.1v-0.1
	h-0.1c0,0,0,0.1-0.1,0.1v-0.1c0.1,0,0.1,0,0.1,0c0.1,0,0.1,0,0.1-0.1c0,0,0,0,0-0.1s-0.1-0.1-0.1-0.1c-0.1,0-0.1,0-0.1,0v-0.1h0.1
	c0.1,0,0.2,0.1,0.2,0.1c0.1,0,0.1,0.1,0.1,0.2v0.3c0,0.1,0,0.1,0.1,0.1c0,0,0,0.1,0,0c0,0.1,0,0.1,0,0.1h-0.1c-0.1,0-0.1,0-0.1,0
	l-0.1-0.1l0,0l0,0C26.7,52.9,26.6,53,26.5,53L26.5,53L26.5,53z M30.5,52.3v0.1c-0.1,0-0.1,0.1-0.1,0.2h0.1v0.1h-0.1
	c0,0.1,0.1,0.2,0.1,0.2V53c-0.2,0-0.3-0.1-0.3-0.3c0-0.1,0.1-0.2,0.1-0.2C30.3,52.4,30.4,52.3,30.5,52.3L30.5,52.3L30.5,52.3
	L30.5,52.3z M33.5,52.4L33.2,53c-0.1,0.1-0.1,0.1-0.1,0.1c-0.1,0.1-0.1,0.1-0.2,0.1c-0.1,0-0.1,0-0.1,0V53h0.1C33,53,33,53,33,52.9
	l-0.2-0.6H33l0.1,0.4l0,0l0.1-0.4L33.5,52.4L33.5,52.4z M32.8,53c-0.1,0-0.1,0-0.2,0c-0.1,0-0.1,0-0.1-0.1c-0.1,0-0.1-0.1-0.1-0.1
	v-0.3h-0.1v-0.1h0.1v-0.2h0.2v0.2h0.2v0.1h-0.1v0.3c0,0.1,0,0.1,0,0.1h0.1c0.1,0,0.1,0,0.1,0L32.8,53L32.8,53L32.8,53z M32.3,53
	h-0.2v-0.6h0.2V53L32.3,53L32.3,53z M32.3,52.3h-0.2v-0.2h0.2V52.3L32.3,52.3L32.3,52.3z M32,52.8c0,0.1-0.1,0.2-0.3,0.2
	s-0.3-0.1-0.3-0.2h0.2c0,0.1,0.1,0.1,0.1,0.1c0.1,0,0.1-0.1,0.1-0.1l-0.1-0.1c-0.1,0-0.1,0-0.1-0.1c-0.1,0-0.2-0.1-0.2-0.1
	c-0.1-0.1-0.1-0.1-0.1-0.2c0-0.1,0.1-0.1,0.1-0.1c0.1-0.1,0.1-0.1,0.2-0.1c0.1,0,0.2,0.1,0.2,0.1c0.1,0.1,0.1,0.1,0.1,0.1h-0.2
	c0-0.1-0.1-0.1-0.1-0.1c-0.1,0-0.1,0-0.1,0.1s0.1,0.1,0.2,0.1c0.1,0,0.1,0.1,0.2,0.1C31.9,52.7,32,52.7,32,52.8L32,52.8L32,52.8z
	 M31.3,52.5C31.3,52.5,31.3,52.5,31.3,52.5c-0.1,0-0.1,0-0.2,0.1c-0.1,0-0.1,0.1-0.1,0.1v0.3h-0.2v-0.6h0.2v0.1l0,0
	c0.1-0.1,0.1-0.2,0.2-0.2c0,0,0.1,0,0.1,0.1V52.5L31.3,52.5L31.3,52.5z M30.5,52.7v-0.1h0.1c0-0.1,0-0.1,0-0.1
	c-0.1-0.1-0.1-0.1-0.1-0.1l0,0v-0.2c0.1,0,0.2,0.1,0.3,0.1c0.1,0.1,0.1,0.2,0.1,0.3L30.5,52.7L30.5,52.7L30.5,52.7z M30.5,53v-0.1
	l0,0c0.1,0,0.1,0,0.1-0.1c0.1,0,0.1-0.1,0.1-0.1h0.2c0,0.1,0,0.1-0.1,0.1C30.7,53,30.6,53,30.5,53L30.5,53L30.5,53L30.5,53z"/>
<path class="st7" d="M18.6,63.2l0.7,0.3v1l-0.8,1.8l0.3,0.1c0.2,0.1,0.4,0.2,0.6,0.2c0,0,0,0,0.1,0v1c-0.3-0.1-0.5-0.1-0.7-0.2
	l-1.6-0.7L18.6,63.2L18.6,63.2z M19.3,63.5l0.9,0.4c0.3,0.2,0.6,0.3,0.7,0.4c0.2,0.2,0.3,0.4,0.3,0.6c0.1,0.2,0.1,0.4,0.1,0.6
	c-0.1,0.3-0.1,0.5-0.2,0.7c-0.2,0.4-0.3,0.6-0.5,0.8c-0.2,0.2-0.4,0.3-0.6,0.4c-0.2,0.1-0.4,0.1-0.6,0.1l0,0v-1
	c0.1-0.1,0.2-0.1,0.3-0.2c0.1-0.1,0.2-0.3,0.3-0.6c0.2-0.4,0.2-0.6,0.2-0.8c-0.1-0.2-0.2-0.3-0.5-0.4l-0.3-0.2l-0.1,0.2L19.3,63.5
	L19.3,63.5z"/>
<polygon class="st7" points="23.4,65.5 24.5,65.5 24.5,69.3 23.4,69.3 "/>
<path class="st7" d="M28.3,63.6l1.1-0.5l1,2c0.1,0.2,0.2,0.4,0.2,0.6c0,0.2,0,0.4-0.1,0.6c-0.1,0.2-0.2,0.3-0.3,0.5
	c-0.2,0.2-0.4,0.3-0.7,0.4c-0.2,0.1-0.4,0.2-0.6,0.2c-0.2,0.1-0.4,0.1-0.6,0.1c-0.2,0-0.3-0.1-0.5-0.1c-0.2-0.1-0.3-0.2-0.4-0.3
	c-0.2-0.2-0.3-0.4-0.4-0.5l-1-2l1.1-0.5l1,2.1c0.1,0.2,0.2,0.3,0.3,0.4c0.2,0.1,0.3,0.1,0.6-0.1c0.2-0.1,0.3-0.2,0.3-0.4
	c0.1-0.2,0.1-0.3-0.1-0.5L28.3,63.6L28.3,63.6z"/>
<path class="st9" d="M23.8,71.9c0.7,0,1.3,0.6,1.3,1.3c0,0.7-0.6,1.3-1.3,1.3c-0.7,0-1.3-0.6-1.3-1.3C22.5,72.5,23.1,71.9,23.8,71.9
	L23.8,71.9z"/>
<path class="st10" d="M44.4,59.4c-2,0-3.9,0-5.9,0c-0.3,0-0.3-0.1-0.3-0.4c0.6-2.8,1.2-5.7,1.8-8.5c0.1-0.5,0.2-1.1,0.3-1.6
	c0-0.2,0.1-0.3,0.4-0.3c1.9,0,3.8,0,5.6,0c0.6,0,1.3,0.2,1.8,0.5c0.9,0.5,1.3,1.3,1.3,2.3c0.1,2.2-0.4,4.2-1.6,6
	c-0.1,0.1-0.1,0.2-0.2,0.3c-0.8,0.2-1.5,0.6-2.2,1c-0.2,0.1-0.4,0.3-0.6,0.5C44.8,59.3,44.6,59.5,44.4,59.4L44.4,59.4z"/>
<path class="st10" d="M85.5,58.7c-1,1-2.3,1.2-3.6,0.8c-1-0.3-1.5-1-1.7-2c-0.2-2,0.2-3.7,1.6-5.2c1.1-1.2,2.6-1.5,4.1-1.1
	c0.5,0.1,0.8,0.5,1.1,1c0.2-0.7,0.3-1.3,0.4-1.9c0.1-0.5,0.2-1,0.3-1.5c0-0.3,0.1-0.4,0.4-0.4c0.6,0,1.2,0,1.8,0
	c0.3,0,0.4,0.1,0.3,0.4c-0.6,2.8-1.2,5.5-1.8,8.3c-0.1,0.7-0.3,1.3-0.4,2c0,0.3-0.2,0.4-0.4,0.3c-0.5,0-1,0-1.5,0
	c-0.7,0-0.7,0-0.6-0.6C85.7,58.6,85.6,58.6,85.5,58.7L85.5,58.7z"/>
<path class="st10" d="M56.6,59.5c-0.4,0-0.9,0.2-1.3-0.1c-0.2,0-0.1-0.2-0.1-0.3c0-0.1,0-0.3-0.1-0.5c-0.6,0.4-1.1,0.8-1.8,0.9
	c-0.8,0.2-1.6,0.2-2.5,0c-1-0.2-1.4-0.8-1.4-1.8c0-0.1,0.1-0.3,0-0.4c0,0,0-0.1,0-0.1c0.3-1.5,1.3-2.3,2.9-2.5
	c0.9-0.1,1.8-0.2,2.7-0.3c0.6-0.1,0.9-0.3,1-0.8c0.1-0.4-0.1-0.7-0.5-0.8c-0.9-0.3-1.9,0-2.4,0.9c-0.1,0.1-0.2,0.2-0.3,0.2
	c-0.6,0-1.3,0-1.9,0c-0.3,0-0.3-0.2-0.2-0.4c0.4-1.2,1.3-2,2.5-2.2c1.3-0.3,2.5-0.3,3.8,0c1.1,0.2,1.7,0.9,1.5,2
	c-0.2,1.5-0.6,2.9-0.9,4.4c0,0.2-0.1,0.4-0.1,0.6c0,0.3,0,0.5,0.3,0.6c0,0.6,0,0.6-0.5,0.6C57.1,59.5,56.8,59.4,56.6,59.5L56.6,59.5
	z"/>
<path class="st10" d="M74.7,59.7c-0.5,0-1.1,0-1.6-0.1c-1.8-0.3-2.6-1.2-2.6-3.1c0-1.3,0.4-2.6,1.2-3.7c1-1.3,2.4-1.7,4-1.8
	c0.7,0,1.3,0,2,0.2c1.2,0.3,2,1.2,2.1,2.4c0.1,1.9-0.4,3.6-1.8,4.9c-0.7,0.7-1.6,1-2.6,1.1c-0.1-0.1-0.1-0.3-0.3-0.1
	C74.9,59.6,74.8,59.7,74.7,59.7L74.7,59.7z"/>
	<defs>
		<rect id="SVGID_3_" x="10.5" y="48.2" width="99.5" height="27.6"/>
	</defs>
	<clipPath id="SVGID_4_">
		<use xlink:href="#SVGID_3_"  style="overflow:visible;"/>
	</clipPath>
	<path class="st11" d="M57.1,65.3c-0.3,1.5-0.6,3-1,4.5c-0.4,1.8-1.6,2.8-3.5,3c-0.9,0.1-1.8,0.1-2.7-0.1c-1.1-0.3-1.7-1.1-1.5-2.2
		c0.1-1.4,0.5-2.8,0.8-4.2c0.1-0.7,0.3-1.4,0.4-2.1c0-0.3,0.2-0.3,0.4-0.3c0.3,0,0.6,0,0.9,0c0.2-0.1,0.4-0.2,0.5,0
		c0.5,0,0.5,0,0.3,0.6c0.1,0.3,0,0.5-0.1,0.7c-0.3,1.4-0.6,2.9-0.9,4.3c-0.2,1-0.1,1.4,0.5,1.6c0.8,0.3,1.8,0,2.2-0.6
		c0.3-0.4,0.4-0.8,0.4-1.3c0.3-1.3,0.6-2.6,0.8-4c0-0.1,0-0.1,0-0.2c-0.1-0.2,0-0.4,0.2-0.6c0.1-0.6,0.1-0.6,0.7-0.6
		c0.2,0,0.5,0,0.7,0c0.2-0.1,0.4-0.2,0.6,0c0.5,0,0.4,0.3,0.3,0.6C57.2,64.8,57.4,65.1,57.1,65.3L57.1,65.3z"/>
	<defs>
		<rect id="SVGID_5_" x="10.5" y="48.2" width="99.5" height="27.6"/>
	</defs>
	<clipPath id="SVGID_6_">
		<use xlink:href="#SVGID_5_"  style="overflow:visible;"/>
	</clipPath>
	<path class="st12" d="M65,52.9C64.7,53.2,64.3,53,64,53c-0.4,0-0.5,0.1-0.6,0.5c-0.4,1.8-0.8,3.7-1.1,5.5c-0.1,0.3-0.2,0.4-0.5,0.4
		c-0.6,0-1.1,0-1.7,0c-0.4,0-0.5-0.1-0.4-0.4c0.3-1.5,0.6-3,1-4.6c0.1-0.3,0.1-0.7,0.2-1c0.1-0.3,0-0.4-0.3-0.3c0,0,0,0,0,0
		c-0.9,0-0.9,0-0.7-0.9c0.2-0.9,0.2-0.9,1.1-0.8c0.4,0,0.5-0.1,0.5-0.5c0-0.1,0.1-0.2,0.1-0.3c0.2-1.5,1-2.1,2.5-2.3
		c0.6-0.1,1.2,0,1.8,0.1c0.2,0,0.3,0.1,0.2,0.3c0,0.1,0,0.2-0.1,0.3c-0.1,0.3-0.1,0.7-0.3,0.9c-0.2,0.3-0.6,0.1-0.9,0.1
		c-0.5,0.1-0.9,0.6-0.9,1.2c0,0.2,0.1,0.1,0.3,0.1c0.3,0,0.6,0,0.9,0c0.2,0,0.3,0.1,0.2,0.3c-0.1,0.2-0.1,0.4-0.1,0.6
		C65.2,52.5,65.3,52.7,65,52.9L65,52.9z"/>

	<defs>
		<rect id="SVGID_7_" x="10.5" y="48.2" width="99.5" height="27.6"/>
	</defs>
	<clipPath id="SVGID_8_">
		<use xlink:href="#SVGID_7_"  style="overflow:visible;"/>
	</clipPath>
	<path class="st13" d="M65.3,52.4c0.1-0.3,0.1-0.6,0.2-0.9c0-0.2,0.2-0.2,0.4-0.2c0.3,0,0.7,0.1,1-0.1c0.2-0.2,0.2-0.6,0.3-0.9
		c0.2-1.1,0.9-1.7,2-1.9c0.8-0.1,1.6,0,2.3,0c0.1,0,0.2,0.1,0.2,0.2c0,0.1,0,0.2-0.1,0.3c-0.1,0.4-0.1,0.8-0.3,1
		c-0.2,0.3-0.7,0-1,0.1c-0.1,0-0.3,0.1-0.4,0.1c-0.3,0.2-0.3,0.6-0.4,0.9c0,0.2,0.1,0.2,0.2,0.2c0.3,0,0.6,0,0.9,0
		c0.2,0,0.3,0.1,0.3,0.3c0,0.1,0,0.1,0,0.2c-0.1,0.4-0.1,0.9-0.3,1.2c-0.2,0.3-0.8,0.1-1.2,0.1c-0.3,0-0.3,0.2-0.4,0.4
		c-0.4,1.9-0.8,3.8-1.2,5.6c-0.1,0.3-0.2,0.4-0.5,0.4c-0.6,0-1.2,0-1.8,0c-0.3,0-0.4,0-0.3-0.4c0.4-1.6,0.7-3.3,1-5
		c0-0.2,0.1-0.4,0.1-0.6c0.1-0.3,0-0.4-0.3-0.4c-0.2,0-0.3,0-0.5,0c-0.4,0-0.5-0.1-0.4-0.5C65.2,52.5,65.3,52.5,65.3,52.4L65.3,52.4
		z"/>
<path class="st14" d="M79.5,69.9c-0.7,0-1.4,0-2.1,0c-0.2,0-0.3,0.1-0.4,0.3c-0.1,0.7,0.1,1.1,0.5,1.3c0.6,0.3,1.5,0.1,1.8-0.5
	c0.2-0.4,0.5-0.5,0.9-0.4c0.4,0,0.7,0,1.1,0c0.3,0,0.3,0.1,0.2,0.3c-0.5,1-1.3,1.6-2.3,1.8c-0.8,0.2-1.6,0.2-2.5,0
	c-1.1-0.2-1.7-0.9-1.8-2c-0.1-1.9,0.7-4,2.8-4.6c0.9-0.3,1.8-0.3,2.7-0.1c1,0.2,1.5,0.9,1.6,1.9c0.1,0.5,0,1.1-0.1,1.6
	c0,0.2-0.1,0.3-0.4,0.3C80.9,69.9,80.2,69.9,79.5,69.9L79.5,69.9z"/>
<path class="st14" d="M90.4,72.9c-0.6,0-1.2,0-1.8-0.2c-0.8-0.3-1.2-0.9-1.1-1.7c0-0.2,0.1-0.3,0.3-0.3c0.5,0,1,0,1.5,0
	c0.2,0,0.3,0.1,0.4,0.3c0.1,0.5,0.3,0.6,0.9,0.7c0.6,0,1.1-0.2,1.2-0.6c0.1-0.3,0-0.5-0.4-0.7c-0.6-0.2-1.2-0.3-1.9-0.5
	c-0.6-0.2-1.2-0.3-1.3-1.1c-0.1-0.8,0.1-1.5,0.7-2c0.4-0.4,1-0.6,1.5-0.7c1-0.2,2-0.2,3,0.2c0.7,0.3,1.1,0.8,1,1.5
	c0,0.2-0.1,0.3-0.3,0.3c-0.5,0-1,0-1.5,0c-0.2,0-0.3,0-0.3-0.2c0-0.3-0.3-0.5-0.6-0.5c-0.4-0.1-0.8-0.1-1.1,0.1
	c-0.2,0.1-0.3,0.2-0.4,0.5c0,0.2,0.2,0.3,0.3,0.4c0.5,0.3,1.1,0.3,1.7,0.4c0.3,0.1,0.7,0.1,1,0.3c0.6,0.3,0.9,0.8,0.8,1.5
	c-0.2,1.2-1,2-2.3,2.2C91.3,72.9,90.9,72.9,90.4,72.9L90.4,72.9z"/>
	<defs>
		<rect id="SVGID_9_" x="10.5" y="48.2" width="99.5" height="27.6"/>
	</defs>
	<clipPath id="SVGID_10_">
		<use xlink:href="#SVGID_9_"  style="overflow:visible;"/>
	</clipPath>
	<path class="st15" d="M60,67c0.8-0.8,1.7-1,2.7-0.9c1,0.1,1.6,0.8,1.4,1.8c-0.3,1.5-0.6,3.1-0.9,4.6c0,0.2-0.2,0.3-0.4,0.3
		c-0.5,0-0.9,0-1.4,0c-0.3,0-0.4-0.1-0.3-0.4c0.3-1.2,0.5-2.4,0.8-3.7c0.2-0.8-0.2-1.2-1-1c-0.6,0.1-1.1,0.5-1.3,1.2
		c-0.3,1.2-0.5,2.3-0.7,3.5c-0.1,0.3-0.2,0.5-0.5,0.4c-0.4,0-0.8,0-1.2,0c-0.5,0-0.5-0.1-0.4-0.5c0.3-1.4,0.6-2.9,0.9-4.3
		c0.1-0.5,0.2-0.9,0.3-1.4c0-0.3,0.2-0.4,0.4-0.4c0.4,0,0.8,0,1.2,0c0.4,0,0.5,0.1,0.4,0.5C60.1,66.7,60.1,66.8,60,67L60,67z"/>

	<defs>
		<rect id="SVGID_11_" x="10.5" y="48.2" width="99.5" height="27.6"/>
	</defs>
	<clipPath id="SVGID_12_">
		<use xlink:href="#SVGID_11_"  style="overflow:visible;"/>
	</clipPath>
	<path class="st16" d="M105.9,70.2c0.3-0.6,0.6-1.3,1-1.9c0.3-0.6,0.6-1.2,0.9-1.8c0.1-0.3,0.3-0.5,0.7-0.4c0.4,0,0.8,0,1.2,0
		c0.4,0,0.4,0.1,0.2,0.4c-1,1.6-1.9,3.3-2.9,4.9c-0.4,0.7-0.9,1.4-1.3,2.1c-0.6,1.1-1.4,1.5-2.6,1.4c-0.2,0-0.4,0-0.6,0
		c-0.3,0-0.5-0.1-0.4-0.5c0.1-0.1,0.1-0.3,0.1-0.4c0-0.4,0.1-0.7,0.7-0.6c0.7,0.1,1.4-0.7,1.3-1.4c-0.3-1.8-0.6-3.7-1-5.5
		c-0.1-0.4,0-0.5,0.4-0.5c0.4,0,0.9,0,1.3,0c0.3,0,0.4,0.1,0.5,0.4c0.1,1.1,0.2,2.2,0.3,3.3c0,0.1,0,0.2,0,0.3
		C105.8,70.2,105.8,70.2,105.9,70.2L105.9,70.2z"/>
<path class="st14" d="M71,70.7c0.2-0.5,0.5-0.9,0.7-1.4c0.4-0.9,0.9-1.8,1.3-2.8c0.1-0.3,0.3-0.3,0.5-0.3c0.5,0,1,0,1.5,0
	c0.3,0,0.3,0.1,0.2,0.3c-1.1,2-2.3,4-3.4,6c-0.1,0.2-0.2,0.2-0.4,0.2c-0.6,0-1.2,0-1.8,0c-0.2,0-0.3-0.1-0.4-0.3
	c-0.3-2-0.6-3.9-0.9-5.9c0-0.3,0-0.3,0.3-0.3c0.5,0,1,0,1.4,0c0.4,0,0.5,0.1,0.5,0.5c0,1.3,0.1,2.5,0.2,3.8
	C70.9,70.5,71,70.6,71,70.7C71,70.7,71,70.7,71,70.7L71,70.7z"/>
<path class="st10" d="M94.1,59.4c-0.3-0.1-0.1-0.3-0.1-0.4c0.5-2.5,1-5,1.6-7.4c0.2-0.9,0.4-1.8,0.6-2.7c0.1-0.3,0.1-0.4,0.5-0.4
	c0.6,0,1.2,0,1.8,0c0.3,0,0.4,0.1,0.3,0.4c-0.6,2.6-1.1,5.2-1.7,7.8c0,0,0,0.1,0,0.1c-0.4,0-0.8-0.1-1.2,0.2c-0.7,0.5-0.9,1.3-1.2,2
	C94.6,59.2,94.5,59.5,94.1,59.4L94.1,59.4z"/>
<path class="st14" d="M101.2,64.2c1,0,1,0,0.8,1c-0.2,0.9-0.2,0.9,0.7,0.9c0.2,0,0.3,0.1,0.3,0.3c0,0,0,0.1,0,0.1
	c-0.2,1-0.2,1-1.2,1c-0.2,0-0.3,0.1-0.3,0.3c-0.2,1-0.4,1.9-0.6,2.9c-0.1,0.4,0,0.5,0.5,0.6c0.1,0,0.3,0,0.4,0
	c0.2,0,0.3,0.1,0.2,0.2c-0.1,0.3-0.1,0.6-0.2,0.9c0,0.1-0.1,0.2-0.3,0.2c-0.7,0.1-1.4,0.1-2.1,0c-0.5-0.1-0.7-0.3-0.7-0.9
	c0-0.7,0.3-1.5,0.4-2.2c0.1-0.6,0.2-1.1,0.4-1.7c0.1-0.3,0-0.4-0.3-0.4c-0.7,0-0.7,0-0.5-0.7c0-0.1,0-0.2,0.1-0.3
	c0-0.3,0.2-0.4,0.5-0.4c0.7,0,0.7,0,0.8-0.6c0.1-0.3,0.2-0.6,0.2-0.9c0-0.4,0.2-0.5,0.6-0.4C100.9,64.2,101,64.2,101.2,64.2
	L101.2,64.2z"/>
<path class="st10" d="M91.1,59.4c-0.3,0-0.6,0-0.9,0c-0.3,0-0.4-0.1-0.3-0.4c0.4-1.8,0.8-3.6,1.1-5.4c0.1-0.7,0.3-1.4,0.4-2.1
	c0-0.2,0.1-0.3,0.4-0.3c0.6,0,1.3,0,1.9,0c0.3,0,0.3,0.1,0.3,0.3c-0.5,2.5-1.1,5-1.6,7.4c-0.1,0.3-0.2,0.4-0.5,0.4
	C91.6,59.4,91.3,59.4,91.1,59.4L91.1,59.4z"/>
<path class="st14" d="M85.5,67.1c0.2-0.2,0.4-0.4,0.7-0.6c0.5-0.4,1.1-0.5,1.8-0.5c0.2,0,0.3,0.1,0.2,0.3c-0.1,0.5-0.2,0.9-0.3,1.4
	c0,0.2-0.1,0.3-0.4,0.2c-0.2,0-0.5-0.1-0.7,0c-1,0.1-1.7,0.6-1.9,1.6c-0.2,0.9-0.4,1.8-0.6,2.7c-0.1,0.3-0.2,0.4-0.5,0.4
	c-0.4,0-0.9,0-1.3,0c-0.3,0-0.4-0.1-0.3-0.3c0.4-2,0.8-3.9,1.3-5.9c0-0.2,0.1-0.3,0.4-0.3c0.5,0,0.9,0,1.4,0c0.3,0,0.4,0.1,0.3,0.4
	C85.5,66.7,85.4,66.9,85.5,67.1L85.5,67.1z"/>
<path class="st14" d="M95.6,72.7c-1,0-1,0-0.8-1c0.4-1.7,0.7-3.4,1.1-5.2c0.1-0.3,0.2-0.4,0.5-0.4c0.5,0,0.9,0,1.4,0
	c0.3,0,0.3,0.1,0.3,0.3c-0.4,2-0.8,4-1.3,5.9c0,0.2-0.2,0.3-0.4,0.3C96.1,72.7,95.8,72.7,95.6,72.7L95.6,72.7z"/>
<path class="st14" d="M65.4,72.7c-1,0-1,0-0.8-1c0.4-1.7,0.7-3.5,1.1-5.2c0.1-0.3,0.2-0.4,0.4-0.4c0.4,0,0.9,0,1.3,0
	c0.3,0,0.4,0,0.3,0.4c-0.4,1.9-0.8,3.8-1.2,5.7c-0.1,0.4-0.2,0.5-0.6,0.5C65.8,72.7,65.6,72.7,65.4,72.7L65.4,72.7z"/>
<path class="st17" d="M49.5,57.3c0.3,0.2-0.1,0.3-0.1,0.4c-0.4,0.1-0.5,0.5-0.6,0.8c-0.4,0.9-0.5,1.9-0.8,2.8
	c-0.2,0.7-0.3,1.3-0.6,2c-0.6,1.5-1.6,2.2-3.2,2.2c-0.9,0-1.8,0-2.7,0c0-0.3,0.3-0.3,0.4-0.4c0.5-0.2,1.1-0.2,1.6-0.3
	c0.6,0,1.2,0,1.8,0c0.4,0.1,0.8-0.1,1-0.5c0.4-0.7,0.6-1.4,0.7-2.1c0.2-1.2,0.4-2.5,1.1-3.6c0.2-0.3,0.5-0.7,0.8-0.9
	c0.1-0.1,0-0.1,0-0.2c0-0.1-0.2-0.1,0-0.2C49.1,57.3,49.3,57.4,49.5,57.3L49.5,57.3z"/>
<path class="st18" d="M94.1,59.4c0.3,0,0.3-0.2,0.4-0.4c0.3-0.7,0.5-1.4,1.1-2c0.1-0.1,0.1-0.1,0.2-0.1c0.1,0,0.1,0.1,0.1,0.2
	c-0.2,0.6-0.6,1.1-0.7,1.7c0,0.2-0.1,0.3,0,0.5c0.2,0.1,0.5,0,0.7,0.1c0.2,0,0.3,0,0.5,0.1c-0.4,0.1-0.7,0-1.1,0
	c-0.2,0-0.3,0.1-0.4,0.3c-0.4,1.6-0.7,3.2-1.4,4.7c-0.1,0.2,0,0.2,0.2,0.3c0.9,0.1,1.5,0,2.3-0.4c0,0.3-0.4,0.6-0.8,0.8
	c-0.7,0.4-1.5,0.3-2.2,0.2c-0.2,0-0.1-0.2-0.1-0.3c0.6-1.7,1-3.5,1.4-5.3C94.4,59.5,94.3,59.5,94.1,59.4L94.1,59.4z"/>
<path class="st17" d="M74.7,59.7c0.1-0.1,0.1-0.2,0.2-0.3c0.1-0.1,0.2-0.2,0.3-0.1c0.2,0.1,0,0.2,0,0.3c-0.2,0.6-0.3,1.2-0.5,1.8
	c-0.1,0.4,0,0.5,0.4,0.5c0.2,0,0.4,0,0.6,0c0.1,0,0.2,0,0.3,0.2c0,0.2-0.1,0.3-0.2,0.3c-0.3,0-0.6,0-0.9,0c-0.2,0-0.3,0-0.3,0.2
	c-0.1,0.8-0.4,1.4-0.8,2.2c0.7,0,1.4,0.2,2-0.3c0.1-0.1,0.2-0.1,0.2,0c0.1,0.1,0,0.2-0.1,0.2c-0.4,0.5-0.9,0.7-1.5,0.8
	c-0.3,0-0.7,0-1,0c-0.3,0-0.3-0.1-0.2-0.3c0.2-0.8,0.4-1.6,0.6-2.4c0.1-0.2,0.1-0.4-0.2-0.4c-0.1,0-0.2-0.1-0.2-0.2
	c0-0.2,0.1-0.3,0.2-0.2c0.3,0,0.4-0.2,0.5-0.4C74.3,60.8,74.5,60.3,74.7,59.7L74.7,59.7z"/>
<path class="st17" d="M55,64.6c-0.1,0.2-0.1,0.4-0.2,0.6c-0.5,0.2-1,0.1-1.6,0.1C53,65.3,53,65.2,53,65c0.2-0.8,0.4-1.6,0.6-2.4
	c0.1-0.2,0.1-0.3-0.2-0.3c-0.1,0-0.2-0.1-0.2-0.2c0-0.2,0.1-0.3,0.2-0.2c0.3,0,0.4-0.2,0.5-0.4c0.1-0.3,0.2-0.6,0.3-0.9
	c0.2-0.5,0.4-1.1,0.9-1.4c0,0.1,0.1,0.2,0.1,0.3c-0.4,0.5-0.4,1.2-0.6,1.8c-0.1,0.6-0.1,0.6,0.5,0.6c0.1,0,0.2,0,0.3,0
	c0.1,0,0.3,0,0.3,0.2c0,0.2-0.1,0.3-0.3,0.3c-0.3,0-0.5,0-0.8,0c-0.2,0-0.3,0.1-0.3,0.3c-0.1,0.7-0.3,1.3-0.7,1.9
	c-0.1,0.1-0.1,0.2,0.1,0.2C54.2,64.7,54.6,64.8,55,64.6L55,64.6z"/>
<path class="st19" d="M93,50.3c-0.3,0-0.6,0-1,0c-0.2,0-0.4-0.1-0.3-0.3c0.1-0.5,0.2-0.9,0.3-1.4c0-0.2,0.1-0.3,0.3-0.3
	c0.7,0,1.3,0,2,0c0.3,0,0.3,0.1,0.3,0.3c-0.1,0.4-0.2,0.9-0.3,1.3c0,0.3-0.2,0.3-0.4,0.3C93.6,50.3,93.3,50.3,93,50.3L93,50.3z"/>
<path class="st20" d="M85.5,62.2c0.2-0.2,0.5-0.4,0.8-0.4c0.7-0.1,1.1,0.3,0.9,1c-0.1,0.5-0.4,0.9-0.8,1.2c-0.2,0.2-0.4,0.3-0.6,0.6
	c0.7,0.1,1.4,0.2,1.9-0.4c0.1,0.3-0.1,0.4-0.2,0.5c-0.5,0.5-1.2,0.6-1.9,0.6c-0.2,0-0.4,0.1-0.5-0.1c-0.1-0.1,0.2-0.3,0.2-0.4
	c0.3-0.5,0.7-1,0.9-1.5c0.1-0.3,0.3-0.6,0-0.9c-0.2-0.3-0.6-0.1-0.8,0c-0.1,0-0.1,0-0.2,0C85.4,62.3,85.5,62.2,85.5,62.2L85.5,62.2z
	"/>
<path class="st21" d="M44.4,59.4c0.7-0.5,1.4-1.1,2.2-1.4c0.4-0.1,0.7-0.3,1.1-0.3c0.1-0.1,0.2,0,0.3-0.1l0,0c0.1,0,0.3-0.1,0.4,0.1
	c-0.3,0.1-0.6,0.2-0.9,0.3c-0.1,0.1-0.2,0.2-0.3,0.2c-0.4,0.2-0.7,0.4-1,0.6c-0.1,0.1-0.3,0.1-0.4,0.3c-0.2,0.1-0.4,0.3-0.6,0.5
	c-0.9,1.2-1.5,2.4-1.4,4c0,0.1,0,0.1,0,0.2c0,0,0,0.1,0,0.1c-0.2,0-0.2-0.2-0.3-0.4c-0.2-1.3,0-2.5,0.8-3.6
	C44.3,59.7,44.4,59.6,44.4,59.4L44.4,59.4z"/>
<path class="st17" d="M70.4,62c0.4-0.2,0.8-0.2,1.2-0.1c0.5,0.1,0.7,0.5,0.6,1c-0.1,0.5-0.3,1-0.6,1.5c-0.1,0.3-0.1,0.3,0.2,0.3
	c0.4,0,0.8-0.2,1.1-0.4c0,0.4-0.6,1-1.1,1.1c-0.4,0.1-0.7-0.1-0.8-0.5c-0.1-0.1,0.1-0.4-0.3-0.4c0,0,0,0-0.1,0
	c-0.1,0-0.1-0.1-0.2-0.2c0-0.2,0.2-0.3,0.3-0.4c0.3-0.4,0.5-0.8,0.5-1.2c0.1-0.5-0.1-0.6-0.6-0.6c-0.1,0-0.2,0-0.3,0
	C70.3,62.2,70.2,62.1,70.4,62L70.4,62z"/>
<path class="st17" d="M90.2,62c0.4-0.2,0.8-0.2,1.2-0.1c0.4,0.1,0.7,0.5,0.6,1c-0.1,0.5-0.3,1-0.5,1.5c-0.2,0.4,0,0.4,0.3,0.4
	c0.4,0,0.7-0.2,1-0.4c0,0.4-0.6,1-1.1,1.1c-0.4,0.1-0.7-0.1-0.9-0.6c-0.1-0.3-0.2-0.3-0.3-0.1c-0.3-0.1-0.1-0.2,0-0.3
	c0.2-0.2,0.4-0.4,0.4-0.7c0.1-0.3,0.2-0.5,0.3-0.8c0.1-0.5,0-0.7-0.6-0.6c-0.1,0-0.2,0-0.3,0C90.1,62.1,90.1,62.1,90.2,62L90.2,62z"
	/>
<path class="st22" d="M66.2,64.1c0-0.1,0-0.2,0.1-0.2c0.2-0.1,0.4-0.1,0.6-0.1c0.4,0.1,0.7,0.1,1.1,0.1c0.2,0,0.3,0.1,0.3,0.3
	c-0.1,0.4-0.2,0.8-0.3,1.2c-0.7,0.1-1.4,0.1-2.1,0C65.8,64.9,66,64.5,66.2,64.1L66.2,64.1z"/>
<path class="st22" d="M97.1,65.4c-1.1,0-1,0-0.8-1.1c0.1-0.4,0.2-0.6,0.7-0.5c0.4,0,0.8,0,1.1,0c0.3,0,0.5,0,0.3,0.4
	c0,0.1,0,0.1,0,0.2C98.2,65.4,98.2,65.4,97.1,65.4L97.1,65.4z"/>
<path class="st23" d="M78.6,64.3c-0.1,0.7-1.1,1.2-1.6,1.1c-0.3-0.1-0.5-0.3-0.5-0.7c0-0.9,0.3-1.8,0.6-2.7c0.1-0.3,0.4-0.3,0.6-0.2
	c0.3,0.1,0.1,0.3,0,0.4c-0.3,0.7-0.4,1.5-0.7,2.2c-0.1,0.2,0,0.3,0.2,0.3C77.7,64.8,78.1,64.7,78.6,64.3L78.6,64.3z"/>
<path class="st17" d="M81.9,64.9c-0.6,0.7-2.1,0.7-2.7,0.1c-0.4-0.4-0.4-0.8-0.3-1.3c0.2-0.6,0.5-1.1,1-1.4c0.1-0.1,0.2,0,0.3,0.1
	c0,0.2-0.1,0.4-0.2,0.5c-0.2,0.3-0.3,0.5-0.3,0.9c0,0.4,0.2,0.6,0.5,0.8c0.3,0.1,0.7,0,1,0.1c0.2,0,0.4,0,0.6,0.1
	C81.9,64.8,81.9,64.9,81.9,64.9L81.9,64.9z"/>
<path class="st23" d="M90.2,62c0,0.1-0.1,0.1,0,0.2c0,0.2-0.2,0.3-0.3,0.4c-0.5,0.4-0.8,0.8-1,1.4c-0.1,0.5,0.1,0.7,0.6,0.7
	c0.4,0,0.7-0.3,1-0.6c0.1-0.1,0.2-0.4,0.4-0.3c0,0.3-0.2,0.5-0.4,0.7c-0.1,0.1-0.3,0.1-0.1,0.3c-0.4,0.5-0.9,0.8-1.6,0.7
	c-0.4-0.1-0.6-0.4-0.7-0.8C88.1,63.5,89.1,62.3,90.2,62L90.2,62z"/>
<path class="st20" d="M70.4,62c-0.1,0.1,0,0.2,0.1,0.2c0,0.2-0.2,0.2-0.3,0.3c-0.5,0.4-0.9,0.9-1.1,1.6c-0.1,0.4,0.1,0.6,0.5,0.6
	c0.3,0,0.6-0.2,0.9-0.2c0,0.1,0,0.2,0.1,0.2c-0.7,0.9-1.3,1-2.1,0.6c-0.5-0.6-0.3-1.2,0.1-1.8C69.1,62.7,69.6,62.2,70.4,62L70.4,62z
	"/>
<path class="st17" d="M49.7,62.8c0.2-0.2,0.4-0.4,0.6-0.5c0.1,0,0.1,0.1,0.1,0.1c-0.8,0.6-1,1.5-1.4,2.4c-0.1,0.2-0.1,0.6-0.5,0.6
	c-0.3,0-0.3,0-0.2-0.3c0.4-1.1,0.7-2.1,0.7-3.3c0-0.1,0-0.2,0.1-0.2c0.1,0,0.1,0,0.2,0.1c0.1,0.1,0.3,0.3,0.3,0.5
	C49.6,62.3,49.4,62.6,49.7,62.8C49.6,62.8,49.6,62.8,49.7,62.8C49.6,62.8,49.6,62.8,49.7,62.8L49.7,62.8z"/>
<path class="st20" d="M56.9,64c-0.2,0-0.4,0-0.6,0c0.1-0.2,0.4-0.3,0.6-0.5c-0.4-0.3-0.4-0.6-0.2-1c0.2-0.4,0.6-0.6,1-0.6
	c0.5,0,0.9,0,1.4,0c0.1,0,0.2,0,0.2,0.1c0.1,0.1,0,0.2-0.1,0.3c-0.3,0.3-0.6,0.4-1,0.2c-0.2-0.1-0.4-0.2-0.6-0.2
	c-0.3-0.1-0.5,0-0.6,0.3c-0.1,0.3,0.1,0.3,0.3,0.4c0.3,0.1,0.6,0.2,0.9,0.2c0.1,0,0.2,0,0.2,0.1c0,0.1-0.1,0.2-0.1,0.3
	c-0.2,0.1-0.4,0.2-0.6,0.1C57.5,63.6,57.2,63.7,56.9,64L56.9,64z"/>
<path class="st23" d="M65,63.2c-0.3,0.6-0.6,1.2-0.8,1.9c-0.1,0.2-0.2,0.3-0.4,0.3c-0.2,0-0.3-0.1-0.2-0.3c0.4-1.1,0.7-2.2,0.8-3.3
	c0-0.2,0.1-0.2,0.2-0.1c0.2,0.2,0.3,0.3,0.3,0.6c0.1,0.3-0.1,0.6,0.2,0.8C65.1,63,65,63.1,65,63.2L65,63.2z"/>
<path class="st17" d="M84.8,63.2c-0.3,0.6-0.5,1.1-0.8,1.7c0,0.1-0.1,0.2-0.1,0.3c-0.1,0.2-0.4,0.2-0.5,0.1c-0.2-0.1,0-0.3,0-0.4
	c0.4-1,0.7-2,0.7-3c0-0.1-0.1-0.3,0.1-0.3c0.1,0,0.2,0.1,0.3,0.2c0.1,0.1,0.2,0.2,0.1,0.4c0.1,0.2-0.1,0.6,0.3,0.8
	C84.9,63,84.9,63.1,84.8,63.2L84.8,63.2z"/>
<path class="st20" d="M80.1,62.6c0-0.1-0.1-0.2-0.2-0.2c0.7-0.6,1.4-0.6,2.2-0.5C82.7,62,83,62.4,83,63c0,0.9-0.4,1.5-1.1,1.9
	c0,0,0-0.1,0-0.1c0,0,0-0.1,0-0.1c0-0.1,0-0.1,0.1-0.2c0.1-0.1,0.1-0.2,0.1-0.4c0.1-0.3,0.2-0.6,0.1-1c-0.1-0.9-0.9-1.3-1.6-0.8
	C80.4,62.5,80.3,62.6,80.1,62.6L80.1,62.6z"/>
<path class="st24" d="M62,62.8c0,0.1,0,0.1,0,0.2c-0.2,0.3-0.3,0.6-0.3,1c0,0.8,0.4,1,1.1,0.6c0.1-0.1,0.3-0.3,0.4-0.1
	c0.1,0.2-0.2,0.3-0.3,0.4c-0.3,0.3-0.7,0.5-1.1,0.5c-0.4,0-0.7-0.2-0.7-0.6c-0.1-0.6,0.1-1.1,0.4-1.5c0.2-0.2,0.3-0.5,0.5-0.7
	C62.1,62.7,62,62.8,62,62.8L62,62.8z"/>
<path class="st17" d="M62,62.8c0-0.1,0-0.1,0-0.2c0-0.1,0-0.2-0.1-0.2c-0.2,0-0.4,0-0.6,0c-0.3,0-0.4,0.1-0.5,0.3
	c-0.1,0.2-0.3,0.4-0.4,0.6c-0.2,0-0.2-0.1-0.1-0.2c0-0.1,0-0.1,0.1-0.2c0.1-0.2,0.2-0.4,0.1-0.6c-0.3,0-0.3-0.2-0.3-0.5
	c0-0.2,0.1-0.4,0.3-0.5c0.2-0.1,0.4,0,0.5,0.2c0.1,0.2,0.3,0.1,0.4,0.1c0.5,0,1,0,1.6,0c0,0,0.1,0.1,0.1,0.1
	C62.6,62.2,62.3,62.5,62,62.8L62,62.8z"/>
<path class="st20" d="M50.4,62.4c0,0-0.1-0.1-0.1-0.1c0.3-0.3,0.7-0.5,1.1-0.5c0.6,0,0.9,0.4,0.8,1c-0.1,0.5-0.5,0.8-0.7,1.2
	c-0.2,0-0.4,0-0.5,0c0.1-0.3,0.3-0.5,0.4-0.8c0.1-0.2,0.2-0.5,0-0.7c-0.2-0.2-0.5-0.1-0.7,0C50.6,62.4,50.5,62.4,50.4,62.4
	L50.4,62.4z"/>
<path class="st20" d="M66.9,63.9c-0.2,0-0.4,0-0.6,0c0.1-0.2,0.2-0.5,0.3-0.7c0.3-0.7,0.1-0.9-0.6-0.9c-0.1,0.1-0.2,0.1-0.3,0.1
	c-0.3,0-0.2-0.1-0.1-0.2c0.2-0.2,0.5-0.4,0.8-0.4c0.7-0.1,1.1,0.3,0.9,1c-0.1,0.3-0.3,0.5-0.4,0.8C67,63.7,67,63.8,66.9,63.9
	L66.9,63.9z"/>
<path class="st25" d="M95.9,57.1c0-0.1-0.1-0.1-0.1-0.2c0.4-0.2,0.8-0.4,1.2-0.1c0.4,0.6,0.3,1.1-0.1,1.6c-0.1,0.2-0.2,0.3-0.3,0.5
	c-0.1,0.2-0.3,0.3-0.5,0.3c-0.1,0-0.1-0.1-0.1-0.1c0-0.2,0.1-0.3,0.2-0.4c0.1-0.2,0.3-0.4,0.3-0.6C96.7,57.4,96.5,57.1,95.9,57.1
	L95.9,57.1z"/>
<path class="st26" d="M57.1,65.3c0-0.3,0.1-0.5,0.1-0.8c0,0.2,0.2,0.2,0.3,0.2c0.7,0,1.4,0.1,2-0.4c0,0,0.1-0.1,0.2,0
	c0.1,0.1,0,0.1,0,0.2c-0.4,0.5-0.8,0.9-1.4,0.8C57.8,65.3,57.5,65.3,57.1,65.3L57.1,65.3z"/>
<path class="st27" d="M77.5,60.9c0-0.3,0-0.5,0.1-0.7c0.2-0.3,0.4-0.4,0.7-0.3c0.3,0.2,0.1,0.4,0,0.6c-0.1,0.2-0.3,0.3-0.4,0.5
	c-0.1,0.1-0.2,0.3-0.3,0.2C77.4,61.2,77.5,61,77.5,60.9L77.5,60.9z"/>
<path class="st28" d="M51.7,65.3c0-0.2,0.1-0.5,0.1-0.7c0.4,0.2,0.6-0.2,1-0.3C52.7,64.9,52.2,65.1,51.7,65.3L51.7,65.3z"/>
<path class="st29" d="M66.9,63.9c0-0.1,0.1-0.2,0.2-0.3c0,0.1,0.1,0.2,0.2,0.2c0.5,0,1.1,0.2,1.4-0.4c-0.3,0.6-0.5,1.2-0.1,1.8
	c-0.2,0-0.2-0.3-0.3-0.5c-0.1,0.2,0,0.5-0.2,0.6c0.1-0.4,0.1-0.8,0.2-1.2c0.1-0.3,0-0.3-0.3-0.3C67.6,63.9,67.3,63.9,66.9,63.9
	L66.9,63.9z"/>
<path class="st30" d="M66.2,64.1c-0.1,0.4-0.2,0.8-0.3,1.3c-0.2,0-0.4,0.1-0.5-0.1c-0.1-0.2,0.1-0.3,0.2-0.5
	C65.8,64.5,66,64.3,66.2,64.1L66.2,64.1z"/>
<path class="st31" d="M65.3,52.4c0,0.6,0,0.6,0.6,0.6c0.6,0,0.6,0,0.5,0.6c0,0.2-0.1,0.3-0.1,0.5c0-0.1,0-0.2,0-0.3
	c0.1-0.7,0.1-0.7-0.7-0.7c-0.2,0-0.4,0-0.6-0.2c0-0.3,0-0.5,0.2-0.7C65.2,52.3,65.3,52.3,65.3,52.4L65.3,52.4z"/>
<path class="st32" d="M65.7,62.2c0,0.1-0.1,0.2,0.1,0.1c0.1,0,0.2,0,0.2,0c-0.4,0.2-0.8,0.5-1,0.9c0-0.3-0.3-0.6-0.2-1
	c0.1,0.2,0.1,0.4,0.1,0.6C65.2,62.6,65.3,62.3,65.7,62.2L65.7,62.2z"/>
<path class="st33" d="M84.8,63.2c-0.1-0.3-0.3-0.6-0.2-1c0.1,0.2,0,0.4,0.1,0.6c0.3-0.1,0.4-0.5,0.8-0.5c-0.1,0.1,0,0.2,0.1,0.2
	C85.3,62.6,85.1,62.9,84.8,63.2L84.8,63.2z"/>
<path class="st34" d="M46.1,58.7c0.3-0.3,0.7-0.5,1.1-0.6c0.1,0.1-0.1,0.1-0.1,0.2c-0.2,0.2-0.5,0.4-0.8,0.5
	C46.2,58.8,46.1,58.9,46.1,58.7L46.1,58.7z"/>
<path class="st35" d="M96.1,59.2c0.2-0.1,0.3-0.3,0.5-0.3c0,0.2,0,0.4-0.2,0.5c-0.2,0-0.3,0-0.5,0C95.9,59.2,96,59.2,96.1,59.2
	L96.1,59.2z"/>
<path class="st36" d="M56.6,59.5c0.2-0.1,0.4-0.1,0.6-0.1c0.5,0.1,0.7-0.1,0.7-0.6c0.2,0.5,0.1,0.7-0.4,0.7
	C57.2,59.5,56.9,59.5,56.6,59.5L56.6,59.5z"/>
<path class="st37" d="M48.3,57.7c-0.1-0.1-0.2-0.1-0.4-0.1c0.2-0.2,0.5,0,0.7-0.2c0.1,0,0.1-0.1,0.2,0c0.1,0.1,0.1,0.1,0.2,0.2
	c-0.1,0.1-0.3,0-0.4,0.1C48.5,57.6,48.4,57.7,48.3,57.7L48.3,57.7z"/>
<path class="st38" d="M61.7,64c0-0.4,0-0.7,0.3-1C61.9,63.3,61.8,63.6,61.7,64L61.7,64z"/>
<path class="st39" d="M46.1,58.7c0,0.1,0.1,0.1,0.2,0.1c-0.2,0.1-0.4,0.2-0.6,0.3C45.7,58.8,45.9,58.8,46.1,58.7L46.1,58.7z"/>
<path class="st40" d="M49.7,62.8c-0.1,0.1-0.2,0.1-0.2,0c0-0.2,0-0.4,0-0.7C49.7,62.3,49.5,62.6,49.7,62.8L49.7,62.8z"/>
<path class="st41" d="M48.9,57.4c-0.1,0-0.1,0-0.2,0c0.2-0.1,0.5,0,0.8-0.2c0,0,0,0.1,0,0.1C49.3,57.5,49.1,57.4,48.9,57.4
	L48.9,57.4z"/>
<path class="st42" d="M47.1,58.3c0-0.1,0.1-0.1,0.1-0.2c0.1-0.1,0.2-0.1,0.3-0.2C47.4,58.1,47.2,58.2,47.1,58.3L47.1,58.3z"/>
<path class="st43" d="M70.7,64.5c0.1-0.2,0.2-0.1,0.3,0c0,0.1,0,0.2,0,0.3C70.9,64.8,71,64.6,70.7,64.5L70.7,64.5z"/>
<path class="st41" d="M60.4,62.5c0.2,0.2,0.1,0.4-0.1,0.6C60.3,62.9,60.5,62.7,60.4,62.5L60.4,62.5z"/>
<path class="st44" d="M85.5,58.7c0-0.1,0.1-0.2,0.2-0.2c0.1,0,0,0.2,0,0.3C85.7,58.7,85.6,58.7,85.5,58.7L85.5,58.7z"/>
<path class="st41" d="M48.6,57.6c0.1-0.1,0.3-0.1,0.4-0.1c0.1,0.1,0,0.1-0.1,0.2C48.9,57.6,48.7,57.7,48.6,57.6L48.6,57.6z"/>
<path class="st41" d="M60.2,63.3c0,0.1,0,0.1,0.1,0.2c0,0.1-0.1,0.2-0.2,0.1C60,63.5,60.2,63.4,60.2,63.3L60.2,63.3z"/>
<path class="st37" d="M48,57.6c-0.1,0.1-0.2,0.1-0.3,0.1c0-0.1,0.1-0.2,0.2-0.2C47.9,57.5,48,57.5,48,57.6L48,57.6z"/>
<path class="st45" d="M69.9,50.1c0.1-0.1,0.2-0.2,0.4-0.1C70.2,50.1,70.1,50.1,69.9,50.1L69.9,50.1z"/>
<path class="st46" d="M42.6,57.5c-0.3,0-0.6,0-0.8,0c-0.3,0-0.3-0.1-0.3-0.4c0.4-1.8,0.8-3.7,1.2-5.5c0.2-1.1,0.2-1.1,1.3-1.1
	c0.4,0,0.9,0,1.3,0.1c0.8,0.1,1.2,0.5,1.3,1.3c0.2,1.1-0.1,2.1-0.4,3c-0.1,0.3-0.2,0.6-0.3,0.9c-0.5,1.1-1.4,1.7-2.7,1.7
	C43,57.5,42.8,57.5,42.6,57.5L42.6,57.5z"/>
<path class="st46" d="M85.3,53c0.8,0,1.3,0.4,1.3,1.3c0,0.9-0.2,1.7-0.7,2.4c-0.4,0.7-1,1-1.8,0.9c-0.7,0-1.2-0.4-1.2-1.1
	c-0.1-1,0.2-1.9,0.7-2.7C83.9,53.3,84.5,53,85.3,53L85.3,53z"/>
<path class="st47" d="M53.2,58c-0.6,0-0.9-0.2-1-0.5c-0.1-0.4,0.2-1,0.6-1.3c0.3-0.2,0.6-0.2,1-0.3c0.5-0.1,1.1-0.2,1.6-0.3
	c0.2,0,0.3,0,0.2,0.2C55.4,57.2,54.6,58,53.2,58L53.2,58z"/>
<path class="st46" d="M73.2,56.1c0.1-0.7,0.2-1.6,0.7-2.3c0.4-0.7,1.1-1,1.9-1c0.6,0.1,1.1,0.4,1.1,1c0.1,1.2-0.1,2.4-0.9,3.3
	c-0.5,0.6-1.2,0.8-1.9,0.6C73.5,57.7,73.2,57.2,73.2,56.1L73.2,56.1z"/>
<path class="st48" d="M78.7,68.7c-0.4,0-0.8,0-1.1,0c-0.2,0-0.2-0.1-0.2-0.3c0.2-0.9,1.4-1.4,2.2-1c0.4,0.2,0.6,0.8,0.5,1.2
	c-0.1,0.2-0.2,0.1-0.3,0.1C79.5,68.7,79.1,68.7,78.7,68.7L78.7,68.7z"/>
<path class="st10" d="M95.9,57.1c0.5-0.2,0.9,0.2,0.8,0.8c-0.1,0.5-0.4,0.9-0.7,1.2c-0.2,0.5-0.6,0.3-0.9,0.3
	C95.2,58.5,95.5,57.7,95.9,57.1L95.9,57.1z"/>
<path class="st49" d="M95.1,59.3c0.4,0.1,0.7,0,0.9-0.3c0,0,0.1,0.1,0.1,0.1c-0.1,0.1-0.1,0.2-0.2,0.2
	C95.6,59.4,95.3,59.5,95.1,59.3L95.1,59.3z"/>
<path class="st46" d="M70.6,64.4c-0.2,0.2-0.5,0.4-0.9,0.3c-0.6,0-0.7-0.2-0.6-0.8c0.2-0.8,0.7-1.4,1.4-1.8c1.1-0.2,1.1,0.2,0.8,1.1
	C71.2,63.6,70.9,64,70.6,64.4L70.6,64.4z"/>
<path class="st48" d="M90.9,63.7c-0.1,0.2-0.3,0.4-0.4,0.5c-0.3,0.3-0.6,0.5-1.1,0.5c-0.5,0-0.7-0.3-0.6-0.8
	c0.2-0.8,0.7-1.4,1.4-1.8c0,0,0,0,0,0c0.3,0,0.7-0.2,0.9,0c0.3,0.3,0,0.7-0.1,1C91.1,63.4,91,63.5,90.9,63.7L90.9,63.7z"/>
<path class="st46" d="M80.1,62.6c0.2-0.1,0.4-0.3,0.6-0.4c0.7-0.3,1.5,0.2,1.6,1c0,0.4,0,0.7-0.2,1.1c-0.1,0.1-0.1,0.3-0.2,0.3
	c0,0,0,0.1-0.1,0.1c-0.6,0.1-1.2,0.1-1.7,0c-0.5-0.3-0.6-0.7-0.5-1.3C79.7,63.1,79.9,62.9,80.1,62.6L80.1,62.6z"/>
<path class="st50" d="M80.1,64.7c0.6,0,1.2,0.1,1.7,0c0,0,0,0.1,0,0.1c-0.4,0-0.9,0-1.3,0C80.4,64.8,80.2,64.9,80.1,64.7L80.1,64.7z
	"/>
<path class="st50" d="M81.9,64.6c0.1-0.1,0.1-0.2,0.2-0.3C82.1,64.5,82.1,64.6,81.9,64.6L81.9,64.6z"/>
</svg>
