<?xml version="1.0" encoding="utf-8"?>
<!-- Generator: Adobe Illustrator 23.0.2, SVG Export Plug-In . SVG Version: 6.00 Build 0)  -->
<svg version="1.1" id="Layer_1" xmlns="http://www.w3.org/2000/svg" xmlns:xlink="http://www.w3.org/1999/xlink" x="0px" y="0px"
	 viewBox="0 0 120 120" style="enable-background:new 0 0 120 120;" xml:space="preserve">
<style type="text/css">
	.st0{fill-rule:evenodd;clip-rule:evenodd;fill:#919396;}
	.st1{fill-rule:evenodd;clip-rule:evenodd;fill:#39B24A;}
	.st2{fill-rule:evenodd;clip-rule:evenodd;fill:#09509E;}
	.st3{fill-rule:evenodd;clip-rule:evenodd;fill:#FFFFFF;}
	.st4{fill:#231F20;}
	.st5{fill-rule:evenodd;clip-rule:evenodd;fill:#8DD7F7;}
	.st6{fill:#1B92D0;}
	.st7{fill-rule:evenodd;clip-rule:evenodd;fill:#E7E6E6;}
	.st8{fill-rule:evenodd;clip-rule:evenodd;fill:#231F20;}
	.st9{fill-rule:evenodd;clip-rule:evenodd;fill:#D0D1D2;}
	.st10{fill-rule:evenodd;clip-rule:evenodd;fill:#EA2227;}
</style>
<path class="st0" d="M94.85,58.16c-4.42-16.15-1.69-27.65,4.29-36.09L88.71,11.26H31.99L22,21.64c8.86,18.55,2.56,30.47,2.29,35.82
	l0,0c-6.28-6.05-9.86-2.52-10.42,0l0,0c-2.29,7.45-4.15,10.11-4.15,10.11c1.28,3.23,2.71,3.66,3.41,3.66l0,0
	C13.28,85.54,26,93.14,40.28,97.9c14.44,4.92,19,11.1,19,11.1s8.42-8.71,22.86-12.36c14.85-5.48,23.71-15.58,22.99-25.56l0,0
	c2.86,0,3.29-0.85,4.15-3.8c0,0-2.14-1.4-3.99-8.56l0,0c0-1.12-0.44-2.39-1.29-3.79C99.99,50.99,94.98,57.75,94.85,58.16
	L94.85,58.16z"/>
<path class="st1" d="M17.58,61.25c0.14-0.27,1.99-3.23,2.29-0.69c0.27,2.52-4.29,0.54-4.72-2.68c-0.14-1.96,7.57-5.9,8.44,5.62l0,0
	c0.57,15.74,18,20.37,25.56,23.59c8.99,4.92,9.86,6.88,9.86,6.88s3.85-4.2,10-6.47c15.28-5.31,26.56-10.52,26.44-24.42
	c0.56-9.55,11.41-9.96,6.84-2.24c-1.27,2.24-6.71,2.81-2.56-1.54l1.44,2.67c0.27,0,0.55-0.29,0.84-0.55c0,0-1.72-3.94-1.86-3.94
	c-1.43,0.41-2.71,2.24-2.58,4.07c0.16,3.65,6.58,9.41,6.15,12.5C101.15,89.77,78,96.5,78,96.5c-10.72,2.82-18.72,10.67-18.72,10.67
	c-4.87-6.6-21.99-11.65-21.99-11.65c-21.44-8.7-22.87-20.08-22.44-23.73c0.29-2.8,5.14-7.17,5.14-7.17c1.29-1.41,1.71-6.04-1-7.02
	c-0.14,0-2.13,3.09-2.13,3.09C16.99,60.83,17.43,61.1,17.58,61.25z"/>
<path class="st2" d="M25.71,64.34C26.44,76.14,37.57,80.07,48.71,84c6.86,2.53,10.43,6.47,10.43,6.47c4.86-3.94,7-4.93,10.99-6.18
	c12.14-4.35,25.3-8.72,22.43-25.84c-6.13-25.7,3.86-35.8,3.86-35.8l-9.28-9.26H32.72l-8.16,8.98c7.43,15.87,3.3,28.64,2.29,35.11
	c-1.28,5.61-0.85,2.95-1.15,7.45V64.34z"/>
<polygon class="st3" points="59.43,18.57 59.85,17.29 58.72,16.6 60.13,16.6 60.58,15.33 61,16.6 62.28,16.6 61.14,17.29 
	61.57,18.57 60.58,17.86 "/>

	<path class="st3" d="M59.71,32.61c8.72,0,15.84,7.01,15.84,15.59c0,8.56-7.12,15.44-15.84,15.44C51,63.64,44,56.76,44,48.2
		C44,39.62,51,32.61,59.71,32.61z"/>
	<path class="st4" d="M43.99,48.19c0-8.59,7-15.59,15.72-15.59l0,0v0.01v0.01c-8.71,0.02-15.69,7-15.7,15.58l0,0
		c0.01,8.56,6.99,15.44,15.7,15.44l0,0c8.71,0,15.82-6.88,15.83-15.44l0,0c0-8.57-7.12-15.56-15.83-15.58l0,0v-0.01V32.6
		c8.72,0,15.86,7.01,15.86,15.59l0,0c0,8.57-7.14,15.44-15.86,15.45l0,0C50.99,63.64,44,56.76,43.99,48.19L43.99,48.19z"/>


	<path class="st5" d="M59.56,33.6c8.29,0,14.87,6.46,14.87,14.6c0,8.14-6.58,14.6-14.87,14.6c-8.13,0-14.85-6.46-14.85-14.6
		C44.71,40.05,51.43,33.6,59.56,33.6z"/>
	<path class="st6" d="M44.36,48.2c0-8.35,6.88-14.94,15.2-14.96l0,0v0.36v0.35c-7.94,0-14.48,6.3-14.49,14.26l0,0
		c0.01,7.92,6.55,14.24,14.49,14.24l0,0c8.11-0.01,14.51-6.3,14.51-14.24l0,0c0-7.95-6.4-14.25-14.51-14.26l0,0v-0.35v-0.36
		c8.49,0.02,15.21,6.62,15.22,14.96l0,0c-0.01,8.33-6.73,14.93-15.22,14.95l0,0C51.24,63.13,44.36,56.54,44.36,48.2L44.36,48.2z"/>

<path class="st6" d="M55.26,62.27c-0.11-0.17-0.05-0.39,0.12-0.49l0,0c1.88-1.09,3.05-1.63,4.29-1.63l0,0
	c1.32,0.01,2.54,0.61,4.62,1.63l0,0c0.17,0.09,0.24,0.28,0.16,0.46l0,0c-0.09,0.18-0.3,0.25-0.48,0.16l0,0
	c-2.07-1.03-3.22-1.56-4.3-1.55l0,0c-1-0.01-2.08,0.44-3.93,1.54l0,0c-0.06,0.03-0.12,0.05-0.17,0.05l0,0
	C55.45,62.45,55.33,62.38,55.26,62.27L55.26,62.27z"/>
<path class="st6" d="M44.71,48.55c-0.2,0-0.35-0.16-0.35-0.36l0,0c0-0.2,0.15-0.35,0.35-0.35l0,0h29.86c0.2,0,0.35,0.15,0.35,0.35
	l0,0c0,0.2-0.15,0.36-0.35,0.36l0,0H44.71L44.71,48.55z"/>
<path class="st6" d="M55.08,34.71c-0.16-0.12-0.2-0.33-0.08-0.49l0,0c0.11-0.16,0.32-0.2,0.49-0.09l0,0
	c1.76,1.26,3.07,1.78,4.3,1.78l0,0c1.34,0,2.67-0.63,4.46-1.79l0,0c0.16-0.11,0.37-0.06,0.47,0.11l0,0c0.11,0.16,0.05,0.38-0.1,0.49
	l0,0c-1.81,1.17-3.26,1.9-4.84,1.9l0,0C58.34,36.62,56.88,36.01,55.08,34.71L55.08,34.71z"/>
<path class="st6" d="M50.94,36.54l0.01,0.01c-0.17-0.11-0.21-0.33-0.11-0.49l0,0c0.1-0.16,0.33-0.22,0.49-0.11l0,0
	c3.33,2.15,6.1,3.4,8.9,3.4l0,0c2.46,0,4.99-0.96,7.99-3.23l0,0c0.16-0.11,0.38-0.08,0.49,0.07l0,0c0.12,0.16,0.08,0.37-0.07,0.49
	l0,0c-3.06,2.32-5.75,3.37-8.41,3.37l0,0C57.21,40.05,54.3,38.72,50.94,36.54L50.94,36.54z"/>
<path class="st6" d="M48.08,38.93c-0.16-0.11-0.2-0.33-0.08-0.49l0,0c0.11-0.16,0.33-0.2,0.48-0.09l0,0
	c4.63,3.26,8.32,4.36,11.4,4.36l0,0c4.53,0,7.84-2.41,10.95-4.1l0,0c0.17-0.09,0.38-0.03,0.47,0.14l0,0
	c0.09,0.17,0.03,0.38-0.14,0.47l0,0c-3.04,1.64-6.48,4.19-11.28,4.2l0,0C56.62,43.42,52.78,42.26,48.08,38.93L48.08,38.93z"/>
<path class="st6" d="M46.07,54.24c-0.02-0.02-0.04-0.03-0.06-0.05l0,0c-0.07-0.06-0.11-0.16-0.11-0.24l0,0
	c0-0.1,0.04-0.19,0.11-0.26l0,0c0.03-0.03,0.06-0.05,0.11-0.07l0,0l0,0l0.02-0.01c0,0,0.02,0,0.03,0l0,0
	c0.05-0.03,0.12-0.07,0.2-0.13l0,0c0.18-0.09,0.46-0.25,0.8-0.41l0,0c0.69-0.35,1.67-0.8,2.91-1.26l0,0c2.5-0.92,6-1.84,10.1-1.84
	l0,0c4.04,0,8.66,0.88,13.42,3.55l0,0c0.17,0.1,0.23,0.3,0.14,0.48l0,0c-0.1,0.17-0.32,0.22-0.48,0.13l0,0
	c-4.65-2.59-9.13-3.45-13.08-3.45l0,0c-7.27,0.03-12.35,2.85-13.62,3.5l0,0c-0.07,0.09-0.16,0.14-0.28,0.14l0,0
	C46.27,54.3,46.16,54.3,46.07,54.24L46.07,54.24z"/>
<path class="st6" d="M47.96,57.89c-0.07-0.18,0-0.39,0.18-0.47l0,0c5.77-2.63,8.91-3.85,11.9-3.87l0,0
	c3.09,0.01,5.87,1.31,11.1,3.59l0,0c0.17,0.08,0.25,0.28,0.17,0.47l0,0c-0.08,0.18-0.29,0.25-0.47,0.18l0,0
	c-5.23-2.3-7.94-3.53-10.8-3.53l0,0c-2.78,0-5.85,1.16-11.62,3.81l0,0c-0.05,0.02-0.09,0.04-0.14,0.04l0,0
	C48.15,58.1,48.02,58.02,47.96,57.89L47.96,57.89z"/>
<path class="st6" d="M63.39,61.51c6.43-3.71,8.66-8.27,8.67-12.64l0,0c0.01-5.96-4.3-11.64-8.23-13.85l0,0l0.34-0.61
	c4.14,2.34,8.57,8.14,8.59,14.46l0,0c0.01,4.62-2.43,9.47-9.02,13.26l0,0L63.39,61.51L63.39,61.51z M63.82,35.02c0,0,0.01,0,0.01,0
	l0,0v0L63.82,35.02L63.82,35.02z"/>
<path class="st6" d="M62.31,60.99c3.77-3.64,5.69-8.26,5.69-12.86l0,0c0-4.47-1.81-8.93-5.55-12.47l0,0l0.49-0.52
	c3.87,3.67,5.76,8.32,5.76,12.98l0,0c0,4.79-2.01,9.61-5.9,13.38l0,0L62.31,60.99L62.31,60.99z"/>
<path class="st6" d="M61.14,60.6c2.33-2.71,3.66-7.37,3.66-12.24l0,0c0-4.37-1.07-8.9-3.39-12.33l0,0l0.6-0.39
	c2.4,3.59,3.48,8.24,3.49,12.73l0,0c-0.01,4.99-1.34,9.77-3.83,12.7l0,0L61.14,60.6L61.14,60.6z"/>
<path class="st6" d="M54.06,47.98c0-3.87,1.01-8.07,3.48-12.32l0,0l0.61,0.35c-2.41,4.16-3.37,8.21-3.37,11.97l0,0
	c0,4.85,1.61,9.22,3.93,12.65l0,0l0.01,0.01l-0.6,0.38C55.76,57.49,54.06,53,54.06,47.98L54.06,47.98z"/>
<path class="st6" d="M50.86,48.18c0-4.51,1.96-8.96,5.73-13.01l0,0l0.52,0.49c-3.66,3.95-5.54,8.21-5.54,12.52l0,0
	c0,4.29,1.88,8.66,5.82,12.83l0,0l-0.51,0.49C52.82,57.23,50.86,52.68,50.86,48.18L50.86,48.18z"/>
<path class="st6" d="M47.09,48.92c0.02-6.68,4.8-12.68,8.61-14.52l0,0l0.3,0.64c-3.51,1.66-8.23,7.56-8.21,13.88l0,0
	c0.01,4.31,2.14,8.86,8.38,12.59l0,0l-0.36,0.61C49.4,58.3,47.08,53.47,47.09,48.92L47.09,48.92z"/>

	<path class="st7" d="M59.71,56.63v3.94V56.63z"/>
	<polygon class="st6" points="59.41,60.56 59.41,56.62 59.71,56.62 60,56.62 60,60.56 59.41,60.56 	"/>

<path class="st6" d="M59.34,59.28V46.79c0-0.19,0.17-0.36,0.37-0.36l0,0c0.19,0,0.36,0.16,0.36,0.36l0,0v12.48
	c0,0.21-0.16,0.36-0.36,0.36l0,0C59.5,59.64,59.34,59.49,59.34,59.28L59.34,59.28z"/>
<path class="st3" d="M74.85,53.25C88,60.69,85.42,64.62,58.14,48.2c-12.57-7.59-33.7-21.63-10.29-10.11l0.43-0.57
	c-26.43-12.08-2.44,3.93,9.14,11.1C87,67.01,89.71,60.69,75.13,52.4L74.85,53.25z"/>
<path class="st3" d="M71.71,38.09c15.43-8.85,16.28-3.8-11.87,11.36C47,56.34,23.28,67.86,44.99,53.53l-0.29-0.71
	C21,69.4,47.85,56.47,60,50.15c30.85-16.14,27.57-22.18,11.14-12.78L71.71,38.09z"/>

	<polygon class="st8" points="52.29,45.8 51.15,45.8 46.71,54.23 46.71,54.37 54.14,54.37 58.29,54.37 58.43,54.51 58.29,54.65 
		58.43,54.78 60.85,54.78 61,54.65 60.85,54.37 68.13,54.37 72.56,54.37 72.71,54.23 72.56,54.09 68.13,45.8 64.71,45.8 52.29,45.8 
			"/>
	<polygon class="st4" points="58.34,54.86 58.21,54.58 58.34,54.58 58.29,54.48 54.14,54.48 46.59,54.37 46.61,54.17 51.15,45.69 
		52.28,45.69 52.28,45.8 52.28,45.91 51.24,45.85 46.82,54.23 46.71,54.26 54.14,54.26 58.37,54.3 58.5,54.58 58.36,54.58 
		58.43,54.68 60.77,54.7 60.9,54.7 60.85,54.26 68.13,54.26 72.48,54.29 72.63,54.31 72.47,54.14 68.13,45.91 64.71,45.91 
		52.28,45.91 52.28,45.8 52.28,45.69 64.71,45.69 68.22,45.74 72.64,54.01 72.78,54.31 72.56,54.48 68.13,54.48 60.94,54.32 
		61.07,54.73 60.85,54.89 58.34,54.86 	"/>


	<polygon class="st8" points="46.71,54.23 46.71,54.51 46.71,54.51 46.86,54.65 58.29,54.65 58.43,54.65 58.29,54.78 58.14,54.78 
		58.14,54.78 58.14,54.94 58.29,54.94 58.43,55.07 60.85,55.07 60.85,55.07 61,54.94 61.14,54.94 61.14,54.94 61.14,54.78 61,54.78 
		61,54.65 61,54.65 72.56,54.65 72.56,54.51 72.71,54.51 72.71,54.51 72.71,54.37 72.71,54.23 72.56,54.37 60.85,54.37 60.71,54.37 
		60.71,54.51 60.71,54.51 60.71,54.65 60.71,54.65 60.71,54.65 58.72,54.65 58.72,54.65 58.57,54.65 58.72,54.51 58.72,54.51 
		58.72,54.37 58.57,54.37 58.57,54.37 47,54.37 46.86,54.37 46.86,54.37 46.71,54.23 	"/>
	<path class="st4" d="M58.35,55.14l-0.05-0.09l-0.27-0.11l0.08-0.18l-11.32-0.03l-0.18-0.22v-0.28h0.1l0.08-0.08l0.07,0.11H47h11.57
		l0.25,0.11l-0.03,0.17l1.8,0.1v-0.14l0.11-0.25h0.14l11.64,0.02l0.33-0.05v0.14l-0.1,0.25l-0.04-0.11l-0.11,0.24l-11.46-0.11
		L61,54.67l0.25,0.11l-0.11,0.27l-0.08-0.03l-0.22,0.15L58.35,55.14L58.35,55.14z M58.36,54.85l0.07,0.1l2.35,0.03l0.21-0.14
		l-0.1-0.05L61,54.54l11.45,0.11l0.07-0.17H60.85l-0.04-0.1v0.14l-0.1,0.24h-1.99l-0.23-0.19l0.12-0.06l0.11-0.04h-0.15H47
		l-0.21-0.02l0.07,0.09H58.3l0.21,0.19l-0.15,0.12H58.36L58.36,54.85z M61.03,54.94l0.11-0.05l-0.14-0.05L61.03,54.94L61.03,54.94z
		 M58.14,54.83l0.13,0.02l-0.03-0.06L58.14,54.83L58.14,54.83z M72.6,54.51v-0.06l-0.02,0.02L72.6,54.51L72.6,54.51z"/>


	<polygon class="st3" points="52.42,45.37 51.58,45.8 47.71,53.81 49.57,53.81 51.15,53.66 53.28,53.39 55.28,52.97 56.42,52.83 
		57.14,52.97 57.99,53.25 58.43,53.66 58.72,54.23 58.85,54.51 60.58,54.51 60.58,54.51 60.71,53.81 61,53.25 61.57,52.83 
		62.28,52.69 63.15,52.69 64.29,52.83 65.55,53.25 67.85,53.66 69.99,53.81 71.57,53.81 67.71,45.96 66.85,45.37 59.85,49.6 
		52.42,45.37 	"/>
	<path class="st4" d="M58.75,54.56l-0.14-0.28l-0.27-0.54l-0.39-0.39l-0.84-0.28l-0.67-0.15l-1.14,0.15l-2,0.41l-2.15,0.28
		l-1.58,0.15l-1.96-0.17l3.93-8.05l0.85-0.42l0.05,0.09l0.06-0.09l7.3,4.22l7.13-4.22l0.88,0.62l3.77,8.02h-1.58l-2.16-0.15
		l-2.31-0.42l-1.25-0.42l-1.12-0.14H62.3l-0.67,0.12l-0.53,0.38l-0.29,0.52l-0.23,0.8L58.75,54.56L58.75,54.56z M57.16,52.87
		l0.9,0.3l0.47,0.44l0.29,0.57l0.04,0.24l1.62,0.08l0.13-0.74l0.33-0.59l0.62-0.45l0.73-0.14h0.88l1.16,0.16l1.25,0.41l2.28,0.42
		L70,53.7l1.47,0.15l-3.83-7.81l-0.74-0.56l-7.12,4.22l-7.37-4.2l-0.73,0.36l-3.97,7.84h1.85l1.57-0.14l2.14-0.27l2-0.43l1.18-0.14
		L57.16,52.87L57.16,52.87z"/>

<polygon class="st4" points="59.45,53.53 59.45,45.39 59.66,45.39 59.66,53.53 59.45,53.53 "/>
<polygon class="st4" points="47.65,53.71 49.09,52.88 49.19,53.06 47.77,53.9 47.65,53.71 "/>
<polygon class="st4" points="70.23,53.2 70.33,53.01 71.62,53.71 71.52,53.91 70.23,53.2 "/>

	<polygon class="st8" points="52.29,45.37 49,53.11 50.14,52.97 51.86,52.69 53.57,52.4 55.13,51.98 56.13,51.84 56.85,51.84 
		57.57,51.98 58.29,52.27 58.85,52.55 59.14,52.83 59.43,53.25 59.71,53.66 59.85,53.25 60.28,52.69 60.71,52.27 61.41,51.98 
		62.13,51.84 62.86,51.84 63.58,51.84 65,52.12 67.13,52.69 69,52.97 70.13,53.11 70.43,53.25 67,45.51 65.99,45.37 65,45.37 
		64,45.11 63.42,44.97 62.71,44.68 62.13,44.54 61.57,44.54 61,44.54 60.58,44.54 60.28,44.68 60.13,44.97 59.85,45.11 59.71,45.37 
		59.71,45.37 59.56,45.24 59.43,44.97 59.14,44.82 59,44.68 58.57,44.54 58.14,44.4 57.29,44.4 56.57,44.68 55.86,44.82 
		55.28,44.97 54.72,45.11 53.99,45.24 53.15,45.37 52.57,45.37 52.29,45.37 	"/>
	<path class="st4" d="M59.34,53.32l-0.27-0.41l-0.26-0.27l-0.56-0.28l-0.7-0.29l-0.7-0.13h-0.7l-0.98,0.13l-1.57,0.44l-1.73,0.28
		l-1.7,0.29l-1.25-0.01l3.28-7.73l0.1,0.04v-0.1h0.28h0.56l0.84-0.14L54.68,45l0.57-0.14l0.58-0.14l0.7-0.14l0.76-0.28h0.88
		l0.42,0.15l0.48,0.16l0.12,0.13l0.34,0.19l0.1,0.24l-0.03,0.17l0.19-0.32l0.23-0.09l0.2-0.34l0.34-0.14H61h0.57h0.59l0.59,0.14
		l0.69,0.28L64.02,45l0.99,0.28h1l1.09,0.19l3.28,7.89l-0.26-0.13l-1.13-0.14l-1.88-0.29l-2.13-0.57l-1.4-0.27h-0.72l-0.7-0.01
		l-0.7,0.14l-0.67,0.27l-0.42,0.41l-0.42,0.53l-0.33,0.43L59.34,53.32L59.34,53.32z M56.86,51.73l0.74,0.15l0.74,0.29l0.58,0.3
		l0.31,0.3l0.28,0.42l0.09,0.43l0.16-0.44l0.43-0.57l0.46-0.45l0.73-0.29l0.74-0.15h0.72h0.74L65.02,52l2.12,0.57l1.87,0.29
		l1.17,0.15l0.14,0.28l-3.34-7.67l-1-0.14l-1.01-0.01l-1-0.26l-0.6-0.16l-0.69-0.27l-0.56-0.14h-0.56H61l-0.38-0.01l-0.25,0.08
		l-0.2,0.33l-0.23,0.1l-0.31,0.29l-0.18-0.17l-0.07-0.23l-0.31-0.16l-0.11-0.11l-0.43-0.15l-0.38-0.13l-0.82-0.01l-0.73,0.29
		l-0.71,0.13l-0.58,0.14l-0.58,0.16l-0.72,0.13l-0.86,0.14h-0.58h-0.22l-3.36,7.52l1.13-0.15l1.72-0.29l1.71-0.28l1.58-0.43l1-0.14
		H56.86L56.86,51.73z"/>


	<polygon class="st9" points="52.42,45.37 49,52.97 50.28,52.83 52,52.55 53.57,52.27 55.13,51.84 56.29,51.7 56.85,51.7 
		57.71,51.84 58.29,52.12 58.85,52.4 59.14,52.69 59.43,52.97 59.71,53.53 59.85,53.11 60.28,52.55 60.71,52.12 61.29,51.84 
		62.13,51.7 62.86,51.7 63.42,51.7 64.86,51.98 67.13,52.55 68.85,52.83 69.99,52.97 70.29,53.11 67,45.37 65.85,45.37 64.86,45.24 
		64,44.97 63.42,44.82 62.71,44.54 62.13,44.54 61.57,44.4 61,44.4 60.58,44.54 60.28,44.68 60.13,44.82 59.85,45.11 59.71,45.24 
		59.71,45.37 59.56,45.11 59.43,44.82 59.28,44.68 59,44.54 58.57,44.4 58.29,44.4 57.29,44.4 56.57,44.54 55.86,44.82 55.28,44.97 
		54.86,45.11 54.14,45.11 53.15,45.24 52.57,45.37 52.42,45.37 	"/>
	<path class="st4" d="M59.35,53.04l-0.28-0.28l-0.27-0.27l-0.55-0.29l-0.55-0.27l-0.85-0.13H56.3l-1.14,0.13l-1.58,0.42l-1.57,0.28
		l-1.72,0.28l-1.39-0.01l3.42-7.59l0.1,0.04v-0.1h0.12l0.59-0.14L54.14,45l0.67,0.01l0.44-0.15l0.57-0.14l0.73-0.28l0.74-0.14h1h0.3
		l0.45,0.15l0.31,0.15l0.17,0.18l0.13,0.29l-0.02,0.1l0.14-0.12l0.28-0.3l0.18-0.17l0.32-0.13L61,44.29h0.59l0.54,0.14l0.62,0.01
		l0.69,0.27l0.6,0.15l0.84,0.27l0.98,0.14l1.24,0.06l3.14,7.87l-0.26-0.13l-1.14-0.15l-1.72-0.28l-2.27-0.56l-1.42-0.28h-0.57h-0.7
		l-0.82,0.12l-0.55,0.25l-0.42,0.42l-0.41,0.53l-0.35,0.44L59.35,53.04L59.35,53.04z M56.86,51.59l0.89,0.15l0.59,0.28l0.6,0.3
		l0.29,0.28l0.31,0.31l0.08,0.58l0.16-0.46l0.43-0.58l0.46-0.45l0.61-0.28l0.86-0.14h0.72h0.59l1.44,0.28l2.28,0.57l1.7,0.28
		l1.18,0.15l0.14,0.28L67,45.48h-1.17l-1.01-0.15l-0.85-0.26l-0.6-0.15l-0.66-0.28H62.1l-0.53-0.14l-0.53-0.01l-0.42,0.14
		l-0.27,0.11l-0.14,0.14l-0.28,0.29l-0.12,0.06l-0.2,0.19l-0.15-0.27l-0.11-0.27l-0.12-0.12l-0.27-0.12l-0.39-0.14h-0.27l-0.99-0.01
		l-0.69,0.15l-0.74,0.28l-0.56,0.14l-0.46,0.16h-0.7l-0.98,0.13l-0.6,0.14h-0.07l-3.51,7.37l1.28-0.14l1.71-0.28l1.57-0.27
		l1.57-0.44l1.17-0.14H56.86L56.86,51.59z"/>

<polygon class="st4" points="59.45,53.53 59.45,53.39 59.45,45.37 59.45,45.37 59.66,45.37 59.66,53.39 59.67,53.53 59.45,53.53 "/>
<path class="st3" d="M84.15,24.32V23.9l0,0c0.13,0,0.29,0,0.29-0.14c0.13,0,0.13-0.14,0.13-0.14h0.71c0,0.14,0,0.28-0.28,0.42
	C84.84,24.32,84.57,24.32,84.15,24.32L84.15,24.32L84.15,24.32z M84.15,23.34v-0.43h0.42c0-0.13,0-0.27,0-0.27
	c-0.13-0.15-0.28-0.29-0.42-0.29l0,0v-0.43c0.42,0,0.69,0.15,0.98,0.43c0.15,0.14,0.29,0.55,0.29,0.99H84.15L84.15,23.34z
	 M87.28,22.64c-0.14,0-0.14,0-0.29,0c-0.14,0-0.3,0-0.43,0.14c-0.13,0.13-0.13,0.28-0.13,0.42v1.12h-0.72v-2.25h0.72v0.42l0,0
	c0.13-0.28,0.42-0.58,0.71-0.58c0,0,0.14,0,0.14,0.15V22.64L87.28,22.64z M89.71,23.62c0,0.42-0.43,0.7-1.14,0.7
	c-0.72,0-1.15-0.28-1.15-0.7h0.73c0,0.14,0.13,0.28,0.42,0.28c0.28,0,0.43-0.14,0.43-0.28l-0.15-0.14c-0.14,0-0.14,0-0.42-0.14
	c-0.43,0-0.57-0.14-0.71-0.14c-0.14-0.15-0.29-0.29-0.29-0.56c0-0.15,0.15-0.29,0.29-0.43c0.14-0.14,0.43-0.29,0.86-0.29
	c0.28,0,0.57,0.15,0.85,0.29c0.15,0.14,0.15,0.28,0.15,0.43h-0.72c0-0.15-0.14-0.15-0.28-0.15c-0.29,0-0.42,0-0.42,0.15
	c0,0.14,0.28,0.27,0.7,0.27c0.28,0,0.43,0.15,0.57,0.15C89.57,23.2,89.71,23.34,89.71,23.62L89.71,23.62z M90.71,21.78h-0.72v-0.54
	h0.72V21.78L90.71,21.78z M90.71,24.32h-0.72v-2.25h0.72V24.32L90.71,24.32z M92.56,24.32c-0.28,0-0.41,0-0.57,0
	c-0.14,0-0.42,0-0.42-0.15c-0.15,0-0.15-0.27-0.15-0.41V22.5H91v-0.42h0.42v-0.71h0.73v0.71h0.41v0.42h-0.41v1.12
	c0,0.14,0,0.14,0,0.14h0.13c0.16,0,0.16,0,0.28,0V24.32L92.56,24.32z M94.98,22.07l-0.85,2.39c-0.13,0.28-0.28,0.42-0.28,0.42
	c-0.15,0.14-0.29,0.14-0.57,0.14c-0.13,0-0.3,0-0.43,0V24.6c0,0,0.13,0,0.3,0c0.13,0,0.28-0.14,0.28-0.43l-0.87-2.1h0.87l0.43,1.41
	l0,0l0.42-1.41H94.98z M84.15,21.92v0.43c-0.3,0-0.43,0.29-0.43,0.55h0.43v0.43h-0.43c0,0.42,0.14,0.56,0.43,0.56v0.42
	c-0.87,0-1.3-0.42-1.3-1.12c0-0.42,0.14-0.7,0.29-0.85C83.43,22.07,83.72,21.92,84.15,21.92L84.15,21.92L84.15,21.92z M69.57,24.32
	V23.9c0.14,0,0.29,0,0.29-0.14c0.13,0,0.13-0.14,0.13-0.28V23.2c0,0-0.13,0-0.28,0c0,0,0,0.14-0.14,0.14v-0.43c0.14,0,0.14,0,0.14,0
	c0.15,0,0.28,0,0.28-0.13c0,0,0,0,0-0.14c0-0.15-0.13-0.29-0.28-0.29c-0.14,0-0.14,0-0.14,0v-0.43h0.14c0.28,0,0.58,0.15,0.87,0.29
	c0.14,0,0.14,0.28,0.14,0.57v1.12c0,0.14,0,0.14,0.14,0.14c0,0,0,0.13,0,0c0,0.13,0,0.13,0,0.28c0,0-0.14,0-0.29,0
	c-0.15,0-0.29,0-0.44,0c0,0-0.14-0.15-0.14-0.28l0,0l0,0C69.99,24.17,69.71,24.32,69.57,24.32L69.57,24.32z M71.99,24.32h-0.86
	v-3.09h0.86V24.32L71.99,24.32z M76.28,23.2c0,0.42-0.14,0.7-0.28,0.84c-0.29,0.28-0.57,0.28-1.15,0.28c-0.43,0-0.72,0-1-0.28
	c-0.14-0.14-0.29-0.42-0.29-0.84v-1.83h0.72v1.97c0,0.28,0.29,0.42,0.57,0.42c0.43,0,0.58-0.14,0.58-0.42v-1.97h0.85V23.2
	L76.28,23.2z M78.99,24.32h-0.7v-1.41c0-0.27-0.16-0.41-0.44-0.41c-0.14,0-0.29,0-0.29,0.15c-0.14,0.14-0.14,0.14-0.14,0.27v1.41
	h-0.71v-2.25h0.71v0.28l0,0c0.14-0.28,0.43-0.43,0.71-0.43c0.3,0,0.44,0.15,0.58,0.29c0.15,0,0.28,0.28,0.28,0.43V24.32L78.99,24.32
	z M80.14,21.78h-0.71v-0.54h0.71V21.78L80.14,21.78z M80.14,24.32h-0.71v-2.25h0.71V24.32L80.14,24.32z M82.85,22.07L82,24.32h-0.86
	l-0.84-2.25h0.84l0.43,1.54l0,0L82,22.07H82.85z M69.57,21.92v0.43c-0.29,0.14-0.43,0.14-0.43,0.42h-0.56c0-0.28,0-0.42,0.28-0.57
	C69,22.07,69.28,21.92,69.57,21.92L69.57,21.92z M69.57,22.91v0.43h-0.14c-0.15,0-0.29,0.14-0.29,0.28c0,0.14,0.14,0.28,0.29,0.28
	c0.14,0,0.14,0,0.14,0v0.42c-0.14,0-0.14,0-0.29,0c-0.56,0-0.85-0.15-0.85-0.7c0-0.42,0.29-0.56,0.71-0.71
	C69.28,22.91,69.43,22.91,69.57,22.91L69.57,22.91z M64.29,24.32V23.9l0,0c0.28,0,0.42-0.28,0.42-0.7c0-0.56-0.14-0.7-0.42-0.7l0,0
	v-0.58l0,0c0.85,0,1.27,0.43,1.27,1.28C65.55,23.9,65.13,24.32,64.29,24.32L64.29,24.32L64.29,24.32z M68.13,24.32h-0.7v-1.41
	c0-0.27-0.15-0.41-0.43-0.41c-0.15,0-0.29,0-0.29,0.15c-0.14,0.14-0.14,0.14-0.14,0.27v1.41h-0.72v-2.25h0.72v0.28l0,0
	c0.14-0.28,0.43-0.43,0.71-0.43c0.29,0,0.42,0.15,0.56,0.29c0.15,0,0.29,0.28,0.29,0.43V24.32z M64.29,21.92v0.58
	c-0.42,0-0.58,0.15-0.58,0.7c0,0.42,0.16,0.7,0.58,0.7v0.42c-0.87,0-1.29-0.42-1.29-1.12C63,22.35,63.42,21.92,64.29,21.92
	L64.29,21.92z M58.72,24.32V23.9c0.13,0,0.13,0,0.28-0.14c0.14,0,0.14-0.14,0.14-0.28V23.2c0,0-0.14,0-0.29,0l-0.13,0.14v-0.43
	c0.13,0,0.13,0,0.13,0c0.15,0,0.15,0,0.29-0.13c0,0,0,0,0-0.14c0-0.15-0.14-0.29-0.42-0.29l0,0v-0.43l0,0c0.42,0,0.7,0.15,0.83,0.29
	c0.15,0,0.29,0.28,0.29,0.57v1.12c0,0.14,0,0.14,0,0.14c0.15,0,0.15,0.13,0.15,0c0,0.13,0,0.13,0,0.28c0,0-0.15,0-0.29,0
	c-0.28,0-0.42,0-0.42,0c-0.14,0-0.14-0.15-0.14-0.28l0,0l0,0C59,24.17,58.85,24.32,58.72,24.32L58.72,24.32z M61.57,24.32
	c-0.16,0-0.28,0-0.43,0c-0.29,0-0.43,0-0.56-0.15c0,0-0.16-0.27-0.16-0.41V22.5h-0.3v-0.42h0.3v-0.71h0.72v0.71h0.43v0.42h-0.43
	v1.12c0,0.14,0,0.14,0.15,0.14c0,0,0,0,0.12,0h0.16V24.32L61.57,24.32z M62.71,21.78h-0.73v-0.54h0.73V21.78L62.71,21.78z
	 M62.71,24.32h-0.73v-2.25h0.73V24.32z M58.72,21.92v0.43c-0.29,0.14-0.43,0.14-0.43,0.42h-0.72c0-0.28,0.15-0.42,0.29-0.57
	C57.99,22.07,58.29,21.92,58.72,21.92L58.72,21.92z M58.72,22.91v0.43c-0.16,0-0.16,0-0.16,0c-0.27,0-0.27,0.14-0.27,0.28
	c0,0.14,0,0.28,0.27,0.28h0.16v0.42c-0.16,0-0.29,0-0.43,0c-0.58,0-0.87-0.15-0.87-0.7c0-0.42,0.29-0.56,0.87-0.71
	C58.43,22.91,58.57,22.91,58.72,22.91L58.72,22.91z M51.58,24.32V23.9l0,0c0.14,0,0.28,0,0.28-0.14c0.14,0,0.14-0.14,0.14-0.14h0.72
	c0,0.14-0.15,0.28-0.29,0.42C52.29,24.32,52,24.32,51.58,24.32L51.58,24.32L51.58,24.32z M51.58,23.34v-0.43H52
	c0-0.13,0-0.27,0-0.27c-0.14-0.15-0.28-0.29-0.42-0.29l0,0v-0.43c0.42,0,0.71,0.15,0.85,0.43c0.29,0.14,0.29,0.55,0.29,0.99H51.58
	L51.58,23.34z M54.72,22.64c-0.14,0-0.3,0-0.3,0c-0.13,0-0.43,0-0.43,0.14c-0.14,0.13-0.14,0.28-0.14,0.42v1.12h-0.86v-2.25h0.86
	v0.42l0,0c0.14-0.28,0.29-0.58,0.57-0.58c0.16,0,0.16,0,0.3,0.15V22.64L54.72,22.64z M57.14,24.32h-0.72v-1.41
	c0-0.27-0.13-0.41-0.29-0.41c-0.13,0-0.27,0-0.27,0.15c-0.16,0.14-0.16,0.14-0.16,0.27v1.41h-0.71v-2.25h0.71v0.28l0,0
	c0-0.28,0.3-0.43,0.72-0.43c0.15,0,0.42,0.15,0.57,0.29c0.14,0,0.14,0.28,0.14,0.43V24.32z M51.58,21.92v0.43
	c-0.29,0-0.43,0.29-0.58,0.55h0.58v0.43H51c0,0.42,0.29,0.56,0.58,0.56v0.42c-0.86,0-1.29-0.42-1.29-1.12c0-0.42,0.14-0.7,0.28-0.85
	C50.86,22.07,51.15,21.92,51.58,21.92L51.58,21.92L51.58,21.92z M39.57,24.32v-0.56c0.43,0,0.56-0.14,0.56-0.56
	c0-0.42-0.13-0.7-0.56-0.7v-0.42c0.28,0,0.43,0.14,0.56,0.28l0,0v-1.12h0.73v3.09h-0.73v-0.28l0,0C40,24.17,39.85,24.32,39.57,24.32
	L39.57,24.32z M42,21.78h-0.7v-0.54H42V21.78L42,21.78z M42,24.32h-0.7v-2.25H42V24.32L42,24.32z M43.13,24.32h-0.71v-3.09h0.71
	V24.32L43.13,24.32z M45.57,24.32h-0.71v-2.95h0.71V24.32L45.57,24.32z M48.28,24.32h-0.72v-1.41c0-0.27,0-0.41-0.28-0.41
	c-0.15,0-0.29,0-0.29,0.15c-0.13,0.14-0.13,0.14-0.13,0.27v1.41h-0.73v-2.25h0.73v0.28l0,0c0.13-0.28,0.28-0.43,0.7-0.43
	c0.28,0,0.43,0.15,0.57,0.29c0.14,0,0.14,0.28,0.14,0.43V24.32L48.28,24.32z M50.14,24.32c-0.3,0-0.44,0-0.57,0
	c-0.13,0-0.29,0-0.42-0.15C49,24.17,49,23.9,49,23.76V22.5h-0.43v-0.42H49v-0.71h0.7v0.71h0.44v0.42h-0.44v1.12
	c0,0.14,0,0.14,0,0.14h0.14c0.14,0,0.14,0,0.3,0V24.32z M39.57,22.07v0.42l0,0c-0.29,0-0.42,0.28-0.42,0.7
	c0,0.42,0.14,0.56,0.42,0.56l0,0v0.56h-0.14c-0.43,0-0.56-0.15-0.86-0.28c-0.14-0.28-0.14-0.56-0.14-0.84c0-0.42,0-0.7,0.14-0.85
	c0.3-0.28,0.43-0.43,0.86-0.43C39.43,21.92,39.57,21.92,39.57,22.07L39.57,22.07z M36.87,24.32V23.9l0,0c0.28,0,0.57-0.28,0.57-0.7
	c0-0.56-0.29-0.7-0.57-0.7l0,0v-0.58l0,0c0.86,0,1.28,0.43,1.28,1.28C38.15,23.9,37.72,24.32,36.87,24.32L36.87,24.32z M36.87,21.92
	v0.58c-0.3,0-0.44,0.15-0.44,0.7c0,0.42,0.14,0.7,0.44,0.7v0.42c-0.87,0-1.3-0.42-1.3-1.12C35.56,22.35,36,21.92,36.87,21.92
	L36.87,21.92z M31,24.32V23.9c0,0,0.14,0,0.29-0.14c0,0,0.16-0.14,0.16-0.28V23.2c0,0-0.16,0-0.3,0L31,23.34v-0.43h0.14
	c0.14,0,0.14,0,0.14-0.13c0.16,0,0.16,0,0.16-0.14c0-0.15-0.16-0.29-0.44-0.29l0,0v-0.43l0,0c0.44,0,0.71,0.15,0.86,0.29
	c0.14,0,0.29,0.28,0.29,0.57v1.12c0,0.14,0,0.14,0,0.14s0.14,0.13,0.14,0c0,0.13,0,0.13,0,0.28c0,0-0.14,0-0.29,0
	c-0.28,0-0.42,0-0.42,0c-0.13,0-0.13-0.15-0.13-0.28l0,0l0,0C31.28,24.17,31.14,24.32,31,24.32L31,24.32z M33.86,21.64L33.86,21.64
	c-0.14,0-0.14,0-0.14,0c-0.14,0-0.14,0-0.14,0.13c-0.15,0-0.15,0-0.15,0.14v0.15h0.44v0.42h-0.44v1.82h-0.71V22.5h-0.29v-0.42h0.29
	v-0.3c0-0.41,0.28-0.54,0.71-0.54c0.15,0,0.3,0,0.44,0V21.64L33.86,21.64z M35.56,21.64c-0.12,0-0.12,0-0.12,0
	c-0.16,0-0.16,0-0.16,0c-0.13,0-0.13,0-0.13,0.13c-0.14,0-0.14,0-0.14,0.14v0.15h0.43v0.42h-0.43v1.82H34.3V22.5H34v-0.42h0.3v-0.3
	c0-0.41,0.27-0.54,0.71-0.54c0.14,0,0.27,0,0.56,0V21.64z M29.57,22.78c0,0.42-0.14,0.84-0.28,1.12c-0.29,0.27-0.58,0.42-1,0.42
	h-0.16v-0.56c0.16,0,0.3-0.14,0.44-0.28c0.14-0.14,0.14-0.43,0.14-0.7c0-0.28,0-0.57-0.14-0.7c-0.14-0.15-0.28-0.3-0.44-0.3v-0.41
	h0.16c0.42,0,0.71,0,1,0.28C29.43,21.92,29.57,22.35,29.57,22.78L29.57,22.78z M31,21.92v0.43c-0.28,0.14-0.42,0.14-0.42,0.42h-0.71
	c0-0.28,0.13-0.42,0.29-0.57C30.29,22.07,30.58,21.92,31,21.92L31,21.92z M31,22.91v0.43c-0.14,0-0.14,0-0.14,0
	c-0.29,0-0.29,0.14-0.29,0.28c0,0.14,0,0.28,0.29,0.28c0,0,0,0,0.14,0v0.42c-0.14,0-0.28,0-0.42,0c-0.58,0-0.85-0.15-0.85-0.7
	c0-0.42,0.27-0.56,0.85-0.71C30.72,22.91,30.86,22.91,31,22.91z M28.13,24.32h-1.41v-2.95h1.41v0.41H28h-0.57v1.98H28h0.13V24.32z"
	/>
<path class="st7" d="M42.71,63.36l3.42,1.55c1.15,0.57,2.01,1.12,2.58,1.68c0.57,0.7,0.99,1.41,1.14,2.24c0.3,0.7,0.3,1.54,0.14,2.4
	c-0.14,0.98-0.42,1.81-0.85,2.66c-0.57,1.4-1.3,2.39-1.86,2.95c-0.72,0.71-1.44,1.12-2.29,1.41c-0.7,0.14-1.41,0.28-2.28,0.14l0,0
	v-3.51c0.42-0.14,0.72-0.28,1.14-0.55c0.3-0.43,0.73-1.13,1.29-2.11c0.57-1.41,0.7-2.4,0.57-3.08c-0.28-0.71-0.86-1.27-1.86-1.7
	l-0.99-0.56l-0.15,0.27V63.36z M40.14,62.24l2.58,1.13v3.78l-3.14,6.74l1,0.43c0.86,0.42,1.42,0.55,2,0.55c0,0,0,0,0.14,0v3.51
	c-1-0.14-1.85-0.42-2.43-0.7l-5.98-2.66L40.14,62.24z"/>
<rect x="57.57" y="70.66" class="st7" width="4.42" height="14.05"/>
<path class="st7" d="M76.15,63.78l3.99-1.82l3.58,7.57c0.43,0.85,0.57,1.56,0.72,2.39c0,0.7,0,1.55-0.29,2.25
	c-0.3,0.7-0.72,1.27-1.16,1.83c-0.72,0.55-1.57,1.12-2.56,1.68c-0.72,0.28-1.43,0.56-2.14,0.7c-0.87,0.28-1.58,0.42-2.14,0.42
	c-0.59,0-1.3-0.14-1.86-0.42c-0.72-0.28-1.14-0.7-1.57-1.12c-0.57-0.71-1.14-1.41-1.43-1.97l-3.58-7.59l4.01-1.81l3.72,7.72
	c0.28,0.7,0.71,1.12,1.28,1.41c0.57,0.13,1.29,0.13,2-0.15c0.58-0.41,1.15-0.83,1.29-1.4c0.3-0.56,0.14-1.12-0.14-1.82L76.15,63.78z
	"/>
<path class="st10" d="M59.28,94.53c2.56,0,4.85,2.11,4.85,4.78c0,2.66-2.29,4.76-4.85,4.76c-2.71,0-4.87-2.1-4.87-4.76
	C54.42,96.64,56.57,94.53,59.28,94.53z"/>
</svg>
