<?xml version="1.0" encoding="utf-8"?>
<!-- Generator: Adobe Illustrator 23.0.2, SVG Export Plug-In . SVG Version: 6.00 Build 0)  -->
<svg version="1.1" id="Layer_1" xmlns="http://www.w3.org/2000/svg" xmlns:xlink="http://www.w3.org/1999/xlink" x="0px" y="0px"
	 viewBox="0 0 120 120" style="enable-background:new 0 0 120 120;" xml:space="preserve">
<style type="text/css">
	.st0{fill:#009540;}
	.st1{fill:#1D1D1B;}
	.st2{fill:#E20613;}
</style>
<path class="st0" d="M10.14,72.09v-0.72h1.03c0.9,0,1.59-0.13,2.07-0.4c0.48-0.26,0.83-0.63,1.06-1.09c0.14-0.3,0.2-1.2,0.2-2.71
	V48.04c0-1.49-0.08-2.42-0.25-2.8c-0.17-0.37-0.51-0.7-1.02-0.98c-0.51-0.28-1.2-0.42-2.07-0.42h-1.03v-0.72h13.93
	c3.72,0,6.71,0.47,8.97,1.41c2.77,1.15,4.87,2.9,6.3,5.23c1.43,2.34,2.15,4.98,2.15,7.92c0,2.04-0.35,3.91-1.06,5.63
	c-0.7,1.72-1.61,3.13-2.73,4.25c-1.12,1.12-2.41,2.02-3.87,2.69c-1.46,0.68-3.25,1.2-5.36,1.57c-0.93,0.17-2.4,0.25-4.41,0.25H10.14
	z M22.02,44.7v22.67c0,1.2,0.06,1.94,0.18,2.21c0.12,0.27,0.33,0.48,0.62,0.62c0.41,0.21,1.01,0.32,1.78,0.32
	c2.54,0,4.48-0.82,5.82-2.44c1.83-2.2,2.74-5.61,2.74-10.25c0-3.73-0.62-6.71-1.87-8.93c-0.99-1.74-2.26-2.93-3.81-3.56
	C26.38,44.9,24.56,44.68,22.02,44.7z"/>
<path class="st0" d="M60.69,71.37v0.72H44.45v-0.72h1.03c0.9,0,1.62-0.15,2.17-0.45c0.4-0.2,0.7-0.54,0.91-1.03
	c0.17-0.34,0.25-1.25,0.25-2.71V48.04c0-1.49-0.08-2.42-0.25-2.8c-0.17-0.37-0.51-0.7-1.02-0.98c-0.51-0.28-1.2-0.42-2.07-0.42
	h-1.03v-0.72h16.24v0.72h-1.02c-0.89,0-1.61,0.15-2.16,0.45c-0.39,0.2-0.7,0.55-0.93,1.03c-0.17,0.34-0.25,1.25-0.25,2.71v19.14
	c0,1.49,0.09,2.42,0.26,2.8c0.18,0.37,0.52,0.7,1.02,0.98c0.51,0.28,1.19,0.42,2.06,0.42H60.69z"/>
<path class="st0" d="M62.89,43.12H79v0.72h-0.81c-1.22,0-2.05,0.12-2.5,0.35c-0.45,0.24-0.78,0.57-0.97,0.98
	c-0.19,0.42-0.29,1.46-0.29,3.12v14.2c0,2.59,0.21,4.31,0.63,5.15c0.42,0.84,1.1,1.54,2.06,2.1c0.96,0.56,2.16,0.83,3.62,0.83
	c1.67,0,3.09-0.35,4.27-1.06c1.18-0.71,2.06-1.68,2.64-2.92c0.59-1.24,0.88-3.4,0.88-6.48V48.3c0-1.31-0.14-2.24-0.43-2.8
	c-0.29-0.56-0.65-0.95-1.08-1.16c-0.68-0.33-1.63-0.5-2.86-0.5v-0.72h10.67v0.72H94.2c-0.87,0-1.59,0.17-2.17,0.5
	c-0.58,0.33-1,0.82-1.26,1.48c-0.2,0.46-0.3,1.29-0.3,2.47v11.01c0,3.41-0.24,5.86-0.72,7.37c-0.48,1.51-1.65,2.9-3.51,4.17
	c-1.86,1.27-4.4,1.9-7.62,1.9c-2.69,0-4.76-0.33-6.23-1c-2-0.91-3.41-2.08-4.24-3.5c-0.83-1.43-1.24-3.34-1.24-5.75V48.3
	c0-1.68-0.1-2.72-0.3-3.13c-0.2-0.41-0.54-0.74-1.03-0.98c-0.49-0.24-1.39-0.36-2.7-0.35V43.12z"/>
<path class="st1" d="M10.94,39.22v-3.85h-0.92v-0.64H13v0.64h-0.96v3.85h0.86v0.64h-2.89v-0.64H10.94z M12.08,37.15l2.37-1.78h-0.85
	v-0.64h2.9v0.64h-0.79l-2.28,1.78l2.34,2.07h0.79v0.64h-3v-0.64h0.8L12.08,37.15z"/>
<path class="st1" d="M18.81,36.29v0.44c0.65-0.32,1.24-0.49,1.77-0.49c0.33,0,0.61,0.06,0.82,0.16c0.22,0.11,0.36,0.24,0.43,0.4
	c0.07,0.15,0.1,0.39,0.1,0.69v1.73h0.87v0.64h-1.88v-2.33c0-0.27-0.06-0.45-0.17-0.53c-0.12-0.08-0.26-0.12-0.43-0.12
	c-0.45,0-0.95,0.15-1.51,0.45v1.89h0.89v0.64h-2.8v-0.64h0.91v-2.29H16.9v-0.64H18.81z"/>
<path class="st1" d="M23.27,38.08c0-0.55,0.26-1,0.78-1.35c0.52-0.35,1.16-0.53,1.91-0.53c0.74,0,1.37,0.18,1.9,0.52
	c0.53,0.34,0.79,0.8,0.79,1.36c0,0.56-0.26,1.01-0.79,1.36c-0.53,0.35-1.16,0.52-1.9,0.52c-0.76,0-1.4-0.18-1.92-0.53
	C23.53,39.08,23.27,38.63,23.27,38.08z M24.34,38.08c0,0.35,0.16,0.64,0.47,0.87c0.31,0.22,0.7,0.34,1.15,0.34
	c0.46,0,0.84-0.11,1.15-0.34c0.31-0.23,0.46-0.52,0.46-0.86c0-0.35-0.16-0.64-0.47-0.87c-0.31-0.22-0.7-0.34-1.15-0.34
	c-0.47,0-0.86,0.11-1.16,0.34C24.49,37.45,24.34,37.74,24.34,38.08z"/>
<path class="st1" d="M30.6,39.92l-1.38-3H28.6v-0.64h2.16v0.64h-0.68l0.99,2.15l0.97-2.15h-0.56v-0.64h2.48v0.64H33.4l0.99,2.15
	l0.98-2.15h-0.7v-0.64h2.32v0.64h-0.74l-1.37,3h-0.95l-1.19-2.57l-1.19,2.57H30.6z"/>
<path class="st1" d="M38.11,39.22v-3.85H37.2v-0.64h1.91v4.49h0.79v0.64h-2.7v-0.64H38.11z"/>
<path class="st1" d="M45.98,38.25h-4.33c0.06,0.33,0.25,0.59,0.56,0.79c0.31,0.2,0.71,0.3,1.2,0.3c0.71,0,1.26-0.2,1.68-0.59
	l0.89,0.27c-0.29,0.31-0.67,0.54-1.13,0.7c-0.46,0.15-0.95,0.23-1.45,0.23c-0.79,0-1.46-0.17-2.02-0.51
	c-0.56-0.34-0.84-0.79-0.84-1.37c0-0.55,0.27-0.99,0.82-1.35c0.54-0.35,1.17-0.53,1.87-0.53c0.69,0,1.31,0.17,1.88,0.52
	C45.67,37.06,45.96,37.57,45.98,38.25z M44.94,37.75c-0.07-0.25-0.26-0.47-0.56-0.67c-0.3-0.2-0.68-0.3-1.12-0.3
	c-0.41,0-0.75,0.09-1.04,0.27c-0.29,0.18-0.46,0.41-0.53,0.7H44.94z"/>
<path class="st1" d="M53.16,39.22v0.64h-1.93v-0.52c-0.5,0.39-1.12,0.58-1.84,0.58c-0.67,0-1.26-0.16-1.76-0.47
	c-0.51-0.32-0.76-0.77-0.76-1.35c0-0.58,0.26-1.05,0.78-1.39c0.52-0.34,1.11-0.51,1.77-0.51c0.7,0,1.3,0.19,1.82,0.58v-1.41h-0.99
	v-0.64h2v4.49H53.16z M47.94,38.08c0,0.39,0.16,0.69,0.48,0.9c0.32,0.21,0.71,0.31,1.15,0.31c0.43,0,0.82-0.11,1.15-0.33
	c0.34-0.22,0.5-0.53,0.5-0.92c0-0.39-0.17-0.69-0.51-0.89c-0.34-0.2-0.73-0.3-1.15-0.3c-0.46,0-0.84,0.12-1.15,0.35
	C48.1,37.45,47.94,37.74,47.94,38.08z"/>
<path class="st1" d="M59.87,36.29v0.64h-0.92v2.65c0,0.36-0.03,0.62-0.08,0.8c-0.05,0.17-0.18,0.35-0.39,0.53
	c-0.2,0.18-0.51,0.33-0.92,0.46c-0.41,0.12-0.86,0.18-1.37,0.18c-0.76,0-1.44-0.16-2.03-0.47l0.66-0.51
	c0.45,0.24,0.93,0.36,1.46,0.36c0.29,0,0.56-0.04,0.81-0.12c0.25-0.08,0.43-0.17,0.56-0.28c0.12-0.11,0.2-0.22,0.24-0.32
	c0.03-0.1,0.05-0.27,0.05-0.51v-0.33c-0.16,0.14-0.41,0.27-0.75,0.4c-0.34,0.13-0.71,0.19-1.12,0.19c-0.74,0-1.34-0.18-1.8-0.53
	c-0.46-0.35-0.7-0.79-0.7-1.3c0-0.56,0.26-1.02,0.77-1.37c0.51-0.35,1.11-0.52,1.78-0.52c0.68,0,1.28,0.19,1.82,0.56v-0.52H59.87z
	 M54.65,38.11c0,0.36,0.15,0.66,0.45,0.88c0.3,0.23,0.69,0.34,1.16,0.34c0.46,0,0.86-0.11,1.19-0.34c0.33-0.23,0.5-0.52,0.5-0.88
	c0-0.37-0.16-0.66-0.5-0.88c-0.33-0.22-0.72-0.33-1.16-0.33c-0.44,0-0.83,0.11-1.16,0.33C54.82,37.44,54.65,37.74,54.65,38.11z"/>
<path class="st1" d="M65.6,38.25h-4.33c0.06,0.33,0.25,0.59,0.56,0.79c0.31,0.2,0.71,0.3,1.2,0.3c0.7,0,1.26-0.2,1.68-0.59
	l0.89,0.27c-0.29,0.31-0.67,0.54-1.13,0.7c-0.46,0.15-0.95,0.23-1.46,0.23c-0.79,0-1.46-0.17-2.01-0.51
	c-0.56-0.34-0.84-0.79-0.84-1.37c0-0.55,0.27-0.99,0.82-1.35c0.54-0.35,1.17-0.53,1.87-0.53c0.69,0,1.32,0.17,1.88,0.52
	C65.29,37.06,65.58,37.57,65.6,38.25z M64.56,37.75c-0.07-0.25-0.26-0.47-0.57-0.67c-0.31-0.2-0.68-0.3-1.12-0.3
	c-0.41,0-0.75,0.09-1.04,0.27c-0.29,0.18-0.46,0.41-0.53,0.7H64.56z"/>
<path class="st1" d="M69.89,39.22v-2.29H69.1v-0.64h1.8v2.93h0.79v0.64H69.1v-0.64H69.89z M69.74,35.07c0-0.11,0.06-0.22,0.17-0.3
	c0.11-0.08,0.26-0.13,0.44-0.13c0.16,0,0.31,0.04,0.43,0.12c0.12,0.08,0.18,0.18,0.18,0.3c0,0.12-0.06,0.22-0.18,0.3
	c-0.12,0.09-0.26,0.13-0.43,0.13c-0.17,0-0.32-0.04-0.43-0.13C69.8,35.29,69.74,35.19,69.74,35.07z"/>
<path class="st1" d="M72.36,39.86v-1.21h0.9v0.11c0.03,0.16,0.16,0.29,0.39,0.4c0.23,0.11,0.5,0.16,0.81,0.16
	c0.32,0,0.58-0.04,0.78-0.11c0.19-0.08,0.29-0.18,0.29-0.32c0-0.13-0.08-0.23-0.24-0.29c-0.16-0.06-0.48-0.12-0.96-0.18
	c-0.71-0.08-1.21-0.22-1.52-0.4c-0.3-0.19-0.45-0.43-0.45-0.72c0-0.3,0.16-0.55,0.49-0.75c0.33-0.2,0.76-0.3,1.3-0.3
	c0.49,0,0.91,0.07,1.26,0.21v-0.16h0.89v1.2h-0.89v-0.22c-0.27-0.29-0.67-0.44-1.2-0.44c-0.27,0-0.49,0.04-0.66,0.12
	c-0.17,0.08-0.26,0.19-0.26,0.32c0,0.14,0.08,0.23,0.24,0.28c0.16,0.05,0.5,0.11,1.02,0.17c0.5,0.06,0.88,0.12,1.13,0.2
	c0.25,0.07,0.47,0.19,0.64,0.36c0.17,0.17,0.25,0.36,0.25,0.58c0,0.33-0.18,0.59-0.55,0.79c-0.37,0.19-0.84,0.29-1.42,0.29
	c-0.55,0-0.99-0.09-1.34-0.27v0.21H72.36z"/>
<path class="st1" d="M80.75,39.22v-3.85h-0.92v-0.64h2.64c0.77,0,1.36,0.04,1.74,0.11c0.39,0.08,0.71,0.25,0.97,0.52
	c0.26,0.27,0.39,0.59,0.39,0.95c0,0.29-0.09,0.56-0.26,0.79c-0.17,0.23-0.39,0.4-0.64,0.51c-0.25,0.11-0.54,0.19-0.86,0.22
	c-0.32,0.04-0.8,0.06-1.44,0.06h-0.51v1.33h0.96v0.64h-2.99v-0.64H80.75z M81.86,37.27h0.64c0.73,0,1.24-0.07,1.52-0.21
	c0.28-0.15,0.42-0.4,0.42-0.76c0-0.23-0.07-0.42-0.22-0.58c-0.15-0.15-0.34-0.25-0.56-0.29c-0.22-0.04-0.59-0.06-1.11-0.06h-0.69
	V37.27z"/>
<path class="st1" d="M85.94,38.08c0-0.55,0.26-1,0.78-1.35c0.52-0.35,1.16-0.53,1.91-0.53c0.74,0,1.37,0.18,1.9,0.52
	c0.53,0.34,0.79,0.8,0.79,1.36c0,0.56-0.26,1.01-0.79,1.36c-0.53,0.35-1.16,0.52-1.9,0.52c-0.76,0-1.4-0.18-1.92-0.53
	C86.2,39.08,85.94,38.63,85.94,38.08z M87.01,38.08c0,0.35,0.16,0.64,0.47,0.87c0.31,0.22,0.7,0.34,1.15,0.34
	c0.46,0,0.84-0.11,1.15-0.34c0.31-0.23,0.47-0.52,0.47-0.86c0-0.35-0.16-0.64-0.47-0.87c-0.32-0.22-0.7-0.34-1.15-0.34
	c-0.47,0-0.86,0.11-1.16,0.34C87.17,37.45,87.01,37.74,87.01,38.08z"/>
<path class="st1" d="M93.27,39.92l-1.38-3h-0.62v-0.64h2.16v0.64h-0.67l0.98,2.15l0.97-2.15h-0.56v-0.64h2.48v0.64h-0.56l0.99,2.15
	l0.98-2.15h-0.71v-0.64h2.32v0.64h-0.74l-1.37,3h-0.95l-1.19-2.57l-1.19,2.57H93.27z"/>
<path class="st1" d="M105.21,38.25h-4.33c0.06,0.33,0.25,0.59,0.56,0.79c0.31,0.2,0.71,0.3,1.2,0.3c0.7,0,1.26-0.2,1.67-0.59
	l0.89,0.27c-0.29,0.31-0.67,0.54-1.13,0.7c-0.46,0.15-0.95,0.23-1.45,0.23c-0.79,0-1.46-0.17-2.02-0.51
	c-0.56-0.34-0.84-0.79-0.84-1.37c0-0.55,0.27-0.99,0.82-1.35c0.54-0.35,1.17-0.53,1.87-0.53c0.69,0,1.32,0.17,1.88,0.52
	C104.89,37.06,105.19,37.57,105.21,38.25z M104.17,37.75c-0.07-0.25-0.26-0.47-0.57-0.67c-0.3-0.2-0.68-0.3-1.12-0.3
	c-0.41,0-0.75,0.09-1.04,0.27c-0.29,0.18-0.46,0.41-0.53,0.7H104.17z"/>
<path class="st1" d="M106.9,39.22v-2.29h-1.04v-0.64h1.85v0.8c0.11-0.21,0.27-0.38,0.47-0.52c0.2-0.14,0.42-0.23,0.64-0.27
	c0.22-0.04,0.53-0.06,0.92-0.06H110v0.7h-0.2c-0.51,0-0.9,0.03-1.15,0.11c-0.25,0.07-0.44,0.2-0.56,0.39
	c-0.12,0.19-0.18,0.52-0.18,1.01v0.78h1.13v0.64h-3.17v-0.64H106.9z"/>
<path class="st1" d="M11.09,79.59v-3.85h-0.97v-0.64h6.21v1.54h-0.94v-0.9h-3.17v1.52h2.77v0.64h-2.77v1.69h3.17v-0.93h0.94v1.58
	h-6.21v-0.64H11.09z"/>
<path class="st1" d="M17.15,80.24v-1.22h0.91v0.12c0.03,0.16,0.16,0.29,0.4,0.4c0.23,0.1,0.5,0.16,0.82,0.16
	c0.33,0,0.59-0.04,0.79-0.12c0.2-0.08,0.29-0.18,0.29-0.32c0-0.13-0.08-0.23-0.24-0.29c-0.16-0.06-0.48-0.12-0.97-0.17
	c-0.72-0.08-1.23-0.22-1.53-0.41c-0.31-0.19-0.46-0.43-0.46-0.72c0-0.3,0.17-0.55,0.5-0.75c0.33-0.2,0.77-0.3,1.32-0.3
	c0.49,0,0.91,0.07,1.27,0.21v-0.16h0.9v1.19h-0.9v-0.22c-0.28-0.29-0.68-0.44-1.21-0.44c-0.27,0-0.49,0.04-0.66,0.12
	c-0.18,0.08-0.26,0.19-0.26,0.32c0,0.14,0.08,0.23,0.24,0.28c0.16,0.05,0.5,0.11,1.03,0.17c0.5,0.06,0.88,0.12,1.14,0.2
	c0.26,0.07,0.47,0.19,0.64,0.36c0.17,0.17,0.25,0.36,0.25,0.58c0,0.33-0.19,0.59-0.56,0.79C20.48,80.2,20,80.3,19.41,80.3
	c-0.55,0-1.01-0.09-1.36-0.27v0.21H17.15z"/>
<path class="st1" d="M22.07,77.3v-0.64h0.67V76.1l1.02-0.64v1.2h0.96v0.64h-0.96v1.73c0,0.28,0.02,0.45,0.07,0.51
	c0.04,0.06,0.15,0.1,0.33,0.1c0.19,0,0.38-0.03,0.56-0.08v0.64c-0.26,0.06-0.52,0.1-0.79,0.1c-0.31,0-0.56-0.05-0.76-0.14
	c-0.19-0.09-0.31-0.21-0.36-0.35c-0.05-0.14-0.08-0.39-0.08-0.74V77.3H22.07z"/>
<path class="st1" d="M31.92,79.59v0.64h-1.96v-0.52c-0.51,0.39-1.13,0.58-1.86,0.58c-0.68,0-1.27-0.16-1.78-0.48
	c-0.51-0.32-0.77-0.77-0.77-1.35c0-0.59,0.26-1.05,0.79-1.39c0.53-0.34,1.12-0.51,1.79-0.51c0.7,0,1.32,0.19,1.84,0.58v-1.41h-1.01
	v-0.64h2.03v4.49H31.92z M26.64,78.46c0,0.39,0.16,0.69,0.48,0.9c0.32,0.21,0.71,0.32,1.17,0.32c0.44,0,0.82-0.11,1.16-0.33
	c0.34-0.22,0.51-0.53,0.51-0.92c0-0.39-0.17-0.69-0.52-0.89c-0.35-0.2-0.73-0.3-1.16-0.3c-0.46,0-0.85,0.12-1.17,0.35
	C26.79,77.83,26.64,78.12,26.64,78.46z"/>
<path class="st1" d="M32.89,80.24v-0.9h1.33v0.9H32.89z"/>
<path class="st1" d="M38.23,80.24v-0.64h0.99c0.06-0.66,0.28-1.34,0.67-2.06c0.4-0.72,0.83-1.3,1.29-1.75h-2.57v0.69h-0.94v-1.36
	h4.68v0.53c-0.49,0.4-0.95,1-1.39,1.81c-0.44,0.81-0.66,1.53-0.66,2.14h0.87v0.64H38.23z"/>
<path class="st1" d="M43.32,77.3v-0.64h0.67V76.1l1.02-0.64v1.2h0.96v0.64h-0.96v1.73c0,0.28,0.02,0.45,0.07,0.51
	c0.04,0.06,0.16,0.1,0.33,0.1c0.19,0,0.38-0.03,0.56-0.08v0.64c-0.26,0.06-0.52,0.1-0.78,0.1c-0.31,0-0.56-0.05-0.76-0.14
	c-0.19-0.09-0.31-0.21-0.36-0.35c-0.05-0.14-0.08-0.39-0.08-0.74V77.3H43.32z"/>
<path class="st1" d="M47.48,79.59v-3.85h-0.94v-0.64h1.96v1.98c0.61-0.34,1.19-0.51,1.74-0.51c0.34,0,0.62,0.05,0.85,0.15
	c0.22,0.1,0.37,0.23,0.45,0.38c0.08,0.16,0.12,0.39,0.12,0.7v1.78h0.89v0.64h-1.91v-2.18c0-0.27-0.01-0.45-0.04-0.54
	c-0.02-0.09-0.09-0.17-0.2-0.23c-0.11-0.06-0.25-0.09-0.4-0.09c-0.39,0-0.89,0.15-1.49,0.46v1.94h0.91v0.64h-2.87v-0.64H47.48z"/>
<path class="st1" d="M60.6,78.43h-2.71l-0.56,1.16h0.9v0.64h-2.94v-0.64h0.9l2.04-3.92h-0.91v-0.57h3.84v0.57h-0.95l2.09,3.92h0.84
	v0.64h-2.92v-0.64h0.92L60.6,78.43z M60.31,77.83l-1-2.15h-0.1l-1.03,2.15H60.31z"/>
<path class="st1" d="M64.08,81.2v-3.9h-0.89v-0.64h1.91v0.57c0.51-0.41,1.13-0.62,1.85-0.62c0.73,0,1.34,0.17,1.81,0.51
	c0.48,0.34,0.72,0.79,0.72,1.34c0,0.58-0.26,1.03-0.78,1.36c-0.52,0.34-1.11,0.5-1.77,0.5c-0.69,0-1.3-0.18-1.83-0.55v1.42h1.01
	v0.64h-2.99V81.2H64.08z M65.09,78.5c0,0.2,0.06,0.38,0.18,0.56c0.12,0.18,0.31,0.33,0.57,0.45c0.26,0.12,0.56,0.18,0.91,0.18
	c0.49,0,0.89-0.11,1.21-0.33c0.32-0.22,0.48-0.53,0.48-0.92c0-0.38-0.17-0.68-0.5-0.89c-0.33-0.21-0.71-0.32-1.13-0.32
	c-0.45,0-0.85,0.12-1.19,0.35C65.26,77.81,65.09,78.12,65.09,78.5z"/>
<path class="st1" d="M71.23,79.59V77.3h-1.04v-0.64h1.86v0.8c0.11-0.21,0.27-0.38,0.48-0.52c0.2-0.14,0.42-0.23,0.64-0.27
	c0.23-0.04,0.54-0.06,0.93-0.06h0.27v0.7h-0.2c-0.52,0-0.9,0.04-1.16,0.11c-0.25,0.07-0.44,0.2-0.57,0.39
	c-0.12,0.19-0.18,0.52-0.18,1v0.78h1.14v0.64h-3.21v-0.64H71.23z"/>
<path class="st1" d="M75.92,79.59V77.3h-0.81v-0.64h1.83v2.93h0.8v0.64h-2.63v-0.64H75.92z M75.77,75.45c0-0.11,0.06-0.22,0.18-0.3
	c0.12-0.09,0.26-0.13,0.45-0.13c0.17,0,0.31,0.04,0.44,0.12c0.12,0.08,0.18,0.18,0.18,0.3c0,0.12-0.06,0.22-0.18,0.3
	c-0.12,0.08-0.27,0.13-0.44,0.13c-0.17,0-0.32-0.04-0.44-0.13C75.83,75.66,75.77,75.56,75.77,75.45z"/>
<path class="st1" d="M79.1,79.59v-3.85h-0.92v-0.64h1.95v4.49h0.81v0.64h-2.75v-0.64H79.1z"/>
<path class="st1" d="M82.13,80.24v-0.9h1.32v0.78c0,0.27-0.03,0.47-0.09,0.62c-0.06,0.15-0.19,0.27-0.39,0.36
	c-0.2,0.09-0.48,0.14-0.84,0.15v-0.38c0.43-0.04,0.64-0.23,0.64-0.55c0-0.02,0-0.05,0-0.08H82.13z"/>
<path class="st1" d="M88.86,79.59v-3.87h-1.02v-0.62h2.05v4.49h0.97v0.64h-3.02v-0.64H88.86z"/>
<path class="st1" d="M92.78,78.71h0.91c0.05,0.29,0.2,0.54,0.45,0.72c0.25,0.19,0.55,0.28,0.9,0.28c0.48,0,0.86-0.17,1.12-0.51
	c0.27-0.34,0.4-0.81,0.41-1.4c-0.51,0.38-1.09,0.57-1.76,0.57c-0.59,0-1.09-0.15-1.49-0.44c-0.4-0.29-0.6-0.67-0.6-1.15
	c0-0.48,0.2-0.89,0.61-1.24c0.4-0.34,0.96-0.52,1.66-0.52c0.78,0,1.41,0.22,1.87,0.66c0.47,0.44,0.7,1.09,0.7,1.96
	c0,0.82-0.23,1.48-0.68,1.96c-0.45,0.48-1.11,0.72-1.96,0.72c-0.67,0-1.18-0.15-1.56-0.46C93,79.56,92.8,79.18,92.78,78.71z
	 M96.52,77.02c-0.15-0.93-0.65-1.39-1.49-1.39c-0.41,0-0.74,0.1-0.98,0.31c-0.24,0.21-0.36,0.47-0.36,0.77
	c0,0.28,0.11,0.51,0.32,0.7c0.21,0.19,0.52,0.28,0.93,0.28C95.47,77.69,95.99,77.47,96.52,77.02z"/>
<path class="st1" d="M98.75,78.71h0.91c0.05,0.29,0.2,0.54,0.45,0.72c0.25,0.19,0.55,0.28,0.9,0.28c0.48,0,0.86-0.17,1.12-0.51
	c0.27-0.34,0.4-0.81,0.41-1.4c-0.51,0.38-1.09,0.57-1.76,0.57c-0.59,0-1.09-0.15-1.49-0.44c-0.4-0.29-0.6-0.67-0.6-1.15
	c0-0.48,0.2-0.89,0.6-1.24c0.4-0.34,0.95-0.52,1.66-0.52c0.78,0,1.4,0.22,1.87,0.66c0.47,0.44,0.7,1.09,0.7,1.96
	c0,0.82-0.23,1.48-0.67,1.96c-0.45,0.48-1.11,0.72-1.96,0.72c-0.66,0-1.18-0.15-1.55-0.46C98.96,79.56,98.77,79.18,98.75,78.71z
	 M102.48,77.02c-0.15-0.93-0.65-1.39-1.48-1.39c-0.41,0-0.74,0.1-0.98,0.31c-0.24,0.21-0.36,0.47-0.36,0.77
	c0,0.28,0.11,0.51,0.32,0.7c0.21,0.19,0.52,0.28,0.93,0.28C101.43,77.69,101.96,77.47,102.48,77.02z"/>
<path class="st1" d="M104.54,78.6h0.97c0.06,0.34,0.22,0.62,0.49,0.82c0.27,0.21,0.63,0.31,1.08,0.31c0.45,0,0.81-0.1,1.09-0.32
	c0.28-0.21,0.41-0.48,0.41-0.81c0-0.35-0.13-0.62-0.4-0.8c-0.27-0.19-0.6-0.28-1-0.28c-0.6,0-1.1,0.21-1.51,0.62
	c-0.23-0.16-0.49-0.28-0.78-0.37l0.3-2.65h4.01v1.36h-0.94v-0.69h-2.3l-0.16,1.51c0.46-0.26,0.97-0.39,1.53-0.39
	c0.71,0,1.28,0.16,1.69,0.49c0.41,0.32,0.62,0.73,0.62,1.21c0,0.5-0.23,0.92-0.68,1.24c-0.45,0.32-1.08,0.48-1.9,0.48
	c-0.76,0-1.35-0.15-1.79-0.44C104.85,79.58,104.6,79.16,104.54,78.6z"/>
<path class="st2" d="M96.53,40.31c0,0-0.58,15.66,6.12,15.66c2.5,0,5.99-2.79,6.84-12.87c0.22,0,0.22,0,0.22,0v30.67l-0.58-1
	c0,0-0.89-11.08-6.43-11.08c-5.23,0.74-6.21,12.05-6.21,12.05l-0.49-0.92V41.09L96.53,40.31z"/>
<path class="st2" d="M105.78,49.95c0,1.83-1.32,3.31-2.95,3.31c-1.63,0-2.95-1.48-2.95-3.31c0-1.83,1.32-3.32,2.95-3.32
	C104.46,46.64,105.78,48.12,105.78,49.95z"/>
</svg>
