<?xml version="1.0" encoding="UTF-8" standalone="no"?>
<svg
   xmlns:dc="http://purl.org/dc/elements/1.1/"
   xmlns:cc="http://creativecommons.org/ns#"
   xmlns:rdf="http://www.w3.org/1999/02/22-rdf-syntax-ns#"
   xmlns:svg="http://www.w3.org/2000/svg"
   xmlns="http://www.w3.org/2000/svg"
   height="120"
   width="120"
   xml:space="preserve"
   viewBox="0 0 120 120"
   y="0px"
   x="0px"
   id="Layer_1"
   version="1.1"><metadata
   id="metadata1896"><rdf:RDF><cc:Work
       rdf:about=""><dc:format>image/svg+xml</dc:format><dc:type
         rdf:resource="http://purl.org/dc/dcmitype/StillImage" /><dc:title></dc:title></cc:Work></rdf:RDF></metadata><defs
   id="defs1894">
	
	
	
	
	
	
	
	
	
	
	
	
	
	
	
	
	
	
	
	
	
	
	
	
	
	
	
	
	
	
	
	
	
	
	
	
	
	
	
	
	
	
	
	
	
	
	
	
	
	
	
	
	
	
	
	
	
	
	
	
	
	
	
	
	
	
	
	
	
	
	
	
	
	
	
	
	
	
	
	
	
	
	
</defs>
<style
   id="style1721"
   type="text/css">
	.st0{fill:#23336A;}
</style>
<path
   style="stroke-width:0.47143"
   class="st0"
   d="m 74.174908,26.005813 c 0.664716,0.579859 1.390718,1.079576 2.088435,1.617007 1.140862,0.881574 2.291152,1.75372 3.441441,2.625866 0.947575,0.716573 1.909293,1.423719 2.856868,2.145008 0.900431,0.683573 1.791435,1.386004 2.691866,2.069578 0.749575,0.570431 1.513292,1.126718 2.26758,1.701864 1.122005,0.853289 2.23458,1.716006 3.351869,2.564579 0.957003,0.726004 1.923436,1.437863 2.885153,2.163866 0.895719,0.674145 1.786721,1.353005 2.67301,2.031864 0.04714,0.03772 0.08486,0.08957 0.122572,0.136715 0.05186,0.117862 0.132,0.216858 0.132,0.363002 -0.0047,3.054868 -0.0094,6.105022 0,9.15989 0,0.240429 -0.08486,0.292287 -0.306429,0.292287 -0.231001,0 -0.476144,-0.08015 -0.697717,0.05658 v 0 c -0.066,0 -0.132,-0.01415 -0.183858,0.04243 -0.372429,0.169716 -0.542145,0.447859 -0.495002,0.858003 0.01886,0.150858 0.01886,0.30643 0.0094,0.462002 -0.0094,0.169714 0.07543,0.207429 0.226287,0.202715 0.221572,-0.0094 0.443144,0 0.702431,0 -0.311144,0.282859 -0.744861,0.353572 -0.909861,0.744859 -0.07543,0.37243 -0.08015,0.744861 0.0047,1.112577 0.02828,0.08014 0.05185,0.160286 0.08015,0.240429 0,0.08957 0.04714,0.132 0.136715,0.127285 0.04243,0.01886 0.08957,0.04243 0.132001,0.06129 0.01415,0.0047 0.02828,0.0047 0.03772,0.0047 v 0 c 0.301716,0.108427 0.608144,0.08015 0.90986,0.01415 0.240429,-0.05185 0.353573,0.01886 0.348859,0.278143 -0.0094,0.485573 0,0.971147 0.0047,1.452005 l 0.0047,-0.0047 c -0.02357,0.01886 -0.04714,0.033 -0.07071,0.05185 -0.06129,0 -0.127287,0.0047 -0.188573,0.0047 -0.226287,0.05185 -0.490287,-0.117862 -0.693003,0.099 -0.165,0.0094 -0.330001,0.01886 -0.490287,0.02357 -0.641145,-0.01415 -1.272861,0.01415 -1.885721,0.221573 -0.749573,0.066 -1.489719,0.193287 -2.22515,0.334715 -1.18329,0.226287 -2.366581,0.447859 -3.535728,0.754289 -0.674145,0.179143 -1.353005,0.339429 -2.013006,0.546859 -0.77786,0.245144 -1.55572,0.490287 -2.324152,0.773146 -0.66943,0.245143 -1.334148,0.509145 -1.998865,0.768431 -0.759002,0.297001 -1.499148,0.650574 -2.234579,0.994717 -0.848574,0.400717 -1.673578,0.848575 -2.493866,1.305862 -0.683574,0.381859 -1.338862,0.80143 -1.998864,1.225718 -0.796717,0.513859 -1.574577,1.041861 -2.328865,1.607577 -1.716006,1.287006 -3.333013,2.687154 -4.836875,4.214588 -0.74486,0.754288 -1.466148,1.532148 -2.159151,2.33358 -0.754289,0.87686 -1.470862,1.791435 -2.154437,2.724867 -0.773144,1.05129 -1.494432,2.140293 -2.178006,3.248155 -0.603431,0.971146 -1.150291,1.975292 -1.678293,2.988867 -0.518572,0.994717 -0.999431,2.003578 -1.442576,3.026583 -0.301715,0.697717 -0.546859,1.423719 -0.829718,2.130864 -0.254572,0.631717 -0.447859,1.28229 -0.645859,1.932865 -0.06129,0.207428 -0.01886,0.282857 0.20743,0.268715 0.249858,-0.01415 0.499716,-0.0047 0.754288,-0.0047 11.663184,0 23.321654,0 34.98484,-0.0047 0.165,0 0.424287,0.099 0.485573,-0.07071 0.06129,-0.17443 -0.05658,-0.410145 -0.179143,-0.570431 -0.268716,-0.348858 -0.57986,-0.66943 -0.961719,-0.895717 -0.320572,-0.193286 -0.165,-0.452573 -0.146143,-0.688288 0.01886,-0.221573 0.221572,-0.146144 0.348859,-0.160287 0.829716,-0.07543 0.834432,-0.07543 1.235147,0.693003 0.334715,0.636431 0.660002,1.277576 0.994717,1.914006 0.066,0.122573 0.674146,0.396003 0.78729,0.348859 0.08957,-0.03772 0.09429,-0.132 0.117862,-0.207429 0.09429,-0.325287 0.108427,-0.650574 0.05185,-0.985289 -0.04243,-0.235715 -0.066,-0.47143 -0.09428,-0.707145 -0.01886,-0.165001 -0.06129,-0.30643 -0.174429,-0.447859 -0.278145,-0.348858 -0.264001,-0.749575 -0.14143,-1.169147 0.132001,-0.447859 0.480859,-0.796717 0.537431,-1.272862 0.07071,-0.546859 0.03301,-1.060718 -0.245144,-1.560434 -0.231,-0.414858 -0.63643,-0.532716 -1.032432,-0.660003 -0.363001,-0.117862 -0.735431,-0.212143 -1.107861,-0.311144 -0.311144,-0.08486 -0.391287,-0.235715 -0.249858,-0.513858 0.282858,-0.556288 0.782574,-0.895718 1.320004,-1.164433 0.216859,-0.108427 0.443145,0.132001 0.655289,0.212144 0.683573,0.268715 1.34829,0.579859 2.031865,0.853289 0.193286,0.08014 0.278143,0.169714 0.278143,0.377143 -0.0047,2.550438 -0.0047,5.100876 0,7.651313 0,0.202716 -0.06129,0.268716 -0.268715,0.264002 -0.782574,-0.0094 -1.565148,-0.0047 -2.352437,-0.0047 -14.963197,0 -29.926393,0 -44.889591,0 -0.136714,0 -0.273429,-0.0094 -0.40543,0 -0.160287,0.0094 -0.235715,-0.04714 -0.216858,-0.212144 0.0047,-0.05185 0,-0.103715 0,-0.155572 0,-16.038058 0,-32.076115 0,-48.109458 0,-0.688289 0.0047,-0.67886 0.570431,-1.032432 1.04186,-0.645861 2.074294,-1.310577 3.116156,-1.956436 1.155004,-0.716575 2.314721,-1.419005 3.465011,-2.140294 1.211577,-0.759002 2.413723,-1.532148 3.620584,-2.295865 0.872146,-0.546859 1.749007,-1.089004 2.621153,-1.635863 1.051289,-0.660002 2.116722,-1.305862 3.158583,-1.984721 1.00886,-0.655289 2.055436,-1.258719 3.07844,-1.895149 0.891003,-0.556289 1.767863,-1.131434 2.658866,-1.692435 1.013576,-0.636431 2.031865,-1.263433 3.050154,-1.89515 0.01886,-0.0094 0.02828,-0.02829 0.04243,-0.04243 0.05658,0.02829 0.117862,0.02829 0.183859,0.02829 z M 52.922831,84.661166 v 0 c -0.03301,-0.01886 -0.06129,-0.03772 -0.08957,-0.05185 -0.391287,-0.07543 -0.744859,-0.249858 -1.103146,-0.410144 -0.33943,-0.150858 -0.627003,-0.099 -0.881575,0.165 -0.287573,0.301716 -0.433718,0.674146 -0.54686,1.056003 -0.099,0.339431 0.05657,0.726004 0.325288,0.862719 0.193286,0.099 0.386573,0.188571 0.594001,0.264 0.523288,0.193286 1.037148,0.40543 1.546291,0.631717 0.551574,0.245143 1.051291,0.07071 1.334148,-0.452573 0.136715,-0.249858 0.20743,-0.513859 0.278144,-0.782575 0.08015,-0.311144 -0.05185,-0.63643 -0.330001,-0.782574 -0.183858,-0.09428 -0.377144,-0.169715 -0.565717,-0.254572 -0.033,-0.02357 -0.066,-0.04243 -0.099,-0.066 l -0.02357,-0.0047 v -0.02357 c -0.08957,-0.113139 -0.221571,-0.08486 -0.339429,-0.099 l -0.02357,0.0047 -0.01415,-0.01886 c -0.02357,-0.0094 -0.04243,-0.02357 -0.06129,-0.03772 z M 63.44987,69.858257 c -0.02357,-0.01886 -0.04243,-0.04243 -0.066,-0.06129 -0.02828,-0.02357 -0.05658,-0.04714 -0.08015,-0.066 -0.066,-0.03772 -0.04243,-0.212143 -0.193287,-0.127286 -0.353572,-0.311144 -0.697717,-0.63643 -1.070147,-0.919289 -0.221571,-0.169715 -0.476144,-0.264 -0.787288,-0.117862 -0.391287,0.183858 -0.674145,0.476145 -0.895717,0.825003 -0.377145,0.589288 -0.165001,0.862717 0.202714,1.178575 0.556289,0.47143 1.112576,0.942861 1.678292,1.400148 0.221573,0.179143 0.499716,0.301716 0.782575,0.165001 0.363001,-0.179144 0.669431,-0.443144 0.895717,-0.787289 0.27343,-0.419572 0.287572,-0.759003 0.03772,-1.056003 -0.122572,-0.146144 -0.287572,-0.259287 -0.433716,-0.386573 -0.02828,-0.01415 -0.04714,-0.02828 -0.07071,-0.04714 z m -5.275306,5.605305 0.0047,0.0047 c -0.02357,-0.02357 -0.04714,-0.04714 -0.07071,-0.066 l 0.0047,0.0094 c -0.02357,-0.07543 -0.08957,-0.07543 -0.150857,-0.07543 -0.297002,-0.179143 -0.598717,-0.358287 -0.895719,-0.542145 -0.287571,-0.179143 -0.542143,-0.160286 -0.83443,0.01415 -0.268715,0.160286 -0.424287,0.396001 -0.570431,0.636431 -0.447859,0.744859 -0.348859,1.056003 0.396002,1.503862 0.537429,0.320572 1.07486,0.650573 1.598148,0.999432 0.367716,0.245144 0.768431,0.235715 1.112575,-0.04714 0.287573,-0.240429 0.457287,-0.556288 0.617574,-0.87686 0.193287,-0.386573 0.03772,-0.782574 -0.33943,-0.999433 -0.193287,-0.113139 -0.400715,-0.212143 -0.556287,-0.386572 -0.04714,-0.066 -0.117862,-0.05185 -0.188573,-0.05185 -0.04243,-0.0047 -0.06129,-0.02357 -0.06129,-0.066 -0.01886,-0.01886 -0.04243,-0.03772 -0.066,-0.05657 z M 83.245226,56.441351 c 0.03301,-0.113139 0.01415,-0.202716 -0.09428,-0.264001 -0.07071,-0.202715 -0.155572,-0.400715 -0.216857,-0.608145 -0.07543,-0.240429 -0.226287,-0.396001 -0.476144,-0.433716 -0.476146,-0.07071 -0.938148,-0.0094 -1.35772,0.226286 -0.485573,0.27343 -0.594002,0.51386 -0.43843,1.041862 0.216857,0.740145 0.457287,1.470863 0.693002,2.206293 0.05658,0.174429 0.188573,0.292287 0.358287,0.353573 0.466716,0.179144 1.565149,-0.02828 1.923436,-0.617573 0.216857,-0.160286 0.188572,-0.325288 0.01415,-0.499717 -0.0047,-0.05185 -0.01415,-0.099 -0.01886,-0.150858 0.04243,-0.438429 -0.339429,-0.773145 -0.292287,-1.216289 0,-0.01415 -0.066,-0.03772 -0.103715,-0.05185 z m -12.205329,6.227594 -0.0094,-0.0094 c -0.282857,-0.297002 -0.523287,-0.627004 -0.759002,-0.961719 -0.193287,-0.273429 -0.476144,-0.386573 -0.81086,-0.334715 -0.400716,0.06129 -0.693003,0.301715 -0.985289,0.542145 -0.433716,0.358286 -0.480859,0.87686 -0.113139,1.296432 0.452573,0.518574 0.867432,1.065433 1.277577,1.617006 0.179143,0.240429 0.424287,0.405429 0.711858,0.363001 0.617574,-0.09429 1.08429,-0.443144 1.404864,-0.97586 0.108427,-0.183857 0.113138,-0.377143 -0.0094,-0.556288 -0.165,-0.245143 -0.344144,-0.480858 -0.518573,-0.721288 -0.01415,-0.08486 -0.06129,-0.146143 -0.150857,-0.165 -0.0094,-0.02828 -0.02357,-0.06129 -0.03772,-0.09429 z m 15.415769,-4.742589 c 0.103715,-0.01886 0.231001,-0.03772 0.353572,-0.06129 0.429002,-0.07543 0.433717,-0.103715 0.325287,-0.528002 -0.292286,-1.159719 -0.584573,-2.324151 -0.843859,-3.493298 -0.160288,-0.711859 -0.127287,-0.697716 -0.834432,-0.53743 -0.287573,0.066 -0.358288,0.169714 -0.278145,0.429001 0.05658,0.17443 0.169715,0.405431 0.103716,0.528002 -0.07543,0.141429 -0.344145,0.01415 -0.518574,0.07543 -0.02828,0.0094 -0.06129,0.0047 -0.09429,0.01886 -0.523288,0.207429 -0.697717,0.410145 -0.570431,0.853289 0.17443,0.608145 0.320572,1.21629 0.443145,1.838578 0.05658,0.292286 0.122572,0.598716 0.264,0.853289 0.179145,0.320572 0.924004,0.358286 1.320005,0.108427 0.09429,-0.05658 0.179144,-0.150858 0.330002,-0.08486 z m 3.281155,-4.49273 c -0.202716,0.04243 -0.405431,0.099 -0.608145,0.127286 -0.136716,0.02357 -0.174429,0.08957 -0.150858,0.212144 0.05185,0.306429 0.08015,0.612859 0.146143,0.919289 0.132,0.636431 0.221573,1.28229 0.325287,1.923435 0.01415,0.08486 0.0094,0.169716 -0.099,0.198001 -0.113139,0.03301 -0.183858,-0.01886 -0.221572,-0.117862 -0.02828,-0.07543 -0.04714,-0.160286 -0.06129,-0.240429 -0.113138,-0.716575 -0.212143,-1.433149 -0.339429,-2.145009 -0.150858,-0.84386 -0.066,-0.688288 -0.872146,-0.551573 -0.240429,0.04243 -0.268716,0.146144 -0.231001,0.358286 0.160286,0.905147 0.358288,1.805579 0.443145,2.720153 0.05185,0.532717 0.50443,0.815575 0.97586,0.660003 0.429002,-0.141429 0.881574,-0.202715 1.329433,-0.249858 0.212144,-0.02357 0.216859,-0.108428 0.198002,-0.278144 -0.03301,-0.301715 -0.132001,-0.584573 -0.169715,-0.881574 -0.099,-0.787289 -0.297001,-1.565149 -0.363002,-2.357151 -0.0094,-0.17443 -0.05185,-0.348859 -0.301715,-0.297002 z M 66.844167,68.311964 c -0.03772,-0.03772 -0.07071,-0.06129 -0.099,-0.08486 -0.730717,-0.697717 -1.470863,-1.386006 -2.182722,-2.097865 -0.433717,-0.433717 -0.839146,-0.348859 -1.159719,0.05185 -0.273429,0.33943 -0.631716,0.570431 -0.914575,0.891003 -0.150858,0.174429 -0.155572,0.264001 0.01886,0.424287 0.716574,0.664717 1.428434,1.33415 2.121436,2.022438 0.466716,0.462001 0.452573,0.476145 0.938146,0.01886 0.02357,-0.01886 0.05185,-0.03772 0.07543,-0.05658 0.188572,-0.150858 0.183858,-0.264001 -0.0047,-0.43843 -0.664716,-0.617574 -1.305861,-1.263434 -1.96115,-1.890437 -0.08015,-0.08015 -0.216858,-0.146143 -0.09429,-0.264001 0.108427,-0.108427 0.235715,-0.04714 0.330001,0.04714 0.631717,0.622288 1.263433,1.24929 1.89515,1.87158 0.160286,0.160287 0.325286,0.292287 0.528002,0.02357 0.113139,-0.150858 0.268716,-0.278145 0.40543,-0.414861 0.03299,-0.03772 0.06129,-0.06129 0.103716,-0.103716 z m 9.777464,-11.149325 c -0.24043,0 -0.457288,0.01415 -0.589289,0.132001 -0.344143,0.315858 -0.806145,0.386573 -1.188004,0.612859 -0.132001,0.07543 -0.179143,0.113138 -0.08957,0.273429 0.561003,1.041862 1.112576,2.088437 1.659435,3.135011 0.04714,0.08957 0.09429,0.132001 0.188572,0.08015 0.245143,-0.132001 0.490287,-0.259288 0.740146,-0.391288 0.06129,-0.03301 0.08957,-0.06129 0.04243,-0.141429 -0.462002,-0.834432 -0.914575,-1.668864 -1.371863,-2.503294 -0.06129,-0.113139 -0.146142,-0.231001 0,-0.325287 0.146144,-0.09428 0.235715,0.033 0.292287,0.136714 0.179145,0.320572 0.339431,0.655289 0.51386,0.975861 0.268715,0.495001 0.546859,0.990004 0.810859,1.485005 0.04714,0.08957 0.08486,0.183858 0.202716,0.127287 0.249858,-0.122572 0.495001,-0.249859 0.735431,-0.386573 0.08015,-0.04243 0.04243,-0.127287 0.0047,-0.193287 -0.443145,-0.820288 -0.872146,-1.650006 -1.334148,-2.460865 -0.136715,-0.254574 -0.221572,-0.636431 -0.617573,-0.55629 z M 93.75812,54.216201 c -0.0094,-0.103716 -0.02828,-0.20743 -0.02357,-0.311144 0.02357,-0.462002 -0.344143,-0.730718 -0.735432,-0.759003 -0.334715,-0.02357 -0.66943,-0.0094 -0.999431,0.05658 -0.495001,0.099 -0.773146,0.452574 -0.693003,0.938148 0.113138,0.707145 0.136715,1.423719 0.212144,2.130864 0.04714,0.452572 0.301715,0.707146 0.763717,0.744859 0.292287,0.02357 0.584574,0.01415 0.872145,-0.03301 0.570432,-0.099 0.872147,-0.396002 0.796718,-0.994718 -0.103716,-0.829717 -0.07542,-0.825003 -0.90986,-0.735431 -0.188572,0.01886 -0.221573,0.09428 -0.202716,0.259286 0.02828,0.226287 0.03301,0.452573 0.04714,0.683574 0.0047,0.108427 -0.0047,0.231001 -0.132001,0.245144 -0.132001,0.0094 -0.150858,-0.113139 -0.160286,-0.221573 -0.04243,-0.433716 -0.08015,-0.862717 -0.155572,-1.291718 -0.05185,-0.292287 -0.05185,-0.598717 -0.07543,-0.895718 -0.0094,-0.117862 -0.01415,-0.249858 0.141429,-0.254572 0.132,-0.0047 0.160286,0.108427 0.165,0.221572 0.0047,0.103715 0.0094,0.207429 0.02357,0.311144 0.05657,0.523287 0.05657,0.528001 0.575144,0.490288 0.674146,-0.05185 0.518574,0.01886 0.490287,-0.584573 z M 67.593741,67.336103 c 0.504431,0.0047 0.806146,-0.320573 1.122004,-0.594002 0.216857,-0.183858 0.358287,-0.433716 0.377145,-0.721289 0.01415,-0.202714 -0.631718,-1.122002 -0.815575,-1.10786 -0.245144,0.01886 -0.396002,0.259285 -0.584573,0.405429 -0.01415,0.01415 -0.03772,0.01886 -0.05186,0.03301 -0.113139,0.117862 -0.165,0.226285 -0.0047,0.363 0.155572,0.132001 0.282858,0.297002 0.410145,0.452574 0.05657,0.07071 0.193286,0.146143 0.066,0.254572 -0.122571,0.103716 -0.231001,0.03299 -0.325286,-0.066 -0.198002,-0.207429 -0.391288,-0.419572 -0.584575,-0.631716 -0.301714,-0.330001 -0.608144,-0.660003 -0.905145,-0.999431 -0.07071,-0.08014 -0.155572,-0.202715 -0.02828,-0.301716 0.122573,-0.09429 0.202716,-0.0047 0.282859,0.09428 0.122572,0.150858 0.259286,0.287572 0.386573,0.433715 0.136715,0.150857 0.278144,0.197999 0.443145,0.03772 0.127285,-0.117862 0.254572,-0.240429 0.396001,-0.348858 0.127286,-0.099 0.132,-0.179144 0.02357,-0.301715 -0.193287,-0.226287 -0.400715,-0.438431 -0.617573,-0.641145 -0.202716,-0.188573 -0.443145,-0.245145 -0.693003,-0.136715 -0.424287,0.179143 -0.773146,0.457287 -1.056003,0.820288 -0.20743,0.268716 -0.202716,0.678859 0.02828,0.938145 0.532716,0.598717 1.065433,1.197433 1.617006,1.782007 0.165001,0.179143 0.33943,0.226286 0.51386,0.235715 z m -9.947179,12.238331 c -0.01886,-0.20743 -0.03299,-0.353572 -0.169714,-0.490287 -0.278145,-0.278145 -0.636431,-0.40543 -0.961718,-0.598717 -0.06129,-0.03772 -0.132001,-0.03772 -0.165,0.02357 -0.155572,0.249858 -0.377145,0.495003 -0.419574,0.768432 -0.02357,0.132 0.339431,0.235715 0.537431,0.339429 0.06129,0.03301 0.108427,0.099 0.174429,0.127287 0.117863,0.04714 0.226286,0.113139 0.150857,0.249858 -0.07543,0.136715 -0.198,0.07543 -0.301715,0.01886 -0.66943,-0.367715 -1.334148,-0.730717 -1.998864,-1.103146 -0.09429,-0.05186 -0.188573,-0.108427 -0.09429,-0.24043 0.08486,-0.113139 0.155572,-0.127286 0.282858,-0.03772 0.202715,0.136716 0.429002,0.245144 0.645859,0.367715 0.06129,0.03301 0.122572,0.108427 0.183859,0.01415 0.146143,-0.235715 0.325286,-0.457287 0.410144,-0.726002 0.03301,-0.108427 -0.04243,-0.174429 -0.127287,-0.216858 -0.259286,-0.132 -0.509144,-0.282858 -0.773145,-0.396002 -0.183858,-0.08014 -0.363001,-0.066 -0.561003,0.03301 -0.429001,0.20743 -0.612858,0.603431 -0.787288,0.990004 -0.212143,0.457287 -0.08015,0.895717 0.27343,1.08429 0.674146,0.363 1.343576,0.726002 2.003578,1.107861 0.292287,0.169714 0.636432,0.212143 0.924004,-0.0047 0.429002,-0.334716 0.655288,-0.815575 0.773145,-1.310576 z m -2.861581,3.450869 c 0.01415,-0.02357 0.02828,-0.04714 0.03772,-0.07071 0.216858,0.02357 0.433716,0.03772 0.650575,0.07071 0.207428,0.03301 0.353572,0.02357 0.424286,-0.226286 0.05185,-0.183858 0.155572,-0.363001 0.27343,-0.518573 0.146144,-0.198001 0.05185,-0.216858 -0.127286,-0.226287 -0.594003,-0.02828 -1.188004,-0.05185 -1.777292,-0.141429 -0.155572,-0.02357 -0.27343,-0.07543 -0.381858,-0.183857 -0.259287,-0.264002 -0.509145,-0.542145 -0.792004,-0.77786 -0.155572,-0.127287 -0.268715,-0.433717 -0.462002,-0.353573 -0.155572,0.066 -0.221571,0.348857 -0.33,0.532716 -0.103715,0.174429 -0.07071,0.311144 0.103716,0.419572 0.179143,0.113139 0.339429,0.249858 0.476144,0.438431 -0.254572,0.04243 -0.462001,-0.03301 -0.674145,-0.08015 -0.127286,-0.02828 -0.259286,-0.04714 -0.330001,0.09429 -0.108427,0.207428 -0.20743,0.424287 -0.311144,0.63643 -0.07071,0.136714 -0.04714,0.183858 0.122572,0.212143 0.528003,0.08957 1.060718,0.05185 1.593434,0.108427 0.136715,0.01415 0.235715,0.04243 0.344144,0.160286 0.396001,0.443145 0.825003,0.858003 1.235147,1.287005 0.117862,0.122573 0.188573,0.150858 0.259286,-0.03772 0.066,-0.169714 0.155572,-0.334715 0.245145,-0.499715 0.08957,-0.160287 0.07071,-0.282859 -0.08015,-0.400716 -0.179143,-0.132001 -0.334715,-0.292287 -0.499716,-0.443145 z m 3.578155,-12.657902 c -0.04243,0.03772 -0.09429,0.07071 -0.132,0.117863 -0.127286,0.150858 -0.235715,0.320572 -0.381858,0.447858 -0.188573,0.165 -0.08015,0.259287 0.04714,0.358287 0.268715,0.202716 0.551573,0.386573 0.820288,0.589287 0.900433,0.67886 1.796151,1.362435 2.691868,2.050723 0.08486,0.066 0.165,0.108427 0.240429,0.02357 0.160286,-0.188573 0.311144,-0.381859 0.462002,-0.575145 0.08015,-0.099 0.07543,-0.169715 -0.03772,-0.254573 -1.070147,-0.768431 -2.121436,-1.569862 -3.158584,-2.380722 -0.165,-0.136715 -0.353572,-0.245145 -0.551572,-0.377144 z m 2.526867,4.521016 c -0.0094,-0.127285 -0.09429,-0.174429 -0.169716,-0.231001 -0.598715,-0.419572 -1.192718,-0.84386 -1.791434,-1.258718 -0.584574,-0.40543 -1.173861,-0.801432 -1.753721,-1.211577 -0.146143,-0.099 -0.249858,-0.07071 -0.344144,0.04714 -0.113139,0.146142 -0.207429,0.306428 -0.320572,0.447858 -0.132001,0.165 -0.066,0.282858 0.08015,0.381858 1.206862,0.787289 2.376008,1.631149 3.549869,2.465581 0.066,0.04714 0.136716,0.099 0.226287,0.06129 0.08015,-0.03301 0.523288,-0.64586 0.523288,-0.702431 z m 14.70391,-13.00676 c -0.165001,-0.287573 -0.315858,-0.556288 -0.476145,-0.815575 -0.400715,-0.64586 -0.806146,-1.28229 -1.211576,-1.923435 -0.259286,-0.41486 -0.320572,-0.636431 -0.792003,-0.221573 -0.02357,0.01886 -0.05185,0.02828 -0.08015,0.04243 -0.367716,0.160286 -0.363001,0.179144 -0.150858,0.518573 0.358287,0.565716 0.697717,1.140861 1.046575,1.711292 0.231001,0.377145 0.509144,0.721288 0.697717,1.126718 0.05658,0.117862 0.169715,0.08957 0.240429,0.03301 0.231001,-0.183858 0.556288,-0.221573 0.726003,-0.47143 z m -2.998297,-2.918154 c 0.04243,-0.0094 0.066,-0.0094 0.08486,-0.01886 0.240429,-0.14143 0.476146,-0.282859 0.711861,-0.429001 0.08486,-0.05185 0.05657,-0.117863 0.01886,-0.183859 -0.264001,-0.476144 -0.264001,-0.476144 -0.759003,-0.216858 -0.08015,0.04243 -0.155572,0.099 -0.235716,0.146143 -0.08015,0.04714 -0.216858,0.04714 -0.146143,0.20743 0.08957,0.188572 0.20743,0.348858 0.325288,0.495002 z"
   id="path1723" /><path
   style="stroke-width:0.47143"
   class="st0"
   d="m 9.7775281,83.916306 c 0.3960009,-0.0047 0.7920029,0 1.1880039,-0.02357 0.226287,-0.01415 0.27343,0.07071 0.27343,0.282858 -0.0094,1.428434 -0.0047,2.861583 -0.0047,4.290016 0,0.414858 -0.0094,0.829718 0.0047,1.244576 0.0047,0.150858 -0.04714,0.381859 0.198,0.386573 0.249858,0.0047 0.20743,-0.226287 0.20743,-0.377145 0.0094,-1.140861 0.0094,-2.281722 0.0094,-3.417869 0,-0.716574 0.0094,-1.428434 -0.0047,-2.145008 -0.0047,-0.207429 0.06129,-0.268715 0.268716,-0.259287 0.325287,0.01415 0.645859,0.01415 0.971146,0 0.183858,-0.0047 0.259287,0.04714 0.259287,0.245145 -0.0047,1.711292 0.0094,3.417868 -0.01415,5.12916 -0.0047,0.433717 0.0047,0.881576 -0.245144,1.29172 -0.216858,0.353572 -0.466716,0.622288 -0.876861,0.716574 -0.05186,0.01415 -0.099,0.033 -0.09428,0.099 -0.249858,0 -0.499716,0 -0.754289,0 -0.282857,-0.165001 -0.612858,-0.212144 -0.872146,-0.452574 -0.264,-0.245143 -0.3535719,-0.561001 -0.5091439,-0.853288 -0.00471,-2.050722 -0.00471,-4.101443 -0.00471,-6.15688 z"
   id="path1725" /><path
   style="stroke-width:0.47143"
   class="st0"
   d="m 31.472748,91.383762 c -0.01886,-0.155572 -0.160286,-0.099 -0.245143,-0.136715 -0.443144,-0.202714 -0.801432,-0.466716 -0.895717,-0.990003 -0.08957,-0.48086 -0.14143,-0.961718 -0.136715,-1.452006 0,-0.169714 0.04243,-0.245143 0.226286,-0.235715 0.301716,0.01415 0.608145,0.01415 0.909861,0 0.188572,-0.0094 0.259286,0.05185 0.254572,0.245144 -0.0094,0.301715 0,0.603431 0.0047,0.900432 0.0047,0.179143 0.03301,0.386573 0.268716,0.381859 0.226287,0 0.254572,-0.202716 0.282859,-0.381859 0.122571,-0.702431 -0.188573,-1.206862 -0.735432,-1.612292 -0.198,-0.146143 -0.377145,-0.315858 -0.561002,-0.476144 -0.315858,-0.273429 -0.509144,-0.61286 -0.594003,-1.023004 -0.150856,-0.74486 -0.146142,-1.480291 0.160288,-2.19215 0.103715,-0.245144 0.339429,-0.381859 0.565716,-0.504431 0.63643,-0.348858 1.772577,-0.117862 2.201579,0.447859 0.226287,0.301715 0.240429,0.67886 0.264001,1.037146 0.04714,0.730718 0.03772,0.730718 -0.688289,0.730718 -0.711859,0 -0.707145,0 -0.730716,-0.702432 -0.0047,-0.165 0.04243,-0.414859 -0.202716,-0.410145 -0.221571,0.0047 -0.240429,0.235715 -0.268715,0.429002 -0.099,0.641145 0.311144,0.98529 0.763718,1.296434 0.853288,0.594002 1.320004,1.371862 1.244576,2.437294 -0.02357,0.33943 0,0.683573 -0.05658,1.023004 -0.08486,0.551573 -0.447858,0.853289 -0.933431,1.051289 -0.08015,0.03301 -0.198001,0.0047 -0.216858,0.132001 -0.297002,0.0047 -0.589289,0.0047 -0.881576,0.0047 z"
   id="path1727" /><path
   style="stroke-width:0.47143"
   class="st0"
   d="m 15.594977,72.724552 c -0.04243,0.612859 -0.06129,1.192719 -0.122571,1.767864 -0.216858,2.130864 -0.315858,4.275873 -0.561002,6.406737 -0.02828,0.259286 -0.05186,0.518574 -0.05658,0.773146 -0.0047,0.183857 -0.06129,0.254572 -0.254572,0.249858 -1.074861,-0.0094 -2.154437,-0.0094 -3.229297,0 -0.226287,0 -0.282859,-0.09429 -0.292287,-0.297002 -0.04714,-0.933432 -0.08957,-1.862149 -0.160286,-2.79558 -0.150858,-1.994151 -0.282859,-3.9883 -0.438431,-5.977737 -0.08486,-1.084289 -0.127285,-2.168579 -0.216857,-3.252869 -0.169716,-2.083722 -0.320573,-4.172158 -0.4525734,-6.260594 -0.014143,-0.221572 0.028286,-0.287571 0.2545724,-0.287571 0.806145,0.0094 1.607577,0.01415 2.413723,0 0.221572,-0.0047 0.254572,0.08015 0.259286,0.268714 0.04714,1.437862 0.066,2.880438 0.169715,4.3183 0.103716,1.447293 0.099,2.899297 0.202715,4.346589 0.06129,0.858003 0.103715,1.716006 0.132001,2.574009 0,0.05658 -0.01886,0.127287 0.08957,0.169715 0.08015,-0.160286 0.05658,-0.330001 0.066,-0.495002 0.05658,-1.221004 0.08014,-2.446723 0.160286,-3.663013 0.127287,-1.942293 0.273429,-3.884587 0.438431,-5.822164 0.03772,-0.476145 0.113138,-0.947575 0.122571,-1.423719 0.0047,-0.221573 0.099,-0.268715 0.30643,-0.268715 0.848575,0.0094 1.692435,0.01415 2.54101,0 0.226285,-0.0047 0.301714,0.04714 0.311144,0.287572 0.04243,1.11729 0.08486,2.234578 0.165,3.351868 0.08014,1.145576 0.05657,2.300581 0.155572,3.446156 0.155572,1.819722 0.127286,3.644156 0.268715,5.459163 0.0047,0.03772 0.0094,0.08015 0.066,0.117863 0.02357,-0.721289 0.03772,-1.442577 0.08015,-2.163865 0.155572,-2.592867 0.315859,-5.190449 0.480859,-7.783316 0.05186,-0.825001 0.136715,-1.650004 0.198001,-2.475007 0.01415,-0.165 0.06129,-0.235715 0.24043,-0.235715 0.825002,0.0094 1.650005,0.0094 2.475009,0 0.188572,0 0.235715,0.066 0.221571,0.235715 -0.132,1.77729 -0.264,3.549869 -0.391287,5.327162 -0.01886,0.259286 -0.02828,0.518573 -0.04714,0.77786 -0.113138,1.734863 -0.216858,3.474441 -0.348858,5.209304 -0.146144,1.942293 -0.301716,3.879871 -0.41486,5.826878 -0.02357,0.424287 -0.113138,0.843861 -0.113138,1.268147 0,0.183858 -0.08486,0.226287 -0.254573,0.226287 -1.089004,-0.0047 -2.173293,-0.0047 -3.262297,-0.0047 -0.150858,0 -0.216858,-0.03772 -0.240429,-0.207429 -0.136716,-1.183291 -0.273431,-2.361865 -0.391289,-3.54987 -0.174429,-1.744292 -0.292286,-3.488584 -0.438429,-5.232876 -0.01415,-0.06129 -0.0047,-0.132 -0.132001,-0.212143 z m -2.267579,2.253437 c 0,-0.0094 0.0047,-0.01886 0.0047,-0.02828 -0.01415,-0.02828 -0.02357,-0.02357 -0.033,0.0094 0,0.0094 0.0047,0.01886 0.0094,0.02828 0.0047,-0.0047 0.0094,-0.0094 0.01886,-0.0094 z"
   id="path1729" /><path
   style="stroke-width:0.47143"
   class="st0"
   d="m 21.586856,43.194161 c 0.513858,0 1.023004,0.0094 1.536863,-0.0047 0.193286,-0.0047 0.273429,0.05185 0.311144,0.249858 0.235715,1.291719 0.495002,2.574009 0.721288,3.870443 0.20743,1.178575 0.457288,2.352436 0.664716,3.531012 0.212144,1.197433 0.466716,2.390152 0.67886,3.592299 0.146144,0.84386 0.315858,1.687719 0.47143,2.53158 0.235716,1.301148 0.50443,2.592866 0.763718,3.8893 0.04243,0.212144 0.02828,0.320572 -0.245144,0.315858 -0.900432,-0.01415 -1.796149,-0.0094 -2.696582,-0.0047 -0.212142,0 -0.301715,-0.08015 -0.33,-0.278144 -0.136716,-1.056004 -0.429003,-2.083722 -0.608146,-3.135011 -0.08015,-0.47143 -0.155572,-0.957004 -0.301715,-1.42372 -0.04714,-0.141428 -0.099,-0.207429 -0.254572,-0.202714 -0.377145,0.0094 -0.754288,0.0094 -1.126718,0 -0.150858,-0.0047 -0.216858,0.03772 -0.235715,0.202714 -0.09428,0.876861 -0.165001,1.753721 -0.311144,2.621153 -0.113139,0.664717 -0.117863,1.338862 -0.27343,1.994149 -0.03772,0.160288 -0.08957,0.221573 -0.264001,0.216858 -0.919289,-0.0094 -1.838578,-0.0094 -2.757867,0 -0.198001,0 -0.235715,-0.07543 -0.198001,-0.245143 0.198001,-0.971146 0.297001,-1.96115 0.443145,-2.941724 0.165,-1.103148 0.30643,-2.211009 0.490287,-3.314156 0.169715,-1.018289 0.30643,-2.046007 0.457288,-3.06901 0.226286,-1.532149 0.466716,-3.064297 0.683574,-4.60116 0.169714,-1.197433 0.367715,-2.390152 0.551573,-3.58287 0.02357,-0.169715 0.103715,-0.221573 0.268715,-0.216857 0.513859,0.01415 1.037146,0.0094 1.560434,0.0047 z m 0.07071,6.609452 c -0.01415,0.03299 -0.02828,0.05185 -0.033,0.07071 -0.122572,1.126719 -0.240429,2.258151 -0.419574,3.380156 -0.02357,0.155572 0.03301,0.202714 0.183859,0.198 0.188572,-0.0094 0.377144,0 0.561002,0 0.462001,0 0.443145,0 0.381858,-0.443144 -0.136715,-0.999432 -0.410144,-1.975293 -0.561001,-2.974724 -0.0094,-0.08486 0.0094,-0.179145 -0.113139,-0.231001 z"
   id="path1731" /><path
   style="stroke-width:0.47143"
   class="st0"
   d="m 29.884029,75.232562 c 0.353573,0 0.711859,0 1.065432,0 0.433716,0 0.433716,0 0.433716,0.414858 0.0094,1.004147 -0.03772,2.013008 0.08957,3.012439 0.04714,0.381859 0.193286,0.504431 0.518574,0.476144 0.249858,-0.02357 0.348858,-0.216857 0.410144,-0.410144 0.169715,-0.561001 0.179143,-1.145576 0.146143,-1.725434 -0.01415,-0.226287 -0.07071,-0.452574 -0.07542,-0.67886 -0.02357,-0.669431 -0.40543,-1.140861 -0.829718,-1.607577 -0.735431,-0.810861 -1.55572,-1.541577 -2.244007,-2.39958 -0.410145,-0.51386 -0.645861,-1.103147 -0.796718,-1.720721 -0.353573,-1.437862 -0.287572,-2.899297 -0.146144,-4.356017 0.07071,-0.730716 0.259287,-1.442575 0.721289,-2.041291 0.608144,-0.792003 1.423719,-1.178576 2.43258,-1.211576 1.164433,-0.03772 2.16858,0.287572 2.927582,1.197433 0.27343,0.325287 0.457287,0.711859 0.546859,1.126717 0.254573,1.140861 0.231001,2.305294 0.231001,3.465014 0,0.146143 -0.04714,0.207428 -0.198,0.202714 -0.848575,-0.0047 -1.692435,-0.0047 -2.54101,0 -0.202714,0 -0.212144,-0.108427 -0.212144,-0.254572 0.0047,-0.485574 0,-0.975861 0,-1.461435 0,-0.301716 -0.03772,-0.598716 -0.136714,-0.886289 -0.05185,-0.146143 -0.136715,-0.249858 -0.315858,-0.245143 -0.165001,0.0047 -0.315858,0.04243 -0.377145,0.216858 -0.066,0.183857 -0.160286,0.367715 -0.183857,0.556287 -0.08486,0.749574 -0.08486,1.499148 0.207429,2.206295 0.183858,0.447859 0.584574,0.759003 0.938146,1.079575 0.763717,0.697717 1.499148,1.428434 2.097865,2.26758 0.344143,0.485573 0.603431,1.032432 0.711859,1.631149 0.259288,1.423719 0.320573,2.866295 0.216858,4.304158 -0.04714,0.674146 -0.09428,1.357719 -0.391287,1.998864 -0.292287,0.627002 -0.749574,1.089004 -1.329433,1.447291 -0.759003,0.471431 -1.593435,0.556288 -2.442009,0.396002 -1.065432,-0.202716 -1.852721,-0.81086 -2.347722,-1.786721 -0.48086,-0.947575 -0.476146,-1.980007 -0.561003,-2.993582 -0.05186,-0.641145 -0.01415,-1.282291 -0.033,-1.92815 -0.0094,-0.235715 0.07543,-0.30643 0.30643,-0.297001 0.386573,0.01415 0.773146,0.0047 1.159719,0.0047 z"
   id="path1733" /><path
   style="stroke-width:0.47143"
   class="st0"
   d="m 34.489902,56.158492 c -0.02828,0.82029 -0.0047,1.687721 -0.221572,2.545724 -0.198,0.801431 -0.645859,1.409577 -1.329433,1.843293 -1.159719,0.726002 -2.399581,0.730717 -3.606442,0.174429 -0.67886,-0.315858 -1.188004,-0.872146 -1.485005,-1.593435 -0.40543,-0.985289 -0.414858,-2.013006 -0.447859,-3.04544 -0.01415,-0.485572 0.0047,-0.97586 -0.0047,-1.461433 -0.0047,-0.188571 0.02828,-0.278144 0.254572,-0.27343 0.815574,0.01415 1.631149,0.0094 2.446722,0 0.188573,0 0.249858,0.05658 0.249858,0.245145 -0.0047,0.848574 0,1.701862 0.0094,2.550437 0.0047,0.254572 -0.01415,0.528002 0.146142,0.749575 0.231001,0.320572 0.61286,0.268714 0.796718,-0.08486 0.103715,-0.20743 0.183858,-0.414858 0.183858,-0.650573 -0.0047,-0.711861 0.05657,-1.42372 -0.127287,-2.130866 -0.132,-0.509144 -0.490287,-0.84386 -0.820288,-1.202147 -0.645859,-0.702431 -1.376577,-1.324719 -2.017722,-2.036578 -0.594002,-0.660003 -0.905145,-1.442577 -1.060717,-2.295865 -0.179144,-0.98529 -0.216858,-1.980008 -0.122573,-2.970012 0.06129,-0.645859 0.09429,-1.301147 0.353573,-1.914006 0.353573,-0.848575 0.933432,-1.45672 1.833864,-1.758436 0.886288,-0.297 1.772578,-0.278143 2.63058,0.04714 1.023005,0.386573 1.711292,1.084288 1.914008,2.215722 0.183857,1.00886 0.160286,2.017721 0.183857,3.031296 0.0047,0.188572 -0.033,0.273429 -0.249858,0.273429 -0.815574,-0.01415 -1.631149,-0.01415 -2.446723,0 -0.212144,0.0047 -0.259286,-0.07071 -0.259286,-0.264 0.0094,-0.589288 0.0047,-1.18329 -0.0094,-1.772578 -0.0094,-0.447859 -0.179144,-0.71186 -0.429002,-0.735431 -0.254573,-0.01886 -0.443144,0.226287 -0.513859,0.66943 -0.09429,0.622288 -0.07071,1.244576 0.04243,1.857436 0.08957,0.50443 0.457288,0.834432 0.820288,1.159718 0.787289,0.702432 1.569863,1.400148 2.220438,2.234579 0.410144,0.528002 0.674144,1.117291 0.825002,1.767864 0.20743,0.914575 0.216858,1.843293 0.240429,2.823867 z"
   id="path1735" /><path
   style="stroke-width:0.47143"
   class="st0"
   d="m 9.8718141,52.137193 c 0,-2.894582 0.00471,-5.78445 -0.00471,-8.679031 0,-0.273431 0.070715,-0.344144 0.3488589,-0.344144 2.036578,0.01415 4.077871,0.0094 6.11445,0 0.264,0 0.334715,0.08014 0.325287,0.334715 -0.01886,0.622288 -0.01886,1.244576 0,1.866864 0.0047,0.249858 -0.05658,0.339429 -0.325287,0.334715 -0.961718,-0.01886 -1.923435,0 -2.885153,-0.0094 -0.24043,-0.0047 -0.320573,0.05185 -0.320573,0.306429 0.01415,1.272862 0.01415,2.550438 0,3.8233 0,0.245144 0.066,0.320572 0.315858,0.315858 0.782575,-0.01415 1.569863,0 2.352437,-0.0094 0.24043,-0.0047 0.330002,0.066 0.320573,0.315858 -0.01886,0.641146 -0.01415,1.287005 0,1.92815 0.0047,0.212144 -0.07543,0.264002 -0.268715,0.259286 -0.806146,-0.0094 -1.607578,0.0047 -2.413723,-0.0094 -0.235715,-0.0047 -0.30643,0.066 -0.301716,0.301715 0.0094,1.720721 0.0094,3.441441 -0.0047,5.162162 0,0.245143 0.08957,0.292287 0.311144,0.287573 0.938146,-0.0094 1.881007,0.0047 2.823867,-0.0094 0.249858,-0.0047 0.344144,0.05186 0.33943,0.320573 -0.01886,0.726002 -0.01886,1.452004 0,2.178008 0.0094,0.278143 -0.08486,0.344143 -0.358288,0.344143 -2.008292,-0.0094 -4.011871,-0.0094 -6.020163,0 -0.2781447,0 -0.3535735,-0.07543 -0.3535735,-0.348859 0.00942,-2.885152 0.00471,-5.779734 0.00471,-8.669601 z"
   id="path1737" /><path
   style="stroke-width:0.47143"
   class="st0"
   d="m 37.804058,73.71927 c 0,-2.621152 -0.0047,-5.242304 0.0047,-7.863458 0,-0.264001 -0.08014,-0.334716 -0.334715,-0.325287 -0.40543,0.01886 -0.815575,0 -1.221005,0.0094 -0.183858,0.0047 -0.259286,-0.04243 -0.254572,-0.240429 0.01415,-0.664715 0.01415,-1.324717 0,-1.989434 -0.0047,-0.212144 0.07543,-0.259286 0.273429,-0.259286 2.121437,0.0047 4.242873,0.0047 6.359595,0 0.212144,0 0.287573,0.05185 0.282857,0.282857 -0.01886,0.631718 -0.01886,1.263434 0,1.895148 0.0047,0.254573 -0.08486,0.320574 -0.325286,0.311144 -0.353573,-0.01886 -0.71186,0.01886 -1.065432,-0.0094 -0.292287,-0.02357 -0.339431,0.08957 -0.339431,0.348859 0.0094,4.662447 0.0047,9.324891 0.0047,13.987337 0,0.579859 -0.01415,1.159719 0.0047,1.739577 0.0094,0.254572 -0.08015,0.311144 -0.320573,0.311144 -0.909859,-0.01415 -1.81972,-0.01415 -2.724867,0 -0.268714,0.0047 -0.353572,-0.05657 -0.353572,-0.339429 0.01415,-2.616439 0.0094,-5.23759 0.0094,-7.858743 z"
   id="path1739" /><path
   style="stroke-width:0.47143"
   class="st0"
   d="m 22.548574,72.474694 c 0,-3.026583 0.0047,-6.053165 -0.0047,-9.079747 0,-0.268715 0.05657,-0.348858 0.33943,-0.344143 1.631149,0.01415 3.257583,0.0094 4.888732,0.0047 0.221572,0 0.315858,0.03772 0.30643,0.282858 -0.01886,0.650574 -0.01415,1.305863 0,1.961149 0.0047,0.193286 -0.05658,0.249858 -0.249858,0.245144 -0.782574,-0.0094 -1.56515,0.0047 -2.352438,-0.0094 -0.221571,-0.0047 -0.282858,0.07071 -0.282858,0.282858 0.0094,1.376576 0.0094,2.757869 0,4.134444 0,0.231001 0.08486,0.278145 0.292286,0.27343 0.627004,-0.0094 1.254006,0.0047 1.881008,-0.0094 0.207429,-0.0047 0.268715,0.05658 0.268715,0.264001 -0.0094,0.716573 -0.01415,1.428433 0,2.145008 0.0047,0.212143 -0.066,0.264 -0.268715,0.264 -0.627002,-0.0094 -1.254004,0.0047 -1.881008,-0.0094 -0.207428,-0.0047 -0.292286,0.04243 -0.292286,0.273429 0.0094,1.833864 0.0094,3.667727 0,5.501592 0,0.226285 0.07543,0.278143 0.287572,0.278143 0.740146,-0.0094 1.485007,0.0047 2.225152,-0.0094 0.207429,-0.0047 0.264,0.05658 0.259286,0.259286 -0.0094,0.829717 -0.0094,1.659434 0,2.489152 0,0.188571 -0.05657,0.249858 -0.249858,0.249858 -1.640577,-0.0047 -3.281155,-0.0094 -4.921732,0 -0.287573,0 -0.254572,-0.160287 -0.254572,-0.33943 0.0094,-3.036011 0.0094,-6.072022 0.0094,-9.108033 z"
   id="path1741" /><path
   style="stroke-width:0.47143"
   class="st0"
   d="m 41.193641,53.254482 c 0,2.517437 -0.0047,5.034876 0.0047,7.552313 0,0.292287 -0.08957,0.363002 -0.367715,0.358288 -0.886289,-0.01886 -1.777292,-0.01886 -2.663581,0 -0.282858,0.0047 -0.367716,-0.07071 -0.367716,-0.358288 0.0094,-2.734295 0.0047,-5.473305 0.0047,-8.207601 0,-2.300579 -0.0047,-4.601159 0.0094,-6.901738 0,-0.27343 -0.066,-0.363002 -0.344145,-0.344145 -0.396001,0.02357 -0.792002,-0.0047 -1.188004,0.0094 -0.198,0.0047 -0.278143,-0.04243 -0.273429,-0.254573 0.01415,-0.598715 0.0094,-1.202146 0,-1.800863 -0.0047,-0.198 0.05658,-0.268715 0.268715,-0.264001 2.121436,0.0094 4.242872,0.0047 6.359594,0 0.212144,0 0.297001,0.05186 0.292287,0.278145 -0.01415,0.589287 -0.01415,1.183289 0,1.772577 0.0047,0.202715 -0.05658,0.278144 -0.264,0.27343 -0.386573,-0.01415 -0.773146,0.01415 -1.159719,-0.0094 -0.259286,-0.01415 -0.311144,0.07543 -0.311144,0.315858 0,2.522152 0,5.053732 0,7.580599 z"
   id="path1743" /><path
   style="stroke-width:0.47143"
   class="st0"
   d="m 96.893132,71.890121 c 0,1.065432 0,2.135579 0,3.201012 0,0.155572 0.01415,0.287571 -0.226287,0.231 -0.886289,-0.202715 -1.659434,0.117862 -2.390151,0.565716 -0.113139,0.07071 -0.226287,0.150858 -0.344145,0.202715 -0.622288,0.287573 -0.504429,0.858003 -0.528002,1.362434 -0.03772,0.867432 -0.04714,1.739577 -0.04243,2.607009 0,0.278144 -0.04243,0.452573 -0.339429,0.551573 -0.476145,0.165001 -0.933432,0.381859 -1.395434,0.575146 -0.188573,0.08015 -0.278144,0.02828 -0.381859,-0.165002 -0.546859,-1.023003 -1.098432,-2.046007 -1.692435,-3.045438 -0.447859,-0.759003 -0.853289,-1.546292 -1.28229,-2.314723 -0.160286,-0.282859 -0.339429,-0.561002 -0.523287,-0.834432 -0.221573,-0.33943 -0.183858,-0.433715 0.160286,-0.645859 0.773145,-0.476145 1.513292,-0.994718 2.211007,-1.574577 0.617574,-0.51386 1.197434,-1.065433 1.701864,-1.692435 0.655289,-0.81086 1.239862,-1.664149 1.518006,-2.682439 0.066,-0.235715 0.174429,-0.358288 0.462002,-0.30643 0.961717,0.174429 1.928149,0.330001 2.894581,0.480859 0.198001,0.02828 0.193286,0.136716 0.193286,0.278145 0.0047,1.070146 0.0047,2.140293 0.0047,3.205726 z"
   id="path1745" /><path
   style="stroke-width:0.47143"
   class="st0"
   d="m 82.660652,83.487305 c -0.04243,-0.480859 -0.216858,-0.891003 -0.226287,-1.329433 -0.0047,-0.193286 -0.131999,-0.249858 -0.297001,-0.297002 -0.424287,-0.122571 -0.843859,-0.278143 -1.272861,-0.396001 -0.193286,-0.05186 -0.193286,-0.160286 -0.155572,-0.297001 0.155572,-0.561002 0.155572,-1.145575 0.240429,-1.720721 0.103716,-0.693001 0.216858,-1.386004 0.325287,-2.079006 0.01886,-0.113139 0.066,-0.183859 0.183858,-0.216859 1.056004,-0.311144 2.06015,-0.74486 3.069011,-1.178575 0.556288,-0.24043 1.098432,-0.518574 1.635863,-0.801431 0.240429,-0.127287 0.386573,-0.146144 0.523288,0.131999 0.320572,0.655289 0.660002,1.296434 0.999431,1.937579 0.372431,0.707145 0.754289,1.414291 1.126719,2.121436 0.358287,0.669431 0.71186,1.338862 1.065432,2.008293 0.03772,0.07071 0.07543,0.146144 0.122572,0.216858 0.08486,0.127286 0.221573,0.287572 0.108427,0.410145 -0.141429,0.150857 -0.287573,0.353573 -0.575145,0.268714 -0.891003,-0.264 -1.800863,-0.348858 -2.724867,-0.207428 -0.655288,0.099 -1.225719,0.37243 -1.640577,0.905145 -0.066,0.08486 -0.108427,0.113139 -0.226287,0.06129 -0.730716,-0.306429 -1.395433,-0.141428 -2.013007,0.311144 -0.07071,0.05186 -0.155572,0.08957 -0.268715,0.150858 z"
   id="path1747" /><path
   style="stroke-width:0.47143"
   class="st0"
   d="m 15.745835,86.683602 c 0,-0.834432 0.0094,-1.673578 -0.0047,-2.508009 -0.0047,-0.221572 0.06129,-0.292287 0.278143,-0.27343 0.249858,0.01886 0.504431,0.02357 0.749574,0 0.259287,-0.02357 0.254573,0.113139 0.254573,0.297002 -0.0047,1.909293 -0.0047,3.813871 -0.0047,5.723163 0,0.353573 -0.0094,0.707145 0.0047,1.056004 0.0094,0.193286 -0.066,0.259286 -0.254573,0.245144 -0.165,-0.01415 -0.334716,-0.0047 -0.499716,-0.0047 -0.608145,0 -0.594002,-0.0047 -0.726003,-0.598715 -0.169714,-0.749575 -0.301715,-1.513291 -0.594001,-2.248723 0,0.113139 0,0.231001 0,0.344145 0,0.735431 -0.0094,1.470861 0.0047,2.206293 0.0047,0.235715 -0.07071,0.311144 -0.301715,0.297 -0.24043,-0.01415 -0.480859,-0.01415 -0.721288,0 -0.198001,0.01415 -0.245144,-0.066 -0.245144,-0.249857 0.0047,-2.281723 0.0047,-4.563445 0,-6.840453 0,-0.174429 0.04714,-0.240429 0.226287,-0.231001 0.268714,0.01415 0.542144,0.01415 0.815573,0 0.193287,-0.0094 0.254574,0.08486 0.292288,0.245144 0.169714,0.735432 0.353573,1.466148 0.518573,2.201579 0.03772,0.132001 0.113138,0.231001 0.207429,0.339429 z"
   id="path1749" /><path
   style="stroke-width:0.47143"
   class="st0"
   d="m 29.044882,87.423747 c 0.565718,0.264002 0.688289,0.71186 0.674146,1.239862 -0.01886,0.74486 -0.01415,1.48972 0,2.239294 0.0047,0.231001 -0.04714,0.33943 -0.30643,0.320573 -0.259286,-0.02357 -0.523288,-0.01886 -0.782574,0 -0.231001,0.01415 -0.301715,-0.05185 -0.301715,-0.292287 0.01415,-0.820288 0,-1.635863 -0.0047,-2.456152 0,-0.122572 -0.01415,-0.249857 -0.04714,-0.367715 -0.03772,-0.117862 -0.141429,-0.188572 -0.264002,-0.179144 -0.165,0.0094 -0.108427,0.150858 -0.108427,0.245144 -0.0047,0.848575 -0.0047,1.697149 0,2.545724 0,0.499715 0,0.499715 -0.490287,0.499715 -0.231001,0 -0.462002,-0.01415 -0.688289,0.0047 -0.249858,0.02357 -0.315858,-0.07071 -0.315858,-0.315858 0.0094,-2.112008 0.0047,-4.224016 0.0047,-6.340737 0,-0.664717 0.0047,-0.669431 0.669431,-0.664717 0.542144,0.0047 1.079575,0.01415 1.62172,0.08015 0.537431,0.066 0.858003,0.556287 0.938146,0.97586 0.099,0.499716 0.066,1.008861 0.05657,1.518006 0,0.447859 -0.183857,0.768431 -0.655288,0.947574 z m -1.14086,-1.475575 c 0,0.193286 -0.0047,0.391287 0,0.584573 0.0047,0.08486 -0.04714,0.212144 0.08957,0.226286 0.122573,0.01415 0.264002,-0.01415 0.297002,-0.165 0.08015,-0.40543 0.07543,-0.815575 0.0094,-1.225719 -0.02357,-0.160286 -0.169716,-0.183858 -0.287573,-0.183858 -0.169714,0 -0.099,0.146144 -0.103716,0.235715 -0.0094,0.179144 -0.0047,0.353573 -0.0047,0.528003 z"
   id="path1751" /><path
   style="stroke-width:0.47143"
   class="st0"
   d="m 21.303999,88.295893 c 0.01415,-0.183857 0.02828,-0.372429 0.04243,-0.556287 0.08015,-1.178576 0.165,-2.352437 0.231001,-3.531013 0.01415,-0.226286 0.066,-0.334715 0.320572,-0.315858 0.330001,0.02357 0.66943,0.01886 0.999432,0 0.221573,-0.0094 0.282858,0.05186 0.259287,0.278144 -0.155572,1.386004 -0.292287,2.776724 -0.433717,4.167443 -0.08957,0.876861 -0.179143,1.749006 -0.259286,2.625867 -0.01415,0.174429 -0.05186,0.259287 -0.254572,0.254572 -0.594002,-0.01415 -1.188004,-0.0094 -1.786721,0 -0.188571,0.0047 -0.235715,-0.066 -0.259286,-0.245143 -0.183859,-1.301148 -0.330001,-2.60701 -0.457288,-3.912871 -0.09428,-0.957003 -0.226286,-1.909293 -0.358287,-2.861582 -0.033,-0.226287 0.0094,-0.315859 0.264002,-0.301716 0.344143,0.02357 0.688288,0.01886 1.032432,0 0.216858,-0.01415 0.268714,0.08015 0.278144,0.264002 0.06129,1.272861 0.245144,2.536294 0.273429,3.809156 0.0047,0.108428 0.02357,0.216858 0.033,0.325286 0.02828,0 0.05185,0 0.07543,0 z"
   id="path1753" /><path
   style="stroke-width:0.47143"
   class="st0"
   d="m 81.576362,75.133561 c 0.188573,-1.263433 0.396002,-2.663581 0.603431,-4.063729 0.04714,-0.33943 0.08486,-0.678859 0.117862,-1.01829 0.01886,-0.165 0.07543,-0.264 0.264002,-0.278143 0.259286,-0.01415 0.509144,-0.09428 0.744859,-0.212144 0.193287,-0.099 0.320573,-0.05658 0.419574,0.14143 0.325287,0.631716 0.660002,1.258718 0.990003,1.881006 0.334716,0.631717 0.664717,1.268147 1.013575,1.89515 0.207429,0.37243 0.226286,0.405429 -0.136715,0.584574 -0.565716,0.278143 -1.136147,0.542145 -1.716005,0.77786 -0.641146,0.259286 -1.277577,0.542144 -1.951723,0.726002 -0.396001,0.117862 -0.396001,0.113138 -0.348858,-0.433716 z"
   id="path1755" /><path
   style="stroke-width:0.47143"
   class="st0"
   d="m 24.679439,91.214047 c -0.334716,0 -0.669431,-0.0094 -1.004147,0.0047 -0.183858,0.0047 -0.254573,-0.04243 -0.254573,-0.240429 0.0047,-2.291151 0.0047,-4.582301 0,-6.868738 0,-0.169716 0.05658,-0.212144 0.216858,-0.20743 0.688289,0.0047 1.376577,0.0047 2.06958,0 0.146143,0 0.202714,0.04243 0.198,0.193286 -0.0094,0.363002 -0.0094,0.726004 0,1.089004 0.0047,0.160287 -0.04243,0.235715 -0.212143,0.216858 -0.0094,0 -0.01886,0 -0.03301,0 -0.726002,0.02357 -0.726002,0.02357 -0.726002,0.730717 0,0.627002 0,0.636432 0.61286,0.622288 0.221572,-0.0047 0.325286,0.03772 0.306429,0.282859 -0.02357,0.278144 -0.01886,0.561001 0,0.839146 0.01415,0.226286 -0.07543,0.273429 -0.287572,0.273429 -0.631717,-0.0047 -0.631717,0 -0.631717,0.631716 0,0.226287 0.0094,0.457288 -0.0047,0.683574 -0.0094,0.183858 0.04714,0.268715 0.245143,0.254572 0.198002,-0.01415 0.396003,0.0047 0.594003,-0.0047 0.179143,-0.0094 0.240429,0.066 0.235715,0.235715 -0.0094,0.33943 -0.0094,0.683573 0,1.027718 0.0094,0.198 -0.08015,0.249858 -0.259286,0.240429 -0.353573,-0.01415 -0.71186,-0.0047 -1.065433,-0.0047 z"
   id="path1757" /><path
   style="stroke-width:0.47143"
   class="st0"
   d="m 40.986211,86.311172 c 0.08486,-0.561002 0.169715,-1.122003 0.245144,-1.683005 0.02357,-0.183859 0.07543,-0.363002 0.113139,-0.546859 0.03301,-0.14143 0.08486,-0.188573 0.226286,-0.183859 0.325287,0.0094 0.645859,0.0094 0.971146,0 0.183859,-0.0047 0.202716,0.06129 0.160286,0.221573 -0.259286,1.05129 -0.523286,2.102579 -0.763717,3.153869 -0.160286,0.70243 -0.353572,1.400147 -0.297,2.140293 0.04243,0.513858 0,1.037146 0.0094,1.55572 0.0047,0.188571 -0.05185,0.259286 -0.245143,0.249857 -0.292287,-0.01415 -0.584574,-0.01415 -0.87686,0 -0.20743,0.0094 -0.268716,-0.05658 -0.268716,-0.264 0.01415,-0.631718 -0.01886,-1.263434 0.01415,-1.89515 0.03299,-0.636431 -0.198002,-1.221004 -0.301716,-1.82915 -0.07071,-0.414858 -0.212144,-0.820289 -0.292287,-1.235147 -0.122571,-0.627002 -0.249858,-1.254004 -0.429001,-1.871578 -0.05658,-0.188572 0,-0.24043 0.188572,-0.231001 0.259287,0.0094 0.523288,0.02357 0.782574,-0.0047 0.334716,-0.03772 0.443145,0.127285 0.462002,0.414858 0.04243,0.683574 0.179144,1.343576 0.301715,2.008293 z"
   id="path1759" /><path
   style="stroke-width:0.47143"
   class="st0"
   d="m 38.200059,88.32418 c 0,0.867431 -0.0094,1.739577 0.0047,2.607009 0.0047,0.245143 -0.08015,0.297001 -0.306429,0.287572 -0.311144,-0.01415 -0.627003,-0.01886 -0.938147,0 -0.231001,0.01415 -0.273429,-0.08015 -0.273429,-0.287572 0.0047,-1.730149 -0.0047,-3.455584 0.0094,-5.185733 0.0047,-0.292287 -0.08015,-0.37243 -0.367716,-0.358287 -0.518574,0.02357 -0.518574,0.0047 -0.518574,-0.528001 0,-0.249859 0.0094,-0.495003 0,-0.744861 -0.0047,-0.160286 0.04243,-0.216858 0.212144,-0.216858 0.928718,0.0047 1.857436,0.0094 2.786153,0 0.183858,0 0.231001,0.07071 0.226287,0.235715 -0.0094,0.339431 -0.01415,0.683574 0,1.023004 0.0094,0.198001 -0.07071,0.240429 -0.254572,0.240429 -0.57986,0.0047 -0.57986,0.0094 -0.57986,0.594003 0,0.77786 0,1.55572 0,2.33358 z"
   id="path1761" /><path
   style="stroke-width:0.47143"
   class="st0"
   d="m 85.083804,68.608966 c 0.202715,0.108427 0.424286,0.193286 0.641145,0.292286 1.178575,0.542145 2.343008,1.107862 3.516869,1.659436 0.245144,0.113138 0.490289,0.221572 0.740146,0.315858 0.160287,0.06129 0.212143,0.132001 0.07071,0.254572 -0.834432,0.754289 -1.631149,1.55572 -2.687153,2.022436 -0.05657,0.02357 -0.103715,0.066 -0.155572,0.099 -0.150857,0.099 -0.264001,0.113138 -0.372429,-0.08015 -0.320573,-0.57043 -0.664717,-1.131432 -0.994718,-1.692434 -0.414859,-0.707145 -0.815574,-1.423719 -1.239862,-2.12615 -0.179143,-0.297002 -0.193286,-0.358288 0.113139,-0.518574 0.127285,-0.05658 0.188571,-0.216858 0.367716,-0.226287 z"
   id="path1763" /><path
   style="stroke-width:0.47143"
   class="st0"
   d="m 85.427947,68.217677 c 0.165002,-0.221571 0.363002,-0.424287 0.452574,-0.693002 0.05658,-0.160286 0.155572,-0.216858 0.330002,-0.216858 1.838577,-0.03772 3.667726,0.146144 5.496876,0.301716 0.259286,0.02357 0.513858,0.09428 0.768432,0.117862 0.174429,0.01886 0.193285,0.099 0.127285,0.221572 -0.150858,0.278145 -0.297,0.565717 -0.480859,0.825005 -0.264,0.377143 -0.57043,0.721288 -0.84386,1.093718 -0.136714,0.188572 -0.282858,0.235715 -0.509144,0.155572 -1.056004,-0.367716 -2.107293,-0.749575 -3.172726,-1.074861 -0.584573,-0.179143 -1.164433,-0.381859 -1.75372,-0.542146 -0.146144,-0.04243 -0.292287,-0.08957 -0.41486,-0.188573 z"
   id="path1765" /><path
   style="stroke-width:0.47143"
   class="st0"
   d="m 89.567105,66.85053 c -1.051289,0 -2.107292,-0.0047 -3.158582,0.0047 -0.212144,0 -0.315859,-0.02828 -0.334716,-0.27343 -0.03772,-0.495001 -0.04243,-0.490287 0.452574,-0.627002 0.919288,-0.259287 1.833863,-0.523288 2.743724,-0.801431 0.60343,-0.183857 1.211575,-0.348857 1.81972,-0.528001 0.438431,-0.127286 0.872146,-0.249858 1.305862,-0.391288 0.122572,-0.03772 0.174429,-0.01415 0.249858,0.08957 0.50443,0.693003 0.561002,1.461432 0.433716,2.272293 -0.02828,0.183857 -0.165001,0.150857 -0.287572,0.150857 -1.074861,0 -2.149723,0 -3.224584,0 0,0.03772 0,0.07071 0,0.103715 z"
   id="path1767" /><path
   style="stroke-width:0.47143"
   class="st0"
   d="m 77.357061,80.559724 c -0.542144,0 -1.084289,-0.0094 -1.626433,0.0047 -0.226287,0.0047 -0.264002,-0.05658 -0.202716,-0.259286 0.221573,-0.740147 0.429001,-1.485006 0.64586,-2.225152 0.07542,-0.264 0.165,-0.528001 0.231,-0.796717 0.03301,-0.146143 0.108427,-0.150858 0.226287,-0.117862 0.971146,0.264001 1.965864,0.221573 2.955868,0.212144 0.20743,0 0.273429,0.02828 0.231001,0.249858 -0.188573,0.886288 -0.363002,1.777292 -0.532716,2.673009 -0.03301,0.169715 -0.132001,0.179143 -0.268715,0.179143 -0.551575,-0.0047 -1.103148,0 -1.659436,0 0,0.02357 0,0.05186 0,0.08015 z"
   id="path1769" /><path
   style="stroke-width:0.47143"
   class="st0"
   d="m 19.09299,87.574605 c 0,1.117291 -0.0047,2.23458 0.0047,3.356584 0.0047,0.235715 -0.066,0.311144 -0.297001,0.292287 -0.301716,-0.01886 -0.608145,-0.02357 -0.905147,0 -0.249858,0.01886 -0.315858,-0.066 -0.315858,-0.30643 0.0094,-1.791435 0.0047,-3.58287 0.0047,-5.374305 0,-0.466716 0.0094,-0.933432 -0.0047,-1.395434 -0.0047,-0.193286 0.05186,-0.254572 0.249859,-0.245144 0.320572,0.01415 0.645859,0.01886 0.971146,0 0.231001,-0.01415 0.301715,0.05186 0.301715,0.292287 -0.01415,1.122004 -0.0094,2.248723 -0.0094,3.380155 z"
   id="path1771" /><path
   style="stroke-width:0.47143"
   class="st0"
   d="m 35.51762,87.555748 c 0,1.11729 -0.0094,2.239294 0.0047,3.356584 0.0047,0.249858 -0.07542,0.320572 -0.315858,0.306429 -0.311144,-0.01886 -0.627002,-0.02357 -0.938146,0 -0.264002,0.01886 -0.278144,-0.117863 -0.27343,-0.320572 0.0047,-2.102579 0.0047,-4.209872 0.0047,-6.312451 0,-0.683575 0,-0.693003 0.674146,-0.683575 0.273429,0.0047 0.641145,-0.131999 0.801431,0.066 0.132001,0.169715 0.04714,0.513858 0.04714,0.782574 -0.0047,0.938146 -0.0047,1.871578 -0.0047,2.80501 z"
   id="path1773" /><path
   style="stroke-width:0.47143"
   class="st0"
   d="m 81.368934,70.122257 c -0.235715,1.140862 -0.471432,2.281722 -0.707147,3.422584 -0.160286,0.77786 -0.315858,1.55572 -0.471429,2.33358 -0.01886,0.08486 -0.03772,0.155572 -0.141429,0.179143 -1.027718,0.202716 -2.055437,0.315858 -3.087869,0.0094 -0.273429,-0.08014 -0.150858,-0.245144 -0.07071,-0.353572 0.198002,-0.282859 0.429002,-0.546861 0.641145,-0.82029 0.669432,-0.853289 1.343576,-1.711292 2.013008,-2.56458 0.589288,-0.749574 1.173861,-1.499149 1.763149,-2.248722 0.01886,0.01415 0.03772,0.02828 0.06129,0.04243 z"
   id="path1775" /><path
   style="stroke-width:0.47143"
   class="st0"
   d="m 91.514112,62.1268 c 0.589288,-0.363002 1.206862,-0.603431 1.805578,-0.886288 0.876861,-0.419574 1.800865,-0.726004 2.724867,-1.018291 0.730718,-0.231001 0.848575,-0.155572 0.848575,0.589289 0,0.381858 -0.0094,0.763717 0.0047,1.15029 0.0047,0.160286 -0.05185,0.231001 -0.193287,0.297001 -0.226287,0.108427 -0.47143,0.169715 -0.707145,0.235715 -0.848575,0.240429 -1.664149,0.57043 -2.512724,0.801431 -0.202714,0.05658 -0.339429,0.02828 -0.490287,-0.141429 C 92.5984,62.711373 92.079826,62.423801 91.51411,62.1268 Z"
   id="path1777" /><path
   style="stroke-width:0.47143"
   class="st0"
   d="m 87.082668,61.971228 c 0.372429,-0.40543 0.792003,-0.650573 1.202147,-0.900432 1.060719,-0.650574 2.201579,-1.11729 3.399013,-1.480291 0.914574,-0.273429 1.81972,-0.122572 2.72958,-0.14143 0.377145,-0.0047 0.759003,0.02828 1.145576,0.117863 -0.443145,0.188571 -0.891003,0.367714 -1.329433,0.561001 -0.924004,0.40543 -1.852722,0.796717 -2.762581,1.239862 -0.363002,0.174429 -0.730718,0.33943 -1.093719,0.513859 -0.08015,0.03772 -0.183858,0.04714 -0.27343,0.04243 -0.985288,-0.05186 -1.965864,-0.04714 -3.017153,0.04714 z"
   id="path1779" /><path
   style="stroke-width:0.47143"
   class="st0"
   d="m 96.893132,65.219381 c 0,0.447859 -0.0047,0.891004 0.0047,1.338862 0.0047,0.165 -0.05185,0.216858 -0.212144,0.212144 -0.858003,-0.0094 -1.711292,-0.01415 -2.569295,-0.01415 -0.160286,0 -0.240429,-0.04243 -0.198,-0.216858 0.0094,-0.05185 0.0094,-0.103715 0.01886,-0.155572 0.103716,-0.792003 0.066,-1.569861 -0.278145,-2.310007 -0.05658,-0.122571 -0.05185,-0.155572 0.08015,-0.216858 0.273429,-0.127285 0.556287,-0.150858 0.853288,-0.150858 0.688289,-0.0047 1.376576,-0.01415 2.069579,-0.03772 0.198001,-0.0047 0.249858,0.06129 0.245143,0.245145 -0.02357,0.433715 -0.01415,0.867432 -0.01415,1.30586 z"
   id="path1781" /><path
   style="stroke-width:0.47143"
   class="st0"
   d="m 110.02246,54.744202 c -0.12257,0.565717 -0.22628,1.169147 -0.38185,1.758435 -0.0943,0.353572 -0.12258,0.71186 -0.198,1.065433 -0.0566,0.273429 -0.14143,0.433715 -0.49501,0.358286 -0.73071,-0.160286 -0.66,0.01886 -0.52328,-0.735431 0.132,-0.721289 0.30171,-1.433148 0.45728,-2.149722 0.0189,-0.08015 0.033,-0.165001 0.033,-0.245144 0.005,-0.099 -0.0283,-0.193286 -0.14143,-0.202714 -0.10843,-0.0094 -0.14143,0.08957 -0.15086,0.165 -0.033,0.259287 -0.132,0.499716 -0.18386,0.754288 -0.11786,0.565716 -0.22157,1.136148 -0.33471,1.701864 -0.0142,0.07071 -0.0377,0.141429 -0.0519,0.212144 -0.0471,0.235715 -0.165,0.297001 -0.41486,0.249857 -0.82972,-0.160286 -0.693,-0.066 -0.55629,-0.782574 0.18857,-0.985289 0.42429,-1.956435 0.63643,-2.937011 0.0236,-0.122571 0.0754,-0.160286 0.18857,-0.136714 0.28286,0.05657 0.58929,0.04243 0.84858,0.193286 0.16971,0.099 0.34886,0.033 0.51857,0.04714 0.40072,0.02828 0.74015,0.292287 0.74015,0.53743 0,0.02828 0.005,0.07071 0.009,0.146144 z"
   id="path1783" /><path
   style="stroke-width:0.47143"
   class="st0"
   d="m 105.03473,57.256926 c -0.33943,-0.02828 -0.68357,-0.02357 -0.99,-0.221573 -0.264,-0.169714 -0.43372,-0.381858 -0.39129,-0.707145 0.099,-0.77786 0.18857,-1.560434 0.31115,-2.33358 0.0566,-0.367716 0.27814,-0.575144 0.64585,-0.612859 0.49501,-0.04714 0.99001,-0.05657 1.4473,0.231 0.25928,0.160287 0.363,0.372431 0.33,0.64586 -0.0943,0.801431 -0.19329,1.598149 -0.31586,2.394866 -0.0754,0.457287 -0.396,0.627002 -1.03715,0.603431 z m -0.31114,-0.909861 c -0.005,0.108427 -0.0519,0.245144 0.12257,0.264001 0.16029,0.01415 0.16971,-0.108427 0.18857,-0.226287 0.10372,-0.716574 0.20272,-1.428433 0.31586,-2.140293 0.0189,-0.127287 -0.0142,-0.20743 -0.132,-0.240429 -0.15557,-0.03772 -0.20272,0.06129 -0.21214,0.193287 -0.0613,0.721288 -0.25458,1.423719 -0.28286,2.149721 z"
   id="path1785" /><path
   style="stroke-width:0.47143"
   class="st0"
   d="m 90.222394,62.767945 c 0.386573,-0.0047 0.664716,0.183858 0.957003,0.301716 0.245144,0.099 0.462002,0.264 0.683574,0.414858 0.212144,0.150858 0.202714,0.292287 -0.04243,0.353573 -0.532717,0.136714 -1.041861,0.344144 -1.565149,0.513859 -0.853288,0.282858 -1.706577,0.575145 -2.559865,0.862716 -0.636432,0.216858 -1.272863,0.433716 -1.909293,0.645859 -0.179144,0.06129 -0.315859,-0.09429 -0.391287,-0.183858 -0.09429,-0.108427 0.09428,-0.150857 0.179143,-0.207429 0.768431,-0.480858 1.532149,-0.975859 2.310009,-1.437861 0.716573,-0.424287 1.452004,-0.81086 2.178007,-1.211575 0.066,-0.02357 0.136716,-0.04243 0.160287,-0.05185 z"
   id="path1787" /><path
   style="stroke-width:0.47143"
   class="st0"
   d="m 99.005139,54.909203 c 0,-0.405431 -0.0047,-0.806146 0.0047,-1.211576 0.0047,-0.150858 -0.03301,-0.24043 -0.207429,-0.221573 -0.183858,0.01886 -0.254572,-0.08486 -0.221573,-0.245143 0.02357,-0.132001 -0.04714,-0.344144 0.226287,-0.301716 0.254572,0.03772 0.254572,-0.155572 0.264002,-0.320572 0.02828,-0.452573 0.02828,-0.452573 0.495001,-0.419573 0.033,0 0.06129,0.0047 0.09429,0 0.523293,-0.01415 0.476153,0.03772 0.424293,0.429001 -0.033,0.254572 0.0519,0.367716 0.31586,0.334717 0.34414,-0.04714 0.24985,0.198 0.25457,0.381857 0.009,0.264002 -0.165,0.221573 -0.31586,0.183859 -0.21214,-0.04714 -0.27343,0.02828 -0.27814,0.235715 -0.009,0.664716 -0.0236,1.324719 -0.0519,1.989435 -0.0094,0.245144 0.0754,0.381859 0.33472,0.367716 0.21214,-0.01415 0.297,0.08957 0.24986,0.282857 -0.0377,0.160288 0.0519,0.429003 -0.28757,0.396003 -0.25929,-0.02828 -0.523296,-0.01415 -0.782583,-0.03772 -0.419573,-0.04243 -0.565716,-0.202716 -0.575145,-0.627002 -0.0094,-0.40543 0,-0.806147 0,-1.211577 0.01886,-0.0047 0.03772,-0.0047 0.05657,-0.0047 z"
   id="path1789" /><path
   style="stroke-width:0.47143"
   class="st0"
   d="m 74.179622,71.541262 c -0.165,-0.40543 0.245144,-0.480859 0.490287,-0.598716 0.71186,-0.344144 1.423719,-0.697717 2.149722,-1.018289 0.891004,-0.396001 1.815007,-0.693003 2.743725,-0.980575 0.127285,-0.03772 0.268715,-0.04243 0.400715,-0.07071 0.136714,-0.02828 0.221572,0.0047 0.24043,0.155572 0.0047,0.05186 0.01886,0.113139 0.05658,0.141429 0.301715,0.268715 0.122572,0.315858 -0.146144,0.419573 -1.301148,0.504431 -2.592866,1.027718 -3.87987,1.565148 -0.57986,0.24043 -1.136148,0.532717 -1.701864,0.810861 -0.306429,0.150858 -0.353573,0.099 -0.353573,-0.424288 z"
   id="path1791" /><path
   style="stroke-width:0.47143"
   class="st0"
   d="m 84.815089,63.215804 c -0.179144,0.518573 -0.447859,0.924004 -0.64586,1.362433 -0.08957,0.193287 -0.245144,0.363002 -0.301715,0.565715 -0.108428,0.377144 -0.334716,0.57043 -0.721289,0.589288 -0.226287,0.0094 -0.40543,0.155572 -0.608144,0.231001 -0.17443,0.066 -0.264002,0.08015 -0.353573,-0.127286 -0.165001,-0.396002 -0.372431,-0.773146 -0.561002,-1.159718 -0.05658,-0.113138 -0.117862,-0.207428 0.07071,-0.292286 0.853289,-0.391287 1.734864,-0.711859 2.611725,-1.05129 0.131999,-0.05186 0.287571,-0.066 0.509144,-0.117862 z"
   id="path1793" /><path
   style="stroke-width:0.47143"
   class="st0"
   d="m 74.754767,67.925391 c -0.565716,0.702432 -1.126718,1.376578 -1.584006,2.130866 -0.132001,0.221572 -0.43843,0.193287 -0.655288,0.306429 -0.150858,0.08015 -0.334716,0.09429 -0.490288,0.188573 -0.259286,0.150858 -0.419572,-0.108428 -0.608145,-0.198001 -0.207429,-0.09428 -0.311144,-0.193286 -0.099,-0.47143 0.542145,-0.721288 1.225719,-1.29172 1.89515,-1.876294 0.066,-0.05658 0.146144,-0.07543 0.231001,-0.07543 0.424287,-0.0047 0.848574,-0.0047 1.310576,-0.0047 z"
   id="path1795" /><path
   style="stroke-width:0.47143"
   class="st0"
   d="m 74.839624,69.537684 c 0.353573,-0.64586 0.806145,-1.19272 1.334148,-1.687722 0.07071,-0.066 0.155572,-0.04714 0.235715,-0.04714 1.206862,-0.03301 2.418437,-0.07071 3.625299,-0.099 0.103715,-0.0047 0.264001,-0.05658 0.249858,0.127285 -0.0094,0.141429 0.0094,0.334716 -0.212144,0.353573 -0.344144,0.02828 -0.674146,0.103715 -1.008861,0.179144 -1.032432,0.24043 -2.050721,0.51386 -3.054868,0.843861 -0.381858,0.122572 -0.77786,0.212144 -1.169147,0.330001 z"
   id="path1797" /><path
   style="stroke-width:0.47143"
   class="st0"
   d="m 101.58386,56.342351 c 0.0236,-1.037148 0.198,-2.06015 0.24515,-3.097297 0.005,-0.122572 0.033,-0.179144 0.16971,-0.193286 0.27814,-0.02828 0.53743,0.066 0.80615,0.08486 0.11314,0.0094 0.0801,0.08957 0.0754,0.160286 -0.10371,1.155005 -0.20743,2.310008 -0.30643,3.465012 -0.0142,0.150858 -0.0613,0.202716 -0.20743,0.183859 -0.0801,-0.0094 -0.165,-0.0094 -0.24986,-0.01415 -0.56571,-0.03772 -0.56571,-0.03772 -0.53271,-0.589288 z"
   id="path1799" /><path
   style="stroke-width:0.47143"
   class="st0"
   d="m 88.793959,62.635944 c -0.330001,0.198001 -0.664716,0.391287 -0.990003,0.594003 -1.023003,0.631716 -2.02715,1.291718 -2.87101,2.154434 -0.165001,0.169715 -0.33943,0.136715 -0.518573,0.127287 -0.132001,-0.0047 -0.06129,-0.09428 -0.03301,-0.155572 0.216859,-0.513857 0.54686,-0.966431 0.848575,-1.433147 0.188573,-0.292287 0.443145,-0.542144 0.631717,-0.834431 0.245143,-0.367715 0.650574,-0.33943 0.994718,-0.410145 0.622288,-0.127286 1.263433,-0.146143 1.899863,-0.127286 0.01415,0.03301 0.02357,0.06129 0.03772,0.08486 z"
   id="path1801" /><path
   style="stroke-width:0.47143"
   class="st0"
   d="m 77.691778,66.624243 c 0.292286,-0.273429 0.612858,-0.433715 0.909859,-0.622288 0.344145,-0.221572 0.721288,-0.391287 1.074862,-0.603431 0.113139,-0.07071 0.169714,-0.05185 0.264,0.02357 0.419574,0.358288 0.853289,0.702431 1.277577,1.056005 0.141428,0.117862 0.146142,0.207429 -0.01415,0.339429 -0.231001,0.188573 -0.457287,0.27343 -0.763717,0.202715 -0.853289,-0.202715 -1.739578,-0.150857 -2.592866,-0.353573 -0.03772,-0.0047 -0.07543,-0.01415 -0.155572,-0.04243 z"
   id="path1803" /><path
   style="stroke-width:0.47143"
   class="st0"
   d="m 85.927664,61.023653 c -0.146144,0.476145 -0.396001,0.834431 -0.575146,1.221004 -0.03301,0.066 -0.099,0.066 -0.160286,0.08015 -0.579859,0.127286 -1.150289,0.268715 -1.711291,0.462002 -0.730717,0.254572 -1.475577,0.480859 -2.163865,0.839145 -0.127287,0.066 -0.216858,0.02357 -0.221572,-0.103715 -0.0047,-0.103716 -0.268715,-0.198001 -0.01886,-0.315858 0.410144,-0.193287 0.815574,-0.400716 1.230432,-0.589289 0.759003,-0.348858 1.52272,-0.688287 2.286437,-1.027717 0.424287,-0.188572 0.853288,-0.363001 1.334148,-0.565717 z"
   id="path1805" /><path
   style="stroke-width:0.47143"
   class="st0"
   d="m 72.242044,72.286122 c 0.05185,0.282858 -0.05658,0.513859 -0.01415,0.754288 0.01886,0.117863 -0.127287,0.198001 -0.235715,0.254573 -0.834432,0.447858 -1.631149,0.957003 -2.385437,1.527434 -0.08486,0.066 -0.155572,0.066 -0.254573,0.01886 -0.528001,-0.268716 -0.551573,-0.419574 -0.08015,-0.735432 0.957003,-0.631717 1.937578,-1.225718 2.970011,-1.819721 z"
   id="path1807" /><path
   style="stroke-width:0.47143"
   class="st0"
   d="m 75.146054,66.280099 c 0.27343,-0.179144 0.53743,-0.363001 0.815574,-0.53743 0.660003,-0.41486 1.324719,-0.825001 1.984722,-1.244575 0.146143,-0.09429 0.330001,-0.127287 0.452573,-0.264001 0.04714,-0.05185 0.113138,-0.02357 0.165,0.02357 0.165001,0.150857 0.334716,0.297 0.518573,0.462 -0.796717,0.462001 -1.58872,0.886289 -2.281722,1.447291 -0.532717,0.433715 -1.070146,0.216858 -1.617005,0.193286 -0.01886,-0.02828 -0.02828,-0.05657 -0.03772,-0.08014 z"
   id="path1809" /><path
   style="stroke-width:0.47143"
   class="st0"
   d="m 96.690417,58.548644 c 0,-0.485573 -0.01415,-0.971146 -0.0047,-1.452004 0.0047,-0.259288 -0.108427,-0.330002 -0.348859,-0.278145 -0.301714,0.06129 -0.608144,0.09428 -0.90986,-0.01415 0.330001,0.01415 0.664716,-0.033 0.990003,-0.03772 0.325288,-0.0047 0.325288,-0.117862 0.325288,-0.348858 -0.0047,-1.159719 0.0047,-2.314723 0.0094,-3.474442 l -0.0047,0.0094 c 0.51386,0.207429 0.631717,0.363001 0.627002,0.905146 -0.0094,0.87686 0.117863,1.749006 0.127287,2.625866 0.0047,0.221572 -0.066,0.297001 -0.278144,0.268716 -0.07071,-0.0094 -0.146144,0.0047 -0.216859,0 -0.193286,-0.01415 -0.278143,0.05658 -0.268714,0.268715 0.01415,0.410145 0.0094,0.825003 0.0047,1.239861 -0.0094,0.08957 0.02828,0.198002 -0.05185,0.287573 z"
   id="path1811" /><path
   style="stroke-width:0.47143"
   class="st0"
   d="m 102.42772,52.905624 c -0.0424,-0.0047 -0.0848,-0.0047 -0.12257,-0.0094 -0.44314,-0.03301 -0.54214,-0.183859 -0.41486,-0.61286 0.0377,-0.122572 0.11314,-0.127286 0.21215,-0.113139 0.198,0.01886 0.39128,0.04714 0.58928,0.04714 0.21215,0 0.28286,0.07071 0.25929,0.292287 -0.0519,0.476144 0.0424,0.438429 -0.52329,0.396001 z"
   id="path1813" /><path
   style="stroke-width:0.47143"
   class="st0"
   d="m 95.681556,52.943338 c 0.221573,-0.136714 0.466716,-0.05657 0.697717,-0.05657 0.226286,0 0.306429,-0.05185 0.306429,-0.292287 -0.0094,-3.054868 -0.0047,-6.105022 0,-9.15989 0,-0.150857 -0.08015,-0.245143 -0.132,-0.363 0.226287,0.04714 0.174429,0.226285 0.174429,0.372429 0,2.889867 0,5.779735 0,8.664888 0,0.278144 0.0047,0.561002 0.0094,0.839146 l 0.0047,-0.0094 c -0.348859,0 -0.702431,0 -1.060719,0.0047 z"
   id="path1815" /><path
   style="stroke-width:0.47143"
   class="st0"
   d="m 93.366833,58.94936 c 0.61286,-0.207429 1.244576,-0.24043 1.885721,-0.221573 -0.631716,0.07543 -1.258718,0.150858 -1.885721,0.221573 z"
   id="path1817" /><path
   style="stroke-width:0.47143"
   class="st0"
   d="m 95.742841,58.704216 c 0.202716,-0.216858 0.462002,-0.05185 0.693003,-0.099 -0.226287,0.05185 -0.452572,0.117862 -0.693003,0.099 z"
   id="path1819" /><path
   style="stroke-width:0.47143"
   class="st0"
   d="m 96.624417,58.595788 c 0.02357,-0.01886 0.04714,-0.03301 0.07071,-0.05185 0,0.05185 -0.02828,0.06129 -0.07071,0.05185 z"
   id="path1821" /><path
   style="stroke-width:0.47143"
   class="st0"
   d="m 57.231704,76.137707 c -0.02828,-0.03772 -0.04714,-0.08015 -0.07543,-0.099 -0.221572,-0.146143 -0.443145,-0.287573 -0.66943,-0.424287 -0.066,-0.03772 -0.14143,-0.03301 -0.193287,0.03772 -0.07071,0.08957 -0.05185,0.198001 0.02828,0.249858 0.216857,0.146144 0.447858,0.282858 0.678859,0.40543 0.155572,0.08015 0.165002,-0.08486 0.231001,-0.169715 z"
   id="path1823" /><path
   style="stroke-width:0.47143"
   class="st0"
   d="m 82.00065,56.776066 c 0.05186,-0.04714 0.249858,-0.0094 0.179143,-0.160286 -0.113139,-0.231001 -0.141429,-0.476145 -0.216858,-0.707145 -0.03772,-0.113138 -0.127285,-0.122572 -0.226286,-0.103715 -0.127286,0.02357 -0.150858,0.113139 -0.108427,0.20743 0.08957,0.207428 0.155572,0.424287 0.202715,0.650573 0.0094,0.08486 0.06129,0.122573 0.169715,0.113139 z"
   id="path1825" /><path
   style="stroke-width:0.47143"
   class="st0"
   d="m 96.39813,55.663491 c 0,0 -0.0047,0 -0.0047,0 0,-0.113138 0.0047,-0.226287 0,-0.33943 -0.0047,-0.07071 0.03772,-0.198001 -0.08957,-0.188572 -0.108427,0.0047 -0.249859,0.04714 -0.254573,0.183858 -0.0094,0.235715 0,0.476145 0.01886,0.71186 0.0094,0.099 0.08957,0.169715 0.193286,0.165 0.113139,0 0.160286,-0.08486 0.155572,-0.193287 -0.0047,-0.113138 -0.0094,-0.226285 -0.01886,-0.339429 z m -0.414858,-1.631149 c 0.0047,0.099 0,0.17443 0.01415,0.245145 0.0094,0.066 -0.03772,0.155572 0.04243,0.193286 0.07543,0.03772 0.127285,-0.03301 0.183857,-0.08486 0.150858,-0.132001 0.202716,-0.627002 0.07543,-0.792002 -0.113139,-0.146144 -0.212144,-0.108427 -0.278144,0.03301 -0.066,0.136715 -0.03301,0.287573 -0.03772,0.405431 z"
   id="path1827" /><path
   style="stroke-width:0.47143"
   class="st0"
   d="m 83.631799,57.704784 c -0.0094,-0.0094 -0.01886,-0.01415 -0.01886,-0.02357 -0.08015,-0.174429 -0.05185,-0.466716 -0.245144,-0.50443 -0.268714,-0.05186 -0.551573,0.05658 -0.810859,0.169714 -0.155572,0.07071 -0.099,0.183858 -0.066,0.287573 0.04714,0.155572 0.108427,0.311144 0.160287,0.47143 0.02828,0.08957 0.04243,0.193286 -0.08015,0.231001 -0.122572,0.04243 -0.212143,-0.02357 -0.249857,-0.127286 -0.08486,-0.231001 -0.136715,-0.47143 -0.221573,-0.702431 -0.05657,-0.155572 0.132001,-0.188572 0.24043,-0.216858 0.240429,-0.07071 0.485573,-0.122572 0.726002,-0.174429 0.282858,-0.06129 0.330002,-0.231001 0.240429,-0.471431 -0.02357,-0.066 -0.04243,-0.136715 -0.06129,-0.207429 0.03772,0.01886 0.103716,0.03772 0.103716,0.05185 -0.05658,0.443145 0.325287,0.77786 0.282859,1.216291 z"
   id="path1829" /><path
   style="stroke-width:0.47143"
   class="st0"
   d="m 53.356547,84.816738 c -0.09428,-0.01415 -0.183858,-0.02357 -0.221573,0.099 -0.06129,0.207428 -0.179143,0.391287 -0.264,0.589287 -0.099,0.226286 -0.01886,0.287573 0.174429,0.33943 0.160286,0.03772 0.320572,0.08486 0.462002,0.179143 0.08957,0.05658 0.155572,0.108427 0.113139,0.221573 -0.04243,0.122571 -0.136715,0.108427 -0.231001,0.07543 -0.231,-0.08486 -0.462001,-0.17443 -0.697716,-0.264002 -0.165001,-0.06129 -0.099,-0.169715 -0.05658,-0.273429 0.122571,-0.292287 0.240429,-0.589288 0.367716,-0.881575 0.02357,-0.06129 0.04243,-0.117862 0.0094,-0.179143 0.122571,0.01415 0.254572,-0.01886 0.344144,0.09428 z"
   id="path1831" /><path
   style="stroke-width:0.47143"
   class="st0"
   d="m 71.233183,62.932946 c -0.363002,0.04243 -0.570431,0.330001 -0.834432,0.523287 -0.09429,0.066 0.0094,0.122572 0.04243,0.174429 0.113138,0.169715 0.282857,0.297002 0.367716,0.495002 0.03772,0.08486 0.07071,0.146143 -0.01415,0.212144 -0.09429,0.07071 -0.183858,0.04243 -0.245143,-0.03301 -0.160288,-0.198001 -0.311144,-0.40543 -0.466716,-0.608145 -0.09429,-0.117862 0.01415,-0.160286 0.08486,-0.212144 0.30643,-0.240429 0.660002,-0.414858 0.919288,-0.71186 0.08486,0.01415 0.127287,0.07543 0.146144,0.160287 z"
   id="path1833" /><path
   style="stroke-width:0.47143"
   class="st0"
   d="m 58.495137,75.637992 c -0.264001,0.202714 -0.396001,0.50443 -0.575145,0.76843 -0.07543,0.113139 0.07543,0.17443 0.155572,0.226287 0.146144,0.099 0.297002,0.179144 0.447858,0.27343 0.08957,0.05657 0.132001,0.136715 0.07071,0.235715 -0.066,0.099 -0.150857,0.08957 -0.240429,0.033 -0.07543,-0.05186 -0.165001,-0.08957 -0.24043,-0.14143 -0.546859,-0.391287 -0.546859,-0.391287 -0.122571,-0.933432 0.122571,-0.160286 0.268715,-0.306428 0.325287,-0.509144 0.06129,-0.0047 0.132,-0.01886 0.179143,0.04714 z"
   id="path1835" /><path
   style="stroke-width:0.47143"
   class="st0"
   d="m 62.903009,70.070399 c -0.07542,-0.216857 0.268716,-0.254572 0.20743,-0.466716 0.150858,-0.08486 0.127287,0.08957 0.193287,0.127287 -0.193287,0.04243 -0.249859,0.249858 -0.405431,0.330001 z"
   id="path1837" /><path
   style="stroke-width:0.47143"
   class="st0"
   d="m 95.04041,55.243918 c 0,0.372429 0,0.74486 0.0047,1.112576 -0.08486,-0.367716 -0.08015,-0.740147 -0.0047,-1.112576 z"
   id="path1839" /><path
   style="stroke-width:0.47143"
   class="st0"
   d="m 83.641227,58.350644 c 0.03772,-0.165 0.04243,-0.330002 0.01415,-0.499717 0.169716,0.174429 0.198001,0.344145 -0.01415,0.499717 z"
   id="path1841" /><path
   style="stroke-width:0.47143"
   class="st0"
   d="m 83.245226,56.441351 c -0.08015,-0.07071 -0.103716,-0.160286 -0.09428,-0.264001 0.113139,0.06129 0.132001,0.155572 0.09428,0.264001 z"
   id="path1843" /><path
   style="stroke-width:0.47143"
   class="st0"
   d="m 95.120555,56.601637 c 0.066,0.01886 0.103715,0.07071 0.136714,0.127287 -0.08957,0.0047 -0.136714,-0.033 -0.136714,-0.127287 z"
   id="path1845" /><path
   style="stroke-width:0.47143"
   class="st0"
   d="m 95.681556,52.943338 c -0.06129,0.01415 -0.122572,0.02828 -0.183858,0.04243 0.05185,-0.05658 0.122572,-0.04243 0.183858,-0.04243 z"
   id="path1847" /><path
   style="stroke-width:0.47143"
   class="st0"
   d="m 58.117993,75.406991 c -0.05185,-0.02357 -0.099,-0.05186 -0.150858,-0.07543 0.06129,0.0047 0.127286,0 0.150858,0.07543 z"
   id="path1849" /><path
   style="stroke-width:0.47143"
   class="st0"
   d="m 53.479119,84.911024 c -0.05185,0.0094 -0.09428,-0.0047 -0.099,-0.066 0.03772,0.01886 0.066,0.04243 0.099,0.066 z"
   id="path1851" /><path
   style="stroke-width:0.47143"
   class="st0"
   d="m 58.179279,75.468276 c -0.04714,0 -0.066,-0.02828 -0.07071,-0.066 0.02357,0.02357 0.04714,0.04714 0.07071,0.066 z"
   id="path1853" /><path
   style="stroke-width:0.47143"
   class="st0"
   d="m 63.511155,69.905399 c -0.03301,0 -0.05658,-0.0047 -0.06129,-0.04714 0.02357,0.01886 0.04243,0.03301 0.06129,0.04714 z"
   id="path1855" /><path
   style="stroke-width:0.47143"
   class="st0"
   d="m 63.44987,69.858257 c -0.04714,0.0047 -0.05658,-0.02357 -0.066,-0.06129 0.02357,0.02357 0.04714,0.04243 0.066,0.06129 z"
   id="path1857" /><polygon
   transform="matrix(0.47143026,0,0,0.47143026,-58.890998,-6.480446)"
   class="st0"
   points="275.59,146.67 275.61,146.68 275.57,146.69 "
   id="polygon1859" /><path
   style="stroke-width:0.47143"
   class="st0"
   d="m 95.389269,56.79021 0.02357,-0.0094 0.01886,0.01886 c -0.01886,-0.0047 -0.02828,-0.0047 -0.04243,-0.0094 z"
   id="path1861" /><path
   style="stroke-width:0.47143"
   class="st0"
   d="m 52.918117,84.661166 c -0.02828,-0.01886 -0.05658,-0.033 -0.08486,-0.05185 0.02828,0.01886 0.05657,0.03301 0.08486,0.05185 z"
   id="path1863" /><path
   style="stroke-width:0.47143"
   class="st0"
   d="m 52.979402,84.703596 c -0.03772,0.0094 -0.05658,0 -0.05658,-0.04243 0.01886,0.01415 0.03772,0.02828 0.05658,0.04243 z"
   id="path1865" /><path
   style="stroke-width:0.47143"
   class="st0"
   d="m 58.249993,75.515419 c -0.02357,-0.01886 -0.05185,-0.03301 -0.07543,-0.05185 0.02357,0.01886 0.04714,0.03772 0.07543,0.05185 z"
   id="path1867" /><path
   style="stroke-width:0.47143"
   class="st0"
   d="m 13.327398,74.977989 c -0.0047,0 -0.01415,0.0047 -0.01886,0.0047 -0.0047,-0.0094 -0.0094,-0.01886 -0.0094,-0.02828 0.0047,-0.03301 0.01886,-0.03301 0.033,-0.0094 0,0.0094 -0.0047,0.02357 -0.0047,0.033 z"
   id="path1869" /><path
   style="stroke-width:0.47143"
   class="st0"
   d="m 86.036093,57.29464 c 0.0047,0.08486 -0.0047,0.150858 -0.099,0.174429 -0.08015,0.02357 -0.146143,0.01415 -0.188572,-0.06129 -0.03772,-0.06129 -0.07543,-0.127286 -0.09428,-0.193286 -0.155572,-0.660003 -0.30643,-1.324719 -0.462002,-1.984721 -0.033,-0.14143 -0.09428,-0.325288 0.099,-0.363002 0.179143,-0.03301 0.216858,0.165 0.245144,0.297001 0.113139,0.480859 0.212144,0.966432 0.325287,1.447291 0.05658,0.231 0.117863,0.457287 0.17443,0.683574 z"
   id="path1871" /><path
   style="stroke-width:0.47143"
   class="st0"
   d="m 51.895114,85.721885 c -0.249859,-0.103716 -0.518574,-0.212144 -0.782574,-0.334716 -0.05185,-0.02357 -0.05185,-0.108427 -0.03301,-0.169715 0.02357,-0.07071 0.08486,-0.08957 0.150858,-0.08015 0.278144,0.04243 0.532716,0.160286 0.77786,0.287572 0.08486,0.04243 0.06129,0.122572 0.03301,0.188572 -0.02357,0.05657 -0.04714,0.117862 -0.146144,0.108427 z"
   id="path1873" /><path
   style="stroke-width:0.47143"
   class="st0"
   d="m 69.856606,62.909374 c -0.0047,0.07071 -0.05657,0.103715 -0.113138,0.132001 -0.07543,0.033 -0.136715,0.03772 -0.193287,-0.03301 -0.146143,-0.198 -0.297001,-0.391287 -0.452572,-0.584573 -0.06129,-0.07543 -0.08486,-0.141429 0.0047,-0.212144 0.07543,-0.05658 0.165001,-0.08486 0.226287,-0.01415 0.179143,0.212144 0.339429,0.43843 0.509145,0.655287 0.0094,0.0094 0.01415,0.03301 0.01886,0.05658 z"
   id="path1875" /><path
   style="stroke-width:0.47143"
   class="st0"
   d="m 57.231704,76.137707 c -0.066,0.08486 -0.07543,0.249858 -0.235715,0.165001 -0.235715,-0.122573 -0.462002,-0.259287 -0.67886,-0.40543 -0.07543,-0.05186 -0.09429,-0.155572 -0.02828,-0.249858 0.05186,-0.066 0.127286,-0.07543 0.193286,-0.03772 0.226287,0.136715 0.447859,0.278143 0.669432,0.424287 0.033,0.02357 0.05185,0.06129 0.08014,0.103716 z"
   id="path1877" /><path
   style="stroke-width:0.47143"
   class="st0"
   d="m 62.898295,70.060971 c -0.320572,0.429002 -0.320572,0.429002 0.099,0.768431 0.066,0.05186 0.127287,0.103716 0.188573,0.160287 0.08486,0.07543 0.09429,0.155572 0.0094,0.240429 -0.07071,0.07543 -0.141429,0.06129 -0.216858,-0.0047 -0.108427,-0.09429 -0.235715,-0.165002 -0.334715,-0.268716 -0.108427,-0.113138 -0.363002,-0.183857 -0.297001,-0.339429 0.099,-0.231001 0.287573,-0.438431 0.513859,-0.584574 0.0047,-0.0047 0.02828,0.02357 0.04243,0.03772 z"
   id="path1879" /><path
   style="stroke-width:0.47143"
   class="st0"
   d="m 61.243575,69.382112 c 0.01886,0.01415 0.066,0.03772 0.103716,0.07071 0.179143,0.150857 0.353572,0.306429 0.537429,0.452572 0.099,0.08015 0.08015,0.155572 0.02357,0.235715 -0.07071,0.108428 -0.150856,0.07543 -0.231001,0.0094 -0.179143,-0.150858 -0.363,-0.297002 -0.546859,-0.447859 -0.07543,-0.06129 -0.08486,-0.14143 -0.05185,-0.221573 0.02357,-0.05186 0.066,-0.103715 0.165,-0.099 z"
   id="path1881" /><path
   style="stroke-width:0.47143"
   class="st0"
   d="m 82.00065,56.776066 c -0.108427,0.0094 -0.160286,-0.02828 -0.17443,-0.113138 -0.04243,-0.221572 -0.108427,-0.43843 -0.202714,-0.650573 -0.04243,-0.099 -0.01415,-0.183859 0.108427,-0.20743 0.099,-0.01886 0.188572,-0.01415 0.226287,0.103715 0.07543,0.235715 0.103715,0.480858 0.216858,0.707145 0.07543,0.150858 -0.122572,0.113139 -0.17443,0.160286 z"
   id="path1883" /><path
   style="stroke-width:0.47143"
   class="st0"
   d="m 96.39813,55.663491 c 0.0047,0.113139 0.01415,0.226287 0.01415,0.339429 0,0.103716 -0.04243,0.188573 -0.155572,0.193287 -0.099,0 -0.183859,-0.066 -0.193287,-0.165 -0.01886,-0.235715 -0.03301,-0.476145 -0.01886,-0.71186 0.0047,-0.132001 0.146144,-0.179144 0.254572,-0.183858 0.127287,-0.0094 0.08486,0.117863 0.08957,0.188572 0.0094,0.113138 0,0.226287 0,0.33943 0.0094,0 0.0094,0 0.0094,0 z"
   id="path1885" /><path
   style="stroke-width:0.47143"
   class="st0"
   d="m 95.983272,54.032342 c 0.0047,-0.113138 -0.02828,-0.264001 0.03301,-0.400716 0.066,-0.146143 0.165,-0.179143 0.278143,-0.033 0.127286,0.160286 0.07543,0.660002 -0.07543,0.792002 -0.05658,0.04714 -0.108428,0.117862 -0.183858,0.08486 -0.07543,-0.03772 -0.02828,-0.127287 -0.04243,-0.193287 -0.0047,-0.07543 -0.0047,-0.150858 -0.0094,-0.249858 z"
   id="path1887" />
</svg>
