<?xml version="1.0" encoding="utf-8"?>
<!-- Generator: Adobe Illustrator 23.0.2, SVG Export Plug-In . SVG Version: 6.00 Build 0)  -->
<svg version="1.1" id="Layer_1" xmlns="http://www.w3.org/2000/svg" xmlns:xlink="http://www.w3.org/1999/xlink" x="0px" y="0px"
	 viewBox="0 0 120 120" style="enable-background:new 0 0 120 120;" xml:space="preserve">
<style type="text/css">
	.st0{fill:#1E2856;}
	.st1{fill:#FFFFFF;}
	.st2{fill:#0DABE3;}
</style>
<path id="XMLID_95_" class="st0" d="M100.35,59.9c0,27.56-18.25,49.9-40.78,49.9S18.8,87.46,18.8,59.9S37.05,10,59.58,10
	C82.11,10,100.35,32.34,100.35,59.9z"/>
<path id="XMLID_96_" class="st1" d="M98.49,59.9c0,26.25-17.32,47.48-38.91,47.48c-21.41,0-38.73-21.23-38.73-47.48
	s17.32-47.48,38.73-47.48C81.18,12.42,98.49,33.65,98.49,59.9z"/>
<path id="XMLID_97_" class="st0" d="M89.74,60.09c0,21.6-13.41,39.1-29.98,39.1s-29.98-17.5-29.98-39.1s13.41-39.1,29.98-39.1
	S89.74,38.49,89.74,60.09z"/>
<path id="XMLID_98_" class="st0" d="M30.72,32.72l1.49,0.74v0.19c-0.37-0.19-0.74-0.19-1.12,0c-0.37,0.19-0.56,0.37-0.74,0.56
	c-0.19,0.19-0.19,0.37,0,0.56c0,0.19,0.19,0.37,0.37,0.37h0.37l0.37-0.19c0.19,0,0.37-0.19,0.74-0.56c0.56-0.37,0.93-0.56,1.3-0.56
	c0.37,0,0.56,0,0.93,0.19c0.37,0.19,0.56,0.56,0.74,0.93s0,0.93-0.19,1.3l-0.19,0.37L34.44,37l-0.19,0.19v0.19l0.19,0.19v0.19
	l-1.68-0.93v-0.19c0.56,0.19,0.93,0.19,1.3,0s0.56-0.37,0.74-0.74C35,35.69,35,35.51,35,35.14c0-0.19-0.19-0.37-0.37-0.37h-0.37
	l-0.37,0.19c-0.19,0-0.37,0.19-0.56,0.37c-0.37,0.37-0.74,0.56-0.93,0.56c-0.19,0.19-0.37,0.19-0.74,0.19c-0.19,0-0.37,0-0.56-0.19
	c-0.37-0.19-0.56-0.37-0.74-0.74s0-0.74,0.19-1.12l0.19-0.37l0.37-0.37l0.19-0.19V32.9L30.72,32.72L30.72,32.72z"/>
<path id="XMLID_99_" class="st0" d="M32.77,30.3l1.68,1.12l0,0c0.19-0.19,0.19-0.56,0.19-0.74c0-0.19-0.19-0.37-0.56-0.74v-0.19
	l2.05,1.49v0.19c-0.19-0.19-0.37-0.19-0.74-0.19c-0.19,0-0.37,0-0.56,0c-0.19,0-0.19,0.19-0.37,0.37l1.12,0.74
	c0.19,0.19,0.37,0.19,0.37,0.19h0.19l0.19-0.19l0.19-0.19c0.19-0.37,0.37-0.74,0.37-1.12c0-0.37-0.19-0.74-0.37-0.93v-0.19
	l1.12,1.12l-2.42,3.54H35v-0.19l0.19-0.37v-0.19c0,0-0.19-0.19-0.37-0.37l-2.61-1.86l-0.37-0.19h-0.19l-0.37,0.19v0.19h-0.19
	l2.23-3.35l1.12,0.74v0.19c-0.37-0.19-0.56-0.19-0.74-0.19c-0.19,0-0.37,0.19-0.56,0.19c-0.19,0-0.19,0.37-0.56,0.56L32.77,30.3z"/>
<path id="XMLID_100_" class="st0" d="M36.12,25.83l1.49,1.3l0,0c0.19-0.19,0.19-0.37,0.19-0.74c0-0.19-0.19-0.56-0.37-0.74v-0.19
	l1.86,1.68v0.19c-0.19-0.19-0.37-0.19-0.56-0.37c-0.19,0-0.37,0-0.56,0l-0.37,0.37l0.93,0.93c0.19,0.19,0.37,0.37,0.37,0.37h0.19
	l0.19-0.19l0.19-0.19c0.37-0.37,0.56-0.74,0.56-0.93c0-0.37,0-0.74-0.37-1.12v-0.19l0.93,1.12l-2.79,3.17h-0.19l0.19-0.19l0.19-0.37
	v-0.19c0,0-0.19-0.19-0.37-0.37l-2.42-2.05L35,26.94h-0.19l-0.37,0.19l-0.19,0.19h-0.19l2.79-2.98l1.12,0.93v0.19
	c-0.37-0.19-0.56-0.19-0.74-0.37c-0.19,0-0.37,0-0.56,0.19C36.49,25.27,36.3,25.45,36.12,25.83L36.12,25.83z"/>
<path id="XMLID_101_" class="st0" d="M42.08,22.48l2.61,0.56c0.37,0,0.74,0.19,0.93,0l0.37-0.19v0.19l-2.05,1.49v-0.19l0.19-0.19
	v-0.19c0,0-0.19-0.19-0.56-0.19l-1.68-0.37v0.19l0.74,1.12c0.19,0.19,0.19,0.37,0.37,0.37h0.19l0.37-0.19v0.19l-1.86,1.49v-0.19
	l0.19-0.19l0.19-0.19v-0.19c0,0-0.19-0.19-0.19-0.37l-2.05-2.42c-0.19-0.19-0.19-0.37-0.37-0.37h-0.19l-0.37,0.19l-0.19,0.19v-0.19
	l1.86-1.49v0.19l-0.19,0.37v0.19c0,0,0.19,0.19,0.19,0.37l0.93,1.12l0.56-2.23c0-0.37,0-0.56,0-0.56h-0.19l-0.37,0.19V20.8
	l1.49-1.12v0.19l-0.19,0.37c0,0.19-0.19,0.37-0.19,0.74L42.08,22.48z"/>
<path id="XMLID_102_" class="st0" d="M49.15,18.19l2.42,1.3c0.37,0.19,0.56,0.37,0.74,0.37h0.37v0.19l-2.23,0.93V20.8l0.19-0.19
	v-0.19c0,0-0.19-0.19-0.56-0.37l-1.49-0.93l-0.19,0.19l0.56,1.3c0.19,0.19,0.19,0.37,0.19,0.37h0.19l0.37-0.19v0.19l-2.23,0.93
	v-0.19h0.19l0.37-0.19v-0.19c0,0,0-0.19-0.19-0.37l-1.3-2.98c0-0.19-0.19-0.37-0.19-0.37h-0.19H45.8h-0.19v-0.19l2.23-0.93v0.19
	v0.37v0.19c0,0,0,0.19,0.19,0.37l0.56,1.3l1.12-2.05c0.19-0.37,0.19-0.56,0.19-0.56l-0.19-0.19c0,0-0.19,0-0.37,0.19v-0.19
	l1.68-0.74v0.19l-0.37,0.19c0,0-0.19,0.37-0.37,0.74L49.15,18.19z"/>
<path id="XMLID_103_" class="st0" d="M53.99,14.65l2.79,2.61l-0.37-2.05c0-0.37-0.19-0.56-0.19-0.56c-0.19-0.19-0.37-0.19-0.56-0.19
	v-0.19l1.49-0.19v0.19c-0.19,0-0.37,0.19-0.37,0.19l-0.19,0.19c0,0.19,0,0.19,0,0.56l0.74,3.91h-0.19l-3.91-3.35l0.56,2.98
	c0,0.37,0.19,0.37,0.37,0.56h0.37h0.19v0.19l-1.68,0.37v-0.19c0.19,0,0.37-0.19,0.56-0.19c0-0.19,0.19-0.37,0-0.56l-0.56-3.35
	l-0.19-0.19l-0.37-0.19h-0.37v-0.19L53.99,14.65z"/>
<path id="XMLID_106_" class="st0" d="M61.63,14.1c0.74,0,1.3,0.37,1.86,0.74c0.37,0.56,0.74,1.12,0.56,1.86
	c0,0.56-0.19,1.12-0.56,1.49c-0.56,0.56-1.12,0.93-2.05,0.74c-0.93,0-1.49-0.37-2.05-0.93c-0.37-0.56-0.56-1.12-0.37-1.68
	c0-0.74,0.37-1.3,0.93-1.68C60.32,14.28,60.88,14.1,61.63,14.1z M61.63,14.47c-0.37,0-0.74,0.19-1.12,0.56
	c-0.19,0.37-0.37,0.93-0.37,1.49c0,0.74,0,1.49,0.37,1.86c0.19,0.37,0.37,0.37,0.74,0.56c0.19,0,0.37,0,0.56-0.19
	c0.19-0.19,0.37-0.37,0.56-0.74c0.19-0.37,0.19-0.74,0.19-1.3c0-0.56,0-1.12,0-1.49s-0.19-0.56-0.37-0.74
	C62.18,14.47,62,14.47,61.63,14.47z"/>
<path id="XMLID_107_" class="st0" d="M72.98,17.08L72.98,17.08l-0.37,0.19l-0.19,0.19c0,0-0.19,0.19-0.37,0.37l-2.79,3.17h-0.19
	v-3.35l-2.23,2.42h-0.19l-0.19-4.28c0-0.37,0-0.74,0-0.74l-0.19-0.19v-0.19l2.05,0.74v0.19h-0.37l-0.19,0.19c0,0,0,0.37,0,0.56
	l0.19,2.61l1.3-1.49v-0.56c0-0.37,0-0.56,0-0.56l-0.19-0.19l-0.37-0.19v-0.19l2.23,0.74v0.19h-0.37h-0.19v0.19c0,0,0,0.19,0,0.56
	v2.42l1.49-1.68l0.37-0.37l0.19-0.19v-0.19l-0.37-0.19v-0.19L72.98,17.08z"/>
<path id="XMLID_108_" class="st0" d="M76.33,23.03l-1.12,1.3l-3.54-2.42v-0.19h0.19l0.37,0.19h0.19c0,0,0.19-0.19,0.37-0.37
	l1.68-2.61c0.19-0.19,0.19-0.37,0.19-0.37v-0.19l-0.19-0.19h-0.19v-0.19l2.23,1.49v0.19l-0.19-0.19l-0.37-0.19h-0.19
	c0,0-0.19,0.19-0.19,0.37l-1.68,2.61c-0.19,0.19-0.19,0.37-0.19,0.37v0.19c0,0,0.19,0.19,0.37,0.19l0.37,0.19
	c0.19,0.19,0.37,0.19,0.56,0.19c0.19,0,0.37,0,0.56-0.19C75.59,23.41,75.96,23.22,76.33,23.03L76.33,23.03z"/>
<path id="XMLID_109_" class="st0" d="M80.43,22.85l-1.3,1.49l0,0c0.19,0.19,0.37,0.37,0.74,0.19c0.19,0,0.56-0.19,0.74-0.37
	l0.19,0.19l-1.68,1.86l-0.19-0.19c0.19-0.19,0.19-0.37,0.37-0.56c0-0.19,0-0.37,0-0.56l-0.37-0.37l-0.93,0.93
	c-0.19,0.19-0.37,0.37-0.37,0.37v0.19l0.19,0.19l0.19,0.19c0.37,0.37,0.74,0.56,0.93,0.56c0.37,0,0.74,0,1.12-0.37l0,0l-1.12,0.93
	l-2.98-2.79v-0.19l0.19,0.19l0.37,0.19h0.19l0.37-0.37l2.23-2.23l0.19-0.37v-0.19l-0.19-0.37l-0.19-0.19v-0.19l2.98,2.79l-0.93,1.12
	h-0.19c0.19-0.37,0.37-0.56,0.37-0.74c0-0.19,0-0.37-0.19-0.56c0-0.19-0.19-0.37-0.56-0.56L80.43,22.85z"/>
<path id="XMLID_112_" class="st0" d="M79.69,28.43L79.69,28.43h0.19l0.19,0.19h0.19c0,0,0.19-0.19,0.37-0.19l2.42-2.05
	c0.19-0.19,0.37-0.19,0.37-0.37v-0.19l-0.19-0.37l-0.19-0.19h0.19l1.3,1.68c0.37,0.37,0.56,0.93,0.74,1.3c0.19,0.37,0,0.93,0,1.3
	c-0.19,0.37-0.37,0.74-0.74,1.12c-0.19,0.19-0.56,0.37-0.93,0.37s-0.56,0.19-0.74,0.19c-0.19,0-0.56,0-0.74-0.19
	c-0.19-0.19-0.56-0.19-0.74-0.56c-0.19-0.19-0.19-0.19-0.37-0.56L79.69,28.43z M84.53,27.13l-2.98,2.23l-0.37,0.19v0.19l0.19,0.19
	c0.19,0.37,0.56,0.56,0.93,0.37c0.37,0,0.93-0.19,1.68-0.74c0.56-0.37,0.74-0.74,0.93-1.12c0.19-0.37,0.19-0.56,0.19-0.74
	C84.9,27.69,84.71,27.5,84.53,27.13z"/>
<path id="XMLID_113_" class="st0" d="M89.93,34.76l-1.49,0.93v-0.19c0.37-0.37,0.56-0.74,0.56-1.12c0-0.37,0-0.74-0.19-1.12
	c-0.19-0.37-0.37-0.56-0.74-0.56c-0.37-0.19-0.56-0.19-0.93,0c-0.37,0-0.74,0.19-1.12,0.37c-0.37,0.19-0.74,0.56-0.93,0.74
	c-0.19,0.19-0.37,0.56-0.37,0.93c0,0.37,0,0.56,0.19,0.93l0.19,0.37l0.37,0.19l0.93-0.56l0.37-0.19v-0.19v-0.37v-0.19h0.19
	l1.12,2.05h-0.19l-0.19-0.37h-0.19l-0.37,0.19l-0.93,0.56c-0.19-0.19-0.56-0.37-0.74-0.74c-0.19-0.19-0.37-0.56-0.56-0.93
	c-0.19-0.37-0.37-0.74-0.37-1.12c0-0.37,0-0.56,0-0.93c0-0.37,0.19-0.56,0.37-0.74c0.19-0.37,0.56-0.56,0.74-0.74
	c0.56-0.37,1.3-0.37,2.05-0.19c0.74,0.19,1.3,0.56,1.68,1.3c0.19,0.19,0.19,0.37,0.19,0.56c0,0.19,0,0.19,0.19,0.56
	c0,0.19,0,0.37,0,0.37L89.93,34.76L89.93,34.76L89.93,34.76z"/>
<path id="XMLID_114_" class="st0" d="M91.04,38.3l-1.86,0.74l0,0c0.19,0.37,0.37,0.37,0.56,0.56c0.19,0,0.56,0,0.93,0v0.19
	l-2.42,0.93v-0.19c0.19-0.19,0.37-0.19,0.56-0.37L89,39.79c0-0.19,0-0.37-0.19-0.56l-1.3,0.56c-0.19,0.19-0.37,0.19-0.37,0.19v0.19
	v0.37l0.19,0.19c0.19,0.37,0.37,0.74,0.74,0.93c0.37,0.19,0.74,0.19,1.12,0.19v0.19l-1.49,0.37l-1.49-3.91h0.19v0.19l0.19,0.37h0.19
	c0,0,0.19,0,0.37-0.19l2.98-1.12c0.19,0,0.37-0.19,0.37-0.19l0.19-0.19V37v-0.19h0.19l1.49,3.72l-1.3,0.56v-0.19
	c0.37-0.19,0.56-0.37,0.56-0.56c0-0.19,0.19-0.37,0.19-0.56c0-0.19,0-0.37-0.19-0.74L91.04,38.3z"/>
<path id="XMLID_115_" class="st0" d="M27.74,62.69l-2.98,2.98l2.23-0.19c0.37,0,0.56-0.19,0.56-0.19c0.19-0.19,0.19-0.37,0.19-0.56
	h0.19l0.19,1.68h-0.19c0-0.19-0.19-0.37-0.19-0.37l-0.19-0.19c-0.19,0-0.37,0-0.56,0l-4.47,0.56v-0.19l3.91-4.1l-3.35,0.37
	c-0.37,0-0.56,0.19-0.56,0.19c0,0.19-0.19,0.37-0.19,0.56v0.19h-0.19l-0.19-1.86h0.19c0,0.37,0.19,0.56,0.19,0.56
	c0.19,0.19,0.37,0.19,0.56,0.19l3.72-0.37l0.19-0.19l0.19-0.37v-0.37h0.19L27.74,62.69z"/>
<path id="XMLID_118_" class="st0" d="M28.86,69.21c0.19,0.74,0.19,1.49-0.37,2.23c-0.37,0.56-0.93,0.93-1.68,1.12s-1.3,0-1.86-0.19
	c-0.74-0.37-1.3-0.93-1.49-1.86c-0.19-0.93,0-1.68,0.56-2.42c0.37-0.56,0.93-0.74,1.68-0.93c0.74-0.19,1.49,0,2.05,0.37
	C28.3,67.91,28.67,68.46,28.86,69.21z M28.67,69.4c-0.19-0.56-0.37-0.74-0.93-0.93c-0.37-0.19-1.12-0.19-1.86,0
	c-0.93,0.19-1.49,0.56-1.86,0.93c-0.19,0.19-0.37,0.56-0.19,0.93c0,0.19,0.19,0.56,0.37,0.56c0.19,0.19,0.56,0.37,0.93,0.37
	c0.37,0,0.93,0,1.49-0.19c0.74-0.19,1.12-0.37,1.49-0.56c0.37-0.19,0.56-0.37,0.56-0.56C28.67,69.77,28.67,69.58,28.67,69.4z"/>
<path id="XMLID_121_" class="st0" d="M27.18,74.98l-1.49,0.37c-0.19,0-0.37,0.19-0.56,0.19l-0.19,0.19c0,0.19,0,0.19,0.19,0.56
	h-0.19l-0.74-2.61h0.19c0,0.19,0.19,0.37,0.19,0.37l0.19,0.19c0,0,0.19,0,0.56-0.19l3.35-1.12c0.19,0,0.37-0.19,0.56-0.19l0.19-0.19
	c0-0.19,0-0.19,0-0.56h0.19l0.74,2.42c0.19,0.56,0.37,1.12,0.37,1.3c0,0.37,0,0.56-0.19,0.93c-0.19,0.19-0.37,0.37-0.74,0.56
	c-0.37,0.19-0.74,0-1.12-0.19c-0.19-0.19-0.37-0.37-0.56-0.56l-1.3,1.68c-0.19,0.19-0.19,0.37-0.37,0.56v0.37h-0.19l-0.56-1.68
	l1.68-2.42L27.18,74.98z M29.79,74.24l-2.23,0.74v0.19c0.19,0.37,0.19,0.56,0.37,0.74c0.19,0.19,0.19,0.19,0.56,0.37
	c0.19,0,0.37,0,0.74,0c0.37-0.19,0.56-0.37,0.74-0.56c0.19-0.19,0.19-0.56,0-0.93L29.79,74.24z"/>
<path id="XMLID_122_" class="st0" d="M33.14,81.87l-1.3,0.56v-0.19c0.19-0.19,0.37-0.37,0.56-0.56c0-0.19,0.19-0.37,0.19-0.56
	c0-0.19,0-0.19-0.19-0.56l-0.19-0.37l-3.72,1.68c-0.19,0.19-0.37,0.19-0.37,0.19v0.19v0.37v0.19h-0.19l-1.12-2.61h0.19v0.19
	l0.19,0.37h0.19c0,0,0.19,0,0.56-0.19l3.72-1.68l-0.19-0.37c-0.19-0.37-0.37-0.56-0.56-0.56c-0.37-0.19-0.56-0.19-0.93,0v-0.19
	l1.3-0.56L33.14,81.87z"/>
<path id="XMLID_123_" class="st0" d="M31.83,85.22l-1.49,0.93c-0.19,0.19-0.37,0.19-0.37,0.37v0.19l0.19,0.37l0.19,0.19h-0.19
	l-1.49-2.42h0.19v0.19l0.19,0.19h0.19c0,0,0.19,0,0.37-0.19l2.98-1.86c0.19-0.19,0.37-0.19,0.37-0.37v-0.19l-0.19-0.37l-0.19-0.19
	h0.19l1.49,2.42h-0.19v-0.19l-0.19-0.19H33.7c0,0-0.19,0-0.37,0.19l-1.3,0.74l0.93,1.68l1.3-0.74c0.19-0.19,0.37-0.19,0.37-0.37
	v-0.19l-0.19-0.37v-0.19h0.19l1.49,2.42h-0.19v-0.19l-0.19-0.19h-0.19c0,0-0.19,0-0.37,0.19l-2.98,1.86
	c-0.19,0.19-0.37,0.19-0.37,0.37v0.19l0.19,0.37v0.19h-0.19l-1.49-2.42h0.19v0.19l0.19,0.19h0.19c0,0,0.19,0,0.37-0.19l1.49-0.74
	L31.83,85.22z"/>
<path id="XMLID_124_" class="st0" d="M41.14,92.67l-1.3,1.3l-0.19-0.19c0.19-0.37,0.37-0.74,0.37-1.12c0-0.37-0.19-0.74-0.37-0.93
	s-0.37-0.37-0.56-0.37c-0.19,0-0.37,0-0.56,0.19l-0.19,0.19c0,0.19,0,0.37,0,0.56c0,0.19,0.19,0.37,0.19,0.93
	c0.19,0.74,0.37,1.12,0.19,1.49c0,0.37-0.19,0.56-0.37,0.93c-0.37,0.37-0.74,0.37-1.12,0.37c-0.56,0-0.93-0.19-1.3-0.56l-0.37-0.37
	c0-0.19-0.19-0.37-0.19-0.56l-0.19-0.37L35,93.97h-0.37l-0.19-0.19l1.49-1.3v0.19c-0.37,0.56-0.56,0.93-0.56,1.3
	c0,0.37,0.19,0.74,0.37,1.12c0.19,0.19,0.37,0.37,0.56,0.37c0.19,0,0.37,0,0.56-0.19l0.19-0.37v-0.37c0-0.19,0-0.37-0.19-0.74
	c-0.19-0.56-0.19-0.93-0.19-1.12c0-0.19,0-0.56,0-0.74s0.19-0.37,0.37-0.56c0.37-0.37,0.74-0.37,1.12-0.37
	c0.37,0,0.74,0.19,1.12,0.56l0.37,0.37c0,0.19,0.19,0.19,0.19,0.37c0,0.19,0.19,0.37,0.19,0.37h0.19H41.14L41.14,92.67z"/>
<path id="XMLID_127_" class="st0" d="M43.75,95.09c0.74,0.56,1.12,1.12,1.12,1.86s-0.19,1.49-0.56,2.05
	c-0.37,0.56-0.93,0.93-1.49,1.12c-0.74,0.19-1.68,0-2.42-0.56c-0.74-0.56-1.12-1.3-1.12-2.05s0.19-1.3,0.56-1.86
	c0.56-0.56,1.12-0.93,1.86-1.12C42.45,94.35,43.01,94.53,43.75,95.09z M43.56,95.28c-0.37-0.37-0.74-0.37-1.3-0.19
	c-0.37,0.19-0.93,0.56-1.3,1.12c-0.56,0.74-0.93,1.3-0.93,1.86c0,0.37,0.19,0.74,0.37,0.93c0.19,0.19,0.37,0.19,0.56,0.19
	c0.37,0,0.56,0,0.93-0.37c0.37-0.19,0.74-0.56,1.12-0.93c0.37-0.56,0.74-0.93,0.74-1.3c0.19-0.37,0.19-0.56,0-0.93
	C43.94,95.65,43.75,95.46,43.56,95.28z"/>
<path id="XMLID_128_" class="st0" d="M45.99,96.77l2.42,1.3v0.19h-0.19c-0.19-0.19-0.37-0.19-0.37-0.19h-0.19
	c0,0-0.19,0.19-0.37,0.56l-1.3,2.23c-0.19,0.37-0.37,0.74-0.37,0.93l0.19,0.56c0.19,0.19,0.19,0.37,0.56,0.37
	c0.19,0.19,0.56,0.19,0.74,0.19s0.37-0.19,0.56-0.19c0.19-0.19,0.37-0.56,0.74-0.93l0.93-1.86c0.19-0.19,0.19-0.37,0.19-0.56v-0.19
	c0-0.19-0.19-0.19-0.37-0.37v-0.19l1.68,0.93v0.19h-0.19l-0.37-0.19l-0.37,0.19c0,0-0.19,0.19-0.19,0.37l-0.93,1.86
	c-0.37,0.56-0.56,0.93-0.74,1.12c-0.19,0.19-0.56,0.37-0.93,0.37c-0.37,0-0.74,0-1.3-0.37c-0.37-0.19-0.74-0.37-0.93-0.74
	c-0.19-0.37-0.37-0.56-0.37-0.93c0-0.37,0.19-0.56,0.37-1.12l1.12-2.23c0.19-0.19,0.19-0.37,0.19-0.56v-0.19
	C46.17,97.14,45.99,97.14,45.99,96.77L45.99,96.77z"/>
<path id="XMLID_129_" class="st0" d="M55.29,100.68l-0.37,1.3h-0.19c0-0.37,0-0.56,0-0.74l-0.37-0.37c0,0-0.19-0.19-0.56-0.19
	l-0.37-0.19l-1.12,3.91c0,0.19-0.19,0.37-0.19,0.56l0.19,0.19l0.37,0.19h0.19v0.19l-2.61-0.74v-0.19h0.19h0.37l0.19-0.19
	c0,0,0.19-0.19,0.19-0.37l1.12-3.91l-0.37-0.19c-0.37-0.19-0.56-0.19-0.74,0s-0.56,0.37-0.74,0.74h-0.19l0.37-1.3L55.29,100.68z"/>
<path id="XMLID_130_" class="st0" d="M57.16,103.66l-0.19,1.68c0,0.19,0,0.37,0,0.56l0.19,0.19l0.37,0.19h0.19v0.19l-2.79-0.19
	v-0.19h0.19h0.37l0.19-0.19c0,0,0-0.19,0-0.56l0.19-3.54c0-0.19,0-0.37,0-0.56l-0.19-0.19l-0.37-0.19h-0.19v-0.19l2.79,0.19v0.19
	h-0.19h-0.37l-0.19,0.19c0,0,0,0.19,0,0.56l-0.19,1.49l1.86,0.19l0.19-1.49c0-0.19,0-0.37,0-0.56l-0.19-0.19l-0.37-0.19h-0.19v-0.19
	l2.79,0.19v0.19h-0.19h-0.37l-0.19,0.19c0,0,0,0.19,0,0.56l-0.19,3.54c0,0.19,0,0.37,0,0.56l0.19,0.19l0.37,0.19h0.19v0.19
	l-2.79-0.19v-0.19h0.19h0.37l0.19-0.19c0,0,0-0.19,0-0.56l0.19-1.68L57.16,103.66z"/>
<path id="XMLID_131_" class="st0" d="M68.14,99.75l2.42-1.12v0.19h-0.19C70.19,99,70,99,70,99v0.19c0,0,0,0.19,0.19,0.56l1.12,2.42
	c0.19,0.37,0.37,0.74,0.56,0.74c0.19,0.19,0.37,0.19,0.56,0.19c0.19,0,0.37,0,0.56-0.19c0.19-0.19,0.37-0.37,0.56-0.56
	c0.19-0.19,0.19-0.37,0.19-0.74c0-0.19-0.19-0.56-0.37-1.12l-0.93-1.86c-0.19-0.19-0.19-0.37-0.37-0.37l-0.19-0.19
	c-0.19,0-0.37,0-0.56,0.19v-0.19l1.68-0.74v0.19H72.8l-0.37,0.19v0.37c0,0,0,0.19,0.19,0.37l0.93,1.86c0.19,0.56,0.37,0.93,0.56,1.3
	c0,0.37,0,0.56-0.19,0.93c-0.19,0.37-0.56,0.56-0.93,0.93c-0.37,0.19-0.74,0.37-1.12,0.37s-0.74,0-0.93-0.19
	c-0.19-0.19-0.37-0.37-0.56-0.93l-1.12-2.42c-0.19-0.19-0.19-0.37-0.37-0.56H68.7C68.7,99.56,68.51,99.75,68.14,99.75L68.14,99.75z"
	/>
<path id="XMLID_132_" class="st0" d="M74.47,96.21l4.1,1.12l-1.3-1.86c-0.19-0.19-0.37-0.37-0.56-0.37c-0.19,0-0.37,0-0.56,0.19
	v-0.19l1.49-1.12v0.19l-0.37,0.37v0.37c0,0.19,0.19,0.19,0.19,0.56L80.06,99h-0.19l-5.59-1.49l2.05,2.79
	c0.19,0.19,0.37,0.37,0.56,0.37c0.19,0,0.37,0,0.56-0.19h0.19v0.19l-1.49,1.12v-0.19c0.19-0.19,0.37-0.37,0.37-0.56
	c0-0.19,0-0.37-0.19-0.56l-2.23-2.98h-0.19h-0.37l-0.37,0.19v-0.19L74.47,96.21z"/>
<path id="XMLID_133_" class="st0" d="M82.85,95.84L82.85,95.84l-1.86,2.05L80.8,97.7l0.19-0.19l0.19-0.37v-0.19
	c0,0-0.19-0.19-0.37-0.37l-2.42-2.61c-0.19-0.19-0.37-0.37-0.37-0.37h-0.19l-0.37,0.19l-0.19,0.19l-0.19-0.19l2.05-1.86l0.19,0.19
	l-0.19,0.19l-0.19,0.37v0.19c0,0,0.19,0.19,0.37,0.37l2.42,2.61c0.19,0.19,0.37,0.37,0.37,0.37h0.19L82.85,95.84L82.85,95.84z"/>
<path id="XMLID_134_" class="st0" d="M83.04,87.83L83.04,87.83c0,0.19,0,0.37,0,0.74c0,0.19,0.19,0.56,0.37,0.93l1.86,3.91v0.19
	l-4.47-1.3c-0.56-0.19-0.93-0.19-0.93-0.19L79.5,92.3h-0.19l1.68-1.86h0.19l0,0l-0.19,0.37v0.19h0.19c0,0,0.19,0,0.56,0.19
	l2.79,0.74l-1.3-2.23c-0.19-0.19-0.19-0.37-0.37-0.56l-0.19-0.19h-0.19h-0.19l-0.37,0.37l-0.19-0.19L83.04,87.83z"/>
<path id="XMLID_135_" class="st0" d="M84.34,86.34l1.86,1.12l0,0c0.19-0.37,0.19-0.56,0.19-0.74c-0.19-0.19-0.37-0.56-0.56-0.74
	v-0.19l2.42,1.49v0.19c-0.19-0.19-0.56-0.19-0.74-0.19c-0.19,0-0.37,0-0.56,0c-0.19,0-0.19,0.19-0.37,0.37l1.3,0.74
	c0.19,0.19,0.37,0.19,0.56,0.19h0.19l0.19-0.19L89,88.2c0.19-0.37,0.37-0.74,0.37-1.12c0-0.37-0.19-0.74-0.56-1.12v-0.19l1.3,1.12
	l-2.42,3.91h-0.19l0.19-0.19l0.19-0.37v-0.19c0,0-0.19-0.19-0.37-0.37l-2.98-1.86c-0.19-0.19-0.37-0.19-0.37-0.19h-0.19l-0.74,0.19
	l-0.19,0.19h-0.19l2.42-3.72l1.3,0.93v0.19c-0.37-0.19-0.56-0.19-0.93-0.19c-0.19,0-0.37,0.19-0.56,0.37
	c-0.19,0.19-0.37,0.37-0.56,0.56L84.34,86.34z"/>
<path id="XMLID_138_" class="st0" d="M89.18,83.17l1.3,0.56c0.19,0.19,0.37,0.19,0.56,0.19h0.19c0,0,0.19-0.19,0.19-0.37h0.19
	l-1.12,2.42H90.3c0.19-0.19,0.19-0.37,0.19-0.56v-0.19c0,0-0.19-0.19-0.37-0.37l-3.17-1.49c-0.19-0.19-0.37-0.19-0.56-0.19H86.2
	c0,0-0.19,0.19-0.19,0.37h-0.19l1.12-2.23c0.37-0.56,0.56-0.93,0.74-1.3c0.19-0.19,0.37-0.37,0.74-0.37c0.37,0,0.56,0,0.93,0.19
	c0.37,0.19,0.56,0.37,0.74,0.74c0,0.19,0,0.56,0,0.74l2.23-0.37c0.37,0,0.37-0.19,0.56-0.19l0.37-0.19h0.19l-0.74,1.49l-2.98,0.56
	L89.18,83.17z M86.76,81.87l2.05,0.93L89,82.62c0.19-0.37,0.19-0.56,0.19-0.74c0-0.19,0-0.37-0.19-0.56
	c-0.19-0.19-0.37-0.37-0.56-0.37c-0.37-0.19-0.74-0.19-0.93-0.19c-0.19,0-0.56,0.37-0.74,0.74L86.76,81.87z"/>
<path id="XMLID_139_" class="st0" d="M89.18,75.17l1.68,0.56v0.19c-0.37,0-0.93,0-1.12,0.19c-0.37,0.19-0.56,0.37-0.74,0.74
	c0,0.19-0.19,0.56,0,0.74c0,0.19,0.19,0.37,0.37,0.37h0.37l0.37-0.19c0.19,0,0.37-0.37,0.74-0.56c0.56-0.56,0.93-0.74,1.3-0.93
	s0.74-0.19,0.93,0c0.37,0.19,0.74,0.37,0.93,0.93c0.19,0.37,0.19,0.93,0,1.49l-0.19,0.37l-0.37,0.37l-0.19,0.19v0.19l0.19,0.19v0.19
	l-1.86-0.74v-0.19c0.56,0,1.12,0,1.49-0.19c0.37-0.19,0.56-0.56,0.74-0.93c0.19-0.19,0.19-0.56,0-0.74c0-0.19-0.19-0.37-0.37-0.37
	h-0.37l-0.37,0.19c-0.19,0-0.37,0.19-0.56,0.56c-0.37,0.37-0.74,0.56-0.93,0.74c-0.19,0.19-0.37,0.19-0.74,0.19
	c-0.19,0-0.37,0-0.74,0c-0.37-0.19-0.74-0.37-0.93-0.74c-0.19-0.37-0.19-0.74,0-1.3L89,76.29l0.37-0.37l0.19-0.37v-0.19L89.18,75.17
	L89.18,75.17z"/>
<path id="XMLID_140_" class="st0" d="M95.33,73.31L95.33,73.31l-0.56,2.61h-0.19v-0.19v-0.37l-0.19-0.19c0,0-0.19-0.19-0.37-0.19
	l-3.35-0.93c-0.19,0-0.37-0.19-0.56-0.19l-0.19,0.19l-0.19,0.37v0.19h-0.19L90.3,72h0.19v0.19v0.37l0.19,0.19
	c0,0,0.19,0.19,0.37,0.19l3.35,0.93c0.19,0,0.37,0.19,0.56,0.19l0.19-0.19L95.33,73.31L95.33,73.31z"/>
<path id="XMLID_141_" class="st0" d="M91.42,66.98l1.49,0.37v0.19c-0.37,0-0.56,0-0.74,0.19l-0.37,0.37c0,0-0.19,0.19-0.19,0.56
	v0.37l3.91,0.93c0.19,0,0.37,0,0.56,0l0.19-0.19l0.19-0.37v-0.19h0.19L96.07,72h-0.19v-0.19v-0.37l-0.19-0.19c0,0-0.19,0-0.56-0.19
	l-3.91-0.93v0.37c0,0.37,0,0.56,0,0.74c0.19,0.19,0.37,0.56,0.74,0.56V72l-1.49-0.37L91.42,66.98z"/>
<path id="XMLID_142_" class="st0" d="M92.16,61.2L92.16,61.2c0.19,0.19,0.19,0.37,0.19,0.37c0.19,0.19,0.37,0.37,0.74,0.74l1.86,1.3
	l1.3,0.19c0.19,0,0.37,0,0.56,0L97,63.62l0.19-0.37v-0.37h0.19L97,65.86h-0.19v-0.19V65.3l-0.19-0.19c0,0-0.19,0-0.56-0.19
	l-1.12-0.19l-2.42,0.93c-0.56,0.19-0.74,0.37-0.93,0.37l-0.19,0.37h-0.19l0.37-2.61h0.19V64v0.37l0.19,0.19c0,0,0.37,0,0.74-0.19
	l1.86-0.74l-1.49-1.12c-0.37-0.19-0.56-0.37-0.74-0.37h-0.19c0,0-0.19,0.19-0.19,0.56h-0.19L92.16,61.2z"/>
<path id="XMLID_143_" class="st1" d="M88.25,60.09c0,20.48-12.85,37.24-28.49,37.24c-15.83,0-28.49-16.76-28.49-37.24
	s12.85-37.24,28.49-37.24C75.59,22.85,88.25,39.6,88.25,60.09z"/>
<path id="XMLID_146_" class="st0" d="M26.81,49.66c0,0,2.42-1.68-0.93-4.65c-0.74,1.12-1.68,2.79-0.74,4.28l0.37,0.19v0.56h-0.74
	v7.26h2.98v-7.26h-0.74v-0.37H26.81z M26.25,49.1c-1.49-0.74-0.19-3.35-0.19-3.35c0.56,0.56,0.74,1.68,0.74,2.05
	C26.99,48.91,26.43,49.1,26.25,49.1z"/>
<path id="XMLID_149_" class="st0" d="M94.02,50.03c2.23-1.3,0.37-3.91,0-5.03c-3.35,3.17-0.93,5.03-0.93,5.03v0.56h-1.12v7.45h2.98
	v-7.45h-0.93V50.03z M93.46,49.29c-1.68-0.56,0.19-3.17,0.19-3.17c0.74,0.74,0.93,1.86,0.93,2.05C94.4,49.1,93.65,49.29,93.46,49.29
	z"/>
<path id="XMLID_150_" class="st0" d="M46.92,41.84V28.81c0,0,5.03-2.98,12.85,1.68c1.3-0.93,6.14-4.1,13.59-1.86
	c0,4.1,0,13.59,0,13.59s-12.29-2.98-12.47,2.98c-0.56,0-1.68,0-1.68,0S59.95,41.09,46.92,41.84z"/>
<path id="XMLID_151_" class="st1" d="M49.34,39.79v-9.87c0,0,7.26-0.56,10.24,2.98c0,3.72,0,8.75,0,8.75S56.97,39.79,49.34,39.79z"
	/>
<path id="XMLID_152_" class="st1" d="M70.94,39.79v-9.87c0,0-7.26-0.56-10.24,2.98c0,3.72,0,8.75,0,8.75S63.12,39.79,70.94,39.79z"
	/>
<path id="XMLID_153_" class="st2" d="M36.49,52.08c0,0,0,18.25,0,22.16c0,0.74,2.42,16.39,23.27,18.43c0,0,17.69,0.56,23.65-18.43
	c0-1.3,0-21.6,0-21.6H79.5v21.6c0,0-4.1,14.9-19.18,14.9c-3.17,0-16.01-0.37-20.3-14.9c0-3.35,0-22.16,0-22.16L36.49,52.08
	L36.49,52.08z"/>
<path id="XMLID_154_" class="st0" d="M41.7,56.36h-0.74v-4.28h4.65v22.16c0,0,4.28,9.31,14.34,9.31c1.68,0,9.5,0.37,14.34-9.87
	c0-2.79,0-21.04,0-21.04h4.47v4.28h-0.74v17.32c0,0-4.28,12.85-18.25,13.03c-2.05,0-12.47,0.19-18.06-13.03
	C41.7,65.67,41.7,56.36,41.7,56.36z"/>
<polygon id="XMLID_155_" class="st0" points="53.43,32.34 53.25,34.02 53.06,33.83 52.87,33.46 52.87,33.27 52.5,33.46 52.13,33.27 
	51.94,33.09 51.76,32.72 51.76,32.34 51.94,32.34 51.94,32.72 52.13,32.9 52.32,33.09 52.5,33.09 52.87,32.9 52.87,32.9 
	52.69,32.72 52.69,32.72 52.69,32.72 52.5,32.9 52.32,32.72 52.32,32.72 52.32,32.34 52.5,32.34 53.06,32.53 53.06,32.9 
	53.06,33.09 53.06,33.27 53.25,32.34 51.76,32.34 51.57,32.16 53.62,32.16 53.81,32.34 "/>
<path id="XMLID_156_" class="st0" d="M56.97,33.65l-0.37,1.68v-0.19v-0.37v-0.19l-0.37,0.19l-0.37-0.19l-0.19-0.19v-0.37v-0.37h0.19
	v0.37l0.19,0.19l0.19,0.19h0.19l0.19-0.19v-0.19v-0.19l0,0l0,0l-0.19,0.19h-0.19v-0.19l0.19-0.19h0.19c0.19,0,0.37,0,0.37,0.19v0.19
	v0.19v0.19l0.19-0.93h-1.86l-0.19-0.19h2.05l0.19,0.19h-0.37V33.65z"/>
<polygon id="XMLID_157_" class="st0" points="57.34,33.65 57.34,33.46 57.53,33.09 57.53,33.27 57.53,33.27 57.53,33.46 
	57.72,33.46 57.72,33.46 57.9,33.65 57.53,33.65 57.16,35.32 56.97,35.14 57.34,34.02 57.34,33.83 57.34,33.65 57.16,33.65 
	56.97,33.65 56.78,33.46 57.16,33.46 "/>
<path id="XMLID_160_" class="st0" d="M53.25,37.18L53.25,37.18l-0.37-0.37l-0.19,1.3l-0.19-0.19v-0.19v-0.19
	c-0.19-0.19-0.19-0.37-0.56-0.37l-0.19-0.37c0.37-0.19,0.74-0.37,0.93-0.56l0,0h-0.93l-0.19-0.19h1.86l0.19,0.19h-0.74l0,0
	l0.37,0.19l0.19,0.37L53.25,37.18l-0.19,0.19h-0.19v-0.19L53.06,37L53.25,37.18L53.25,37.18z M52.69,37l-0.37,0.19l-0.19,0.19
	l0.37,0.37L52.69,37z"/>
<path id="XMLID_161_" class="st0" d="M56.97,37.37l-0.37,1.68v-0.19l0,0c0-0.19,0-0.37-0.19-0.37l-0.37-0.19l-0.19-0.37h0.19h0.37
	l0.19-0.19v-0.19l0,0l-0.37,0.19h-0.19v-0.19v-0.19h0.19l0.19,0.19l0,0l0.37-0.19l0.19,0.19v0.19c0,0.19-0.19,0.37-0.37,0.37
	l0.19,0.37L57.16,37l0.19,0.19l0,0v0.19l0,0l0.19,0.19h-0.56V37.37z"/>
<path id="XMLID_164_" class="st0" d="M62.74,35.88L62.74,35.88l-0.19-0.19l-0.19,0.19h-0.19c-0.19,0-0.37,0-0.56-0.19
	c-0.19-0.19-0.19-0.37-0.19-0.56c0-0.19,0-0.37,0.19-0.56c0.19-0.19,0.37-0.19,0.56-0.19h0.37l0.19,0.19l0,0v0.19v0.37v0.37
	l0.19,0.19L62.74,35.88L62.74,35.88L62.74,35.88L62.74,35.88z M62.37,34.76L62.37,34.76v-0.37h-0.19l0,0l-0.37,0.19l-0.19,0.37v0.37
	l0.19,0.19H62l0.19-0.19C62.37,35.14,62.37,34.95,62.37,34.76z"/>
<path id="XMLID_167_" class="st0" d="M65.35,34.21h-0.37h-0.19l0,0l0,0v-0.19v-0.19c0-0.19,0-0.19,0-0.56c0-0.19,0-0.37,0-0.37
	s0-0.19,0-0.37c0-0.19,0-0.37,0-0.37v-0.19h0.19l0.19,0.19l0,0l0,0v0.37v0.37l0.19-0.19h0.19c0.19,0,0.37,0,0.56,0.19
	c0.19,0.19,0.19,0.37,0.19,0.56c0,0.19,0,0.37-0.19,0.56C65.72,34.21,65.54,34.21,65.35,34.21z M65.35,32.9h-0.19l-0.19,0.19v0.19
	v0.19v0.19h0.19h0.19l0.37-0.19l0.19-0.37l-0.19-0.37L65.35,32.9z"/>
<path id="XMLID_168_" class="st0" d="M68.33,33.09c-0.19,0-0.37,0-0.56-0.19c-0.19-0.19-0.19-0.19-0.19-0.56
	c0-0.19,0-0.37,0.19-0.56c0.19-0.19,0.19-0.37,0.37-0.37h0.37l0.19,0.19v0.19l0,0l0,0l0,0h-0.37c-0.19,0-0.19,0.19-0.37,0.37v0.37
	l0.19,0.37h0.37h0.19l0.19-0.19l0,0h0.19v0.19l-0.19,0.19H68.33z"/>
<path id="XMLID_169_" class="st0" d="M62.93,39.05h-0.19h-0.19h-0.19l0,0l0.19-0.19l0,0l0,0v-0.19v-0.19c0,0,0-0.19,0-0.37
	c0-0.19,0-0.37,0-0.37l-0.19,0.19l0,0l0,0l0.19-0.19l0.19-0.19l0.19-0.19l0,0l0,0l0,0v0.19v0.19v0.37v0.37v0.19v0.19h0.19v0.19
	H62.93L62.93,39.05L62.93,39.05z"/>
<path id="XMLID_170_" class="st0" d="M66.09,38.12L66.09,38.12L66.09,38.12h-0.37h-0.19h-0.19h-0.19l0,0l0,0h-0.19v-0.19l0.19-0.37
	c0,0,0.19-0.19,0.37-0.19l0.19-0.19V37v-0.19h-0.19h-0.19L65.16,37l0,0h-0.19l0,0l0.19-0.19h0.19L65.72,37l0.19,0.19v0.19
	l-0.19,0.19l-0.19,0.19l-0.19,0.19l-0.19,0.37h0.19h0.37h0.19L66.09,38.12L66.09,38.12L66.09,38.12z"/>
<polygon id="XMLID_171_" class="st0" points="69.07,37.18 68.89,37 68.7,36.81 68.51,36.81 68.7,36.81 68.7,36.63 68.7,36.81 
	68.89,36.81 68.89,36.81 69.07,36.81 69.26,36.81 69.45,36.63 69.26,36.44 68.89,36.25 68.89,36.25 68.89,36.07 69.26,36.07 
	69.26,35.88 69.26,35.88 69.26,35.69 69.07,35.69 68.89,35.69 68.7,35.69 68.7,35.69 68.7,35.69 68.51,35.69 68.7,35.51 
	69.07,35.32 69.45,35.51 69.45,35.88 69.26,36.07 69.26,36.25 69.45,36.25 69.63,36.63 69.45,37 "/>
<path id="XMLID_172_" class="st0" d="M54.74,49.29c0.37,1.12,0.56,1.86,0.93,2.98c0,0.19,0.19,0.37,0.19,0.37l0.19,0.19h0.37l0,0
	l0,0c-0.74,0.19-1.12,0.37-1.86,0.56V53.2h0.19l0.37-0.19v-0.19c0,0,0-0.19-0.19-0.37c-0.19-0.74-0.37-1.12-0.56-1.86l-0.19-0.37
	h-0.19h-0.19l-0.37,0.19h-0.19C53.81,50.03,53.99,49.85,54.74,49.29L54.74,49.29z"/>
<path id="XMLID_175_" class="st0" d="M56.97,52.82L56.97,52.82c0.37-0.19,0.56-0.37,0.74-0.56c0.19-0.19,0.37-0.37,0.56-0.56
	c0.19-0.19,0.19-0.74,0.19-0.74l-0.37,0.19h-0.37c-0.37,0-0.56,0-0.93-0.19c-0.19-0.19-0.37-0.37-0.56-0.74c0-0.19,0-0.56,0-0.74
	c0-0.19,0.19-0.37,0.56-0.56c0.19-0.19,0.56-0.19,0.74-0.19s0.56,0,0.74,0.19s0.37,0.19,0.56,0.56c0.19,0.19,0.19,0.56,0.19,0.74
	c0,0.37-0.19,0.74-0.37,1.12c-0.19,0.37-0.56,0.74-0.93,0.93C58.09,52.64,57.53,52.64,56.97,52.82z M58.46,50.78v-0.56
	c0-0.37-0.19-0.56-0.19-0.93l-0.37-0.37h-0.19l-0.19,0.19c0,0.19,0,0.37,0,0.56c0,0.56,0.19,0.93,0.37,0.93l0.37,0.19L58.46,50.78z"
	/>
<path id="XMLID_178_" class="st0" d="M59.95,52.64L59.95,52.64c0.37-0.19,0.56-0.19,0.74-0.37c0.19-0.19,0.37-0.19,0.56-0.37
	c0.19-0.19,0.37-0.56,0.37-0.56h-0.37h-0.37c-0.37,0-0.56-0.19-0.74-0.37c-0.19-0.19-0.37-0.56-0.37-0.93c0-0.19,0-0.56,0.19-0.74
	c0.19-0.19,0.37-0.37,0.56-0.37c0.19-0.19,0.56-0.19,0.74-0.19c0.37,0,0.56,0.19,0.74,0.37c0.19,0.19,0.37,0.37,0.56,0.56
	c0.19,0.19,0.19,0.56,0,0.93c0,0.37-0.19,0.74-0.56,1.12c-0.19,0.37-0.56,0.56-1.12,0.74C60.88,52.45,60.51,52.64,59.95,52.64z
	 M61.81,50.96L62,50.4c0-0.37,0-0.56,0-0.93l-0.19-0.37h-0.19h-0.37c-0.19,0.19-0.19,0.37-0.19,0.56c0,0.56,0,0.93,0.19,1.12
	l0.37,0.19L61.81,50.96z"/>
<path id="XMLID_179_" class="st0" d="M64.98,53.57c-0.93-0.37-1.3-0.56-2.23-0.74l0,0c0.93-0.56,1.49-0.93,1.68-1.3
	c0.19-0.19,0.37-0.37,0.56-0.74c0-0.19,0-0.37,0-0.56c-0.19-0.19-0.19-0.37-0.56-0.37c-0.37-0.19-0.74,0-0.93,0.19H63.3
	c0.19-0.37,0.37-0.56,0.74-0.56c0.37-0.19,0.56-0.19,0.93,0c0.19,0,0.37,0.19,0.56,0.37c0.19,0.19,0.19,0.37,0.37,0.56
	c0,0.19,0,0.37,0,0.56c0,0.19-0.19,0.37-0.56,0.56c-0.37,0.19-0.93,0.56-1.68,0.93c0.37,0,0.56,0.19,0.93,0.19
	c0.19,0,0.37,0.19,0.37,0.19h0.19l0.19-0.19h0.19C65.35,53.01,65.16,53.2,64.98,53.57z"/>
<path id="XMLID_180_" class="st0" d="M72.42,67.16c0,7.08-5.77,12.85-12.85,12.85c-7.08,0-12.85-5.77-12.85-12.85
	c0-7.08,5.77-12.85,12.85-12.85C66.84,54.31,72.42,60.09,72.42,67.16z"/>
<path id="XMLID_183_" class="st0" d="M59.76,80.2c-7.26,0-13.03-5.77-13.03-13.03s5.77-13.03,13.03-13.03S72.8,59.9,72.8,67.16
	S66.84,80.2,59.76,80.2z M59.76,54.69c-6.89,0-12.47,5.59-12.47,12.47c0,6.89,5.59,12.48,12.47,12.48s12.47-5.59,12.47-12.47
	C72.24,60.27,66.65,54.69,59.76,54.69z"/>
<polygon id="XMLID_184_" class="st1" points="71.68,62.13 47.66,62.13 47.85,61.58 71.49,61.58 "/>
<path id="XMLID_185_" class="st2" d="M72.42,67.16c0,7.08-5.77,12.85-12.85,12.85c-7.08,0-12.85-5.77-12.85-12.85"/>
<path id="XMLID_186_" class="st1" d="M49.52,67.72h-0.56c0-4.28,1.3-8.19,3.72-11.54l0.37,0.37C50.83,59.71,49.52,63.62,49.52,67.72
	z"/>
<path id="XMLID_187_" class="st1" d="M53.43,67.72h-0.56c0-5.03,1.86-9.87,5.21-13.41l0.37,0.37
	C55.29,58.22,53.43,62.88,53.43,67.72z"/>
<path id="XMLID_188_" class="st1" d="M49.52,67.72h-0.56c0-4.28,1.3-8.19,3.72-11.54l0.37,0.37C50.83,59.71,49.52,63.62,49.52,67.72
	z"/>
<path id="XMLID_189_" class="st1" d="M70.38,67.72h-0.56c0-4.1-1.3-8.01-3.72-11.36l0.37-0.37C69.07,59.53,70.38,63.62,70.38,67.72z
	"/>
<path id="XMLID_190_" class="st1" d="M66.47,67.72h-0.56c0-4.84-1.86-9.5-5.21-13.22l0.37-0.37C64.6,58.04,66.47,62.69,66.47,67.72z
	"/>
<path id="XMLID_191_" class="st1" d="M70.38,67.72h-0.56c0-4.1-1.3-8.01-3.72-11.36l0.37-0.37C69.07,59.53,70.38,63.62,70.38,67.72z
	"/>
<path id="XMLID_194_" class="st1" d="M59.76,58.41c-2.42,0-4.84-0.74-6.89-1.86l-0.37-0.19l0.37-0.19c2.05-1.3,4.47-1.86,6.89-1.86
	c2.42,0,4.84,0.74,6.89,1.86l0.37,0.19l-0.37,0.19C64.42,57.85,62.18,58.41,59.76,58.41z M53.43,56.36c1.86,1.12,4.1,1.68,6.14,1.68
	c2.23,0,4.28-0.56,6.14-1.68c-1.86-1.12-4.1-1.68-6.14-1.68C57.53,54.69,55.29,55.25,53.43,56.36z"/>
<rect id="XMLID_195_" x="48.41" y="73.12" class="st0" width="22.34" height="0.56"/>
<rect id="XMLID_196_" x="59.39" y="54.31" class="st1" width="0.56" height="25.51"/>
<path id="XMLID_197_" class="st0" d="M51.38,77.22c-1.49-2.79-2.42-6.52-2.42-10.05h0.56c0,3.54,1.12,7.63,2.61,10.43L51.38,77.22z"
	/>
<path id="XMLID_198_" class="st0" d="M56.97,79.82c-2.61-3.35-4.1-8.01-4.1-12.66h0.56c0,4.47,1.49,9.12,4.1,12.47L56.97,79.82z"/>
<path id="XMLID_199_" class="st0" d="M67.96,77.22l-0.74,0.19c1.3-1.68,2.61-6.89,2.61-10.24h0.56
	C70.38,70.7,69.45,74.42,67.96,77.22z"/>
<path id="XMLID_200_" class="st0" d="M62.37,79.82L62,79.45c2.61-3.35,4.1-7.82,4.1-12.47h0.37C66.47,71.82,64.98,76.47,62.37,79.82
	z"/>
<polygon id="XMLID_201_" class="st1" points="56.6,65.3 56.6,58.6 57.9,58.6 60.69,63.07 60.69,58.6 62,58.6 62,65.3 60.69,65.3 
	57.9,60.83 57.9,65.3 "/>
<path id="XMLID_202_" class="st0" d="M56.6,73.31l1.3-0.19c0,0.37,0.19,0.74,0.56,0.93c0.19,0.19,0.56,0.37,0.93,0.37
	c0.37,0,0.74,0,0.93-0.19c0.19-0.19,0.37-0.37,0.37-0.74l-0.19-0.37c0-0.19-0.19-0.19-0.56-0.37c-0.19,0-0.56-0.19-1.12-0.37
	c-0.74-0.19-1.3-0.37-1.49-0.74c-0.37-0.37-0.56-0.74-0.56-1.3c0-0.37,0.19-0.74,0.37-0.93c0.19-0.37,0.56-0.56,0.74-0.74
	c0.37-0.19,0.74-0.19,1.3-0.19c0.93,0,1.49,0.19,1.86,0.56c0.37,0.37,0.56,0.93,0.74,1.49h-1.3c0-0.37-0.19-0.56-0.37-0.74
	c-0.19-0.19-0.56-0.19-0.93-0.19s-0.74,0-0.93,0.19l-0.19,0.37l0.19,0.37c0.19,0.19,0.56,0.37,1.3,0.37
	c0.56,0.19,1.12,0.37,1.49,0.56c0.37,0.19,0.56,0.37,0.74,0.74C62,72.56,62,72.75,62,73.31c0,0.37-0.19,0.74-0.37,1.12
	c-0.19,0.37-0.56,0.56-0.93,0.74c-0.37,0.19-0.93,0.19-1.49,0.19c-0.93,0-1.49-0.19-2.05-0.56C56.97,74.61,56.6,74.05,56.6,73.31z"
	/>
<path id="XMLID_205_" class="st0" d="M59.76,80.2c-2.42,0-4.65-0.56-6.7-1.86l-0.37-0.19l0.37-0.19c2.05-1.3,4.28-1.86,6.7-1.86
	c2.42,0,4.65,0.74,6.7,1.86l0.37,0.19l-0.37,0.19C64.42,79.64,62,80.2,59.76,80.2z M53.62,78.15c1.86,1.12,3.91,1.49,6.14,1.49
	c2.23,0,4.28-0.56,6.14-1.49c-1.86-1.12-3.91-1.68-6.14-1.68S55.48,77.03,53.62,78.15z"/>
<rect id="XMLID_206_" x="59.39" y="67.16" class="st0" width="0.56" height="12.85"/>
</svg>
