<?xml version="1.0" encoding="utf-8"?>
<!-- Generator: Adobe Illustrator 23.0.2, SVG Export Plug-In . SVG Version: 6.00 Build 0)  -->
<!DOCTYPE svg PUBLIC "-//W3C//DTD SVG 1.1//EN" "http://www.w3.org/Graphics/SVG/1.1/DTD/svg11.dtd" [
	<!ENTITY ns_extend "http://ns.adobe.com/Extensibility/1.0/">
	<!ENTITY ns_ai "http://ns.adobe.com/AdobeIllustrator/10.0/">
	<!ENTITY ns_graphs "http://ns.adobe.com/Graphs/1.0/">
	<!ENTITY ns_vars "http://ns.adobe.com/Variables/1.0/">
	<!ENTITY ns_imrep "http://ns.adobe.com/ImageReplacement/1.0/">
	<!ENTITY ns_sfw "http://ns.adobe.com/SaveForWeb/1.0/">
	<!ENTITY ns_custom "http://ns.adobe.com/GenericCustomNamespace/1.0/">
	<!ENTITY ns_adobe_xpath "http://ns.adobe.com/XPath/1.0/">
]>
<svg version="1.1" id="Layer_1" xmlns:x="&ns_extend;" xmlns:i="&ns_ai;" xmlns:graph="&ns_graphs;"
	 xmlns="http://www.w3.org/2000/svg" xmlns:xlink="http://www.w3.org/1999/xlink" x="0px" y="0px" viewBox="0 0 120 120"
	 style="enable-background:new 0 0 120 120;" xml:space="preserve">
<style type="text/css">
	.st0{fill:none;}
	.st1{fill:#2E3192;}
	.st2{fill:#00AEEF;}
	.st3{fill:#00A651;}
	.st4{fill:#ED1C24;}
	.st5{fill:#8781BD;}
	.st6{fill:#BBB8DC;}
</style>
<metadata>
	<sfw  xmlns="&ns_sfw;">
		<slices></slices>
		<sliceSourceBounds  bottomLeftOrigin="true" height="16383" width="16383" x="-8131" y="-8252"></sliceSourceBounds>
	</sfw>
</metadata>
<path class="st0" d="M58.4,10.6c-23,0-41.6,21.9-41.6,49c0,27,18.6,49,41.6,49s41.6-21.9,41.6-49C100,32.5,81.4,10.6,58.4,10.6z"/>
<path class="st1" d="M58.4,10c-23.2,0-42.2,22.2-42.2,49.5S35.2,109,58.4,109c23.3,0,42.2-22.2,42.2-49.5S81.6,10,58.4,10z
	 M99.4,59.5c0,26.7-18.4,48.4-41,48.4c-22.6,0-41-21.7-41-48.4s18.4-48.4,41-48.4C81,11.1,99.4,32.8,99.4,59.5z"/>
<path class="st0" d="M33.1,59.5c0,18,11.3,32.6,25.2,32.6s25.2-14.6,25.2-32.6c0-18-11.3-32.6-25.2-32.6
	C44.5,26.9,33.1,41.5,33.1,59.5z"/>
<path class="st2" d="M32.6,59.5c0,18.3,11.6,33.1,25.8,33.1s25.8-14.9,25.8-33.1S72.6,26.4,58.4,26.4C44.2,26.4,32.6,41.2,32.6,59.5
	z M58.4,27.5c13.6,0,24.7,14.4,24.7,32s-11,32-24.7,32c-13.6,0-24.7-14.4-24.7-32C33.7,41.9,44.8,27.5,58.4,27.5z"/>
<path class="st0" d="M30.1,81c5.9,11.5,16.4,19.2,28.3,19.2c11.9,0,22.4-7.7,28.3-19.2"/>
<path class="st3" d="M32.9,81.2L31.4,82c0.3,0.5,0.5,0.9,0.8,1.4c0.3,0.4,0.7,1.1,1.4,0.6c0.3-0.2,0.5-0.5,0.4-0.9
	c0-0.2-0.2-0.4-0.7-1.2L32.9,81.2z M34.6,81.8c0.5,0.8,0.7,1.3,0.7,1.8c0,0.5-0.2,1.1-0.7,1.4c-0.5,0.4-1.2,0.5-1.9,0
	c0.4,1.2-0.3,2-0.6,2.2c-0.6,0.4-1.5,0.5-2.3,0c-0.4-0.3-0.7-0.7-1.6-2.2c-0.5-0.8-0.9-1.6-1.3-2.4l6.4-3.3
	C33.7,80.2,34.1,81,34.6,81.8z M30.4,82.6l-1.7,0.9c0.2,0.4,0.5,0.9,0.7,1.3c0.2,0.3,0.5,0.9,0.7,1c0.5,0.4,0.9,0.2,1.1,0.1
	c0.8-0.5,0.3-1.4-0.2-2.3C30.7,83.4,30.6,83,30.4,82.6z"/>
<path class="st3" d="M35.9,90.8c0.4-0.9,0.9-1.7,1.3-2.6c-0.9,0.4-1.8,0.7-2.7,1C35,89.7,35.4,90.2,35.9,90.8z M34.7,93.6
	c0.2-0.5,0.4-1.1,0.7-1.6c-0.7-0.8-1.4-1.5-2.1-2.4l-1.7,0.5c-0.4-0.5-0.7-0.9-1.1-1.4c2.5-0.5,5.1-1.3,7.5-2.2l1,1.1
	c-1.2,2.3-2.1,4.7-3,7.3L34.7,93.6z"/>
<path class="st3" d="M36.7,95.5l1.2,1l3-3.7l0,0c-0.2,1.8-0.4,3.7-0.2,5.7c0.5,0.3,0.9,0.6,1.4,0.9l3.7-6.2l-1.1-0.7L42,96.5l0,0
	c0-1.9,0.2-3.8,0.4-5.6l-1-0.9L36.7,95.5z"/>
<path class="st3" d="M48.1,99.3c0.5,0.2,1.1,0.4,1.7,0.6l-0.3,0.9c-0.2,0.1-1.1,0.3-2,0c-1.8-0.7-1.5-2.3-1.1-3.2
	c0.2-0.5,0.5-1,1.1-1.3c0.6-0.4,1.2-0.3,1.8-0.1c0.4,0.1,1.1,0.6,1.1,1.6l1.4,0.1c0.1-1.8-1.1-2.5-2.1-2.9c-2.1-0.9-3.9,0.4-4.7,1.9
	c-0.9,1.6-0.8,4,2.1,5.1c1.6,0.6,3.2,0.3,3.7,0l0.7-2.8c-1.1-0.3-2.1-0.6-3.1-1L48.1,99.3z"/>
<path class="st3" d="M52.2,103.3c2,0.4,3.9,0.6,5.9,0.6v-1.2c-1.4,0-2.7-0.1-4.1-0.3l0.9-6c-0.4,0-0.9-0.2-1.3-0.2L52.2,103.3z"/>
<path class="st3" d="M63.4,100.6c-0.5-0.8-1-1.6-1.4-2.5c-0.2,0.9-0.4,1.9-0.7,2.8C62,100.8,62.7,100.7,63.4,100.6z M65.2,103.1
	c-0.4-0.5-0.7-1-1.1-1.5c-1.1,0.2-2.1,0.3-3.2,0.5c-0.2,0.6-0.4,1.1-0.5,1.7l-1.8,0.1c1.1-2.5,1.9-4.9,2.5-7.4
	c0.5-0.1,0.9-0.1,1.4-0.2c1.2,2.2,2.8,4.4,4.5,6.4C66.4,102.8,65.8,103,65.2,103.1z"/>
<path class="st3" d="M67.3,96.2l1.7,4.5c0.4-0.2,0.8-0.3,1.1-0.4c1.1-0.5,2-1,1-3.1c-1.1-2.1-2-1.7-3.2-1.2L67.3,96.2z M67.9,94.7
	c0.7-0.3,1.6-0.7,2.8,0c0.4,0.2,1,0.6,1.7,1.9c0.2,0.4,0.9,1.5,0.5,2.9c-0.4,1.1-1.7,1.7-2.1,1.9c-1,0.4-2,0.8-3,1.1l-2.2-6.9
	C66.4,95.3,67.2,95,67.9,94.7z"/>
<path class="st3" d="M75.5,98.9c1.8-1.1,3.5-2.4,5-3.8l-0.8-0.9c-1.1,1-2.3,1.9-3.5,2.8l-1.1-1.6c1-0.7,2.1-1.5,3-2.3l-0.8-0.9
	c-0.9,0.8-1.9,1.6-2.9,2.3L73.5,93c1-0.7,2-1.5,3-2.3l-0.8-0.9c-1.2,1.1-2.5,2.1-3.9,3L75.5,98.9z"/>
<path class="st3" d="M79.7,92.6c1.9,1.6,3.5,0,4.1-0.7c0.3-0.3,0.8-0.9,1-1.7c0.2-0.7,0-1.7-0.7-2.2c-1.4-1.1-2.7-0.1-3.6,0.6
	c-1,0.7-1.4,0.9-1.8,0.5c-0.4-0.4,0-1.1,0.3-1.4c0.7-0.8,1.3-0.5,1.6-0.3l0.9-1.2c-1.4-0.9-2.5-0.3-3.4,0.7
	c-1.3,1.5-0.9,2.6-0.3,3.2c1.1,1.2,2.6,0.3,3.2-0.2c1.2-0.8,1.6-1.2,2.1-0.8c0.4,0.3,0.5,1-0.2,1.8c-1,1.1-1.8,0.5-2.2,0.3
	L79.7,92.6z"/>
<path class="st3" d="M86.6,88.3c0.3-0.5,0.7-0.9,0.9-1.4l-2.7-1.8c0.5-0.9,1.1-1.7,1.6-2.6l2.8,1.6l0.8-1.4l-6.4-3.3l-0.7,1.2
	l2.5,1.4c-0.4,0.9-1,1.7-1.5,2.5l-2.4-1.6c-0.2,0.4-0.5,0.7-0.8,1.1L86.6,88.3z"/>
<path class="st0" d="M91.8,59.4c0-22.4-15-40.6-33.4-40.6S25.1,37,25,59.4"/>
<path class="st1" d="M29.2,59.4l0-1.2l-5.5-0.2l0,0c1.8-0.9,3.8-1.7,5.7-2.4l0.2-1.3l-8.4-1L21,54.8l5.6,0.5l0,0
	c-1.9,0.7-3.9,1.6-5.8,2.6l0,1.5L29.2,59.4z"/>
<path class="st1" d="M27.6,51.2c0.5-0.2,1.2-0.5,1.3-1.3c0.2-0.7,0-1.9-2.4-2.5c-0.9-0.2-2.8-0.5-3.3,1.3c-0.3,1.7,1.2,2.3,2.5,2.5
	C26.6,51.4,27.2,51.3,27.6,51.2z M21.8,48.4c0.5-2.5,2.8-3.1,5.1-2.4c2.1,0.6,3.9,2,3.4,4.2c-0.5,2.3-2.8,2.7-4.8,2.5
	C22.8,52.3,21.3,50.8,21.8,48.4z"/>
<path class="st1" d="M27.1,43.3l0.4-1c0.2-0.4,0.4-1,0.4-1.2c0-0.5-0.5-0.8-0.7-0.9c-0.3-0.1-0.7-0.2-0.9,0
	c-0.3,0.2-0.4,0.4-0.7,1.3L25,42.6L27.1,43.3z M23.2,43.6c0.3-1.1,0.7-2.1,1.1-3.1c0.4-1.1,0.7-1.4,0.9-1.6c0.7-0.7,1.7-0.6,2.5-0.2
	c0.9,0.4,1.4,1.1,1.4,1.8c0,0.3,0,0.5-0.1,0.8l0,0c0.6-0.4,1-0.5,2.5-0.6c0.6,0,1.2,0,1.8,0c-0.2,0.5-0.4,0.9-0.6,1.4
	c-0.7,0-1.4,0.1-2.1,0.2c-1.7,0.2-1.9,0.2-2.2,1.1l-0.1,0.3l3.3,1.2l-0.4,1.2L23.2,43.6z"/>
<path class="st1" d="M34.2,39.1c0.2-0.4,0.4-0.7,0.6-1.1l-6.1-3.6c0.4-0.7,0.8-1.3,1.2-1.9l-1.2-0.8c-1.1,1.7-2.1,3.5-3,5.3l1.3,0.6
	c0.3-0.7,0.7-1.3,1-2L34.2,39.1z"/>
<path class="st1" d="M36.3,35.7l0.7-1l-3-2.2c0.5-0.7,1.1-1.4,1.7-2.1l2.8,2.4c0.3-0.3,0.5-0.6,0.8-0.9l-6.2-5.8
	c-0.4,0.4-0.7,0.8-1.1,1.2l2.5,2.2c-0.6,0.7-1.2,1.5-1.8,2.2l-2.7-2L29.3,31L36.3,35.7z"/>
<path class="st1" d="M40.3,30.9c1.1-1.1,2.3-2.1,3.6-3l-0.8-1.2c-1,0.7-1.9,1.5-2.8,2.3l-1.6-1.7c0.9-0.8,1.8-1.5,2.7-2.2l-0.9-1.1
	c-1,0.7-1.9,1.5-2.8,2.3l-1.3-1.4c1-0.9,2.1-1.8,3.2-2.6L38.8,21c-1.6,1.2-3.1,2.4-4.5,3.8L40.3,30.9z"/>
<path class="st1" d="M43.3,22.4c0.3-0.2,0.6-0.4,0.9-0.5c0.4-0.2,0.9-0.5,1.1-0.7c0.4-0.4,0.2-0.9,0.1-1.1c-0.2-0.3-0.4-0.5-0.7-0.6
	c-0.4,0-0.5,0-1.4,0.5c-0.4,0.2-0.7,0.4-1.1,0.6L43.3,22.4z M40.1,20.2C41,19.6,42,19,43,18.4c1.1-0.6,1.5-0.6,1.7-0.6
	c1-0.1,1.7,0.7,2,1.4c0.4,0.9,0.3,1.7-0.2,2.3c-0.2,0.2-0.4,0.4-0.6,0.6v0c0.7,0.1,1.1,0.2,2.2,1.2c0.5,0.4,0.9,0.8,1.3,1.2
	c-0.4,0.2-0.9,0.4-1.3,0.6c-0.5-0.4-1.1-0.9-1.6-1.2c-1.4-1-1.6-1.1-2.4-0.6L44,23.6l1.8,3l-1.1,0.7L40.1,20.2z"/>
<path class="st1" d="M50.2,24.4l1.1-0.4l-1.7-5.3l0,0c1.5,1.5,2.8,3,4,4.7c0.4-0.1,0.8-0.2,1.2-0.2L53.5,15c-0.5,0.1-1,0.2-1.5,0.3
	l1.1,5.5h0c-1.2-1.7-2.7-3.2-4.3-4.7l-1.5,0.5L50.2,24.4z"/>
<path class="st1" d="M58.4,14.5v4.5c0,2,0,4,2.4,4.2c0.7,0,1.5,0,2.2-0.9c0.4-0.5,0.6-1.4,0.9-2.8l0.9-4.4c-0.5-0.1-1.1-0.2-1.6-0.3
	l-0.7,4.6c-0.2,1.4-0.4,2.4-1.6,2.3c-0.4,0-0.9-0.2-1.1-0.8c-0.2-0.4-0.1-0.8-0.1-1.8l0.2-4.6L58.4,14.5z"/>
<path class="st1" d="M64.3,23.7l1.1,0.3l1.6-5.3l0,0c0.4,2.1,0.6,4.1,0.6,6.1c0.4,0.2,0.7,0.3,1.1,0.5l3.7-7.6
	c-0.5-0.2-0.9-0.4-1.4-0.6l-2.2,5.2l0,0c-0.1-2.1-0.4-4.2-0.9-6.3l-1.5-0.4L64.3,23.7z"/>
<path class="st1" d="M69.9,26c0.4,0.2,0.7,0.4,1.1,0.6l4.4-7.3c-0.4-0.3-0.9-0.5-1.4-0.8L69.9,26z"/>
<path class="st1" d="M73.2,28.1l1.1,0.8c2.3-1.7,4.9-3.3,7.5-4.7c-0.4-0.4-0.8-0.8-1.2-1.1c-1.8,1.1-3.6,2.4-5.3,3.7l0,0
	c0.9-2,1.6-4,2.3-6.1c-0.5-0.4-0.9-0.7-1.4-1C75.3,22.6,74.3,25.4,73.2,28.1z"/>
<path class="st1" d="M76.4,30.8c1.1,1.1,2.2,2.3,3.1,3.6l1.1-0.9c-0.7-1-1.5-1.9-2.3-2.8l1.7-1.6c0.8,0.9,1.6,1.7,2.3,2.7l1.1-0.9
	c-0.7-1-1.5-1.9-2.3-2.8l1.4-1.3c0.9,1,1.8,2,2.7,3.1l1.1-0.9c-1.2-1.5-2.5-3-3.8-4.4L76.4,30.8z"/>
<path class="st1" d="M84.9,33.6l0.6,0.9c0.2,0.4,0.5,0.9,0.7,1.1c0.4,0.4,0.9,0.1,1.1,0c0.3-0.2,0.5-0.4,0.5-0.7
	c0-0.4-0.1-0.5-0.6-1.4l-0.7-1L84.9,33.6z M87.1,30.4c0.7,0.9,1.2,1.8,1.8,2.8c0.6,1,0.7,1.4,0.7,1.6c0.1,1-0.6,1.7-1.3,2.1
	c-0.8,0.4-1.7,0.5-2.3,0c-0.2-0.2-0.5-0.3-0.6-0.5h0c0,0.7-0.2,1.1-1.1,2.3c-0.4,0.5-0.7,1-1.1,1.4l-0.7-1.4
	c0.4-0.5,0.7-1.1,1.1-1.7c0.9-1.5,1-1.7,0.5-2.5l-0.2-0.2l-3,2c-0.2-0.4-0.5-0.7-0.7-1.1L87.1,30.4z"/>
<path class="st1" d="M85.8,39.3c-2.4,1.5-1.8,3-1.5,3.7c0.1,0.3,0.4,0.9,0.9,1.2c0.5,0.4,1.5,0.6,2.5,0.3c2-0.7,1.9-2.2,1.8-3.3
	c-0.2-1.2-0.1-1.7,0.4-1.9c0.6-0.3,1.1,0.4,1.2,0.8c0.5,1.1-0.3,1.5-0.6,1.7c0.2,0.5,0.4,0.9,0.6,1.4c1.8-0.7,2-2.2,1.4-3.6
	c-0.9-2.1-2.5-2-3.3-1.6c-1.7,0.8-1.4,2.4-1.4,3.1c0.2,1.3,0.2,1.8-0.5,2.1c-0.5,0.2-1.2,0-1.6-0.8c-0.5-1.1,0.5-1.8,0.9-2
	L85.8,39.3z"/>
<path class="st1" d="M85.6,46.2c0.2,0.4,0.2,0.8,0.4,1.2l8.2-2.3c-0.2-0.5-0.3-1-0.4-1.5L85.6,46.2z"/>
<path class="st1" d="M86.6,50.1l0.2,1.2l6.9-1.3c0.2,0.7,0.2,1.4,0.4,2.2l1.4-0.2c-0.3-2-0.7-4-1.2-6l-1.4,0.4
	c0.2,0.7,0.4,1.4,0.5,2.1L86.6,50.1z"/>
<path class="st1" d="M87.4,55.8l0.1,1.3l3.6-0.2c1.7,0.7,3.3,1.6,5,2.5l0-1.8c-1.1-0.5-2.3-1.1-3.4-1.6c1.1-0.6,2.1-1.3,3.2-2
	c-0.1-0.6-0.1-1.2-0.2-1.8c-1.5,1.1-3,2.2-4.6,3.2L87.4,55.8z"/>
<path class="st4" d="M94,70.8c0,1.8-1.5,3.3-3.3,3.3s-3.3-1.5-3.3-3.3c0-1.8,1.5-3.3,3.3-3.3S94,68.9,94,70.8z"/>
<path class="st4" d="M28.9,70.8c0,1.8-1.5,3.3-3.3,3.3c-1.8,0-3.3-1.5-3.3-3.3c0-1.8,1.5-3.3,3.3-3.3C27.5,67.5,28.9,68.9,28.9,70.8
	z"/>
<path class="st1" d="M53.4,82.6c0,0-2.3-2.3-4.3-9.2c-2-6.9-2.1-9.7-0.3-13.7c1.9-4,7-12.1,8.3-23.3c0.3-4.1,0.3-4.1,0.9-3.9
	s7,13,3.2,24.5c-2.3,8.9-5.6,8-7.5,19.3C53.7,79.8,53.4,82.6,53.4,82.6z"/>
<path class="st5" d="M55.6,82.6c0.6,0.7,1.3-4.9,3-7c1.7-2.1,5.3-6.6,6.6-13.4c1.1-4.5,0.6-9.7,0-11.4c-0.6-0.2-1.7,7.1-3.4,10.7
	c-0.6,3.7-5.2,5.9-5.6,11.4C55.1,78.3,55.6,82.6,55.6,82.6z"/>
<path class="st6" d="M59.3,82.6c0,0,2-3.4,2.7-4.3c0.7-0.9,3.9-3.6,4.9-5.7c1.3-2.3,2.7-8,1.1-12.5c-0.6,0.6-2,8-4.1,9.9
	C61.3,72.5,59.4,76.1,59.3,82.6z"/>
</svg>
