<?xml version="1.0" encoding="utf-8"?>
<!-- Generator: Adobe Illustrator 23.0.2, SVG Export Plug-In . SVG Version: 6.00 Build 0)  -->
<!DOCTYPE svg PUBLIC "-//W3C//DTD SVG 1.1//EN" "http://www.w3.org/Graphics/SVG/1.1/DTD/svg11.dtd" [
	<!ENTITY ns_extend "http://ns.adobe.com/Extensibility/1.0/">
	<!ENTITY ns_ai "http://ns.adobe.com/AdobeIllustrator/10.0/">
	<!ENTITY ns_graphs "http://ns.adobe.com/Graphs/1.0/">
	<!ENTITY ns_vars "http://ns.adobe.com/Variables/1.0/">
	<!ENTITY ns_imrep "http://ns.adobe.com/ImageReplacement/1.0/">
	<!ENTITY ns_sfw "http://ns.adobe.com/SaveForWeb/1.0/">
	<!ENTITY ns_custom "http://ns.adobe.com/GenericCustomNamespace/1.0/">
	<!ENTITY ns_adobe_xpath "http://ns.adobe.com/XPath/1.0/">
]>
<svg version="1.1" id="Layer_1" xmlns:x="&ns_extend;" xmlns:i="&ns_ai;" xmlns:graph="&ns_graphs;"
	 xmlns="http://www.w3.org/2000/svg" xmlns:xlink="http://www.w3.org/1999/xlink" x="0px" y="0px" viewBox="0 0 595.3 841.9"
	 style="enable-background:new 0 0 595.3 841.9;" xml:space="preserve">
<style type="text/css">
	.st0{fill:none;}
	.st1{fill:#2E3192;}
	.st2{fill:#00AEEF;}
	.st3{fill:#00A651;}
	.st4{fill:#ED1C24;}
	.st5{fill:#8781BD;}
	.st6{fill:#BBB8DC;}
</style>
<metadata>
	<sfw  xmlns="&ns_sfw;">
		<slices></slices>
		<sliceSourceBounds  bottomLeftOrigin="true" height="253.7" width="216" x="189.8" y="292.1"></sliceSourceBounds>
		<optimizationSettings>
			<targetSettings  fileFormat="PNG24Format" targetSettingsID="0">
				<PNG24Format  filtered="false" interlaced="false" matteColor="#FFFFFF" noMatteColor="false" transparency="true">
					</PNG24Format>
			</targetSettings>
		</optimizationSettings>
	</sfw>
</metadata>
<path class="st0" d="M297.8,297.6c-58.8,0-106.5,56.1-106.5,125.4c0,69.2,47.7,125.4,106.5,125.4c58.8,0,106.6-56.1,106.6-125.4
	C404.3,353.7,356.6,297.6,297.8,297.6z"/>
<path class="st1" d="M297.8,296.1c-59.5,0-108,56.9-108,126.8c0,69.9,48.5,126.8,108,126.8c59.6,0,108-56.9,108-126.8
	C405.8,353,357.3,296.1,297.8,296.1z M402.9,422.9c0,68.3-47.1,123.9-105.1,123.9c-57.9,0-105.1-55.6-105.1-123.9
	c0-68.3,47.1-123.9,105.1-123.9C355.7,299,402.9,354.6,402.9,422.9z"/>
<path class="st0" d="M233.1,422.9c0,46,29,83.5,64.6,83.5c35.6,0,64.6-37.4,64.6-83.5c0-46-29-83.5-64.6-83.5
	C262.1,339.5,233.1,376.9,233.1,422.9z"/>
<path class="st2" d="M231.7,422.9c0,46.8,29.7,84.9,66.1,84.9c36.4,0,66.1-38.1,66.1-84.9c0-46.8-29.7-84.9-66.1-84.9
	C261.3,338,231.7,376.1,231.7,422.9z M297.8,340.9c34.8,0,63.2,36.8,63.2,82c0,45.2-28.3,82-63.2,82c-34.8,0-63.2-36.8-63.2-82
	C234.6,377.7,262.9,340.9,297.8,340.9z"/>
<path class="st0" d="M225.2,478.1c15.1,29.5,42,49.2,72.6,49.2c30.6,0,57.5-19.7,72.6-49.2"/>
<path class="st3" d="M232.4,478.5l-3.7,2.1c0.7,1.2,1.3,2.4,2.1,3.6c0.7,1.1,1.9,2.7,3.5,1.6c0.7-0.5,1.2-1.3,0.9-2.2
	c-0.1-0.5-0.4-0.9-1.8-3.1L232.4,478.5z M236.9,480c1.3,2,1.9,3.3,1.9,4.7c0,1.3-0.6,2.7-1.9,3.7c-1.3,1-3.2,1.2-4.8,0.1
	c1.1,3.2-0.7,5-1.5,5.6c-1.5,1.1-3.9,1.4-5.9,0.1c-1.1-0.7-1.8-1.9-4.2-5.6c-1.2-2-2.3-4.1-3.4-6.2l16.5-8.5
	C234.6,475.9,235.6,478.1,236.9,480z M226,482.2l-4.3,2.4c0.6,1.1,1.2,2.2,1.9,3.3c0.5,0.7,1.4,2.2,1.9,2.6c1.2,1,2.2,0.5,2.7,0.2
	c2.1-1.4,0.8-3.5-0.6-5.8C226.9,484,226.5,483.1,226,482.2z"/>
<path class="st3" d="M240.2,503c1.1-2.2,2.2-4.4,3.3-6.6c-2.3,0.9-4.6,1.8-6.9,2.6C237.8,500.3,239,501.6,240.2,503z M237.1,510.3
	c0.6-1.4,1.1-2.8,1.7-4.2c-1.8-2-3.7-3.9-5.4-6.1l-4.3,1.3c-0.9-1.2-1.9-2.3-2.7-3.6c6.5-1.4,13.1-3.4,19.2-5.6l2.5,2.8
	c-3,6-5.5,12.1-7.6,18.7L237.1,510.3z"/>
<path class="st3" d="M242.2,515.1l3,2.6l7.6-9.5l0,0c-0.5,4.6-0.9,9.6-0.6,14.5c1.2,0.8,2.4,1.6,3.7,2.3l9.4-16l-2.7-1.7l-6.8,10.4
	l0,0c-0.1-4.9,0.5-9.8,1.1-14.4l-2.6-2.2L242.2,515.1z"/>
<path class="st3" d="M271.3,524.8c1.4,0.5,2.8,1.1,4.3,1.5l-0.7,2.2c-0.6,0.3-2.8,0.7-5.1-0.1c-4.6-1.8-3.8-5.9-2.7-8.3
	c0.6-1.3,1.4-2.5,2.7-3.3c1.6-1,3.2-0.8,4.7-0.3c1,0.3,2.9,1.5,2.8,4.1l3.7,0.3c0.2-4.7-2.9-6.4-5.4-7.5c-5.5-2.2-9.9,1-12.1,4.9
	c-2.4,4.2-2,10.2,5.4,13.1c4.1,1.6,8.2,0.7,9.6,0l1.9-7.2c-2.7-0.7-5.3-1.5-7.9-2.5L271.3,524.8z"/>
<path class="st3" d="M282,535c5,1.1,10.1,1.5,15.2,1.6l0-3.1c-3.5-0.1-7-0.3-10.5-0.8l2.2-15.3c-1.1-0.1-2.2-0.4-3.3-0.6L282,535z"
	/>
<path class="st3" d="M310.6,528.1c-1.3-2.1-2.5-4.2-3.7-6.4c-0.5,2.4-1.1,4.8-1.7,7.2C307,528.6,308.8,528.5,310.6,528.1z
	 M315.1,534.7c-0.9-1.2-1.8-2.5-2.7-3.8c-2.7,0.6-5.4,0.8-8.1,1.2c-0.4,1.5-0.9,2.9-1.4,4.3l-4.7,0.2c2.8-6.3,4.9-12.5,6.4-19
	c1.2-0.2,2.4-0.2,3.5-0.5c3.2,5.6,7.1,11.3,11.6,16.4C318.2,533.9,316.7,534.4,315.1,534.7z"/>
<path class="st3" d="M320.7,516.9l4.3,11.5c1-0.4,2-0.7,2.9-1.1c2.9-1.3,5.2-2.5,2.5-7.9c-2.8-5.5-5.1-4.4-8.2-3.1L320.7,516.9z
	 M322.2,513c1.7-0.8,4.2-1.9,7.3-0.1c1,0.6,2.6,1.6,4.4,4.8c0.5,1,2.3,3.8,1.2,7.4c-0.9,2.9-4.3,4.3-5.5,4.9c-2.5,1.1-5.1,2-7.7,2.9
	l-5.6-17.7C318.3,514.5,320.3,513.8,322.2,513z"/>
<path class="st3" d="M341.6,523.7c4.7-2.8,8.9-6.2,12.9-9.7l-2.1-2.3c-2.9,2.5-5.9,4.9-9,7.1l-2.9-4.1c2.6-1.9,5.3-3.9,7.7-6
	l-2.1-2.4c-2.3,2.1-4.9,4-7.4,5.8l-2.3-3.4c2.6-1.9,5.1-3.8,7.6-6l-2.1-2.3c-3.2,2.8-6.5,5.4-10.1,7.6L341.6,523.7z"/>
<path class="st3" d="M352.4,507.8c4.8,4,9,0.1,10.4-1.7c0.7-0.7,2-2.4,2.6-4.3c0.6-1.9,0.1-4.3-1.8-5.6c-3.7-2.8-6.8-0.2-9.2,1.5
	c-2.6,1.8-3.7,2.3-4.6,1.4c-1.1-1.1,0-2.7,0.7-3.5c1.9-2.1,3.4-1.3,4.2-0.7l2.2-3c-3.5-2.4-6.4-0.8-8.7,1.7
	c-3.3,3.8-2.2,6.7-0.8,8.3c2.8,3,6.6,0.7,8.2-0.4c3.1-2.1,4.1-3,5.3-2c0.9,0.7,1.3,2.6-0.6,4.7c-2.5,2.8-4.7,1.4-5.6,0.8
	L352.4,507.8z"/>
<path class="st3" d="M370,496.6c0.8-1.2,1.7-2.3,2.4-3.5l-6.8-4.5c1.3-2.2,2.8-4.3,4-6.6l7.1,4l2-3.7l-16.5-8.5l-1.7,3.1l6.4,3.6
	c-1.1,2.2-2.5,4.3-3.8,6.4l-6.1-4c-0.6,1-1.3,1.9-2,2.9L370,496.6z"/>
<path class="st0" d="M383.4,422.6c-0.1-57.4-38.5-104.1-85.6-104.1c-47.1,0-85.4,46.7-85.6,104.1"/>
<path class="st1" d="M223,422.7l0.1-3.1l-14.1-0.4l0,0c4.7-2.3,9.7-4.4,14.5-6.2l0.4-3.3l-21.5-2.5l-0.4,3.6l14.4,1.3v0
	c-4.9,1.9-10,4.2-14.9,6.7l-0.1,3.8L223,422.7z"/>
<path class="st1" d="M218.8,401.6c1.4-0.4,3-1.3,3.4-3.3c0.4-1.7-0.1-4.8-6.2-6.4c-2.4-0.6-7.3-1.3-8.4,3.3
	c-0.8,4.3,3.2,5.9,6.3,6.4C216.4,402.1,217.9,401.9,218.8,401.6z M204,394.5c1.4-6.4,7.1-8,13.1-6.1c5.5,1.6,10,5.2,8.8,10.8
	c-1.2,6-7.3,7-12.3,6.3C206.7,404.5,202.7,400.5,204,394.5z"/>
<path class="st1" d="M217.5,381.5l0.9-2.6c0.4-1.1,1-2.5,1-3.2c0-1.4-1.2-2-1.8-2.3c-0.8-0.3-1.7-0.4-2.4,0c-0.7,0.5-1,0.9-1.9,3.3
	l-1,2.8L217.5,381.5z M207.6,382.2c0.8-2.7,1.8-5.3,2.8-7.9c1.1-2.7,1.8-3.5,2.2-4c1.7-1.7,4.4-1.5,6.3-0.6c2.2,1,3.6,2.8,3.7,4.7
	c0.1,0.7,0,1.4-0.2,2.1l0,0c1.5-1,2.5-1.3,6.4-1.5c1.6,0,3.2,0,4.7,0c-0.6,1.2-1.1,2.4-1.6,3.6c-1.7,0.1-3.5,0.2-5.3,0.4
	c-4.4,0.5-4.9,0.6-5.7,2.8l-0.3,0.7l8.5,3l-1,3.1L207.6,382.2z"/>
<path class="st1" d="M235.9,370.7c0.5-1,1.1-1.9,1.6-2.8l-15.5-9.1c0.9-1.7,2-3.3,3-4.9l-3.1-2c-2.9,4.4-5.4,9-7.7,13.7l3.3,1.6
	c0.8-1.7,1.7-3.4,2.6-5.1L235.9,370.7z"/>
<path class="st1" d="M241.2,362l1.9-2.6l-7.6-5.6c1.4-1.9,2.9-3.7,4.4-5.5l7.2,6.2c0.7-0.8,1.4-1.6,2.1-2.4l-15.9-14.8
	c-0.9,1-1.8,2-2.7,3l6.5,5.6c-1.6,1.8-3.1,3.8-4.6,5.7l-6.9-5.1l-2.3,3.3L241.2,362z"/>
<path class="st1" d="M251.5,349.6c2.9-2.8,5.9-5.4,9.2-7.8l-2.1-3c-2.5,1.8-4.9,3.8-7.2,5.8l-4-4.3c2.2-2,4.5-3.9,6.9-5.7l-2.2-2.9
	c-2.5,1.9-4.9,3.8-7.2,5.9l-3.3-3.5c2.6-2.3,5.3-4.6,8.2-6.7l-2.2-3c-4,3-7.9,6.2-11.4,9.7L251.5,349.6z"/>
<path class="st1" d="M259.1,327.9c0.8-0.5,1.6-0.9,2.4-1.4c1-0.5,2.3-1.3,2.8-1.8c0.9-1,0.4-2.3,0.2-2.9c-0.4-0.8-1-1.4-1.9-1.5
	c-0.9-0.1-1.3,0.1-3.7,1.4c-0.9,0.5-1.8,1-2.7,1.5L259.1,327.9z M250.9,322.2c2.4-1.6,4.9-3.1,7.5-4.5c2.7-1.5,3.8-1.5,4.4-1.6
	c2.5-0.2,4.4,1.8,5.2,3.7c0.9,2.2,0.8,4.4-0.4,6c-0.4,0.6-0.9,1.1-1.5,1.5l0,0.1c1.8,0.3,2.8,0.6,5.7,3.2c1.2,1,2.3,2.1,3.4,3.2
	c-1.1,0.5-2.3,0.9-3.4,1.5c-1.3-1.1-2.7-2.2-4.2-3.2c-3.6-2.5-4.1-2.7-6.1-1.6l-0.6,0.4l4.7,7.7l-2.7,1.7L250.9,322.2z"/>
<path class="st1" d="M276.8,333.1l2.7-0.9l-4.3-13.5l0,0c3.8,3.8,7.2,7.7,10.2,12c1-0.2,2-0.4,3.1-0.5l-3.3-21.4
	c-1.3,0.2-2.6,0.4-3.8,0.7l2.9,14.2l-0.1,0c-3.2-4.3-6.9-8.3-11.1-12.1l-3.8,1.3L276.8,333.1z"/>
<path class="st1" d="M297.7,307.7l0,11.6c0,5.1,0.1,10.3,6.2,10.8c1.7,0.1,3.9,0.1,5.6-2.2c1.1-1.4,1.6-3.5,2.4-7.3l2.3-11.2
	c-1.4-0.3-2.7-0.5-4.1-0.7l-1.8,11.8c-0.6,3.7-1,6.2-4,5.9c-1-0.1-2.2-0.6-2.7-2.1c-0.4-1-0.3-2.1-0.2-4.7l0.6-11.7L297.7,307.7z"/>
<path class="st1" d="M313,331.3l2.8,0.8l4.2-13.5l0,0c1,5.3,1.5,10.5,1.5,15.6c1,0.4,1.9,0.8,2.8,1.3l9.4-19.5
	c-1.2-0.6-2.3-1.1-3.5-1.6l-5.7,13.3l0,0c-0.2-5.4-1-10.8-2.2-16.2l-3.9-1.1L313,331.3z"/>
<path class="st1" d="M327.2,337c0.9,0.5,1.9,1,2.7,1.5l11.2-18.6c-1.1-0.7-2.4-1.4-3.6-2L327.2,337z"/>
<path class="st1" d="M335.8,342.5l2.7,2.1c6-4.4,12.5-8.4,19.1-12c-1-1-2.1-2-3.2-2.9c-4.7,2.9-9.3,6.1-13.7,9.5l0,0
	c2.2-5.1,4.1-10.3,5.8-15.7c-1.2-0.9-2.4-1.7-3.7-2.5C341,328.3,338.6,335.6,335.8,342.5z"/>
<path class="st1" d="M343.9,349.5c2.8,2.9,5.6,5.9,8,9.1l2.9-2.2c-1.9-2.5-3.9-4.9-6-7.1l4.3-4c2,2.2,4,4.4,5.8,6.8l2.9-2.2
	c-1.9-2.5-3.9-4.8-6-7.1l3.5-3.3c2.4,2.5,4.6,5.2,6.8,8l2.9-2.2c-3-3.9-6.3-7.6-9.8-11.2L343.9,349.5z"/>
<path class="st1" d="M365.8,356.6l1.5,2.3c0.6,0.9,1.4,2.3,1.9,2.7c1.1,0.9,2.4,0.3,2.9,0c0.8-0.4,1.4-1.1,1.4-1.9
	c0-0.9-0.2-1.3-1.5-3.5l-1.7-2.6L365.8,356.6z M371.2,348.3c1.7,2.3,3.2,4.7,4.6,7.1c1.5,2.6,1.7,3.6,1.8,4.2
	c0.3,2.5-1.5,4.4-3.4,5.4c-2.1,1.1-4.4,1.2-6,0c-0.6-0.4-1.2-0.8-1.6-1.4l-0.1,0c-0.1,1.8-0.5,2.8-2.8,6c-0.9,1.3-1.9,2.5-2.8,3.7
	l-1.8-3.5c1-1.4,1.9-2.9,2.9-4.4c2.3-3.8,2.5-4.3,1.2-6.3l-0.4-0.6l-7.6,5c-0.6-0.9-1.2-1.8-1.8-2.7L371.2,348.3z"/>
<path class="st1" d="M367.9,371.2c-6.1,3.8-4.5,7.7-3.9,9.4c0.3,0.7,0.9,2.2,2.3,3.2c1.3,1,3.8,1.5,6.3,0.7c5.1-1.7,4.8-5.6,4.5-8.5
	c-0.4-3-0.3-4.4,1-4.9c1.6-0.7,2.8,1.1,3.2,2.1c1.2,2.8-0.7,3.9-1.6,4.4c0.5,1.2,1,2.3,1.5,3.5c4.6-1.7,5-5.6,3.5-9.2
	c-2.2-5.4-6.3-5-8.4-4c-4.3,2.1-3.7,6.2-3.5,8c0.4,3.4,0.4,4.7-1.3,5.3c-1.3,0.5-3.1,0.1-4-2c-1.2-2.8,1.4-4.5,2.3-5.1L367.9,371.2z
	"/>
<path class="st1" d="M367.4,388.9c0.4,1,0.6,2.1,0.9,3.2l20.9-5.9c-0.4-1.3-0.7-2.5-1.1-3.8L367.4,388.9z"/>
<path class="st1" d="M370,398.8l0.6,3.2l17.7-3.3c0.4,1.8,0.6,3.7,0.9,5.6l3.6-0.5c-0.7-5.1-1.8-10.2-3-15.3l-3.5,0.9
	c0.5,1.8,0.9,3.7,1.3,5.5L370,398.8z"/>
<path class="st1" d="M372.1,413.3l0.2,3.3l9.1-0.5c4.3,1.9,8.5,4.1,12.8,6.5l-0.1-4.5c-2.9-1.4-5.9-2.7-8.8-4
	c2.8-1.6,5.5-3.3,8.2-5.1c-0.2-1.5-0.3-3.1-0.5-4.6c-3.8,2.9-7.8,5.7-11.7,8.2L372.1,413.3z"/>
<path class="st4" d="M388.9,451.8c0,4.7-3.8,8.4-8.4,8.4s-8.4-3.8-8.4-8.4c0-4.7,3.8-8.4,8.4-8.4S388.9,447.1,388.9,451.8z"/>
<path class="st4" d="M222.3,451.8c0,4.7-3.8,8.4-8.4,8.4c-4.7,0-8.4-3.8-8.4-8.4c0-4.7,3.8-8.4,8.4-8.4
	C218.6,443.3,222.3,447.1,222.3,451.8z"/>
<path class="st1" d="M285,482.1c0,0-5.9-5.9-11-23.5c-5.1-17.6-5.5-24.9-0.7-35.2c4.8-10.3,18-31.1,21.3-59.7
	c0.7-10.6,0.7-10.6,2.2-9.9c1.5,0.7,18,33.4,8.1,62.7c-5.9,22.7-14.3,20.5-19.1,49.5C285.8,474.8,285,482.1,285,482.1z"/>
<path class="st5" d="M290.5,482.1c1.5,1.8,3.3-12.5,7.7-18c4.4-5.5,13.6-16.9,16.9-34.4c2.9-11.4,1.5-24.9,0-29.3
	c-1.5-0.4-4.4,18.3-8.8,27.5c-1.5,9.5-13.2,15-14.3,29.3C289.4,471.1,290.5,482.1,290.5,482.1z"/>
<path class="st6" d="M300.1,482.1c0,0,5.1-8.8,7-11c1.8-2.2,9.9-9.2,12.5-14.7c3.3-5.9,7-20.5,2.9-31.9c-1.5,1.5-5.1,20.5-10.6,25.3
	C305.2,456.1,300.4,465.3,300.1,482.1z"/>
</svg>
