<?xml version="1.0" encoding="utf-8"?>
<!-- Generator: Adobe Illustrator 23.0.2, SVG Export Plug-In . SVG Version: 6.00 Build 0)  -->
<svg version="1.1" id="Layer_1" xmlns="http://www.w3.org/2000/svg" xmlns:xlink="http://www.w3.org/1999/xlink" x="0px" y="0px"
	 viewBox="0 0 120 120" style="enable-background:new 0 0 120 120;" xml:space="preserve">
<style type="text/css">
	.st0{fill:#00A651;}
</style>
<path class="st0" d="M50.98,28.39c5.62-0.62,6.11-4.36,6.11-4.36c0.05,0.4,1.59,2.34,3.32,2.29c1.72-0.05,2.17-1.98,2.3-3.44
	c0.13-1.46-0.93-2.12-1.24-2.12c-0.31,0-0.62,0.53-1.11,1.41c-0.49,0.88,0.75,1.11,0.75,1.11c0.18,1.9-1.07,1.9-1.07,1.9
	c-1.86-0.22-2.3-2.3-2.26-2.55c0.05-0.27,0.09-0.4,0-0.84s-1.37-1.5-1.37-1.5c0.35,5.55-2.12,5.9-2.12,5.9
	c-1.07-0.88-1.15-1.85-1.55-3.53c-0.4-1.68-0.09-2.69,0.22-3.13c0.31-0.44,0.4-1.11,0.4-1.11l-1.59-2.2c0,0-0.93,0.62-0.84,4.1
	c0.09,3.48,2.48,6.03,2.48,6.03c-1.86,2.16-3.9,0.84-4.56,0.18c-0.67-0.66-0.75,0.09-0.75,0.09C48.23,28.74,50.98,28.39,50.98,28.39
	z"/>
<polygon class="st0" points="60.1,19 59.08,17.9 58.11,19.14 59.21,20.23 "/>
<polygon class="st0" points="63.47,19.27 62.53,18.3 61.56,19.27 62.53,20.28 "/>
<path class="st0" d="M63.2,27.59c-0.67,0.53-0.67,0.67-0.67,1.5c0,0.84,0,3.17,0,3.17s0.67,0.88,1.29,0.27
	c0.62-0.62,1.32-1.46,1.32-1.46s0.62,0.92,0.53,1.85c-0.09,0.92-0.97,2.07-2.12,2.07s-3.68-1.59-4.03-3.92c0,0,0.57-0.88-0.05-1.11
	c0,0-0.31-0.13-0.27-0.74c0.05-0.62,0.05-1.68,0.05-1.68l-0.8,0.09l-0.4,1.23c0,0-0.71-1.28-2.7-0.92
	c-1.99,0.35-3.36,3.04-3.36,3.04l0.57,1.14c0,0,0.89-0.66,1.29,0c0.4,0.66,0.75,1.81,0.13,3.26l4.29-2.86v3.26l1.24,1.11l-0.09-3.75
	c0,0,1.11,2.95,3.9,2.86c2.79-0.09,3.5-2.2,3.41-4.05c-0.09-1.85-0.67-2.69-0.67-2.69l-2.21,1.32l-0.09-2.29
	c0,0,4.08-3.44,4.78-8.02l-3.19-4.05c0,0,1.72,4.27,0.67,6.96C64.97,25.88,63.87,27.07,63.2,27.59z M55.5,33.02
	c0,0-0.22-2.16-1.68-2.43c0,0,0.22-1.36,2.04-1.5s2.48,1.76,2.48,1.76L55.5,33.02z"/>
<path class="st0" d="M62.79,37.82c0,0.49,0.4,0.89,0.89,0.89s0.89-0.4,0.89-0.89s-0.4-0.89-0.89-0.89
	C63.19,36.93,62.79,37.33,62.79,37.82z"/>
<path class="st0" d="M44.27,92.8c-0.71,0.05-1.07-0.93-1.07-0.93l1.25-1.5c1.15,0.57,3.51,1.55,3.51,1.55s0.93-1.24,1.43-2.26
	c0.49-1.02-0.67-1.37-0.67-1.37c-1.87-0.89-4.89-2.79-4.89-2.79l-0.53,0.84c0.8,0.67,2.84,1.82,3.78,2.3
	c0.93,0.49,0.31,0.84,0.31,0.84l-0.58,0.75c-3.07-1.37-6-3.36-6-3.36s0.27-0.27,1.2-1.19c0.93-0.93-0.49-1.73-0.49-1.73
	c-1.56-0.92-4.4-3.68-4.4-3.68l-0.85,0.84c0.4,0.44,2.84,2.3,3.78,2.88c0.93,0.57-0.09,1.29-0.09,1.29l-0.93,0.71
	c-0.09-0.75-1.47-2.08-2.89-2.92c-1.43-0.84-1.96,0.05-1.96,0.05l-1.03,1.19l1.33,1.07c0,0,0.4-0.49,0.67-0.85
	c0.27-0.35,0.85-0.27,0.85-0.27s0.76,0.35,1.47,1.2c0.71,0.84,0.22,1.29-0.45,2.08c-0.67,0.8-1.65,0.09-1.65,0.09
	s-1.78-1.15-2.63-1.82c-0.85-0.66-1.51,0.13-1.51,0.13s-0.18,0.31-0.85,1.15c-0.67,0.85,0.09,1.64,0.09,1.64
	c2,1.95,4.36,3.5,4.36,3.5l0.93-0.97c-1.47-0.93-2.71-2.26-3.07-2.57c-0.35-0.31-0.53-0.71-0.22-1.11c0.31-0.4,0.89-0.13,0.89-0.13
	s1.73,1.15,2.31,1.68c0.58,0.53,1.69,0.44,1.69,0.44s0.89-0.71,1.47-1.37c0.58-0.67,0.49-1.2,0.49-1.2
	c0.71,0.71,3.78,2.61,3.78,2.61s-0.62,0.71-1.25,1.59c-0.62,0.89-0.31,1.47-0.31,1.47s0.85,0.71,1.51,1.19
	c0.67,0.49,1.73,0.05,1.73,0.05s-0.18,0.35-0.67,1.24c-0.49,0.89-1.43,0.31-1.43,0.31s-2.31-1.07-2.89-1.72
	c-0.58-0.67-0.22-1.24-0.22-1.24l1.78-2.66l-1.43-1.01c0,0-0.98,1.24-2.05,2.96c-1.07,1.72-0.13,2.26-0.13,2.26s2.84,1.99,4.89,2.88
	c2.05,0.89,2.45-0.31,2.45-0.31l2.18-3.41l-1.33-0.93C45.96,92.26,44.98,92.75,44.27,92.8z"/>
<path class="st0" d="M56.19,92.88c-0.74-0.81-2.83-1.14-4.11-1.21c-1.28-0.06-1.76,2.15-1.76,2.15l2.02,0.87
	c0,0,0.34-1.61,1.08-1.61c0.74,0,0.95,0.67,0.95,0.67l-0.13,4.5c0,0-0.74-0.67-1.14-0.81c-0.41-0.13-1.48-0.34-1.96,0
	c-0.47,0.34-0.81,0.6-1.62,0.34c-0.81-0.27-0.2-1.07-0.2-1.07l1.01-1.34l-1.68-1c0,0-0.2,0.47-0.88,1.61
	c-0.67,1.14-0.34,2.01-0.34,2.01s0.94,1.28,2.7,1.41c1.76,0.13,1.68-0.87,1.68-0.87c1.76-0.34,2.09,1.68,2.09,1.68h1.96l0.41-6.04
	h1.01v1.88c0,0,0.88,0,1.68,0s1.14,0.54,1.14,0.54s0,0.47,0,1.41c0,0.94-0.54,1.14-0.54,1.14h-2.49l0.07,1.54c0,0,1.08,0,3.24,0
	s1.89-2.55,1.89-2.55l1.35-0.13l0.34,2.35l1.89-0.07l-1.08-8.06L56.19,92.88z M61.79,96.5c0,0,0.47-1.54-2.16-1.61
	c0,0-0.27-0.53-0.27-0.94h3.91l0.2,2.35L61.79,96.5z"/>
<path class="st0" d="M77.78,91.8c-0.6-1.14-1.62-1.14-2.36-0.87c-0.74,0.27-1.89,1.14-1.89,1.14l0.54,1.21c0,0,0.27-0.2,1.21-0.74
	c0.95-0.54,1.08,0.07,1.55,1.01c0.47,0.94-0.34,1.47-0.34,1.47l-2.63,1.28l-1.96-4.7c1.82-0.87,4.45-2.82,4.45-2.82
	s-0.81-1.28-1.29-2.08c-0.47-0.81-1.42-0.34-1.42-0.34l-2.56,1.34l0.41,1.01c0,0,0.81-0.2,1.62-0.74c0.81-0.54,1.29,0.54,1.29,0.54
	c-1.82,1.81-6,3.02-6,3.02c-0.34-0.87,0.34-1.34,0.34-1.34l2.09-1.07l-0.47-1.14c0,0-1.82,0.67-3.1,1.21
	c-1.29,0.53-0.74,2.08-0.74,2.08l2.36,8.19l1.76-0.4l-1.76-6.11l1.61-0.6l2.43,5.91c0,0,4.19-2.01,5.4-2.82
	c1.21-0.81,0.07-2.48,0.07-2.48S78.38,92.95,77.78,91.8z"/>
<path class="st0" d="M78.59,86.29c-0.88-0.81,0.13-1.75,0.13-1.75l3.17-3.03l-0.81-0.81c0,0-2.7,2.41-4.05,3.42
	c-1.35,1.01-0.6,2.28-0.6,2.28l5.13,7.38l1.62-1.41l-3.85-5.04l1.14-0.81l0.94,1.81c0,0,1.01-0.74,1.76-1.47
	c0.74-0.74,1.48-0.07,2.23,0.74c0.74,0.81,0,1.68,0,1.68l-1.76,1.48l0.74,0.94c0,0,1.96-1.68,3.03-2.55
	c1.08-0.87,0.47-1.68,0.47-1.68s-0.27-0.2-0.88-0.94c-0.6-0.74,0.41-1.28,0.41-1.28l2.3,2.22L90.8,86L85,80.36L78.59,86.29z
	 M85.73,85.42c0,0-1.08-0.87-2.09-0.2c-1.01,0.67-1.29,1-1.29,1s-0.54-0.27-0.67-0.74l2.97-2.88l1.62,1.61L85.73,85.42z"/>
<path class="st0" d="M97.94,29.11l-0.16-0.26C90.8,17.57,75.57,10.27,58.96,10.27c-16.3,0-30.96,6.79-38.26,17.7l-0.18,0.27
	l0.23,64.12l0.19,0.27C28.31,103.35,42.89,110,58.97,110c16.61,0,31.85-7.3,38.83-18.59l0.16-0.26L97.94,29.11z M58.96,12.42
	c15.76,0,30.17,6.8,36.83,17.34c0,0.37,0,17.48,0,33.45L83.45,31.68l-1.5,0.59c0,0,12.36,31.57,12.84,32.8
	c-1.14,0.67-34.89,20.43-35.69,20.89C58.3,85.49,25.04,65.6,23.93,64.94c0.46-1.21,12.58-32.81,12.58-32.81L35,31.56L22.8,63.36
	c-0.05-16.45-0.12-34.04-0.13-34.42C29.64,18.75,43.5,12.42,58.96,12.42z M58.96,107.85c-15.26,0-29.03-6.21-36.07-16.2
	c0-0.32-0.04-12.18-0.09-25.5l36.28,21.69l36.71-21.49c0,12.68,0.01,23.86,0.01,24.15C89.13,101.04,74.72,107.85,58.96,107.85z"/>
<path class="st0" d="M78.38,31.71L59.23,43.53L39.26,31.71L27.11,63.93l32.25,19.34l31.84-18.8L78.38,31.71z M41.55,63.93
	c0,0-4.37-1.31-2.72-5.63c1.74-4.55,3.26-7.92,3.26-7.92l2.7,1.88l-2.83,6.85c0,0-0.54,1.61,0.67,2.15
	c1.21,0.53,2.02,0.13,2.56-1.21c0.54-1.34,2.56-7.25,2.56-7.25l2.74,0.82l-2.68,8.06C47.82,61.66,46.67,66.11,41.55,63.93z
	 M58.47,63.68c-0.2,2.88-1.18,2.92-4.19,2.95c-3.01,0.04-6.02-0.85-6.02-0.85l1.02-2.88c1.75,1.05,3.94,1.38,4.8,1.42
	c0.85,0.04,1.67,0.12,1.79-1.05c0.13-1.18-1.79-1.25-2.56-1.38c-0.78-0.13-2.23-0.16-2.84-1.46c-0.61-1.29,0.41-3.72,1.02-5.05
	c0.61-1.34,1.67-1.14,1.67-1.14h5.04l0.13,2.83c0,0-2.19,0.04-3.09,0.04s-1.58-0.28-1.87,1.42c-0.28,1.7,1.54,1.42,3.21,1.62
	C58.22,60.37,58.67,60.81,58.47,63.68z M66.64,65.79l-2.36,0.6l-1.38-9.39l-2.84,0.04l-0.13-2.71l7.4-0.89l0.41,2.71l-2.6,0.61
	L66.64,65.79z M72.62,63.12c0,0-2.56-5.38-3.17-7.41c-0.61-2.03,1.1-2.95,1.1-2.95s2.68-1.38,4.11-1.74
	c1.43-0.37,1.99,0.85,1.99,0.85l1.71,3.48l-1.95,0.97c0,0-0.32-0.49-0.89-1.58c-0.57-1.1-1.39-0.93-2.32-0.6
	c-0.93,0.32-1.26,1.09-1.22,1.7c0.04,0.6,1.47,3.8,1.71,4.29s1.02,1.7,2.48,1.21c1.47-0.49,3.46-2.35,3.46-2.35l1.26,2.31
	c0,0-2.6,1.74-5.13,2.71C73.23,64.98,72.62,63.12,72.62,63.12z"/>
</svg>
