<?xml version="1.0" encoding="UTF-8" standalone="no"?>
<svg
   xmlns:dc="http://purl.org/dc/elements/1.1/"
   xmlns:cc="http://creativecommons.org/ns#"
   xmlns:rdf="http://www.w3.org/1999/02/22-rdf-syntax-ns#"
   xmlns:svg="http://www.w3.org/2000/svg"
   xmlns="http://www.w3.org/2000/svg"
   xml:space="preserve"
   enable-background="new 0 0 1800 612"
   viewBox="0 0 398.2843 398.28433"
   height="120"
   width="120"
   y="0px"
   x="0px"
   id="Layer_1"
   version="1.1"><defs
     id="defs1315" /><path
     style="stroke-width:0.214553"
     id="path1066"
     d="m 200.95413,141.52503 c -0.1416,0.62585 -0.24523,1.14743 -0.31325,1.56474 -0.0708,0.41752 -0.1047,1.00926 -0.1047,1.77328 v 43.18699 c 0,7.78936 -2.39913,13.73484 -7.19783,17.83839 -4.7987,4.10333 -11.75323,6.15446 -20.86316,6.15446 -5.21536,0 -9.59675,-0.68378 -13.14374,-2.04684 -3.54635,-1.36606 -6.50311,-3.56974 -8.86663,-6.6121 -1.601,-2.01573 -2.81644,-4.27648 -3.65148,-6.77967 -0.83419,-2.50383 -1.25149,-5.18017 -1.25149,-8.03244 v -43.709 c 0,-1.04316 -0.14032,-2.15455 -0.41752,-3.33802 h 12.41383 c -0.14031,0.69579 -0.24459,1.26994 -0.31324,1.72136 -0.0702,0.45271 -0.10406,0.9908 -0.10406,1.61644 v 43.9169 c 0,5.63353 1.6173,9.9984 4.8504,13.09204 3.23396,3.09429 7.80566,4.64143 13.71789,4.64143 6.32739,0 11.1778,-1.65055 14.55186,-4.95467 3.37214,-3.30198 5.0596,-8.08437 5.0596,-14.3431 v -42.35238 c 0,-0.76403 -0.036,-1.37207 -0.10428,-1.82564 -0.0702,-0.45142 -0.17507,-0.95476 -0.31324,-1.51238 h 6.05104 z"
     fill="#0069B4" /><path
     style="stroke-width:0.214553"
     id="path1068"
     d="m 214.93142,210.9993 c 0.27656,-1.1603 0.41687,-2.21848 0.41687,-3.17324 v -62.96322 c 0,-0.5557 -0.0356,-1.05947 -0.10491,-1.51239 -0.0693,-0.45142 -0.17444,-1.05946 -0.31196,-1.82563 h 12.41276 c -0.27785,1.11331 -0.41688,2.22663 -0.41688,3.33802 v 60.607 h 19.71659 c 0.97235,0 1.65056,-0.0326 2.03353,-0.10342 0.38126,-0.068 0.88654,-0.20983 1.51303,-0.41666 v 6.04954 z"
     fill="#0069B4" /><path
     style="stroke-width:0.214553"
     id="path1070"
     d="m 258.01285,208.07945 c -0.1401,0.55569 -0.24373,1.02685 -0.31325,1.40811 -0.0695,0.38126 -0.10341,0.88525 -0.10341,1.51174 h -6.57263 c 0.34715,-0.55569 0.6265,-1.04316 0.83504,-1.46003 0.20833,-0.41667 0.41795,-0.90434 0.6265,-1.46004 l 22.73964,-64.15485 c 0.13881,-0.55634 0.24395,-0.99145 0.31325,-1.30405 0.0693,-0.31325 0.13881,-0.71232 0.20854,-1.19979 h 10.01535 c 0.0682,0.76617 0.24266,1.53084 0.52179,2.29487 l 23.47127,64.36382 c 0.20854,0.5557 0.41666,1.00776 0.62499,1.35512 0.20855,0.34865 0.55569,0.87023 1.04337,1.56474 h -13.56062 c 0,-0.5557 -0.0367,-1.02535 -0.10492,-1.40812 -0.0693,-0.38126 -0.20833,-0.88653 -0.41644,-1.51174 l -6.67626,-18.88218 h -25.87083 z m 30.66867,-23.88922 -11.26576,-31.39879 -10.9538,31.39879 z"
     fill="#0069B4" /><path
     style="stroke-width:0.214553"
     id="path1072"
     d="m 341.98663,141.42076 c 6.3969,0 11.33399,1.49329 14.81211,4.4773 3.47705,2.98593 5.21643,7.21885 5.21643,12.70262 0,2.98594 -0.6443,5.64103 -1.9299,7.96507 -1.2884,2.32619 -3.11339,4.14839 -5.47626,5.46661 -0.97515,0.55569 -1.89579,0.9893 -2.76452,1.30255 -0.87044,0.3126 -2.17514,0.74643 -3.91131,1.30084 10.29062,1.8119 15.43861,7.59411 15.43861,17.34534 0,2.78769 -0.48768,5.34602 -1.46153,7.68036 -0.97365,2.33413 -2.33005,4.33762 -4.06793,6.01007 -1.73917,1.67244 -3.84351,2.97714 -6.3113,3.91817 -2.46908,0.94124 -5.1628,1.40961 -8.08437,1.40961 h -24.93087 c 0.13753,-0.62649 0.24223,-1.16309 0.31175,-1.61666 0.0695,-0.45077 0.1047,-1.05946 0.1047,-1.82627 v -62.79759 c 0,-0.76403 -0.0352,-1.35576 -0.1047,-1.77328 -0.0695,-0.41752 -0.17444,-0.9391 -0.31175,-1.56474 z m -6.4675,31.19046 c 5.14521,0 8.91898,-1.1249 11.31747,-3.37556 2.39978,-2.2511 3.59935,-5.76698 3.59935,-10.54723 0,-8.03394 -4.17285,-12.05145 -12.51875,-12.05145 h -7.40595 v 25.97424 z m 3.23311,33.06845 c 8.55423,0 12.83071,-4.45069 12.83071,-13.35272 0,-5.28423 -1.52955,-9.14383 -4.58994,-11.57901 -1.39159,-1.18219 -2.92114,-1.99856 -4.58951,-2.45149 -1.66986,-0.45142 -3.93061,-0.6782 -6.78095,-0.6782 h -5.11109 v 28.06142 z"
     fill="#0069B4" /><path
     style="stroke-width:0.214553"
     id="path1076"
     d="m 155.43966,227.44309 c -0.0245,0.1105 -0.0429,0.20147 -0.0551,0.27506 -0.0122,0.0736 -0.0185,0.17979 -0.0185,0.31325 v 7.62114 c 0,1.3755 -0.42352,2.42424 -1.26994,3.14879 -0.84705,0.72454 -2.07408,1.08563 -3.68195,1.08563 -0.92064,0 -1.69346,-0.12122 -2.31932,-0.36109 -0.62585,-0.24116 -1.14829,-0.62928 -1.56495,-1.16588 -0.28256,-0.3568 -0.4969,-0.75566 -0.64409,-1.1985 -0.14782,-0.44133 -0.22142,-0.91249 -0.22142,-1.41648 v -7.71383 c 0,-0.18366 -0.0245,-0.37997 -0.0736,-0.5883 h 2.19059 c -0.0245,0.12251 -0.0429,0.22335 -0.0551,0.30359 -0.0122,0.0805 -0.0182,0.17443 -0.0182,0.28471 v 7.75052 c 0,0.99446 0.28536,1.76385 0.85586,2.31117 0.57071,0.54475 1.37764,0.81852 2.4208,0.81852 1.11675,0 1.9726,-0.29158 2.56777,-0.87581 0.59518,-0.58165 0.89276,-1.42592 0.89276,-2.53044 v -7.47417 c 0,-0.13345 -0.006,-0.24245 -0.0182,-0.3214 -0.0122,-0.079 -0.0307,-0.16886 -0.0551,-0.26691 h 1.06783 z"
     fill="#0069B4" /><path
     style="stroke-width:0.214553"
     id="path1078"
     d="m 158.88196,239.11457 c 0,0.12251 0.006,0.22335 0.0185,0.30231 0.0122,0.0802 0.0307,0.17572 0.0551,0.286 h -1.08628 c 0.0491,-0.20833 0.0736,-0.40594 0.0736,-0.58831 v -11.10098 c 0,-0.11028 -0.006,-0.20554 -0.0182,-0.2845 -0.0122,-0.0805 -0.0307,-0.18258 -0.0551,-0.30509 h 1.95179 c 0.0245,0.0871 0.0455,0.15126 0.0639,0.19331 0.0185,0.0436 0.0708,0.11993 0.15662,0.23021 l 6.7005,9.38757 v -9.2215 c 0,-0.1961 -0.0245,-0.39349 -0.0736,-0.58959 h 1.08607 c -0.0245,0.0981 -0.0429,0.18516 -0.0551,0.25875 -0.0122,0.0736 -0.0182,0.18258 -0.0182,0.33084 v 11.13638 c 0,0.14719 0.006,0.25339 0.0182,0.31325 0.0124,0.0626 0.0369,0.14161 0.0736,0.23966 h -1.7853 l -0.0736,-0.16607 c -0.0245,-0.0491 -0.0551,-0.0953 -0.092,-0.13774 -0.0367,-0.042 -0.0736,-0.094 -0.11029,-0.15641 l -6.82987,-9.55363 v 9.42554 z"
     fill="#0069B4" /><path
     style="stroke-width:0.214553"
     id="path1080"
     d="m 172.61551,227.424 c -0.0251,0.0981 -0.0436,0.18794 -0.0558,0.2669 -0.0122,0.0805 -0.0182,0.18795 -0.0182,0.32269 v 11.10098 c 0,0.13346 0.006,0.24245 0.0182,0.3214 0.0122,0.079 0.0307,0.16886 0.0558,0.26691 h -2.19059 c 0.0483,-0.20833 0.0736,-0.40594 0.0736,-0.58831 v -11.10098 c 0,-0.18366 -0.0253,-0.37998 -0.0736,-0.58959 z"
     fill="#0069B4" /><path
     style="stroke-width:0.214553"
     id="path1082"
     d="m 175.96576,227.424 c -0.0131,0.0382 -0.0191,0.0736 -0.0191,0.11178 0,0.0845 0.0307,0.22056 0.0927,0.40465 l 3.25842,9.70081 3.35025,-9.73772 c 0.0369,-0.098 0.0579,-0.17851 0.0641,-0.23965 0.006,-0.0611 0.009,-0.14161 0.009,-0.23966 h 1.14121 c -0.12251,0.18516 -0.20897,0.3568 -0.25811,0.51622 l -3.82891,11.26576 c -0.0245,0.0611 -0.0397,0.12658 -0.0457,0.1931 -0.006,0.0669 -0.0219,0.16885 -0.0463,0.3038 h -1.89579 c -0.0245,-0.0981 -0.0403,-0.17443 -0.0463,-0.23 -0.006,-0.056 -0.0341,-0.14461 -0.0824,-0.2669 l -3.75554,-11.17458 c -0.0245,-0.0736 -0.0491,-0.14439 -0.0736,-0.2109 -0.0245,-0.0669 -0.0858,-0.2004 -0.18452,-0.3965 h 2.32018 z"
     fill="#0069B4" /><path
     style="stroke-width:0.214553"
     id="path1084"
     d="m 191.11579,227.424 v 0.97514 c -0.12251,-0.0354 -0.21798,-0.0599 -0.28535,-0.0736 -0.0674,-0.0109 -0.16263,-0.0178 -0.28536,-0.0178 h -3.6635 v 4.69464 h 3.57167 c 0.17164,0 0.29415,-0.003 0.36775,-0.007 0.0742,-0.004 0.17765,-0.0206 0.31324,-0.0479 v 0.99274 c -0.12251,-0.023 -0.22056,-0.0395 -0.29501,-0.0448 -0.0736,-0.007 -0.1961,-0.0109 -0.36774,-0.0109 h -3.58991 v 4.84289 h 3.55322 c 0.11028,0 0.21176,-0.007 0.30381,-0.0191 0.092,-0.0125 0.22335,-0.0367 0.39563,-0.0736 v 1.06783 h -6.36965 c 0.0245,-0.11028 0.0429,-0.20576 0.0551,-0.286 0.0122,-0.079 0.0182,-0.1798 0.0182,-0.30231 v -11.10098 c 0,-0.13474 -0.006,-0.23966 -0.0182,-0.31303 -0.0122,-0.0738 -0.0307,-0.165 -0.0551,-0.27656 z"
     fill="#0069B4" /><path
     style="stroke-width:0.214553"
     id="path1086"
     d="m 195.42273,239.11457 c 0,0.109 0.006,0.20426 0.0185,0.2845 0.0122,0.0805 0.0307,0.1813 0.0551,0.30381 h -2.19059 c 0.0245,-0.11028 0.0429,-0.20576 0.0551,-0.286 0.0124,-0.079 0.0185,-0.1798 0.0185,-0.30231 v -11.10098 c 0,-0.1592 -0.0245,-0.3553 -0.0736,-0.58959 h 3.73709 c 0.56448,0 1.08349,0.0804 1.55594,0.23965 0.47201,0.1592 0.87988,0.38684 1.22381,0.68099 0.34436,0.29416 0.60718,0.64817 0.79127,1.05947 0.18516,0.4113 0.27656,0.86079 0.27656,1.35254 0,0.66319 -0.16885,1.2324 -0.50527,1.71192 -0.33835,0.47931 -0.81981,0.84019 -1.44566,1.08671 -0.20898,0.0845 -0.40508,0.15255 -0.58895,0.20147 -0.18452,0.0491 -0.44198,0.10341 -0.77347,0.16606 l 4.03124,5.30054 c 0.12251,0.14719 0.20555,0.24631 0.24781,0.29544 0.0436,0.0491 0.12659,0.1105 0.24931,0.18387 h -2.68749 c -0.0376,-0.11028 -0.0742,-0.20146 -0.11114,-0.27656 -0.0367,-0.0734 -0.0856,-0.15919 -0.14718,-0.25725 l -3.73709,-5.15356 v 5.09928 z m 0.94447,-5.81804 c 0.72798,0 1.31693,-0.22614 1.76706,-0.68099 0.45077,-0.45335 0.67541,-1.04874 0.67541,-1.78551 0,-0.39349 -0.0742,-0.7666 -0.22206,-1.1234 -0.14761,-0.3553 -0.35144,-0.6428 -0.61083,-0.86487 -0.40723,-0.3553 -0.97451,-0.5338 -1.70248,-0.5338 h -0.87023 v 4.98879 h 0.96313 z"
     fill="#0069B4" /><path
     style="stroke-width:0.214553"
     id="path1088"
     d="m 202.86365,237.47496 c 0.29416,0.25875 0.56106,0.47673 0.79964,0.65374 0.23966,0.17851 0.46966,0.31604 0.69044,0.41409 0.22077,0.0981 0.44391,0.16885 0.67155,0.21241 0.22743,0.0436 0.47523,0.0641 0.74493,0.0641 0.70008,0 1.26393,-0.1961 1.69282,-0.58981 0.42911,-0.3922 0.64431,-0.90155 0.64431,-1.52676 0,-0.69987 -0.29566,-1.26501 -0.88396,-1.69411 -0.13474,-0.0981 -0.34028,-0.21649 -0.61684,-0.35809 -0.27506,-0.14161 -0.66598,-0.33513 -1.16846,-0.58015 -0.52845,-0.24524 -0.97515,-0.49455 -1.34418,-0.74643 -0.36924,-0.2506 -0.66876,-0.51472 -0.90305,-0.79128 -0.2315,-0.27656 -0.40036,-0.57071 -0.50527,-0.88396 -0.10471,-0.31324 -0.15641,-0.65374 -0.15641,-1.02148 0,-0.50249 0.0981,-0.96292 0.29415,-1.38108 0.1961,-0.41667 0.47674,-0.77218 0.8389,-1.06783 0.3611,-0.29416 0.78999,-0.52309 1.28839,-0.68915 0.49584,-0.16606 1.04595,-0.24931 1.64799,-0.24931 0.51471,0 0.9833,0.0491 1.40704,0.14847 0.42353,0.0981 0.90563,0.26969 1.4448,0.51471 l -0.38555,1.30749 c -0.50249,-0.3568 -0.95198,-0.61019 -1.34804,-0.76531 -0.39778,-0.15255 -0.805,-0.22871 -1.21909,-0.22871 -0.58702,0 -1.07041,0.17164 -1.44909,0.51471 -0.37869,0.34307 -0.56771,0.77904 -0.56771,1.30749 0,0.25725 0.0367,0.4821 0.11028,0.67133 0.0736,0.19074 0.20146,0.3774 0.38405,0.56256 0.18516,0.18259 0.44133,0.36775 0.77089,0.55162 0.33105,0.18366 0.75308,0.39349 1.26651,0.62499 0.64816,0.29415 1.14936,0.56514 1.50509,0.81016 0.35401,0.24652 0.6413,0.51621 0.86207,0.81036 0.45206,0.57737 0.6782,1.26394 0.6782,2.06186 0,0.5883 -0.13216,1.14936 -0.39499,1.68338 -0.26411,0.53381 -0.62928,0.97365 -1.09508,1.31693 -0.33234,0.24652 -0.7312,0.4319 -1.19721,0.56106 -0.46708,0.12959 -0.97643,0.19353 -1.52783,0.19353 -0.3066,0 -0.59796,-0.0178 -0.87452,-0.056 -0.27634,-0.0354 -0.54883,-0.0912 -0.8183,-0.16499 -0.2712,-0.0734 -0.54347,-0.16886 -0.81981,-0.2845 -0.27506,-0.11715 -0.57479,-0.26154 -0.8934,-0.43318 z"
     fill="#0069B4" /><path
     style="stroke-width:0.214553"
     id="path1090"
     d="m 214.14444,227.424 c -0.0247,0.0981 -0.0436,0.18794 -0.056,0.2669 -0.0125,0.0805 -0.0178,0.18795 -0.0178,0.32269 v 11.10098 c 0,0.13346 0.005,0.24245 0.0178,0.3214 0.0124,0.079 0.0313,0.16886 0.056,0.26691 h -2.19145 c 0.0491,-0.20833 0.0736,-0.40594 0.0736,-0.58831 v -11.10098 c 0,-0.18366 -0.0245,-0.37998 -0.0736,-0.58959 z"
     fill="#0069B4" /><path
     style="stroke-width:0.214553"
     id="path1092"
     d="m 224.1203,227.424 v 1.1234 c -0.17164,-0.0367 -0.31174,-0.0611 -0.42374,-0.0734 -0.11028,-0.0124 -0.22035,-0.0193 -0.33084,-0.0193 h -2.66926 v 10.65986 c 0,0.12251 0.007,0.22335 0.0191,0.30231 0.0122,0.0802 0.03,0.17572 0.0545,0.286 h -2.18994 c 0.0245,-0.11028 0.0423,-0.20576 0.0545,-0.286 0.0122,-0.079 0.0191,-0.1798 0.0191,-0.30231 V 228.4547 h -2.66926 c -0.13474,0 -0.25467,0.007 -0.35959,0.0193 -0.10341,0.0122 -0.24244,0.0367 -0.41409,0.0734 v -1.1234 z"
     fill="#0069B4" /><path
     style="stroke-width:0.214553"
     id="path1094"
     d="m 223.67768,227.9209 c -0.0738,-0.14718 -0.1253,-0.24523 -0.15555,-0.29415 -0.0313,-0.0491 -0.0775,-0.11565 -0.1386,-0.20275 h 2.39269 c 0.0122,0.0871 0.0285,0.15662 0.0464,0.2124 0.0191,0.0545 0.0639,0.16349 0.13774,0.3214 l 2.48539,5.08148 2.59588,-5.11816 c 0.0491,-0.0856 0.0856,-0.16199 0.11049,-0.23001 0.0242,-0.0667 0.0491,-0.15533 0.0734,-0.2669 h 1.1603 c -0.0611,0.0871 -0.11028,0.15662 -0.14718,0.21241 -0.0367,0.0545 -0.0856,0.13753 -0.14719,0.24781 l -3.20328,6.40634 v 4.8238 c 0,0.12251 0.005,0.22335 0.0178,0.30231 0.0125,0.0802 0.0313,0.17572 0.056,0.286 h -2.19145 c 0.0245,-0.11028 0.0436,-0.20576 0.056,-0.286 0.0122,-0.079 0.0176,-0.1798 0.0176,-0.30231 v -4.78711 z"
     fill="#0069B4" /><path
     style="stroke-width:0.214553"
     id="path1096"
     d="m 243.81629,227.23991 c 1.93935,0 3.43049,0.54625 4.47408,1.63854 1.04294,1.09229 1.56474,2.65038 1.56474,4.67683 0,2.04834 -0.5218,3.61716 -1.56474,4.7028 -1.04337,1.08542 -2.54696,1.62888 -4.51055,1.62888 -1.96402,0 -3.45796,-0.54904 -4.48224,-1.64669 -1.02535,-1.09894 -1.53748,-2.69801 -1.53748,-4.79655 0,-0.96978 0.1386,-1.8413 0.41408,-2.61369 0.27635,-0.77347 0.67263,-1.42313 1.18756,-1.95158 0.516,-0.52715 1.14807,-0.93159 1.89579,-1.2148 0.74857,-0.28192 1.60142,-0.42374 2.55876,-0.42374 z m 0,0.97665 c -1.26393,0 -2.22406,0.4467 -2.88038,1.33859 -0.65674,0.89212 -0.9848,2.20239 -0.9848,3.92654 0,3.61994 1.29376,5.43013 3.88428,5.43013 1.2517,0 2.20217,-0.45357 2.85334,-1.35791 0.64945,-0.90434 0.97514,-2.22534 0.97514,-3.96322 0,-1.78401 -0.32569,-3.1269 -0.97514,-4.02588 -0.65138,-0.89877 -1.60872,-1.34825 -2.87244,-1.34825 z"
     fill="#0069B4" /><path
     style="stroke-width:0.214553"
     id="path1098"
     d="m 258.11905,227.424 v 0.95755 c -0.13495,-0.0247 -0.24523,-0.0423 -0.33105,-0.056 -0.0856,-0.0109 -0.1961,-0.0178 -0.33084,-0.0178 h -3.46075 v 4.73154 h 2.94475 c 0.13473,0 0.24223,-0.007 0.32268,-0.0178 0.079,-0.0135 0.18645,-0.0313 0.3214,-0.056 v 1.03114 c -0.12251,-0.0245 -0.22056,-0.0436 -0.29415,-0.056 -0.0736,-0.0122 -0.17851,-0.0176 -0.31325,-0.0176 h -2.98143 v 5.19154 c 0,0.109 0.005,0.20426 0.0178,0.2845 0.0124,0.0805 0.0313,0.1813 0.056,0.30381 h -2.19145 c 0.0491,-0.23301 0.0736,-0.4304 0.0736,-0.58831 V 227.996 c 0,-0.14826 -0.0245,-0.33771 -0.0736,-0.572 z"
     fill="#0069B4" /><path
     style="stroke-width:0.214553"
     id="path1100"
     d="m 264.81955,239.70288 c 0.0491,-0.20426 0.0736,-0.39221 0.0736,-0.55977 V 228.0314 c 0,-0.0981 -0.005,-0.18667 -0.0178,-0.26691 -0.0122,-0.0789 -0.0313,-0.18666 -0.0558,-0.3214 h 2.19123 c -0.0491,0.1961 -0.0734,0.3922 -0.0734,0.58831 v 10.69633 h 3.47812 c 0.17186,0 0.29158,-0.007 0.35959,-0.0191 0.0669,-0.0125 0.15662,-0.0367 0.2669,-0.0736 v 1.06783 z"
     fill="#0069B4" /><path
     style="stroke-width:0.214553"
     id="path1102"
     d="m 274.79692,227.424 c -0.0245,0.0981 -0.0435,0.18794 -0.056,0.2669 -0.0122,0.0805 -0.0176,0.18795 -0.0176,0.32269 v 11.10098 c 0,0.13346 0.005,0.24245 0.0176,0.3214 0.0125,0.079 0.0313,0.16886 0.056,0.26691 h -2.19145 c 0.0491,-0.20833 0.0738,-0.40594 0.0738,-0.58831 v -11.10098 c 0,-0.18366 -0.0247,-0.37998 -0.0738,-0.58959 z"
     fill="#0069B4" /><path
     style="stroke-width:0.214553"
     id="path1104"
     d="m 281.6431,227.424 c 1.12919,0 2.00071,0.26411 2.61497,0.78998 0.61298,0.52845 0.92065,1.27466 0.92065,2.24165 0,0.52845 -0.11436,0.99682 -0.34028,1.40554 -0.22764,0.4113 -0.55011,0.7327 -0.96721,0.96571 -0.17142,0.0981 -0.33491,0.17443 -0.48725,0.23 -0.15405,0.0545 -0.38426,0.13066 -0.69064,0.22871 1.81533,0.32011 2.72375,1.3401 2.72375,3.06168 0,0.49154 -0.0858,0.94253 -0.25725,1.35511 -0.17186,0.41259 -0.41151,0.7651 -0.71789,1.06075 -0.30639,0.29416 -0.67821,0.52566 -1.11396,0.69194 -0.43576,0.16499 -0.91121,0.24781 -1.42593,0.24781 h -4.40048 c 0.0245,-0.11028 0.0435,-0.20576 0.0558,-0.286 0.0125,-0.079 0.0178,-0.18666 0.0178,-0.3214 v -11.08189 c 0,-0.13474 -0.005,-0.23966 -0.0178,-0.31303 -0.0122,-0.0738 -0.0313,-0.165 -0.0558,-0.27656 z m -1.141,5.50479 c 0.90821,0 1.5744,-0.19889 1.99792,-0.59646 0.42353,-0.39649 0.63465,-1.01741 0.63465,-1.86039 0,-1.41906 -0.73549,-2.1273 -2.20904,-2.1273 h -1.30598 v 4.58415 z m 0.5705,5.83434 c 1.51046,0 2.26483,-0.7844 2.26483,-2.356 0,-0.93159 -0.26948,-1.61259 -0.81016,-2.04277 -0.24523,-0.20833 -0.51471,-0.35294 -0.80908,-0.43318 -0.29544,-0.079 -0.69451,-0.11993 -1.1972,-0.11993 h -0.90134 v 4.95188 z"
     fill="#0069B4" /><path
     style="stroke-width:0.214553"
     id="path1106"
     d="m 293.9222,227.424 v 0.97514 c -0.1223,-0.0354 -0.21799,-0.0599 -0.2845,-0.0736 -0.068,-0.0109 -0.16349,-0.0178 -0.286,-0.0178 h -3.66221 v 4.69464 h 3.57124 c 0.17143,0 0.29415,-0.003 0.36753,-0.007 0.0738,-0.004 0.17851,-0.0206 0.31346,-0.0479 v 0.99274 c -0.12272,-0.023 -0.22078,-0.0395 -0.29415,-0.0448 -0.0738,-0.007 -0.19761,-0.0109 -0.36925,-0.0109 h -3.58883 v 4.84289 h 3.55193 c 0.11049,0 0.21241,-0.007 0.30381,-0.0191 0.0927,-0.0125 0.22463,-0.0367 0.39649,-0.0736 v 1.06783 h -6.36966 c 0.0245,-0.11028 0.0436,-0.20576 0.056,-0.286 0.0122,-0.079 0.0176,-0.1798 0.0176,-0.30231 v -11.10098 c 0,-0.13474 -0.005,-0.23966 -0.0176,-0.31303 -0.0124,-0.0738 -0.0313,-0.165 -0.056,-0.27656 z"
     fill="#0069B4" /><path
     style="stroke-width:0.214553"
     id="path1108"
     d="m 298.23128,239.11457 c 0,0.109 0.005,0.20426 0.0178,0.2845 0.0124,0.0805 0.0313,0.1813 0.056,0.30381 h -2.19145 c 0.0245,-0.11028 0.0436,-0.20576 0.056,-0.286 0.0122,-0.079 0.0176,-0.1798 0.0176,-0.30231 v -11.10098 c 0,-0.1592 -0.0245,-0.3553 -0.0736,-0.58959 h 3.73709 c 0.56385,0 1.08264,0.0804 1.5553,0.23965 0.47266,0.1592 0.88117,0.38684 1.22445,0.68099 0.34329,0.29416 0.60719,0.64817 0.79127,1.05947 0.18516,0.4113 0.27656,0.86079 0.27656,1.35254 0,0.66319 -0.16885,1.2324 -0.50656,1.71192 -0.3377,0.47953 -0.81852,0.84019 -1.44501,1.08671 -0.20855,0.0845 -0.40465,0.15255 -0.58831,0.20147 -0.18366,0.0489 -0.44262,0.10341 -0.77346,0.16606 l 4.03124,5.30054 c 0.12251,0.14719 0.20554,0.24631 0.2491,0.29544 0.0423,0.0491 0.12529,0.1105 0.24802,0.18387 h -2.68707 c -0.0367,-0.11028 -0.0736,-0.20146 -0.11049,-0.27656 -0.0367,-0.0734 -0.0856,-0.15919 -0.14718,-0.25725 l -3.73709,-5.15356 v 5.09928 z m 0.94382,-5.81804 c 0.72734,0 1.31693,-0.22614 1.76771,-0.68099 0.44949,-0.45335 0.67541,-1.04874 0.67541,-1.78551 0,-0.39349 -0.0751,-0.7666 -0.22206,-1.1234 -0.14826,-0.3553 -0.35273,-0.6428 -0.61148,-0.86487 -0.40722,-0.3553 -0.97514,-0.5338 -1.70248,-0.5338 h -0.87023 v 4.98879 h 0.96313 z"
     fill="#0069B4" /><path
     style="stroke-width:0.214553"
     id="path1110"
     d="m 305.96142,239.18816 c -0.0242,0.0981 -0.0435,0.1798 -0.0545,0.24781 -0.0135,0.068 -0.0189,0.15663 -0.0189,0.26691 h -1.1603 c 0.0611,-0.0981 0.11157,-0.18387 0.14826,-0.25725 0.0369,-0.0751 0.0736,-0.15941 0.11028,-0.25747 l 4.01236,-11.32283 c 0.0242,-0.0981 0.0435,-0.17443 0.0558,-0.22871 0.0122,-0.0558 0.0245,-0.1253 0.0369,-0.21241 h 1.76749 c 0.0109,0.13624 0.0423,0.26969 0.0914,0.40594 l 4.14152,11.35823 c 0.0369,0.0981 0.0751,0.17701 0.11179,0.23815 0.0367,0.0614 0.0981,0.15405 0.18365,0.27656 h -2.39291 c 0,-0.0981 -0.007,-0.18108 -0.0189,-0.24781 -0.0124,-0.068 -0.0369,-0.15791 -0.0738,-0.2669 l -1.1779,-3.33244 h -4.56505 z m 5.41254,-4.2164 -1.98848,-5.54019 -1.9327,5.54019 z"
     fill="#0069B4" /><path
     style="stroke-width:0.214553"
     id="path1112"
     d="m 316.63888,239.70288 c 0.0491,-0.20426 0.0738,-0.39221 0.0738,-0.55977 V 228.0314 c 0,-0.0981 -0.005,-0.18667 -0.0178,-0.26691 -0.0125,-0.0789 -0.0313,-0.18666 -0.056,-0.3214 h 2.19144 c -0.0491,0.1961 -0.0736,0.3922 -0.0736,0.58831 v 10.69633 h 3.47834 c 0.17164,0 0.29136,-0.007 0.35959,-0.0191 0.0669,-0.0125 0.15641,-0.0367 0.26691,-0.0736 v 1.06783 z"
     fill="#0069B4" /><path
     style="stroke-width:0.214553"
     id="path1114"
     d="m 329.24753,239.18816 c -0.0247,0.0981 -0.0436,0.1798 -0.0545,0.24781 -0.0137,0.068 -0.0193,0.15663 -0.0193,0.26691 h -1.1603 c 0.0614,-0.0981 0.11178,-0.18387 0.14847,-0.25725 0.0367,-0.0751 0.0736,-0.15941 0.11049,-0.25747 l 4.01193,-11.32283 c 0.0247,-0.0981 0.0436,-0.17443 0.056,-0.22871 0.0125,-0.0558 0.0245,-0.1253 0.0367,-0.21241 h 1.76792 c 0.0109,0.13624 0.042,0.26969 0.0912,0.40594 l 4.14173,11.35823 c 0.0367,0.0981 0.0749,0.17701 0.11157,0.23815 0.0369,0.0614 0.0981,0.15405 0.18387,0.27656 h -2.3927 c 0,-0.0981 -0.007,-0.18108 -0.0193,-0.24781 -0.0122,-0.068 -0.0367,-0.15791 -0.0734,-0.2669 l -1.17812,-3.33244 h -4.56504 z m 5.4121,-4.2164 -1.98848,-5.54019 -1.93248,5.54019 z"
     fill="#0069B4" /><path
     style="stroke-width:0.214553"
     id="path1116"
     d="m 342.04263,239.11457 c 0,0.109 0.005,0.20426 0.0178,0.2845 0.0122,0.0805 0.0313,0.1813 0.0558,0.30381 h -2.19124 c 0.0242,-0.11028 0.0436,-0.20576 0.0558,-0.286 0.0122,-0.079 0.0176,-0.1798 0.0176,-0.30231 v -11.10098 c 0,-0.1592 -0.0242,-0.3553 -0.0734,-0.58959 h 3.73709 c 0.56363,0 1.08264,0.0804 1.55508,0.23965 0.47267,0.1592 0.88118,0.38684 1.22446,0.68099 0.34329,0.29416 0.6074,0.64817 0.79127,1.05947 0.18516,0.4113 0.27656,0.86079 0.27656,1.35254 0,0.66319 -0.16885,1.2324 -0.50656,1.71192 -0.33771,0.47953 -0.8183,0.84019 -1.4448,1.08671 -0.20855,0.0845 -0.40465,0.15255 -0.5883,0.20147 -0.18388,0.0491 -0.44263,0.10341 -0.77347,0.16606 l 4.03124,5.30054 c 0.1223,0.14719 0.20554,0.24631 0.2491,0.29544 0.0421,0.0491 0.1253,0.1105 0.24781,0.18387 h -2.68685 c -0.0369,-0.11028 -0.0738,-0.20146 -0.1105,-0.27656 -0.0367,-0.0734 -0.0856,-0.15919 -0.14718,-0.25725 l -3.73709,-5.15356 v 5.09928 z m 0.94381,-5.81804 c 0.72713,0 1.31693,-0.22614 1.76749,-0.68099 0.44971,-0.45335 0.67542,-1.04874 0.67542,-1.78551 0,-0.39349 -0.0749,-0.7666 -0.22185,-1.1234 -0.14847,-0.3553 -0.35273,-0.6428 -0.61169,-0.86487 -0.40701,-0.3553 -0.97515,-0.5338 -1.70227,-0.5338 h -0.87044 v 4.98879 h 0.96334 z"
     fill="#0069B4" /><path
     style="stroke-width:0.214553"
     id="path1118"
     d="m 357.11778,227.424 v 1.1234 c -0.17186,-0.0367 -0.31196,-0.0611 -0.42374,-0.0734 -0.11028,-0.0124 -0.22056,-0.0193 -0.33106,-0.0193 h -2.66926 v 10.65986 c 0,0.12251 0.007,0.22335 0.0193,0.30231 0.0122,0.0802 0.0298,0.17572 0.0545,0.286 h -2.18994 c 0.0242,-0.11028 0.0421,-0.20576 0.0545,-0.286 0.0122,-0.079 0.0189,-0.1798 0.0189,-0.30231 V 228.4547 h -2.66925 c -0.13474,0 -0.25468,0.007 -0.3596,0.0193 -0.10341,0.0122 -0.24223,0.0367 -0.41408,0.0734 v -1.1234 z"
     fill="#0069B4" /><path
     style="stroke-width:0.214553"
     id="path1120"
     d="m 357.69107,237.47496 c 0.29415,0.25875 0.56105,0.47673 0.80071,0.65374 0.23837,0.17851 0.46858,0.31604 0.68914,0.41409 0.22056,0.0981 0.4452,0.16885 0.67156,0.21241 0.22742,0.0436 0.47523,0.0641 0.74643,0.0641 0.69858,0 1.26243,-0.1961 1.69132,-0.58981 0.42911,-0.3922 0.6443,-0.90155 0.6443,-1.52676 0,-0.69987 -0.29415,-1.26501 -0.88396,-1.69411 -0.13474,-0.0981 -0.34028,-0.21649 -0.61555,-0.35809 -0.27634,-0.14161 -0.66597,-0.33513 -1.16974,-0.58015 -0.52695,-0.24524 -0.97515,-0.49455 -1.34418,-0.74643 -0.36796,-0.2506 -0.66876,-0.51472 -0.90177,-0.79128 -0.23279,-0.27656 -0.40164,-0.57071 -0.50656,-0.88396 -0.10341,-0.31324 -0.15512,-0.65374 -0.15512,-1.02148 0,-0.50249 0.0981,-0.96292 0.29415,-1.38108 0.1961,-0.41667 0.47524,-0.77218 0.8374,-1.06783 0.36217,-0.29416 0.79128,-0.52309 1.2884,-0.68915 0.49712,-0.16606 1.04594,-0.24931 1.64798,-0.24931 0.51471,0 0.98458,0.0491 1.40811,0.14847 0.42375,0.0981 0.90434,0.26969 1.4448,0.51471 l -0.38684,1.30749 c -0.50119,-0.3568 -0.95047,-0.61019 -1.34803,-0.76531 -0.3965,-0.15255 -0.80372,-0.22871 -1.2191,-0.22871 -0.58701,0 -1.0689,0.17164 -1.4478,0.51471 -0.37997,0.34328 -0.569,0.77904 -0.569,1.30749 0,0.25725 0.0367,0.4821 0.11028,0.67133 0.0736,0.19074 0.20147,0.3774 0.38556,0.56256 0.18365,0.18259 0.43983,0.36775 0.77067,0.55162 0.32977,0.18366 0.7518,0.39349 1.26672,0.62499 0.64817,0.29415 1.14937,0.56514 1.50359,0.81016 0.3553,0.24652 0.64281,0.51621 0.86208,0.81036 0.45335,0.57737 0.6797,1.26394 0.6797,2.06186 0,0.5883 -0.13216,1.14936 -0.39649,1.68338 -0.26433,0.53403 -0.62929,0.97365 -1.09508,1.31693 -0.33106,0.24652 -0.72991,0.4319 -1.19721,0.56106 -0.46558,0.12959 -0.97514,0.19353 -1.52654,0.19353 -0.30789,0 -0.59925,-0.0178 -0.87431,-0.056 -0.27634,-0.0354 -0.55011,-0.0912 -0.81981,-0.16499 -0.26969,-0.0734 -0.54346,-0.16886 -0.8183,-0.2845 -0.27656,-0.11715 -0.57501,-0.26154 -0.8934,-0.43318 z"
     fill="#0069B4" /><path
     style="stroke-width:0.214553"
     id="path1122"
     d="m 149.84369,245.83438 c 1.12898,0 1.99985,0.26304 2.61411,0.78999 0.61363,0.52565 0.92001,1.27337 0.92001,2.24165 0,0.52565 -0.11286,0.99424 -0.3405,1.40554 -0.22678,0.40979 -0.54947,0.73119 -0.96613,0.9642 -0.17229,0.0981 -0.33427,0.17443 -0.48747,0.22871 -0.15383,0.0558 -0.38405,0.13345 -0.69043,0.23 1.81619,0.32012 2.7244,1.3401 2.7244,3.06039 0,0.49304 -0.0856,0.94511 -0.25811,1.35641 -0.17164,0.41129 -0.4113,0.76531 -0.71768,1.05946 -0.30724,0.29694 -0.6782,0.52566 -1.11396,0.69193 -0.43511,0.16607 -0.91121,0.2491 -1.42656,0.2491 h -4.39963 c 0.0245,-0.11028 0.0429,-0.20554 0.0551,-0.2845 0.0124,-0.0805 0.0185,-0.18795 0.0185,-0.32269 v -11.08188 c 0,-0.13474 -0.006,-0.23966 -0.0185,-0.31325 -0.0122,-0.0736 -0.0307,-0.16607 -0.0551,-0.27506 z m -1.14121,5.50351 c 0.90756,0 1.57353,-0.19911 1.99727,-0.59518 0.42353,-0.39778 0.6353,-1.01869 0.6353,-1.86318 0,-1.41648 -0.73678,-2.126 -2.20904,-2.126 h -1.30749 v 4.58436 z m 0.5705,5.83563 c 1.50981,0 2.26418,-0.78569 2.26418,-2.35601 0,-0.93309 -0.27034,-1.61516 -0.80973,-2.04426 -0.24588,-0.20833 -0.51535,-0.35273 -0.81015,-0.43168 -0.29415,-0.0805 -0.69322,-0.11994 -1.19656,-0.11994 h -0.90242 v 4.95189 z"
     fill="#0069B4" /><path
     style="stroke-width:0.214553"
     id="path1124"
     d="m 155.69734,257.59576 c -0.0245,0.0996 -0.0429,0.18258 -0.0551,0.2491 -0.0122,0.0669 -0.0182,0.15662 -0.0182,0.2669 h -1.15966 c 0.0614,-0.0981 0.11028,-0.18366 0.14718,-0.25725 0.0369,-0.0736 0.0736,-0.1592 0.11028,-0.25875 l 4.01365,-11.32026 c 0.0245,-0.0981 0.0429,-0.17443 0.0551,-0.2315 0.0124,-0.0545 0.0245,-0.1253 0.0369,-0.20983 h 1.76706 c 0.0122,0.13345 0.0429,0.26969 0.0918,0.40314 l 4.14238,11.35824 c 0.0367,0.0996 0.0736,0.17979 0.11028,0.23965 0.0367,0.0627 0.0981,0.15405 0.18387,0.27635 h -2.39291 c 0,-0.0981 -0.006,-0.18109 -0.0182,-0.2491 -0.0124,-0.0669 -0.0369,-0.15534 -0.0736,-0.2669 l -1.17811,-3.33116 h -4.56569 z m 5.41211,-4.21511 -1.98848,-5.5417 -1.9327,5.5417 z"
     fill="#0069B4" /><path
     style="stroke-width:0.214553"
     id="path1126"
     d="m 167.34973,257.52217 c 0,0.12251 0.006,0.22464 0.0182,0.30509 0.0122,0.079 0.0307,0.17443 0.0551,0.2845 h -1.08629 c 0.0491,-0.20833 0.0736,-0.40443 0.0736,-0.58959 v -11.09948 c 0,-0.11179 -0.006,-0.20555 -0.0185,-0.286 -0.0122,-0.079 -0.0307,-0.1798 -0.0551,-0.30231 h 1.95158 c 0.0245,0.0845 0.0455,0.14976 0.0639,0.19224 0.0185,0.0435 0.0708,0.11994 0.15662,0.23 l 6.7005,9.38907 v -9.22279 c 0,-0.1961 -0.0245,-0.3922 -0.0736,-0.5883 h 1.08607 c -0.0245,0.0981 -0.0429,0.18258 -0.0551,0.25596 -0.0122,0.0734 -0.0185,0.18516 -0.0185,0.33234 v 11.13767 c 0,0.14719 0.006,0.2506 0.0185,0.31325 0.0122,0.0599 0.0367,0.1401 0.0736,0.23816 h -1.78552 l -0.0736,-0.16478 c -0.0245,-0.0491 -0.0551,-0.0953 -0.0918,-0.13882 -0.0369,-0.0435 -0.0736,-0.0953 -0.11049,-0.15641 l -6.82987,-9.55384 v 9.42404 z"
     fill="#0069B4" /><path
     style="stroke-width:0.214553"
     id="path1128"
     d="m 187.9492,247.83895 c -0.60118,-0.41666 -1.15966,-0.7136 -1.67523,-0.8919 -0.51557,-0.1785 -1.06783,-0.2669 -1.65678,-0.2669 -1.19034,0 -2.15991,0.41259 -2.90827,1.23518 -0.42954,0.47931 -0.74557,1.04874 -0.94854,1.70656 -0.20211,0.6576 -0.30359,1.46668 -0.30359,2.42424 0,1.68467 0.3465,2.98379 1.04058,3.90057 0.69301,0.91636 1.6718,1.374 2.93638,1.374 0.36774,0 0.68978,-0.0382 0.96613,-0.11178 0.27591,-0.0736 0.58552,-0.20704 0.92966,-0.40315 v -4.80491 c 0,-0.12251 -0.006,-0.22486 -0.0185,-0.3051 -0.0122,-0.079 -0.0307,-0.17443 -0.0551,-0.28471 h 2.13545 c -0.0245,0.12272 -0.0429,0.22485 -0.0551,0.30381 -0.0122,0.079 -0.0182,0.17443 -0.0182,0.286 v 4.73004 c 0,0.17293 0.006,0.30359 0.0182,0.39628 0.0122,0.0927 0.0491,0.20425 0.11029,0.3377 -0.55226,0.1798 -1.0187,0.32548 -1.39932,0.43319 -0.37997,0.10899 -0.72111,0.19331 -1.02149,0.25338 -0.3008,0.0599 -0.58895,0.0996 -0.86551,0.11715 -0.27591,0.0191 -0.59173,0.0272 -0.94789,0.0272 -0.94511,0 -1.75762,-0.12251 -2.43926,-0.36775 -0.68099,-0.24523 -1.27959,-0.63186 -1.79431,-1.1603 -1.14185,-1.17811 -1.71256,-2.76044 -1.71256,-4.74892 0,-0.99446 0.14439,-1.88357 0.43318,-2.66926 0.28793,-0.78591 0.70202,-1.45059 1.24205,-1.99813 0.54003,-0.54475 1.19721,-0.96549 1.97003,-1.26115 0.77282,-0.29415 1.64455,-0.44133 2.61411,-0.44133 0.29416,0 0.57672,0.0124 0.84642,0.0367 0.27033,0.026 0.54003,0.0614 0.81036,0.11049 0.2697,0.0491 0.54883,0.11715 0.83741,0.20297 0.28814,0.0856 0.59796,0.19074 0.92966,0.31174 v 1.52805 z"
     fill="#0069B4" /><path
     style="stroke-width:0.214553"
     id="path1130"
     d="m 190.69141,258.11176 c 0.0491,-0.20554 0.0736,-0.3907 0.0736,-0.55955 v -11.11043 c 0,-0.0981 -0.006,-0.18795 -0.0182,-0.2669 -0.0122,-0.0805 -0.0307,-0.18795 -0.0551,-0.32269 h 2.19059 c -0.0491,0.1961 -0.0736,0.39349 -0.0736,0.58959 v 10.69376 h 3.47962 c 0.17164,0 0.29072,-0.005 0.35895,-0.0176 0.0674,-0.0124 0.15641,-0.0369 0.2669,-0.0738 v 1.06784 h -6.22268 z"
     fill="#0069B4" /><path
     style="stroke-width:0.214553"
     id="path1132"
     d="m 198.29431,257.59576 c -0.0245,0.0996 -0.0429,0.18258 -0.0551,0.2491 -0.0122,0.0669 -0.0182,0.15662 -0.0182,0.2669 h -1.15966 c 0.0611,-0.0981 0.11028,-0.18366 0.14718,-0.25725 0.0367,-0.0736 0.0736,-0.1592 0.11028,-0.25875 l 4.01429,-11.32026 c 0.0245,-0.0981 0.0423,-0.17443 0.0545,-0.2315 0.0122,-0.0545 0.0245,-0.1253 0.0369,-0.20983 h 1.7662 c 0.0135,0.13345 0.0436,0.26969 0.0927,0.40314 l 4.14152,11.35824 c 0.0369,0.0996 0.0751,0.17979 0.11178,0.23965 0.0367,0.0627 0.0981,0.15405 0.18366,0.27635 h -2.3942 c 0,-0.0981 -0.005,-0.18109 -0.0176,-0.2491 -0.0125,-0.0669 -0.0369,-0.15534 -0.0738,-0.2669 l -1.17789,-3.33116 h -4.5657 z m 5.41232,-4.21511 -1.98847,-5.5417 -1.9327,5.5417 z"
     fill="#0069B4" /><path
     style="stroke-width:0.214553"
     id="path1134"
     d="m 212.74555,245.83438 c 0.96978,0 1.84129,0.13624 2.61497,0.41409 0.77239,0.27506 1.4285,0.67412 1.96939,1.1957 0.53938,0.5218 0.95326,1.15773 1.24205,1.90545 0.28878,0.74879 0.43318,1.5892 0.43318,2.52229 0,0.91914 -0.14161,1.76084 -0.42374,2.52078 -0.28171,0.76274 -0.67799,1.41906 -1.18756,1.97068 -0.50913,0.55161 -1.11374,0.98201 -1.81254,1.2886 -0.70009,0.30638 -1.4669,0.46022 -2.30173,0.46022 h -4.3078 c 0.0491,-0.20833 0.0738,-0.40443 0.0738,-0.58959 v -11.09949 c 0,-0.12251 -0.005,-0.22335 -0.0178,-0.30359 -0.0124,-0.0805 -0.0313,-0.17572 -0.056,-0.28471 h 3.77378 z m 0.0191,11.20976 c 1.26394,0 2.25388,-0.45893 2.97285,-1.37829 0.7179,-0.91914 1.0762,-2.19252 1.0762,-3.82269 0,-0.77089 -0.10105,-1.46261 -0.30381,-2.07559 -0.20146,-0.61276 -0.49454,-1.13584 -0.8743,-1.5716 -0.37997,-0.43447 -0.8404,-0.7681 -1.38108,-1.00111 -0.53939,-0.23279 -1.14679,-0.34993 -1.8222,-0.34993 h -1.34289 v 10.19921 z"
     fill="#0069B4" /><path
     style="stroke-width:0.214553"
     id="path1136"
     d="m 227.41734,245.83438 v 0.97514 c -0.12229,-0.0382 -0.21798,-0.0626 -0.2845,-0.0736 -0.068,-0.0135 -0.16349,-0.0191 -0.28599,-0.0191 h -3.66221 v 4.69442 h 3.57123 c 0.17143,0 0.29416,-0.003 0.36753,-0.007 0.0738,-0.005 0.17851,-0.0219 0.31347,-0.0491 v 0.99424 c -0.12273,-0.0245 -0.22078,-0.0397 -0.29416,-0.0463 -0.0738,-0.005 -0.1976,-0.008 -0.36924,-0.008 h -3.58883 v 4.84032 h 3.55192 c 0.1105,0 0.21241,-0.005 0.30381,-0.0176 0.0927,-0.0124 0.22464,-0.0369 0.3965,-0.0738 v 1.06784 h -6.36966 c 0.0245,-0.11029 0.0436,-0.20555 0.056,-0.2845 0.0122,-0.0805 0.0176,-0.18259 0.0176,-0.3051 V 246.4229 c 0,-0.13474 -0.005,-0.23966 -0.0176,-0.31325 -0.0125,-0.0736 -0.0313,-0.16606 -0.056,-0.27505 h 6.35013 z"
     fill="#0069B4" /><path
     style="stroke-width:0.214553"
     id="path1138"
     d="m 229.24383,255.88513 c 0.29416,0.25596 0.56106,0.47545 0.80072,0.65374 0.23815,0.17701 0.46858,0.31604 0.68914,0.41409 0.22056,0.0981 0.44541,0.16885 0.67134,0.2109 0.22764,0.0423 0.47545,0.0642 0.74643,0.0642 0.6988,0 1.26265,-0.19611 1.69175,-0.58831 0.42889,-0.3922 0.64409,-0.90155 0.64409,-1.52805 0,-0.70008 -0.29415,-1.26393 -0.88374,-1.69411 -0.13496,-0.0981 -0.34071,-0.21799 -0.61556,-0.35959 -0.27656,-0.1401 -0.66597,-0.33385 -1.16996,-0.57887 -0.52715,-0.2463 -0.97514,-0.49433 -1.34439,-0.74492 -0.36753,-0.2521 -0.66854,-0.51601 -0.90134,-0.79256 -0.233,-0.27506 -0.40185,-0.57072 -0.50656,-0.88246 -0.10341,-0.31325 -0.15555,-0.65375 -0.15555,-1.02299 0,-0.50249 0.0981,-0.9627 0.29416,-1.37958 0.1961,-0.41816 0.47545,-0.77346 0.83761,-1.06783 0.36217,-0.29544 0.79127,-0.52566 1.28839,-0.69193 0.49712,-0.16478 1.04595,-0.24781 1.64799,-0.24781 0.51471,0 0.9848,0.0491 1.40811,0.14718 0.42331,0.0981 0.90434,0.26969 1.44502,0.51471 l -0.38684,1.30749 c -0.5012,-0.3553 -0.9509,-0.61019 -1.34847,-0.76274 -0.39628,-0.15383 -0.80329,-0.2315 -1.21888,-0.2315 -0.5868,0 -1.06912,0.17293 -1.44759,0.516 -0.37997,0.34457 -0.56942,0.78055 -0.56942,1.3062 0,0.25875 0.0369,0.4821 0.11049,0.67284 0.0736,0.19074 0.20147,0.3774 0.38534,0.56106 0.18387,0.18516 0.44005,0.36774 0.7711,0.5529 0.32934,0.18387 0.7518,0.3922 1.2663,0.6265 0.64816,0.29415 1.14936,0.56384 1.50359,0.80908 0.35551,0.24523 0.6428,0.51471 0.86229,0.81015 0.45356,0.57629 0.67949,1.26393 0.67949,2.06057 0,0.59109 -0.13195,1.15215 -0.39628,1.68596 -0.26433,0.53381 -0.62929,0.97235 -1.09508,1.31564 -0.33084,0.24523 -0.72991,0.43318 -1.197,0.56106 -0.466,0.12937 -0.97514,0.19331 -1.52676,0.19331 -0.30788,0 -0.59924,-0.0191 -0.8743,-0.0545 -0.27656,-0.0382 -0.55012,-0.0927 -0.81981,-0.16606 -0.26969,-0.0734 -0.54325,-0.16886 -0.81852,-0.286 -0.27634,-0.11565 -0.57457,-0.26026 -0.8934,-0.43168 z"
     fill="#0069B4" /><path
     style="stroke-width:0.214553"
     id="path1140"
     d="m 240.34203,257.52217 c 0,0.12251 0.005,0.22464 0.0176,0.30509 0.0122,0.079 0.0313,0.17443 0.0558,0.2845 h -2.19124 c 0.0491,-0.1946 0.0736,-0.3907 0.0736,-0.5868 v -11.08318 c 0,-0.11178 -0.005,-0.20704 -0.0178,-0.286 -0.0122,-0.0789 -0.0313,-0.1813 -0.0558,-0.30359 h 2.19124 c -0.0491,0.20833 -0.0734,0.40443 -0.0734,0.58959 v 4.89611 h 5.4121 v -4.89611 c 0,-0.18516 -0.0257,-0.38126 -0.0749,-0.58959 h 2.19144 c -0.0247,0.11028 -0.0436,0.20554 -0.056,0.2845 -0.0124,0.0805 -0.0178,0.18258 -0.0178,0.30509 v 11.08318 c 0,0.12251 0.005,0.22335 0.0178,0.3023 0.0125,0.079 0.0313,0.17443 0.056,0.2845 h -2.19144 c 0.0245,-0.11028 0.0436,-0.20554 0.056,-0.2845 0.0122,-0.0805 0.0189,-0.18258 0.0189,-0.30509 v -5.30054 h -5.4121 z"
     fill="#0069B4" /><path
     id="path1144"
     d="m 137.6547,209.79265 c 0.0749,-1.08563 0.0749,-5.50479 0,-6.59558 V 140.95968 H 33.350718 v 62.20714 c -0.05986,1.07856 -0.05986,5.54985 0,6.66124 l 0.245878,2.69114 c 2.917924,26.3231 24.910061,46.80071 51.896996,46.80071 27.007958,0 48.972848,-20.47761 51.915238,-46.80071 z"
     stroke-width="0.1935"
     stroke="#FFFFFF"
     fill="#FDC300" /><path
     style="stroke-width:0.214553"
     id="path1146"
     d="M 122.80226,200.64132 V 149.38519 H 48.040964 v 53.43191 h 0.0899 c 0,0.37997 -0.05729,0.75458 -0.05729,1.13863 0,20.79086 16.769911,37.65946 37.464643,37.65946 20.679933,0 37.461423,-16.8686 37.461423,-37.65946 2.2e-4,-1.12125 -0.0835,-2.22277 -0.19738,-3.31441 z"
     fill="#3EA3DC" /><path
     style="stroke-width:0.214553"
     id="path1148"
     d="m 113.52905,202.22322 c 0,15.55296 -12.55415,28.18328 -28.035458,28.18328 -15.469288,0 -28.014431,-12.63032 -28.014431,-28.18328 0,-15.5564 12.545143,-28.16698 28.014431,-28.16698 15.481308,0 28.035458,12.61058 28.035458,28.16698 z"
     fill="#FDC300" /><g
     transform="matrix(0.21455324,0,0,0.21455324,5.9896018,134.36067)"
     id="g1166">

			<g
   id="g1162">

				<g
   id="g1154">

					<path
   id="path1150"
   d="m 323.941,153.048 c 0,0 -7.011,155.416 -42.354,193.47 0,0 70.383,27.873 81.44,120.549 h 5.027 V 153.048 Z"
   stroke-width="0.008"
   stroke="#000000"
   fill="#FFFFFF" />

					<path
   id="path1152"
   d="m 417.255,153.048 c 0,0 7.147,155.416 42.27,193.47 0,0 -70.256,27.873 -81.387,120.549 h -5.056 V 153.048 Z"
   stroke-width="0.008"
   stroke="#000000"
   fill="#FFFFFF" />

				</g>

				<g
   id="g1160">

					<path
   id="path1156"
   d="m 302.115,100.626 h 133.069 l -3.923,30.008 c 0,0 -10.112,15.796 -11.061,22.106 H 319.234 c 0,0 -9.064,-19.018 -12.556,-22.693 z"
   stroke-width="0.008"
   stroke="#000000"
   fill="#FFFFFF" />

					<line
   id="line1158"
   y2="130.047"
   x2="431.26099"
   y1="130.047"
   x1="306.67899"
   stroke-width="0.008"
   stroke="#000000"
   fill="#FFFFFF" />

				</g>

			</g>

			<path
   id="path1164"
   d="m 382.454,316.602 c 0,7.293 -5.586,13.076 -12.346,13.076 -6.925,0 -12.47,-5.783 -12.47,-13.076 0,-7.09 5.545,-12.873 12.47,-12.873 6.76,0 12.346,5.783 12.346,12.873 z" />

		</g><g
     transform="matrix(0.21455324,0,0,0.21455324,5.9896018,134.36067)"
     id="g1234">

			<path
   id="path1168"
   d="m 157.103,79.859 c -6.411,0 -8.588,-1.593 -8.588,-5.376 0,-3.701 2.123,-5.364 8.715,-5.364 h 13.502 v 1.606 h -13.629 c -4.637,0 -6.982,0.796 -6.982,3.758 0,2.933 2.136,3.783 6.982,3.783 h 13.629 v 1.593 z"
   fill="#282727" />

			<path
   id="path1170"
   d="m 151.126,96.366 c 3.491,-0.098 10.125,-0.098 19.605,-0.098 v 1.565 h -21.896 v -2.349 c 9.791,-3.517 16.326,-5.837 19.649,-6.897 V 88.46 c -3.323,0.127 -9.915,0.127 -19.649,0.127 v -1.593 h 21.896 v 2.333 c -9.521,3.479 -16.114,5.865 -19.605,6.941 z"
   fill="#282727" />

			<path
   id="path1172"
   d="m 148.835,105.583 h 21.896 v 1.521 h -21.896 z"
   fill="#282727" />

			<path
   id="path1174"
   d="m 150.691,119.561 c 3.282,0.67 6.271,1.286 9.274,1.955 l 10.766,2.444 v 1.732 l -21.896,-5.211 v -2.025 l 21.896,-5.208 v 1.717 l -10.766,2.46 c -3.003,0.739 -5.992,1.327 -9.274,1.968 z"
   fill="#282727" />

			<path
   id="path1176"
   d="m 161.21,139.838 h -1.762 v -6.116 h -8.811 v 8.182 h -1.803 v -9.775 h 21.896 v 9.525 h -1.63 v -7.931 h -7.89 z"
   fill="#282727" />

			<path
   id="path1178"
   d="m 148.835,161.147 v -2.177 l 8.938,-4.929 v -3.212 h -8.938 v -1.691 h 21.896 v 4.735 c 0,3.799 -1.632,6.338 -6.228,6.338 -3.827,0 -5.935,-1.885 -6.255,-4.354 z m 10.781,-6.617 c 0,2.608 1.955,4.05 4.888,4.05 2.736,0 4.596,-1.076 4.596,-4.875 v -2.876 h -9.483 v 3.701 z"
   fill="#282727" />

			<path
   id="path1180"
   d="m 166.989,175.169 c 1.298,-0.448 2.641,-1.495 2.641,-3.409 0,-1.158 -0.46,-2.123 -1.146,-2.765 -0.587,-0.587 -1.396,-0.838 -2.485,-0.838 -1.174,0 -2.136,0.419 -2.71,1.076 -0.571,0.67 -1.101,1.368 -2.038,3.352 -1.019,1.758 -1.508,2.694 -2.361,3.421 -0.81,0.74 -2.107,1.438 -4.078,1.438 -1.536,0 -3.126,-0.6 -4.174,-1.549 -1.244,-0.952 -2.123,-2.305 -2.123,-4.206 0,-3.196 1.663,-4.777 4.119,-5.5 l 0.321,1.549 c -1.507,0.587 -2.834,1.844 -2.834,4.021 0,1.187 0.756,2.263 1.523,2.961 0.613,0.559 1.828,0.879 2.974,0.879 1.536,0 2.345,-0.432 2.961,-1.047 0.669,-0.53 0.99,-1.339 2.037,-3.282 1.061,-2.038 1.594,-2.777 2.276,-3.421 0.825,-0.739 1.997,-1.355 4.107,-1.355 1.311,0 2.752,0.419 3.672,1.314 1.061,0.978 1.663,2.193 1.663,4.063 0,2.793 -1.803,4.373 -4.094,4.875 z"
   fill="#282727" />

			<path
   id="path1182"
   d="m 148.835,183.926 h 21.896 v 1.562 h -21.896 z"
   fill="#282727" />

			<path
   id="path1184"
   d="m 169.1,202.582 v -4.679 H 148.835 V 196.24 H 169.1 v -4.761 h 1.632 v 11.103 z"
   fill="#282727" />

			<path
   id="path1186"
   d="m 157.648,214.074 h -8.813 v -1.606 h 8.813 l 13.083,-5.361 v 1.828 l -5.57,1.997 c -1.873,0.854 -3.786,1.663 -5.713,2.333 v 0.042 c 1.927,0.644 3.84,1.396 5.713,2.152 l 5.57,2.107 v 1.873 z"
   fill="#282727" />

			<path
   id="path1188"
   d="m 159.867,233.247 c 7.96,0 11.467,3.019 11.467,6.773 0,3.659 -3.507,6.719 -11.591,6.719 -7.935,0 -11.229,-3.06 -11.229,-6.719 0,-3.755 3.294,-6.773 11.229,-6.773 z m 9.763,6.703 c 0,-2.567 -2.739,-5.068 -9.887,-5.068 -6.789,0 -9.623,2.501 -9.623,5.139 0,2.653 2.834,5.056 9.623,5.056 7.147,0 9.887,-2.402 9.887,-5.056 z"
   fill="#282727" />

			<path
   id="path1190"
   d="m 148.835,253.077 h 21.896 v 8.925 H 169.1 v -7.344 h -7.89 v 5.779 h -1.873 v -5.779 h -10.502 z"
   fill="#282727" />

			<path
   id="path1192"
   d="m 148.835,285.841 v -8.715 h 21.896 v 1.634 h -20.094 v 7.081 z"
   fill="#282727" />

			<path
   id="path1194"
   d="m 148.835,291.48 h 21.896 v 1.676 h -21.896 z"
   fill="#282727" />

			<path
   id="path1196"
   d="m 160.454,306.452 c -0.349,2.64 -2.206,4.094 -5.643,4.094 -4.761,0 -5.977,-2.892 -5.977,-6.147 v -4.285 h 21.896 v 3.923 c 0,4.177 -1.632,5.824 -5.25,5.824 -2.961,0 -4.637,-1.063 -4.929,-3.409 z m -9.816,-4.72 v 2.485 c 0,2.403 0.81,4.707 4.23,4.707 2.904,0 4.58,-1.523 4.58,-4.525 v -2.666 h -8.81 z m 10.613,0 v 2.485 c 0,3.183 1.688,3.996 3.98,3.996 2.472,0 3.869,-1.161 3.869,-3.996 v -2.485 z"
   fill="#282727" />

			<path
   id="path1198"
   d="m 161.21,324.035 h -1.762 v -6.024 h -8.811 v 8.074 h -1.803 v -9.718 h 21.896 v 9.426 h -1.63 v -7.782 h -7.89 z"
   fill="#282727" />

			<path
   id="path1200"
   d="m 148.835,345.039 v -2.184 l 8.938,-4.844 v -3.408 h -8.938 v -1.549 h 21.896 v 4.773 c 0,3.783 -1.632,6.36 -6.228,6.36 -3.827,0 -5.935,-1.987 -6.255,-4.443 z m 10.781,-6.621 c 0,2.584 1.955,4.095 4.888,4.095 2.736,0 4.596,-1.066 4.596,-4.85 v -3.06 h -9.483 v 3.815 z"
   fill="#282727" />

			<path
   id="path1202"
   d="m 155.764,352.453 -6.929,-1.625 v -1.727 l 21.896,5.25 v 2.113 l -21.896,5.256 v -1.815 l 6.929,-1.549 z m 7.525,4.24 c 1.873,-0.343 3.799,-0.818 5.881,-1.193 v -0.14 c -2.082,-0.482 -4.009,-0.825 -5.881,-1.257 l -5.836,-1.231 v 5.04 z"
   fill="#282727" />

			<path
   id="path1204"
   d="m 151.644,379.615 -1.914,-8.398 21.535,-4.812 0.25,1.536 -19.83,4.52 1.59,6.843 z"
   fill="#282727" />

			<path
   id="path1206"
   d="m 163.695,395.935 -7.011,0.87 -0.628,-1.746 22.512,-2.285 0.641,1.936 -18.976,12.277 -0.616,-1.632 5.865,-3.758 z m 8.433,1.51 c 1.815,-1.016 3.339,-1.968 5.097,-3.047 v -0.178 c -2.148,0.381 -3.91,0.546 -5.891,0.838 l -5.951,0.736 1.705,4.85 z"
   fill="#282727" />

			<path
   id="path1208"
   d="m 167.703,425.032 -0.813,-2.082 6.424,-8.112 -1.339,-2.965 -8.281,3.562 -0.698,-1.498 20.138,-8.753 2.066,4.386 c 1.396,3.39 0.809,6.507 -3.507,8.321 -3.446,1.581 -6.186,0.629 -7.595,-1.479 z m 7.275,-10.448 c 1.104,2.361 3.562,2.996 6.005,1.828 2.641,-1.13 4.009,-2.895 2.416,-6.259 l -1.187,-2.818 -8.699,3.841 z"
   fill="#282727" />

			<path
   id="path1210"
   d="m 193.145,430.136 -2.107,-4.215 -18.043,9.369 -0.683,-1.384 17.999,-9.465 -2.275,-4.157 1.634,-0.729 5.011,9.857 z"
   fill="#282727" />

			<path
   id="path1212"
   d="m 198.09,442.856 c 0.907,-1.143 1.495,-2.653 0.517,-4.38 -0.546,-0.895 -1.507,-1.549 -2.32,-1.688 -0.879,-0.292 -1.701,0 -2.749,0.515 -0.936,0.577 -1.564,1.523 -1.79,2.329 -0.025,0.901 -0.025,1.765 0.156,3.954 0.07,2.051 0.07,3.104 -0.181,4.095 -0.463,1.117 -1.244,2.19 -2.78,3.275 -1.466,0.787 -3.154,1.181 -4.497,0.978 -1.438,-0.19 -2.945,-0.818 -4.091,-2.482 -1.619,-2.761 -0.937,-5.097 0.825,-6.938 l 1.143,1.213 c -0.949,1.225 -1.578,3.015 -0.489,4.906 0.686,1.066 1.86,1.536 2.961,1.688 0.895,0.19 2.041,-0.063 2.904,-0.622 1.273,-0.838 1.942,-1.739 2.069,-2.494 0.194,-0.781 0.054,-1.676 0,-3.91 -0.098,-2.305 -0.098,-3.231 0.194,-4.12 0.349,-0.952 1.006,-2.209 2.809,-3.199 1.101,-0.724 2.514,-1.143 3.853,-0.863 1.257,0.178 2.526,1.13 3.38,2.597 1.466,2.494 0.711,4.607 -0.949,6.328 z"
   fill="#282727" />

			<path
   id="path1214"
   d="m 205.783,465.092 c 1.495,2.533 0.784,4.748 -1.828,6.799 -3.952,2.977 -6.621,1.231 -8.547,-1.27 l -2.637,-3.364 17.538,-13.476 2.333,3.18 c 2.402,3.263 2.054,5.649 -0.825,7.82 -2.207,1.778 -4.314,2.032 -6.034,0.311 z m -10.737,2.304 1.466,2.012 c 1.578,2.051 3.491,3.282 6.367,1.117 2.39,-1.783 2.78,-3.967 0.879,-6.468 l -1.631,-2.05 z m 8.42,-6.449 1.565,2.019 c 1.955,2.546 3.713,2.019 5.64,0.762 1.971,-1.6 2.39,-3.326 0.628,-5.713 l -1.507,-1.904 z"
   fill="#282727" />

			<path
   id="path1216"
   d="m 209.639,477.4 -6.116,3.491 -1.162,-1.346 19.9,-10.804 1.301,1.549 -12.777,18.573 -1.175,-1.219 3.993,-5.7 z m 8.548,-1.815 c 1.171,-1.663 2.247,-3.161 3.545,-4.964 v 0 c -1.914,1.079 -3.545,2.069 -5.319,3.047 l -5.139,2.945 3.422,3.783 z"
   fill="#282727" />

			<path
   id="path1218"
   d="m 223.296,498.018 c 2.292,-2.45 6.9,-7.338 13.518,-14.295 l 1.146,1.003 -15.278,15.978 -1.562,-1.594 c 4.119,-9.496 6.982,-15.844 8.588,-19.074 h -0.098 c -2.222,2.443 -6.928,7.331 -13.517,14.212 l -1.048,-0.927 15.152,-15.996 1.618,1.562 c -4.106,9.445 -7.011,15.971 -8.519,19.081 z"
   fill="#282727" />

			<path
   id="path1220"
   d="m 240.083,512.173 c -2.025,0.247 -4.415,0 -6.202,-1.556 -3.463,-2.666 -2.933,-7.68 1.495,-13.45 5.18,-6.487 9.956,-6.729 12.695,-4.481 1.955,1.562 2.415,4.037 1.577,7.211 l -1.606,-0.635 c 0.641,-2.539 0.517,-4.075 -0.879,-5.192 -1.831,-1.562 -5.979,-1.384 -10.403,4.215 -3.856,4.951 -4.218,9.09 -1.746,11.045 1.27,0.978 2.736,1.473 4.146,1.288 l 3.688,-4.576 -2.904,-2.234 0.99,-1.371 4.206,3.25 z"
   fill="#282727" />

			<path
   id="path1222"
   d="m 251.686,522.824 -7.233,-4.85 12.371,-18.281 1.327,0.914 -11.381,16.923 5.936,3.885 z"
   fill="#282727" />

			<path
   id="path1224"
   d="m 261.966,521.034 -4.723,5.224 -1.605,-0.933 15.447,-16.536 1.688,1.01 -6.199,21.785 -1.466,-0.914 1.98,-6.703 z m 7.414,-4.481 c 0.518,-1.854 1.13,-3.701 1.828,-5.751 l -0.124,-0.025 c -1.413,1.644 -2.682,3.04 -3.897,4.481 l -4.079,4.494 4.469,2.539 z"
   fill="#282727" />

			<path
   id="path1226"
   d="m 272.075,534.39 9.315,-19.874 4.05,1.758 c 4.247,2.082 4.72,6.354 1.663,12.86 -3.031,6.576 -6.509,9.274 -11.007,7.147 z m 4.719,0.342 c 3.228,1.523 6.161,-0.527 8.798,-6.195 2.653,-5.383 2.514,-9.052 -0.851,-10.766 l -2.596,-1.041 -7.96,16.789 z"
   fill="#282727" />

			<path
   id="path1228"
   d="m 300.633,533.158 -0.711,1.574 -5.643,-2.146 -3.101,8.379 7.57,2.78 -0.781,1.701 -8.979,-3.504 7.804,-20.655 8.909,3.435 -0.822,1.605 -7.22,-2.806 -2.834,7.427 z"
   fill="#282727" />

			<path
   id="path1230"
   d="m 317.838,532.587 c 0,-1.422 -0.559,-2.958 -2.514,-3.548 -0.978,-0.197 -2.123,-0.185 -2.904,0.247 -0.657,0.419 -1.174,1.181 -1.536,2.222 -0.39,1.143 -0.267,2.291 0.292,2.882 0.419,0.901 1.019,1.435 2.612,2.971 1.438,1.409 2.082,2.165 2.625,3.085 0.518,1.143 0.574,2.526 0.086,4.329 -0.489,1.593 -1.425,2.958 -2.542,3.771 -1.244,0.813 -2.904,1.485 -4.875,0.813 -2.863,-0.876 -3.993,-3.085 -3.993,-5.561 l 1.717,0.089 c 0.099,1.663 0.879,3.263 2.904,3.974 1.244,0.279 2.485,0 3.269,-0.711 0.809,-0.47 1.495,-1.435 1.815,-2.577 0.432,-1.396 0.124,-2.394 -0.127,-3.187 -0.39,-0.673 -1.006,-1.257 -2.682,-2.806 -1.688,-1.612 -2.079,-2.323 -2.625,-3.174 -0.403,-1.016 -0.571,-2.412 0,-4.316 0.321,-1.384 1.133,-2.552 2.304,-3.187 1.117,-0.666 2.46,-0.927 4.12,-0.292 2.891,0.729 3.812,2.755 3.66,5.212 z"
   fill="#282727" />

			<path
   id="path1232"
   d="m 331.832,554.677 -1.536,-0.33 2.387,-10.461 -7.401,-1.612 -2.416,10.41 -1.605,-0.394 4.789,-21.506 1.635,0.381 -2.013,9.382 7.307,1.758 2.12,-9.482 1.466,0.336 z"
   fill="#282727" />

		</g><g
     transform="matrix(0.21455324,0,0,0.21455324,5.9896018,134.36067)"
     id="g1302">

			<path
   id="path1236"
   d="m 417.128,538.826 -8.994,2 c 0.127,0.19 0.254,0.559 0.574,0.762 0.32,0.158 1.047,0.267 2.288,0.299 0.883,0.057 1.886,0.514 2.682,1.256 1.006,0.934 1.368,1.828 1.536,2.749 0.156,1.841 -0.669,3.257 -2.555,4.545 -0.78,0.482 -1.368,0.838 -1.495,0.958 0,0 0.714,0.279 1.717,0.667 1.663,0.419 2.78,0.856 3.729,1.308 l 3.17,1.612 1.048,2.057 c -2.038,-1.327 -4.371,-2.361 -7.024,-3.003 -2.641,-0.755 -5.252,-1.009 -7.906,-1.009 l -2.904,-3.479 c 1.564,0.546 3.409,0.546 5.266,0.114 0.768,-0.114 1.368,-0.305 1.618,-0.514 0.867,-0.604 1.413,-0.857 1.635,-1.061 0.559,-0.355 0.993,-0.939 1.368,-1.523 0,-0.292 0,-0.615 0,-1.016 -0.223,-1.041 -0.863,-1.663 -1.857,-1.892 -0.432,-0.025 -0.752,-0.025 -1.146,0 -0.25,0.089 -0.419,0.229 -0.669,0.229 0.156,0.774 -0.181,1.663 -0.949,2.679 -0.321,0.444 -0.949,0.749 -1.705,0.939 -0.657,0.14 -1.076,0.051 -1.565,-0.063 -0.432,-0.127 -0.724,-0.571 -0.851,-0.99 -0.028,-0.432 0,-0.901 0.127,-1.479 0.292,-0.463 0.53,-0.895 0.863,-1.225 0.185,-0.114 0.769,-0.604 2.181,-1.441 0.099,-0.209 -0.365,-0.559 -1.412,-0.92 l -5.39,1.092 -2.012,-1.092 11.381,-2.615 c 0.867,-0.19 1.146,-0.361 1.286,-0.361 0.349,-0.248 0.714,-0.559 0.854,-0.87 0.054,-0.178 0.054,-0.305 0.054,-0.368 -0.054,-0.381 -0.559,-0.609 -1.327,-0.609 -0.727,0 -1.286,0.063 -1.717,0.254 -0.895,0.152 -2.082,0.546 -3.548,0.883 -0.543,0.152 -0.921,0.291 -1.171,0.291 -1.733,0.42 -3.101,0.337 -4.498,-0.291 -0.825,-0.464 -1.479,-1.073 -1.634,-1.873 -0.029,-0.533 0,-1.092 0.321,-1.619 0,-0.158 0.155,-0.266 0.488,-0.361 0.435,-0.013 0.587,-0.013 0.686,-0.013 -0.53,0.374 -0.686,0.901 -0.587,1.46 0.197,0.533 0.587,0.883 1.396,0.99 0.6,0.127 0.993,0.127 1.146,0.127 0.223,0 0.949,-0.234 2.025,-0.584 1.409,-0.419 2.247,-0.641 2.443,-0.838 0.46,0 0.949,-0.114 1.495,-0.165 1.339,-0.229 2.288,-0.229 3.002,0 1.815,0.501 2.961,1.587 3.085,3.167 l 1.368,-0.323 z"
   fill="#3C3C3B" />

			<path
   id="path1238"
   d="m 436.901,532.587 -9.496,3.123 1.342,4.418 c 0.321,0.317 0.432,0.482 0.432,0.584 0.349,0.305 0.644,0.457 1.063,0.254 0.321,0 0.698,-0.711 1.213,-1.828 0.559,-1.149 0.978,-1.904 1.272,-1.968 0.822,-0.267 1.688,0.19 2.834,1.155 0.949,0.921 1.536,1.803 1.733,2.501 0.698,2.412 0.46,4.443 -0.937,6.005 -1.019,1.028 -2.222,1.65 -3.926,2.05 -1.717,0.477 -3.253,0.268 -4.663,-0.488 -0.686,-0.394 -1.733,-1.079 -2.863,-2.26 -0.476,-0.419 -1.019,-1.104 -1.774,-1.968 -0.559,-0.673 -1.215,-1.765 -1.856,-3.148 l -0.895,-2.107 1.215,0.14 c 0.321,1.358 1.368,2.806 2.834,4.431 0.628,0.686 1.286,1.295 2.095,1.727 l 1.705,0.965 c 1.076,0.508 2.333,0.508 3.783,0 0.838,-0.222 1.536,-0.724 2.349,-1.2 0.628,-0.653 1.072,-1.339 1.27,-1.999 0.222,-1.028 0.222,-1.727 0.069,-2.374 -0.069,-0.571 -0.711,-1.072 -1.339,-1.473 0,0.4 -0.226,1.003 -0.813,1.841 -0.892,1.339 -1.746,2.12 -2.514,2.298 -0.698,0.368 -1.467,0.229 -2.19,-0.121 -0.517,-0.374 -1.076,-0.838 -1.44,-1.491 0,-0.185 0,-0.063 0,0.025 l -1.688,-5.503 -7.053,2.234 -2.177,-0.934 13.336,-4.373 c 0.124,-0.108 0.391,-0.248 0.74,-0.654 0.501,-0.406 0.768,-0.66 0.698,-0.66 -0.07,-0.457 -0.517,-0.622 -1.215,-0.698 -0.74,0 -1.298,0.076 -1.717,0.241 -0.923,0.279 -1.885,0.711 -3.393,1.257 -0.504,0.235 -0.825,0.292 -1.146,0.406 -1.298,0.432 -2.514,0.653 -3.659,0.317 -1.467,-0.209 -2.305,-0.863 -2.641,-1.98 -0.165,-0.165 -0.165,-0.546 0,-1.021 0,-0.68 0.127,-1.022 0.336,-1.022 l 0.838,0.152 c -0.361,0.495 -0.517,0.927 -0.361,1.231 0.292,0.66 0.682,0.914 1.536,1.054 0.612,0 1.117,0 1.438,-0.14 -0.267,0.089 0.641,-0.254 2.933,-1.117 l 2.555,-1.028 c 1.663,-0.399 2.961,-0.399 3.98,0 1.27,0.495 1.983,1.346 2.345,2.603 l 1.593,-0.457 z"
   fill="#3C3C3B" />

			<path
   id="path1240"
   d="m 454.456,521.777 -3.545,-0.807 c -2.193,-0.546 -4.246,-0.267 -6.509,0.571 -1.2,0.546 -2.136,1.193 -2.806,2.12 l -0.616,0.825 c -0.124,0.235 -0.222,0.584 -0.419,1.13 -0.391,1.257 -0.628,2.037 -0.391,2.285 l 1.146,0.952 1.717,-0.622 2.361,0.724 -3.031,1.244 6.157,14.942 -2.317,-0.742 -5.446,-13.616 -2.416,1.003 -2.193,-0.838 4.173,-1.663 -1.98,-0.749 c -0.254,-0.102 -0.349,-0.305 -0.546,-0.635 -0.181,-0.508 -0.181,-1.028 -0.152,-1.409 0.35,-1.073 0.444,-1.714 0.67,-2.006 0.391,-0.882 1.006,-1.777 1.914,-2.641 0.53,-0.559 1.143,-0.978 2.037,-1.282 2.136,-0.813 4.621,-1.079 7.624,-0.711 0.993,0.107 2.222,0.432 3.954,1.016 z"
   fill="#3C3C3B" />

			<path
   id="path1242"
   d="m 461.759,521.174 -2.736,1.384 7.389,14.98 -1.076,-0.419 c -0.197,-0.838 -0.965,-1.714 -2.136,-3.021 -0.965,-1.104 -1.983,-1.942 -2.933,-2.59 -0.742,-0.559 -1.634,-0.838 -2.837,-1.041 -1.102,-0.102 -2.12,-0.076 -2.806,0.317 -0.238,0.165 -0.238,0.165 -0.238,0.279 l 0.825,0.419 c 0.657,0.241 1.019,0.559 1.117,1.104 0.251,0.267 0.251,0.724 0.251,1.212 0,0.591 -0.432,1.188 -1.368,1.721 -2.095,0.99 -3.659,0.641 -4.329,-1.13 -0.574,-0.965 -0.574,-1.942 0,-2.907 0.32,-1.092 1.171,-1.854 2.136,-2.349 1.968,-0.901 4.247,-0.597 6.662,0.882 0.892,0.591 1.339,0.934 1.438,0.934 l -3.729,-7.604 -10.921,5.274 -2.247,-0.641 15.263,-7.414 z"
   fill="#3C3C3B" />

			<path
   id="path1244"
   d="m 479.271,510.446 -16.199,9.979 -2.402,-0.323 16.215,-10.074 z m 2.835,6.5 c 1.133,1.828 1.396,3.834 0.616,5.764 -0.168,0.635 -0.365,0.952 -0.365,1.13 -0.25,0.406 -0.46,0.825 -0.78,1.117 -0.711,0.66 -1.314,1.104 -1.787,1.46 -1.343,0.838 -2.78,1.237 -4.288,1.237 -0.641,0 -1.368,-0.171 -2.387,-0.418 -1.72,-0.572 -3.281,-1.396 -4.792,-2.432 -0.375,-0.317 -1.787,-1.32 -4.202,-3.225 l 1.215,-0.292 c 2.612,2.196 5.319,3.491 7.918,3.821 1.997,0.311 3.755,-0.038 5.517,-1.143 1.618,-1.092 2.443,-2.717 2.288,-5.053 0,-0.254 -0.193,-0.724 -0.489,-1.066 -0.111,-0.279 -0.362,-0.571 -0.781,-0.901 -0.559,-0.464 -0.866,-0.533 -1.187,-0.464 0,0 0,0 -0.057,0.07 -0.292,0.978 -0.391,1.638 -0.489,1.993 -0.194,0.368 -0.501,1.092 -1.311,1.815 -0.279,0.343 -0.755,0.673 -1.371,1.104 -1.241,0.825 -2.415,0.978 -3.754,0.825 -0.644,-0.203 -1.146,-0.711 -1.466,-1.32 -0.616,-0.762 -0.616,-1.485 -0.32,-2.196 0.32,-0.584 0.822,-1.206 1.618,-1.625 0.432,-0.203 0.99,-0.279 1.508,-0.203 0.53,0.165 0.879,0.33 1.174,0.698 0.222,0.406 0.222,1.016 0.14,1.841 0.083,0 0.083,0 0.083,0 0.505,-0.254 0.924,-1.13 1.384,-2.539 0.251,-0.882 0.378,-1.72 0.251,-2.399 v -0.031 c 0.657,-0.337 1.605,-0.223 3.281,0.57 1.592,0.631 2.525,1.329 2.833,1.862 z"
   fill="#3C3C3B" />

			<path
   id="path1246"
   d="m 486.825,504.721 -2.247,1.834 9.747,13.451 -2.402,-0.254 -7.078,-9.725 c -0.168,-0.248 -0.267,-0.527 -0.587,-0.698 -0.14,-0.12 -0.46,-0.292 -0.755,-0.292 -1.146,-0.406 -2.218,-0.216 -3.17,0.463 -0.07,0.108 -0.321,0.279 -0.321,0.299 l -2.416,-0.19 c 0.657,-0.711 1.479,-1.295 2.193,-1.657 1.146,-0.577 2.317,-0.577 3.504,0.083 0.406,0.178 0.965,0.597 1.815,1.175 -0.264,-0.279 -1.117,-1.175 -2.555,-2.654 -0.657,-0.793 -1.34,-1.618 -2.165,-2.723 h 0.896 c 0.124,0.241 0.292,0.394 0.612,0.66 0.028,0.178 0.46,0.343 0.784,0.597 0.14,0 0.488,0.14 0.822,0.19 l 1.076,-0.787 z"
   fill="#3C3C3B" />

			<path
   id="path1248"
   d="m 500.33,489.867 -3.672,0.241 c -2.333,0.261 -4.342,1.041 -6.034,2.514 -1.088,0.838 -1.774,1.688 -2.136,2.774 l -0.377,0.895 c -0.07,0.35 -0.168,0.768 -0.168,1.257 0,1.358 0,2.146 0.394,2.349 l 1.27,0.597 1.467,-1.219 2.456,0.203 -2.456,1.968 10.153,12.65 -2.485,-0.171 -9.008,-11.438 -2.082,1.65 -2.316,-0.203 3.517,-2.793 -2.149,-0.14 c -0.225,0 -0.504,-0.114 -0.698,-0.508 -0.377,-0.394 -0.476,-0.876 -0.476,-1.231 -0.041,-1.054 -0.041,-1.803 -0.041,-2.146 0.14,-0.978 0.517,-1.955 1.117,-3.098 0.447,-0.609 0.879,-1.168 1.593,-1.777 1.759,-1.485 4.12,-2.374 7.094,-2.818 0.949,-0.216 2.136,-0.216 3.98,-0.14 z"
   fill="#3C3C3B" />

			<path
   id="path1250"
   d="m 508.696,485.843 -2.346,2.14 11.017,12.117 -2.567,-0.152 -5.002,-5.459 c -0.321,-0.241 -0.879,-0.305 -1.492,-0.241 -0.686,0.063 -1.285,0.241 -1.536,0.609 -0.517,0.482 -0.825,1.282 -0.657,2.075 0.333,3.181 0.333,5.027 0,5.504 -0.168,0.051 -0.295,0.254 -0.489,0.406 -0.616,0.654 -0.924,0.863 -1.117,0.838 -0.546,0.152 -1.495,0.152 -2.933,-0.184 -0.349,-0.141 -0.838,-0.261 -1.244,-0.432 l 0.14,-1.505 c 0.168,0.203 0.46,0.292 0.949,0.399 0.419,0.159 0.784,0.159 0.978,0.159 0.323,0 0.587,0 0.784,-0.203 0.292,-0.152 0.362,-0.914 0.362,-2.019 l -0.193,-2.463 c -0.505,-0.502 -0.952,-0.793 -1.314,-0.978 -1.104,-0.571 -2.345,-0.394 -3.339,0.603 -0.863,0.667 -1.368,1.149 -1.618,1.149 -0.518,0.292 -1.216,0.292 -1.955,0.165 l -0.559,0.152 h -2.152 l 13.939,-12.683 h 2.344 z m 0.124,7.566 -3.812,-4.202 -5.865,5.535 1.187,-0.254 c 1.089,0 2.066,0.368 2.78,1.257 0.07,0.165 0.238,0.394 0.238,0.419 0.193,-0.102 0.292,-0.502 0.444,-1.27 0.168,-0.647 0.394,-0.99 0.615,-1.295 0.292,-0.14 0.769,-0.311 1.536,-0.482 0.503,0 1.341,0.172 2.877,0.292 z"
   fill="#3C3C3B" />

			<path
   id="path1252"
   d="m 504.06,476.613 -0.711,10.182 -2.879,3.072 2.374,-12.219 z"
   fill="#3C3C3B" />

			<path
   id="path1254"
   d="m 520.607,468.133 -3.561,0.717 c -2.124,0.559 -4.05,1.676 -5.644,3.333 -0.809,0.939 -1.438,1.987 -1.758,3.136 l -0.168,0.978 c 0,0.247 0,0.653 0,1.104 0.168,1.422 0.321,2.146 0.644,2.26 l 1.467,0.419 1.339,-1.358 2.333,-0.14 -2.066,2.247 11.785,11.076 -2.317,0.248 -10.67,-10.023 -1.87,1.886 -2.402,0.292 3.253,-3.415 -2.151,0.165 c -0.223,0 -0.515,-0.165 -0.74,-0.406 -0.46,-0.406 -0.698,-0.686 -0.796,-1.13 -0.096,-1.054 -0.264,-1.803 -0.264,-2.196 0,-0.838 0.264,-1.98 0.698,-3.154 0.362,-0.756 0.711,-1.467 1.2,-1.987 1.705,-1.657 3.881,-2.971 6.76,-3.859 0.822,-0.267 2.095,-0.521 3.951,-0.647 z"
   fill="#3C3C3B" />

			<path
   id="path1256"
   d="m 526.514,465.416 -7.583,9.172 8.157,6.83 c 0.571,0.42 1.06,0.337 1.758,-0.361 0.698,-0.978 0.965,-2.59 0.571,-5.04 -0.14,-0.838 -0.32,-1.429 -0.851,-1.999 -0.14,0.082 -0.292,0.152 -0.419,0.387 -0.39,0.463 -0.796,0.774 -1.384,0.914 -0.542,0.14 -0.978,0.025 -1.396,-0.324 -0.165,-0.127 -0.222,-0.279 -0.361,-0.311 -0.657,-1.016 -0.489,-1.993 0.336,-2.983 0.571,-0.66 1.422,-1.079 2.609,-0.882 0.673,0 1.272,0.298 1.79,0.697 1.27,1.188 1.98,2.654 2.164,4.316 0.124,2.99 -0.184,4.996 -0.993,5.923 -0.501,0.584 -1.102,1.028 -1.495,1.181 -0.99,0.33 -1.939,0.33 -3.126,-0.089 -0.251,-0.203 -0.825,-0.546 -1.774,-1.384 l -6.744,-5.631 -1.774,2.19 -2.222,0.089 8.563,-10.309 c -0.477,-0.406 -0.698,-0.711 -0.505,-0.597 -0.518,-0.229 -1.006,-0.229 -1.466,-0.114 -0.542,0.305 -1.032,0.711 -1.298,1.231 -0.488,0.667 -1.298,1.517 -2.193,2.793 -0.377,0.508 -0.613,0.774 -0.641,1.003 -1.314,1.295 -2.46,2.234 -3.786,2.469 -1.048,0.185 -1.828,0.096 -2.485,-0.488 -0.489,-0.432 -0.81,-0.768 -0.879,-1.409 0,-0.165 0,-0.178 0.069,-0.508 0.152,-0.089 0.152,-0.292 0.223,-0.292 0.098,0 0.267,0.203 0.419,0.292 0,0.343 0.168,0.729 0.394,0.914 0.724,0.571 1.396,0.317 2.316,-0.394 0.419,-0.178 0.686,-0.521 1.048,-0.609 0.517,-0.978 0.907,-1.511 0.978,-1.707 -0.07,0.196 0.238,-0.299 0.949,-1.314 0.448,-0.502 0.879,-1.016 1.298,-1.562 0.784,-0.952 1.803,-1.523 2.39,-1.777 1.787,-0.749 3.126,-0.406 4.243,0.616 l 0.686,-0.591 z"
   fill="#3C3C3B" />

			<path
   id="path1258"
   d="m 546.106,436.242 -1.66,2.584 13.908,8.689 -1.171,0.165 c -0.267,-0.025 -1.187,-0.216 -2.082,-0.419 -0.53,-0.057 -1.368,-0.102 -2.361,-0.057 -0.349,0 -1.171,0.107 -2.583,0.45 0.603,1.841 0.603,3.555 -0.251,5.065 -0.292,0.457 -0.711,0.876 -1.171,1.244 -0.952,0.851 -1.955,1.435 -2.978,1.676 -0.961,0.254 -1.926,0.47 -2.904,0.47 -1.047,0 -2.444,-0.178 -4.05,-0.444 -1.758,-0.267 -2.933,-0.571 -3.352,-0.736 l 0.879,-0.66 3.199,0.444 c 0.949,0.216 1.926,0.216 2.834,0 0.993,-0.267 1.927,-0.526 2.752,-1.028 0.99,-0.584 1.787,-1.384 2.485,-2.476 0.965,-1.759 0.698,-3.212 -0.698,-4.005 -0.542,-0.312 -1.146,-0.515 -1.787,-0.591 -0.851,-0.025 -1.368,0.076 -1.759,0.546 -0.155,0.045 0,0.355 0.223,1.054 0.25,0.762 0.25,1.282 0,1.657 -0.378,0.641 -0.921,1.117 -1.594,1.504 -0.724,0.368 -1.339,0.368 -1.841,0 -0.882,-0.571 -1.006,-1.225 -0.882,-2.298 0.196,-0.419 0.365,-0.787 0.394,-1.079 1.187,-1.409 2.653,-2.501 4.243,-2.933 1.856,-0.444 3.421,-0.14 4.666,0.965 h 3.783 l -8.868,-5.669 -8.979,14.353 -2.374,0.686 11.619,-18.472 z"
   fill="#3C3C3B" />

			<path
   id="path1260"
   d="m 554.431,420.284 -1.593,2.901 14.65,7.693 -1.508,0.247 c -2.628,-0.14 -4.817,0.45 -6.678,1.752 -1.396,0.978 -2.514,2.069 -3.307,3.364 l -3.647,0.686 c -0.222,-2 -0.222,-3.771 -0.222,-5.072 0.222,-2.514 0.489,-4.779 0.781,-6.658 l -0.809,-0.477 -5.364,10.227 -2.288,0.749 7.681,-14.733 z m 8.223,10.023 -7.427,-3.91 c -0.394,2.279 -0.517,4.729 -0.267,7.555 2.347,-2.097 5.028,-3.321 7.694,-3.645 z"
   fill="#3C3C3B" />

			<path
   id="path1262"
   d="m 563.842,389.625 -3.168,2.107 c -1.831,1.148 -3.199,2.895 -4.05,5.154 -0.628,1.104 -0.714,2.311 -0.628,3.428 l 0.305,1.054 c 0,0.229 0.14,0.559 0.488,0.99 0.518,1.244 1.076,1.815 1.244,1.917 l 1.635,-0.165 0.711,-1.752 2.095,-0.99 -1.146,2.806 15.012,6.119 -2.218,1.104 -13.448,-5.528 -1.006,2.456 -2.193,1.066 1.733,-4.349 -2.025,0.979 c -0.044,0 -0.267,0 -0.742,-0.108 -0.444,-0.312 -0.863,-0.482 -0.921,-0.813 -0.686,-0.99 -1.019,-1.498 -1.088,-1.841 -0.377,-0.901 -0.476,-2.019 -0.698,-3.301 0,-0.711 0.321,-1.492 0.698,-2.285 0.796,-2.158 2.358,-4.012 4.777,-6.049 0.641,-0.547 1.856,-1.302 3.266,-2 h 1.367 z"
   fill="#3C3C3B" />

			<path
   id="path1264"
   d="m 569.094,382.376 -0.978,2.825 15.501,5.287 -1.971,1.137 -8.42,-2.813 c -0.518,-0.025 -1.031,-0.025 -1.635,0.394 -0.571,0.337 -1.031,0.8 -1.187,1.44 0,0.35 0,0.743 0.323,1.086 0.391,0.324 0.613,0.495 1.003,0.59 l 0.854,0.032 v 0.787 c -0.098,0 -0.39,0 -0.854,0.171 -0.711,0.312 -1.326,0.406 -1.466,0.559 -0.711,0.35 -1.282,1.105 -1.562,2.14 -0.238,0.711 -0.238,1.435 -0.14,2.095 0.14,0.654 0.669,1.199 1.187,1.619 0.251,0.069 0.419,0.234 0.571,0.311 1.089,0.343 2.066,-0.172 2.834,-1.568 -0.501,0.197 -0.961,0.261 -1.425,0.032 -0.39,-0.14 -0.711,-0.394 -0.879,-0.927 -0.292,-0.47 -0.292,-0.99 -0.124,-1.422 0.391,-0.895 1.003,-1.346 1.98,-1.441 0.825,-0.082 1.343,0.058 1.635,0.268 0.755,0.818 1.047,1.828 0.587,3.015 -0.336,0.927 -0.879,1.777 -1.396,2.387 -1.339,1.219 -2.806,1.549 -4.44,1.022 -1.076,-0.42 -1.873,-1.022 -2.514,-1.975 -0.686,-0.927 -0.879,-1.98 -0.504,-3.136 0.435,-1.231 1.146,-2.171 2.193,-2.666 l 0.965,-0.482 c -0.349,-0.089 -0.669,-0.444 -0.965,-1.099 -0.25,-0.653 -0.349,-1.256 -0.152,-1.555 0.321,-0.609 0.587,-1.143 1.117,-1.396 0.25,-0.165 0.571,-0.279 0.768,-0.305 0.403,-0.254 1.019,-0.47 1.729,-0.47 l -4.104,-1.409 -4.484,13.248 -2.079,1.212 6.005,-17.786 z"
   fill="#3C3C3B" />

			<path
   id="path1266"
   d="m 568.983,363.803 v 3.415 h 16.45 l -1.203,0.927 c -2.305,1.066 -3.923,2.717 -5.053,4.627 -0.756,1.518 -1.203,3.054 -1.343,4.526 l -2.765,2.285 c -1.244,-1.714 -2.066,-3.225 -2.583,-4.425 -1.146,-2.278 -1.927,-4.297 -2.485,-6.239 h -1.019 v 11.578 l -1.594,1.771 v -16.675 z m 11.994,5.116 h -8.392 c 0.641,2.12 1.758,4.425 3.253,6.906 1.187,-3.054 2.807,-5.427 5.139,-6.906 z"
   fill="#3C3C3B" />

			<path
   id="path1268"
   d="m 568.983,354.662 v 3.027 h 16.742 l -1.688,1.733 h -11.912 c -0.394,0 -0.784,0.083 -0.907,0.152 -0.197,0.013 -0.489,0.19 -0.813,0.33 -0.921,0.686 -1.422,1.739 -1.422,2.907 0,0.165 0,0.279 0,0.477 l -1.594,1.783 c -0.168,-1.041 -0.168,-1.98 0,-2.869 0.238,-1.219 0.781,-2.184 2.165,-2.628 0.349,-0.317 0.978,-0.559 1.983,-0.907 -0.32,0.095 -1.536,0.222 -3.688,0.514 -0.949,0.216 -2.149,0.241 -3.266,0.241 l 0.502,-0.698 c 0.152,-0.057 0.377,-0.057 0.809,-0.216 0.181,0 0.559,-0.025 0.879,-0.317 0.127,-0.07 0.323,-0.279 0.615,-0.502 v -1.275 z"
   fill="#3C3C3B" />

			<path
   id="path1270"
   d="m 568.983,341.878 c 0.374,1.384 0.92,2.793 1.869,4.05 0.879,1.301 1.955,2.171 3.199,2.641 0.781,0.279 1.368,0.533 2.009,0.584 1.244,0.14 2.234,0.19 2.584,0.19 2.069,0 3.659,-0.914 4.805,-2.825 0,-0.234 0.168,-0.545 0.168,-0.895 0,-0.35 -0.168,-0.419 -0.168,-0.419 0,0.069 -0.196,0.241 -0.292,0.419 -0.365,0.305 -0.615,0.66 -1.104,0.66 -0.796,0.234 -1.339,-0.172 -1.745,-1.244 -0.292,-0.305 -0.292,-0.559 -0.292,-0.914 0,-0.444 0.095,-0.762 0.292,-1.016 0.406,-0.736 0.949,-1.092 1.745,-1.092 0.74,0 1.396,0.355 1.857,0.901 0.476,0.679 0.854,1.409 0.854,2.272 0,1.092 -0.378,1.942 -0.854,2.723 -1.606,2.076 -3.952,3.27 -6.982,3.27 -0.587,0 -1.088,0 -1.536,-0.089 -2.136,-0.216 -4.079,-1.409 -6.408,-3.555 v 5.459 l -1.594,1.739 v -11.141 z"
   fill="#3C3C3B" />

			<path
   id="path1272"
   d="m 568.983,324.371 v 2.806 h 16.225 l -0.584,0.698 -2.698,1.511 c -1.212,0.876 -2.189,1.879 -2.945,3.39 -0.686,1.523 -1.146,2.92 -1.146,4.507 l -2.904,2.298 c -1.593,-2.298 -2.735,-4.761 -3.812,-7.516 -0.391,-0.952 -0.797,-2.025 -1.117,-3.11 h -1.019 v 10.905 l -1.594,1.866 v -15.564 z m 12.273,4.583 h -8.868 c 0.419,1.447 0.838,2.729 1.495,3.999 0.238,0.546 0.895,1.523 1.732,2.933 1.312,-3.263 3.03,-5.485 5.641,-6.932 z m 2.654,5.04 c 0,0.444 -0.292,0.965 -0.657,1.333 -0.194,0.312 -0.613,0.559 -1.003,0.559 -0.505,0 -0.924,-0.19 -1.273,-0.559 -0.263,-0.279 -0.333,-0.724 -0.333,-1.193 0,-0.495 0.07,-0.952 0.333,-1.358 0.349,-0.361 0.768,-0.559 1.273,-0.559 0.39,0 0.809,0.14 1.003,0.559 0.365,0.279 0.657,0.723 0.657,1.218 z"
   fill="#3C3C3B" />

			<path
   id="path1274"
   d="m 568.983,303.646 v 2.974 h 16.364 l -1.606,1.844 h -8.811 c -0.432,0 -1.047,0.222 -1.396,0.863 -0.53,0.603 -0.727,1.079 -0.628,1.676 0.098,0.432 0.25,0.711 0.628,0.927 0.35,0.248 0.686,0.355 1.146,0.248 l 0.74,-0.152 0.419,0.818 c -0.223,-0.076 -0.448,0.089 -0.769,0.33 -0.727,0.419 -1.187,0.736 -1.339,0.99 -0.575,0.635 -0.825,1.473 -0.825,2.59 0,0.813 0.25,1.333 0.628,1.93 0.35,0.673 0.965,0.99 1.536,1.257 0.321,0 0.477,0 0.769,0 1.187,0 1.996,-0.749 1.996,-2.349 -0.333,0.311 -0.657,0.495 -1.146,0.495 -0.444,0 -0.851,-0.185 -1.27,-0.521 -0.321,-0.432 -0.35,-0.99 -0.35,-1.409 -0.14,-0.952 0.321,-1.523 1.27,-1.942 0.686,-0.305 1.244,-0.457 1.495,-0.305 1.006,0.47 1.663,1.422 1.663,2.666 0,1.016 -0.32,1.955 -0.657,2.78 -0.809,1.479 -1.914,2.361 -3.771,2.361 -1.187,0 -2.164,-0.381 -3.031,-1.022 -0.92,-0.755 -1.507,-1.631 -1.507,-2.862 0,-1.257 0.39,-2.425 1.199,-3.364 l 0.756,-0.711 c -0.292,0 -0.756,-0.165 -1.175,-0.756 -0.46,-0.488 -0.752,-0.977 -0.752,-1.364 0,-0.698 0.292,-1.257 0.657,-1.694 0.124,-0.083 0.374,-0.35 0.682,-0.616 0.295,-0.403 0.809,-0.642 1.355,-0.863 h -4.271 v 13.838 l -1.762,1.93 v -18.716 z"
   fill="#3C3C3B" />

			<path
   id="path1276"
   d="m 568.983,254.867 v 3.168 h 16.364 l -0.892,0.603 c -0.321,0.14 -1.006,0.391 -1.885,0.838 -0.645,0.14 -1.314,0.613 -2.054,1.229 -0.209,0.168 -0.879,0.641 -2.095,1.635 1.759,1.199 2.555,2.735 2.555,4.481 0,0.53 -0.168,1.076 -0.263,1.634 -0.406,1.257 -0.978,2.234 -1.594,3.085 -0.768,0.698 -1.536,1.466 -2.193,1.955 -0.99,0.6 -2.149,1.159 -3.771,1.717 -1.746,0.742 -2.751,1.034 -3.253,1.203 l 0.362,-1.035 2.989,-1.285 c 0.867,-0.403 1.815,-0.962 2.457,-1.632 0.825,-0.784 1.313,-1.523 1.732,-2.349 0.587,-0.933 0.851,-2.12 0.851,-3.364 -0.165,-1.955 -1.088,-3.015 -2.875,-3.015 -0.489,0 -1.2,0.165 -1.787,0.53 -0.825,0.362 -1.146,0.809 -1.047,1.368 -0.098,0.029 0.124,0.279 0.641,0.698 0.6,0.629 0.825,1.019 0.825,1.384 0.07,0.781 -0.168,1.578 -0.518,2.219 -0.377,0.6 -0.879,0.908 -1.495,0.908 -0.92,0 -1.634,-0.448 -1.87,-1.479 -0.168,-0.378 -0.365,-0.866 -0.267,-1.047 0.099,-1.984 0.825,-3.491 1.997,-4.777 1.257,-1.339 2.78,-1.828 4.44,-1.732 l 3.158,-1.955 H 568.98 v 16.926 l -1.594,1.787 V 256.78 Z"
   fill="#3C3C3B" />

			<path
   id="path1278"
   d="m 568.983,245.482 v 3.015 h 16.742 l -1.688,1.717 h -11.912 c -0.394,0 -0.784,0.127 -0.907,0.155 -0.197,0.041 -0.489,0.181 -0.813,0.378 -0.921,0.682 -1.422,1.605 -1.422,2.834 0,0.222 0,0.32 0,0.518 l -1.594,1.841 c -0.168,-1.13 -0.168,-2.038 0,-2.863 0.238,-1.257 0.781,-2.136 2.165,-2.707 0.349,-0.209 0.978,-0.518 1.983,-0.866 -0.32,0.082 -1.536,0.238 -3.688,0.517 -0.949,0.14 -2.149,0.194 -3.266,0.194 l 0.502,-0.711 c 0.152,0 0.377,0 0.809,-0.127 0.181,-0.042 0.559,-0.083 0.879,-0.264 0.127,-0.168 0.323,-0.308 0.615,-0.616 v -1.27 z"
   fill="#3C3C3B" />

			<path
   id="path1280"
   d="M 568.983,227.775 V 239.7 h 10.753 c 0.711,0 1.072,-0.403 1.072,-1.409 0,-1.203 -0.851,-2.71 -2.679,-4.231 -0.686,-0.574 -1.203,-0.952 -2.069,-0.993 0,0.155 0,0.295 0,0.587 0,0.546 -0.124,1.089 -0.514,1.536 -0.254,0.477 -0.616,0.686 -1.327,0.686 -0.168,0 -0.336,0 -0.488,-0.14 -1.022,-0.295 -1.606,-1.104 -1.606,-2.25 0,-1.102 0.46,-1.885 1.409,-2.542 0.518,-0.391 1.244,-0.53 1.857,-0.473 1.914,0.083 3.253,0.711 4.345,1.87 2.009,2.234 3.154,3.926 3.154,5.043 0,0.937 -0.168,1.564 -0.349,2.009 -0.616,0.867 -1.438,1.454 -2.526,1.815 -0.279,0.226 -1.035,0.226 -2.181,0.226 h -8.852 v 2.777 l -1.594,1.453 V 232.2 c -0.615,0 -0.936,0 -0.879,0 -0.53,0.14 -0.879,0.394 -1.076,0.895 -0.25,0.559 -0.349,1.104 -0.349,1.759 0,0.813 0.152,2.041 0.152,3.52 0.044,0.574 0.196,1.019 0.196,1.327 0,1.733 -0.488,3.142 -1.339,4.12 -0.743,0.854 -1.441,1.272 -2.181,1.272 -0.657,0 -1.102,-0.168 -1.606,-0.488 0,-0.168 -0.124,-0.337 -0.194,-0.419 -0.127,-0.197 -0.127,-0.394 -0.127,-0.394 0.197,0 0.391,-0.111 0.559,-0.111 0.321,0.406 0.616,0.406 0.781,0.406 0.813,0 1.425,-0.476 1.691,-1.635 0.124,-0.447 0.124,-0.879 0.124,-1.244 -0.025,-1.13 -0.025,-1.701 -0.025,-1.841 0,0.14 -0.099,-0.476 -0.168,-1.691 0,-0.67 -0.098,-1.409 0,-2.095 0.07,-1.102 0.194,-2.219 0.571,-2.821 0.936,-1.66 2.111,-2.346 3.701,-2.289 l 0.267,-0.908 z"
   fill="#3C3C3B" />

			<path
   id="path1282"
   d="m 559.528,223.431 6.548,7.668 v 4.202 l -6.703,-10.293 z"
   fill="#3C3C3B" />

			<path
   id="path1284"
   d="m 568.983,204.816 v 3.339 h 16.364 l -1.898,1.799 h -7.204 c -0.406,0.14 -0.854,0.321 -1.314,0.965 -0.336,0.501 -0.587,1.13 -0.587,1.549 0,0.669 0.435,1.355 1.047,1.803 2.641,2.038 3.98,3.225 4.107,3.783 0,0.085 0,0.308 0,0.669 0,0.727 -0.127,1.203 -0.32,1.314 -0.058,0.53 -0.756,1.228 -1.971,1.983 -0.279,0.362 -0.867,0.657 -1.146,0.838 l -0.99,-1.314 c 0.152,0 0.35,-0.098 0.867,-0.279 0.403,-0.321 0.752,-0.448 0.99,-0.641 0.098,-0.251 0.25,-0.447 0.25,-0.698 0,-0.476 -0.488,-0.978 -1.339,-1.733 l -1.955,-1.52 c -0.657,0 -1.175,0.165 -1.495,0.165 -1.27,0.574 -1.983,1.523 -1.983,3.088 -0.083,1.06 -0.14,1.688 -0.14,1.968 -0.096,0.489 -0.613,0.965 -1.282,1.536 l -0.279,0.489 -1.314,1.593 v -18.824 z m 5.697,5.139 h -5.697 v 8.116 l 0.768,-1.076 c 0.654,-0.81 1.562,-1.272 2.736,-1.272 0.222,0 0.419,0 0.587,0.069 -0.07,-0.152 -0.267,-0.501 -0.587,-1.088 -0.448,-0.628 -0.587,-0.978 -0.587,-1.241 0,-0.435 0.225,-0.994 0.686,-1.536 0.222,-0.407 0.948,-1.008 2.094,-1.972 z"
   fill="#3C3C3B" />

			<path
   id="path1286"
   d="m 568.983,174.944 v 3.352 h 16.45 l -1.203,0.882 c -2.305,1.032 -3.923,2.625 -5.053,4.748 -0.756,1.451 -1.203,2.889 -1.343,4.412 l -2.765,2.304 c -1.244,-1.634 -2.066,-3.154 -2.583,-4.316 -1.146,-2.399 -1.927,-4.522 -2.485,-6.297 h -1.019 v 11.55 l -1.594,1.758 v -16.631 z m 11.994,5.084 h -8.392 c 0.641,2.107 1.758,4.301 3.253,6.913 1.187,-3.183 2.807,-5.475 5.139,-6.913 z"
   fill="#3C3C3B" />

			<path
   id="path1288"
   d="m 568.983,165.911 v 3.003 h 16.742 l -1.688,1.688 h -11.912 c -0.394,0 -0.784,0.057 -0.907,0.111 -0.197,0.098 -0.489,0.279 -0.813,0.517 -0.921,0.657 -1.422,1.647 -1.422,2.793 0,0.181 0,0.321 0,0.432 l -1.594,1.86 c -0.168,-1.035 -0.168,-1.971 0,-2.78 0.238,-1.188 0.781,-2.152 2.165,-2.822 0.349,-0.111 0.978,-0.362 1.983,-0.74 -0.32,0.029 -1.536,0.181 -3.688,0.546 -0.949,0.083 -2.149,0.083 -3.266,0.083 l 0.502,-0.629 c 0.152,0 0.377,-0.069 0.809,-0.14 0.181,0 0.559,-0.14 0.879,-0.39 0.127,-0.029 0.323,-0.336 0.615,-0.53 v -1.175 z"
   fill="#3C3C3B" />

			<path
   id="path1290"
   d="m 574.499,156.066 c 0.571,0.514 0.892,0.99 0.921,1.438 0.127,0.222 0.196,0.628 0.196,1.27 0,1.035 -0.323,2.041 -1.117,2.863 -0.768,0.908 -1.593,1.215 -2.599,1.215 -1.047,0 -1.997,-0.501 -2.806,-1.536 -0.628,-0.796 -0.923,-1.634 -0.923,-2.415 0,-1.089 0.394,-1.901 1.215,-2.723 0.784,-0.867 1.634,-1.228 2.653,-1.228 0.867,-10e-4 1.692,0.361 2.46,1.116 z m -1.272,1.87 c -0.32,-0.518 -0.641,-0.937 -1.031,-1.102 -0.156,-0.057 -0.464,-0.057 -0.978,-0.057 -0.952,0 -1.413,0.361 -1.413,1.13 0,0.603 0.365,1.272 1.117,2.164 0.419,0.575 1.117,0.896 1.885,0.896 0.825,0 1.244,-0.321 1.244,-0.949 10e-4,-0.546 -0.225,-1.187 -0.824,-2.082 z m 13.812,-6.046 -1.831,2.037 c -1.241,1.467 -2.958,4.037 -5.25,7.808 h -3.618 c 0.587,-0.838 1.692,-2.206 3.298,-4.008 0.81,-0.99 2.904,-2.933 6.087,-5.836 h 1.314 z"
   fill="#3C3C3B" />

			<path
   id="path1292"
   d="m 568.983,132.618 v 3.002 h 16.364 l -1.606,1.759 h -8.811 c -0.432,0 -1.047,0.336 -1.396,0.895 -0.53,0.698 -0.727,1.117 -0.628,1.705 0.098,0.419 0.25,0.711 0.628,0.99 0.35,0.25 0.686,0.336 1.146,0.25 l 0.74,-0.069 0.419,0.657 c -0.223,-0.07 -0.448,0.098 -0.769,0.349 -0.727,0.53 -1.187,0.755 -1.339,0.993 -0.575,0.724 -0.825,1.536 -0.825,2.539 0,0.784 0.25,1.454 0.628,2.111 0.35,0.559 0.965,0.892 1.536,1.101 0.321,0.029 0.477,0.099 0.769,0.099 1.187,0 1.996,-0.781 1.996,-2.387 -0.333,0.333 -0.657,0.53 -1.146,0.53 -0.444,0 -0.851,-0.21 -1.27,-0.67 -0.321,-0.419 -0.35,-0.879 -0.35,-1.327 -0.14,-0.867 0.321,-1.578 1.27,-1.997 0.686,-0.238 1.244,-0.349 1.495,-0.238 1.006,0.53 1.663,1.409 1.663,2.612 0,1.089 -0.32,1.997 -0.657,2.834 -0.809,1.549 -1.914,2.317 -3.771,2.317 -1.187,0 -2.164,-0.333 -3.031,-0.978 -0.92,-0.698 -1.507,-1.647 -1.507,-2.834 0,-1.34 0.39,-2.457 1.199,-3.422 l 0.756,-0.546 c -0.292,0 -0.756,-0.305 -1.175,-0.851 -0.46,-0.53 -0.752,-0.965 -0.752,-1.384 0,-0.768 0.292,-1.27 0.657,-1.618 0.124,-0.321 0.374,-0.448 0.682,-0.769 0.295,-0.279 0.809,-0.559 1.355,-0.895 h -4.271 v 13.952 l -1.762,1.856 v -18.656 z"
   fill="#3C3C3B" />

			<path
   id="path1294"
   d="m 568.983,123.331 v 3.101 h 16.742 l -1.688,1.688 h -11.912 c -0.394,0 -0.784,0.057 -0.907,0.111 -0.197,0 -0.489,0.21 -0.813,0.378 -0.921,0.727 -1.422,1.704 -1.422,2.948 0,0.054 0,0.279 0,0.473 l -1.594,1.692 c -0.168,-0.952 -0.168,-1.886 0,-2.739 0.238,-1.285 0.781,-2.234 2.165,-2.752 0.349,-0.209 0.978,-0.473 1.983,-0.793 -0.32,0.082 -1.536,0.279 -3.688,0.444 -0.949,0.14 -2.149,0.238 -3.266,0.238 l 0.502,-0.682 c 0.152,0 0.377,-0.114 0.809,-0.197 0.181,-0.041 0.559,-0.111 0.879,-0.308 0.127,-0.168 0.323,-0.308 0.615,-0.501 v -1.298 z"
   fill="#3C3C3B" />

			<path
   id="path1296"
   d="m 568.983,110.734 c 0.374,1.495 0.92,2.809 1.869,4.148 0.879,1.215 1.955,2.193 3.199,2.612 0.781,0.292 1.368,0.489 2.009,0.489 1.244,0.222 2.234,0.333 2.584,0.333 2.069,0 3.659,-1.13 4.805,-2.986 0,-0.127 0.168,-0.447 0.168,-0.698 0,-0.391 -0.168,-0.574 -0.168,-0.546 0,0.155 -0.196,0.197 -0.292,0.419 -0.365,0.378 -0.615,0.6 -1.104,0.698 -0.796,0.127 -1.339,-0.32 -1.745,-1.257 -0.292,-0.279 -0.292,-0.641 -0.292,-0.937 0,-0.374 0.095,-0.698 0.292,-1.031 0.406,-0.727 0.949,-1.047 1.745,-1.047 0.74,0 1.396,0.25 1.857,0.822 0.476,0.645 0.854,1.454 0.854,2.305 0,1.146 -0.378,1.999 -0.854,2.768 -1.606,2.12 -3.952,3.237 -6.982,3.237 -0.587,0 -1.088,0 -1.536,0 -2.136,-0.321 -4.079,-1.467 -6.408,-3.615 v 5.459 l -1.594,1.733 v -11.16 z"
   fill="#3C3C3B" />

			<path
   id="path1298"
   d="m 568.983,92.063 v 13.521 h 6.855 c 0,0 -0.419,-0.365 -1.061,-1.257 -0.895,-1.117 -1.244,-1.622 -1.523,-1.999 -0.768,-1.2 -1.663,-2.765 -2.333,-4.872 l 2.082,-3.088 c 3.335,1.999 6.313,2.723 8.921,2.304 0.378,0.114 1.523,-0.14 3.422,-0.488 l -0.559,1.244 -1.898,0.432 c -1.244,0.406 -2.71,0.587 -4.246,0.603 -1.2,0.124 -2.708,-0.127 -4.593,-0.546 0.543,1.34 1.171,2.514 1.885,3.562 1.368,1.717 2.806,2.933 4.371,3.573 l -2.178,2.432 h -9.146 v 1.844 l -1.594,1.856 V 93.907 Z"
   fill="#3C3C3B" />

			<path
   id="path1300"
   d="m 568.983,71.004 v 2.891 h 16.364 l -1.73,1.914 -9.886,-0.197 c -0.505,0 -1.146,0.406 -2.14,1.159 -1.187,0.854 -1.688,1.593 -1.59,2.333 0,0.336 0.168,0.755 0.403,1.215 0.155,0.378 0.517,0.657 0.813,0.657 0.095,-0.111 0.374,-0.574 0.978,-1.412 0.612,-0.781 1.339,-1.298 2.148,-1.298 0.587,0 0.949,0.07 1.076,0.25 0.641,0.267 1.117,0.924 1.117,2.054 0,1.047 -0.6,1.927 -1.759,2.612 0.515,0.25 0.934,0.641 1.282,1.244 0.477,0.488 0.629,1.019 0.629,1.688 0,0.879 -0.629,1.663 -1.619,2.082 -0.292,0.069 -0.476,0.069 -0.727,0.069 -0.81,0 -1.688,-0.488 -2.444,-1.425 l -0.682,-0.949 c -0.197,-0.196 -0.295,-0.447 -0.295,-0.727 -0.362,0.209 -0.752,0.6 -1.368,1.019 -0.321,0.502 -0.571,1.146 -0.571,1.594 v 2.177 l -1.495,1.828 v -3.7 c 0,-0.752 0.14,-1.479 0.53,-2.19 l 0.686,-0.796 c 0.53,-0.575 1.101,-0.879 1.701,-0.994 -0.654,-0.374 -1.048,-0.724 -1.422,-1.06 -0.714,-0.546 -1.133,-1.425 -1.355,-2.542 -0.14,-0.432 -0.14,-0.752 -0.14,-0.752 0,-0.546 0.432,-1.301 1.495,-2.209 0.374,-0.279 0.92,-0.669 1.939,-1.298 0.809,-0.822 1.565,-1.229 1.787,-1.229 l -5.081,0.406 -3.044,0.194 c 0.235,-0.321 0.6,-0.6 0.879,-1.13 0.168,-0.029 0.517,-0.057 0.698,-0.181 0.349,0 0.613,-0.044 0.613,-0.044 0.295,-0.14 0.447,-0.654 0.714,-1.606 z"
   fill="#3C3C3B" />

		</g><polygon
     transform="matrix(0.21455324,0,0,0.21455324,5.9896018,134.36067)"
     id="polygon1304"
     points="376.211,537.85 388.738,539.664 379.55,548.545 381.686,561.113 370.556,555.223 359.174,561.113 361.491,548.545 352.36,539.664 364.957,537.836 370.556,526.417 "
     fill="#3EA3DC" /><path
     style="stroke-width:0.214553"
     fill="#FDC300"
     d="m 364.98802,219.58486 c 0,0.58295 -49.15136,1.0541 -109.77938,1.0541 -60.63103,0 -109.78239,-0.47115 -109.78239,-1.0541 0,-0.58294 49.15136,-1.0541 109.78239,-1.0541 60.62802,0 109.77938,0.47116 109.77938,1.0541 z"
     id="path1308" /><metadata
     id="metadata2090"><rdf:RDF><cc:Work
         rdf:about=""><dc:title></dc:title></cc:Work></rdf:RDF></metadata></svg>
