<?xml version="1.0" encoding="utf-8"?>
<!-- Generator: Adobe Illustrator 23.0.2, SVG Export Plug-In . SVG Version: 6.00 Build 0)  -->
<!DOCTYPE svg PUBLIC "-//W3C//DTD SVG 1.1//EN" "http://www.w3.org/Graphics/SVG/1.1/DTD/svg11.dtd" [
	<!ENTITY ns_extend "http://ns.adobe.com/Extensibility/1.0/">
	<!ENTITY ns_ai "http://ns.adobe.com/AdobeIllustrator/10.0/">
	<!ENTITY ns_graphs "http://ns.adobe.com/Graphs/1.0/">
	<!ENTITY ns_vars "http://ns.adobe.com/Variables/1.0/">
	<!ENTITY ns_imrep "http://ns.adobe.com/ImageReplacement/1.0/">
	<!ENTITY ns_sfw "http://ns.adobe.com/SaveForWeb/1.0/">
	<!ENTITY ns_custom "http://ns.adobe.com/GenericCustomNamespace/1.0/">
	<!ENTITY ns_adobe_xpath "http://ns.adobe.com/XPath/1.0/">
]>
<svg version="1.1" id="Layer_1" xmlns:x="&ns_extend;" xmlns:i="&ns_ai;" xmlns:graph="&ns_graphs;"
	 xmlns="http://www.w3.org/2000/svg" xmlns:xlink="http://www.w3.org/1999/xlink" x="0px" y="0px" viewBox="0 0 120 120"
	 style="enable-background:new 0 0 120 120;" xml:space="preserve">
<style type="text/css">
	.st0{fill:#2F318D;}
	.st1{fill:#FFC91E;stroke:#FFFFFF;stroke-width:4.640000e-02;}
	.st2{fill:#30A4DC;}
	.st3{fill:#FFC91E;}
	.st4{fill:#FFFFFF;stroke:#231F20;stroke-width:0.5;}
	.st5{fill:#231F20;}
</style>
<metadata>
	<sfw  xmlns="&ns_sfw;">
		<slices></slices>
		<sliceSourceBounds  bottomLeftOrigin="true" height="16383" width="16383" x="-8131" y="-8252"></sliceSourceBounds>
	</sfw>
</metadata>
<path class="st0" d="M60.7,35.2c0,0.2-0.1,0.3-0.1,0.5c0,0.1,0,0.3,0,0.5v12.9c0,2.3-0.7,4.1-2.2,5.3c-1.4,1.2-3.5,1.8-6.3,1.8
	c-1.6,0-2.9-0.2-3.9-0.6c-1.1-0.4-1.9-1.1-2.7-2c-0.5-0.6-0.8-1.3-1.1-2c-0.3-0.8-0.4-1.6-0.4-2.4V36.2c0-0.3,0-0.6-0.1-1h3.7
	c0,0.2-0.1,0.4-0.1,0.5c0,0.1,0,0.3,0,0.5v13.2c0,1.7,0.5,3,1.5,3.9c1,0.9,2.3,1.4,4.1,1.4c1.9,0,3.4-0.5,4.4-1.5
	c1-1,1.5-2.4,1.5-4.3V36.2c0-0.2,0-0.4,0-0.5c0-0.1-0.1-0.3-0.1-0.5H60.7L60.7,35.2z"/>
<path class="st0" d="M64.9,56c0.1-0.3,0.1-0.7,0.1-1V36.2c0-0.2,0-0.3,0-0.5c0-0.1-0.1-0.3-0.1-0.5h3.7c-0.1,0.3-0.1,0.7-0.1,1v18.2
	h5.9c0.3,0,0.5,0,0.6,0c0.1,0,0.3-0.1,0.5-0.1V56H64.9z"/>
<path class="st0" d="M77.8,55.1c0,0.2-0.1,0.3-0.1,0.4c0,0.1,0,0.3,0,0.5h-2c0.1-0.2,0.2-0.3,0.3-0.4c0.1-0.1,0.1-0.3,0.2-0.4
	l6.8-19.2c0-0.2,0.1-0.3,0.1-0.4c0-0.1,0-0.2,0.1-0.4h3c0,0.2,0.1,0.5,0.2,0.7l7,19.3c0.1,0.2,0.1,0.3,0.2,0.4
	c0.1,0.1,0.2,0.3,0.3,0.5h-4.1c0-0.2,0-0.3,0-0.4c0-0.1-0.1-0.3-0.1-0.5l-2-5.7h-7.8L77.8,55.1z M87,48l-3.4-9.4L80.3,48H87z"/>
<path class="st0" d="M103,35.1c1.9,0,3.4,0.4,4.4,1.3c1,0.9,1.6,2.2,1.6,3.8c0,0.9-0.2,1.7-0.6,2.4c-0.4,0.7-0.9,1.2-1.6,1.6
	c-0.3,0.2-0.6,0.3-0.8,0.4c-0.3,0.1-0.7,0.2-1.2,0.4c3.1,0.5,4.6,2.3,4.6,5.2c0,0.8-0.1,1.6-0.4,2.3c-0.3,0.7-0.7,1.3-1.2,1.8
	c-0.5,0.5-1.2,0.9-1.9,1.2c-0.7,0.3-1.5,0.4-2.4,0.4h-7.5c0-0.2,0.1-0.3,0.1-0.5c0-0.1,0-0.3,0-0.5V36.1c0-0.2,0-0.4,0-0.5
	c0-0.1-0.1-0.3-0.1-0.5H103z M101,44.5c1.5,0,2.7-0.3,3.4-1c0.7-0.7,1.1-1.7,1.1-3.2c0-2.4-1.3-3.6-3.8-3.6h-2.2v7.8H101z M102,54.4
	c2.6,0,3.8-1.3,3.8-4c0-1.6-0.5-2.7-1.4-3.5c-0.4-0.4-0.9-0.6-1.4-0.7c-0.5-0.1-1.2-0.2-2-0.2h-1.5v8.4H102L102,54.4z"/>
<path class="st0" d="M47,60.9C47,61,47,61,47,60.9c0,0.1,0,0.1,0,0.2v2.3c0,0.4-0.1,0.7-0.4,0.9c-0.3,0.2-0.6,0.3-1.1,0.3
	c-0.3,0-0.5,0-0.7-0.1c-0.2-0.1-0.3-0.2-0.5-0.3c-0.1-0.1-0.1-0.2-0.2-0.4c0-0.1-0.1-0.3-0.1-0.4v-2.3c0-0.1,0-0.1,0-0.2h0.7
	c0,0,0,0.1,0,0.1c0,0,0,0.1,0,0.1v2.3c0,0.3,0.1,0.5,0.3,0.7c0.2,0.2,0.4,0.2,0.7,0.2c0.3,0,0.6-0.1,0.8-0.3
	c0.2-0.2,0.3-0.4,0.3-0.8v-2.2c0,0,0-0.1,0-0.1c0,0,0-0.1,0-0.1L47,60.9L47,60.9z"/>
<path class="st0" d="M48.1,64.4C48.1,64.5,48.1,64.5,48.1,64.4c0,0.1,0,0.1,0,0.2h-0.3c0-0.1,0-0.1,0-0.2v-3.3c0,0,0-0.1,0-0.1
	c0,0,0-0.1,0-0.1h0.6c0,0,0,0,0,0.1c0,0,0,0,0,0.1l2,2.8v-2.8c0-0.1,0-0.1,0-0.2h0.3c0,0,0,0.1,0,0.1c0,0,0,0.1,0,0.1v3.3
	c0,0,0,0.1,0,0.1c0,0,0,0,0,0.1h-0.5l0-0.1c0,0,0,0,0,0c0,0,0,0,0,0l-2-2.9L48.1,64.4L48.1,64.4z"/>
<path class="st0" d="M52.2,60.9C52.2,60.9,52.2,61,52.2,60.9c0,0.1,0,0.1,0,0.2v3.3c0,0,0,0.1,0,0.1c0,0,0,0.1,0,0.1h-0.7
	c0-0.1,0-0.1,0-0.2v-3.3c0-0.1,0-0.1,0-0.2H52.2L52.2,60.9z"/>
<path class="st0" d="M53.2,60.9C53.2,60.9,53.2,60.9,53.2,60.9c0,0.1,0,0.1,0,0.2l1,2.9l1-2.9c0,0,0-0.1,0-0.1c0,0,0,0,0-0.1h0.3
	c0,0.1-0.1,0.1-0.1,0.2l-1.1,3.4c0,0,0,0,0,0.1c0,0,0,0.1,0,0.1h-0.6c0,0,0-0.1,0-0.1c0,0,0,0,0-0.1l-1.1-3.3c0,0,0,0,0-0.1
	c0,0,0-0.1-0.1-0.1H53.2L53.2,60.9z"/>
<path class="st0" d="M57.7,60.9v0.3c0,0-0.1,0-0.1,0c0,0,0,0-0.1,0h-1.1v1.4h1.1c0.1,0,0.1,0,0.1,0c0,0,0.1,0,0.1,0v0.3
	c0,0-0.1,0-0.1,0c0,0-0.1,0-0.1,0h-1.1v1.5h1.1c0,0,0.1,0,0.1,0c0,0,0.1,0,0.1,0v0.3h-1.9c0,0,0-0.1,0-0.1c0,0,0-0.1,0-0.1v-3.3
	c0,0,0-0.1,0-0.1c0,0,0,0,0-0.1H57.7L57.7,60.9z"/>
<path class="st0" d="M59,64.4C59,64.5,59,64.5,59,64.4c0,0.1,0,0.1,0,0.2h-0.7c0,0,0-0.1,0-0.1c0,0,0-0.1,0-0.1v-3.3
	c0,0,0-0.1,0-0.2h1.1c0.2,0,0.3,0,0.5,0.1c0.1,0,0.3,0.1,0.4,0.2c0.1,0.1,0.2,0.2,0.2,0.3c0.1,0.1,0.1,0.3,0.1,0.4
	c0,0.2-0.1,0.4-0.2,0.5c-0.1,0.1-0.2,0.3-0.4,0.3c-0.1,0-0.1,0-0.2,0.1c-0.1,0-0.1,0-0.2,0l1.2,1.6c0,0,0.1,0.1,0.1,0.1
	c0,0,0,0,0.1,0.1h-0.8c0,0,0-0.1,0-0.1c0,0,0,0,0-0.1L59,62.9L59,64.4L59,64.4z M59.3,62.7c0.2,0,0.4-0.1,0.5-0.2
	c0.1-0.1,0.2-0.3,0.2-0.5c0-0.1,0-0.2-0.1-0.3c0-0.1-0.1-0.2-0.2-0.3c-0.1-0.1-0.3-0.2-0.5-0.2H59v1.5H59.3L59.3,62.7z"/>
<path class="st0" d="M61.2,63.9c0.1,0.1,0.2,0.1,0.2,0.2c0.1,0.1,0.1,0.1,0.2,0.1c0.1,0,0.1,0.1,0.2,0.1c0.1,0,0.1,0,0.2,0
	c0.2,0,0.4-0.1,0.5-0.2c0.1-0.1,0.2-0.3,0.2-0.5c0-0.2-0.1-0.4-0.3-0.5c0,0-0.1-0.1-0.2-0.1c-0.1,0-0.2-0.1-0.4-0.2
	c-0.2-0.1-0.3-0.1-0.4-0.2c-0.1-0.1-0.2-0.2-0.3-0.2c-0.1-0.1-0.1-0.2-0.2-0.3c0-0.1,0-0.2,0-0.3c0-0.2,0-0.3,0.1-0.4
	c0.1-0.1,0.1-0.2,0.3-0.3c0.1-0.1,0.2-0.2,0.4-0.2c0.1,0,0.3-0.1,0.5-0.1c0.2,0,0.3,0,0.4,0c0.1,0,0.3,0.1,0.4,0.2l-0.1,0.4
	c-0.2-0.1-0.3-0.2-0.4-0.2c-0.1,0-0.2-0.1-0.4-0.1c-0.2,0-0.3,0.1-0.4,0.2c-0.1,0.1-0.2,0.2-0.2,0.4c0,0.1,0,0.1,0,0.2
	c0,0.1,0.1,0.1,0.1,0.2c0.1,0.1,0.1,0.1,0.2,0.2c0.1,0.1,0.2,0.1,0.4,0.2c0.2,0.1,0.3,0.2,0.5,0.2c0.1,0.1,0.2,0.2,0.3,0.2
	c0.1,0.2,0.2,0.4,0.2,0.6c0,0.2,0,0.3-0.1,0.5c-0.1,0.2-0.2,0.3-0.3,0.4c-0.1,0.1-0.2,0.1-0.4,0.2c-0.1,0-0.3,0.1-0.5,0.1
	c-0.1,0-0.2,0-0.3,0c-0.1,0-0.2,0-0.2,0c-0.1,0-0.2-0.1-0.2-0.1c-0.1,0-0.2-0.1-0.3-0.1L61.2,63.9z"/>
<path class="st0" d="M64.6,60.9C64.6,60.9,64.6,61,64.6,60.9c0,0.1,0,0.1,0,0.2v3.3c0,0,0,0.1,0,0.1c0,0,0,0.1,0,0.1H64
	c0-0.1,0-0.1,0-0.2v-3.3c0-0.1,0-0.1,0-0.2H64.6L64.6,60.9z"/>
<path class="st0" d="M67.6,60.9v0.3c-0.1,0-0.1,0-0.1,0c0,0-0.1,0-0.1,0h-0.8v3.2c0,0,0,0.1,0,0.1c0,0,0,0.1,0,0.1H66
	c0,0,0-0.1,0-0.1c0,0,0-0.1,0-0.1v-3.2h-0.8c0,0-0.1,0-0.1,0c0,0-0.1,0-0.1,0v-0.3H67.6z"/>
<path class="st0" d="M67.5,61.1C67.5,61,67.4,61,67.5,61.1c-0.1-0.1-0.1-0.1-0.1-0.1h0.7c0,0,0,0,0,0.1c0,0,0,0,0,0.1l0.7,1.5
	l0.8-1.5c0,0,0,0,0-0.1c0,0,0,0,0-0.1h0.3c0,0,0,0,0,0.1c0,0,0,0,0,0.1L69,63v1.4c0,0,0,0.1,0,0.1c0,0,0,0.1,0,0.1h-0.7
	c0,0,0-0.1,0-0.1c0,0,0-0.1,0-0.1V63L67.5,61.1z"/>
<path class="st0" d="M73.5,60.9c0.6,0,1,0.2,1.3,0.5c0.3,0.3,0.5,0.8,0.5,1.4c0,0.6-0.2,1.1-0.5,1.4c-0.3,0.3-0.8,0.5-1.4,0.5
	c-0.6,0-1-0.2-1.3-0.5c-0.3-0.3-0.5-0.8-0.5-1.4c0-0.3,0-0.6,0.1-0.8c0.1-0.2,0.2-0.4,0.4-0.6c0.2-0.2,0.3-0.3,0.6-0.4
	C73,60.9,73.2,60.9,73.5,60.9z M73.5,61.2c-0.4,0-0.7,0.1-0.9,0.4c-0.2,0.3-0.3,0.7-0.3,1.2c0,1.1,0.4,1.6,1.2,1.6
	c0.4,0,0.7-0.1,0.9-0.4c0.2-0.3,0.3-0.7,0.3-1.2c0-0.5-0.1-0.9-0.3-1.2C74.2,61.3,73.9,61.2,73.5,61.2z"/>
<path class="st0" d="M77.8,60.9v0.3c0,0-0.1,0-0.1,0c0,0-0.1,0-0.1,0h-1v1.4h0.9c0,0,0.1,0,0.1,0c0,0,0.1,0,0.1,0v0.3
	c0,0-0.1,0-0.1,0c0,0-0.1,0-0.1,0h-0.9v1.6c0,0,0,0.1,0,0.1c0,0,0,0.1,0,0.1h-0.7c0-0.1,0-0.1,0-0.2v-3.3c0,0,0-0.1,0-0.2H77.8
	L77.8,60.9z"/>
<path class="st0" d="M79.8,64.6c0-0.1,0-0.1,0-0.2v-3.3c0,0,0-0.1,0-0.1c0,0,0-0.1,0-0.1h0.7c0,0.1,0,0.1,0,0.2v3.2h1
	c0.1,0,0.1,0,0.1,0c0,0,0,0,0.1,0v0.3H79.8L79.8,64.6z"/>
<path class="st0" d="M82.8,60.9C82.8,60.9,82.8,61,82.8,60.9c0,0.1,0,0.1,0,0.2v3.3c0,0,0,0.1,0,0.1c0,0,0,0.1,0,0.1h-0.7
	c0-0.1,0-0.1,0-0.2v-3.3c0-0.1,0-0.1,0-0.2H82.8L82.8,60.9z"/>
<path class="st0" d="M84.9,60.9c0.3,0,0.6,0.1,0.8,0.2c0.2,0.2,0.3,0.4,0.3,0.7c0,0.2,0,0.3-0.1,0.4c-0.1,0.1-0.2,0.2-0.3,0.3
	c-0.1,0-0.1,0.1-0.1,0.1c0,0-0.1,0-0.2,0.1c0.5,0.1,0.8,0.4,0.8,0.9c0,0.1,0,0.3-0.1,0.4c-0.1,0.1-0.1,0.2-0.2,0.3
	c-0.1,0.1-0.2,0.2-0.3,0.2c-0.1,0-0.3,0.1-0.4,0.1h-1.3c0,0,0-0.1,0-0.1c0,0,0-0.1,0-0.1v-3.3c0,0,0-0.1,0-0.1c0,0,0,0,0-0.1H84.9z
	 M84.5,62.6c0.3,0,0.5-0.1,0.6-0.2c0.1-0.1,0.2-0.3,0.2-0.6c0-0.4-0.2-0.6-0.7-0.6h-0.4v1.4H84.5z M84.7,64.3c0.5,0,0.7-0.2,0.7-0.7
	c0-0.3-0.1-0.5-0.2-0.6c-0.1-0.1-0.2-0.1-0.2-0.1c-0.1,0-0.2,0-0.4,0h-0.3v1.5H84.7z"/>
<path class="st0" d="M88.5,60.9v0.3c0,0-0.1,0-0.1,0c0,0,0,0-0.1,0h-1.1v1.4h1.1c0.1,0,0.1,0,0.1,0c0,0,0.1,0,0.1,0v0.3
	c0,0-0.1,0-0.1,0c0,0-0.1,0-0.1,0h-1.1v1.5h1.1c0,0,0.1,0,0.1,0c0,0,0.1,0,0.1,0v0.3h-1.9c0,0,0-0.1,0-0.1c0,0,0-0.1,0-0.1v-3.3
	c0,0,0-0.1,0-0.1c0,0,0,0,0-0.1H88.5L88.5,60.9z"/>
<path class="st0" d="M89.8,64.4C89.8,64.5,89.8,64.5,89.8,64.4c0,0.1,0,0.1,0,0.2h-0.7c0,0,0-0.1,0-0.1c0,0,0-0.1,0-0.1v-3.3
	c0,0,0-0.1,0-0.2h1.1c0.2,0,0.3,0,0.5,0.1c0.1,0,0.3,0.1,0.4,0.2c0.1,0.1,0.2,0.2,0.2,0.3c0.1,0.1,0.1,0.3,0.1,0.4
	c0,0.2-0.1,0.4-0.2,0.5c-0.1,0.1-0.2,0.3-0.4,0.3c-0.1,0-0.1,0-0.2,0.1c-0.1,0-0.1,0-0.2,0l1.2,1.6c0,0,0.1,0.1,0.1,0.1
	c0,0,0,0,0.1,0.1H91c0,0,0-0.1,0-0.1c0,0,0,0,0-0.1l-1.1-1.5V64.4L89.8,64.4z M90.1,62.7c0.2,0,0.4-0.1,0.5-0.2
	c0.1-0.1,0.2-0.3,0.2-0.5c0-0.1,0-0.2-0.1-0.3c0-0.1-0.1-0.2-0.2-0.3c-0.1-0.1-0.3-0.2-0.5-0.2h-0.3v1.5H90.1L90.1,62.7z"/>
<path class="st0" d="M92.2,64.4C92.1,64.5,92.1,64.5,92.2,64.4c0,0.1,0,0.1,0,0.2h-0.3c0,0,0-0.1,0-0.1c0,0,0,0,0-0.1l1.2-3.4
	c0,0,0-0.1,0-0.1c0,0,0,0,0-0.1h0.5c0,0,0,0.1,0,0.1l1.2,3.4c0,0,0,0.1,0,0.1c0,0,0,0,0.1,0.1h-0.7c0,0,0-0.1,0-0.1c0,0,0,0,0-0.1
	l-0.4-1h-1.4L92.2,64.4z M93.8,63.2l-0.6-1.7l-0.6,1.7H93.8z"/>
<path class="st0" d="M95.4,64.6c0-0.1,0-0.1,0-0.2v-3.3c0,0,0-0.1,0-0.1c0,0,0-0.1,0-0.1H96c0,0.1,0,0.1,0,0.2v3.2h1
	c0.1,0,0.1,0,0.1,0c0,0,0,0,0.1,0v0.3H95.4L95.4,64.6z"/>
<path class="st0" d="M99.1,64.4C99.1,64.5,99.1,64.5,99.1,64.4c0,0.1,0,0.1,0,0.2h-0.3c0,0,0-0.1,0-0.1c0,0,0,0,0-0.1l1.2-3.4
	c0,0,0-0.1,0-0.1c0,0,0,0,0-0.1h0.5c0,0,0,0.1,0,0.1l1.2,3.4c0,0,0,0.1,0,0.1c0,0,0,0,0.1,0.1h-0.7c0,0,0-0.1,0-0.1c0,0,0,0,0-0.1
	l-0.4-1h-1.4L99.1,64.4z M100.8,63.2l-0.6-1.7l-0.6,1.7H100.8z"/>
<path class="st0" d="M103,64.4C103,64.5,103,64.5,103,64.4c0,0.1,0,0.1,0,0.2h-0.7c0,0,0-0.1,0-0.1c0,0,0-0.1,0-0.1v-3.3
	c0,0,0-0.1,0-0.2h1.1c0.2,0,0.3,0,0.5,0.1c0.1,0,0.3,0.1,0.4,0.2c0.1,0.1,0.2,0.2,0.2,0.3c0.1,0.1,0.1,0.3,0.1,0.4
	c0,0.2-0.1,0.4-0.2,0.5c-0.1,0.1-0.2,0.3-0.4,0.3c-0.1,0-0.1,0-0.2,0.1c-0.1,0-0.1,0-0.2,0l1.2,1.6c0,0,0.1,0.1,0.1,0.1
	c0,0,0,0,0.1,0.1h-0.8c0,0,0-0.1,0-0.1c0,0,0,0,0-0.1l-1.1-1.5V64.4L103,64.4z M103.3,62.7c0.2,0,0.4-0.1,0.5-0.2
	c0.1-0.1,0.2-0.3,0.2-0.5c0-0.1,0-0.2-0.1-0.3c0-0.1-0.1-0.2-0.2-0.3c-0.1-0.1-0.3-0.2-0.5-0.2H103v1.5H103.3L103.3,62.7z"/>
<path class="st0" d="M107.5,60.9v0.3c-0.1,0-0.1,0-0.1,0c0,0-0.1,0-0.1,0h-0.8v3.2c0,0,0,0.1,0,0.1c0,0,0,0.1,0,0.1h-0.7
	c0,0,0-0.1,0-0.1c0,0,0-0.1,0-0.1v-3.2H105c0,0-0.1,0-0.1,0c0,0-0.1,0-0.1,0v-0.3H107.5z"/>
<path class="st0" d="M107.7,63.9c0.1,0.1,0.2,0.1,0.2,0.2c0.1,0.1,0.1,0.1,0.2,0.1c0.1,0,0.1,0.1,0.2,0.1c0.1,0,0.1,0,0.2,0
	c0.2,0,0.4-0.1,0.5-0.2c0.1-0.1,0.2-0.3,0.2-0.5c0-0.2-0.1-0.4-0.3-0.5c0,0-0.1-0.1-0.2-0.1c-0.1,0-0.2-0.1-0.4-0.2
	c-0.2-0.1-0.3-0.1-0.4-0.2c-0.1-0.1-0.2-0.2-0.3-0.2c-0.1-0.1-0.1-0.2-0.2-0.3c0-0.1,0-0.2,0-0.3c0-0.2,0-0.3,0.1-0.4
	c0.1-0.1,0.1-0.2,0.3-0.3c0.1-0.1,0.2-0.2,0.4-0.2c0.1,0,0.3-0.1,0.5-0.1c0.2,0,0.3,0,0.4,0c0.1,0,0.3,0.1,0.4,0.2l-0.1,0.4
	c-0.2-0.1-0.3-0.2-0.4-0.2c-0.1,0-0.2-0.1-0.4-0.1c-0.2,0-0.3,0.1-0.4,0.2c-0.1,0.1-0.2,0.2-0.2,0.4c0,0.1,0,0.1,0,0.2
	c0,0.1,0.1,0.1,0.1,0.2c0.1,0.1,0.1,0.1,0.2,0.2c0.1,0.1,0.2,0.1,0.4,0.2c0.2,0.1,0.3,0.2,0.5,0.2c0.1,0.1,0.2,0.2,0.3,0.2
	c0.1,0.2,0.2,0.4,0.2,0.6c0,0.2,0,0.3-0.1,0.5c-0.1,0.2-0.2,0.3-0.3,0.4c-0.1,0.1-0.2,0.1-0.4,0.2c-0.1,0-0.3,0.1-0.5,0.1
	c-0.1,0-0.2,0-0.3,0c-0.1,0-0.2,0-0.2,0c-0.1,0-0.2-0.1-0.2-0.1c-0.1,0-0.2-0.1-0.3-0.1L107.7,63.9z"/>
<path class="st0" d="M45.4,66.4c0.3,0,0.6,0.1,0.8,0.2c0.2,0.2,0.3,0.4,0.3,0.7c0,0.2,0,0.3-0.1,0.4c-0.1,0.1-0.2,0.2-0.3,0.3
	c-0.1,0-0.1,0.1-0.1,0.1c0,0-0.1,0-0.2,0.1c0.5,0.1,0.8,0.4,0.8,0.9c0,0.1,0,0.3-0.1,0.4c-0.1,0.1-0.1,0.2-0.2,0.3
	C46.1,69.9,46,70,45.9,70c-0.1,0-0.3,0.1-0.4,0.1h-1.3c0,0,0-0.1,0-0.1c0,0,0-0.1,0-0.1v-3.3c0,0,0-0.1,0-0.1c0,0,0,0,0-0.1H45.4z
	 M45,68.1c0.3,0,0.5-0.1,0.6-0.2c0.1-0.1,0.2-0.3,0.2-0.6c0-0.4-0.2-0.6-0.7-0.6h-0.4v1.4H45z M45.2,69.8c0.5,0,0.7-0.2,0.7-0.7
	c0-0.3-0.1-0.5-0.2-0.6c-0.1-0.1-0.2-0.1-0.2-0.1c-0.1,0-0.2,0-0.4,0h-0.3v1.5H45.2L45.2,69.8z"/>
<path class="st0" d="M47.1,70C47.1,70,47.1,70,47.1,70c0,0.1,0,0.1,0,0.2h-0.3c0,0,0-0.1,0-0.1c0,0,0,0,0-0.1l1.2-3.4
	c0,0,0-0.1,0-0.1c0,0,0,0,0-0.1h0.5c0,0,0,0.1,0,0.1l1.2,3.4c0,0,0,0.1,0,0.1c0,0,0,0,0.1,0.1h-0.7c0,0,0-0.1,0-0.1c0,0,0,0,0-0.1
	l-0.4-1h-1.4L47.1,70z M48.7,68.7L48.1,67l-0.6,1.7H48.7z"/>
<path class="st0" d="M50.6,69.9C50.6,70,50.6,70,50.6,69.9c0,0.1,0,0.1,0,0.2h-0.3c0-0.1,0-0.1,0-0.2v-3.3c0,0,0-0.1,0-0.1
	c0,0,0-0.1,0-0.1h0.6c0,0,0,0,0,0.1c0,0,0,0,0,0.1l2,2.8v-2.8c0-0.1,0-0.1,0-0.2h0.3c0,0,0,0.1,0,0.1c0,0,0,0.1,0,0.1V70
	c0,0,0,0.1,0,0.1c0,0,0,0,0,0.1h-0.5l0,0c0,0,0,0,0,0c0,0,0,0,0,0l-2-2.9L50.6,69.9L50.6,69.9z"/>
<path class="st0" d="M56.8,67c-0.2-0.1-0.3-0.2-0.5-0.3c-0.2-0.1-0.3-0.1-0.5-0.1c-0.4,0-0.6,0.1-0.9,0.4c-0.1,0.1-0.2,0.3-0.3,0.5
	c-0.1,0.2-0.1,0.4-0.1,0.7c0,0.5,0.1,0.9,0.3,1.2c0.2,0.3,0.5,0.4,0.9,0.4c0.1,0,0.2,0,0.3,0c0.1,0,0.2-0.1,0.3-0.1v-1.4
	c0,0,0-0.1,0-0.1c0,0,0-0.1,0-0.1h0.6c0,0,0,0.1,0,0.1c0,0,0,0.1,0,0.1v1.4c0,0.1,0,0.1,0,0.1c0,0,0,0.1,0,0.1
	c-0.2,0.1-0.3,0.1-0.4,0.1c-0.1,0-0.2,0.1-0.3,0.1c-0.1,0-0.2,0-0.3,0c-0.1,0-0.2,0-0.3,0c-0.3,0-0.5,0-0.7-0.1
	c-0.2-0.1-0.4-0.2-0.5-0.3c-0.3-0.4-0.5-0.8-0.5-1.4c0-0.3,0-0.6,0.1-0.8c0.1-0.2,0.2-0.4,0.4-0.6c0.2-0.2,0.4-0.3,0.6-0.4
	c0.2-0.1,0.5-0.1,0.8-0.1c0.1,0,0.2,0,0.3,0c0.1,0,0.2,0,0.2,0c0.1,0,0.2,0,0.3,0.1c0.1,0,0.2,0.1,0.3,0.1L56.8,67L56.8,67z"/>
<path class="st0" d="M57.6,70.1c0-0.1,0-0.1,0-0.2v-3.3c0,0,0-0.1,0-0.1c0,0,0-0.1,0-0.1h0.7c0,0.1,0,0.1,0,0.2v3.2h1
	c0.1,0,0.1,0,0.1,0c0,0,0,0,0.1,0v0.3H57.6L57.6,70.1z"/>
<path class="st0" d="M59.9,70C59.9,70,59.9,70,59.9,70c0,0.1,0,0.1,0,0.2h-0.3c0,0,0-0.1,0-0.1c0,0,0,0,0-0.1l1.2-3.4
	c0,0,0-0.1,0-0.1c0,0,0,0,0-0.1h0.5c0,0,0,0.1,0,0.1l1.2,3.4c0,0,0,0.1,0,0.1c0,0,0,0,0.1,0.1H62c0,0,0-0.1,0-0.1s0,0,0-0.1l-0.4-1
	h-1.4L59.9,70z M61.5,68.7L60.9,67l-0.6,1.7H61.5z"/>
<path class="st0" d="M64.2,66.4c0.3,0,0.6,0,0.8,0.1c0.2,0.1,0.4,0.2,0.6,0.4c0.2,0.2,0.3,0.3,0.4,0.6c0.1,0.2,0.1,0.5,0.1,0.8
	c0,0.3,0,0.5-0.1,0.8c-0.1,0.2-0.2,0.4-0.4,0.6c-0.2,0.2-0.3,0.3-0.5,0.4c-0.2,0.1-0.4,0.1-0.7,0.1h-1.3c0-0.1,0-0.1,0-0.2v-3.3
	c0,0,0-0.1,0-0.1c0,0,0-0.1,0-0.1H64.2L64.2,66.4z M64.2,69.8c0.4,0,0.7-0.1,0.9-0.4c0.2-0.3,0.3-0.7,0.3-1.1c0-0.2,0-0.4-0.1-0.6
	c-0.1-0.2-0.1-0.3-0.3-0.5c-0.1-0.1-0.3-0.2-0.4-0.3c-0.2-0.1-0.3-0.1-0.5-0.1h-0.4v3.1H64.2L64.2,69.8z"/>
<path class="st0" d="M68.6,66.4v0.3c0,0-0.1,0-0.1,0c0,0,0,0-0.1,0h-1.1v1.4h1.1c0.1,0,0.1,0,0.1,0c0,0,0.1,0,0.1,0v0.3
	c0,0-0.1,0-0.1,0c0,0-0.1,0-0.1,0h-1.1v1.5h1.1c0,0,0.1,0,0.1,0c0,0,0.1,0,0.1,0v0.3h-1.9c0,0,0-0.1,0-0.1c0,0,0-0.1,0-0.1v-3.3
	c0,0,0-0.1,0-0.1c0,0,0,0,0-0.1H68.6L68.6,66.4z"/>
<path class="st0" d="M69.2,69.5c0.1,0.1,0.2,0.1,0.2,0.2c0.1,0.1,0.1,0.1,0.2,0.1c0.1,0,0.1,0.1,0.2,0.1c0.1,0,0.1,0,0.2,0
	c0.2,0,0.4-0.1,0.5-0.2c0.1-0.1,0.2-0.3,0.2-0.5c0-0.2-0.1-0.4-0.3-0.5c0,0-0.1-0.1-0.2-0.1c-0.1,0-0.2-0.1-0.4-0.2
	c-0.2-0.1-0.3-0.1-0.4-0.2c-0.1-0.1-0.2-0.2-0.3-0.2c-0.1-0.1-0.1-0.2-0.2-0.3c0-0.1,0-0.2,0-0.3c0-0.2,0-0.3,0.1-0.4
	c0.1-0.1,0.1-0.2,0.3-0.3c0.1-0.1,0.2-0.2,0.4-0.2c0.1,0,0.3-0.1,0.5-0.1c0.2,0,0.3,0,0.4,0c0.1,0,0.3,0.1,0.4,0.2L71,67
	c-0.2-0.1-0.3-0.2-0.4-0.2c-0.1,0-0.2-0.1-0.4-0.1c-0.2,0-0.3,0.1-0.4,0.2c-0.1,0.1-0.2,0.2-0.2,0.4c0,0.1,0,0.1,0,0.2
	c0,0.1,0.1,0.1,0.1,0.2c0.1,0.1,0.1,0.1,0.2,0.2c0.1,0.1,0.2,0.1,0.4,0.2c0.2,0.1,0.3,0.2,0.5,0.2c0.1,0.1,0.2,0.2,0.3,0.2
	c0.1,0.2,0.2,0.4,0.2,0.6c0,0.2,0,0.3-0.1,0.5c-0.1,0.2-0.2,0.3-0.3,0.4c-0.1,0.1-0.2,0.1-0.4,0.2c-0.1,0-0.3,0.1-0.5,0.1
	c-0.1,0-0.2,0-0.3,0c-0.1,0-0.2,0-0.2,0c-0.1,0-0.2-0.1-0.2-0.1c-0.1,0-0.2-0.1-0.3-0.1L69.2,69.5z"/>
<path class="st0" d="M72.5,69.9C72.5,70,72.5,70,72.5,69.9c0,0.1,0,0.1,0,0.2h-0.7c0-0.1,0-0.1,0-0.2v-3.3c0,0,0-0.1,0-0.1
	c0,0,0-0.1,0-0.1h0.7c0,0.1,0,0.1,0,0.2v1.5h1.6v-1.5c0-0.1,0-0.1,0-0.2h0.7c0,0,0,0.1,0,0.1c0,0,0,0.1,0,0.1v3.3c0,0,0,0.1,0,0.1
	c0,0,0,0.1,0,0.1h-0.7c0,0,0-0.1,0-0.1c0,0,0-0.1,0-0.1v-1.6h-1.6V69.9z"/>
<path class="st1" d="M41.7,55.6c0-0.3,0-1.7,0-2V35H10.4v18.6c0,0.3,0,1.7,0,2l0.1,0.8c0.9,7.9,7.5,14,15.6,14
	c8.1,0,14.7-6.1,15.6-14L41.7,55.6z"/>
<path class="st2" d="M37.2,52.9V37.5H14.8v16h0c0,0.1,0,0.2,0,0.3c0,6.2,5,11.3,11.2,11.3c6.2,0,11.2-5.1,11.2-11.3
	C37.3,53.5,37.3,53.2,37.2,52.9z"/>
<path class="st3" d="M34.5,53.4c0,4.7-3.8,8.4-8.4,8.4c-4.6,0-8.4-3.8-8.4-8.4c0-4.7,3.8-8.4,8.4-8.4C30.7,44.9,34.5,48.7,34.5,53.4
	z"/>
<path class="st4" d="M23.1,42.9c0,0-0.5,10-2.7,12.4c0,0,4.5,1.8,5.2,7.8h0.3V42.9H23.1z"/>
<path class="st4" d="M29.1,42.9c0,0,0.5,10,2.7,12.4c0,0-4.5,1.8-5.2,7.8h-0.3V42.9H29.1z"/>
<path class="st4" d="M21.7,39.5h8.6L30,41.4c0,0-0.7,1-0.7,1.4h-6.5c0,0-0.6-1.2-0.8-1.5L21.7,39.5z"/>
<line class="st4" x1="22" y1="41.4" x2="30" y2="41.4"/>
<path class="st5" d="M26.8,53.4c0,0.5-0.4,0.8-0.8,0.8c-0.4,0-0.8-0.4-0.8-0.8c0-0.5,0.4-0.8,0.8-0.8C26.5,52.6,26.8,52.9,26.8,53.4
	z"/>
<path class="st5" d="M12.3,38.2c-0.4,0-0.6-0.1-0.6-0.3c0-0.2,0.1-0.3,0.6-0.3h0.9v0.1h-0.9c-0.3,0-0.4,0.1-0.4,0.2
	c0,0.2,0.1,0.2,0.4,0.2h0.9v0.1H12.3z"/>
<path class="st5" d="M11.9,39.2c0.2,0,0.7,0,1.3,0v0.1h-1.4v-0.2c0.6-0.2,1.1-0.4,1.3-0.4v0c-0.2,0-0.6,0-1.3,0v-0.1h1.4v0.2
	C12.6,39,12.2,39.1,11.9,39.2L11.9,39.2z"/>
<rect x="11.8" y="39.8" class="st5" width="1.4" height="0.1"/>
<path class="st5" d="M11.9,40.7c0.2,0,0.4,0.1,0.6,0.1l0.7,0.2v0.1l-1.4-0.3v-0.1l1.4-0.3v0.1l-0.7,0.2
	C12.3,40.6,12.1,40.7,11.9,40.7L11.9,40.7z"/>
<polygon class="st5" points="12.6,42 12.5,42 12.5,41.6 11.9,41.6 11.9,42.1 11.8,42.1 11.8,41.5 13.2,41.5 13.2,42.1 13.1,42.1 
	13.1,41.6 12.6,41.6 12.6,42 "/>
<path class="st5" d="M11.8,43.4v-0.1l0.6-0.3v-0.2h-0.6v-0.1h1.4v0.3c0,0.2-0.1,0.4-0.4,0.4c-0.2,0-0.4-0.1-0.4-0.3L11.8,43.4z
	 M12.5,43c0,0.2,0.1,0.3,0.3,0.3c0.2,0,0.3-0.1,0.3-0.3v-0.2h-0.6V43L12.5,43z"/>
<path class="st5" d="M13,44.3c0.1,0,0.2-0.1,0.2-0.2c0-0.1,0-0.1-0.1-0.2c0,0-0.1-0.1-0.2-0.1c-0.1,0-0.1,0-0.2,0.1
	c0,0-0.1,0.1-0.1,0.2c-0.1,0.1-0.1,0.2-0.2,0.2c-0.1,0-0.1,0.1-0.3,0.1c-0.1,0-0.2,0-0.3-0.1c-0.1-0.1-0.1-0.1-0.1-0.3
	c0-0.2,0.1-0.3,0.3-0.4l0,0.1c-0.1,0-0.2,0.1-0.2,0.3c0,0.1,0,0.1,0.1,0.2c0,0,0.1,0.1,0.2,0.1c0.1,0,0.2,0,0.2-0.1
	c0,0,0.1-0.1,0.1-0.2c0.1-0.1,0.1-0.2,0.1-0.2c0.1,0,0.1-0.1,0.3-0.1c0.1,0,0.2,0,0.2,0.1c0.1,0.1,0.1,0.1,0.1,0.3
	c0,0.2-0.1,0.3-0.3,0.3L13,44.3z"/>
<rect x="11.8" y="44.9" class="st5" width="1.4" height="0.1"/>
<polygon class="st5" points="13.1,46.1 13.1,45.8 11.8,45.8 11.8,45.6 13.1,45.6 13.1,45.3 13.2,45.3 13.2,46.1 "/>
<path class="st5" d="M12.4,46.8h-0.6v-0.1h0.6l0.8-0.3v0.1l-0.4,0.1c-0.1,0.1-0.2,0.1-0.4,0.1v0c0.1,0,0.2,0.1,0.4,0.1l0.4,0.1v0.1
	L12.4,46.8z"/>
<path class="st5" d="M12.5,48c0.5,0,0.7,0.2,0.7,0.4c0,0.2-0.2,0.4-0.7,0.4c-0.5,0-0.7-0.2-0.7-0.4C11.8,48.2,12,48,12.5,48L12.5,48
	z M13.1,48.5c0-0.2-0.2-0.3-0.6-0.3c-0.4,0-0.6,0.2-0.6,0.3c0,0.2,0.2,0.3,0.6,0.3C13,48.8,13.1,48.6,13.1,48.5L13.1,48.5z"/>
<polygon class="st5" points="11.8,49.3 13.2,49.3 13.2,49.9 13.1,49.9 13.1,49.4 12.6,49.4 12.6,49.8 12.5,49.8 12.5,49.4 
	11.8,49.4 "/>
<polygon class="st5" points="11.8,51.4 11.8,50.8 13.2,50.8 13.2,51 11.9,51 11.9,51.4 "/>
<rect x="11.8" y="51.8" class="st5" width="1.4" height="0.1"/>
<path class="st5" d="M12.5,52.7c0,0.2-0.1,0.3-0.4,0.3c-0.3,0-0.4-0.2-0.4-0.4v-0.3h1.4v0.3c0,0.3-0.1,0.4-0.3,0.4
	C12.7,53,12.6,52.9,12.5,52.7L12.5,52.7z M11.9,52.4v0.2c0,0.2,0.1,0.3,0.3,0.3c0.2,0,0.3-0.1,0.3-0.3v-0.2L11.9,52.4L11.9,52.4z
	 M12.6,52.4v0.2c0,0.2,0.1,0.3,0.3,0.3c0.2,0,0.2-0.1,0.2-0.3v-0.2H12.6z"/>
<polygon class="st5" points="12.6,53.9 12.5,53.9 12.5,53.5 11.9,53.5 11.9,54 11.8,54 11.8,53.4 13.2,53.4 13.2,54 13.1,54 
	13.1,53.5 12.6,53.5 12.6,53.9 "/>
<path class="st5" d="M11.8,55.2v-0.1l0.6-0.3v-0.2h-0.6v-0.1h1.4v0.3c0,0.2-0.1,0.4-0.4,0.4c-0.2,0-0.4-0.1-0.4-0.3L11.8,55.2z
	 M12.5,54.8c0,0.2,0.1,0.3,0.3,0.3c0.2,0,0.3-0.1,0.3-0.3v-0.2h-0.6V54.8L12.5,54.8z"/>
<path class="st5" d="M12.2,55.7l-0.4-0.1v-0.1l1.4,0.3v0.1l-1.4,0.3v-0.1l0.4-0.1V55.7z M12.7,56c0.1,0,0.2-0.1,0.4-0.1v0
	c-0.1,0-0.3-0.1-0.4-0.1l-0.4-0.1V56L12.7,56z"/>
<polygon class="st5" points="12,57.4 11.9,56.9 13.2,56.6 13.3,56.7 12,57 12.1,57.4 "/>
<path class="st5" d="M12.8,58.5l-0.5,0.1l0-0.1l1.4-0.1l0,0.1l-1.2,0.8l0-0.1l0.4-0.2L12.8,58.5z M13.3,58.6
	c0.1-0.1,0.2-0.1,0.3-0.2v0c-0.1,0-0.3,0-0.4,0.1l-0.4,0l0.1,0.3L13.3,58.6z"/>
<path class="st5" d="M13,60.4L13,60.2l0.4-0.5l-0.1-0.2l-0.5,0.2l0-0.1l1.3-0.6l0.1,0.3c0.1,0.2,0.1,0.4-0.2,0.5
	c-0.2,0.1-0.4,0-0.5-0.1L13,60.4z M13.5,59.7c0.1,0.2,0.2,0.2,0.4,0.1c0.2-0.1,0.3-0.2,0.2-0.4l-0.1-0.2l-0.6,0.2L13.5,59.7z"/>
<polygon class="st5" points="14.7,60.7 14.5,60.4 13.4,61 13.3,60.9 14.5,60.3 14.3,60.1 14.4,60 14.8,60.6 "/>
<path class="st5" d="M15,61.5c0.1-0.1,0.1-0.2,0-0.3c0-0.1-0.1-0.1-0.1-0.1c-0.1,0-0.1,0-0.2,0c-0.1,0-0.1,0.1-0.1,0.1
	c0,0.1,0,0.1,0,0.3c0,0.1,0,0.2,0,0.3c0,0.1-0.1,0.1-0.2,0.2c-0.1,0.1-0.2,0.1-0.3,0.1c-0.1,0-0.2-0.1-0.3-0.2
	c-0.1-0.2-0.1-0.3,0.1-0.4l0.1,0.1c-0.1,0.1-0.1,0.2,0,0.3c0,0.1,0.1,0.1,0.2,0.1c0.1,0,0.1,0,0.2,0c0.1-0.1,0.1-0.1,0.1-0.2
	c0-0.1,0-0.1,0-0.3c0-0.1,0-0.2,0-0.3c0-0.1,0.1-0.1,0.2-0.2c0.1,0,0.2-0.1,0.2-0.1c0.1,0,0.2,0.1,0.2,0.2
	C15.2,61.3,15.1,61.5,15,61.5L15,61.5z"/>
<path class="st5" d="M15.5,62.9c0.1,0.2,0.1,0.3-0.1,0.4c-0.3,0.2-0.4,0.1-0.5-0.1l-0.2-0.2l1.1-0.9l0.2,0.2
	c0.2,0.2,0.1,0.4-0.1,0.5C15.7,63,15.6,63,15.5,62.9L15.5,62.9z M14.8,63.1l0.1,0.1c0.1,0.1,0.2,0.2,0.4,0.1
	c0.2-0.1,0.2-0.3,0.1-0.4l-0.1-0.1L14.8,63.1z M15.3,62.7l0.1,0.1c0.1,0.2,0.2,0.1,0.4,0c0.1-0.1,0.2-0.2,0-0.4l-0.1-0.1L15.3,62.7z
	"/>
<path class="st5" d="M15.7,63.7L15.3,64l-0.1-0.1l1.3-0.7l0.1,0.1l-0.8,1.2l-0.1-0.1L16,64L15.7,63.7z M16.3,63.6
	c0.1-0.1,0.1-0.2,0.2-0.3l0,0c-0.1,0.1-0.2,0.1-0.3,0.2l-0.3,0.2l0.2,0.2L16.3,63.6z"/>
<path class="st5" d="M16.6,65.1c0.1-0.2,0.4-0.5,0.9-0.9l0.1,0.1l-1,1l-0.1-0.1c0.3-0.6,0.4-1,0.6-1.2h0c-0.1,0.2-0.4,0.5-0.9,0.9
	l-0.1-0.1l1-1l0.1,0.1C16.9,64.4,16.7,64.8,16.6,65.1L16.6,65.1L16.6,65.1z"/>
<path class="st5" d="M17.7,66c-0.1,0-0.3,0-0.4-0.1c-0.2-0.2-0.2-0.5,0.1-0.9c0.3-0.4,0.6-0.4,0.8-0.3c0.1,0.1,0.2,0.3,0.1,0.5
	l-0.1,0c0-0.2,0-0.3-0.1-0.3c-0.1-0.1-0.4-0.1-0.7,0.3c-0.2,0.3-0.3,0.6-0.1,0.7C17.4,65.8,17.5,65.9,17.7,66l0.2-0.4l-0.2-0.1
	l0.1-0.1l0.3,0.2L17.7,66z"/>
<polygon class="st5" points="18.4,66.6 18,66.3 18.7,65.2 18.8,65.2 18.1,66.3 18.5,66.6 "/>
<path class="st5" d="M19.1,66.5l-0.3,0.3l-0.1-0.1l1-1.1l0.1,0.1l-0.4,1.4l-0.1-0.1l0.1-0.4L19.1,66.5z M19.6,66.2
	c0-0.1,0.1-0.2,0.1-0.4l0,0c-0.1,0.1-0.2,0.2-0.3,0.3l-0.3,0.3l0.3,0.2L19.6,66.2z"/>
<path class="st5" d="M19.7,67.4l0.6-1.3l0.3,0.1c0.3,0.1,0.3,0.4,0.1,0.8c-0.2,0.4-0.4,0.6-0.7,0.5L19.7,67.4z M20,67.4
	c0.2,0.1,0.4,0,0.6-0.4c0.2-0.3,0.2-0.6-0.1-0.7l-0.2-0.1l-0.5,1.1L20,67.4z"/>
<polygon class="st5" points="21.6,67.3 21.5,67.4 21.2,67.3 21,67.8 21.4,68 21.4,68.1 20.8,67.9 21.3,66.5 21.9,66.8 21.8,66.9 
	21.4,66.7 21.2,67.2 "/>
<path class="st5" d="M22.7,67.3c0-0.1,0-0.2-0.2-0.2c-0.1,0-0.1,0-0.2,0c0,0-0.1,0.1-0.1,0.1c0,0.1,0,0.1,0,0.2
	c0,0.1,0.1,0.1,0.2,0.2c0.1,0.1,0.1,0.1,0.2,0.2c0,0.1,0,0.2,0,0.3c0,0.1-0.1,0.2-0.2,0.2c-0.1,0.1-0.2,0.1-0.3,0.1
	c-0.2-0.1-0.3-0.2-0.3-0.4l0.1,0c0,0.1,0.1,0.2,0.2,0.3c0.1,0,0.2,0,0.2,0c0.1,0,0.1-0.1,0.1-0.2c0-0.1,0-0.2,0-0.2
	c0,0-0.1-0.1-0.2-0.2c-0.1-0.1-0.1-0.1-0.2-0.2c0-0.1,0-0.2,0-0.3c0-0.1,0.1-0.2,0.1-0.2c0.1,0,0.2-0.1,0.3,0c0.2,0,0.2,0.2,0.2,0.3
	L22.7,67.3z"/>
<polygon class="st5" points="23.6,68.7 23.5,68.7 23.6,68 23.2,67.9 23,68.6 22.9,68.5 23.2,67.2 23.3,67.2 23.2,67.8 23.6,67.9 
	23.8,67.3 23.9,67.3 "/>
<path class="st5" d="M29.1,67.7l-0.6,0.1c0,0,0,0,0,0c0,0,0.1,0,0.1,0c0.1,0,0.1,0,0.2,0.1c0.1,0.1,0.1,0.1,0.1,0.2
	c0,0.1,0,0.2-0.2,0.3c-0.1,0-0.1,0.1-0.1,0.1c0,0,0,0,0.1,0c0.1,0,0.2,0.1,0.2,0.1l0.2,0.1l0.1,0.1c-0.1-0.1-0.3-0.2-0.5-0.2
	c-0.2,0-0.3-0.1-0.5-0.1l-0.2-0.2c0.1,0,0.2,0,0.3,0c0,0,0.1,0,0.1,0c0.1,0,0.1-0.1,0.1-0.1c0,0,0.1-0.1,0.1-0.1c0,0,0,0,0-0.1
	c0-0.1-0.1-0.1-0.1-0.1c0,0,0,0-0.1,0c0,0,0,0,0,0c0,0,0,0.1-0.1,0.2c0,0-0.1,0-0.1,0.1c0,0-0.1,0-0.1,0c0,0,0,0-0.1-0.1
	c0,0,0-0.1,0-0.1c0,0,0-0.1,0.1-0.1c0,0,0,0,0.1-0.1c0,0,0,0-0.1-0.1L28,67.9l-0.1-0.1l0.7-0.2c0.1,0,0.1,0,0.1,0c0,0,0,0,0.1-0.1
	c0,0,0,0,0,0c0,0,0,0-0.1,0c0,0-0.1,0-0.1,0c-0.1,0-0.1,0-0.2,0.1c0,0-0.1,0-0.1,0c-0.1,0-0.2,0-0.3,0c-0.1,0-0.1-0.1-0.1-0.1
	c0,0,0-0.1,0-0.1c0,0,0,0,0,0c0,0,0,0,0,0c0,0,0,0.1,0,0.1c0,0,0,0.1,0.1,0.1c0,0,0.1,0,0.1,0c0,0,0.1,0,0.1,0c0.1,0,0.1,0,0.2-0.1
	c0,0,0.1,0,0.1,0c0.1,0,0.1,0,0.2,0c0.1,0,0.2,0.1,0.2,0.2l0.1,0L29.1,67.7z"/>
<path class="st5" d="M30.3,67.3l-0.6,0.2l0.1,0.3c0,0,0,0,0,0c0,0,0,0,0.1,0c0,0,0,0,0.1-0.1c0-0.1,0.1-0.1,0.1-0.1
	c0.1,0,0.1,0,0.2,0.1c0.1,0.1,0.1,0.1,0.1,0.2c0,0.2,0,0.3-0.1,0.4c-0.1,0.1-0.1,0.1-0.3,0.1c-0.1,0-0.2,0-0.3,0
	c0,0-0.1-0.1-0.2-0.1c0,0-0.1-0.1-0.1-0.1c0,0-0.1-0.1-0.1-0.2l-0.1-0.1l0.1,0c0,0.1,0.1,0.2,0.2,0.3c0,0,0.1,0.1,0.1,0.1l0.1,0.1
	c0.1,0,0.2,0,0.2,0c0.1,0,0.1,0,0.2-0.1c0,0,0.1-0.1,0.1-0.1c0-0.1,0-0.1,0-0.2c0,0,0-0.1-0.1-0.1c0,0,0,0.1-0.1,0.1
	C30.1,67.9,30,68,30,68c0,0-0.1,0-0.1,0c0,0-0.1-0.1-0.1-0.1c0,0,0,0,0,0l-0.1-0.4l-0.5,0.1L29,67.6l0.9-0.3c0,0,0,0,0,0
	c0,0,0,0,0,0c0,0,0,0-0.1,0c0,0-0.1,0-0.1,0c-0.1,0-0.1,0-0.2,0.1c0,0-0.1,0-0.1,0c-0.1,0-0.2,0-0.2,0c-0.1,0-0.1-0.1-0.2-0.1
	c0,0,0,0,0-0.1c0,0,0-0.1,0-0.1l0.1,0c0,0,0,0.1,0,0.1c0,0,0,0.1,0.1,0.1c0,0,0.1,0,0.1,0c0,0,0,0,0.2-0.1l0.2-0.1
	c0.1,0,0.2,0,0.3,0c0.1,0,0.1,0.1,0.2,0.2l0.1,0L30.3,67.3z"/>
<path class="st5" d="M31.5,66.6l-0.2-0.1c-0.1,0-0.3,0-0.4,0c-0.1,0-0.1,0.1-0.2,0.1l0,0.1c0,0,0,0,0,0.1c0,0.1,0,0.1,0,0.1l0.1,0.1
	l0.1,0l0.2,0l-0.2,0.1l0.4,1l-0.1,0l-0.4-0.9l-0.2,0.1l-0.1-0.1l0.3-0.1l-0.1,0c0,0,0,0,0,0c0,0,0-0.1,0-0.1c0-0.1,0-0.1,0-0.1
	c0-0.1,0.1-0.1,0.1-0.2c0,0,0.1-0.1,0.1-0.1c0.1-0.1,0.3-0.1,0.5,0C31.2,66.5,31.3,66.5,31.5,66.6L31.5,66.6z"/>
<path class="st5" d="M31.9,66.5l-0.2,0.1l0.5,1l-0.1,0c0-0.1-0.1-0.1-0.1-0.2c-0.1-0.1-0.1-0.1-0.2-0.2c0,0-0.1-0.1-0.2-0.1
	c-0.1,0-0.1,0-0.2,0c0,0,0,0,0,0l0.1,0c0,0,0.1,0,0.1,0.1c0,0,0,0,0,0.1c0,0,0,0.1-0.1,0.1c-0.1,0.1-0.2,0-0.3-0.1
	c0-0.1,0-0.1,0-0.2c0-0.1,0.1-0.1,0.1-0.2c0.1-0.1,0.3,0,0.4,0.1c0.1,0,0.1,0.1,0.1,0.1l-0.2-0.5L30.9,67l-0.1,0l1-0.5L31.9,66.5z"
	/>
<path class="st5" d="M33.1,65.9l-1,0.6l-0.2,0l1-0.6L33.1,65.9z M33.2,66.3c0.1,0.1,0.1,0.2,0,0.4c0,0,0,0.1,0,0.1
	c0,0,0,0.1-0.1,0.1c0,0-0.1,0.1-0.1,0.1C33,66.9,32.9,67,32.8,67c0,0-0.1,0-0.2,0c-0.1,0-0.2-0.1-0.3-0.2c0,0-0.1-0.1-0.3-0.2l0.1,0
	c0.2,0.1,0.3,0.2,0.5,0.2c0.1,0,0.2,0,0.4-0.1c0.1-0.1,0.2-0.2,0.1-0.3C33.2,66.4,33.2,66.4,33.2,66.3c-0.1,0-0.1,0-0.1,0
	c0,0-0.1,0-0.1,0c0,0,0,0,0,0c0,0.1,0,0.1,0,0.1c0,0,0,0.1-0.1,0.1c0,0,0,0-0.1,0.1c-0.1,0.1-0.2,0.1-0.2,0.1c0,0-0.1,0-0.1-0.1
	c0,0,0-0.1,0-0.1c0,0,0.1-0.1,0.1-0.1c0,0,0.1,0,0.1,0c0,0,0.1,0,0.1,0c0,0,0,0.1,0,0.1c0,0,0,0,0,0c0,0,0.1-0.1,0.1-0.2
	c0-0.1,0-0.1,0-0.2v0c0,0,0.1,0,0.2,0C33.2,66.2,33.2,66.2,33.2,66.3z"/>
<path class="st5" d="M33.5,65.5l-0.1,0.1l0.6,0.9l-0.2,0l-0.5-0.6c0,0,0,0,0,0c0,0,0,0,0,0c-0.1,0-0.1,0-0.2,0c0,0,0,0,0,0l-0.2,0
	c0,0,0.1-0.1,0.1-0.1c0.1,0,0.1,0,0.2,0c0,0,0.1,0,0.1,0.1c0,0-0.1-0.1-0.2-0.2c0-0.1-0.1-0.1-0.1-0.2h0.1c0,0,0,0,0,0
	c0,0,0,0,0.1,0c0,0,0,0,0.1,0l0.1-0.1L33.5,65.5z"/>
<path class="st5" d="M34.4,64.5l-0.2,0c-0.1,0-0.3,0.1-0.4,0.2c-0.1,0.1-0.1,0.1-0.1,0.2l0,0.1c0,0,0,0,0,0.1c0,0.1,0,0.1,0,0.2
	l0.1,0l0.1-0.1l0.2,0l-0.2,0.1l0.7,0.8l-0.2,0l-0.6-0.7l-0.1,0.1l-0.1,0l0.2-0.2l-0.1,0c0,0,0,0,0,0c0,0,0-0.1,0-0.1
	c0-0.1,0-0.1,0-0.1c0-0.1,0-0.1,0.1-0.2c0,0,0.1-0.1,0.1-0.1c0.1-0.1,0.3-0.2,0.5-0.2C34.1,64.5,34.2,64.5,34.4,64.5L34.4,64.5z"/>
<path class="st5" d="M34.9,64.3l-0.2,0.1l0.7,0.8l-0.2,0L35,64.8c0,0-0.1,0-0.1,0c0,0-0.1,0-0.1,0c0,0-0.1,0.1,0,0.1
	c0,0.2,0,0.3,0,0.4c0,0,0,0,0,0c0,0-0.1,0.1-0.1,0.1c0,0-0.1,0-0.2,0c0,0-0.1,0-0.1,0l0-0.1c0,0,0,0,0.1,0c0,0,0.1,0,0.1,0
	c0,0,0,0,0.1,0c0,0,0-0.1,0-0.1l0-0.2c0,0-0.1-0.1-0.1-0.1c-0.1,0-0.2,0-0.2,0c-0.1,0-0.1,0.1-0.1,0.1c0,0-0.1,0-0.1,0l0,0h-0.1
	l0.9-0.8L34.9,64.3L34.9,64.3z M35,64.8l-0.2-0.3l-0.4,0.4l0.1,0c0.1,0,0.1,0,0.2,0.1c0,0,0,0,0,0c0,0,0,0,0-0.1c0,0,0-0.1,0-0.1
	c0,0,0,0,0.1,0C34.8,64.7,34.9,64.7,35,64.8z"/>
<polygon class="st5" points="34.6,63.7 34.6,64.3 34.4,64.5 34.6,63.7 "/>
<path class="st5" d="M35.7,63.1l-0.2,0c-0.1,0-0.3,0.1-0.4,0.2c-0.1,0.1-0.1,0.1-0.1,0.2l0,0.1c0,0,0,0,0,0.1c0,0.1,0,0.1,0,0.1
	l0.1,0l0.1-0.1l0.2,0l-0.1,0.1l0.8,0.7l-0.1,0L35.2,64L35,64.2l-0.2,0l0.2-0.2L35,64c0,0,0,0,0,0c0,0,0,0-0.1-0.1c0-0.1,0-0.1,0-0.1
	c0-0.1,0-0.1,0-0.2c0,0,0-0.1,0.1-0.1c0.1-0.1,0.2-0.2,0.4-0.2C35.4,63.1,35.5,63.1,35.7,63.1L35.7,63.1z"/>
<path class="st5" d="M36.1,63l-0.5,0.6l0.5,0.4c0,0,0.1,0,0.1,0c0-0.1,0.1-0.2,0-0.3c0-0.1,0-0.1-0.1-0.1c0,0,0,0,0,0
	c0,0-0.1,0-0.1,0.1c0,0-0.1,0-0.1,0c0,0,0,0,0,0c0-0.1,0-0.1,0-0.2c0,0,0.1-0.1,0.2-0.1c0,0,0.1,0,0.1,0c0.1,0.1,0.1,0.2,0.1,0.3
	c0,0.2,0,0.3-0.1,0.4c0,0-0.1,0.1-0.1,0.1c-0.1,0-0.1,0-0.2,0c0,0-0.1,0-0.1-0.1l-0.4-0.4l-0.1,0.1l-0.1,0l0.6-0.7c0,0,0,0,0,0
	c0,0-0.1,0-0.1,0c0,0-0.1,0-0.1,0.1c0,0-0.1,0.1-0.1,0.2c0,0,0,0,0,0.1c-0.1,0.1-0.2,0.1-0.2,0.2c-0.1,0-0.1,0-0.2,0
	c0,0-0.1,0-0.1-0.1c0,0,0,0,0,0c0,0,0,0,0,0c0,0,0,0,0,0c0,0,0,0,0,0.1c0,0,0.1,0,0.1,0c0,0,0,0,0.1,0c0-0.1,0.1-0.1,0.1-0.1
	c0,0,0,0,0.1-0.1c0,0,0.1-0.1,0.1-0.1c0.1-0.1,0.1-0.1,0.2-0.1c0.1,0,0.2,0,0.3,0l0,0L36.1,63z"/>
<path class="st5" d="M37.4,61.1l-0.1,0.2l0.9,0.6l-0.1,0c0,0-0.1,0-0.1,0c0,0-0.1,0-0.2,0c0,0-0.1,0-0.2,0c0,0.1,0,0.2,0,0.3
	c0,0,0,0.1-0.1,0.1c-0.1,0.1-0.1,0.1-0.2,0.1c-0.1,0-0.1,0-0.2,0c-0.1,0-0.2,0-0.3,0c-0.1,0-0.2,0-0.2,0l0.1,0l0.2,0
	c0.1,0,0.1,0,0.2,0c0.1,0,0.1,0,0.2-0.1c0.1,0,0.1-0.1,0.2-0.2c0.1-0.1,0-0.2,0-0.3c0,0-0.1,0-0.1,0c-0.1,0-0.1,0-0.1,0
	c0,0,0,0,0,0.1c0,0,0,0.1,0,0.1c0,0-0.1,0.1-0.1,0.1c0,0-0.1,0-0.1,0c-0.1,0-0.1-0.1-0.1-0.1c0,0,0-0.1,0-0.1
	c0.1-0.1,0.2-0.2,0.3-0.2c0.1,0,0.2,0,0.3,0.1h0.2l-0.6-0.4l-0.6,0.9l-0.2,0l0.7-1.2L37.4,61.1z"/>
<path class="st5" d="M37.9,60.1l-0.1,0.2l0.9,0.5l-0.1,0c-0.2,0-0.3,0-0.4,0.1C38.1,60.9,38,61,38,61.1l-0.2,0c0-0.1,0-0.2,0-0.3
	c0-0.2,0-0.3,0.1-0.4l-0.1,0L37.4,61l-0.1,0l0.5-0.9L37.9,60.1z M38.4,60.7l-0.5-0.3c0,0.1,0,0.3,0,0.5
	C38.1,60.8,38.2,60.7,38.4,60.7z"/>
<path class="st5" d="M38.5,58.1l-0.2,0.1c-0.1,0.1-0.2,0.2-0.3,0.3c0,0.1,0,0.1,0,0.2l0,0.1c0,0,0,0,0,0.1c0,0.1,0.1,0.1,0.1,0.1
	l0.1,0l0-0.1l0.1-0.1L38.3,59l1,0.4l-0.1,0.1l-0.9-0.4l-0.1,0.2l-0.1,0.1l0.1-0.3l-0.1,0.1c0,0,0,0,0,0c0,0-0.1,0-0.1-0.1
	c0-0.1-0.1-0.1-0.1-0.1c0-0.1,0-0.1,0-0.2c0,0,0-0.1,0-0.1c0.1-0.1,0.2-0.3,0.3-0.4C38.2,58.2,38.3,58.1,38.5,58.1L38.5,58.1
	L38.5,58.1z"/>
<path class="st5" d="M38.8,57.6l-0.1,0.2l1,0.3l-0.1,0.1L39.1,58c0,0-0.1,0-0.1,0c0,0-0.1,0.1-0.1,0.1c0,0,0,0,0,0.1c0,0,0,0,0.1,0
	l0.1,0v0.1c0,0,0,0-0.1,0c0,0-0.1,0-0.1,0c0,0-0.1,0.1-0.1,0.1c0,0,0,0.1,0,0.1c0,0,0,0.1,0.1,0.1c0,0,0,0,0,0c0.1,0,0.1,0,0.2-0.1
	c0,0-0.1,0-0.1,0c0,0,0,0-0.1-0.1c0,0,0-0.1,0-0.1c0-0.1,0.1-0.1,0.1-0.1c0.1,0,0.1,0,0.1,0c0,0.1,0.1,0.1,0,0.2
	c0,0.1-0.1,0.1-0.1,0.2c-0.1,0.1-0.2,0.1-0.3,0.1c-0.1,0-0.1-0.1-0.2-0.1c0-0.1-0.1-0.1,0-0.2c0-0.1,0.1-0.1,0.1-0.2l0.1,0
	c0,0,0,0-0.1-0.1c0,0,0-0.1,0-0.1c0,0,0-0.1,0.1-0.1c0,0,0,0,0,0c0,0,0.1,0,0.1,0l-0.3-0.1l-0.3,0.9l-0.1,0.1l0.4-1.1L38.8,57.6z"/>
<path class="st5" d="M38.8,56.4v0.2h1.1l-0.1,0.1c-0.1,0.1-0.3,0.2-0.3,0.3c0,0.1-0.1,0.2-0.1,0.3l-0.2,0.1
	c-0.1-0.1-0.1-0.2-0.2-0.3c-0.1-0.1-0.1-0.3-0.2-0.4h-0.1v0.7l-0.1,0.1v-1.1L38.8,56.4z M39.6,56.7h-0.5c0,0.1,0.1,0.3,0.2,0.4
	C39.3,57,39.4,56.8,39.6,56.7z"/>
<path class="st5" d="M38.8,55.8V56h1.1l-0.1,0.1H39c0,0-0.1,0-0.1,0c0,0,0,0-0.1,0c-0.1,0-0.1,0.1-0.1,0.2c0,0,0,0,0,0l-0.1,0.1
	c0-0.1,0-0.1,0-0.2c0-0.1,0.1-0.1,0.1-0.2c0,0,0.1,0,0.1-0.1c0,0-0.1,0-0.2,0c-0.1,0-0.1,0-0.2,0l0,0c0,0,0,0,0.1,0c0,0,0,0,0.1,0
	c0,0,0,0,0,0v-0.1L38.8,55.8z"/>
<path class="st5" d="M38.8,55c0,0.1,0.1,0.2,0.1,0.3c0.1,0.1,0.1,0.1,0.2,0.2c0.1,0,0.1,0,0.1,0c0.1,0,0.1,0,0.2,0
	c0.1,0,0.2-0.1,0.3-0.2c0,0,0,0,0-0.1c0,0,0,0,0,0c0,0,0,0,0,0c0,0,0,0-0.1,0c-0.1,0-0.1,0-0.1-0.1c0,0,0,0,0-0.1c0,0,0,0,0-0.1
	c0,0,0.1-0.1,0.1-0.1c0,0,0.1,0,0.1,0.1c0,0,0.1,0.1,0.1,0.1c0,0.1,0,0.1-0.1,0.2c-0.1,0.1-0.3,0.2-0.4,0.2c0,0-0.1,0-0.1,0
	c-0.1,0-0.3-0.1-0.4-0.2v0.4l-0.1,0.1v-0.7L38.8,55z"/>
<path class="st5" d="M38.8,53.9v0.2h1l0,0l-0.2,0.1c-0.1,0.1-0.1,0.1-0.2,0.2c0,0.1-0.1,0.2-0.1,0.3l-0.2,0.1
	c-0.1-0.1-0.2-0.3-0.2-0.5c0-0.1-0.1-0.1-0.1-0.2h-0.1v0.7L38.7,55v-1L38.8,53.9z M39.6,54.2H39c0,0.1,0.1,0.2,0.1,0.3
	c0,0,0.1,0.1,0.1,0.2C39.3,54.4,39.4,54.3,39.6,54.2z M39.8,54.5C39.8,54.5,39.8,54.6,39.8,54.5c-0.1,0.1-0.1,0.1-0.1,0.1
	c0,0-0.1,0-0.1,0c0,0,0,0,0-0.1c0,0,0-0.1,0-0.1c0,0,0,0,0.1,0C39.7,54.4,39.7,54.4,39.8,54.5C39.8,54.4,39.8,54.5,39.8,54.5z"/>
<path class="st5" d="M38.8,52.6v0.2h1.1l-0.1,0.1h-0.6c0,0-0.1,0-0.1,0.1c0,0,0,0.1,0,0.1c0,0,0,0,0,0.1c0,0,0,0,0.1,0l0,0l0,0.1
	c0,0,0,0,0,0c0,0-0.1,0-0.1,0.1c0,0-0.1,0.1-0.1,0.2c0,0.1,0,0.1,0,0.1c0,0,0.1,0.1,0.1,0.1c0,0,0,0,0,0c0.1,0,0.1,0,0.1-0.2
	c0,0,0,0-0.1,0c0,0-0.1,0-0.1,0c0,0,0-0.1,0-0.1c0-0.1,0-0.1,0.1-0.1c0,0,0.1,0,0.1,0c0.1,0,0.1,0.1,0.1,0.2c0,0.1,0,0.1,0,0.2
	c-0.1,0.1-0.1,0.2-0.2,0.2c-0.1,0-0.1,0-0.2-0.1c-0.1,0-0.1-0.1-0.1-0.2c0-0.1,0-0.2,0.1-0.2l0,0c0,0,0,0-0.1,0c0,0,0-0.1,0-0.1
	c0,0,0-0.1,0-0.1c0,0,0,0,0,0c0,0,0.1,0,0.1-0.1h-0.3v0.9l-0.1,0.1v-1.2L38.8,52.6z"/>
<path class="st5" d="M38.8,49.4v0.2h1.1l-0.1,0c0,0-0.1,0-0.1,0.1c0,0-0.1,0-0.1,0.1c0,0-0.1,0-0.1,0.1c0.1,0.1,0.2,0.2,0.2,0.3
	c0,0,0,0.1,0,0.1c0,0.1-0.1,0.1-0.1,0.2c0,0-0.1,0.1-0.1,0.1c-0.1,0-0.1,0.1-0.2,0.1c-0.1,0-0.2,0.1-0.2,0.1l0-0.1l0.2-0.1
	c0.1,0,0.1-0.1,0.2-0.1c0.1-0.1,0.1-0.1,0.1-0.2c0-0.1,0.1-0.1,0.1-0.2c0-0.1-0.1-0.2-0.2-0.2c0,0-0.1,0-0.1,0
	c-0.1,0-0.1,0.1-0.1,0.1c0,0,0,0,0,0c0,0,0.1,0.1,0.1,0.1c0,0.1,0,0.1,0,0.1c0,0-0.1,0.1-0.1,0.1c-0.1,0-0.1,0-0.1-0.1
	c0,0,0-0.1,0-0.1c0-0.1,0.1-0.2,0.1-0.3c0.1-0.1,0.2-0.1,0.3-0.1l0.2-0.1h-0.7v1.1l-0.1,0.1v-1.4L38.8,49.4z"/>
<path class="st5" d="M38.8,48.8V49h1.1l-0.1,0.1H39c0,0-0.1,0-0.1,0c0,0,0,0-0.1,0c-0.1,0-0.1,0.1-0.1,0.2c0,0,0,0,0,0l-0.1,0.1
	c0-0.1,0-0.1,0-0.2c0-0.1,0.1-0.1,0.1-0.2c0,0,0.1,0,0.1-0.1c0,0-0.1,0-0.2,0c-0.1,0-0.1,0-0.2,0l0,0c0,0,0,0,0.1,0c0,0,0,0,0.1,0
	c0,0,0,0,0,0v-0.1L38.8,48.8z"/>
<path class="st5" d="M38.8,47.7v0.8h0.7c0,0,0.1,0,0.1-0.1c0-0.1-0.1-0.2-0.2-0.3c0,0-0.1-0.1-0.1-0.1c0,0,0,0,0,0c0,0,0,0.1,0,0.1
	c0,0,0,0-0.1,0c0,0,0,0,0,0c-0.1,0-0.1-0.1-0.1-0.1c0-0.1,0-0.1,0.1-0.2c0,0,0.1,0,0.1,0c0.1,0,0.2,0,0.3,0.1
	c0.1,0.1,0.2,0.3,0.2,0.3c0,0.1,0,0.1,0,0.1c0,0.1-0.1,0.1-0.2,0.1c0,0-0.1,0-0.1,0h-0.6v0.2l-0.1,0.1V48c0,0-0.1,0-0.1,0
	c0,0-0.1,0-0.1,0.1c0,0,0,0.1,0,0.1c0,0.1,0,0.1,0,0.2c0,0,0,0.1,0,0.1c0,0.1,0,0.2-0.1,0.3c0,0.1-0.1,0.1-0.1,0.1c0,0-0.1,0-0.1,0
	c0,0,0,0,0,0c0,0,0,0,0,0c0,0,0,0,0,0c0,0,0,0,0.1,0c0.1,0,0.1,0,0.1-0.1c0,0,0-0.1,0-0.1c0-0.1,0-0.1,0-0.1c0,0,0,0,0-0.1
	c0,0,0-0.1,0-0.1c0-0.1,0-0.1,0-0.2c0.1-0.1,0.1-0.2,0.2-0.1l0-0.1L38.8,47.7z"/>
<polygon class="st5" points="38.2,47.4 38.6,47.9 38.6,48.2 38.2,47.5 "/>
<path class="st5" d="M38.8,46.2v0.2h1.1l-0.1,0.1h-0.5c0,0-0.1,0-0.1,0.1c0,0,0,0.1,0,0.1c0,0,0,0.1,0.1,0.1
	c0.2,0.1,0.3,0.2,0.3,0.2c0,0,0,0,0,0c0,0,0,0.1,0,0.1c0,0,0,0.1-0.1,0.1c0,0-0.1,0-0.1,0.1l-0.1-0.1c0,0,0,0,0.1,0c0,0,0,0,0.1,0
	c0,0,0,0,0,0c0,0,0-0.1-0.1-0.1L39.1,47c0,0-0.1,0-0.1,0c-0.1,0-0.1,0.1-0.1,0.2c0,0.1,0,0.1,0,0.1c0,0,0,0.1-0.1,0.1l0,0l-0.1,0.1
	v-1.2L38.8,46.2z M39.2,46.5h-0.4V47l0-0.1c0-0.1,0.1-0.1,0.2-0.1c0,0,0,0,0,0c0,0,0,0,0-0.1c0,0,0-0.1,0-0.1c0,0,0-0.1,0-0.1
	C39.1,46.6,39.1,46.6,39.2,46.5z"/>
<path class="st5" d="M38.8,44.3v0.2h1.1l-0.1,0.1c-0.1,0.1-0.3,0.2-0.3,0.3c0,0.1-0.1,0.2-0.1,0.3l-0.2,0.1
	c-0.1-0.1-0.1-0.2-0.2-0.3c-0.1-0.2-0.1-0.3-0.2-0.4h-0.1v0.7l-0.1,0.1v-1.1L38.8,44.3z M39.6,44.6h-0.5c0,0.1,0.1,0.3,0.2,0.4
	C39.3,44.8,39.4,44.7,39.6,44.6z"/>
<path class="st5" d="M38.8,43.7v0.2h1.1L39.8,44H39c0,0-0.1,0-0.1,0c0,0,0,0-0.1,0c-0.1,0-0.1,0.1-0.1,0.2c0,0,0,0,0,0l-0.1,0.1
	c0-0.1,0-0.1,0-0.2c0-0.1,0.1-0.1,0.1-0.2c0,0,0.1,0,0.1,0c0,0-0.1,0-0.2,0c-0.1,0-0.1,0-0.2,0l0,0c0,0,0,0,0.1,0c0,0,0,0,0.1,0
	c0,0,0,0,0,0v-0.1L38.8,43.7z"/>
<path class="st5" d="M39.2,43.1C39.2,43.1,39.2,43.1,39.2,43.1c0.1,0.1,0.1,0.1,0.1,0.2c0,0.1,0,0.1-0.1,0.2c0,0.1-0.1,0.1-0.2,0.1
	c-0.1,0-0.1,0-0.2-0.1c0-0.1-0.1-0.1-0.1-0.2c0-0.1,0-0.1,0.1-0.2C38.9,43,39,43,39,43C39.1,43,39.1,43,39.2,43.1z M39.1,43.2
	C39.1,43.1,39.1,43.1,39.1,43.2C39,43.1,39,43.1,39,43.1c-0.1,0-0.1,0-0.1,0.1c0,0,0,0.1,0.1,0.1c0,0,0.1,0.1,0.1,0.1
	c0.1,0,0.1,0,0.1-0.1C39.2,43.3,39.1,43.2,39.1,43.2z M40,42.8l-0.1,0.1c-0.1,0.1-0.2,0.3-0.3,0.5h-0.2c0-0.1,0.1-0.1,0.2-0.3
	C39.6,43.1,39.7,43,40,42.8L40,42.8L40,42.8z"/>
<path class="st5" d="M38.8,41.6v0.2h1.1l-0.1,0.1h-0.6c0,0-0.1,0-0.1,0.1c0,0,0,0.1,0,0.1c0,0,0,0,0,0.1c0,0,0,0,0.1,0l0,0l0,0
	c0,0,0,0,0,0c0,0-0.1,0-0.1,0.1c0,0-0.1,0.1-0.1,0.2c0,0.1,0,0.1,0,0.1c0,0,0.1,0.1,0.1,0.1c0,0,0,0,0,0c0.1,0,0.1-0.1,0.1-0.2
	c0,0,0,0-0.1,0c0,0-0.1,0-0.1,0c0,0,0-0.1,0-0.1c0-0.1,0-0.1,0.1-0.1c0,0,0.1,0,0.1,0c0.1,0,0.1,0.1,0.1,0.2c0,0.1,0,0.1,0,0.2
	c-0.1,0.1-0.1,0.1-0.2,0.1c-0.1,0-0.1,0-0.2-0.1c-0.1,0-0.1-0.1-0.1-0.2c0-0.1,0-0.2,0.1-0.2l0,0c0,0,0,0-0.1-0.1c0,0,0-0.1,0-0.1
	c0,0,0-0.1,0-0.1c0,0,0,0,0,0c0,0,0.1,0,0.1-0.1h-0.3v0.9l-0.1,0.1v-1.2L38.8,41.6z"/>
<path class="st5" d="M38.8,41v0.2h1.1l-0.1,0.1H39c0,0-0.1,0-0.1,0c0,0,0,0-0.1,0c-0.1,0-0.1,0.1-0.1,0.2c0,0,0,0,0,0l-0.1,0.1
	c0-0.1,0-0.1,0-0.2c0-0.1,0.1-0.1,0.1-0.2c0,0,0.1,0,0.1-0.1c0,0-0.1,0-0.2,0c-0.1,0-0.1,0-0.2,0l0,0c0,0,0,0,0.1,0c0,0,0,0,0.1,0
	c0,0,0,0,0,0v-0.1L38.8,41z"/>
<path class="st5" d="M38.8,40.1c0,0.1,0.1,0.2,0.1,0.3c0.1,0.1,0.1,0.1,0.2,0.2c0.1,0,0.1,0,0.1,0c0.1,0,0.1,0,0.2,0
	c0.1,0,0.2-0.1,0.3-0.2c0,0,0,0,0,0c0,0,0,0,0,0c0,0,0,0,0,0c0,0,0,0-0.1,0c-0.1,0-0.1,0-0.1-0.1c0,0,0,0,0-0.1c0,0,0,0,0-0.1
	c0,0,0.1-0.1,0.1-0.1c0,0,0.1,0,0.1,0.1c0,0,0.1,0.1,0.1,0.1c0,0.1,0,0.1-0.1,0.2c-0.1,0.1-0.3,0.2-0.4,0.2c0,0-0.1,0-0.1,0
	c-0.1,0-0.3-0.1-0.4-0.2v0.4L38.7,41v-0.7L38.8,40.1z"/>
<path class="st5" d="M38.8,38.9v0.9h0.4c0,0,0,0-0.1-0.1c-0.1-0.1-0.1-0.1-0.1-0.1c0-0.1-0.1-0.2-0.2-0.3l0.1-0.2
	c0.2,0.1,0.4,0.2,0.6,0.1c0,0,0.1,0,0.2,0l0,0.1l-0.1,0c-0.1,0-0.2,0-0.3,0c-0.1,0-0.2,0-0.3,0c0,0.1,0.1,0.2,0.1,0.2
	c0.1,0.1,0.2,0.2,0.3,0.2l-0.1,0.2h-0.6v0.1l-0.1,0.1v-1.1L38.8,38.9z"/>
<path class="st5" d="M38.8,37.6v0.2h1.1l-0.1,0.1l-0.6,0c0,0-0.1,0-0.1,0.1c-0.1,0.1-0.1,0.1-0.1,0.2c0,0,0,0,0,0.1c0,0,0,0,0.1,0
	c0,0,0,0,0.1-0.1c0-0.1,0.1-0.1,0.1-0.1c0,0,0.1,0,0.1,0c0,0,0.1,0.1,0.1,0.1c0,0.1,0,0.1-0.1,0.2c0,0,0.1,0,0.1,0.1
	c0,0,0,0.1,0,0.1c0,0.1,0,0.1-0.1,0.1c0,0,0,0,0,0c-0.1,0-0.1,0-0.2-0.1l0-0.1c0,0,0,0,0,0c0,0,0,0-0.1,0.1c0,0,0,0.1,0,0.1v0.1
	l-0.1,0.1v-0.2c0,0,0-0.1,0-0.1l0-0.1c0,0,0.1-0.1,0.1-0.1c0,0-0.1,0-0.1-0.1c0,0-0.1-0.1-0.1-0.2c0,0,0,0,0,0c0,0,0-0.1,0.1-0.1
	c0,0,0.1,0,0.1-0.1c0.1-0.1,0.1-0.1,0.1-0.1l-0.3,0l-0.2,0c0,0,0,0,0.1-0.1c0,0,0,0,0,0c0,0,0,0,0,0c0,0,0,0,0-0.1L38.8,37.6z"/>
<polygon class="st2" points="26.8,69.1 26.1,68.7 25.3,69.1 25.5,68.3 24.9,67.7 25.7,67.6 26.1,66.9 26.4,67.6 27.2,67.7 
	26.6,68.3 "/>
<path class="st3" d="M109.8,58.6c0,0.2-14.7,0.3-32.9,0.3c-18.2,0-32.9-0.1-32.9-0.3c0-0.2,14.7-0.3,32.9-0.3
	C95.1,58.3,109.8,58.4,109.8,58.6z"/>
<image style="overflow:visible;" width="263" height="108" xlink:href="DDAE186D.jpg"  transform="matrix(1 0 0 1 120 7)">
</image>
</svg>
