<?xml version="1.0" encoding="utf-8"?>
<!-- Generator: Adobe Illustrator 23.0.2, SVG Export Plug-In . SVG Version: 6.00 Build 0)  -->
<svg version="1.1" id="Layer_1" xmlns="http://www.w3.org/2000/svg" xmlns:xlink="http://www.w3.org/1999/xlink" x="0px" y="0px"
	 viewBox="0 0 120 120" style="enable-background:new 0 0 120 120;" xml:space="preserve">
<style type="text/css">
	.st0{fill:#006CB6;}
	.st1{fill:#231F20;}
	.st2{fill:#ED352E;}
	.st3{fill:#F58A1F;}
	.st4{fill:none;}
	.st5{fill:#FFDD8E;}
	.st6{fill:#FBCB51;}
	.st7{fill:#A9A7A8;}
	.st8{fill:#B4B7B9;}
	.st9{fill:#79C046;}
	.st10{fill:#DBDCDD;}
</style>
<path class="st0" d="M64.92,33.36h7.05v33.65c0,5.88-0.64,10.47-1.82,14c-1.18,3.42-3.31,6.2-6.52,8.44
	c-3.1,2.14-7.26,3.2-12.29,3.2c-4.91,0-8.97-0.96-12.07-2.78c-3.1-1.92-5.34-4.59-6.73-8.12c-1.28-3.53-2.03-8.44-2.03-14.64V33.36
	h7.05v33.65c0,5.02,0.43,8.76,1.28,11.22c0.85,2.35,2.24,4.27,4.38,5.56c2.03,1.28,4.59,1.92,7.59,1.92c5.13,0,8.76-1.28,10.9-3.85
	s3.2-7.48,3.2-14.85L64.92,33.36L64.92,33.36z"/>
<path class="st0" d="M63.75,67.01c0,6.94-0.96,11.64-2.99,14c-1.92,2.24-5.23,3.42-9.94,3.42c-2.78,0-5.02-0.64-6.94-1.82
	c-1.82-1.18-3.1-2.78-3.85-4.91c-0.75-2.24-1.18-5.88-1.18-10.79V33.36v-1.28h-1.28h-7.05h-1.28v1.28v33.65
	c0,6.3,0.75,11.32,2.14,15.06c1.39,3.85,3.85,6.73,7.26,8.76c3.31,2.03,7.59,2.99,12.71,2.99c5.34,0,9.61-1.18,12.93-3.42
	c3.31-2.35,5.66-5.34,6.94-9.08c1.28-3.63,1.82-8.44,1.82-14.42V33.36v-1.28h-1.28h-7.05h-1.28v1.28v33.65H63.75z M64.92,34.75h7.05
	l-1.28-1.28v33.65c0,5.66-0.53,10.26-1.71,13.46c-1.07,3.2-3.1,5.77-5.98,7.8c-2.88,2.03-6.84,2.99-11.64,2.99
	c-4.7,0-8.55-0.85-11.43-2.67c-2.88-1.71-4.91-4.17-6.2-7.48c-1.28-3.42-1.92-8.12-1.92-14.1V33.36l-1.28,1.28h7.05l-1.28-1.28
	v33.65c0,5.23,0.43,9.08,1.39,11.64c0.96,2.67,2.56,4.81,4.91,6.2c2.24,1.39,5.02,2.14,8.23,2.14c5.45,0,9.4-1.5,11.86-4.27
	c2.35-2.88,3.53-8.01,3.53-15.7V33.36L64.92,34.75z"/>
<path class="st0" d="M81.27,33.36h7.05v33.65c0,5.88-0.64,10.47-1.82,14c-1.18,3.42-3.31,6.2-6.52,8.44
	c-3.1,2.14-7.16,3.2-12.29,3.2c-4.91,0-8.97-0.96-12.07-2.78c-3.1-1.92-5.34-4.59-6.73-8.12c-1.39-3.53-2.03-8.44-2.03-14.64V33.36
	h7.05v33.65c0,5.02,0.43,8.76,1.28,11.22c0.85,2.35,2.24,4.27,4.38,5.56c2.03,1.28,4.59,1.92,7.59,1.92c5.13,0,8.76-1.28,10.9-3.85
	s3.2-7.48,3.2-14.85L81.27,33.36L81.27,33.36z"/>
<path class="st0" d="M80.09,67.01c0,6.94-0.96,11.64-2.88,14c-1.92,2.24-5.23,3.42-9.94,3.42c-2.78,0-5.02-0.64-6.94-1.82
	c-1.82-1.18-3.1-2.78-3.85-4.91c-0.75-2.24-1.18-5.88-1.18-10.79V33.36v-1.28h-1.28h-7.05h-1.28v1.28v33.65
	c0,6.3,0.75,11.43,2.14,15.06c1.39,3.85,3.85,6.73,7.26,8.76c3.31,2.03,7.59,2.99,12.71,2.99c5.23,0,9.61-1.18,12.93-3.42
	c3.31-2.35,5.66-5.34,6.94-9.08c1.28-3.53,1.82-8.44,1.82-14.42V33.36v-1.28h-1.28h-7.05h-1.07v1.28V67.01z M81.27,34.75h7.05
	l-1.28-1.28v33.65c0,5.66-0.53,10.26-1.71,13.46c-1.07,3.2-3.1,5.77-5.98,7.8c-2.88,2.03-6.84,2.99-11.64,2.99
	c-4.7,0-8.55-0.85-11.43-2.67c-2.88-1.71-4.91-4.17-6.2-7.48c-1.28-3.42-1.92-8.12-1.92-14.1V33.36l-1.18,1.39h7.05l-1.28-1.28
	v33.65c0,5.23,0.43,9.08,1.39,11.64c0.96,2.67,2.56,4.81,4.91,6.2c2.24,1.39,4.91,2.14,8.12,2.14c5.45,0,9.4-1.5,11.86-4.27
	c2.35-2.88,3.53-8.01,3.53-15.7V33.36L81.27,34.75z"/>
<path class="st1" d="M96.01,97.25V29.41v-2.99v-0.21L95.9,26.1c-9.19-8.23-18.7-13.46-28.2-15.28c-7.59-1.5-15.28-0.96-22.76,1.71
	C32.23,17.02,24.43,26.1,24.33,26.1l-0.11,0.11v0.21v70.94h0.85V26.31l-0.21,0.32c0.32-0.32,30.98-35.25,70.4,0.11l-0.11-0.32v2.99
	v67.84H96.01z"/>
<rect x="24.43" y="59.22" class="st1" width="71.26" height="0.85"/>
<rect x="59.69" y="10.39" class="st1" width="0.85" height="97.86"/>
<path class="st2" d="M41.53,32.83c-0.96-0.53-1.6-2.67-1.6-2.67c-0.11-0.75,0.75-2.03,0.75-2.03c1.71-2.24,0.75-3.2,0.75-3.2
	s1.92,0,2.56,4.06c0,0,0,2.35-1.39,3.63l0.32,0.21H41.53z"/>
<path class="st3" d="M43.02,32.62L42.7,32.4v0.32c1.39-1.39,1.39-3.74,1.39-3.85l0,0l0,0c-0.64-4.17-2.67-4.27-2.78-4.27h-0.53
	l0.32,0.43c0,0,0.75,0.96-0.75,2.88c-0.11,0.11-0.85,1.39-0.75,2.24l0,0l0,0c0,0.11,0.64,2.35,1.71,2.88l0,0l0,0h1.39h0.75
	L43.02,32.62z M41.63,32.72c-0.75-0.32-1.39-2.03-1.5-2.56l0,0c-0.11-0.53,0.43-1.6,0.64-1.92c1.71-2.35,0.75-3.42,0.64-3.42
	l-0.11,0.32c0,0,1.82,0.11,2.35,3.85l0,0c0,0,0,2.24-1.28,3.53l-0.21,0.21l0.21,0.11l0.32,0.21l0.11-0.43L41.63,32.72L41.63,32.72z"
	/>
<polygon class="st3" points="34.37,26.63 37.68,27.17 37.68,26.74 34.47,26.21 "/>
<rect x="34.36" y="28.55" transform="matrix(0.9999 -0.0101 0.0101 0.9999 -0.2881 0.3645)" class="st3" width="3.31" height="0.43"/>
<line class="st4" x1="35.86" y1="23.64" x2="38.64" y2="25.35"/>
<polygon class="st3" points="35.76,23.85 38.53,25.56 38.64,25.14 35.97,23.53 "/>
<line class="st4" x1="38.43" y1="21.4" x2="40.35" y2="23.75"/>
<polygon class="st3" points="38.21,21.5 40.24,23.85 40.56,23.64 38.53,21.18 "/>
<polygon class="st3" points="43.56,20.44 42.91,23.32 43.23,23.43 43.98,20.54 "/>
<polygon class="st3" points="49.75,28.98 46.44,28.98 46.44,29.41 49.75,29.41 "/>
<polygon class="st3" points="49.43,25.78 46.23,26.53 46.33,26.95 49.54,26.21 "/>
<polygon class="st3" points="47.72,22.36 45.26,24.39 45.48,24.71 47.94,22.68 "/>
<path class="st5" d="M40.56,32.72l-0.11,8.55l-0.75,1.07h5.13l-0.85-0.96l-0.21-2.35c0,0,1.82-0.21,0.75-1.39c0,0,0.53-0.75,0-1.18
	c0,0,0.43-0.85-0.21-1.07c0,0,0.21-0.75-0.75-2.35l-0.11-0.43l-1.5,0.75L40.56,32.72z"/>
<path class="st1" d="M42.06,33.58l1.5-0.75l-0.32-0.11l0.11,0.43l0,0l0,0c0.85,1.39,0.64,2.14,0.64,2.14l-0.11,0.21l0.21,0.11
	c0.21,0.11,0.21,0.11,0.21,0.21c0.11,0.21-0.11,0.53-0.11,0.53l-0.11,0.21l0.21,0.11c0.11,0.11,0.11,0.11,0.21,0.21
	c0,0.21-0.11,0.53-0.21,0.64l-0.11,0.11l0.11,0.11c0.11,0.21,0.32,0.43,0.21,0.64c-0.11,0.32-0.64,0.43-0.85,0.43h-0.21v0.21
	l0.21,2.24v0.11v0.11l0.85,0.96l0.11-0.32H39.5l0.21,0.32l0.75-1.07v-0.11v-0.11l0.11-8.55l-0.32,0.21l1.39,0.75H42.06L42.06,33.58z
	 M40.35,32.72l-0.11,8.55v-0.11l-0.75,1.07l-0.21,0.32h0.43h5.13h0.43l-0.32-0.32l-0.85-0.96v0.11l-0.21-2.24l-0.11,0.11
	c0.11,0,1.07-0.11,1.28-0.75c0.11-0.32,0-0.64-0.32-1.07v0.32c0,0,0.32-0.53,0.21-0.96c0-0.21-0.21-0.43-0.32-0.53l0.11,0.32
	c0,0,0.32-0.53,0.11-0.96c0-0.11-0.21-0.32-0.43-0.43l0.11,0.32c0-0.11,0.21-0.85-0.75-2.46v0.11l0-0.53l-0.11-0.21l-0.21,0.11
	l-1.5,0.75h0.21l-1.39-0.75l-0.32-0.11L40.35,32.72z"/>
<polygon class="st6" points="77.85,66.37 80.84,75.03 90.77,75.03 82.76,80.37 85.86,89.02 77.85,83.68 69.84,89.02 72.83,80.37 
	64.81,75.03 74.75,75.03 "/>
<path class="st7" d="M74.75,74.81h-9.94h-0.75l0.64,0.43l8.01,5.34l-0.11-0.21l-3.1,8.65l-0.21,0.64l0.53-0.32L77.85,84h-0.21
	l8.01,5.34l0.53,0.32l-0.21-0.64l-3.1-8.65l-0.11,0.21l8.01-5.34l0.64-0.43h-0.64h-9.94l0.21,0.11l-3.1-8.65l-0.21-0.53l-0.21,0.53
	l-3.1,8.65L74.75,74.81z M77.63,66.48l3.1,8.65v0.11h0.11h9.94l-0.11-0.43l-8.01,5.34l-0.11,0.11l0.11,0.21l3.1,8.65l0.32-0.21
	l-8.01-5.34l-0.11-0.11l-0.11,0.11l-8.01,5.34l0.32,0.21l3.1-8.65l0.11-0.21l-0.11-0.11l-8.01-5.34l-0.11,0.43h9.94h0.11v-0.11
	l3.1-8.65H77.63z"/>
<ellipse class="st5" cx="78.06" cy="78.45" rx="1.5" ry="1.28"/>
<path class="st8" d="M78.06,76.84c-0.96,0-1.71,0.64-1.71,1.5c0,0.85,0.75,1.5,1.71,1.5c0.96,0,1.71-0.64,1.71-1.5
	C79.66,77.59,78.92,76.84,78.06,76.84z M79.24,78.45c0,0.64-0.53,1.07-1.28,1.07c-0.64,0-1.28-0.53-1.28-1.07
	c0-0.64,0.53-1.07,1.28-1.07C78.7,77.27,79.24,77.81,79.24,78.45z"/>
<polygon class="st1" points="24.33,97.57 59.9,108.89 60.01,109 60.11,108.89 95.9,97.57 95.8,96.71 24.43,96.71 24.43,97.57 
	95.8,97.57 95.69,96.82 59.9,108.15 60.11,108.15 24.54,96.82 "/>
<path class="st1" d="M47.19,97.89h0.43v1.92c0,0.32-0.11,0.53-0.11,0.75c-0.11,0.21-0.21,0.32-0.43,0.43
	c-0.21,0.11-0.43,0.21-0.85,0.21c-0.32,0-0.64,0-0.85-0.11c-0.21-0.11-0.32-0.21-0.43-0.43c-0.11-0.21-0.11-0.43-0.11-0.85v-1.92
	h0.43v1.82c0,0.32,0,0.53,0.11,0.64c0.11,0.11,0.11,0.21,0.32,0.32c0.11,0.11,0.32,0.11,0.53,0.11c0.32,0,0.64-0.11,0.75-0.21
	c0.11-0.11,0.21-0.43,0.21-0.85C47.19,99.71,47.19,97.89,47.19,97.89z"/>
<path class="st1" d="M49.32,100.77l0.11,0.32c-0.11,0-0.21,0-0.32,0c-0.11,0-0.32,0-0.32-0.11c-0.11,0-0.11-0.11-0.21-0.21
	c0-0.11-0.11-0.21-0.11-0.43v-1.39h-0.32v-0.32h0.32v-0.43L48.9,98v0.85h0.43v0.32H48.9v1.39c0,0.11,0,0.21,0,0.21s0,0.11,0.11,0.11
	h0.11C49.11,100.77,49.22,100.77,49.32,100.77z"/>
<path class="st1" d="M50.71,100.77l0.11,0.32c-0.11,0-0.21,0-0.32,0c-0.11,0-0.32,0-0.32-0.11c-0.11,0-0.11-0.11-0.21-0.21
	c0-0.11-0.11-0.21-0.11-0.43v-1.39h-0.32v-0.32h0.32v-0.43L50.29,98v0.85h0.43v0.32h-0.43v1.39c0,0.11,0,0.21,0,0.21
	s0,0.11,0.11,0.11h0.11C50.5,100.77,50.61,100.77,50.71,100.77z"/>
<path class="st1" d="M52.74,99.92c-0.11,0.11-0.43,0.11-0.75,0.11c-0.21,0-0.32,0-0.43,0.11c-0.11,0-0.11,0.11-0.21,0.11
	c0,0.11-0.11,0.11-0.11,0.21c0,0.11,0,0.21,0.11,0.21c0.11,0.11,0.21,0.11,0.43,0.11c0.21,0,0.32,0,0.43-0.11
	c0.11-0.11,0.21-0.11,0.32-0.32c0-0.11,0.11-0.21,0.11-0.43v0H52.74z M52.74,100.88c-0.11,0.11-0.32,0.21-0.43,0.32
	c-0.11,0-0.32,0.11-0.43,0.11c-0.32,0-0.53-0.11-0.64-0.21c-0.11-0.11-0.21-0.32-0.21-0.53c0-0.11,0-0.21,0.11-0.32
	c0-0.11,0.11-0.21,0.21-0.21c0.11-0.11,0.21-0.11,0.32-0.11c0.11,0,0.21,0,0.43-0.11c0.32,0,0.64-0.11,0.75-0.11V99.6
	c0-0.21,0-0.32-0.11-0.32c-0.11-0.11-0.32-0.11-0.53-0.11s-0.32,0-0.43,0.11c-0.11,0.11-0.21,0.21-0.21,0.32l-0.43-0.11
	c0-0.11,0.11-0.32,0.21-0.43c0.11-0.11,0.21-0.21,0.43-0.21c0.21,0,0.32-0.11,0.53-0.11s0.43,0,0.53,0.11
	c0.11,0,0.21,0.11,0.32,0.21c0.11,0.11,0.11,0.21,0.11,0.32s0,0.21,0,0.32v0.53c0,0.32,0,0.64,0,0.75c0,0.11,0.11,0.21,0.11,0.32
	h-0.43C52.85,101.09,52.74,100.99,52.74,100.88z"/>
<path class="st1" d="M53.81,101.09v-2.35h0.43v0.32c0.11-0.21,0.21-0.32,0.32-0.32c0.11-0.11,0.21-0.11,0.32-0.11
	c0.11,0,0.32,0,0.43,0.11l-0.11,0.43c-0.11-0.11-0.21-0.11-0.32-0.11c-0.11,0-0.21,0-0.21,0.11c-0.11,0.11-0.11,0.11-0.21,0.21
	c0,0.11-0.11,0.32-0.11,0.43v1.28H53.81z"/>
<path class="st1" d="M57.12,99.92c-0.11,0.11-0.43,0.11-0.75,0.11c-0.21,0-0.32,0-0.43,0.11c-0.11,0-0.11,0.11-0.21,0.11
	c0,0.11-0.11,0.11-0.11,0.21c0,0.11,0,0.21,0.11,0.21c0.11,0.11,0.21,0.11,0.43,0.11c0.21,0,0.32,0,0.43-0.11
	c0.11-0.11,0.21-0.11,0.32-0.32c0-0.11,0.11-0.21,0.11-0.43L57.12,99.92z M57.12,100.88c-0.11,0.11-0.32,0.21-0.43,0.32
	c-0.11,0-0.32,0.11-0.53,0.11c-0.32,0-0.53-0.11-0.64-0.21c-0.11-0.11-0.21-0.32-0.21-0.53c0-0.11,0-0.21,0.11-0.32
	c0.11-0.11,0.11-0.21,0.21-0.21c0.11-0.11,0.21-0.11,0.32-0.11c0.11,0,0.21,0,0.43-0.11c0.32,0,0.64-0.11,0.75-0.11V99.6
	c0-0.21,0-0.32-0.11-0.32c-0.11-0.11-0.32-0.11-0.53-0.11s-0.32,0-0.43,0.11c-0.11,0.11-0.21,0.21-0.21,0.32l-0.43-0.11
	c0-0.11,0.11-0.32,0.21-0.43c0.11-0.11,0.21-0.21,0.43-0.21c0.21,0,0.32-0.11,0.53-0.11s0.43,0,0.53,0.11
	c0.11,0,0.21,0.11,0.32,0.21c0.11,0.11,0.11,0.21,0.11,0.32s0,0.21,0,0.32v0.53c0,0.32,0,0.64,0,0.75c0,0.11,0.11,0.21,0.11,0.32
	h-0.43C57.23,101.09,57.23,100.99,57.12,100.88z"/>
<path class="st1" d="M62.89,98.21h0.32v1.82c0,0.32,0,0.53-0.11,0.75s-0.21,0.32-0.32,0.43c-0.21,0.11-0.43,0.21-0.64,0.21
	s-0.43,0-0.64-0.11c-0.21-0.11-0.32-0.21-0.32-0.43c-0.11-0.21-0.11-0.43-0.11-0.85v-1.82h0.32v1.82c0,0.32,0,0.53,0.11,0.64
	c0,0.11,0.11,0.21,0.21,0.32s0.21,0.11,0.43,0.11c0.32,0,0.43-0.11,0.53-0.21s0.21-0.43,0.21-0.85V98.21z"/>
<path class="st1" d="M63.85,101.41v-2.35h0.32v0.32c0.11-0.21,0.32-0.43,0.64-0.43c0.11,0,0.21,0,0.32,0.11
	c0.11,0,0.21,0.11,0.21,0.21c0,0.11,0.11,0.21,0.11,0.32c0,0.11,0,0.21,0,0.43v1.39h-0.32v-1.39c0-0.21,0-0.32,0-0.32
	c0-0.11-0.11-0.11-0.11-0.21c-0.11,0-0.11-0.11-0.21-0.11c-0.11,0-0.21,0-0.32,0.21c-0.11,0.11-0.21,0.32-0.21,0.64v1.28h-0.43
	V101.41z"/>
<path class="st1" d="M65.99,101.41v-2.35h0.32v2.35H65.99z M65.99,98.64v-0.43h0.32v0.43H65.99z"/>
<path class="st1" d="M67.38,101.41l-0.75-2.35h0.32l0.43,1.39c0.11,0.11,0.11,0.32,0.11,0.43c0-0.11,0.11-0.32,0.11-0.43l0.43-1.39
	h0.32l-0.75,2.35H67.38z"/>
<path class="st1" d="M69.09,100.03h1.18c0-0.21-0.11-0.32-0.11-0.43c-0.11-0.11-0.21-0.21-0.43-0.21c-0.11,0-0.32,0.11-0.43,0.21
	C69.19,99.6,69.09,99.81,69.09,100.03z M70.16,100.67h0.32c-0.11,0.21-0.21,0.43-0.32,0.53c-0.11,0.11-0.32,0.21-0.53,0.21
	c-0.32,0-0.53-0.11-0.75-0.32c-0.21-0.21-0.21-0.53-0.21-0.85c0-0.43,0.11-0.75,0.21-0.96c0.21-0.21,0.43-0.32,0.64-0.32
	c0.32,0,0.53,0.11,0.64,0.32c0.21,0.21,0.21,0.53,0.21,0.85v0.11h-1.5c0,0.21,0.11,0.43,0.21,0.64c0.11,0.11,0.21,0.21,0.43,0.21
	c0.11,0,0.21,0,0.32-0.11C70.05,100.99,70.16,100.77,70.16,100.67z"/>
<path class="st1" d="M71.01,101.41v-2.35h0.32v0.32c0.11-0.21,0.11-0.32,0.21-0.32c0.11-0.11,0.11-0.11,0.21-0.11
	c0.11,0,0.21,0,0.32,0.11l-0.11,0.32c-0.11-0.11-0.21-0.11-0.21-0.11c-0.11,0-0.11,0-0.21,0.11c-0.11,0-0.11,0.11-0.11,0.21
	c0,0.11-0.11,0.32-0.11,0.43v1.28h-0.32V101.41z"/>
<path class="st1" d="M72.19,100.67h0.32c0,0.11,0.11,0.32,0.21,0.32c0.11,0.11,0.21,0.11,0.32,0.11s0.32,0,0.32-0.11
	c0.11-0.11,0.11-0.11,0.11-0.21c0-0.11,0-0.11-0.11-0.21c0,0-0.11-0.11-0.32-0.11c-0.21-0.11-0.43-0.11-0.53-0.21
	c-0.11,0-0.21-0.11-0.21-0.21c-0.11-0.11-0.11-0.21-0.11-0.32s0-0.21,0.11-0.32c0-0.11,0.11-0.11,0.21-0.21
	c0.11,0,0.11-0.11,0.21-0.11c0.11,0,0.21-0.11,0.32-0.11c0.21,0,0.32,0,0.43,0.11c0.11,0,0.21,0.11,0.32,0.21
	c0,0.11,0.11,0.21,0.11,0.32l-0.32,0.11c0-0.11,0-0.21-0.11-0.32c-0.11-0.11-0.21-0.11-0.32-0.11s-0.32,0-0.32,0.11
	c-0.11,0.11-0.11,0.11-0.11,0.21v0.11l0.11,0.11c0,0,0.11,0,0.32,0.11c0.21,0.11,0.43,0.11,0.53,0.21c0.11,0,0.21,0.11,0.21,0.21
	c0,0.11,0.11,0.21,0.11,0.32c0,0.11,0,0.21-0.11,0.32c-0.11,0.11-0.21,0.21-0.32,0.32s-0.21,0.11-0.43,0.11
	c-0.21,0-0.43-0.11-0.64-0.21C72.29,101.09,72.19,100.99,72.19,100.67z"/>
<path class="st1" d="M74.22,101.41v-2.35h0.32v2.35H74.22z M74.22,98.64v-0.43h0.32v0.43H74.22z"/>
<path class="st1" d="M75.82,101.09v0.32c-0.11,0-0.21,0-0.32,0s-0.21,0-0.32-0.11c-0.11,0-0.11-0.11-0.11-0.21c0-0.11,0-0.21,0-0.43
	v-1.39h-0.21v-0.32h0.21v-0.53l0.32-0.21v0.85h0.32v0.32h-0.32v1.39c0,0.11,0,0.21,0,0.21s0,0.11,0.11,0.11h0.11
	C75.71,101.09,75.82,101.09,75.82,101.09z"/>
<path class="st1" d="M76.14,102.27v-0.43c0.11,0,0.11,0,0.21,0c0.11,0,0.11,0,0.21,0l0.11-0.11c0,0,0.11-0.11,0.11-0.32v-0.11
	l-0.75-2.35h0.32l0.43,1.39c0.11,0.21,0.11,0.32,0.11,0.53c0-0.21,0.11-0.32,0.11-0.53l0.43-1.39h0.32l-0.75,2.35
	c-0.11,0.21-0.11,0.43-0.21,0.53c-0.11,0.11-0.11,0.21-0.21,0.32c-0.11,0.11-0.21,0.11-0.32,0.11
	C76.35,102.38,76.25,102.38,76.14,102.27z"/>
<polygon class="st6" points="27.53,72.14 27.53,79.19 28.06,79.41 29.13,79.94 29.99,80.37 31.16,81.01 32.66,81.86 33.51,82.61 
	34.37,83.25 34.79,83.89 35.22,84.43 35.65,84.86 37.04,85.71 38.96,86.67 40.14,87.21 40.99,87.74 41.53,88.06 42.06,88.27 
	42.7,88.27 43.23,87.95 43.34,87.74 43.88,87.95 44.73,87.85 45.37,87.63 46.01,87.31 46.65,87.42 47.08,87.31 47.61,86.99 
	47.94,86.78 48.47,86.46 48.68,86.46 48.9,86.46 49.11,86.46 49.32,86.35 49.43,86.24 49.54,86.14 49.64,86.03 49.75,85.82 
	50.18,85.71 50.5,85.5 50.71,85.18 50.82,84.96 50.82,84.54 50.82,84.32 50.71,84 50.61,83.68 49.75,81.97 47.83,79.94 45.16,78.34 
	44.73,78.02 44.41,77.81 44.09,77.81 43.66,77.91 43.34,78.02 43.02,78.02 42.49,77.91 41.95,77.7 41.53,77.7 41.1,77.81 
	40.46,78.02 39.92,78.34 39.5,78.55 38.75,78.55 38,78.55 37.25,78.55 36.93,78.45 36.61,78.23 36.29,78.02 35.97,77.81 
	35.65,77.59 35.33,77.48 35.01,77.27 34.47,77.16 34.05,76.95 33.62,76.74 33.19,76.52 32.66,76.2 32.23,75.88 31.8,75.56 
	31.38,75.24 30.95,74.71 30.31,73.96 29.88,73.42 29.45,73 29.13,72.57 28.71,72.14 "/>
<path class="st7" d="M27.53,72.36h1.18l-0.11-0.11l0.43,0.43l0,0l0.32,0.43l0.43,0.43l0.43,0.53l0.64,0.75l0.43,0.53l0,0l0,0
	l0.43,0.32l0.53,0.32l0.43,0.32l0.43,0.32l0.43,0.21l0.43,0.21l0,0l0,0l0.43,0.21l0.53,0.21l0.32,0.11l0.32,0.11l0,0l0.32,0.21
	l0.32,0.21l0.32,0.21l0.32,0.21l0,0l0,0h0.32l0,0l0,0h0.75h0.75h0.75l0,0l0,0l0.43-0.21l0.53-0.21l0.64-0.32l0,0l0.43-0.11h-0.11
	h0.43l0,0l0.53,0.21l0,0l0,0l0.53,0.11l0,0l0,0h0.32l0,0l0,0h0.32l0.53-0.11l0,0h0.32H44.2l0.32,0.21l0.32,0.21l2.78,1.6l0,0
	l1.82,2.03l0,0l0.85,1.6l0,0l0.11,0.32l0.11,0.32v-0.11v0.32v0.32v-0.11l-0.11,0.21l0,0l-0.21,0.32l0,0l-0.32,0.21l0,0l-0.43,0.11
	h-0.11v0.11l-0.11,0.21l0,0l-0.11,0.11l0,0L49,86.03l0,0l-0.11,0.11l0,0h-0.11l0,0h-0.21l0,0h-0.21l0,0l0,0h-0.21h-0.11l0,0
	l-0.53,0.43l-0.43,0.21l-0.53,0.32h0.11h-0.43l0,0h-0.64h-0.11l0,0l-0.53,0.32l0,0l-0.64,0.21l-0.85,0.11h0.11l-0.11-0.21
	l-0.21-0.11l-0.11,0.21l-0.11,0.32l0.11-0.11l-0.53,0.32h0.11h-0.64h0.11l-0.53-0.32l-0.53-0.32l-0.85-0.53l0,0l0,0l-1.18-0.53
	l-1.92-0.96l-1.39-0.85h0.11l-0.43-0.32l-0.43-0.53l-0.43-0.53l0,0l0,0l-0.75-0.75l-0.96-0.64l-1.5-0.96l-1.18-0.64l-0.85-0.43
	l-1.07-0.53l-0.64-0.21l0.11,0.21v-7.05L27.53,72.36z M27.32,72.14v7.05v0.11h0.11l0.64,0.21l1.07,0.43l0.85,0.43l1.18,0.64
	l1.39,0.85l0.85,0.64l0.75,0.75l0,0l0.43,0.53l0.43,0.53l0.43,0.43l0,0l0,0l1.39,0.85l1.92,0.96l1.18,0.53l0,0l0.85,0.53l0.53,0.32
	l0.53,0.32l0,0h0.11h0.64l0,0l0,0l0.53-0.32l0,0v-0.11l0.11-0.32l-0.21,0.11l0.53,0.21h0.11h0.11l0.85-0.11l0.75-0.21l0,0l0,0
	l0.53-0.32H45.8h0.64l0,0l0,0h0.43l0,0l0,0l0.53-0.32l0.43-0.21l0.53-0.43h-0.11h0.21l0,0h0.21l0,0l0,0h0.21l0,0l0,0H49l0,0l0,0
	l0.11-0.11l0,0l0,0l0.11-0.11l0,0l0,0l0.11-0.11l0,0l0,0l0.11-0.21l-0.11,0.11l0.43-0.11l0,0l0,0l0.32-0.21l0,0l0,0l0.21-0.32l0,0
	l0,0l0.11-0.21l0,0l0,0v-0.32v-0.32l0,0l0,0L50.29,84l-0.11-0.32l0,0l0,0l-0.85-1.6l0,0l0,0l-1.82-2.03l0,0l0,0l-2.78-1.6
	l-0.32-0.21l-0.32-0.21l0,0h-0.11h-0.32l0,0l0,0l-0.53,0.11h-0.32l0,0h-0.32l0,0l-0.53-0.11l0,0l-0.53-0.21l0,0l0,0h-0.43l0,0l0,0
	l-0.43,0.11l0,0l0,0l-0.64,0.32l-0.53,0.21l-0.43,0.21h0.11h-0.75h-0.75h-0.75l0,0H36.5h0.11l-0.32-0.21l-0.32-0.21l-0.32-0.21
	l-0.32-0.21l0,0l0,0l-0.32-0.21l-0.32-0.11l-0.43-0.21l-0.43-0.21l0,0l-0.43-0.21l-0.43-0.21l-0.43-0.21l-0.43-0.32l-0.43-0.32
	l-0.43-0.32l0,0l-0.43-0.53l-0.64-0.75l-0.43-0.53l-0.43-0.43l-0.32-0.43l0,0l0,0l-0.21-0.75v-0.11h-0.11h-1.18h-0.21
	C27.32,71.93,27.32,72.14,27.32,72.14z"/>
<polyline class="st5" points="40.67,86.24 41.31,86.57 41.95,86.78 42.38,86.99 42.7,87.21 43.02,87.42 43.45,87.63 43.66,87.74 
	43.77,87.85 43.88,87.85 "/>
<path class="st7" d="M40.56,86.46l0.64,0.21l0.64,0.21l0.43,0.21l0,0l0.32,0.21l0,0l0.32,0.21l0.43,0.32l0,0l0,0l0.21,0.11l0,0l0,0
	h0.21l0,0h0.11l0.21-0.43h-0.11l0,0l0,0h-0.21l0,0l-0.32,0l0,0l-0.43-0.21L42.7,87.1l0,0l0,0l-0.32-0.21l0,0l0,0l-0.53-0.21
	l-0.64-0.21l-0.64-0.21L40.56,86.46z"/>
<polyline class="st5" points="43.02,85.5 43.66,85.82 44.2,86.14 44.62,86.35 44.84,86.46 45.05,86.78 45.26,86.99 45.58,87.1 
	45.91,87.21 46.23,87.31 46.55,87.31 46.55,87.31 "/>
<path class="st7" d="M42.91,85.71l0.64,0.32l0.64,0.32l0.43,0.21l0,0l0.21,0.11l0,0l0.32,0.32l0.21,0.21l0,0l0,0l0.32,0.21l0,0l0,0
	l0.32,0.11l0,0l0.21,0.11l0,0l0,0h0.32l0.21-0.21l0,0h-0.43l0,0l0.21-0.21h-0.32l0,0l-0.21-0.11l0,0l0,0l-0.32-0.11h0.11l-0.32-0.21
	l0,0l-0.21-0.21l-0.32-0.32l0,0l0,0l-0.21-0.11l0,0l0,0l-0.43-0.21l-0.64-0.32l-0.53-0.32L42.91,85.71z"/>
<polyline class="st5" points="44.94,84.32 45.58,84.75 45.91,85.07 46.44,85.5 46.97,85.82 47.29,86.03 47.83,86.14 48.47,86.35 
	48.79,86.46 "/>
<path class="st7" d="M44.84,84.54l0.64,0.43l0,0l0.43,0.32l0,0l0,0l0.43,0.32l0.53,0.43l0.32,0.21l0,0l0,0l0.53,0.11l0.64,0.21
	l0.32,0.11l0.11-0.43l-0.32-0.11l-0.64-0.21l-0.53-0.11l0,0l-0.32-0.21l-0.53-0.32l-0.43-0.32l0,0l-0.43-0.32l0,0l0,0l-0.64-0.43
	L44.84,84.54z"/>
<polygon class="st6" points="58.3,72.57 55.2,72.57 54.56,73.21 53.28,74.49 51.99,75.67 51.35,76.2 50.39,76.95 49.43,77.48 
	48.9,77.7 48.47,77.7 48.26,77.91 47.83,78.23 47.61,78.23 47.29,78.34 46.65,78.34 46.23,78.23 45.58,78.23 45.05,78.34 
	44.52,78.55 43.98,78.66 43.56,78.77 43.23,78.77 42.49,78.77 41.85,78.87 41.42,79.09 40.99,79.41 40.56,79.51 40.14,79.73 
	39.71,79.94 39.5,80.16 39.18,80.37 38.96,81.12 38.53,81.86 38.43,82.4 38.53,82.61 38.75,82.72 38.96,82.83 39.28,82.93 
	39.71,82.93 40.14,82.83 40.46,82.61 40.78,82.4 41.1,82.08 41.31,81.65 41.42,81.44 42.17,81.54 42.49,81.54 42.91,81.44 
	43.23,81.22 43.45,81.12 43.98,81.44 44.84,81.76 45.26,81.86 45.58,81.97 46.12,82.29 46.44,82.51 47.08,83.15 47.29,83.47 
	47.61,83.79 47.94,84 48.26,84.21 48.68,84.32 49,84.43 49.32,84.43 49.75,84.32 50.18,84.11 50.5,83.79 50.82,83.25 51.14,82.93 
	51.46,82.61 51.78,82.4 52.85,81.65 54.24,80.8 55.63,79.94 57.02,79.19 58.3,78.55 "/>
<path class="st7" d="M58.08,72.57v5.98l0.11-0.21l-1.18,0.64l-1.5,0.85l-1.39,0.75l-1.39,0.85l-1.07,0.75l-0.32,0.21l0,0l0,0
	l-0.32,0.32l0,0l0,0l-0.32,0.43l0,0l0,0l-0.32,0.53v-0.11l-0.32,0.32l0,0l-0.43,0.21l0,0l-0.43,0.11h0.11H49h-0.32h0.11L48.47,84
	l-0.32-0.21l-0.32-0.21l0,0l-0.32-0.32l-0.32-0.32l-0.64-0.64l-0.32-0.21l0,0l0,0l-0.53-0.21l0,0l0,0l-0.32-0.11l-0.43-0.11l0,0
	l-0.85-0.32l-0.53-0.21h-0.11h-0.11l-0.21,0.11l0,0l0,0l-0.32,0.11l-0.43,0.11h0.11h-0.32l-0.75-0.11h-0.11l-0.11,0.11l-0.11,0.21
	l0,0l0,0l-0.21,0.43l0,0l-0.21,0.11l0,0l-0.32,0.21l0,0l-0.43,0.21h0.11l-0.43,0.11l0,0h-0.32h0.11l-0.32-0.11l0,0l-0.21-0.11l0,0
	l-0.11-0.11l0,0l-0.11-0.21v0.21l0.11-0.53l0,0l0.32-0.75l0.32-0.75v0.11l0.21-0.21l0.21-0.21h-0.11l0.43-0.21l0.43-0.21l0.43-0.21
	l0,0l0,0l0.43-0.21l0.43-0.32h-0.11h0.64h0.64h0.43l0,0l0,0l0.43-0.11l0.53-0.11l0,0l0,0l0.53-0.21l0,0l0.53-0.11l0,0h0.64l0,0
	l0.43,0.11l0,0l0,0h0.64l0,0l0,0l0.43-0.11h0.21h0.11l0,0l0.32-0.32l0.32-0.21h-0.11h0.32l0,0l0,0l0.64-0.21l0,0l0,0l0.96-0.53
	l0.96-0.75l0.64-0.53l1.28-1.18l1.39-1.39l0.64-0.64l-0.11,0.11h3.1L58.08,72.57z M58.3,72.36h-3.1h-0.11l-0.11,0.11l-0.64,0.64
	l-1.28,1.28l-1.28,1.18l-0.64,0.53l-0.96,0.64l-0.96,0.53l0,0l-0.64,0.21l0,0h-0.32h-0.11l0,0l-0.32,0.21l-0.32,0.32h0.11H47.4
	l-0.43,0.11l0,0h-0.64l0,0l-0.43-0.11l0,0l0,0h-0.64l0,0l0,0l-0.53,0.11l0,0l0,0l-0.53,0.21l0,0l-0.53,0.11l-0.43,0.11l0,0h-0.43
	h-0.75h-0.64h-0.11l0,0l0,0.43l-0.43,0.21l0,0l-0.32,0.21l-0.43,0.21l-0.43,0.21l0,0l0,0l-0.21,0.21l-0.21,0.32l0,0l0,0l-0.32,0.75
	l-0.32,0.75l0,0l0,0l-0.11,0.53v0.11v0.11l0.11,0.21l0,0l0,0l0.11,0.11l0,0l0,0l0.21,0.11l0,0l0,0l0.32,0.11l0,0l0,0h0.32l0,0l0,0
	l0.43-0.11l0,0l0,0l0.43-0.21l0,0l0,0l0.32-0.21l0,0l0,0l0.32-0.32l0,0l0,0l0.21-0.43l0,0l0.11-0.21l-0.21,0.11l0.75,0.11h0.32l0,0
	l0,0l0.43-0.11l0.32-0.21l0,0l0.21-0.11h-0.11l0.53,0.21l0.85,0.32l0,0l0,0l0.43,0.11l0.32,0.11l0,0l0.53,0.21l0,0l0.21,0.21
	l0.64,0.64l0.32,0.32l0.32,0.32l0,0l0,0l0.32,0.21l0.32,0.21l0.43,0.21l0,0l0,0h0.32H49l0,0l0,0l0.43-0.11l0,0l0,0l0.43-0.21l0,0
	l0,0l0.32-0.32l0,0l0,0l0.32-0.53l0,0l0.32-0.43l0,0l0.32-0.32l0,0l0.43-0.21l1.07-0.75l1.39-0.85l1.28-0.75l1.5-0.85l1.18-0.64
	l0.11-0.11v-0.11v-5.77v-0.21H58.3z"/>
<polyline class="st5" points="46.23,82.29 46.76,82.19 47.19,81.97 47.19,81.86 "/>
<polygon class="st7" points="46.23,82.51 46.76,82.4 46.87,82.4 46.87,82.4 47.29,82.08 47.29,82.08 47.29,81.97 46.97,81.97 
	47.08,81.76 46.65,81.97 46.76,81.97 46.12,82.08 "/>
<polyline class="st5" points="51.03,81.86 51.14,82.51 51.03,83.04 "/>
<polygon class="st7" points="50.82,81.86 50.93,82.51 50.93,82.51 50.82,83.04 51.25,83.04 51.25,82.51 51.35,82.51 51.25,82.51 
	51.25,81.86 "/>
<polygon class="st6" points="34.9,84.21 34.47,84.43 34.05,84.75 33.73,85.18 33.62,85.39 33.62,85.71 33.73,85.92 33.83,86.24 
	34.26,86.46 34.69,86.46 35.01,86.35 35.33,86.14 35.76,85.92 36.18,85.39 "/>
<path class="st7" d="M34.79,84.32l1.28,1.18v-0.32l-0.53,0.53l0,0l-0.32,0.21l0,0l-0.43,0.21l0,0l-0.32,0.11h0.11h-0.43h0.11
	l-0.32-0.21h0.11l-0.21-0.21l0,0l-0.11-0.21v0.11v-0.32l0,0l0.11-0.32v0.11l0.32-0.43l0,0l0.43-0.32l0,0l0.43-0.21L34.79,84.32z
	 M34.79,84l-0.43,0.21l0,0l0,0l-0.43,0.32l0,0l0,0l-0.32,0.43l0,0l0,0l-0.21,0.43l0,0l0,0v0.32v0.11v0.11l0.11,0.21l0,0l0,0
	l0.21,0.21l0,0l0,0l0.32,0.21l0,0l0,0h0.43l0,0l0,0l0.32-0.11l0,0l0,0l0.43-0.21l0,0l0,0l0.32-0.21l0,0l0,0l0.53-0.53l0.11-0.21
	l-0.21-0.11L34.69,84l-0.11-0.11L34.79,84z"/>
<polygon class="st6" points="36.5,84.21 36.08,84.32 35.76,84.64 35.65,84.96 35.65,85.39 35.86,86.24 35.97,86.78 35.97,86.99 
	36.08,87.31 36.4,87.53 36.93,87.63 37.47,87.53 37.79,87.42 38,87.31 38.11,87.1 38,86.35 37.89,85.71 37.47,85.07 37.36,84.75 
	37.15,84.54 37.04,84.43 36.82,84.32 "/>
<path class="st7" d="M36.5,84.43h0.32h-0.11l0.21,0.11h-0.11l0.11,0.21l0,0l0.11,0.21l0.21,0.32l0.32,0.64v-0.11l0.11,0.53
	l0.11,0.75v-0.11l-0.11,0.21l0.11-0.11l-0.21,0.11l0,0l-0.21,0.11h0.11h-0.53l0,0H36.5h0.11l-0.32-0.21l0.11,0.11l-0.11-0.32l0,0
	v-0.32l-0.11-0.53l-0.21-0.85l0,0v-0.43v0.11l0.11-0.32v0.11l0.32-0.32h-0.11L36.5,84.43L36.5,84.43z M36.5,84l-0.43,0.11l0,0l0,0
	l-0.32,0.32l0,0l0,0l-0.11,0.32l0,0v0.11v0.43l0,0l0,0l0.21,0.85l0.11,0.53v0.32l0,0l0,0l0.11,0.32v0.11h0.11l0.32,0.21l0,0l0,0
	h0.43l0,0l0,0h0.53l0,0l0,0l0.32-0.11l0,0l0,0L38,87.42l0,0l0,0l0.11-0.21V87.1v-0.11L38,86.14l-0.11-0.53l0,0l0,0l-0.32-0.64
	l-0.21-0.32l-0.11-0.21l0,0l0,0l-0.11-0.21l0,0l0,0l-0.21-0.11l0,0l0,0L36.5,84L36.5,84L36.5,84z"/>
<polygon class="st6" points="38,85.39 37.68,85.39 37.57,85.5 37.36,85.6 37.25,85.92 37.15,86.24 37.15,86.46 37.15,86.99 
	37.15,87.31 37.15,87.63 37.36,87.95 37.47,88.06 37.79,88.17 38.11,88.17 38.53,88.17 38.85,88.06 39.28,87.95 39.71,87.74 
	40.14,87.31 40.24,87.21 39.92,86.99 39.71,86.67 39.39,86.46 39.07,86.35 38.75,86.35 38.64,86.03 38.53,85.82 38.43,85.71 
	38.21,85.5 "/>
<path class="st7" d="M37.89,85.6l0.32,0.11h-0.11l0.11,0.11l0.11,0.11l0,0l0.11,0.21v-0.11v0.32v0.21h0.21h0.32l0,0l0.43,0.11l0,0
	l0.32,0.21l-0.21-0.11l0.21,0.32l0,0l0,0l0.32,0.21l-0.11-0.32l-0.11,0.11l0,0l-0.43,0.43h0.11l-0.43,0.21h0.11h-0.43l0,0l0,0
	l-0.32,0.11l0,0H38l0,0h-0.32l0,0l-0.32-0.11h0.11l-0.11-0.11v0.11l0-0.21v0.11v-0.32l-0.11-0.43l0,0v-0.43l0,0l0.11-0.32v-0.32
	v0.11l0.11-0.32l-0.11,0.11l0.21-0.11l0,0l0.11-0.11h-0.11L37.89,85.6L37.89,85.6z M38,85.18h-0.32l0,0l0,0l-0.11,0.11l0,0l0,0
	l-0.32,0.11l0,0l0,0l-0.11,0.32l0,0l0,0v0.32v0.32l0,0l0,0v0.43l0,0l0,0l0.11,0.43v0.32l0,0l0,0l0.11,0.32l0,0l0,0l0.11,0.11l0,0
	l0,0l0.32,0.11l0,0l0,0h0.32l0,0l0,0h0.43l0,0l0,0l0.32-0.11l0,0h0.43l0,0l0,0l0.43-0.21l0,0l0,0l0.43-0.43l0,0l0,0l0.11-0.11
	l0.21-0.21l-0.21-0.11l-0.32-0.21l0.11,0.11l-0.21-0.32l0,0l0,0l-0.32-0.11l0,0l0,0l-0.43-0.11l0,0l0,0h-0.32l0.21,0.21v-0.32l0,0
	l0,0l-0.11-0.21l0,0l0,0l-0.11-0.11l-0.21-0.11l0,0l0,0L38,85.18L38,85.18L38,85.18z"/>
<polygon class="st6" points="39.92,86.99 39.82,86.78 39.6,86.57 39.39,86.46 39.18,86.35 38.85,86.35 38.64,86.35 38.43,86.46 
	38.43,86.67 38.43,86.89 38.43,87.21 38.53,87.42 38.64,87.63 38.85,87.95 39.28,88.38 39.5,88.6 39.82,88.6 40.14,88.7 40.46,88.6 
	40.78,88.6 40.99,88.38 41.31,88.27 41.53,88.17 41.63,88.06 41.1,87.74 40.78,87.53 40.46,87.31 "/>
<path class="st7" d="M39.82,87.21l0.53,0.21l0,0l0.32,0.21l0.32,0.21l0.53,0.32v-0.32l-0.21,0.11l0,0l-0.21,0.11l-0.32,0.11
	l-0.32,0.11l-0.21,0.11h0.11h-0.21h-0.32l0,0l-0.32-0.11h0.11l-0.21-0.21l0,0l-0.43-0.43l-0.21-0.21l0,0l-0.11-0.21l-0.11-0.21v0.11
	v-0.32v-0.21v0.11l0.11-0.21l-0.11,0.11l0.21-0.11h-0.11h0.21l0,0h0.21l0,0l0.21,0.11l0,0l0.21,0.11l0,0l0.21,0.21
	C39.6,86.99,39.82,87.1,39.82,87.21L39.82,87.21L39.82,87.21z M40.14,86.89l-0.11-0.21l-0.21-0.21l0,0l0,0l-0.32-0.21l0,0l0,0
	l-0.21-0.11l0,0l0,0h-0.21l0,0l0,0h-0.21l0,0l0,0l-0.43,0.11h-0.11v0.11l-0.11,0.21l0,0l0,0v0.21v0.32l0,0l0,0l0.11,0.21l0.11,0.21
	l0,0l0,0l0.21,0.21l0.43,0.43l0,0l0,0l0.21,0.21l0,0l0,0l0.32,0.11l0,0l0,0h0.43h0.32l0,0l0,0l0.32-0.11l0.32-0.11l0.32-0.11
	l0.21-0.11l0,0l0,0l0.21-0.11l0.21-0.21l-0.32-0.21H41.2l-0.32-0.21l-0.32-0.21l0,0l0,0L40.14,86.89L40.14,86.89z"/>
<path class="st9" d="M85.01,26.85L85.01,26.85c0,0.11-1.92,10.68-6.52,12.18h0.11c-0.64,0.11-1.82,0.75-1.6,2.24l0,0l0,0l0.43,1.18
	l0.32-0.53l-3.63,0.11l0.11,0.85c0.43-0.11,1.28-0.75,1.28-2.03v0.11c0.11-0.53-0.21-1.71-1.71-2.03h0.11
	c-0.11,0-2.14-0.64-3.31-3.63c0-0.11-2.35-5.13-3.1-7.69c0,0-0.11-0.64,0.11-1.28l-0.53,0.21c0,0,1.39,0.64,1.82,2.03v0.11
	l0.11,0.11c0.11,0.11,0.53,0.64,1.18,0.53c0.21,0,0.53-0.21,0.75-0.64v-0.11v-0.11c0-0.11,0.43-3.2,0.43-4.27
	c0-0.32,0.21-1.18,0.53-1.39h-0.43c0,0,0.53,0.43,0.85,1.18l0,0l0,0c0,0,1.07,2.14,1.39,3.31l0.11,0.21L74,27.59
	c0.11,0,0.43,0,0.64-0.11c0.32-0.21,0.53-0.75,0.75-1.39c0.21-0.85,0.75-3.31,1.6-4.27h-0.64c0,0,1.07,1.18,1.6,4.91v0.11l0.11,0.11
	c0,0.11,0.43,0.53,0.96,0.53c0.21,0,0.64-0.11,1.07-0.53v-0.11v-0.11c0.21-0.75,1.07-2.99,1.92-3.63l-0.11,0.11h0.11
	c0,0,0.11,0.11,0.11,0.53c0,0.11-0.11,4.06-0.11,4.81l0,0l0,0c0,0.21,0.21,0.53,0.43,0.64c0.43,0.11,0.85-0.32,0.96-0.53
	c0,0,1.07-1.5,1.82-2.35l-0.11,0.11c0.11-0.11,0.32-0.11,0.43-0.11l-0.11-0.11C85.01,26.53,85.01,26.63,85.01,26.85L85.01,26.85
	L85.01,26.85z M84.26,26.1c-0.75,0.85-1.71,2.35-1.82,2.46c-0.11,0.21-0.21,0.21-0.21,0.21c0.11,0,0.21,0,0.21,0.11l0,0v0.11
	c0-0.75,0.11-4.81,0.11-4.81c0-0.64-0.11-0.96-0.43-1.18c-0.32-0.32-0.75-0.11-0.85-0.11h-0.11l0,0c-1.18,1.07-2.14,3.95-2.14,4.06
	v-0.32c-0.11,0.11-0.21,0.21-0.43,0.21s-0.32-0.21-0.32-0.21l0.11,0.21c-0.53-4.06-1.82-5.34-1.82-5.34l-0.32-0.32l-0.32,0.32
	c-1.18,1.28-1.82,4.59-1.82,4.7c-0.11,0.75-0.43,0.85-0.43,0.85l0,0L74,27.38c-0.32-1.18-1.39-3.31-1.39-3.42v0.11
	c-0.32-1.07-1.07-1.6-1.18-1.6l-0.21-0.21l-0.21,0.21c-0.75,0.53-0.85,1.92-0.85,2.03c0,1.07-0.43,4.17-0.43,4.17v-0.11
	c0,0.11-0.11,0.11-0.11,0.11c-0.11,0-0.32-0.11-0.43-0.21l0.11,0.11c-0.53-1.71-2.24-2.46-2.24-2.46l-0.43-0.21l-0.11,0.43
	c-0.32,0.75-0.11,1.71-0.11,1.71c0.75,2.67,2.99,7.69,3.1,7.91c1.39,3.31,3.74,4.06,3.85,4.06l0,0l0,0
	c1.07,0.11,1.07,0.85,1.07,0.96l0,0l0,0c0,0.85-0.64,1.18-0.64,1.18l0.11,0.85l3.63-0.11h0.53l-0.21-0.53l-0.43-1.18v0.11
	c-0.11-1.07,0.75-1.28,0.96-1.28l0,0l0,0c5.02-1.6,6.94-12.39,7.05-12.82v0.11c0.21-0.53,0.11-0.85-0.11-1.18
	c-0.43-0.43-1.07-0.11-1.28,0L84.26,26.1L84.26,26.1z"/>
<path class="st9" d="M79.66,32.83c2.67-1.28,1.71-6.84,1.71-7.16l-0.11-0.96l-0.53,0.75c-3.74,5.23-1.5,7.16-1.39,7.26l0.21,0.11
	H79.66z M80.52,25.78L80.52,25.78c0.21,1.5,0.43,5.34-1.28,6.2h0.43c0,0-1.71-1.6,1.5-6.09L80.52,25.78z"/>
<path class="st9" d="M71.76,32.4c0.32,0.53,0.75,0.64,0.96,0.64c0.64-0.11,0.96-0.85,1.07-0.96v-0.11v-0.11
	c0.21-4.49-1.82-6.2-1.82-6.3l-0.53-0.43l-0.11,0.64c-1.18,5.66,0.32,6.52,0.64,6.73L71.76,32.4z M71.44,26.31L71.44,26.31
	c0,0,1.71,1.5,1.6,5.56v-0.11c-0.11,0.21-0.32,0.43-0.32,0.43l0,0c0,0-0.11,0-0.21-0.21l-0.11-0.11h-0.11c0,0-1.18-0.75-0.11-5.66
	L71.44,26.31z"/>
<path class="st9" d="M75.28,37.64c-0.43-1.92-4.91-6.84-5.45-7.37l-0.75-0.85l0.11,1.18c0.32,7.05,5.34,8.55,5.45,8.55l0,0l0,0
	c0.21,0,0.43-0.11,0.64-0.32C75.5,38.38,75.28,37.74,75.28,37.64L75.28,37.64z M74.75,38.28L74.75,38.28
	c-0.21,0-4.49-1.39-4.81-7.69l-0.75,0.32c1.39,1.5,4.91,5.56,5.23,6.94l0,0l0,0c0.11,0.21,0.11,0.43,0.11,0.43
	S74.54,38.28,74.75,38.28C74.64,38.28,74.64,38.28,74.75,38.28L74.75,38.28z"/>
<path class="st9" d="M75.71,25.24c-0.21,0.43-4.81,9.29,0.21,12.61l0.21,0.11l0.21-0.11c0,0,1.28-0.64,1.92-2.46
	c0.85-2.46,0.21-5.88-1.71-10.15l-0.32-0.75L75.71,25.24z M76.35,37.21c-4.38-2.88,0-11.43,0.11-11.54h-0.75
	c2.35,5.02,2.24,7.91,1.71,9.51c-0.53,1.5-1.39,2.03-1.5,2.03l0,0l0,0H76.35z"/>
<path class="st9" d="M82.87,29.62c-4.17,5.02-6.2,8.12-5.88,9.08c0,0.21,0.21,0.32,0.32,0.43h0.11h0.11
	c5.34-0.53,6.09-8.87,6.2-9.19l0.11-1.28L82.87,29.62z M77.53,38.28c0.11,0.11,0.21,0.21,0.21,0.21c0-0.11,0-1.5,5.77-8.33
	l-0.75-0.32c0,0.11-0.75,7.91-5.45,8.44L77.53,38.28z"/>
<path class="st10" d="M67.49,43.08L67.49,43.08c0,0,2.35-1.07,4.38-0.11l0,0l0,0c0.21,0,4.06,0.85,6.41-0.32l0,0
	c0,0,2.67-0.85,3.95-0.11l0,0l0,0c0.11,0,2.24,0.96,3.85,0.11l-0.21-0.43c-1.5,0.75-3.53-0.11-3.53-0.11l0,0
	c-1.39-0.85-4.17,0-4.27,0.11l0,0l0,0c-2.24,1.07-6.09,0.32-6.2,0.21l0,0c-2.24-1.07-4.59,0-4.7,0.11L67.49,43.08z"/>
<path class="st10" d="M67.49,46.5L67.49,46.5c0,0,2.35-1.07,4.38-0.11l0,0l0,0c0.21,0,4.06,0.85,6.41-0.32l0,0
	c0,0,2.67-0.85,3.95-0.11l0,0l0,0c0.11,0,2.24,0.96,3.85,0.11l-0.21-0.43c-1.5,0.75-3.53-0.11-3.53-0.11l0,0
	c-1.39-0.85-4.17,0-4.27,0.11l0,0l0,0c-2.24,1.07-6.09,0.32-6.2,0.21l0,0c-2.24-1.07-4.59,0-4.7,0.11L67.49,46.5z"/>
<path class="st6" d="M77.42,38.92c0,0-1.18-0.43,5.77-8.87C83.19,30.05,82.44,38.38,77.42,38.92z M76.14,37.85
	c-4.7-3.2-0.11-12.18-0.11-12.18C80.73,35.61,76.14,37.85,76.14,37.85z M74.64,38.92c0,0-4.81-1.39-5.13-8.23
	c0,0,4.91,5.34,5.34,7.26C74.86,37.96,75.18,38.92,74.64,38.92z M71.65,26.1c0,0,1.92,1.6,1.71,5.98c0,0-0.53,1.39-1.28,0.32
	C72.08,32.4,70.58,31.76,71.65,26.1z M80.95,25.88c0,0,0.85,5.56-1.5,6.73C79.45,32.62,77.42,30.91,80.95,25.88z M84.58,26.53
	c-0.75,0.85-1.82,2.46-1.82,2.46c-0.64,0.85-0.75,0.11-0.75,0.11c0-0.85,0.11-4.91,0.11-4.91c0-1.18-0.75-0.85-0.75-0.85
	c-1.18,0.96-2.03,3.95-2.03,3.95c-0.75,0.96-1.39,0-1.39,0c-0.53-3.95-1.71-5.23-1.71-5.23c-1.07,1.18-1.71,4.49-1.71,4.49
	c-0.21,1.39-0.85,1.18-0.85,1.18c-0.32-1.18-1.39-3.42-1.39-3.42c-0.32-0.96-0.96-1.39-0.96-1.39c-0.53,0.43-0.64,1.71-0.64,1.71
	c0,1.07-0.43,4.17-0.43,4.17c-0.43,0.85-1.18,0-1.18,0c-0.53-1.6-2.03-2.24-2.03-2.24c-0.21,0.64-0.11,1.5-0.11,1.5
	c0.75,2.67,3.1,7.8,3.1,7.8c1.28,3.2,3.63,3.95,3.63,3.95c1.5,0.21,1.39,1.5,1.39,1.5c0,1.28-0.96,1.6-0.96,1.6l3.63-0.11
	l-0.43-1.18c-0.21-1.6,1.28-1.82,1.28-1.82c4.91-1.5,6.73-12.61,6.73-12.61C85.75,25.88,84.58,26.53,84.58,26.53z"/>
<path class="st6" d="M85.11,27.06L85.11,27.06c0,0.11-1.92,10.9-6.62,12.39l0,0c-0.53,0.11-1.6,0.64-1.5,2.03l0,0l0,0l0.43,1.18
	l0.21-0.32L74,42.44l0.11,0.43c0.43-0.11,1.18-0.64,1.18-1.82l0,0c0,0,0.21-1.5-1.6-1.71l0,0c0,0-2.24-0.64-3.42-3.74
	c0-0.11-2.35-5.13-3.1-7.8c0,0-0.11-0.75,0.11-1.39l-0.32,0.11c0,0,1.5,0.64,1.92,2.14l0,0l0,0c0,0.11,0.53,0.53,0.96,0.43
	c0.21,0,0.43-0.11,0.53-0.53l0,0l0,0c0-0.11,0.43-3.2,0.43-4.27c0-0.32,0.21-1.28,0.53-1.6h-0.21c0,0,0.64,0.43,0.85,1.28l0,0l0,0
	c0,0,1.07,2.14,1.39,3.31v0.11h0.11c0,0,0.21,0,0.43-0.11c0.32-0.21,0.53-0.64,0.64-1.28c0,0,0.64-3.31,1.71-4.38h-0.32
	c0,0,1.07,1.28,1.6,5.02v0.11l0,0c0,0,0.32,0.43,0.85,0.53c0.32,0,0.64-0.11,0.85-0.53l0,0l0,0c0,0,0.85-2.88,1.92-3.85h-0.11
	c0,0,0.11-0.11,0.21,0c0.11,0.11,0.21,0.32,0.21,0.64c0,0-0.11,4.06-0.11,4.91l0,0l0,0c0,0,0,0.43,0.32,0.53
	c0.32,0.11,0.53-0.21,0.75-0.43c0,0,1.07-1.5,1.82-2.46l-0.11,0.11c0.21-0.11,0.53-0.21,0.53-0.11
	C85.22,26.63,85.22,26.74,85.11,27.06L85.11,27.06L85.11,27.06z M84.37,26.42c-0.75,0.85-1.82,2.46-1.82,2.46
	c-0.21,0.32-0.32,0.32-0.32,0.32l0,0v-0.11l0,0c0-0.85,0.11-4.81,0.11-4.91c0-0.53-0.11-0.85-0.32-1.07
	C81.69,22.89,81.37,23,81.37,23l0,0l0,0c-1.18,0.96-2.03,3.85-2.14,4.06v-0.11c-0.21,0.21-0.32,0.32-0.53,0.32
	c-0.32,0-0.53-0.32-0.53-0.32v0.11c-0.53-4.06-1.71-5.23-1.82-5.34l-0.11-0.11l-0.11,0.21c-1.07,1.28-1.71,4.49-1.71,4.59
	c-0.21,1.07-0.53,1.07-0.53,1.07L74,27.59c-0.32-1.18-1.39-3.31-1.39-3.42l0,0c-0.32-1.07-1.07-1.5-1.07-1.5l-0.11-0.11l-0.11,0.11
	c-0.64,0.53-0.75,1.82-0.75,1.92c0,1.07-0.43,4.17-0.43,4.17v-0.11c-0.11,0.21-0.21,0.21-0.32,0.32c-0.21,0-0.53-0.21-0.64-0.32
	v0.11c-0.53-1.6-2.14-2.35-2.14-2.35l-0.21-0.11l-0.11,0.21c-0.21,0.75-0.11,1.6-0.11,1.6c0.75,2.67,3.1,7.8,3.1,7.91
	c1.28,3.31,3.63,3.95,3.74,4.06l0,0l0,0c1.28,0.21,1.18,1.18,1.18,1.28l0,0l0,0c0,1.07-0.75,1.39-0.85,1.39l0.11,0.43l3.63-0.11
	h0.32l0.11-0.43l-0.43-1.18l0,0c-0.11-1.39,1.07-1.6,1.18-1.6l0,0l0,0c4.91-1.5,6.84-12.29,6.94-12.71l0,0
	c0.11-0.11,0.21-0.64-0.11-0.85C85.22,25.99,84.58,26.31,84.37,26.42L84.37,26.42L84.37,26.42z"/>
<path class="st6" d="M79.56,32.83c2.46-1.18,1.6-6.73,1.6-6.94l-0.11-0.53l-0.32,0.43c-3.63,5.13-1.5,6.94-1.39,7.05l0.11,0.11
	L79.56,32.83z M80.73,25.99L80.73,25.99c0,0.11,0.85,5.45-1.39,6.52h0.21c0,0-1.92-1.71,1.5-6.41L80.73,25.99z"/>
<path class="st6" d="M71.97,32.51c0.21,0.43,0.53,0.53,0.85,0.53c0.53,0,0.85-0.75,0.85-0.85l0,0l0,0c0.21-4.38-1.71-6.09-1.82-6.09
	l-0.21-0.21l-0.11,0.32C70.37,31.76,71.87,32.51,71.97,32.51L71.97,32.51z M71.55,26.31L71.55,26.31c0,0,1.82,1.6,1.6,5.77v-0.11
	c-0.11,0.21-0.32,0.53-0.53,0.64c-0.11,0-0.32-0.21-0.43-0.32v-0.11h-0.11c0,0-1.39-0.64-0.32-5.98L71.55,26.31z"/>
<path class="st6" d="M75.07,37.96c-0.43-1.92-5.23-7.16-5.45-7.37l-0.43-0.43v0.53c0.32,6.94,5.23,8.33,5.23,8.44l0,0l0,0
	c0.21,0,0.32-0.11,0.43-0.21C75.28,38.6,75.07,37.96,75.07,37.96L75.07,37.96z M74.64,38.7L74.64,38.7
	c-0.21-0.11-4.7-1.39-5.02-8.01l-0.32,0.21c0,0,4.91,5.34,5.34,7.16l0,0l0,0C74.75,38.28,74.75,38.6,74.64,38.7
	C74.75,38.7,74.64,38.7,74.64,38.7L74.64,38.7z"/>
<path class="st6" d="M75.93,25.56c-0.21,0.43-4.7,9.29,0.11,12.5l0.11,0.11h0.11c0,0,1.18-0.64,1.71-2.35
	c0.53-1.71,0.75-4.81-1.71-10.15l-0.21-0.43L75.93,25.56z M76.25,37.64c-4.49-2.99-0.11-11.86,0-11.86h-0.32
	c2.35,5.13,2.24,8.12,1.71,9.72c-0.53,1.6-1.6,2.14-1.6,2.14l0,0l0,0H76.25z"/>
<path class="st6" d="M82.98,29.94c-4.06,4.91-6.09,8.01-5.88,8.97c0,0.21,0.11,0.21,0.21,0.21l0,0l0,0
	c5.13-0.53,5.88-8.76,5.98-9.08l0.11-0.64L82.98,29.94z M77.42,38.7C77.53,38.7,77.53,38.81,77.42,38.7c0,0-0.21-1.07,5.88-8.55
	l-0.32-0.11C82.98,30.16,82.12,38.17,77.42,38.7L77.42,38.7z"/>
<path class="st10" d="M29.77,46.5V32.62l-0.21,0.21c6.84-1.28,12.18,1.39,12.29,1.5h0.11h0.11c6.3-2.67,12.71-1.5,12.82-1.5
	l-0.21-0.21l0.11,14l0.32-0.21c-7.48-2.67-13.03,0.21-13.14,0.32h0.21c-7.69-2.78-12.39-0.32-12.61-0.21L29.77,46.5z M42.06,46.93
	L42.06,46.93c0.11,0,5.56-2.88,12.82-0.21l0.32,0.11V46.5l-0.11-14v-0.21h-0.21c-0.11,0-6.62-1.18-13.03,1.5h0.21
	c-0.11,0-5.56-2.78-12.5-1.5h-0.21v0.21V46.4v0.32l0.32-0.11c0,0,4.7-2.46,12.29,0.32H42.06L42.06,46.93z"/>
</svg>
